  0
SECTION
  2
HEADER
  9
$ACADVER
  1
AC1014
  9
$ACADMAINTVER
 70
     0
  9
$DWGCODEPAGE
  3
ANSI_1252
  9
$INSBASE
 10
0.0
 20
0.0
 30
0.0
  9
$EXTMIN
 10
0.0
 20
0.0
 30
0.0
  9
$EXTMAX
 10
8.5
 20
11.0
 30
0.0
  9
$LIMMIN
 10
0.0
 20
0.0
  9
$LIMMAX
 10
12.0
 20
9.0
  9
$ORTHOMODE
 70
     0
  9
$REGENMODE
 70
     1
  9
$FILLMODE
 70
     0
  9
$QTEXTMODE
 70
     0
  9
$MIRRTEXT
 70
     1
  9
$DRAGMODE
 70
     2
  9
$LTSCALE
 40
1.0
  9
$OSMODE
 70
     0
  9
$ATTMODE
 70
     1
  9
$TEXTSIZE
 40
0.2
  9
$TRACEWID
 40
0.05
  9
$TEXTSTYLE
  7
STANDARD
  9
$CLAYER
  8
0
  9
$CELTYPE
  6
BYLAYER
  9
$CECOLOR
 62
   256
  9
$CELTSCALE
 40
1.0
  9
$DELOBJ
 70
     1
  9
$DISPSILH
 70
     0
  9
$DIMSCALE
 40
1.0
  9
$DIMASZ
 40
0.18
  9
$DIMEXO
 40
0.0625
  9
$DIMDLI
 40
0.38
  9
$DIMRND
 40
0.0
  9
$DIMDLE
 40
0.0
  9
$DIMEXE
 40
0.18
  9
$DIMTP
 40
0.0
  9
$DIMTM
 40
0.0
  9
$DIMTXT
 40
0.18
  9
$DIMCEN
 40
0.09
  9
$DIMTSZ
 40
0.0
  9
$DIMTOL
 70
     0
  9
$DIMLIM
 70
     0
  9
$DIMTIH
 70
     0
  9
$DIMTOH
 70
     0
  9
$DIMSE1
 70
     0
  9
$DIMSE2
 70
     0
  9
$DIMTAD
 70
     1
  9
$DIMZIN
 70
     0
  9
$DIMBLK
  1

  9
$DIMASO
 70
     1
  9
$DIMSHO
 70
     1
  9
$DIMPOST
  1

  9
$DIMAPOST
  1

  9
$DIMALT
 70
     0
  9
$DIMALTD
 70
     2
  9
$DIMALTF
 40
25.4
  9
$DIMLFAC
 40
1.0
  9
$DIMTOFL
 70
     0
  9
$DIMTVP
 40
0.0
  9
$DIMTIX
 70
     0
  9
$DIMSOXD
 70
     0
  9
$DIMSAH
 70
     0
  9
$DIMBLK1
  1

  9
$DIMBLK2
  1

  9
$DIMSTYLE
  2
STANDARD
  9
$DIMCLRD
 70
     0
  9
$DIMCLRE
 70
     0
  9
$DIMCLRT
 70
     0
  9
$DIMTFAC
 40
1.0
  9
$DIMGAP
 40
0.09
  9
$DIMJUST
 70
     0
  9
$DIMSD1
 70
     0
  9
$DIMSD2
 70
     0
  9
$DIMTOLJ
 70
     1
  9
$DIMTZIN
 70
     0
  9
$DIMALTZ
 70
     0
  9
$DIMALTTZ
 70
     0
  9
$DIMFIT
 70
     3
  9
$DIMUPT
 70
     0
  9
$DIMUNIT
 70
     2
  9
$DIMDEC
 70
     2
  9
$DIMTDEC
 70
     4
  9
$DIMALTU
 70
     2
  9
$DIMALTTD
 70
     2
  9
$DIMTXSTY
  7
STANDARD
  9
$DIMAUNIT
 70
     0
  9
$LUNITS
 70
     2
  9
$LUPREC
 70
     4
  9
$SKETCHINC
 40
0.1
  9
$FILLETRAD
 40
0.5
  9
$AUNITS
 70
     0
  9
$AUPREC
 70
     0
  9
$MENU
  1
.
  9
$ELEVATION
 40
0.0
  9
$PELEVATION
 40
0.0
  9
$THICKNESS
 40
0.0
  9
$LIMCHECK
 70
     0
  9
$BLIPMODE
 70
     0
  9
$CHAMFERA
 40
0.5
  9
$CHAMFERB
 40
0.5
  9
$CHAMFERC
 40
1.0
  9
$CHAMFERD
 40
0.0
  9
$SKPOLY
 70
     0
  9
$TDCREATE
 40
2450772.666465926
  9
$TDUPDATE
 40
2454488.777199074
  9
$TDINDWG
 40
0.0011680556
  9
$TDUSRTIMER
 40
0.0000115625
  9
$USRTIMER
 70
     1
  9
$ANGBASE
 50
0.0
  9
$ANGDIR
 70
     0
  9
$PDMODE
 70
     0
  9
$PDSIZE
 40
0.0
  9
$PLINEWID
 40
0.0
  9
$COORDS
 70
     1
  9
$SPLFRAME
 70
     0
  9
$SPLINETYPE
 70
     6
  9
$SPLINESEGS
 70
     8
  9
$ATTDIA
 70
     0
  9
$ATTREQ
 70
     1
  9
$HANDLING
 70
     1
  9
$HANDSEED
  5
8C
  9
$SURFTAB1
 70
     6
  9
$SURFTAB2
 70
     6
  9
$SURFTYPE
 70
     6
  9
$SURFU
 70
     6
  9
$SURFV
 70
     6
  9
$UCSNAME
  2

  9
$UCSORG
 10
0.0
 20
0.0
 30
0.0
  9
$UCSXDIR
 10
1.0
 20
0.0
 30
0.0
  9
$UCSYDIR
 10
0.0
 20
1.0
 30
0.0
  9
$PUCSNAME
  2

  9
$PUCSORG
 10
0.0
 20
0.0
 30
0.0
  9
$PUCSXDIR
 10
1.0
 20
0.0
 30
0.0
  9
$PUCSYDIR
 10
0.0
 20
1.0
 30
0.0
  9
$USERI1
 70
     0
  9
$USERI2
 70
     0
  9
$USERI3
 70
     0
  9
$USERI4
 70
     0
  9
$USERI5
 70
     0
  9
$USERR1
 40
0.0
  9
$USERR2
 40
0.0
  9
$USERR3
 40
0.0
  9
$USERR4
 40
0.0
  9
$USERR5
 40
0.0
  9
$WORLDVIEW
 70
     1
  9
$SHADEDGE
 70
     3
  9
$SHADEDIF
 70
    70
  9
$TILEMODE
 70
     1
  9
$MAXACTVP
 70
    48
  9
$PINSBASE
 10
0.0
 20
0.0
 30
0.0
  9
$PLIMCHECK
 70
     0
  9
$PEXTMIN
 10
0.0
 20
0.0
 30
0.0
  9
$PEXTMAX
 10
0.0
 20
0.0
 30
0.0
  9
$PLIMMIN
 10
0.0
 20
0.0
  9
$PLIMMAX
 10
12.0
 20
9.0
  9
$UNITMODE
 70
     0
  9
$VISRETAIN
 70
     1
  9
$PLINEGEN
 70
     0
  9
$PSLTSCALE
 70
     1
  9
$TREEDEPTH
 70
  3020
  9
$PICKSTYLE
 70
     1
  9
$CMLSTYLE
  2
STANDARD
  9
$CMLJUST
 70
     0
  9
$CMLSCALE
 40
1.0
  9
$PROXYGRAPHICS
 70
     1
  9
$MEASUREMENT
 70
     0
  0
ENDSEC
  0
SECTION
  2
CLASSES
  0
CLASS
  1
LWPOLYLINE
  2
AcDbPolyline
  3
"AutoCAD"
 90
        0
280
     0
281
     1
  0
CLASS
  1
IMAGE
  2
AcDbRasterImage
  3
ISM
 90
      127
280
     0
281
     1
  0
CLASS
  1
OLE2FRAME
  2
AcDbOle2Frame
  3
""
 90
        0
280
     0
281
     1
  0
CLASS
  1
HATCH
  2
AcDbHatch
  3
"ACAD_SEDONA"
 90
        0
280
     0
281
     1
  0
CLASS
  1
DICTIONARYVAR
  2
AcDbDictionaryVar
  3
"AutoCAD"
 90
        0
280
     0
281
     0
  0
CLASS
  1
RASTERVARIABLES
  2
AcDbRasterVariables
  3
ISM
 90
        0
280
     0
281
     0
  0
CLASS
  1
IMAGEDEF
  2
AcDbRasterImageDef
  3
ISM
 90
        0
280
     0
281
     0
  0
CLASS
  1
IMAGEDEF_REACTOR
  2
AcDbRasterImageDefReactor
  3
ISM
 90
        1
280
     0
281
     0
  0
CLASS
  1
IDBUFFER
  2
AcDbIdBuffer
  3
"Acad"
 90
        0
280
     0
281
     0
  0
CLASS
  1
SPATIAL_FILTER
  2
AcDbSpatialFilter
  3
"Acad"
 90
        0
280
     0
281
     0
  0
CLASS
  1
XRECORD
  2
AcDbXrecord
  3
"<Built In>"
 90
        0
280
     0
281
     0
  0
CLASS
  1
SORTENTSTABLE
  2
AcDbSortentsTable
  3
"AutoCAD"
 90
        0
280
     0
281
     0
  0
CLASS
  1
LAYER_INDEX
  2
AcDbLayerIndex
  3
"Acad"
 90
        0
280
     0
281
     0
  0
CLASS
  1
SPATIAL_INDEX
  2
AcDbSpatialIndex
  3
"Acad"
 90
        0
280
     0
281
     0
  0
CLASS
  1
OBJECT_PTR
  2
CAseDLPNTableRecord
  3
"ASE-LPNTableRecord"
 90
        1
280
     0
281
     0
  0
CLASS
  1
LAYOUT
  2
AcDbLayout
  3
"AutoCAD 2000"
 90
        1
280
     0
281
     0
  0
CLASS
  1
PLOTSETTINGS
  2
AcDbPlotSettings
  3
"AutoCAD 2000"
 90
        1
280
     0
281
     0
  0
CLASS
  1
ACDBDICTIONARYWDFLT
  2
AcDbDictionaryWithDefault
  3
"AutoCAD 2000"
 90
        1
280
     0
281
     0
  0
CLASS
  1
ACDBPLACEHOLDER
  2
AcDbPlaceHolder
  3
"AutoCAD 2000"
 90
        1
280
     0
281
     0
  0
CLASS
  1
VBA_PROJECT
  2
AcDbVbaProject
  3
"acadvba"
 90
        1
280
     0
281
     0
  0
CLASS
  1
WIPEOUT
  2
AcDbWipeout
  3
WipeOut|AutoCAD Express Tool|expresstools@autodesk.com
 90
      127
280
     0
281
     1
  0
CLASS
  1
WIPEOUTVARIABLES
  2
AcDbWipeoutVariables
  3
WipeOut|AutoCAD Express Tool|expresstools@autodesk.com
 90
        0
280
     0
281
     0
  0
CLASS
  1
RTEXT
  2
RText
  3
RText|AutoCAD Express Tool|expresstools@autodesk.com
 90
        0
280
     0
281
     1
  0
CLASS
  1
ARCALIGNEDTEXT
  2
AcDbArcAlignedText
  3
ATEXT|AutoCAD Express Tool|expresstools@autodesk.com
 90
        0
280
     0
281
     1
  0
ENDSEC
  0
SECTION
  2
TABLES
  0
TABLE
  2
VPORT
  5
8
100
AcDbSymbolTable
 70
     1
  0
VPORT
  5
25
100
AcDbSymbolTableRecord
100
AcDbViewportTableRecord
  2
*ACTIVE
 70
     0
 10
0.0
 20
0.0
 11
1.0
 21
1.0
 12
4.25
 22
5.5
 13
0.0
 23
0.0
 14
0.5
 24
0.5
 15
0.5
 25
0.5
 16
0.0
 26
0.0
 36
1.0
 17
0.0
 27
0.0
 37
0.0
 40
11.0
 41
0.772727
 42
50.0
 43
0.0
 44
0.0
 50
0.0
 51
0.0
 71
     0
 72
   100
 73
     1
 74
     1
 75
     0
 76
     0
 77
     0
 78
     0
  0
ENDTAB
  0
TABLE
  2
LTYPE
  5
5
100
AcDbSymbolTable
 70
     3
  0
LTYPE
  5
12
100
AcDbSymbolTableRecord
100
AcDbLinetypeTableRecord
  2
BYBLOCK
 70
    64
  3

 72
    65
 73
     0
 40
0.0
  0
LTYPE
  5
13
100
AcDbSymbolTableRecord
100
AcDbLinetypeTableRecord
  2
BYLAYER
 70
    64
  3

 72
    65
 73
     0
 40
0.0
  0
LTYPE
  5
14
100
AcDbSymbolTableRecord
100
AcDbLinetypeTableRecord
  2
CONTINUOUS
 70
     0
  3
Solid line
 72
    65
 73
     0
 40
0.0
  0
ENDTAB
  0
TABLE
  2
LAYER
  5
2
100
AcDbSymbolTable
 70
     2
  0
LAYER
  5
E
100
AcDbSymbolTableRecord
100
AcDbLayerTableRecord
  2
0
 70
     0
 62
     7
  6
CONTINUOUS
  0
LAYER
  5
40
100
AcDbSymbolTableRecord
100
AcDbLayerTableRecord
  2
CONNECTOR
 70
     0
 62
     7
  6
CONTINUOUS
  0
ENDTAB
  0
TABLE
  2
STYLE
  5
3
100
AcDbSymbolTable
 70
     1
  0
STYLE
  5
F
100
AcDbSymbolTableRecord
100
AcDbTextStyleTableRecord
  2
STANDARD
 70
     0
 40
0.0
 41
1.0
 50
0.0
 71
     0
 42
0.2
  3
txt.shx
  4

  0
ENDTAB
  0
TABLE
  2
VIEW
  5
6
100
AcDbSymbolTable
 70
     0
  0
ENDTAB
  0
TABLE
  2
UCS
  5
7
100
AcDbSymbolTable
 70
     0
  0
ENDTAB
  0
TABLE
  2
APPID
  5
9
100
AcDbSymbolTable
 70
     1
  0
APPID
  5
10
100
AcDbSymbolTableRecord
100
AcDbRegAppTableRecord
  2
ACAD
 70
     0
  0
ENDTAB
  0
TABLE
  2
DIMSTYLE
  5
A
100
AcDbSymbolTable
 70
     1
  0
DIMSTYLE
105
1D
100
AcDbSymbolTableRecord
100
AcDbDimStyleTableRecord
  2
STANDARD
 70
     0
  3

  4

  5

  6

  7

 40
1.0
 41
0.18
 42
0.0625
 43
0.38
 44
0.18
 45
0.0
 46
0.0
 47
0.0
 48
0.0
 71
     0
 72
     0
 73
     1
 74
     1
 75
     0
 76
     0
 77
     0
 78
     0
140
0.18
141
0.09
142
0.0
143
25.4
144
1.0
145
0.0
146
1.0
147
0.09
170
     0
171
     2
172
     0
173
     0
174
     0
175
     0
176
     0
177
     0
178
     0
270
     2
271
     4
272
     4
273
     2
274
     2
275
     0
280
     0
281
     0
282
     0
283
     1
284
     0
285
     0
286
     0
287
     3
288
     0
340
F
  0
ENDTAB
  0
TABLE
  2
BLOCK_RECORD
  5
1
100
AcDbSymbolTable
 70
     5
  0
BLOCK_RECORD
  5
18
100
AcDbSymbolTableRecord
100
AcDbBlockTableRecord
  2
*MODEL_SPACE
  0
BLOCK_RECORD
  5
15
100
AcDbSymbolTableRecord
100
AcDbBlockTableRecord
  2
*PAPER_SPACE
  0
BLOCK_RECORD
  5
6C
100
AcDbSymbolTableRecord
100
AcDbBlockTableRecord
  2
BOX
  0
BLOCK_RECORD
  5
72
100
AcDbSymbolTableRecord
100
AcDbBlockTableRecord
  2
SINGLE_ARROWHEAD
  0
BLOCK_RECORD
  5
79
100
AcDbSymbolTableRecord
100
AcDbBlockTableRecord
  2
DYNAMIC_CONNECTOR
  0
BLOCK_RECORD
  5
7D
100
AcDbSymbolTableRecord
100
AcDbBlockTableRecord
  2
CIRCLE
  0
BLOCK_RECORD
  5
83
100
AcDbSymbolTableRecord
100
AcDbBlockTableRecord
  2
TITLE_BLOCK_CONTEMP_
  0
ENDTAB
  0
ENDSEC
  0
SECTION
  2
BLOCKS
  0
BLOCK
  5
19
100
AcDbEntity
  8
0
100
AcDbBlockBegin
  2
*MODEL_SPACE
 70
     0
 10
0.0
 20
0.0
 30
0.0
  3
*MODEL_SPACE
  1

  0
ENDBLK
  5
1A
100
AcDbEntity
  8
0
100
AcDbBlockEnd
  0
BLOCK
  5
16
100
AcDbEntity
 67
     1
  8
0
100
AcDbBlockBegin
  2
*PAPER_SPACE
 70
     0
 10
0.0
 20
0.0
 30
0.0
  3
*PAPER_SPACE
  1

  0
ENDBLK
  5
17
100
AcDbEntity
 67
     1
  8
0
100
AcDbBlockEnd
  0
BLOCK
  5
6D
100
AcDbEntity
  8
0
100
AcDbBlockBegin
  2
BOX
 70
     0
 10
0.0
 20
0.0
 30
0.0
  3
BOX
  1

  0
LWPOLYLINE
  5
6E
102
{ACAD_REACTORS
330
6F
102
}
100
AcDbEntity
  8
0
  6
CONTINUOUS
 62
     7
100
AcDbPolyline
 90
        4
 70
     1
 10
0.75
 20
1.0
 10
2.25
 20
1.0
 10
2.25
 20
2.0
 10
0.75
 20
2.0
  0
HATCH
  5
6F
100
AcDbEntity
  8
0
 62
   254
100
AcDbHatch
 10
0.0
 20
0.0
 30
0.0
210
0.0
220
0.0
230
1.0
  2
SOLID
 70
     1
 71
     1
 91
        1
 92
        3
 72
     0
 73
     1
 93
        4
 10
0.75
 20
1.0
 10
2.25
 20
1.0
 10
2.25
 20
2.0
 10
0.75
 20
2.0
 97
        1
330
6E
 75
     0
 76
     1
 98
        0
  0
MTEXT
  5
70
100
AcDbEntity
  8
0
100
AcDbMText
 10
1.5
 20
1.5
 30
0.0
 40
0.080892
 41
1.5
 71
     5
 72
     5
  1
\C7;\fArial|b0|i0|;\H0.08089161850512;text
  0
ENDBLK
  5
71
100
AcDbEntity
  8
0
100
AcDbBlockEnd
  0
BLOCK
  5
73
100
AcDbEntity
  8
0
100
AcDbBlockBegin
  2
SINGLE_ARROWHEAD
 70
     0
 10
0.0
 20
0.0
 30
0.0
  3
SINGLE_ARROWHEAD
  1

  0
LWPOLYLINE
  5
74
102
{ACAD_REACTORS
330
75
102
}
100
AcDbEntity
  8
0
  6
CONTINUOUS
 62
   153
100
AcDbPolyline
 90
        3
 70
     1
 10
1.5625
 20
2.03125
 10
1.5625
 20
1.96875
 10
1.5
 20
2.0
  0
HATCH
  5
75
100
AcDbEntity
  8
0
 62
   153
100
AcDbHatch
 10
0.0
 20
0.0
 30
0.0
210
0.0
220
0.0
230
1.0
  2
SOLID
 70
     1
 71
     1
 91
        2
 92
        3
 72
     0
 73
     1
 93
        3
 10
1.5625
 20
2.03125
 10
1.5625
 20
1.96875
 10
1.5
 20
2.0
 97
        1
330
74
 92
        3
 72
     0
 73
     1
 93
        3
 10
2.4375
 20
2.03125
 10
2.4375
 20
1.96875
 10
2.5
 20
2.0
 97
        1
330
76
 75
     0
 76
     1
 98
        0
  0
LWPOLYLINE
  5
76
102
{ACAD_REACTORS
330
75
102
}
100
AcDbEntity
  8
0
  6
CONTINUOUS
 62
   153
100
AcDbPolyline
 90
        3
 70
     1
 10
2.4375
 20
2.03125
 10
2.4375
 20
1.96875
 10
2.5
 20
2.0
  0
LINE
  5
77
100
AcDbEntity
  8
0
  6
CONTINUOUS
 62
   153
100
AcDbLine
 10
1.5625
 20
2.0
 30
0.0
 11
2.4375
 21
2.0
 31
0.0
  0
ENDBLK
  5
78
100
AcDbEntity
  8
0
100
AcDbBlockEnd
  0
BLOCK
  5
7A
100
AcDbEntity
  8
0
100
AcDbBlockBegin
  2
DYNAMIC_CONNECTOR
 70
     0
 10
0.0
 20
0.0
 30
0.0
  3
DYNAMIC_CONNECTOR
  1

  0
LINE
  5
7B
100
AcDbEntity
  8
CONNECTOR
  6
CONTINUOUS
100
AcDbLine
 10
1.0
 20
2.0
 30
0.0
 11
2.0
 21
1.0
 31
0.0
  0
ENDBLK
  5
7C
100
AcDbEntity
  8
0
100
AcDbBlockEnd
  0
BLOCK
  5
7E
100
AcDbEntity
  8
0
100
AcDbBlockBegin
  2
CIRCLE
 70
     0
 10
0.0
 20
0.0
 30
0.0
  3
CIRCLE
  1

  0
LWPOLYLINE
  5
7F
102
{ACAD_REACTORS
330
80
102
}
100
AcDbEntity
  8
0
  6
CONTINUOUS
 62
     7
100
AcDbPolyline
 90
        2
 70
     1
 10
1.0
 20
1.5
 42
-1.0
 10
2.0
 20
1.5
 42
-1.0
  0
HATCH
  5
80
100
AcDbEntity
  8
0
 62
   254
100
AcDbHatch
 10
0.0
 20
0.0
 30
0.0
210
0.0
220
0.0
230
1.0
  2
SOLID
 70
     1
 71
     1
 91
        1
 92
        3
 72
     1
 73
     1
 93
        2
 10
1.0
 20
1.5
 42
-0.9999999999999999
 10
2.0
 20
1.5
 42
-1.0000000000000071
 97
        1
330
7F
 75
     0
 76
     1
 98
        0
  0
MTEXT
  5
81
100
AcDbEntity
  8
0
100
AcDbMText
 10
1.5
 20
1.5
 30
0.0
 40
0.080892
 41
1.0
 71
     5
 72
     5
  1
\C7;\fArial|b0|i0|;\H0.08089161850512;text
  0
ENDBLK
  5
82
100
AcDbEntity
  8
0
100
AcDbBlockEnd
  0
BLOCK
  5
84
100
AcDbEntity
  8
0
100
AcDbBlockBegin
  2
TITLE_BLOCK_CONTEMP_
 70
     0
 10
0.0
 20
0.0
 30
0.0
  3
TITLE_BLOCK_CONTEMP_
  1

  0
LWPOLYLINE
  5
85
102
{ACAD_REACTORS
330
86
102
}
100
AcDbEntity
  8
0
  6
CONTINUOUS
 62
     7
100
AcDbPolyline
 90
        4
 70
     1
 10
4.4375
 20
3.9375
 10
6.5625
 20
3.9375
 10
6.5625
 20
4.5625
 10
4.4375
 20
4.5625
  0
HATCH
  5
86
100
AcDbEntity
  8
0
 62
   254
100
AcDbHatch
 10
0.0
 20
0.0
 30
0.0
210
0.0
220
0.0
230
1.0
  2

 70
     1
 71
     1
 91
        5
 92
        3
 72
     0
 73
     1
 93
        4
 10
4.4375
 20
3.9375
 10
6.5625
 20
3.9375
 10
6.5625
 20
4.5625
 10
4.4375
 20
4.5625
 97
        1
330
85
 92
        0
 93
        0
 97
        0
 92
        0
 93
        0
 97
        0
 92
        0
 93
        0
 97
        0
 92
        0
 93
        0
 97
        0
 75
     0
 76
     1
 98
        0
  0
LINE
  5
87
100
AcDbEntity
  8
0
  6
CONTINUOUS
 62
     7
100
AcDbLine
 10
4.33125
 20
4.5625
 30
0.0
 11
6.5625
 21
4.5625
 31
0.0
  0
LINE
  5
88
100
AcDbEntity
  8
0
  6
CONTINUOUS
 62
     7
100
AcDbLine
 10
4.4375
 20
4.6475
 30
0.0
 11
4.4375
 21
3.9375
 31
0.0
  0
LINE
  5
89
100
AcDbEntity
  8
0
  6
CONTINUOUS
 62
     7
100
AcDbLine
 10
4.4375
 20
3.9375
 30
0.0
 11
5.5
 21
3.9375
 31
0.0
  0
MTEXT
  5
8A
100
AcDbEntity
  8
0
100
AcDbMText
 10
5.5
 20
4.25
 30
0.0
 40
0.242675
 41
2.076661
 71
     5
 72
     5
  1
\C7;\fArial|b0|i0|;\H0.24267485551536;Title\P\H0.12133881635964;Tuesday, January 22, 2008
  0
ENDBLK
  5
8B
100
AcDbEntity
  8
0
100
AcDbBlockEnd
  0
ENDSEC
  0
SECTION
  2
ENTITIES
  0
LWPOLYLINE
  5
31
102
{ACAD_REACTORS
330
32
102
}
100
AcDbEntity
  8
0
  6
CONTINUOUS
 62
     7
100
AcDbPolyline
 90
        4
 70
     1
 10
0.8
 20
2.15
 10
7.6
 20
2.15
 10
7.6
 20
6.75
 10
0.8
 20
6.75
  0
HATCH
  5
32
100
AcDbEntity
  8
0
 62
   254
100
AcDbHatch
 10
0.0
 20
0.0
 30
0.0
210
0.0
220
0.0
230
1.0
  2
SOLID
 70
     1
 71
     1
 91
        1
 92
        3
 72
     0
 73
     1
 93
        4
 10
0.8000000000000003
 20
2.1500000000000004
 10
7.5999999999999996
 20
2.1500000000000004
 10
7.5999999999999996
 20
6.75
 10
0.8000000000000003
 20
6.75
 97
        1
330
31
 75
     0
 76
     1
 98
        0
  0
MTEXT
  5
33
100
AcDbEntity
  8
0
100
AcDbMText
 10
4.2
 20
2.205556
 30
0.0
 40
0.485352
 41
6.8
 71
     8
 72
     5
  1
\C7;\fArial|b0|i0|;\H0.48535248823464;SPU
  0
LWPOLYLINE
  5
34
102
{ACAD_REACTORS
330
35
102
}
100
AcDbEntity
  8
0
  6
CONTINUOUS
 62
     7
100
AcDbPolyline
 90
        4
 70
     1
 10
1.6
 20
7.1
 10
3.2
 20
7.1
 10
3.2
 20
8.1
 10
1.6
 20
8.1
  0
HATCH
  5
35
100
AcDbEntity
  8
0
 62
   254
100
AcDbHatch
 10
0.0
 20
0.0
 30
0.0
210
0.0
220
0.0
230
1.0
  2
SOLID
 70
     1
 71
     1
 91
        1
 92
        3
 72
     0
 73
     1
 93
        4
 10
1.5999999999999999
 20
7.0999999999999996
 10
3.2000000000000002
 20
7.0999999999999996
 10
3.2000000000000002
 20
8.0999999999999996
 10
1.5999999999999999
 20
8.0999999999999996
 97
        1
330
34
 75
     0
 76
     1
 98
        0
  0
MTEXT
  5
36
100
AcDbEntity
  8
0
100
AcDbMText
 10
2.4
 20
7.6
 30
0.0
 40
0.14156
 41
1.6
 71
     5
 72
     5
  1
\C7;\fArial|b0|i0|;\H0.14155963808298;aggregator 
  0
LWPOLYLINE
  5
37
102
{ACAD_REACTORS
330
38
102
}
100
AcDbEntity
  8
0
  6
CONTINUOUS
 62
     7
100
AcDbPolyline
 90
        4
 70
     1
 10
0.8
 20
8.7
 10
2.3
 20
8.7
 10
2.3
 20
9.7
 10
0.8
 20
9.7
  0
HATCH
  5
38
100
AcDbEntity
  8
0
 62
   254
100
AcDbHatch
 10
0.0
 20
0.0
 30
0.0
210
0.0
220
0.0
230
1.0
  2
SOLID
 70
     1
 71
     1
 91
        1
 92
        3
 72
     0
 73
     1
 93
        4
 10
0.8
 20
8.6999999999999993
 10
2.2999999999999998
 20
8.6999999999999993
 10
2.2999999999999998
 20
9.6999999999999993
 10
0.8
 20
9.6999999999999993
 97
        1
330
37
 75
     0
 76
     1
 98
        0
  0
MTEXT
  5
39
100
AcDbEntity
  8
0
100
AcDbMText
 10
1.55
 20
9.2
 30
0.0
 40
0.121339
 41
1.5
 71
     5
 72
     5
  1
\C7;\fArial|b0|i0|;\H0.12133881635964;XBEE
  0
LWPOLYLINE
  5
3A
102
{ACAD_REACTORS
330
3B
102
}
100
AcDbEntity
  8
0
  6
CONTINUOUS
 62
     7
100
AcDbPolyline
 90
        4
 70
     1
 10
2.5
 20
8.7
 10
4.0
 20
8.7
 10
4.0
 20
9.7
 10
2.5
 20
9.7
  0
HATCH
  5
3B
100
AcDbEntity
  8
0
 62
   254
100
AcDbHatch
 10
0.0
 20
0.0
 30
0.0
210
0.0
220
0.0
230
1.0
  2
SOLID
 70
     1
 71
     1
 91
        1
 92
        3
 72
     0
 73
     1
 93
        4
 10
2.5
 20
8.6999999999999993
 10
4.0
 20
8.6999999999999993
 10
4.0
 20
9.6999999999999993
 10
2.5
 20
9.6999999999999993
 97
        1
330
3A
 75
     0
 76
     1
 98
        0
  0
MTEXT
  5
3C
100
AcDbEntity
  8
0
100
AcDbMText
 10
3.25
 20
9.2
 30
0.0
 40
0.121339
 41
1.5
 71
     5
 72
     5
  1
\C7;\fArial|b0|i0|;\H0.12133881635964;GPS
  0
LWPOLYLINE
  5
3D
102
{ACAD_REACTORS
330
3E
102
}
100
AcDbEntity
  8
0
  6
CONTINUOUS
 62
     7
100
AcDbPolyline
 90
        4
 70
     1
 10
6.9
 20
0.85
 10
7.5
 20
0.85
 10
7.5
 20
1.25
 10
6.9
 20
1.25
  0
HATCH
  5
3E
100
AcDbEntity
  8
0
 62
   254
100
AcDbHatch
 10
0.0
 20
0.0
 30
0.0
210
0.0
220
0.0
230
1.0
  2
SOLID
 70
     1
 71
     1
 91
        1
 92
        3
 72
     0
 73
     1
 93
        4
 10
6.9000000000000004
 20
0.8500000000000001
 10
7.4999999999999991
 20
0.8500000000000001
 10
7.4999999999999991
 20
1.25
 10
6.9000000000000004
 20
1.25
 97
        1
330
3D
 75
     0
 76
     1
 98
        0
  0
MTEXT
  5
3F
100
AcDbEntity
  8
0
100
AcDbMText
 10
7.2
 20
1.05
 30
0.0
 40
0.101115
 41
0.6
 71
     5
 72
     5
  1
\C7;\fArial|b0|i0|;\H0.10111521743238;IMU
  0
LINE
  5
41
100
AcDbEntity
  8
CONNECTOR
  6
CONTINUOUS
100
AcDbLine
 10
6.7
 20
1.05
 30
0.0
 11
6.9
 21
1.05
 31
0.0
  0
LWPOLYLINE
  5
42
100
AcDbEntity
  8
CONNECTOR
  6
CONTINUOUS
100
AcDbPolyline
 90
        4
 70
     0
 10
1.55
 20
8.7
 10
1.55
 20
8.4
 10
2.0
 20
8.4
 10
2.0
 20
8.1
  0
LWPOLYLINE
  5
43
100
AcDbEntity
  8
CONNECTOR
  6
CONTINUOUS
100
AcDbPolyline
 90
        4
 70
     0
 10
2.8
 20
8.1
 10
2.8
 20
8.4
 10
3.25
 20
8.4
 10
3.25
 20
8.7
  0
LWPOLYLINE
  5
44
102
{ACAD_REACTORS
330
45
102
}
100
AcDbEntity
  8
0
  6
CONTINUOUS
 62
     7
100
AcDbPolyline
 90
        4
 70
     1
 10
1.2
 20
0.4
 10
3.2
 20
0.4
 10
3.2
 20
1.7
 10
1.2
 20
1.7
  0
HATCH
  5
45
100
AcDbEntity
  8
0
 62
   254
100
AcDbHatch
 10
0.0
 20
0.0
 30
0.0
210
0.0
220
0.0
230
1.0
  2
SOLID
 70
     1
 71
     1
 91
        1
 92
        3
 72
     0
 73
     1
 93
        4
 10
1.2000000000000002
 20
0.4
 10
3.2000000000000002
 20
0.4
 10
3.2000000000000002
 20
1.7000000000000002
 10
1.2000000000000002
 20
1.7000000000000002
 97
        1
330
44
 75
     0
 76
     1
 98
        0
  0
MTEXT
  5
46
100
AcDbEntity
  8
0
100
AcDbMText
 10
2.2
 20
1.05
 30
0.0
 40
0.121339
 41
2.0
 71
     5
 72
     5
  1
\C7;\fArial|b0|i0|;\H0.12133881635964;Light and Sound
  0
LWPOLYLINE
  5
48
102
{ACAD_REACTORS
330
49
102
}
100
AcDbEntity
  8
0
  6
CONTINUOUS
 62
     7
100
AcDbPolyline
 90
        4
 70
     1
 10
2.0625
 20
9.875
 10
6.9375
 20
9.875
 10
6.9375
 20
10.5
 10
2.0625
 20
10.5
  0
HATCH
  5
49
102
{ACAD_REACTORS
330
47
102
}
100
AcDbEntity
  8
0
 62
   254
100
AcDbHatch
 10
0.0
 20
0.0
 30
0.0
210
0.0
220
0.0
230
1.0
  2

 70
     1
 71
     1
 91
        5
 92
        3
 72
     0
 73
     1
 93
        4
 10
2.0625
 20
9.875
 10
6.9375
 20
9.875
 10
6.9375
 20
10.5
 10
2.0625
 20
10.5
 97
        1
330
48
 92
        0
 93
        0
 97
        0
 92
        0
 93
        0
 97
        0
 92
        0
 93
        0
 97
        0
 92
        0
 93
        0
 97
        0
 75
     0
 76
     1
 98
        0
  0
LINE
  5
4A
102
{ACAD_REACTORS
330
47
102
}
100
AcDbEntity
  8
0
  6
CONTINUOUS
 62
     7
100
AcDbLine
 10
1.81875
 20
10.5
 30
0.0
 11
6.9375
 21
10.5
 31
0.0
  0
LINE
  5
4B
102
{ACAD_REACTORS
330
47
102
}
100
AcDbEntity
  8
0
  6
CONTINUOUS
 62
     7
100
AcDbLine
 10
2.0625
 20
10.695
 30
0.0
 11
2.0625
 21
9.875
 31
0.0
  0
LINE
  5
4C
102
{ACAD_REACTORS
330
47
102
}
100
AcDbEntity
  8
0
  6
CONTINUOUS
 62
     7
100
AcDbLine
 10
2.0625
 20
9.875
 30
0.0
 11
4.5
 21
9.875
 31
0.0
  0
MTEXT
  5
4D
100
AcDbEntity
  8
0
100
AcDbMText
 10
4.5
 20
10.1875
 30
0.0
 40
0.242675
 41
4.781033
 71
     5
 72
     5
  1
\C7;\fArial|b0|i0|;\H0.24267485551536;Orb Level Software Architecture\P\H0.12133881635964;Jan 22, 2008
  0
LINE
  5
4F
100
AcDbEntity
  8
CONNECTOR
  6
CONTINUOUS
100
AcDbLine
 10
1.9
 20
6.6
 30
0.0
 11
1.9
 21
7.1
 31
0.0
  0
MTEXT
  5
50
100
AcDbEntity
  8
CONNECTOR
100
AcDbMText
 10
1.9
 20
6.85
 30
0.0
 40
0.080892
 41
0.555556
 71
     5
 72
     5
  1
\C7;\fArial|b0|i0|;\H0.08089161850512;XBEE
  0
LINE
  5
52
100
AcDbEntity
  8
CONNECTOR
  6
CONTINUOUS
100
AcDbLine
 10
2.9
 20
7.1
 30
0.0
 11
2.9
 21
6.6
 31
0.0
  0
MTEXT
  5
53
100
AcDbEntity
  8
CONNECTOR
100
AcDbMText
 10
2.9
 20
6.85
 30
0.0
 40
0.080892
 41
0.819363
 71
     5
 72
     5
  1
\C7;\fArial|b0|i0|;\H0.08089161850512;XBEE & GPS
  0
LWPOLYLINE
  5
54
102
{ACAD_REACTORS
330
55
102
}
100
AcDbEntity
  8
0
  6
CONTINUOUS
 62
     7
100
AcDbPolyline
 90
        4
 70
     1
 10
1.0
 20
3.1
 10
3.4
 20
3.1
 10
3.4
 20
6.6
 10
1.0
 20
6.6
  0
HATCH
  5
55
100
AcDbEntity
  8
0
 62
   254
100
AcDbHatch
 10
0.0
 20
0.0
 30
0.0
210
0.0
220
0.0
230
1.0
  2
SOLID
 70
     1
 71
     1
 91
        1
 92
        3
 72
     0
 73
     1
 93
        4
 10
1.0000000000000002
 20
3.0999999999999996
 10
3.4000000000000004
 20
3.0999999999999996
 10
3.4000000000000004
 20
6.5999999999999996
 10
1.0000000000000002
 20
6.5999999999999996
 97
        1
330
54
 75
     0
 76
     1
 98
        0
  0
MTEXT
  5
56
100
AcDbEntity
  8
0
100
AcDbMText
 10
2.2
 20
4.85
 30
0.0
 40
0.121339
 41
2.4
 71
     5
 72
     5
  1
\C7;\fArial|b0|i0|;\H0.12133881635964;Dispatcher Executable\P(Aggregator I/O,\PFull Parsing,\PCalculation of Physical Values)\P
  0
LWPOLYLINE
  5
57
100
AcDbEntity
  8
CONNECTOR
  6
CONTINUOUS
100
AcDbPolyline
 90
        3
 70
     0
 10
2.2
 20
3.1
 10
2.2
 20
2.4
 10
2.2
 20
1.7
  0
LWPOLYLINE
  5
58
102
{ACAD_REACTORS
330
59
102
}
100
AcDbEntity
  8
0
  6
CONTINUOUS
 62
     7
100
AcDbPolyline
 90
        4
 70
     1
 10
4.7
 20
0.4
 10
6.7
 20
0.4
 10
6.7
 20
1.7
 10
4.7
 20
1.7
  0
HATCH
  5
59
100
AcDbEntity
  8
0
 62
   254
100
AcDbHatch
 10
0.0
 20
0.0
 30
0.0
210
0.0
220
0.0
230
1.0
  2
SOLID
 70
     1
 71
     1
 91
        1
 92
        3
 72
     0
 73
     1
 93
        4
 10
4.7000000000000002
 20
0.4
 10
6.7000000000000002
 20
0.4
 10
6.7000000000000002
 20
1.7000000000000002
 10
4.7000000000000002
 20
1.7000000000000002
 97
        1
330
58
 75
     0
 76
     1
 98
        0
  0
MTEXT
  5
5A
100
AcDbEntity
  8
0
100
AcDbMText
 10
5.7
 20
1.05
 30
0.0
 40
0.121339
 41
2.0
 71
     5
 72
     5
  1
\C7;\fArial|b0|i0|;\H0.12133881635964;Motor Controller
  0
LWPOLYLINE
  5
5B
102
{ACAD_REACTORS
330
5C
102
}
100
AcDbEntity
  8
0
  6
CONTINUOUS
 62
     7
100
AcDbPolyline
 90
        4
 70
     1
 10
3.675
 20
3.1
 10
4.725
 20
3.1
 10
4.725
 20
6.6
 10
3.675
 20
6.6
  0
HATCH
  5
5C
100
AcDbEntity
  8
0
 62
   254
100
AcDbHatch
 10
0.0
 20
0.0
 30
0.0
210
0.0
220
0.0
230
1.0
  2
SOLID
 70
     1
 71
     1
 91
        1
 92
        3
 72
     0
 73
     1
 93
        4
 10
3.6750000000000003
 20
3.0999999999999996
 10
4.7250000000000005
 20
3.0999999999999996
 10
4.7250000000000005
 20
6.5999999999999996
 10
3.6750000000000003
 20
6.5999999999999996
 97
        1
330
5B
 75
     0
 76
     1
 98
        0
  0
MTEXT
  5
5D
100
AcDbEntity
  8
0
100
AcDbMText
 10
4.2
 20
4.85
 30
0.0
 40
0.121339
 41
1.05
 71
     5
 72
     5
  1
\C7;\fArial|b0|i0|;\H0.12133881635964;Shared\PMemory
  0
LWPOLYLINE
  5
5F
102
{ACAD_REACTORS
330
60
102
}
100
AcDbEntity
  8
0
  6
CONTINUOUS
 62
   153
100
AcDbPolyline
 90
        3
 70
     1
 10
3.4625
 20
4.88125
 10
3.4625
 20
4.81875
 10
3.4
 20
4.85
  0
HATCH
  5
60
102
{ACAD_REACTORS
330
5E
102
}
100
AcDbEntity
  8
0
 62
   153
100
AcDbHatch
 10
0.0
 20
0.0
 30
0.0
210
0.0
220
0.0
230
1.0
  2
SOLID
 70
     1
 71
     1
 91
        2
 92
        3
 72
     0
 73
     1
 93
        3
 10
3.4624999999999999
 20
4.8812499999999988
 10
3.4624999999999999
 20
4.8187499999999988
 10
3.3999999999999999
 20
4.8499999999999988
 97
        1
330
5F
 92
        3
 72
     0
 73
     1
 93
        3
 10
3.6124999999999998
 20
4.8812499999999996
 10
3.6124999999999998
 20
4.8187499999999996
 10
3.6749999999999998
 20
4.8499999999999996
 97
        1
330
61
 75
     0
 76
     1
 98
        0
  0
LWPOLYLINE
  5
61
102
{ACAD_REACTORS
330
60
102
}
100
AcDbEntity
  8
0
  6
CONTINUOUS
 62
   153
100
AcDbPolyline
 90
        3
 70
     1
 10
3.6125
 20
4.88125
 10
3.6125
 20
4.81875
 10
3.675
 20
4.85
  0
LINE
  5
62
102
{ACAD_REACTORS
330
5E
102
}
100
AcDbEntity
  8
0
  6
CONTINUOUS
 62
   153
100
AcDbLine
 10
3.4625
 20
4.85
 30
0.0
 11
3.6125
 21
4.85
 31
0.0
  0
LWPOLYLINE
  5
63
102
{ACAD_REACTORS
330
64
102
}
100
AcDbEntity
  8
0
  6
CONTINUOUS
 62
     7
100
AcDbPolyline
 90
        4
 70
     1
 10
5.0
 20
3.1
 10
7.4
 20
3.1
 10
7.4
 20
6.6
 10
5.0
 20
6.6
  0
HATCH
  5
64
100
AcDbEntity
  8
0
 62
   254
100
AcDbHatch
 10
0.0
 20
0.0
 30
0.0
210
0.0
220
0.0
230
1.0
  2
SOLID
 70
     1
 71
     1
 91
        1
 92
        3
 72
     0
 73
     1
 93
        4
 10
5.0
 20
3.0999999999999996
 10
7.4000000000000004
 20
3.0999999999999996
 10
7.4000000000000004
 20
6.5999999999999996
 10
5.0
 20
6.5999999999999996
 97
        1
330
63
 75
     0
 76
     1
 98
        0
  0
MTEXT
  5
65
100
AcDbEntity
  8
0
100
AcDbMText
 10
6.2
 20
4.85
 30
0.0
 40
0.121339
 41
2.4
 71
     5
 72
     5
  1
\C7;\fArial|b0|i0|;\H0.12133881635964;Gronkulator Executable\P(Estimation, \PFeedback Control,\PRemote/Autonomous Mode,\PMotor I/O)
  0
LWPOLYLINE
  5
67
102
{ACAD_REACTORS
330
68
102
}
100
AcDbEntity
  8
0
  6
CONTINUOUS
 62
   153
100
AcDbPolyline
 90
        3
 70
     1
 10
4.9375
 20
4.81875
 10
4.9375
 20
4.88125
 10
5.0
 20
4.85
  0
HATCH
  5
68
102
{ACAD_REACTORS
330
66
102
}
100
AcDbEntity
  8
0
 62
   153
100
AcDbHatch
 10
0.0
 20
0.0
 30
0.0
210
0.0
220
0.0
230
1.0
  2
SOLID
 70
     1
 71
     1
 91
        2
 92
        3
 72
     0
 73
     1
 93
        3
 10
4.9375
 20
4.8187499999999996
 10
4.9375
 20
4.8812499999999996
 10
5.0
 20
4.8499999999999996
 97
        1
330
67
 92
        3
 72
     0
 73
     1
 93
        3
 10
4.7874999999999996
 20
4.8187499999999996
 10
4.7874999999999996
 20
4.8812499999999996
 10
4.7249999999999996
 20
4.8499999999999996
 97
        1
330
69
 75
     0
 76
     1
 98
        0
  0
LWPOLYLINE
  5
69
102
{ACAD_REACTORS
330
68
102
}
100
AcDbEntity
  8
0
  6
CONTINUOUS
 62
   153
100
AcDbPolyline
 90
        3
 70
     1
 10
4.7875
 20
4.81875
 10
4.7875
 20
4.88125
 10
4.725
 20
4.85
  0
LINE
  5
6A
102
{ACAD_REACTORS
330
66
102
}
100
AcDbEntity
  8
0
  6
CONTINUOUS
 62
   153
100
AcDbLine
 10
4.9375
 20
4.85
 30
0.0
 11
4.7875
 21
4.85
 31
0.0
  0
LWPOLYLINE
  5
6B
100
AcDbEntity
  8
CONNECTOR
  6
CONTINUOUS
100
AcDbPolyline
 90
        4
 70
     0
 10
5.7
 20
1.7
 10
5.7
 20
2.485714
 10
6.2
 20
2.485714
 10
6.2
 20
3.1
  0
ENDSEC
  0
SECTION
  2
OBJECTS
  0
DICTIONARY
  5
C
100
AcDbDictionary
  3
ACAD_GROUP
350
D
  3
ACAD_MLINESTYLE
350
1B
  0
DICTIONARY
  5
D
102
{ACAD_REACTORS
330
C
102
}
100
AcDbDictionary
  3
VISIOGROUP_0
350
47
  3
VISIOGROUP_1
350
4E
  3
VISIOGROUP_2
350
51
  3
VISIOGROUP_3
350
5E
  3
VISIOGROUP_4
350
66
  0
DICTIONARY
  5
1B
102
{ACAD_REACTORS
330
C
102
}
100
AcDbDictionary
  3
STANDARD
350
1C
  0
MLINESTYLE
  5
1C
102
{ACAD_REACTORS
330
1B
102
}
100
AcDbMlineStyle
  2
STANDARD
 70
     0
  3

 62
   256
 51
90.0
 52
90.0
 71
     2
 49
0.5
 62
   256
  6
BYLAYER
 49
-0.5
 62
   256
  6
BYLAYER
  0
GROUP
  5
47
102
{ACAD_REACTORS
330
D
102
}
100
AcDbGroup
300
Group created by Visio.
 70
     0
 71
     1
340
48
340
49
340
4A
340
4B
340
4C
  0
GROUP
  5
4E
102
{ACAD_REACTORS
330
D
102
}
100
AcDbGroup
300
Group created by Visio.
 70
     0
 71
     1
  0
GROUP
  5
51
102
{ACAD_REACTORS
330
D
102
}
100
AcDbGroup
300
Group created by Visio.
 70
     0
 71
     1
  0
GROUP
  5
5E
102
{ACAD_REACTORS
330
D
102
}
100
AcDbGroup
300
Group created by Visio.
 70
     0
 71
     1
340
5F
340
61
340
62
340
60
  0
GROUP
  5
66
102
{ACAD_REACTORS
330
D
102
}
100
AcDbGroup
300
Group created by Visio.
 70
     0
 71
     1
340
67
340
69
340
6A
340
68
  0
ENDSEC
  0
EOF
