  0
SECTION
  2
HEADER
  9
$ACADVER
  1
AC1009
  9
$DWGCODEPAGE
  3
ansi_1252
  9
$INSBASE
 10
0.0
 20
0.0
 30
0.0
  9
$EXTMIN
 10
0.0
 20
0.0
 30
0.0
  9
$EXTMAX
 10
44.0
 20
34.0
 30
0.0
  9
$LIMMIN
 10
0.0
 20
0.0
  9
$LIMMAX
 10
0.0
 20
0.0
  9
$ORTHOMODE
 70
     0
  9
$REGENMODE
 70
     1
  9
$FILLMODE
 70
     1
  9
$QTEXTMODE
 70
     0
  9
$MIRRTEXT
 70
     1
  9
$DRAGMODE
 70
     2
  9
$LTSCALE
 40
1.0
  9
$OSMODE
 70
    37
  9
$ATTMODE
 70
     1
  9
$TEXTSIZE
 40
0.1377952756
  9
$TRACEWID
 40
0.05
  9
$TEXTSTYLE
  7
STANDARD
  9
$CLAYER
  8
0
  9
$CELTYPE
  6
BYLAYER
  9
$CECOLOR
 62
   256
  9
$DIMSCALE
 40
1.0
  9
$DIMASZ
 40
0.156
  9
$DIMEXO
 40
0.05
  9
$DIMDLI
 40
0.38
  9
$DIMRND
 40
0.0
  9
$DIMDLE
 40
0.0
  9
$DIMEXE
 40
0.125
  9
$DIMTP
 40
0.0
  9
$DIMTM
 40
0.0
  9
$DIMTXT
 40
0.1377952756
  9
$DIMCEN
 40
0.09
  9
$DIMTSZ
 40
0.0
  9
$DIMTOL
 70
     0
  9
$DIMLIM
 70
     0
  9
$DIMTIH
 70
     1
  9
$DIMTOH
 70
     1
  9
$DIMSE1
 70
     0
  9
$DIMSE2
 70
     0
  9
$DIMTAD
 70
     0
  9
$DIMZIN
 70
     1
  9
$DIMBLK
  1

  9
$DIMASO
 70
     1
  9
$DIMSHO
 70
     1
  9
$DIMPOST
  1

  9
$DIMAPOST
  1

  9
$DIMALT
 70
     0
  9
$DIMALTD
 70
     2
  9
$DIMALTF
 40
25.4
  9
$DIMLFAC
 40
1.0
  9
$DIMTOFL
 70
     0
  9
$DIMTVP
 40
0.0
  9
$DIMTIX
 70
     0
  9
$DIMSOXD
 70
     0
  9
$DIMSAH
 70
     0
  9
$DIMBLK1
  1

  9
$DIMBLK2
  1

  9
$DIMSTYLE
  2
STANDARD
  9
$DIMCLRD
 70
     0
  9
$DIMCLRE
 70
     0
  9
$DIMCLRT
 70
     0
  9
$DIMTFAC
 40
1.0
  9
$DIMGAP
 40
0.06
  9
$LUNITS
 70
     2
  9
$LUPREC
 70
     2
  9
$SKETCHINC
 40
0.1
  9
$FILLETRAD
 40
0.5
  9
$AUNITS
 70
     0
  9
$AUPREC
 70
     0
  9
$MENU
  1
.
  9
$ELEVATION
 40
0.0
  9
$PELEVATION
 40
0.0
  9
$THICKNESS
 40
0.0
  9
$LIMCHECK
 70
     0
  9
$CHAMFERA
 40
0.5
  9
$CHAMFERB
 40
0.5
  9
$SKPOLY
 70
     0
  9
$TDCREATE
 40
2454324.159228507
  9
$TDUPDATE
 40
2454324.159228519
  9
$TDINDWG
 40
0.0000000116
  9
$TDUSRTIMER
 40
0.0000000116
  9
$USRTIMER
 70
     1
  9
$ANGBASE
 50
0.0
  9
$ANGDIR
 70
     0
  9
$PDMODE
 70
     0
  9
$PDSIZE
 40
-1.0
  9
$PLINEWID
 40
0.0
  9
$COORDS
 70
     1
  9
$SPLFRAME
 70
     0
  9
$SPLINETYPE
 70
     6
  9
$SPLINESEGS
 70
     8
  9
$ATTDIA
 70
     0
  9
$ATTREQ
 70
     1
  9
$HANDLING
 70
     1
  9
$HANDSEED
  5
72
  9
$SURFTAB1
 70
     6
  9
$SURFTAB2
 70
     6
  9
$SURFTYPE
 70
     6
  9
$SURFU
 70
     6
  9
$SURFV
 70
     6
  9
$UCSNAME
  2

  9
$UCSORG
 10
0.0
 20
0.0
 30
0.0
  9
$UCSXDIR
 10
1.0
 20
0.0
 30
0.0
  9
$UCSYDIR
 10
0.0
 20
1.0
 30
0.0
  9
$PUCSNAME
  2

  9
$PUCSORG
 10
0.0
 20
0.0
 30
0.0
  9
$PUCSXDIR
 10
1.0
 20
0.0
 30
0.0
  9
$PUCSYDIR
 10
0.0
 20
1.0
 30
0.0
  9
$USERI1
 70
     0
  9
$USERI2
 70
     0
  9
$USERI3
 70
     0
  9
$USERI4
 70
     0
  9
$USERI5
 70
     0
  9
$USERR1
 40
0.0
  9
$USERR2
 40
0.0
  9
$USERR3
 40
0.0
  9
$USERR4
 40
0.0
  9
$USERR5
 40
0.0
  9
$WORLDVIEW
 70
     1
  9
$SHADEDGE
 70
     3
  9
$SHADEDIF
 70
    70
  9
$TILEMODE
 70
     1
  9
$MAXACTVP
 70
    64
  9
$PLIMCHECK
 70
     0
  9
$PEXTMIN
 10
1.0000000000E+20
 20
1.0000000000E+20
 30
1.0000000000E+20
  9
$PEXTMAX
 10
-1.0000000000E+20
 20
-1.0000000000E+20
 30
-1.0000000000E+20
  9
$PLIMMIN
 10
0.0
 20
0.0
  9
$PLIMMAX
 10
12.0
 20
9.0
  9
$UNITMODE
 70
     0
  9
$VISRETAIN
 70
     1
  9
$PLINEGEN
 70
     0
  9
$PSLTSCALE
 70
     1
  0
ENDSEC
  0
SECTION
  2
TABLES
  0
TABLE
  2
VPORT
 70
     1
  0
VPORT
  2
*ACTIVE
 70
     0
 10
0.0
 20
0.0
 11
1.0
 21
1.0
 12
22.0
 22
17.0
 13
0.0
 23
0.0
 14
0.5
 24
0.5
 15
0.5
 25
0.5
 16
0.0
 26
0.0
 36
1.0
 17
0.0
 27
0.0
 37
0.0
 40
34.0
 41
1.2941176471
 42
50.0
 43
0.0
 44
0.0
 50
0.0
 51
0.0
 71
     0
 72
  2000
 73
     1
 74
     3
 75
     0
 76
     0
 77
     0
 78
     0
  0
ENDTAB
  0
TABLE
  2
LTYPE
 70
     6
  0
LTYPE
  2
CONTINUOUS
 70
     0
  3
Solid line
 72
    65
 73
     0
 40
0.0
  0
LTYPE
  2
HIDDEN
 70
     0
  3
Hidden __ __ __ __ __ __ __ __ __ __ __ __ __ __
 72
    65
 73
     2
 40
0.075
 49
0.05
 49
-0.025
  0
LTYPE
  2
PHANTOM
 70
     0
  3
Phantom ______  __  __  ______  __  __  ______
 72
    65
 73
     6
 40
0.5
 49
0.25
 49
-0.05
 49
0.05
 49
-0.05
 49
0.05
 49
-0.05
  0
LTYPE
  2
CENTER
 70
     0
  3
Center ____ _ ____ _ ____ _ ____ _ ____ _ ____
 72
    65
 73
     4
 40
0.4
 49
0.25
 49
-0.05
 49
0.05
 49
-0.05
  0
LTYPE
  2
CENTERX2
 70
     0
  3
Center (2x) ________  __  ________  __  _____
 72
    65
 73
     4
 40
0.8
 49
0.5
 49
-0.1
 49
0.1
 49
-0.1
  0
LTYPE
  2
DOT2
 70
     0
  3
Dot (.5x) ........................................
 72
    65
 73
     2
 40
0.025
 49
0.0
 49
-0.025
  0
ENDTAB
  0
TABLE
  2
LAYER
 70
     2
  0
LAYER
  2
0
 70
     0
 62
     7
  6
CONTINUOUS
  0
LAYER
  2
SLD-0
 70
     0
 62
   179
  6
CONTINUOUS
  0
ENDTAB
  0
TABLE
  2
STYLE
 70
     1
  0
STYLE
  2
STANDARD
 70
     0
 40
0.0
 41
1.0
 50
0.0
 71
     0
 42
0.2
  3
txt
  4

  0
ENDTAB
  0
TABLE
  2
VIEW
 70
     0
  0
ENDTAB
  0
TABLE
  2
UCS
 70
     0
  0
ENDTAB
  0
TABLE
  2
APPID
 70
     1
  0
APPID
  2
ACAD
 70
     0
  0
ENDTAB
  0
TABLE
  2
DIMSTYLE
 70
     1
  0
DIMSTYLE
  2
STANDARD
 70
     0
  3

  4

  5

  6

  7

 40
1.0
 41
0.18
 42
0.0625
 43
0.38
 44
0.18
 45
0.0
 46
0.0
 47
0.0
 48
0.0
140
0.18
141
0.09
142
0.0
143
25.4
144
1.0
145
0.0
146
1.0
147
0.09
 71
     0
 72
     0
 73
     1
 74
     1
 75
     0
 76
     0
 77
     0
 78
     0
170
     0
171
     2
172
     0
173
     0
174
     0
175
     0
176
     0
177
     0
178
     0
  0
ENDTAB
  0
ENDSEC
  0
SECTION
  2
BLOCKS
  0
BLOCK
  8
0
  2
$MODEL_SPACE
 70
     0
 10
0.0
 20
0.0
 30
0.0
  3
$MODEL_SPACE
  1

  0
ENDBLK
  5
21
  8
0
  0
BLOCK
 67
     1
  8
0
  2
$PAPER_SPACE
 70
     0
 10
0.0
 20
0.0
 30
0.0
  3
$PAPER_SPACE
  1

  0
ENDBLK
  5
1D
 67
     1
  8
0
  0
ENDSEC
  0
SECTION
  2
ENTITIES
  0
LINE
  5
30
  8
SLD-0
  6
CONTINUOUS
 62
   179
 10
18.0363230167
 20
13.9375
 30
0.0
 11
18.129
 21
13.8474701492
 31
0.0
  0
LINE
  5
31
  8
SLD-0
  6
CONTINUOUS
 62
   179
 10
18.0363230167
 20
13.9375
 30
0.0
 11
18.0363230167
 21
11.2066677505
 31
0.0
  0
LINE
  5
32
  8
SLD-0
  6
CONTINUOUS
 62
   179
 10
13.3153230167
 20
11.2066677505
 30
0.0
 11
18.0363230167
 21
11.2066677505
 31
0.0
  0
LINE
  5
33
  8
SLD-0
  6
CONTINUOUS
 62
   179
 10
13.3153230167
 20
11.7219672653
 30
0.0
 11
13.3153230167
 21
11.2066677505
 31
0.0
  0
LINE
  5
34
  8
SLD-0
  6
CONTINUOUS
 62
   179
 10
14.2186099798
 20
13.9420554231
 30
0.0
 11
14.2149964347
 21
13.9236698044
 31
0.0
  0
LINE
  5
35
  8
SLD-0
  6
CONTINUOUS
 62
   179
 10
14.2149964347
 20
20.0763301956
 30
0.0
 11
14.2186099799
 21
20.057944577
 31
0.0
  0
LINE
  5
36
  8
SLD-0
  6
CONTINUOUS
 62
   179
 10
13.3153230166
 20
22.2780327347
 30
0.0
 11
13.3153230166
 21
22.7933322495
 31
0.0
  0
LINE
  5
37
  8
SLD-0
  6
CONTINUOUS
 62
   179
 10
13.3153230166
 20
22.7933322495
 30
0.0
 11
18.0363230166
 21
22.7933322495
 31
0.0
  0
LINE
  5
38
  8
SLD-0
  6
CONTINUOUS
 62
   179
 10
18.0363230166
 20
20.0625000001
 30
0.0
 11
18.0363230166
 21
22.7933322495
 31
0.0
  0
LINE
  5
39
  8
SLD-0
  6
CONTINUOUS
 62
   179
 10
18.1289999999
 20
20.1525298508
 30
0.0
 11
18.0363230166
 21
20.0625000001
 31
0.0
  0
LINE
  5
3A
  8
SLD-0
  6
CONTINUOUS
 62
   179
 10
18.9281586538
 20
22.6335000001
 30
0.0
 11
18.1289999999
 21
20.1525298508
 31
0.0
  0
LINE
  5
3B
  8
SLD-0
  6
CONTINUOUS
 62
   179
 10
18.9374999999
 20
22.7261769833
 30
0.0
 11
18.9281586538
 21
22.6335000001
 31
0.0
  0
LINE
  5
3C
  8
SLD-0
  6
CONTINUOUS
 62
   179
 10
18.9374999999
 20
22.7261769833
 30
0.0
 11
18.9374999999
 21
27.4471769833
 31
0.0
  0
LINE
  5
3D
  8
SLD-0
  6
CONTINUOUS
 62
   179
 10
19.3749999999
 20
27.4471769833
 30
0.0
 11
18.9374999999
 21
27.4471769833
 31
0.0
  0
LINE
  5
3E
  8
SLD-0
  6
CONTINUOUS
 62
   179
 10
19.7499999999
 20
28.1971769833
 30
0.0
 11
19.7499999999
 21
27.8221769833
 31
0.0
  0
LINE
  5
3F
  8
SLD-0
  6
CONTINUOUS
 62
   179
 10
24.2499999999
 20
28.1971769833
 30
0.0
 11
19.7499999999
 21
28.1971769833
 31
0.0
  0
LINE
  5
40
  8
SLD-0
  6
CONTINUOUS
 62
   179
 10
24.2499999999
 20
27.8221769833
 30
0.0
 11
24.2499999999
 21
28.1971769833
 31
0.0
  0
LINE
  5
41
  8
SLD-0
  6
CONTINUOUS
 62
   179
 10
25.0624999999
 20
27.4471769833
 30
0.0
 11
24.6249999999
 21
27.4471769833
 31
0.0
  0
LINE
  5
42
  8
SLD-0
  6
CONTINUOUS
 62
   179
 10
25.0624999999
 20
27.4471769833
 30
0.0
 11
25.0624999999
 21
22.7261769833
 31
0.0
  0
LINE
  5
43
  8
SLD-0
  6
CONTINUOUS
 62
   179
 10
25.0718413461
 20
22.6335000001
 30
0.0
 11
25.0624999999
 21
22.7261769833
 31
0.0
  0
LINE
  5
44
  8
SLD-0
  6
CONTINUOUS
 62
   179
 10
25.8709999999
 20
20.1525298508
 30
0.0
 11
25.0718413461
 21
22.6335000001
 31
0.0
  0
LINE
  5
45
  8
SLD-0
  6
CONTINUOUS
 62
   179
 10
25.9636769832
 20
20.0625000001
 30
0.0
 11
25.8709999999
 21
20.1525298508
 31
0.0
  0
LINE
  5
46
  8
SLD-0
  6
CONTINUOUS
 62
   179
 10
25.9636769832
 20
20.0625000001
 30
0.0
 11
25.9636769832
 21
22.7933322495
 31
0.0
  0
LINE
  5
47
  8
SLD-0
  6
CONTINUOUS
 62
   179
 10
30.6846769833
 20
22.7933322495
 30
0.0
 11
25.9636769832
 21
22.7933322495
 31
0.0
  0
LINE
  5
48
  8
SLD-0
  6
CONTINUOUS
 62
   179
 10
30.6846769833
 20
22.2780327347
 30
0.0
 11
30.6846769833
 21
22.7933322495
 31
0.0
  0
LINE
  5
49
  8
SLD-0
  6
CONTINUOUS
 62
   179
 10
29.7813900201
 20
20.057944577
 30
0.0
 11
29.7850035652
 21
20.0763301956
 31
0.0
  0
LINE
  5
4A
  8
SLD-0
  6
CONTINUOUS
 62
   179
 10
29.7850035653
 20
13.9236698045
 30
0.0
 11
29.7813900201
 21
13.9420554232
 31
0.0
  0
LINE
  5
4B
  8
SLD-0
  6
CONTINUOUS
 62
   179
 10
30.6846769833
 20
11.7219672654
 30
0.0
 11
30.6846769833
 21
11.2066677505
 31
0.0
  0
LINE
  5
4C
  8
SLD-0
  6
CONTINUOUS
 62
   179
 10
30.6846769833
 20
11.2066677505
 30
0.0
 11
25.9636769833
 21
11.2066677505
 31
0.0
  0
LINE
  5
4D
  8
SLD-0
  6
CONTINUOUS
 62
   179
 10
25.9636769833
 20
13.9375
 30
0.0
 11
25.9636769833
 21
11.2066677505
 31
0.0
  0
LINE
  5
4E
  8
SLD-0
  6
CONTINUOUS
 62
   179
 10
25.871
 20
13.8474701492
 30
0.0
 11
25.9636769833
 21
13.9375
 31
0.0
  0
LINE
  5
4F
  8
SLD-0
  6
CONTINUOUS
 62
   179
 10
25.0718413462
 20
11.3665
 30
0.0
 11
25.871
 21
13.8474701492
 31
0.0
  0
LINE
  5
50
  8
SLD-0
  6
CONTINUOUS
 62
   179
 10
25.0625
 20
11.2738230167
 30
0.0
 11
25.0718413462
 21
11.3665
 31
0.0
  0
LINE
  5
51
  8
SLD-0
  6
CONTINUOUS
 62
   179
 10
25.0625
 20
11.2738230167
 30
0.0
 11
25.0625
 21
6.5528230168
 31
0.0
  0
LINE
  5
52
  8
SLD-0
  6
CONTINUOUS
 62
   179
 10
25.0625
 20
6.5528230168
 30
0.0
 11
24.625
 21
6.5528230168
 31
0.0
  0
LINE
  5
53
  8
SLD-0
  6
CONTINUOUS
 62
   179
 10
24.25
 20
6.1778230168
 30
0.0
 11
24.25
 21
5.8028230168
 31
0.0
  0
LINE
  5
54
  8
SLD-0
  6
CONTINUOUS
 62
   179
 10
19.75
 20
5.8028230168
 30
0.0
 11
24.25
 21
5.8028230168
 31
0.0
  0
LINE
  5
55
  8
SLD-0
  6
CONTINUOUS
 62
   179
 10
19.75
 20
5.8028230168
 30
0.0
 11
19.75
 21
6.1778230168
 31
0.0
  0
LINE
  5
56
  8
SLD-0
  6
CONTINUOUS
 62
   179
 10
19.375
 20
6.5528230168
 30
0.0
 11
18.9375
 21
6.5528230168
 31
0.0
  0
LINE
  5
57
  8
SLD-0
  6
CONTINUOUS
 62
   179
 10
18.9375
 20
6.5528230168
 30
0.0
 11
18.9375
 21
11.2738230167
 31
0.0
  0
LINE
  5
58
  8
SLD-0
  6
CONTINUOUS
 62
   179
 10
18.9281586539
 20
11.3665
 30
0.0
 11
18.9375
 21
11.2738230167
 31
0.0
  0
LINE
  5
59
  8
SLD-0
  6
CONTINUOUS
 62
   179
 10
18.129
 20
13.8474701492
 30
0.0
 11
18.9281586539
 21
11.3665
 31
0.0
  0
CIRCLE
  5
5A
  8
SLD-0
  6
CONTINUOUS
 62
   179
 10
20.25
 20
27.8221769832
 30
0.0
 40
0.1250000000000036
  0
ARC
  5
5B
  8
SLD-0
  6
CONTINUOUS
 62
   179
 10
14.9494312457
 20
11.724570481
 30
0.0
 40
1.634110302526711
 50
148.989766964
 51
180.0912749463
  0
ARC
  5
5C
  8
SLD-0
  6
CONTINUOUS
 62
   179
 10
6.0906095873
 20
17.0690262316
 30
0.0
 40
8.711999121946096
 50
328.8804995029
 51
338.8360876697
  0
ARC
  5
5D
  8
SLD-0
  6
CONTINUOUS
 62
   179
 10
6.6815209333
 20
17.0000000001
 30
0.0
 40
8.133802083334993
 50
337.9166423181
 51
22.0833576813
  0
ARC
  5
5E
  8
SLD-0
  6
CONTINUOUS
 62
   179
 10
6.0906095872
 20
16.9309737685
 30
0.0
 40
8.711999121983878
 50
21.16391233
 51
31.1195004975
  0
ARC
  5
5F
  8
SLD-0
  6
CONTINUOUS
 62
   179
 10
14.9494312456
 20
22.2754295192
 30
0.0
 40
1.634110302510234
 50
179.9087250556
 51
211.0102330369
  0
ARC
  5
60
  8
SLD-0
  6
CONTINUOUS
 62
   179
 10
19.3749999999
 20
27.8221769833
 30
0.0
 40
0.375
 50
270.0
 51
0.0
  0
ARC
  5
61
  8
SLD-0
  6
CONTINUOUS
 62
   179
 10
24.6249999999
 20
27.8221769833
 30
0.0
 40
0.375
 50
180.0
 51
270.0
  0
ARC
  5
62
  8
SLD-0
  6
CONTINUOUS
 62
   179
 10
29.0505687543
 20
22.2754295192
 30
0.0
 40
1.634110302526559
 50
328.989766964
 51
0.0912749428
  0
ARC
  5
63
  8
SLD-0
  6
CONTINUOUS
 62
   179
 10
37.9093904127
 20
16.9309737685
 30
0.0
 40
8.711999121971829
 50
148.8804995023
 51
158.8360876697
  0
ARC
  5
64
  8
SLD-0
  6
CONTINUOUS
 62
   179
 10
37.3184790666
 20
17.0000000001
 30
0.0
 40
8.13380208331565
 50
157.9166423188
 51
202.0833576812
  0
ARC
  5
65
  8
SLD-0
  6
CONTINUOUS
 62
   179
 10
37.9093904127
 20
17.0690262317
 30
0.0
 40
8.711999122002283
 50
201.1639123306
 51
211.1195004975
  0
ARC
  5
66
  8
SLD-0
  6
CONTINUOUS
 62
   179
 10
29.0505687543
 20
11.7245704809
 30
0.0
 40
1.634110302509808
 50
359.9087250556
 51
31.0102330369
  0
ARC
  5
67
  8
SLD-0
  6
CONTINUOUS
 62
   179
 10
24.625
 20
6.1778230168
 30
0.0
 40
0.3750000000000009
 50
90.0
 51
180.0
  0
ARC
  5
68
  8
SLD-0
  6
CONTINUOUS
 62
   179
 10
19.375
 20
6.1778230168
 30
0.0
 40
0.3750000000000009
 50
0.0
 51
90.0
  0
CIRCLE
  5
69
  8
SLD-0
  6
CONTINUOUS
 62
   179
 10
23.75
 20
27.8221769832
 30
0.0
 40
0.125
  0
CIRCLE
  5
6A
  8
SLD-0
  6
CONTINUOUS
 62
   179
 10
20.25
 20
6.1778230168
 30
0.0
 40
0.1249999999999964
  0
CIRCLE
  5
6B
  8
SLD-0
  6
CONTINUOUS
 62
   179
 10
23.75
 20
6.1778230168
 30
0.0
 40
0.125
  0
ENDSEC
  0
EOF
