  0
SECTION
  2
HEADER
  9
$ACADVER
  1
AC1009
  9
$DWGCODEPAGE
  3
ansi_1252
  9
$INSBASE
 10
0.0
 20
0.0
 30
0.0
  9
$EXTMIN
 10
0.0
 20
0.0
 30
0.0
  9
$EXTMAX
 10
24.0
 20
24.0
 30
0.0
  9
$LIMMIN
 10
0.0
 20
0.0
  9
$LIMMAX
 10
0.0
 20
0.0
  9
$ORTHOMODE
 70
     0
  9
$REGENMODE
 70
     1
  9
$FILLMODE
 70
     1
  9
$QTEXTMODE
 70
     0
  9
$MIRRTEXT
 70
     1
  9
$DRAGMODE
 70
     2
  9
$LTSCALE
 40
1.0
  9
$OSMODE
 70
    37
  9
$ATTMODE
 70
     1
  9
$TEXTSIZE
 40
0.1377952756
  9
$TRACEWID
 40
0.05
  9
$TEXTSTYLE
  7
STANDARD
  9
$CLAYER
  8
0
  9
$CELTYPE
  6
BYLAYER
  9
$CECOLOR
 62
   256
  9
$DIMSCALE
 40
1.0
  9
$DIMASZ
 40
0.156
  9
$DIMEXO
 40
0.05
  9
$DIMDLI
 40
0.38
  9
$DIMRND
 40
0.0
  9
$DIMDLE
 40
0.0
  9
$DIMEXE
 40
0.125
  9
$DIMTP
 40
0.0
  9
$DIMTM
 40
0.0
  9
$DIMTXT
 40
0.1377952756
  9
$DIMCEN
 40
0.09
  9
$DIMTSZ
 40
0.0
  9
$DIMTOL
 70
     0
  9
$DIMLIM
 70
     0
  9
$DIMTIH
 70
     1
  9
$DIMTOH
 70
     1
  9
$DIMSE1
 70
     0
  9
$DIMSE2
 70
     0
  9
$DIMTAD
 70
     0
  9
$DIMZIN
 70
     0
  9
$DIMBLK
  1

  9
$DIMASO
 70
     1
  9
$DIMSHO
 70
     1
  9
$DIMPOST
  1

  9
$DIMAPOST
  1

  9
$DIMALT
 70
     0
  9
$DIMALTD
 70
     2
  9
$DIMALTF
 40
25.4
  9
$DIMLFAC
 40
1.0
  9
$DIMTOFL
 70
     0
  9
$DIMTVP
 40
0.0
  9
$DIMTIX
 70
     0
  9
$DIMSOXD
 70
     0
  9
$DIMSAH
 70
     0
  9
$DIMBLK1
  1

  9
$DIMBLK2
  1

  9
$DIMSTYLE
  2
STANDARD
  9
$DIMCLRD
 70
     0
  9
$DIMCLRE
 70
     0
  9
$DIMCLRT
 70
     0
  9
$DIMTFAC
 40
1.0
  9
$DIMGAP
 40
0.06
  9
$LUNITS
 70
     2
  9
$LUPREC
 70
     2
  9
$SKETCHINC
 40
0.1
  9
$FILLETRAD
 40
0.5
  9
$AUNITS
 70
     0
  9
$AUPREC
 70
     0
  9
$MENU
  1
.
  9
$ELEVATION
 40
0.0
  9
$PELEVATION
 40
0.0
  9
$THICKNESS
 40
0.0
  9
$LIMCHECK
 70
     0
  9
$CHAMFERA
 40
0.5
  9
$CHAMFERB
 40
0.5
  9
$SKPOLY
 70
     0
  9
$TDCREATE
 40
2454320.040860822
  9
$TDUPDATE
 40
2454320.040860833
  9
$TDINDWG
 40
0.0000000116
  9
$TDUSRTIMER
 40
0.0000000116
  9
$USRTIMER
 70
     1
  9
$ANGBASE
 50
0.0
  9
$ANGDIR
 70
     0
  9
$PDMODE
 70
     0
  9
$PDSIZE
 40
-1.0
  9
$PLINEWID
 40
0.0
  9
$COORDS
 70
     1
  9
$SPLFRAME
 70
     0
  9
$SPLINETYPE
 70
     6
  9
$SPLINESEGS
 70
     8
  9
$ATTDIA
 70
     0
  9
$ATTREQ
 70
     1
  9
$HANDLING
 70
     1
  9
$HANDSEED
  5
51
  9
$SURFTAB1
 70
     6
  9
$SURFTAB2
 70
     6
  9
$SURFTYPE
 70
     6
  9
$SURFU
 70
     6
  9
$SURFV
 70
     6
  9
$UCSNAME
  2

  9
$UCSORG
 10
0.0
 20
0.0
 30
0.0
  9
$UCSXDIR
 10
1.0
 20
0.0
 30
0.0
  9
$UCSYDIR
 10
0.0
 20
1.0
 30
0.0
  9
$PUCSNAME
  2

  9
$PUCSORG
 10
0.0
 20
0.0
 30
0.0
  9
$PUCSXDIR
 10
1.0
 20
0.0
 30
0.0
  9
$PUCSYDIR
 10
0.0
 20
1.0
 30
0.0
  9
$USERI1
 70
     0
  9
$USERI2
 70
     0
  9
$USERI3
 70
     0
  9
$USERI4
 70
     0
  9
$USERI5
 70
     0
  9
$USERR1
 40
0.0
  9
$USERR2
 40
0.0
  9
$USERR3
 40
0.0
  9
$USERR4
 40
0.0
  9
$USERR5
 40
0.0
  9
$WORLDVIEW
 70
     1
  9
$SHADEDGE
 70
     3
  9
$SHADEDIF
 70
    70
  9
$TILEMODE
 70
     1
  9
$MAXACTVP
 70
    64
  9
$PLIMCHECK
 70
     0
  9
$PEXTMIN
 10
1.0000000000E+20
 20
1.0000000000E+20
 30
1.0000000000E+20
  9
$PEXTMAX
 10
-1.0000000000E+20
 20
-1.0000000000E+20
 30
-1.0000000000E+20
  9
$PLIMMIN
 10
0.0
 20
0.0
  9
$PLIMMAX
 10
12.0
 20
9.0
  9
$UNITMODE
 70
     0
  9
$VISRETAIN
 70
     1
  9
$PLINEGEN
 70
     0
  9
$PSLTSCALE
 70
     1
  0
ENDSEC
  0
SECTION
  2
TABLES
  0
TABLE
  2
VPORT
 70
     1
  0
VPORT
  2
*ACTIVE
 70
     0
 10
0.0
 20
0.0
 11
1.0
 21
1.0
 12
12.0
 22
12.0
 13
0.0
 23
0.0
 14
0.5
 24
0.5
 15
0.5
 25
0.5
 16
0.0
 26
0.0
 36
1.0
 17
0.0
 27
0.0
 37
0.0
 40
24.0
 41
1.0
 42
50.0
 43
0.0
 44
0.0
 50
0.0
 51
0.0
 71
     0
 72
  2000
 73
     1
 74
     3
 75
     0
 76
     0
 77
     0
 78
     0
  0
ENDTAB
  0
TABLE
  2
LTYPE
 70
     6
  0
LTYPE
  2
CONTINUOUS
 70
     0
  3
Solid line
 72
    65
 73
     0
 40
0.0
  0
LTYPE
  2
HIDDEN
 70
     0
  3
Hidden __ __ __ __ __ __ __ __ __ __ __ __ __ __
 72
    65
 73
     2
 40
0.075
 49
0.05
 49
-0.025
  0
LTYPE
  2
PHANTOM
 70
     0
  3
Phantom ______  __  __  ______  __  __  ______
 72
    65
 73
     6
 40
0.5
 49
0.25
 49
-0.05
 49
0.05
 49
-0.05
 49
0.05
 49
-0.05
  0
LTYPE
  2
CENTER
 70
     0
  3
Center ____ _ ____ _ ____ _ ____ _ ____ _ ____
 72
    65
 73
     4
 40
0.4
 49
0.25
 49
-0.05
 49
0.05
 49
-0.05
  0
LTYPE
  2
CENTERX2
 70
     0
  3
Center (2x) ________  __  ________  __  _____
 72
    65
 73
     4
 40
0.8
 49
0.5
 49
-0.1
 49
0.1
 49
-0.1
  0
LTYPE
  2
DOT2
 70
     0
  3
Dot (.5x) ........................................
 72
    65
 73
     2
 40
0.025
 49
0.0
 49
-0.025
  0
ENDTAB
  0
TABLE
  2
LAYER
 70
     1
  0
LAYER
  2
0
 70
     0
 62
     7
  6
CONTINUOUS
  0
ENDTAB
  0
TABLE
  2
STYLE
 70
     1
  0
STYLE
  2
STANDARD
 70
     0
 40
0.0
 41
1.0
 50
0.0
 71
     0
 42
0.2
  3
txt
  4

  0
ENDTAB
  0
TABLE
  2
VIEW
 70
     0
  0
ENDTAB
  0
TABLE
  2
UCS
 70
     0
  0
ENDTAB
  0
TABLE
  2
APPID
 70
     1
  0
APPID
  2
ACAD
 70
     0
  0
ENDTAB
  0
TABLE
  2
DIMSTYLE
 70
     1
  0
DIMSTYLE
  2
STANDARD
 70
     0
  3

  4

  5

  6

  7

 40
1.0
 41
0.18
 42
0.0625
 43
0.38
 44
0.18
 45
0.0
 46
0.0
 47
0.0
 48
0.0
140
0.18
141
0.09
142
0.0
143
25.4
144
1.0
145
0.0
146
1.0
147
0.09
 71
     0
 72
     0
 73
     1
 74
     1
 75
     0
 76
     0
 77
     0
 78
     0
170
     0
171
     2
172
     0
173
     0
174
     0
175
     0
176
     0
177
     0
178
     0
  0
ENDTAB
  0
ENDSEC
  0
SECTION
  2
BLOCKS
  0
BLOCK
  8
0
  2
$MODEL_SPACE
 70
     0
 10
0.0
 20
0.0
 30
0.0
  3
$MODEL_SPACE
  1

  0
ENDBLK
  5
21
  8
0
  0
BLOCK
 67
     1
  8
0
  2
$PAPER_SPACE
 70
     0
 10
0.0
 20
0.0
 30
0.0
  3
$PAPER_SPACE
  1

  0
ENDBLK
  5
1D
 67
     1
  8
0
  0
ENDSEC
  0
SECTION
  2
ENTITIES
  0
ARC
  5
2F
  8
0
  6
CONTINUOUS
 62
     7
 10
1.7901859533
 20
21.1462866293
 30
0.0
 40
0.3750000000000001
 50
270.0
 51
321.7791926489
  0
ARC
  5
30
  8
0
  6
CONTINUOUS
 62
     7
 10
2.2825121307
 20
21.7714543029
 30
0.0
 40
0.3750000000000003
 50
321.7791926489
 51
62.3350675228
  0
LINE
  5
31
  8
0
  6
CONTINUOUS
 62
     7
 10
2.4566246529
 20
22.1035835392
 30
0.0
 11
0.3483888191
 21
23.2087866293
 31
0.0
  0
LINE
  5
32
  8
0
  6
CONTINUOUS
 62
     7
 10
8.1660532791
 20
22.0935708765
 30
0.0
 11
10.2933888191
 21
23.2087866293
 31
0.0
  0
LINE
  5
33
  8
0
  6
CONTINUOUS
 62
     7
 10
8.5569795866
 20
20.9142764754
 30
0.0
 11
8.0642669856
 21
21.539934839
 31
0.0
  0
ARC
  5
34
  8
0
  6
CONTINUOUS
 62
     7
 10
8.8515916849
 20
21.1462866293
 30
0.0
 40
0.3750000000000009
 50
218.2208073511
 51
270.0
  0
LINE
  5
35
  8
0
  6
CONTINUOUS
 62
     7
 10
10.1333888191
 20
20.7712866293
 30
0.0
 11
8.8515916849
 21
20.7712866293
 31
0.0
  0
ARC
  5
36
  8
0
  6
CONTINUOUS
 62
     7
 10
10.1333888191
 20
20.6462866293
 30
0.0
 40
0.125
 50
0.0
 51
90.0
  0
LINE
  5
37
  8
0
  6
CONTINUOUS
 62
     7
 10
10.2583888191
 20
20.3962866293
 30
0.0
 11
10.2583888191
 21
20.6462866293
 31
0.0
  0
ARC
  5
38
  8
0
  6
CONTINUOUS
 62
     7
 10
10.1333888191
 20
20.3962866293
 30
0.0
 40
0.1250000000000036
 50
270.0
 51
0.0
  0
LINE
  5
39
  8
0
  6
CONTINUOUS
 62
     7
 10
8.6089169154
 20
20.2712866293
 30
0.0
 11
10.1333888191
 21
20.2712866293
 31
0.0
  0
ARC
  5
3A
  8
0
  6
CONTINUOUS
 62
     7
 10
8.6089169154
 20
20.6462866293
 30
0.0
 40
0.3750000000000036
 50
218.2208073511
 51
270.0
  0
LINE
  5
3B
  8
0
  6
CONTINUOUS
 62
     7
 10
7.4554802839
 20
21.5048326149
 30
0.0
 11
8.3143048171
 21
20.4142764754
 31
0.0
  0
ARC
  5
3C
  8
0
  6
CONTINUOUS
 62
     7
 10
7.1608681856
 20
21.272822461
 30
0.0
 40
0.3750000000000018
 50
38.2208073511
 51
106.7756076604
  0
ARC
  5
3D
  8
0
  6
CONTINUOUS
 62
     7
 10
3.4809094526
 20
21.272822461
 30
0.0
 40
0.3750000000000022
 50
73.2243923396
 51
141.7791926489
  0
LINE
  5
3E
  8
0
  6
CONTINUOUS
 62
     7
 10
3.1862973543
 20
21.5048326149
 30
0.0
 11
2.3274728211
 21
20.4142764754
 31
0.0
  0
ARC
  5
3F
  8
0
  6
CONTINUOUS
 62
     7
 10
2.0328607228
 20
20.6462866293
 30
0.0
 40
0.3750000000000036
 50
270.0
 51
321.7791926489
  0
LINE
  5
40
  8
0
  6
CONTINUOUS
 62
     7
 10
2.0328607228
 20
20.2712866293
 30
0.0
 11
0.5083888191
 21
20.2712866293
 31
0.0
  0
ARC
  5
41
  8
0
  6
CONTINUOUS
 62
     7
 10
0.5083888191
 20
20.3962866293
 30
0.0
 40
0.1250000000000036
 50
180.0
 51
270.0
  0
LINE
  5
42
  8
0
  6
CONTINUOUS
 62
     7
 10
0.3833888191
 20
20.3962866293
 30
0.0
 11
0.3833888191
 21
20.6462866293
 31
0.0
  0
ARC
  5
43
  8
0
  6
CONTINUOUS
 62
     7
 10
0.5083888191
 20
20.6462866293
 30
0.0
 40
0.1250000000000004
 50
90.0
 51
180.0
  0
LINE
  5
44
  8
0
  6
CONTINUOUS
 62
     7
 10
0.5083888191
 20
20.7712866293
 30
0.0
 11
1.7901859533
 21
20.7712866293
 31
0.0
  0
LINE
  5
45
  8
0
  6
CONTINUOUS
 62
     7
 10
2.0847980516
 20
20.9142764754
 30
0.0
 11
2.577124229
 21
21.539444149
 31
0.0
  0
LINE
  5
46
  8
0
  6
CONTINUOUS
 62
     7
 10
0.3483888191
 20
23.2087866293
 30
0.0
 11
2.2546388191
 21
23.2087866293
 31
0.0
  0
LINE
  5
47
  8
0
  6
CONTINUOUS
 62
     7
 10
8.3871388191
 20
23.2087866293
 30
0.0
 11
10.2933888191
 21
23.2087866293
 31
0.0
  0
ARC
  5
48
  8
0
  6
CONTINUOUS
 62
     7
 10
5.3208888191
 20
27.3765181391
 30
0.0
 40
5.174154520305712
 50
233.6576372008
 51
306.3423627992
  0
ARC
  5
49
  8
0
  6
CONTINUOUS
 62
     7
 10
5.3208888191
 20
27.3765181391
 30
0.0
 40
5.999999999999997
 50
253.2243923396
 51
286.7756076604
  0
ARC
  5
4A
  8
0
  6
CONTINUOUS
 62
     7
 10
8.3588790839
 20
21.7719449929
 30
0.0
 40
0.3750000000000008
 50
120.9441402238
 51
218.2208073511
  0
ENDSEC
  0
EOF
