  0
SECTION
  2
HEADER
  9
$ACADVER
  1
AC1009
  9
$DWGCODEPAGE
  3
ansi_1252
  9
$INSBASE
 10
0.0
 20
0.0
 30
0.0
  9
$EXTMIN
 10
0.0
 20
0.0
 30
0.0
  9
$EXTMAX
 10
49.0
 20
23.0
 30
0.0
  9
$LIMMIN
 10
0.0
 20
0.0
  9
$LIMMAX
 10
0.0
 20
0.0
  9
$ORTHOMODE
 70
     0
  9
$REGENMODE
 70
     1
  9
$FILLMODE
 70
     1
  9
$QTEXTMODE
 70
     0
  9
$MIRRTEXT
 70
     1
  9
$DRAGMODE
 70
     2
  9
$LTSCALE
 40
1.0
  9
$OSMODE
 70
    37
  9
$ATTMODE
 70
     1
  9
$TEXTSIZE
 40
0.1377952756
  9
$TRACEWID
 40
0.05
  9
$TEXTSTYLE
  7
STANDARD
  9
$CLAYER
  8
0
  9
$CELTYPE
  6
BYLAYER
  9
$CECOLOR
 62
   256
  9
$DIMSCALE
 40
1.0
  9
$DIMASZ
 40
0.156
  9
$DIMEXO
 40
0.05
  9
$DIMDLI
 40
0.38
  9
$DIMRND
 40
0.0
  9
$DIMDLE
 40
0.0
  9
$DIMEXE
 40
0.125
  9
$DIMTP
 40
0.0
  9
$DIMTM
 40
0.0
  9
$DIMTXT
 40
0.1377952756
  9
$DIMCEN
 40
0.09
  9
$DIMTSZ
 40
0.0
  9
$DIMTOL
 70
     0
  9
$DIMLIM
 70
     0
  9
$DIMTIH
 70
     1
  9
$DIMTOH
 70
     1
  9
$DIMSE1
 70
     0
  9
$DIMSE2
 70
     0
  9
$DIMTAD
 70
     0
  9
$DIMZIN
 70
     0
  9
$DIMBLK
  1

  9
$DIMASO
 70
     1
  9
$DIMSHO
 70
     1
  9
$DIMPOST
  1

  9
$DIMAPOST
  1

  9
$DIMALT
 70
     0
  9
$DIMALTD
 70
     2
  9
$DIMALTF
 40
25.4
  9
$DIMLFAC
 40
1.0
  9
$DIMTOFL
 70
     0
  9
$DIMTVP
 40
0.0
  9
$DIMTIX
 70
     0
  9
$DIMSOXD
 70
     0
  9
$DIMSAH
 70
     0
  9
$DIMBLK1
  1

  9
$DIMBLK2
  1

  9
$DIMSTYLE
  2
STANDARD
  9
$DIMCLRD
 70
     0
  9
$DIMCLRE
 70
     0
  9
$DIMCLRT
 70
     0
  9
$DIMTFAC
 40
1.0
  9
$DIMGAP
 40
0.06
  9
$LUNITS
 70
     2
  9
$LUPREC
 70
     2
  9
$SKETCHINC
 40
0.1
  9
$FILLETRAD
 40
0.5
  9
$AUNITS
 70
     0
  9
$AUPREC
 70
     0
  9
$MENU
  1
.
  9
$ELEVATION
 40
0.0
  9
$PELEVATION
 40
0.0
  9
$THICKNESS
 40
0.0
  9
$LIMCHECK
 70
     0
  9
$CHAMFERA
 40
0.5
  9
$CHAMFERB
 40
0.5
  9
$SKPOLY
 70
     0
  9
$TDCREATE
 40
2454268.864493993
  9
$TDUPDATE
 40
2454268.864494005
  9
$TDINDWG
 40
0.0000000116
  9
$TDUSRTIMER
 40
0.0000000116
  9
$USRTIMER
 70
     1
  9
$ANGBASE
 50
0.0
  9
$ANGDIR
 70
     0
  9
$PDMODE
 70
     0
  9
$PDSIZE
 40
-1.0
  9
$PLINEWID
 40
0.0
  9
$COORDS
 70
     1
  9
$SPLFRAME
 70
     0
  9
$SPLINETYPE
 70
     6
  9
$SPLINESEGS
 70
     8
  9
$ATTDIA
 70
     0
  9
$ATTREQ
 70
     1
  9
$HANDLING
 70
     1
  9
$HANDSEED
  5
F8
  9
$SURFTAB1
 70
     6
  9
$SURFTAB2
 70
     6
  9
$SURFTYPE
 70
     6
  9
$SURFU
 70
     6
  9
$SURFV
 70
     6
  9
$UCSNAME
  2

  9
$UCSORG
 10
0.0
 20
0.0
 30
0.0
  9
$UCSXDIR
 10
1.0
 20
0.0
 30
0.0
  9
$UCSYDIR
 10
0.0
 20
1.0
 30
0.0
  9
$PUCSNAME
  2

  9
$PUCSORG
 10
0.0
 20
0.0
 30
0.0
  9
$PUCSXDIR
 10
1.0
 20
0.0
 30
0.0
  9
$PUCSYDIR
 10
0.0
 20
1.0
 30
0.0
  9
$USERI1
 70
     0
  9
$USERI2
 70
     0
  9
$USERI3
 70
     0
  9
$USERI4
 70
     0
  9
$USERI5
 70
     0
  9
$USERR1
 40
0.0
  9
$USERR2
 40
0.0
  9
$USERR3
 40
0.0
  9
$USERR4
 40
0.0
  9
$USERR5
 40
0.0
  9
$WORLDVIEW
 70
     1
  9
$SHADEDGE
 70
     3
  9
$SHADEDIF
 70
    70
  9
$TILEMODE
 70
     1
  9
$MAXACTVP
 70
    64
  9
$PLIMCHECK
 70
     0
  9
$PEXTMIN
 10
1.0000000000E+20
 20
1.0000000000E+20
 30
1.0000000000E+20
  9
$PEXTMAX
 10
-1.0000000000E+20
 20
-1.0000000000E+20
 30
-1.0000000000E+20
  9
$PLIMMIN
 10
0.0
 20
0.0
  9
$PLIMMAX
 10
12.0
 20
9.0
  9
$UNITMODE
 70
     0
  9
$VISRETAIN
 70
     1
  9
$PLINEGEN
 70
     0
  9
$PSLTSCALE
 70
     1
  0
ENDSEC
  0
SECTION
  2
TABLES
  0
TABLE
  2
VPORT
 70
     1
  0
VPORT
  2
*ACTIVE
 70
     0
 10
0.0
 20
0.0
 11
1.0
 21
1.0
 12
24.5
 22
11.5
 13
0.0
 23
0.0
 14
0.5
 24
0.5
 15
0.5
 25
0.5
 16
0.0
 26
0.0
 36
1.0
 17
0.0
 27
0.0
 37
0.0
 40
23.0
 41
2.1304347826
 42
50.0
 43
0.0
 44
0.0
 50
0.0
 51
0.0
 71
     0
 72
  2000
 73
     1
 74
     3
 75
     0
 76
     0
 77
     0
 78
     0
  0
ENDTAB
  0
TABLE
  2
LTYPE
 70
     6
  0
LTYPE
  2
CONTINUOUS
 70
     0
  3
Solid line
 72
    65
 73
     0
 40
0.0
  0
LTYPE
  2
HIDDEN
 70
     0
  3
Hidden __ __ __ __ __ __ __ __ __ __ __ __ __ __
 72
    65
 73
     2
 40
0.075
 49
0.05
 49
-0.025
  0
LTYPE
  2
PHANTOM
 70
     0
  3
Phantom ______  __  __  ______  __  __  ______
 72
    65
 73
     6
 40
0.5
 49
0.25
 49
-0.05
 49
0.05
 49
-0.05
 49
0.05
 49
-0.05
  0
LTYPE
  2
CENTER
 70
     0
  3
Center ____ _ ____ _ ____ _ ____ _ ____ _ ____
 72
    65
 73
     4
 40
0.4
 49
0.25
 49
-0.05
 49
0.05
 49
-0.05
  0
LTYPE
  2
CENTERX2
 70
     0
  3
Center (2x) ________  __  ________  __  _____
 72
    65
 73
     4
 40
0.8
 49
0.5
 49
-0.1
 49
0.1
 49
-0.1
  0
LTYPE
  2
DOT2
 70
     0
  3
Dot (.5x) ........................................
 72
    65
 73
     2
 40
0.025
 49
0.0
 49
-0.025
  0
ENDTAB
  0
TABLE
  2
LAYER
 70
     1
  0
LAYER
  2
0
 70
     0
 62
     7
  6
CONTINUOUS
  0
ENDTAB
  0
TABLE
  2
STYLE
 70
     1
  0
STYLE
  2
STANDARD
 70
     0
 40
0.0
 41
1.0
 50
0.0
 71
     0
 42
0.2
  3
txt
  4

  0
ENDTAB
  0
TABLE
  2
VIEW
 70
     0
  0
ENDTAB
  0
TABLE
  2
UCS
 70
     0
  0
ENDTAB
  0
TABLE
  2
APPID
 70
     1
  0
APPID
  2
ACAD
 70
     0
  0
ENDTAB
  0
TABLE
  2
DIMSTYLE
 70
     1
  0
DIMSTYLE
  2
STANDARD
 70
     0
  3

  4

  5

  6

  7

 40
1.0
 41
0.18
 42
0.0625
 43
0.38
 44
0.18
 45
0.0
 46
0.0
 47
0.0
 48
0.0
140
0.18
141
0.09
142
0.0
143
25.4
144
1.0
145
0.0
146
1.0
147
0.09
 71
     0
 72
     0
 73
     1
 74
     1
 75
     0
 76
     0
 77
     0
 78
     0
170
     0
171
     2
172
     0
173
     0
174
     0
175
     0
176
     0
177
     0
178
     0
  0
ENDTAB
  0
ENDSEC
  0
SECTION
  2
BLOCKS
  0
BLOCK
  8
0
  2
$MODEL_SPACE
 70
     0
 10
0.0
 20
0.0
 30
0.0
  3
$MODEL_SPACE
  1

  0
ENDBLK
  5
21
  8
0
  0
BLOCK
 67
     1
  8
0
  2
$PAPER_SPACE
 70
     0
 10
0.0
 20
0.0
 30
0.0
  3
$PAPER_SPACE
  1

  0
ENDBLK
  5
1D
 67
     1
  8
0
  0
ENDSEC
  0
SECTION
  2
ENTITIES
  0
CIRCLE
  5
2F
  8
0
  6
CONTINUOUS
 62
     7
 10
3.1532208589
 20
5.6673759665
 30
0.0
 40
0.25
  0
CIRCLE
  5
30
  8
0
  6
CONTINUOUS
 62
     7
 10
5.9032208589
 20
5.6673759665
 30
0.0
 40
0.25
  0
CIRCLE
  5
31
  8
0
  6
CONTINUOUS
 62
     7
 10
5.9032208589
 20
2.9173759665
 30
0.0
 40
0.25
  0
CIRCLE
  5
32
  8
0
  6
CONTINUOUS
 62
     7
 10
3.1532208589
 20
2.9173759665
 30
0.0
 40
0.25
  0
CIRCLE
  5
33
  8
0
  6
CONTINUOUS
 62
     7
 10
4.5282208589
 20
4.2923759665
 30
0.0
 40
0.6249999999999991
  0
ARC
  5
34
  8
0
  6
CONTINUOUS
 62
     7
 10
4.5282208589
 20
10.1309599665
 30
0.0
 40
3.338583999999991
 50
230.8371259988
 51
309.1628740012
  0
ARC
  5
35
  8
0
  6
CONTINUOUS
 62
     7
 10
4.5282208589
 20
4.2923759665
 30
0.0
 40
3.874000000000001
 50
32.9731005824
 51
57.0268994176
  0
ARC
  5
36
  8
0
  6
CONTINUOUS
 62
     7
 10
10.3668048589
 20
4.2923759665
 30
0.0
 40
3.33858399999999
 50
140.8371259988
 51
219.1628740012
  0
ARC
  5
37
  8
0
  6
CONTINUOUS
 62
     7
 10
4.5282208589
 20
4.2923759665
 30
0.0
 40
3.873999999999998
 50
302.9731005824
 51
327.0268994176
  0
ARC
  5
38
  8
0
  6
CONTINUOUS
 62
     7
 10
4.5282208589
 20
-1.5462080335
 30
0.0
 40
3.338583999999989
 50
50.8371259988
 51
129.1628740012
  0
ARC
  5
39
  8
0
  6
CONTINUOUS
 62
     7
 10
4.5282208589
 20
4.2923759665
 30
0.0
 40
3.873999999999998
 50
212.9731005824
 51
237.0268994176
  0
ARC
  5
3A
  8
0
  6
CONTINUOUS
 62
     7
 10
-1.3103631411
 20
4.2923759665
 30
0.0
 40
3.33858399999999
 50
320.8371259988
 51
39.1628740012
  0
ARC
  5
3B
  8
0
  6
CONTINUOUS
 62
     7
 10
4.5282208589
 20
4.2923759665
 30
0.0
 40
3.874000000000001
 50
122.9731005824
 51
147.0268994176
  0
CIRCLE
  5
3C
  8
0
  6
CONTINUOUS
 62
     7
 10
3.1532208589
 20
12.8891440479
 30
0.0
 40
0.25
  0
CIRCLE
  5
3D
  8
0
  6
CONTINUOUS
 62
     7
 10
5.9032208589
 20
12.8891440479
 30
0.0
 40
0.25
  0
CIRCLE
  5
3E
  8
0
  6
CONTINUOUS
 62
     7
 10
5.9032208589
 20
10.1391440479
 30
0.0
 40
0.25
  0
CIRCLE
  5
3F
  8
0
  6
CONTINUOUS
 62
     7
 10
3.1532208589
 20
10.1391440479
 30
0.0
 40
0.25
  0
CIRCLE
  5
40
  8
0
  6
CONTINUOUS
 62
     7
 10
4.5282208589
 20
11.5141440479
 30
0.0
 40
0.6249999999999991
  0
ARC
  5
41
  8
0
  6
CONTINUOUS
 62
     7
 10
4.5282208589
 20
17.3527280479
 30
0.0
 40
3.338583999999991
 50
230.8371259988
 51
309.1628740012
  0
ARC
  5
42
  8
0
  6
CONTINUOUS
 62
     7
 10
4.5282208589
 20
11.5141440479
 30
0.0
 40
3.874
 50
32.9731005824
 51
57.0268994176
  0
ARC
  5
43
  8
0
  6
CONTINUOUS
 62
     7
 10
10.3668048589
 20
11.5141440479
 30
0.0
 40
3.338583999999992
 50
140.8371259988
 51
219.1628740012
  0
ARC
  5
44
  8
0
  6
CONTINUOUS
 62
     7
 10
4.5282208589
 20
11.5141440479
 30
0.0
 40
3.874
 50
302.9731005824
 51
327.0268994176
  0
ARC
  5
45
  8
0
  6
CONTINUOUS
 62
     7
 10
4.5282208589
 20
5.6755600479
 30
0.0
 40
3.338583999999989
 50
50.8371259988
 51
129.1628740012
  0
ARC
  5
46
  8
0
  6
CONTINUOUS
 62
     7
 10
4.5282208589
 20
11.5141440479
 30
0.0
 40
3.873999999999999
 50
212.9731005824
 51
237.0268994176
  0
ARC
  5
47
  8
0
  6
CONTINUOUS
 62
     7
 10
-1.3103631411
 20
11.5141440479
 30
0.0
 40
3.33858399999999
 50
320.8371259988
 51
39.1628740012
  0
ARC
  5
48
  8
0
  6
CONTINUOUS
 62
     7
 10
4.5282208589
 20
11.5141440479
 30
0.0
 40
3.874
 50
122.9731005824
 51
147.0268994176
  0
CIRCLE
  5
49
  8
0
  6
CONTINUOUS
 62
     7
 10
3.1532208589
 20
19.8839187978
 30
0.0
 40
0.25
  0
CIRCLE
  5
4A
  8
0
  6
CONTINUOUS
 62
     7
 10
5.9032208589
 20
19.8839187978
 30
0.0
 40
0.25
  0
CIRCLE
  5
4B
  8
0
  6
CONTINUOUS
 62
     7
 10
5.9032208589
 20
17.1339187978
 30
0.0
 40
0.25
  0
CIRCLE
  5
4C
  8
0
  6
CONTINUOUS
 62
     7
 10
3.1532208589
 20
17.1339187978
 30
0.0
 40
0.25
  0
CIRCLE
  5
4D
  8
0
  6
CONTINUOUS
 62
     7
 10
4.5282208589
 20
18.5089187978
 30
0.0
 40
0.6249999999999991
  0
ARC
  5
4E
  8
0
  6
CONTINUOUS
 62
     7
 10
4.5282208589
 20
24.3475027978
 30
0.0
 40
3.338583999999991
 50
230.8371259988
 51
309.1628740012
  0
ARC
  5
4F
  8
0
  6
CONTINUOUS
 62
     7
 10
4.5282208589
 20
18.5089187978
 30
0.0
 40
3.874
 50
32.9731005824
 51
57.0268994176
  0
ARC
  5
50
  8
0
  6
CONTINUOUS
 62
     7
 10
10.3668048589
 20
18.5089187978
 30
0.0
 40
3.33858399999999
 50
140.8371259988
 51
219.1628740012
  0
ARC
  5
51
  8
0
  6
CONTINUOUS
 62
     7
 10
4.5282208589
 20
18.5089187978
 30
0.0
 40
3.874
 50
302.9731005824
 51
327.0268994176
  0
ARC
  5
52
  8
0
  6
CONTINUOUS
 62
     7
 10
4.5282208589
 20
12.6703347978
 30
0.0
 40
3.338583999999989
 50
50.8371259988
 51
129.1628740012
  0
ARC
  5
53
  8
0
  6
CONTINUOUS
 62
     7
 10
4.5282208589
 20
18.5089187978
 30
0.0
 40
3.874
 50
212.9731005824
 51
237.0268994176
  0
ARC
  5
54
  8
0
  6
CONTINUOUS
 62
     7
 10
-1.3103631411
 20
18.5089187978
 30
0.0
 40
3.33858399999999
 50
320.8371259988
 51
39.1628740012
  0
ARC
  5
55
  8
0
  6
CONTINUOUS
 62
     7
 10
4.5282208589
 20
18.5089187978
 30
0.0
 40
3.874000000000002
 50
122.9731005824
 51
147.0268994176
  0
CIRCLE
  5
56
  8
0
  6
CONTINUOUS
 62
     7
 10
10.3663171593
 20
5.6756880495
 30
0.0
 40
0.2499999999999982
  0
CIRCLE
  5
57
  8
0
  6
CONTINUOUS
 62
     7
 10
13.1163171593
 20
5.6756880495
 30
0.0
 40
0.2500000000000018
  0
CIRCLE
  5
58
  8
0
  6
CONTINUOUS
 62
     7
 10
13.1163171593
 20
2.9256880495
 30
0.0
 40
0.2500000000000018
  0
CIRCLE
  5
59
  8
0
  6
CONTINUOUS
 62
     7
 10
10.3663171593
 20
2.9256880495
 30
0.0
 40
0.2499999999999982
  0
CIRCLE
  5
5A
  8
0
  6
CONTINUOUS
 62
     7
 10
11.7413171593
 20
4.3006880495
 30
0.0
 40
0.6249999999999982
  0
ARC
  5
5B
  8
0
  6
CONTINUOUS
 62
     7
 10
11.7413171593
 20
10.1392720495
 30
0.0
 40
3.338583999999992
 50
230.8371259988
 51
309.1628740012
  0
ARC
  5
5C
  8
0
  6
CONTINUOUS
 62
     7
 10
11.7413171593
 20
4.3006880495
 30
0.0
 40
3.874000000000001
 50
32.9731005824
 51
57.0268994176
  0
ARC
  5
5D
  8
0
  6
CONTINUOUS
 62
     7
 10
17.5799011593
 20
4.3006880495
 30
0.0
 40
3.33858399999999
 50
140.8371259988
 51
219.1628740012
  0
ARC
  5
5E
  8
0
  6
CONTINUOUS
 62
     7
 10
11.7413171593
 20
4.3006880495
 30
0.0
 40
3.873999999999997
 50
302.9731005824
 51
327.0268994176
  0
ARC
  5
5F
  8
0
  6
CONTINUOUS
 62
     7
 10
11.7413171593
 20
-1.5378959505
 30
0.0
 40
3.338583999999991
 50
50.8371259988
 51
129.1628740012
  0
ARC
  5
60
  8
0
  6
CONTINUOUS
 62
     7
 10
11.7413171593
 20
4.3006880495
 30
0.0
 40
3.874
 50
212.9731005824
 51
237.0268994176
  0
ARC
  5
61
  8
0
  6
CONTINUOUS
 62
     7
 10
5.9027331593
 20
4.3006880495
 30
0.0
 40
3.338583999999989
 50
320.8371259988
 51
39.1628740012
  0
ARC
  5
62
  8
0
  6
CONTINUOUS
 62
     7
 10
11.7413171593
 20
4.3006880495
 30
0.0
 40
3.874000000000001
 50
122.9731005824
 51
147.0268994176
  0
CIRCLE
  5
63
  8
0
  6
CONTINUOUS
 62
     7
 10
10.3663171593
 20
12.8448638395
 30
0.0
 40
0.2499999999999982
  0
CIRCLE
  5
64
  8
0
  6
CONTINUOUS
 62
     7
 10
13.1163171593
 20
12.8448638395
 30
0.0
 40
0.2500000000000018
  0
CIRCLE
  5
65
  8
0
  6
CONTINUOUS
 62
     7
 10
13.1163171593
 20
10.0948638395
 30
0.0
 40
0.2500000000000018
  0
CIRCLE
  5
66
  8
0
  6
CONTINUOUS
 62
     7
 10
10.3663171593
 20
10.0948638395
 30
0.0
 40
0.2499999999999982
  0
CIRCLE
  5
67
  8
0
  6
CONTINUOUS
 62
     7
 10
11.7413171593
 20
11.4698638395
 30
0.0
 40
0.6249999999999982
  0
ARC
  5
68
  8
0
  6
CONTINUOUS
 62
     7
 10
11.7413171593
 20
17.3084478395
 30
0.0
 40
3.338583999999989
 50
230.8371259988
 51
309.1628740012
  0
ARC
  5
69
  8
0
  6
CONTINUOUS
 62
     7
 10
11.7413171593
 20
11.4698638395
 30
0.0
 40
3.874000000000001
 50
32.9731005824
 51
57.0268994176
  0
ARC
  5
6A
  8
0
  6
CONTINUOUS
 62
     7
 10
17.5799011593
 20
11.4698638395
 30
0.0
 40
3.33858399999999
 50
140.8371259988
 51
219.1628740012
  0
ARC
  5
6B
  8
0
  6
CONTINUOUS
 62
     7
 10
11.7413171593
 20
11.4698638395
 30
0.0
 40
3.873999999999998
 50
302.9731005824
 51
327.0268994176
  0
ARC
  5
6C
  8
0
  6
CONTINUOUS
 62
     7
 10
11.7413171593
 20
5.6312798395
 30
0.0
 40
3.338583999999992
 50
50.8371259988
 51
129.1628740012
  0
ARC
  5
6D
  8
0
  6
CONTINUOUS
 62
     7
 10
11.7413171593
 20
11.4698638395
 30
0.0
 40
3.874
 50
212.9731005824
 51
237.0268994176
  0
ARC
  5
6E
  8
0
  6
CONTINUOUS
 62
     7
 10
5.9027331593
 20
11.4698638395
 30
0.0
 40
3.338583999999988
 50
320.8371259988
 51
39.1628740012
  0
ARC
  5
6F
  8
0
  6
CONTINUOUS
 62
     7
 10
11.7413171593
 20
11.4698638395
 30
0.0
 40
3.874
 50
122.9731005824
 51
147.0268994176
  0
CIRCLE
  5
70
  8
0
  6
CONTINUOUS
 62
     7
 10
10.3663171593
 20
20.0500077548
 30
0.0
 40
0.2499999999999982
  0
CIRCLE
  5
71
  8
0
  6
CONTINUOUS
 62
     7
 10
13.1163171593
 20
20.0500077548
 30
0.0
 40
0.2500000000000018
  0
CIRCLE
  5
72
  8
0
  6
CONTINUOUS
 62
     7
 10
13.1163171593
 20
17.3000077548
 30
0.0
 40
0.2500000000000018
  0
CIRCLE
  5
73
  8
0
  6
CONTINUOUS
 62
     7
 10
10.3663171593
 20
17.3000077548
 30
0.0
 40
0.2499999999999982
  0
CIRCLE
  5
74
  8
0
  6
CONTINUOUS
 62
     7
 10
11.7413171593
 20
18.6750077548
 30
0.0
 40
0.6249999999999982
  0
ARC
  5
75
  8
0
  6
CONTINUOUS
 62
     7
 10
11.7413171593
 20
24.5135917548
 30
0.0
 40
3.338583999999993
 50
230.8371259988
 51
309.1628740012
  0
ARC
  5
76
  8
0
  6
CONTINUOUS
 62
     7
 10
11.7413171593
 20
18.6750077548
 30
0.0
 40
3.873999999999999
 50
32.9731005824
 51
57.0268994176
  0
ARC
  5
77
  8
0
  6
CONTINUOUS
 62
     7
 10
17.5799011593
 20
18.6750077548
 30
0.0
 40
3.338583999999989
 50
140.8371259988
 51
219.1628740012
  0
ARC
  5
78
  8
0
  6
CONTINUOUS
 62
     7
 10
11.7413171593
 20
18.6750077548
 30
0.0
 40
3.873999999999998
 50
302.9731005824
 51
327.0268994176
  0
ARC
  5
79
  8
0
  6
CONTINUOUS
 62
     7
 10
11.7413171593
 20
12.8364237548
 30
0.0
 40
3.338583999999992
 50
50.8371259988
 51
129.1628740012
  0
ARC
  5
7A
  8
0
  6
CONTINUOUS
 62
     7
 10
11.7413171593
 20
18.6750077548
 30
0.0
 40
3.874
 50
212.9731005824
 51
237.0268994176
  0
ARC
  5
7B
  8
0
  6
CONTINUOUS
 62
     7
 10
5.9027331593
 20
18.6750077548
 30
0.0
 40
3.338583999999988
 50
320.8371259988
 51
39.1628740012
  0
ARC
  5
7C
  8
0
  6
CONTINUOUS
 62
     7
 10
11.7413171593
 20
18.6750077548
 30
0.0
 40
3.874000000000001
 50
122.9731005824
 51
147.0268994176
  0
CIRCLE
  5
7D
  8
0
  6
CONTINUOUS
 62
     7
 10
17.3610919092
 20
5.6230957582
 30
0.0
 40
0.25
  0
CIRCLE
  5
7E
  8
0
  6
CONTINUOUS
 62
     7
 10
20.1110919092
 20
5.6230957582
 30
0.0
 40
0.25
  0
CIRCLE
  5
7F
  8
0
  6
CONTINUOUS
 62
     7
 10
20.1110919092
 20
2.8730957582
 30
0.0
 40
0.25
  0
CIRCLE
  5
80
  8
0
  6
CONTINUOUS
 62
     7
 10
17.3610919092
 20
2.8730957582
 30
0.0
 40
0.25
  0
CIRCLE
  5
81
  8
0
  6
CONTINUOUS
 62
     7
 10
18.7360919092
 20
4.2480957582
 30
0.0
 40
0.625
  0
ARC
  5
82
  8
0
  6
CONTINUOUS
 62
     7
 10
18.7360919092
 20
10.0866797582
 30
0.0
 40
3.33858399999999
 50
230.8371259988
 51
309.1628740012
  0
ARC
  5
83
  8
0
  6
CONTINUOUS
 62
     7
 10
18.7360919092
 20
4.2480957582
 30
0.0
 40
3.874
 50
32.9731005824
 51
57.0268994176
  0
ARC
  5
84
  8
0
  6
CONTINUOUS
 62
     7
 10
24.5746759092
 20
4.2480957582
 30
0.0
 40
3.338583999999992
 50
140.8371259988
 51
219.1628740012
  0
ARC
  5
85
  8
0
  6
CONTINUOUS
 62
     7
 10
18.7360919092
 20
4.2480957582
 30
0.0
 40
3.873999999999999
 50
302.9731005824
 51
327.0268994176
  0
ARC
  5
86
  8
0
  6
CONTINUOUS
 62
     7
 10
18.7360919092
 20
-1.5904882418
 30
0.0
 40
3.33858399999999
 50
50.8371259988
 51
129.1628740012
  0
ARC
  5
87
  8
0
  6
CONTINUOUS
 62
     7
 10
18.7360919092
 20
4.2480957582
 30
0.0
 40
3.873999999999998
 50
212.9731005824
 51
237.0268994176
  0
ARC
  5
88
  8
0
  6
CONTINUOUS
 62
     7
 10
12.8975079092
 20
4.2480957582
 30
0.0
 40
3.33858399999999
 50
320.8371259988
 51
39.1628740012
  0
ARC
  5
89
  8
0
  6
CONTINUOUS
 62
     7
 10
18.7360919092
 20
4.2480957582
 30
0.0
 40
3.873999999999999
 50
122.9731005824
 51
147.0268994176
  0
CIRCLE
  5
8A
  8
0
  6
CONTINUOUS
 62
     7
 10
17.3610919092
 20
12.8448638395
 30
0.0
 40
0.25
  0
CIRCLE
  5
8B
  8
0
  6
CONTINUOUS
 62
     7
 10
20.1110919092
 20
12.8448638395
 30
0.0
 40
0.25
  0
CIRCLE
  5
8C
  8
0
  6
CONTINUOUS
 62
     7
 10
20.1110919092
 20
10.0948638395
 30
0.0
 40
0.25
  0
CIRCLE
  5
8D
  8
0
  6
CONTINUOUS
 62
     7
 10
17.3610919092
 20
10.0948638395
 30
0.0
 40
0.25
  0
CIRCLE
  5
8E
  8
0
  6
CONTINUOUS
 62
     7
 10
18.7360919092
 20
11.4698638395
 30
0.0
 40
0.625
  0
ARC
  5
8F
  8
0
  6
CONTINUOUS
 62
     7
 10
18.7360919092
 20
17.3084478395
 30
0.0
 40
3.338583999999989
 50
230.8371259988
 51
309.1628740012
  0
ARC
  5
90
  8
0
  6
CONTINUOUS
 62
     7
 10
18.7360919092
 20
11.4698638395
 30
0.0
 40
3.874000000000002
 50
32.9731005824
 51
57.0268994176
  0
ARC
  5
91
  8
0
  6
CONTINUOUS
 62
     7
 10
24.5746759092
 20
11.4698638395
 30
0.0
 40
3.338583999999992
 50
140.8371259988
 51
219.1628740012
  0
ARC
  5
92
  8
0
  6
CONTINUOUS
 62
     7
 10
18.7360919092
 20
11.4698638395
 30
0.0
 40
3.873999999999998
 50
302.9731005824
 51
327.0268994176
  0
ARC
  5
93
  8
0
  6
CONTINUOUS
 62
     7
 10
18.7360919092
 20
5.6312798395
 30
0.0
 40
3.33858399999999
 50
50.8371259988
 51
129.1628740012
  0
ARC
  5
94
  8
0
  6
CONTINUOUS
 62
     7
 10
18.7360919092
 20
11.4698638395
 30
0.0
 40
3.873999999999998
 50
212.9731005824
 51
237.0268994176
  0
ARC
  5
95
  8
0
  6
CONTINUOUS
 62
     7
 10
12.8975079092
 20
11.4698638395
 30
0.0
 40
3.338583999999989
 50
320.8371259988
 51
39.1628740012
  0
ARC
  5
96
  8
0
  6
CONTINUOUS
 62
     7
 10
18.7360919092
 20
11.4698638395
 30
0.0
 40
3.873999999999998
 50
122.9731005824
 51
147.0268994176
  0
CIRCLE
  5
97
  8
0
  6
CONTINUOUS
 62
     7
 10
17.3610919092
 20
20.1551923375
 30
0.0
 40
0.25
  0
CIRCLE
  5
98
  8
0
  6
CONTINUOUS
 62
     7
 10
20.1110919092
 20
20.1551923375
 30
0.0
 40
0.25
  0
CIRCLE
  5
99
  8
0
  6
CONTINUOUS
 62
     7
 10
20.1110919092
 20
17.4051923375
 30
0.0
 40
0.25
  0
CIRCLE
  5
9A
  8
0
  6
CONTINUOUS
 62
     7
 10
17.3610919092
 20
17.4051923375
 30
0.0
 40
0.25
  0
CIRCLE
  5
9B
  8
0
  6
CONTINUOUS
 62
     7
 10
18.7360919092
 20
18.7801923375
 30
0.0
 40
0.625
  0
ARC
  5
9C
  8
0
  6
CONTINUOUS
 62
     7
 10
18.7360919092
 20
24.6187763375
 30
0.0
 40
3.33858399999999
 50
230.8371259988
 51
309.1628740012
  0
ARC
  5
9D
  8
0
  6
CONTINUOUS
 62
     7
 10
18.7360919092
 20
18.7801923375
 30
0.0
 40
3.874
 50
32.9731005824
 51
57.0268994176
  0
ARC
  5
9E
  8
0
  6
CONTINUOUS
 62
     7
 10
24.5746759092
 20
18.7801923375
 30
0.0
 40
3.33858399999999
 50
140.8371259988
 51
219.1628740012
  0
ARC
  5
9F
  8
0
  6
CONTINUOUS
 62
     7
 10
18.7360919092
 20
18.7801923375
 30
0.0
 40
3.874
 50
302.9731005824
 51
327.0268994176
  0
ARC
  5
A0
  8
0
  6
CONTINUOUS
 62
     7
 10
18.7360919092
 20
12.9416083375
 30
0.0
 40
3.338583999999989
 50
50.8371259988
 51
129.1628740012
  0
ARC
  5
A1
  8
0
  6
CONTINUOUS
 62
     7
 10
18.7360919092
 20
18.7801923375
 30
0.0
 40
3.874
 50
212.9731005824
 51
237.0268994176
  0
ARC
  5
A2
  8
0
  6
CONTINUOUS
 62
     7
 10
12.8975079092
 20
18.7801923375
 30
0.0
 40
3.338583999999989
 50
320.8371259988
 51
39.1628740012
  0
ARC
  5
A3
  8
0
  6
CONTINUOUS
 62
     7
 10
18.7360919092
 20
18.7801923375
 30
0.0
 40
3.873999999999998
 50
122.9731005824
 51
147.0268994176
  0
CIRCLE
  5
A4
  8
0
  6
CONTINUOUS
 62
     7
 10
24.3558666591
 20
5.7282803409
 30
0.0
 40
0.25
  0
CIRCLE
  5
A5
  8
0
  6
CONTINUOUS
 62
     7
 10
27.1058666591
 20
5.7282803409
 30
0.0
 40
0.2499999999999964
  0
CIRCLE
  5
A6
  8
0
  6
CONTINUOUS
 62
     7
 10
27.1058666591
 20
2.9782803409
 30
0.0
 40
0.2499999999999964
  0
CIRCLE
  5
A7
  8
0
  6
CONTINUOUS
 62
     7
 10
24.3558666591
 20
2.9782803409
 30
0.0
 40
0.25
  0
CIRCLE
  5
A8
  8
0
  6
CONTINUOUS
 62
     7
 10
25.7308666591
 20
4.3532803409
 30
0.0
 40
0.6249999999999964
  0
ARC
  5
A9
  8
0
  6
CONTINUOUS
 62
     7
 10
25.7308666591
 20
10.1918643409
 30
0.0
 40
3.338583999999992
 50
230.8371259988
 51
309.1628740012
  0
ARC
  5
AA
  8
0
  6
CONTINUOUS
 62
     7
 10
25.7308666591
 20
4.3532803409
 30
0.0
 40
3.873999999999999
 50
32.9731005824
 51
57.0268994176
  0
ARC
  5
AB
  8
0
  6
CONTINUOUS
 62
     7
 10
31.5694506591
 20
4.3532803409
 30
0.0
 40
3.338583999999992
 50
140.8371259988
 51
219.1628740012
  0
ARC
  5
AC
  8
0
  6
CONTINUOUS
 62
     7
 10
25.7308666591
 20
4.3532803409
 30
0.0
 40
3.873999999999998
 50
302.9731005824
 51
327.0268994176
  0
ARC
  5
AD
  8
0
  6
CONTINUOUS
 62
     7
 10
25.7308666591
 20
-1.4853036591
 30
0.0
 40
3.33858399999999
 50
50.8371259988
 51
129.1628740012
  0
ARC
  5
AE
  8
0
  6
CONTINUOUS
 62
     7
 10
25.7308666591
 20
4.3532803409
 30
0.0
 40
3.873999999999998
 50
212.9731005824
 51
237.0268994176
  0
ARC
  5
AF
  8
0
  6
CONTINUOUS
 62
     7
 10
19.8922826591
 20
4.3532803409
 30
0.0
 40
3.338583999999991
 50
320.8371259988
 51
39.1628740012
  0
ARC
  5
B0
  8
0
  6
CONTINUOUS
 62
     7
 10
25.7308666591
 20
4.3532803409
 30
0.0
 40
3.874
 50
122.9731005824
 51
147.0268994176
  0
CIRCLE
  5
B1
  8
0
  6
CONTINUOUS
 62
     7
 10
24.3558666591
 20
12.8448638395
 30
0.0
 40
0.25
  0
CIRCLE
  5
B2
  8
0
  6
CONTINUOUS
 62
     7
 10
27.1058666591
 20
12.8448638395
 30
0.0
 40
0.2499999999999964
  0
CIRCLE
  5
B3
  8
0
  6
CONTINUOUS
 62
     7
 10
27.1058666591
 20
10.0948638395
 30
0.0
 40
0.2499999999999964
  0
CIRCLE
  5
B4
  8
0
  6
CONTINUOUS
 62
     7
 10
24.3558666591
 20
10.0948638395
 30
0.0
 40
0.25
  0
CIRCLE
  5
B5
  8
0
  6
CONTINUOUS
 62
     7
 10
25.7308666591
 20
11.4698638395
 30
0.0
 40
0.6249999999999964
  0
ARC
  5
B6
  8
0
  6
CONTINUOUS
 62
     7
 10
25.7308666591
 20
17.3084478395
 30
0.0
 40
3.338583999999994
 50
230.8371259988
 51
309.1628740012
  0
ARC
  5
B7
  8
0
  6
CONTINUOUS
 62
     7
 10
25.7308666591
 20
11.4698638395
 30
0.0
 40
3.873999999999998
 50
32.9731005824
 51
57.0268994176
  0
ARC
  5
B8
  8
0
  6
CONTINUOUS
 62
     7
 10
31.5694506591
 20
11.4698638395
 30
0.0
 40
3.338583999999992
 50
140.8371259988
 51
219.1628740012
  0
ARC
  5
B9
  8
0
  6
CONTINUOUS
 62
     7
 10
25.7308666591
 20
11.4698638395
 30
0.0
 40
3.873999999999998
 50
302.9731005824
 51
327.0268994176
  0
ARC
  5
BA
  8
0
  6
CONTINUOUS
 62
     7
 10
25.7308666591
 20
5.6312798395
 30
0.0
 40
3.33858399999999
 50
50.8371259988
 51
129.1628740012
  0
ARC
  5
BB
  8
0
  6
CONTINUOUS
 62
     7
 10
25.7308666591
 20
11.4698638395
 30
0.0
 40
3.873999999999998
 50
212.9731005824
 51
237.0268994176
  0
ARC
  5
BC
  8
0
  6
CONTINUOUS
 62
     7
 10
19.8922826591
 20
11.4698638395
 30
0.0
 40
3.33858399999999
 50
320.8371259988
 51
39.1628740012
  0
ARC
  5
BD
  8
0
  6
CONTINUOUS
 62
     7
 10
25.7308666591
 20
11.4698638395
 30
0.0
 40
3.873999999999998
 50
122.9731005824
 51
147.0268994176
  0
CIRCLE
  5
BE
  8
0
  6
CONTINUOUS
 62
     7
 10
24.3558666591
 20
20.1026000462
 30
0.0
 40
0.25
  0
CIRCLE
  5
BF
  8
0
  6
CONTINUOUS
 62
     7
 10
27.1058666591
 20
20.1026000462
 30
0.0
 40
0.2499999999999964
  0
CIRCLE
  5
C0
  8
0
  6
CONTINUOUS
 62
     7
 10
27.1058666591
 20
17.3526000462
 30
0.0
 40
0.2499999999999964
  0
CIRCLE
  5
C1
  8
0
  6
CONTINUOUS
 62
     7
 10
24.3558666591
 20
17.3526000462
 30
0.0
 40
0.25
  0
CIRCLE
  5
C2
  8
0
  6
CONTINUOUS
 62
     7
 10
25.7308666591
 20
18.7276000462
 30
0.0
 40
0.6249999999999964
  0
ARC
  5
C3
  8
0
  6
CONTINUOUS
 62
     7
 10
25.7308666591
 20
24.5661840462
 30
0.0
 40
3.338583999999992
 50
230.8371259988
 51
309.1628740012
  0
ARC
  5
C4
  8
0
  6
CONTINUOUS
 62
     7
 10
25.7308666591
 20
18.7276000462
 30
0.0
 40
3.873999999999998
 50
32.9731005824
 51
57.0268994176
  0
ARC
  5
C5
  8
0
  6
CONTINUOUS
 62
     7
 10
31.5694506591
 20
18.7276000462
 30
0.0
 40
3.33858399999999
 50
140.8371259988
 51
219.1628740012
  0
ARC
  5
C6
  8
0
  6
CONTINUOUS
 62
     7
 10
25.7308666591
 20
18.7276000462
 30
0.0
 40
3.873999999999998
 50
302.9731005824
 51
327.0268994176
  0
ARC
  5
C7
  8
0
  6
CONTINUOUS
 62
     7
 10
25.7308666591
 20
12.8890160462
 30
0.0
 40
3.338583999999989
 50
50.8371259988
 51
129.1628740012
  0
ARC
  5
C8
  8
0
  6
CONTINUOUS
 62
     7
 10
25.7308666591
 20
18.7276000462
 30
0.0
 40
3.873999999999998
 50
212.9731005824
 51
237.0268994176
  0
ARC
  5
C9
  8
0
  6
CONTINUOUS
 62
     7
 10
19.8922826591
 20
18.7276000462
 30
0.0
 40
3.338583999999992
 50
320.8371259988
 51
39.1628740012
  0
ARC
  5
CA
  8
0
  6
CONTINUOUS
 62
     7
 10
25.7308666591
 20
18.7276000462
 30
0.0
 40
3.874
 50
122.9731005824
 51
147.0268994176
  0
CIRCLE
  5
CB
  8
0
  6
CONTINUOUS
 62
     7
 10
31.2642883849
 20
5.6994959995
 30
0.0
 40
0.25
  0
CIRCLE
  5
CC
  8
0
  6
CONTINUOUS
 62
     7
 10
34.0142883849
 20
5.6994959995
 30
0.0
 40
0.25
  0
CIRCLE
  5
CD
  8
0
  6
CONTINUOUS
 62
     7
 10
34.0142883849
 20
2.9494959995
 30
0.0
 40
0.25
  0
CIRCLE
  5
CE
  8
0
  6
CONTINUOUS
 62
     7
 10
31.2642883849
 20
2.9494959995
 30
0.0
 40
0.25
  0
CIRCLE
  5
CF
  8
0
  6
CONTINUOUS
 62
     7
 10
32.6392883849
 20
4.3244959995
 30
0.0
 40
0.625
  0
ARC
  5
D0
  8
0
  6
CONTINUOUS
 62
     7
 10
32.6392883849
 20
10.1630799995
 30
0.0
 40
3.338583999999992
 50
230.8371259988
 51
309.1628740012
  0
ARC
  5
D1
  8
0
  6
CONTINUOUS
 62
     7
 10
32.6392883849
 20
4.3244959995
 30
0.0
 40
3.874000000000002
 50
32.9731005824
 51
57.0268994176
  0
ARC
  5
D2
  8
0
  6
CONTINUOUS
 62
     7
 10
38.4778723849
 20
4.3244959995
 30
0.0
 40
3.338583999999997
 50
140.8371259988
 51
219.1628740012
  0
ARC
  5
D3
  8
0
  6
CONTINUOUS
 62
     7
 10
32.6392883849
 20
4.3244959995
 30
0.0
 40
3.874
 50
302.9731005824
 51
327.0268994176
  0
ARC
  5
D4
  8
0
  6
CONTINUOUS
 62
     7
 10
32.6392883849
 20
-1.5140880005
 30
0.0
 40
3.33858399999999
 50
50.8371259988
 51
129.1628740012
  0
ARC
  5
D5
  8
0
  6
CONTINUOUS
 62
     7
 10
32.6392883849
 20
4.3244959995
 30
0.0
 40
3.873999999999995
 50
212.9731005824
 51
237.0268994176
  0
ARC
  5
D6
  8
0
  6
CONTINUOUS
 62
     7
 10
26.8007043849
 20
4.3244959995
 30
0.0
 40
3.33858399999999
 50
320.8371259988
 51
39.1628740012
  0
ARC
  5
D7
  8
0
  6
CONTINUOUS
 62
     7
 10
32.6392883849
 20
4.3244959995
 30
0.0
 40
3.873999999999999
 50
122.9731005824
 51
147.0268994176
  0
CIRCLE
  5
D8
  8
0
  6
CONTINUOUS
 62
     7
 10
31.2642883849
 20
12.8701597864
 30
0.0
 40
0.25
  0
CIRCLE
  5
D9
  8
0
  6
CONTINUOUS
 62
     7
 10
34.0142883849
 20
12.8701597864
 30
0.0
 40
0.25
  0
CIRCLE
  5
DA
  8
0
  6
CONTINUOUS
 62
     7
 10
34.0142883849
 20
10.1201597864
 30
0.0
 40
0.25
  0
CIRCLE
  5
DB
  8
0
  6
CONTINUOUS
 62
     7
 10
31.2642883849
 20
10.1201597864
 30
0.0
 40
0.25
  0
CIRCLE
  5
DC
  8
0
  6
CONTINUOUS
 62
     7
 10
32.6392883849
 20
11.4951597864
 30
0.0
 40
0.625
  0
ARC
  5
DD
  8
0
  6
CONTINUOUS
 62
     7
 10
32.6392883849
 20
17.3337437864
 30
0.0
 40
3.338583999999994
 50
230.8371259988
 51
309.1628740012
  0
ARC
  5
DE
  8
0
  6
CONTINUOUS
 62
     7
 10
32.6392883849
 20
11.4951597864
 30
0.0
 40
3.874
 50
32.9731005824
 51
57.0268994176
  0
ARC
  5
DF
  8
0
  6
CONTINUOUS
 62
     7
 10
38.4778723849
 20
11.4951597864
 30
0.0
 40
3.338583999999998
 50
140.8371259988
 51
219.1628740012
  0
ARC
  5
E0
  8
0
  6
CONTINUOUS
 62
     7
 10
32.6392883849
 20
11.4951597864
 30
0.0
 40
3.874000000000002
 50
302.9731005824
 51
327.0268994176
  0
ARC
  5
E1
  8
0
  6
CONTINUOUS
 62
     7
 10
32.6392883849
 20
5.6565757864
 30
0.0
 40
3.33858399999999
 50
50.8371259988
 51
129.1628740012
  0
ARC
  5
E2
  8
0
  6
CONTINUOUS
 62
     7
 10
32.6392883849
 20
11.4951597864
 30
0.0
 40
3.873999999999996
 50
212.9731005824
 51
237.0268994176
  0
ARC
  5
E3
  8
0
  6
CONTINUOUS
 62
     7
 10
26.8007043849
 20
11.4951597864
 30
0.0
 40
3.338583999999992
 50
320.8371259988
 51
39.1628740012
  0
ARC
  5
E4
  8
0
  6
CONTINUOUS
 62
     7
 10
32.6392883849
 20
11.4951597864
 30
0.0
 40
3.873999999999996
 50
122.9731005824
 51
147.0268994176
  0
CIRCLE
  5
E5
  8
0
  6
CONTINUOUS
 62
     7
 10
31.2642883849
 20
20.1204560087
 30
0.0
 40
0.25
  0
CIRCLE
  5
E6
  8
0
  6
CONTINUOUS
 62
     7
 10
34.0142883849
 20
20.1204560087
 30
0.0
 40
0.25
  0
CIRCLE
  5
E7
  8
0
  6
CONTINUOUS
 62
     7
 10
34.0142883849
 20
17.3704560087
 30
0.0
 40
0.25
  0
CIRCLE
  5
E8
  8
0
  6
CONTINUOUS
 62
     7
 10
31.2642883849
 20
17.3704560087
 30
0.0
 40
0.25
  0
CIRCLE
  5
E9
  8
0
  6
CONTINUOUS
 62
     7
 10
32.6392883849
 20
18.7454560087
 30
0.0
 40
0.625
  0
ARC
  5
EA
  8
0
  6
CONTINUOUS
 62
     7
 10
32.6392883849
 20
24.5840400087
 30
0.0
 40
3.338583999999996
 50
230.8371259988
 51
309.1628740012
  0
ARC
  5
EB
  8
0
  6
CONTINUOUS
 62
     7
 10
32.6392883849
 20
18.7454560087
 30
0.0
 40
3.874
 50
32.9731005824
 51
57.0268994176
  0
ARC
  5
EC
  8
0
  6
CONTINUOUS
 62
     7
 10
38.4778723849
 20
18.7454560087
 30
0.0
 40
3.338583999999996
 50
140.8371259988
 51
219.1628740012
  0
ARC
  5
ED
  8
0
  6
CONTINUOUS
 62
     7
 10
32.6392883849
 20
18.7454560087
 30
0.0
 40
3.874
 50
302.9731005824
 51
327.0268994176
  0
ARC
  5
EE
  8
0
  6
CONTINUOUS
 62
     7
 10
32.6392883849
 20
12.9068720087
 30
0.0
 40
3.338583999999992
 50
50.8371259988
 51
129.1628740012
  0
ARC
  5
EF
  8
0
  6
CONTINUOUS
 62
     7
 10
32.6392883849
 20
18.7454560087
 30
0.0
 40
3.873999999999996
 50
212.9731005824
 51
237.0268994176
  0
ARC
  5
F0
  8
0
  6
CONTINUOUS
 62
     7
 10
26.8007043849
 20
18.7454560087
 30
0.0
 40
3.338583999999992
 50
320.8371259988
 51
39.1628740012
  0
ARC
  5
F1
  8
0
  6
CONTINUOUS
 62
     7
 10
32.6392883849
 20
18.7454560087
 30
0.0
 40
3.873999999999997
 50
122.9731005824
 51
147.0268994176
  0
ENDSEC
  0
EOF
