  0
SECTION
  2
HEADER
  9
$ACADVER
  1
AC1009
  9
$DWGCODEPAGE
  3
ansi_1252
  9
$INSBASE
 10
0.0
 20
0.0
 30
0.0
  9
$EXTMIN
 10
0.0
 20
0.0
 30
0.0
  9
$EXTMAX
 10
36.0
 20
36.0
 30
0.0
  9
$LIMMIN
 10
0.0
 20
0.0
  9
$LIMMAX
 10
0.0
 20
0.0
  9
$ORTHOMODE
 70
     0
  9
$REGENMODE
 70
     1
  9
$FILLMODE
 70
     1
  9
$QTEXTMODE
 70
     0
  9
$MIRRTEXT
 70
     1
  9
$DRAGMODE
 70
     2
  9
$LTSCALE
 40
1.0
  9
$OSMODE
 70
    37
  9
$ATTMODE
 70
     1
  9
$TEXTSIZE
 40
0.1377952756
  9
$TRACEWID
 40
0.05
  9
$TEXTSTYLE
  7
STANDARD
  9
$CLAYER
  8
0
  9
$CELTYPE
  6
BYLAYER
  9
$CECOLOR
 62
   256
  9
$DIMSCALE
 40
1.0
  9
$DIMASZ
 40
0.156
  9
$DIMEXO
 40
0.05
  9
$DIMDLI
 40
0.38
  9
$DIMRND
 40
0.0
  9
$DIMDLE
 40
0.0
  9
$DIMEXE
 40
0.125
  9
$DIMTP
 40
0.0
  9
$DIMTM
 40
0.0
  9
$DIMTXT
 40
0.1377952756
  9
$DIMCEN
 40
0.09
  9
$DIMTSZ
 40
0.0
  9
$DIMTOL
 70
     0
  9
$DIMLIM
 70
     0
  9
$DIMTIH
 70
     1
  9
$DIMTOH
 70
     1
  9
$DIMSE1
 70
     0
  9
$DIMSE2
 70
     0
  9
$DIMTAD
 70
     0
  9
$DIMZIN
 70
     0
  9
$DIMBLK
  1

  9
$DIMASO
 70
     1
  9
$DIMSHO
 70
     1
  9
$DIMPOST
  1

  9
$DIMAPOST
  1

  9
$DIMALT
 70
     0
  9
$DIMALTD
 70
     2
  9
$DIMALTF
 40
25.4
  9
$DIMLFAC
 40
2.0
  9
$DIMTOFL
 70
     0
  9
$DIMTVP
 40
0.0
  9
$DIMTIX
 70
     0
  9
$DIMSOXD
 70
     0
  9
$DIMSAH
 70
     0
  9
$DIMBLK1
  1

  9
$DIMBLK2
  1

  9
$DIMSTYLE
  2
STANDARD
  9
$DIMCLRD
 70
     0
  9
$DIMCLRE
 70
     0
  9
$DIMCLRT
 70
     0
  9
$DIMTFAC
 40
1.0
  9
$DIMGAP
 40
0.06
  9
$LUNITS
 70
     2
  9
$LUPREC
 70
     2
  9
$SKETCHINC
 40
0.1
  9
$FILLETRAD
 40
0.5
  9
$AUNITS
 70
     0
  9
$AUPREC
 70
     0
  9
$MENU
  1
.
  9
$ELEVATION
 40
0.0
  9
$PELEVATION
 40
0.0
  9
$THICKNESS
 40
0.0
  9
$LIMCHECK
 70
     0
  9
$CHAMFERA
 40
0.5
  9
$CHAMFERB
 40
0.5
  9
$SKPOLY
 70
     0
  9
$TDCREATE
 40
2454244.975689734
  9
$TDUPDATE
 40
2454244.975689746
  9
$TDINDWG
 40
0.0000000116
  9
$TDUSRTIMER
 40
0.0000000116
  9
$USRTIMER
 70
     1
  9
$ANGBASE
 50
0.0
  9
$ANGDIR
 70
     0
  9
$PDMODE
 70
     0
  9
$PDSIZE
 40
-1.0
  9
$PLINEWID
 40
0.0
  9
$COORDS
 70
     1
  9
$SPLFRAME
 70
     0
  9
$SPLINETYPE
 70
     6
  9
$SPLINESEGS
 70
     8
  9
$ATTDIA
 70
     0
  9
$ATTREQ
 70
     1
  9
$HANDLING
 70
     1
  9
$HANDSEED
  5
53
  9
$SURFTAB1
 70
     6
  9
$SURFTAB2
 70
     6
  9
$SURFTYPE
 70
     6
  9
$SURFU
 70
     6
  9
$SURFV
 70
     6
  9
$UCSNAME
  2

  9
$UCSORG
 10
0.0
 20
0.0
 30
0.0
  9
$UCSXDIR
 10
1.0
 20
0.0
 30
0.0
  9
$UCSYDIR
 10
0.0
 20
1.0
 30
0.0
  9
$PUCSNAME
  2

  9
$PUCSORG
 10
0.0
 20
0.0
 30
0.0
  9
$PUCSXDIR
 10
1.0
 20
0.0
 30
0.0
  9
$PUCSYDIR
 10
0.0
 20
1.0
 30
0.0
  9
$USERI1
 70
     0
  9
$USERI2
 70
     0
  9
$USERI3
 70
     0
  9
$USERI4
 70
     0
  9
$USERI5
 70
     0
  9
$USERR1
 40
0.0
  9
$USERR2
 40
0.0
  9
$USERR3
 40
0.0
  9
$USERR4
 40
0.0
  9
$USERR5
 40
0.0
  9
$WORLDVIEW
 70
     1
  9
$SHADEDGE
 70
     3
  9
$SHADEDIF
 70
    70
  9
$TILEMODE
 70
     1
  9
$MAXACTVP
 70
    64
  9
$PLIMCHECK
 70
     0
  9
$PEXTMIN
 10
1.0000000000E+20
 20
1.0000000000E+20
 30
1.0000000000E+20
  9
$PEXTMAX
 10
-1.0000000000E+20
 20
-1.0000000000E+20
 30
-1.0000000000E+20
  9
$PLIMMIN
 10
0.0
 20
0.0
  9
$PLIMMAX
 10
12.0
 20
9.0
  9
$UNITMODE
 70
     0
  9
$VISRETAIN
 70
     1
  9
$PLINEGEN
 70
     0
  9
$PSLTSCALE
 70
     1
  0
ENDSEC
  0
SECTION
  2
TABLES
  0
TABLE
  2
VPORT
 70
     1
  0
VPORT
  2
*ACTIVE
 70
     0
 10
0.0
 20
0.0
 11
1.0
 21
1.0
 12
18.0
 22
18.0
 13
0.0
 23
0.0
 14
0.5
 24
0.5
 15
0.5
 25
0.5
 16
0.0
 26
0.0
 36
1.0
 17
0.0
 27
0.0
 37
0.0
 40
36.0
 41
1.0
 42
50.0
 43
0.0
 44
0.0
 50
0.0
 51
0.0
 71
     0
 72
  2000
 73
     1
 74
     3
 75
     0
 76
     0
 77
     0
 78
     0
  0
ENDTAB
  0
TABLE
  2
LTYPE
 70
     6
  0
LTYPE
  2
CONTINUOUS
 70
     0
  3
Solid line
 72
    65
 73
     0
 40
0.0
  0
LTYPE
  2
HIDDEN
 70
     0
  3
Hidden __ __ __ __ __ __ __ __ __ __ __ __ __ __
 72
    65
 73
     2
 40
0.075
 49
0.05
 49
-0.025
  0
LTYPE
  2
PHANTOM
 70
     0
  3
Phantom ______  __  __  ______  __  __  ______
 72
    65
 73
     6
 40
0.5
 49
0.25
 49
-0.05
 49
0.05
 49
-0.05
 49
0.05
 49
-0.05
  0
LTYPE
  2
CENTER
 70
     0
  3
Center ____ _ ____ _ ____ _ ____ _ ____ _ ____
 72
    65
 73
     4
 40
0.4
 49
0.25
 49
-0.05
 49
0.05
 49
-0.05
  0
LTYPE
  2
CENTERX2
 70
     0
  3
Center (2x) ________  __  ________  __  _____
 72
    65
 73
     4
 40
0.8
 49
0.5
 49
-0.1
 49
0.1
 49
-0.1
  0
LTYPE
  2
DOT2
 70
     0
  3
Dot (.5x) ........................................
 72
    65
 73
     2
 40
0.025
 49
0.0
 49
-0.025
  0
ENDTAB
  0
TABLE
  2
LAYER
 70
     1
  0
LAYER
  2
0
 70
     0
 62
     7
  6
CONTINUOUS
  0
ENDTAB
  0
TABLE
  2
STYLE
 70
     1
  0
STYLE
  2
STANDARD
 70
     0
 40
0.0
 41
1.0
 50
0.0
 71
     0
 42
0.2
  3
txt
  4

  0
ENDTAB
  0
TABLE
  2
VIEW
 70
     0
  0
ENDTAB
  0
TABLE
  2
UCS
 70
     0
  0
ENDTAB
  0
TABLE
  2
APPID
 70
     1
  0
APPID
  2
ACAD
 70
     0
  0
ENDTAB
  0
TABLE
  2
DIMSTYLE
 70
     1
  0
DIMSTYLE
  2
STANDARD
 70
     0
  3

  4

  5

  6

  7

 40
1.0
 41
0.18
 42
0.0625
 43
0.38
 44
0.18
 45
0.0
 46
0.0
 47
0.0
 48
0.0
140
0.18
141
0.09
142
0.0
143
25.4
144
1.0
145
0.0
146
1.0
147
0.09
 71
     0
 72
     0
 73
     1
 74
     1
 75
     0
 76
     0
 77
     0
 78
     0
170
     0
171
     2
172
     0
173
     0
174
     0
175
     0
176
     0
177
     0
178
     0
  0
ENDTAB
  0
ENDSEC
  0
SECTION
  2
BLOCKS
  0
BLOCK
  8
0
  2
$MODEL_SPACE
 70
     0
 10
0.0
 20
0.0
 30
0.0
  3
$MODEL_SPACE
  1

  0
ENDBLK
  5
21
  8
0
  0
BLOCK
 67
     1
  8
0
  2
$PAPER_SPACE
 70
     0
 10
0.0
 20
0.0
 30
0.0
  3
$PAPER_SPACE
  1

  0
ENDBLK
  5
1D
 67
     1
  8
0
  0
ENDSEC
  0
SECTION
  2
ENTITIES
  0
ARC
  5
2F
  8
0
  6
CONTINUOUS
 62
     7
 10
6.9946595391
 20
29.3759803554
 30
0.0
 40
5.063070704134155
 50
24.8285675471
 51
156.7766881326
  0
ARC
  5
30
  8
0
  6
CONTINUOUS
 62
     7
 10
2.492599979
 20
27.6845044713
 30
0.0
 40
3.691005727250136
 50
92.3411554066
 51
106.9891900154
  0
ARC
  5
31
  8
0
  6
CONTINUOUS
 62
     7
 10
6.9946595391
 20
29.3759803554
 30
0.0
 40
5.875570704134152
 50
139.8319326528
 51
161.7660389322
  0
LINE
  5
32
  8
0
  6
CONTINUOUS
 62
     7
 10
2.5048090304
 20
32.398437964
 30
0.0
 11
2.5048090304
 21
33.1659108968
 31
0.0
  0
LINE
  5
33
  8
0
  6
CONTINUOUS
 62
     7
 10
2.5697299358
 20
32.4740383181
 30
0.0
 11
2.5048090304
 21
32.398437964
 31
0.0
  0
LINE
  5
34
  8
0
  6
CONTINUOUS
 62
     7
 10
2.5697299358
 20
33.241511251
 30
0.0
 11
2.5697299358
 21
32.4740383181
 31
0.0
  0
ARC
  5
35
  8
0
  6
CONTINUOUS
 62
     7
 10
6.9946595391
 20
29.3759803554
 30
0.0
 40
5.875570704134153
 50
109.959120752
 51
138.8601807227
  0
LINE
  5
36
  8
0
  6
CONTINUOUS
 62
     7
 10
4.7044356769
 20
34.2676283728
 30
0.0
 11
4.9890357895
 21
34.8986431619
 31
0.0
  0
LINE
  5
37
  8
0
  6
CONTINUOUS
 62
     7
 10
4.7973912557
 20
34.3005061851
 30
0.0
 11
4.7044356769
 21
34.2676283728
 31
0.0
  0
LINE
  5
38
  8
0
  6
CONTINUOUS
 62
     7
 10
5.0819913683
 20
34.9315209742
 30
0.0
 11
4.7973912557
 21
34.3005061851
 31
0.0
  0
ARC
  5
39
  8
0
  6
CONTINUOUS
 62
     7
 10
6.9946595391
 20
29.3759803554
 30
0.0
 40
5.875570704134152
 50
93.4502917183
 51
108.9976223655
  0
LINE
  5
3A
  8
0
  6
CONTINUOUS
 62
     7
 10
6.3660504747
 20
34.852078998
 30
0.0
 11
6.6410526428
 21
35.2409009228
 31
0.0
  0
LINE
  5
3B
  8
0
  6
CONTINUOUS
 62
     7
 10
6.4251087027
 20
34.8103088722
 30
0.0
 11
6.3660504747
 21
34.852078998
 31
0.0
  0
LINE
  5
3C
  8
0
  6
CONTINUOUS
 62
     7
 10
6.7330654073
 20
35.2457247799
 30
0.0
 11
6.4251087027
 21
34.8103088722
 31
0.0
  0
ARC
  5
3D
  8
0
  6
CONTINUOUS
 62
     7
 10
6.9946595391
 20
29.3759803554
 30
0.0
 40
5.87557070413415
 50
77.5772217901
 51
92.5517854498
  0
LINE
  5
3E
  8
0
  6
CONTINUOUS
 62
     7
 10
7.8386426883
 20
34.6975388884
 30
0.0
 11
8.2586334076
 21
35.1139853361
 31
0.0
  0
LINE
  5
3F
  8
0
  6
CONTINUOUS
 62
     7
 10
7.9449353108
 20
34.6730880417
 30
0.0
 11
7.8386426883
 21
34.6975388884
 31
0.0
  0
LINE
  5
40
  8
0
  6
CONTINUOUS
 62
     7
 10
8.3649260302
 20
35.0895344895
 30
0.0
 11
7.9449353108
 21
34.6730880417
 31
0.0
  0
ARC
  5
41
  8
0
  6
CONTINUOUS
 62
     7
 10
6.9946595391
 20
29.3759803554
 30
0.0
 40
5.875570704134154
 50
70.5329396884
 51
76.5136209796
  0
ARC
  5
42
  8
0
  6
CONTINUOUS
 62
     7
 10
7.446343055
 20
30.9072701383
 30
0.0
 40
4.282122618602922
 50
58.90605364
 51
69.4027339888
  0
LINE
  5
43
  8
0
  6
CONTINUOUS
 62
     7
 10
9.33987018
 20
34.3450937825
 30
0.0
 11
9.6578150289
 21
34.5741448405
 31
0.0
  0
LINE
  5
44
  8
0
  6
CONTINUOUS
 62
     7
 10
9.4047910853
 20
34.2549773359
 30
0.0
 11
9.33987018
 21
34.3450937825
 31
0.0
  0
LINE
  5
45
  8
0
  6
CONTINUOUS
 62
     7
 10
9.76120634
 20
34.5117429085
 30
0.0
 11
9.4047910853
 21
34.2549773359
 31
0.0
  0
ARC
  5
46
  8
0
  6
CONTINUOUS
 62
     7
 10
6.2740174428
 20
28.8918903726
 30
0.0
 40
6.613866082879459
 50
47.3484750761
 51
58.1798811763
  0
LINE
  5
47
  8
0
  6
CONTINUOUS
 62
     7
 10
10.7551587844
 20
33.7563086084
 30
0.0
 11
10.4034616375
 21
33.5722270023
 31
0.0
  0
LINE
  5
48
  8
0
  6
CONTINUOUS
 62
     7
 10
10.4034616375
 20
33.5722270023
 30
0.0
 11
10.5114472212
 21
33.4707328136
 31
0.0
  0
LINE
  5
49
  8
0
  6
CONTINUOUS
 62
     7
 10
10.5114472212
 20
33.4707328136
 30
0.0
 11
10.863144368
 21
33.6548144196
 31
0.0
  0
ARC
  5
4A
  8
0
  6
CONTINUOUS
 62
     7
 10
6.3365816669
 20
28.933832902
 30
0.0
 40
6.540446338330917
 50
34.6978303867
 51
46.204399416
  0
LINE
  5
4B
  8
0
  6
CONTINUOUS
 62
     7
 10
11.7139117291
 20
32.6569717163
 30
0.0
 11
11.7139117291
 21
31.5310524813
 31
0.0
  0
LINE
  5
4C
  8
0
  6
CONTINUOUS
 62
     7
 10
11.5897416455
 20
31.5019872676
 30
0.0
 11
11.7139117291
 21
31.5310524813
 31
0.0
  0
ENDSEC
  0
EOF
