  0
SECTION
  2
HEADER
  9
$ACADVER
  1
AC1009
  9
$DWGCODEPAGE
  3
ansi_1252
  9
$INSBASE
 10
0.0
 20
0.0
 30
0.0
  9
$EXTMIN
 10
0.0
 20
0.0
 30
0.0
  9
$EXTMAX
 10
12.0
 20
12.0
 30
0.0
  9
$LIMMIN
 10
0.0
 20
0.0
  9
$LIMMAX
 10
0.0
 20
0.0
  9
$ORTHOMODE
 70
     0
  9
$REGENMODE
 70
     1
  9
$FILLMODE
 70
     1
  9
$QTEXTMODE
 70
     0
  9
$MIRRTEXT
 70
     1
  9
$DRAGMODE
 70
     2
  9
$LTSCALE
 40
1.0
  9
$OSMODE
 70
    37
  9
$ATTMODE
 70
     1
  9
$TEXTSIZE
 40
0.1377952756
  9
$TRACEWID
 40
0.05
  9
$TEXTSTYLE
  7
STANDARD
  9
$CLAYER
  8
0
  9
$CELTYPE
  6
BYLAYER
  9
$CECOLOR
 62
   256
  9
$DIMSCALE
 40
1.0
  9
$DIMASZ
 40
0.156
  9
$DIMEXO
 40
0.05
  9
$DIMDLI
 40
0.38
  9
$DIMRND
 40
0.0
  9
$DIMDLE
 40
0.0
  9
$DIMEXE
 40
0.125
  9
$DIMTP
 40
0.0
  9
$DIMTM
 40
0.0
  9
$DIMTXT
 40
0.1377952756
  9
$DIMCEN
 40
0.09
  9
$DIMTSZ
 40
0.0
  9
$DIMTOL
 70
     0
  9
$DIMLIM
 70
     0
  9
$DIMTIH
 70
     1
  9
$DIMTOH
 70
     1
  9
$DIMSE1
 70
     0
  9
$DIMSE2
 70
     0
  9
$DIMTAD
 70
     0
  9
$DIMZIN
 70
     0
  9
$DIMBLK
  1

  9
$DIMASO
 70
     1
  9
$DIMSHO
 70
     1
  9
$DIMPOST
  1

  9
$DIMAPOST
  1

  9
$DIMALT
 70
     0
  9
$DIMALTD
 70
     2
  9
$DIMALTF
 40
25.4
  9
$DIMLFAC
 40
2.0
  9
$DIMTOFL
 70
     0
  9
$DIMTVP
 40
0.0
  9
$DIMTIX
 70
     0
  9
$DIMSOXD
 70
     0
  9
$DIMSAH
 70
     0
  9
$DIMBLK1
  1

  9
$DIMBLK2
  1

  9
$DIMSTYLE
  2
STANDARD
  9
$DIMCLRD
 70
     0
  9
$DIMCLRE
 70
     0
  9
$DIMCLRT
 70
     0
  9
$DIMTFAC
 40
1.0
  9
$DIMGAP
 40
0.06
  9
$LUNITS
 70
     2
  9
$LUPREC
 70
     2
  9
$SKETCHINC
 40
0.1
  9
$FILLETRAD
 40
0.5
  9
$AUNITS
 70
     0
  9
$AUPREC
 70
     0
  9
$MENU
  1
.
  9
$ELEVATION
 40
0.0
  9
$PELEVATION
 40
0.0
  9
$THICKNESS
 40
0.0
  9
$LIMCHECK
 70
     0
  9
$CHAMFERA
 40
0.5
  9
$CHAMFERB
 40
0.5
  9
$SKPOLY
 70
     0
  9
$TDCREATE
 40
2454309.056120695
  9
$TDUPDATE
 40
2454309.056120706
  9
$TDINDWG
 40
0.0000000116
  9
$TDUSRTIMER
 40
0.0000000116
  9
$USRTIMER
 70
     1
  9
$ANGBASE
 50
0.0
  9
$ANGDIR
 70
     0
  9
$PDMODE
 70
     0
  9
$PDSIZE
 40
-1.0
  9
$PLINEWID
 40
0.0
  9
$COORDS
 70
     1
  9
$SPLFRAME
 70
     0
  9
$SPLINETYPE
 70
     6
  9
$SPLINESEGS
 70
     8
  9
$ATTDIA
 70
     0
  9
$ATTREQ
 70
     1
  9
$HANDLING
 70
     1
  9
$HANDSEED
  5
57
  9
$SURFTAB1
 70
     6
  9
$SURFTAB2
 70
     6
  9
$SURFTYPE
 70
     6
  9
$SURFU
 70
     6
  9
$SURFV
 70
     6
  9
$UCSNAME
  2

  9
$UCSORG
 10
0.0
 20
0.0
 30
0.0
  9
$UCSXDIR
 10
1.0
 20
0.0
 30
0.0
  9
$UCSYDIR
 10
0.0
 20
1.0
 30
0.0
  9
$PUCSNAME
  2

  9
$PUCSORG
 10
0.0
 20
0.0
 30
0.0
  9
$PUCSXDIR
 10
1.0
 20
0.0
 30
0.0
  9
$PUCSYDIR
 10
0.0
 20
1.0
 30
0.0
  9
$USERI1
 70
     0
  9
$USERI2
 70
     0
  9
$USERI3
 70
     0
  9
$USERI4
 70
     0
  9
$USERI5
 70
     0
  9
$USERR1
 40
0.0
  9
$USERR2
 40
0.0
  9
$USERR3
 40
0.0
  9
$USERR4
 40
0.0
  9
$USERR5
 40
0.0
  9
$WORLDVIEW
 70
     1
  9
$SHADEDGE
 70
     3
  9
$SHADEDIF
 70
    70
  9
$TILEMODE
 70
     1
  9
$MAXACTVP
 70
    64
  9
$PLIMCHECK
 70
     0
  9
$PEXTMIN
 10
1.0000000000E+20
 20
1.0000000000E+20
 30
1.0000000000E+20
  9
$PEXTMAX
 10
-1.0000000000E+20
 20
-1.0000000000E+20
 30
-1.0000000000E+20
  9
$PLIMMIN
 10
0.0
 20
0.0
  9
$PLIMMAX
 10
12.0
 20
9.0
  9
$UNITMODE
 70
     0
  9
$VISRETAIN
 70
     1
  9
$PLINEGEN
 70
     0
  9
$PSLTSCALE
 70
     1
  0
ENDSEC
  0
SECTION
  2
TABLES
  0
TABLE
  2
VPORT
 70
     1
  0
VPORT
  2
*ACTIVE
 70
     0
 10
0.0
 20
0.0
 11
1.0
 21
1.0
 12
6.0
 22
6.0
 13
0.0
 23
0.0
 14
0.5
 24
0.5
 15
0.5
 25
0.5
 16
0.0
 26
0.0
 36
1.0
 17
0.0
 27
0.0
 37
0.0
 40
12.0
 41
1.0
 42
50.0
 43
0.0
 44
0.0
 50
0.0
 51
0.0
 71
     0
 72
  2000
 73
     1
 74
     3
 75
     0
 76
     0
 77
     0
 78
     0
  0
ENDTAB
  0
TABLE
  2
LTYPE
 70
     6
  0
LTYPE
  2
CONTINUOUS
 70
     0
  3
Solid line
 72
    65
 73
     0
 40
0.0
  0
LTYPE
  2
HIDDEN
 70
     0
  3
Hidden __ __ __ __ __ __ __ __ __ __ __ __ __ __
 72
    65
 73
     2
 40
0.075
 49
0.05
 49
-0.025
  0
LTYPE
  2
PHANTOM
 70
     0
  3
Phantom ______  __  __  ______  __  __  ______
 72
    65
 73
     6
 40
0.5
 49
0.25
 49
-0.05
 49
0.05
 49
-0.05
 49
0.05
 49
-0.05
  0
LTYPE
  2
CENTER
 70
     0
  3
Center ____ _ ____ _ ____ _ ____ _ ____ _ ____
 72
    65
 73
     4
 40
0.4
 49
0.25
 49
-0.05
 49
0.05
 49
-0.05
  0
LTYPE
  2
CENTERX2
 70
     0
  3
Center (2x) ________  __  ________  __  _____
 72
    65
 73
     4
 40
0.8
 49
0.5
 49
-0.1
 49
0.1
 49
-0.1
  0
LTYPE
  2
DOT2
 70
     0
  3
Dot (.5x) ........................................
 72
    65
 73
     2
 40
0.025
 49
0.0
 49
-0.025
  0
ENDTAB
  0
TABLE
  2
LAYER
 70
     1
  0
LAYER
  2
0
 70
     0
 62
     7
  6
CONTINUOUS
  0
ENDTAB
  0
TABLE
  2
STYLE
 70
     1
  0
STYLE
  2
STANDARD
 70
     0
 40
0.0
 41
1.0
 50
0.0
 71
     0
 42
0.2
  3
txt
  4

  0
ENDTAB
  0
TABLE
  2
VIEW
 70
     0
  0
ENDTAB
  0
TABLE
  2
UCS
 70
     0
  0
ENDTAB
  0
TABLE
  2
APPID
 70
     1
  0
APPID
  2
ACAD
 70
     0
  0
ENDTAB
  0
TABLE
  2
DIMSTYLE
 70
     1
  0
DIMSTYLE
  2
STANDARD
 70
     0
  3

  4

  5

  6

  7

 40
1.0
 41
0.18
 42
0.0625
 43
0.38
 44
0.18
 45
0.0
 46
0.0
 47
0.0
 48
0.0
140
0.18
141
0.09
142
0.0
143
25.4
144
1.0
145
0.0
146
1.0
147
0.09
 71
     0
 72
     0
 73
     1
 74
     1
 75
     0
 76
     0
 77
     0
 78
     0
170
     0
171
     2
172
     0
173
     0
174
     0
175
     0
176
     0
177
     0
178
     0
  0
ENDTAB
  0
ENDSEC
  0
SECTION
  2
BLOCKS
  0
BLOCK
  8
0
  2
$MODEL_SPACE
 70
     0
 10
0.0
 20
0.0
 30
0.0
  3
$MODEL_SPACE
  1

  0
ENDBLK
  5
21
  8
0
  0
BLOCK
 67
     1
  8
0
  2
$PAPER_SPACE
 70
     0
 10
0.0
 20
0.0
 30
0.0
  3
$PAPER_SPACE
  1

  0
ENDBLK
  5
1D
 67
     1
  8
0
  0
ENDSEC
  0
SECTION
  2
ENTITIES
  0
ARC
  5
2F
  8
0
  6
CONTINUOUS
 62
     7
 10
2.4919776595
 20
10.0438051578
 30
0.0
 40
0.1874999999999998
 50
0.0
 51
53.7775562232
  0
ARC
  5
30
  8
0
  6
CONTINUOUS
 62
     7
 10
1.2362689981
 20
10.0438051578
 30
0.0
 40
0.1875000000000011
 50
126.2224437768
 51
180.0
  0
ARC
  5
31
  8
0
  6
CONTINUOUS
 62
     7
 10
0.4360671822
 20
10.5687846804
 30
0.0
 40
0.1875000000000008
 50
145.0
 51
208.8144807277
  0
ARC
  5
32
  8
0
  6
CONTINUOUS
 62
     7
 10
1.1219261687
 20
11.5482928248
 30
0.0
 40
0.1875000000000007
 50
55.0
 51
145.0
  0
ARC
  5
33
  8
0
  6
CONTINUOUS
 62
     7
 10
2.7904028564
 20
10.3800128708
 30
0.0
 40
0.1875
 50
0.0
 51
55.0
  0
ARC
  5
34
  8
0
  6
CONTINUOUS
 62
     7
 10
0.8995563997
 20
10.0841246015
 30
0.0
 40
0.049212598425197
 50
0.0
 51
180.0
  0
LINE
  5
35
  8
0
  6
CONTINUOUS
 62
     7
 10
0.8503438013
 20
10.0841246015
 30
0.0
 11
0.8503438013
 21
9.6841246015
 31
0.0
  0
ARC
  5
36
  8
0
  6
CONTINUOUS
 62
     7
 10
0.8995563997
 20
9.6841246015
 30
0.0
 40
0.049212598425197
 50
180.0
 51
0.0
  0
LINE
  5
37
  8
0
  6
CONTINUOUS
 62
     7
 10
0.9487689981
 20
9.6841246015
 30
0.0
 11
0.9487689981
 21
10.0841246015
 31
0.0
  0
ARC
  5
38
  8
0
  6
CONTINUOUS
 62
     7
 10
1.8641233288
 20
11.0486915306
 30
0.0
 40
0.049212598425197
 50
0.0
 51
180.0
  0
LINE
  5
39
  8
0
  6
CONTINUOUS
 62
     7
 10
1.8149107304
 20
11.0486915306
 30
0.0
 11
1.8149107304
 21
10.6486915306
 31
0.0
  0
ARC
  5
3A
  8
0
  6
CONTINUOUS
 62
     7
 10
1.8641233288
 20
10.6486915306
 30
0.0
 40
0.049212598425197
 50
180.0
 51
0.0
  0
LINE
  5
3B
  8
0
  6
CONTINUOUS
 62
     7
 10
1.9133359273
 20
10.6486915306
 30
0.0
 11
1.9133359273
 21
11.0486915306
 31
0.0
  0
ARC
  5
3C
  8
0
  6
CONTINUOUS
 62
     7
 10
2.828690258
 20
10.0841246015
 30
0.0
 40
0.0492125984251972
 50
0.0
 51
180.0
  0
LINE
  5
3D
  8
0
  6
CONTINUOUS
 62
     7
 10
2.7794776595
 20
10.0841246015
 30
0.0
 11
2.7794776595
 21
9.6841246015
 31
0.0
  0
ARC
  5
3E
  8
0
  6
CONTINUOUS
 62
     7
 10
2.828690258
 20
9.6841246015
 30
0.0
 40
0.0492125984251972
 50
180.0
 51
0.0
  0
LINE
  5
3F
  8
0
  6
CONTINUOUS
 62
     7
 10
2.8779028564
 20
9.6841246015
 30
0.0
 11
2.8779028564
 21
10.0841246015
 31
0.0
  0
LINE
  5
40
  8
0
  6
CONTINUOUS
 62
     7
 10
1.0487689981
 20
9.6341246015
 30
0.0
 11
1.0487689981
 21
10.0438051578
 31
0.0
  0
ARC
  5
41
  8
0
  6
CONTINUOUS
 62
     7
 10
0.9487689981
 20
9.6341246015
 30
0.0
 40
0.1000000000000014
 50
270.0
 51
0.0
  0
LINE
  5
42
  8
0
  6
CONTINUOUS
 62
     7
 10
0.8503438013
 20
9.5341246015
 30
0.0
 11
0.9487689981
 21
9.5341246015
 31
0.0
  0
ARC
  5
43
  8
0
  6
CONTINUOUS
 62
     7
 10
0.8503438013
 20
9.6341246015
 30
0.0
 40
0.1000000000000014
 50
208.8144807277
 51
270.0
  0
LINE
  5
44
  8
0
  6
CONTINUOUS
 62
     7
 10
0.2717825144
 20
10.4784143429
 30
0.0
 11
0.7627253117
 21
9.5859270882
 31
0.0
  0
LINE
  5
45
  8
0
  6
CONTINUOUS
 62
     7
 10
0.5023043059
 20
10.9902773707
 30
0.0
 11
0.2824761739
 21
10.6763302622
 31
0.0
  0
LINE
  5
46
  8
0
  6
CONTINUOUS
 62
     7
 10
0.7070923169
 20
10.8468832616
 30
0.0
 11
0.5023043059
 21
10.9902773707
 31
0.0
  0
ARC
  5
47
  8
0
  6
CONTINUOUS
 62
     7
 10
0.850486426
 20
11.0516712726
 30
0.0
 40
0.2499999999999996
 50
235.0
 51
55.0
  0
LINE
  5
48
  8
0
  6
CONTINUOUS
 62
     7
 10
0.789092524
 20
11.3998533928
 30
0.0
 11
0.9938805351
 21
11.2564592837
 31
0.0
  0
LINE
  5
49
  8
0
  6
CONTINUOUS
 62
     7
 10
0.9683351604
 20
11.6558384066
 30
0.0
 11
0.789092524
 21
11.3998533928
 31
0.0
  0
LINE
  5
4A
  8
0
  6
CONTINUOUS
 62
     7
 10
2.8979484382
 20
10.5336038791
 30
0.0
 11
1.2294717505
 21
11.7018838331
 31
0.0
  0
LINE
  5
4B
  8
0
  6
CONTINUOUS
 62
     7
 10
2.9779028564
 20
9.6341246015
 30
0.0
 11
2.9779028564
 21
10.3800128708
 31
0.0
  0
ARC
  5
4C
  8
0
  6
CONTINUOUS
 62
     7
 10
2.8779028564
 20
9.6341246015
 30
0.0
 40
0.1000000000000014
 50
270.0
 51
0.0
  0
LINE
  5
4D
  8
0
  6
CONTINUOUS
 62
     7
 10
2.7794776595
 20
9.5341246015
 30
0.0
 11
2.8779028564
 21
9.5341246015
 31
0.0
  0
ARC
  5
4E
  8
0
  6
CONTINUOUS
 62
     7
 10
2.7794776595
 20
9.6341246015
 30
0.0
 40
0.1000000000000014
 50
180.0
 51
270.0
  0
LINE
  5
4F
  8
0
  6
CONTINUOUS
 62
     7
 10
2.6794776595
 20
10.0438051578
 30
0.0
 11
2.6794776595
 21
9.6341246015
 31
0.0
  0
ARC
  5
50
  8
0
  6
CONTINUOUS
 62
     7
 10
1.8641233288
 20
9.1866557021
 30
0.0
 40
1.250000000000001
 50
53.7775562232
 51
126.2224437768
  0
ENDSEC
  0
EOF
