  0
SECTION
  2
HEADER
  9
$ACADVER
  1
AC1009
  9
$DWGCODEPAGE
  3
ansi_1252
  9
$INSBASE
 10
0.0
 20
0.0
 30
0.0
  9
$EXTMIN
 10
0.0
 20
0.0
 30
0.0
  9
$EXTMAX
 10
12.0
 20
14.0
 30
0.0
  9
$LIMMIN
 10
0.0
 20
0.0
  9
$LIMMAX
 10
0.0
 20
0.0
  9
$ORTHOMODE
 70
     0
  9
$REGENMODE
 70
     1
  9
$FILLMODE
 70
     1
  9
$QTEXTMODE
 70
     0
  9
$MIRRTEXT
 70
     1
  9
$DRAGMODE
 70
     2
  9
$LTSCALE
 40
1.0
  9
$OSMODE
 70
    37
  9
$ATTMODE
 70
     1
  9
$TEXTSIZE
 40
0.1377952756
  9
$TRACEWID
 40
0.05
  9
$TEXTSTYLE
  7
STANDARD
  9
$CLAYER
  8
0
  9
$CELTYPE
  6
BYLAYER
  9
$CECOLOR
 62
   256
  9
$DIMSCALE
 40
1.0
  9
$DIMASZ
 40
0.156
  9
$DIMEXO
 40
0.05
  9
$DIMDLI
 40
0.38
  9
$DIMRND
 40
0.0
  9
$DIMDLE
 40
0.0
  9
$DIMEXE
 40
0.125
  9
$DIMTP
 40
0.0
  9
$DIMTM
 40
0.0
  9
$DIMTXT
 40
0.1377952756
  9
$DIMCEN
 40
0.09
  9
$DIMTSZ
 40
0.0
  9
$DIMTOL
 70
     0
  9
$DIMLIM
 70
     0
  9
$DIMTIH
 70
     1
  9
$DIMTOH
 70
     1
  9
$DIMSE1
 70
     0
  9
$DIMSE2
 70
     0
  9
$DIMTAD
 70
     0
  9
$DIMZIN
 70
     0
  9
$DIMBLK
  1

  9
$DIMASO
 70
     1
  9
$DIMSHO
 70
     1
  9
$DIMPOST
  1

  9
$DIMAPOST
  1

  9
$DIMALT
 70
     0
  9
$DIMALTD
 70
     2
  9
$DIMALTF
 40
25.4
  9
$DIMLFAC
 40
1.0
  9
$DIMTOFL
 70
     0
  9
$DIMTVP
 40
0.0
  9
$DIMTIX
 70
     0
  9
$DIMSOXD
 70
     0
  9
$DIMSAH
 70
     0
  9
$DIMBLK1
  1

  9
$DIMBLK2
  1

  9
$DIMSTYLE
  2
STANDARD
  9
$DIMCLRD
 70
     0
  9
$DIMCLRE
 70
     0
  9
$DIMCLRT
 70
     0
  9
$DIMTFAC
 40
1.0
  9
$DIMGAP
 40
0.06
  9
$LUNITS
 70
     2
  9
$LUPREC
 70
     2
  9
$SKETCHINC
 40
0.1
  9
$FILLETRAD
 40
0.5
  9
$AUNITS
 70
     0
  9
$AUPREC
 70
     0
  9
$MENU
  1
.
  9
$ELEVATION
 40
0.0
  9
$PELEVATION
 40
0.0
  9
$THICKNESS
 40
0.0
  9
$LIMCHECK
 70
     0
  9
$CHAMFERA
 40
0.5
  9
$CHAMFERB
 40
0.5
  9
$SKPOLY
 70
     0
  9
$TDCREATE
 40
2454314.86534559
  9
$TDUPDATE
 40
2454314.865345602
  9
$TDINDWG
 40
0.0000000116
  9
$TDUSRTIMER
 40
0.0000000116
  9
$USRTIMER
 70
     1
  9
$ANGBASE
 50
0.0
  9
$ANGDIR
 70
     0
  9
$PDMODE
 70
     0
  9
$PDSIZE
 40
-1.0
  9
$PLINEWID
 40
0.0
  9
$COORDS
 70
     1
  9
$SPLFRAME
 70
     0
  9
$SPLINETYPE
 70
     6
  9
$SPLINESEGS
 70
     8
  9
$ATTDIA
 70
     0
  9
$ATTREQ
 70
     1
  9
$HANDLING
 70
     1
  9
$HANDSEED
  5
145
  9
$SURFTAB1
 70
     6
  9
$SURFTAB2
 70
     6
  9
$SURFTYPE
 70
     6
  9
$SURFU
 70
     6
  9
$SURFV
 70
     6
  9
$UCSNAME
  2

  9
$UCSORG
 10
0.0
 20
0.0
 30
0.0
  9
$UCSXDIR
 10
1.0
 20
0.0
 30
0.0
  9
$UCSYDIR
 10
0.0
 20
1.0
 30
0.0
  9
$PUCSNAME
  2

  9
$PUCSORG
 10
0.0
 20
0.0
 30
0.0
  9
$PUCSXDIR
 10
1.0
 20
0.0
 30
0.0
  9
$PUCSYDIR
 10
0.0
 20
1.0
 30
0.0
  9
$USERI1
 70
     0
  9
$USERI2
 70
     0
  9
$USERI3
 70
     0
  9
$USERI4
 70
     0
  9
$USERI5
 70
     0
  9
$USERR1
 40
0.0
  9
$USERR2
 40
0.0
  9
$USERR3
 40
0.0
  9
$USERR4
 40
0.0
  9
$USERR5
 40
0.0
  9
$WORLDVIEW
 70
     1
  9
$SHADEDGE
 70
     3
  9
$SHADEDIF
 70
    70
  9
$TILEMODE
 70
     1
  9
$MAXACTVP
 70
    64
  9
$PLIMCHECK
 70
     0
  9
$PEXTMIN
 10
1.0000000000E+20
 20
1.0000000000E+20
 30
1.0000000000E+20
  9
$PEXTMAX
 10
-1.0000000000E+20
 20
-1.0000000000E+20
 30
-1.0000000000E+20
  9
$PLIMMIN
 10
0.0
 20
0.0
  9
$PLIMMAX
 10
12.0
 20
9.0
  9
$UNITMODE
 70
     0
  9
$VISRETAIN
 70
     1
  9
$PLINEGEN
 70
     0
  9
$PSLTSCALE
 70
     1
  0
ENDSEC
  0
SECTION
  2
TABLES
  0
TABLE
  2
VPORT
 70
     1
  0
VPORT
  2
*ACTIVE
 70
     0
 10
0.0
 20
0.0
 11
1.0
 21
1.0
 12
6.0
 22
7.0
 13
0.0
 23
0.0
 14
0.5
 24
0.5
 15
0.5
 25
0.5
 16
0.0
 26
0.0
 36
1.0
 17
0.0
 27
0.0
 37
0.0
 40
14.0
 41
0.8571428571
 42
50.0
 43
0.0
 44
0.0
 50
0.0
 51
0.0
 71
     0
 72
  2000
 73
     1
 74
     3
 75
     0
 76
     0
 77
     0
 78
     0
  0
ENDTAB
  0
TABLE
  2
LTYPE
 70
     6
  0
LTYPE
  2
CONTINUOUS
 70
     0
  3
Solid line
 72
    65
 73
     0
 40
0.0
  0
LTYPE
  2
HIDDEN
 70
     0
  3
Hidden __ __ __ __ __ __ __ __ __ __ __ __ __ __
 72
    65
 73
     2
 40
0.075
 49
0.05
 49
-0.025
  0
LTYPE
  2
PHANTOM
 70
     0
  3
Phantom ______  __  __  ______  __  __  ______
 72
    65
 73
     6
 40
0.5
 49
0.25
 49
-0.05
 49
0.05
 49
-0.05
 49
0.05
 49
-0.05
  0
LTYPE
  2
CENTER
 70
     0
  3
Center ____ _ ____ _ ____ _ ____ _ ____ _ ____
 72
    65
 73
     4
 40
0.4
 49
0.25
 49
-0.05
 49
0.05
 49
-0.05
  0
LTYPE
  2
CENTERX2
 70
     0
  3
Center (2x) ________  __  ________  __  _____
 72
    65
 73
     4
 40
0.8
 49
0.5
 49
-0.1
 49
0.1
 49
-0.1
  0
LTYPE
  2
DOT2
 70
     0
  3
Dot (.5x) ........................................
 72
    65
 73
     2
 40
0.025
 49
0.0
 49
-0.025
  0
ENDTAB
  0
TABLE
  2
LAYER
 70
     1
  0
LAYER
  2
0
 70
     0
 62
     7
  6
CONTINUOUS
  0
ENDTAB
  0
TABLE
  2
STYLE
 70
     1
  0
STYLE
  2
STANDARD
 70
     0
 40
0.0
 41
1.0
 50
0.0
 71
     0
 42
0.2
  3
txt
  4

  0
ENDTAB
  0
TABLE
  2
VIEW
 70
     0
  0
ENDTAB
  0
TABLE
  2
UCS
 70
     0
  0
ENDTAB
  0
TABLE
  2
APPID
 70
     1
  0
APPID
  2
ACAD
 70
     0
  0
ENDTAB
  0
TABLE
  2
DIMSTYLE
 70
     1
  0
DIMSTYLE
  2
STANDARD
 70
     0
  3

  4

  5

  6

  7

 40
1.0
 41
0.18
 42
0.0625
 43
0.38
 44
0.18
 45
0.0
 46
0.0
 47
0.0
 48
0.0
140
0.18
141
0.09
142
0.0
143
25.4
144
1.0
145
0.0
146
1.0
147
0.09
 71
     0
 72
     0
 73
     1
 74
     1
 75
     0
 76
     0
 77
     0
 78
     0
170
     0
171
     2
172
     0
173
     0
174
     0
175
     0
176
     0
177
     0
178
     0
  0
ENDTAB
  0
ENDSEC
  0
SECTION
  2
BLOCKS
  0
BLOCK
  8
0
  2
$MODEL_SPACE
 70
     0
 10
0.0
 20
0.0
 30
0.0
  3
$MODEL_SPACE
  1

  0
ENDBLK
  5
21
  8
0
  0
BLOCK
 67
     1
  8
0
  2
$PAPER_SPACE
 70
     0
 10
0.0
 20
0.0
 30
0.0
  3
$PAPER_SPACE
  1

  0
ENDBLK
  5
1D
 67
     1
  8
0
  0
ENDSEC
  0
SECTION
  2
ENTITIES
  0
ARC
  5
2F
  8
0
  6
CONTINUOUS
 62
     7
 10
1.7616118605
 20
12.4042071592
 30
0.0
 40
0.3750000000000001
 50
125.0
 51
178.7775562232
  0
ARC
  5
30
  8
0
  6
CONTINUOUS
 62
     7
 10
3.2021016587
 20
10.3469745251
 30
0.0
 40
0.3749999999999996
 50
251.2224437768
 51
305.0
  0
ARC
  5
31
  8
0
  6
CONTINUOUS
 62
     7
 10
3.2599793722
 20
8.433768851
 30
0.0
 40
0.375
 50
270.0
 51
333.8144807277
  0
ARC
  5
32
  8
0
  6
CONTINUOUS
 62
     7
 10
0.8684620678
 20
8.433768851
 30
0.0
 40
0.375
 50
180.0
 51
270.0
  0
ARC
  5
33
  8
0
  6
CONTINUOUS
 62
     7
 10
0.8684620678
 20
12.5074367355
 30
0.0
 40
0.3750000000000014
 50
125.0
 51
180.0
  0
ARC
  5
34
  8
0
  6
CONTINUOUS
 62
     7
 10
3.5223069738
 20
9.7490843327
 30
0.0
 40
0.0850000000000002
 50
125.0
 51
305.0
  0
LINE
  5
35
  8
0
  6
CONTINUOUS
 62
     7
 10
3.5710609708
 20
9.679456409
 30
0.0
 11
4.2263826063
 21
10.138317558
 31
0.0
  0
ARC
  5
36
  8
0
  6
CONTINUOUS
 62
     7
 10
4.1776286092
 20
10.2079454818
 30
0.0
 40
0.0850000000000017
 50
305.0
 51
125.0
  0
LINE
  5
37
  8
0
  6
CONTINUOUS
 62
     7
 10
4.1288746121
 20
10.2775734056
 30
0.0
 11
3.4735529767
 21
9.8187122565
 31
0.0
  0
ARC
  5
38
  8
0
  6
CONTINUOUS
 62
     7
 10
0.8355473064
 20
10.2228325528
 30
0.0
 40
0.0850000000000015
 50
125.0
 51
305.0
  0
LINE
  5
39
  8
0
  6
CONTINUOUS
 62
     7
 10
0.8843013035
 20
10.153204629
 30
0.0
 11
1.5396229389
 21
10.6120657781
 31
0.0
  0
ARC
  5
3A
  8
0
  6
CONTINUOUS
 62
     7
 10
1.4908689418
 20
10.6816937018
 30
0.0
 40
0.0850000000000001
 50
305.0
 51
125.0
  0
LINE
  5
3B
  8
0
  6
CONTINUOUS
 62
     7
 10
1.4421149447
 20
10.7513216256
 30
0.0
 11
0.7867933093
 21
10.2924604765
 31
0.0
  0
ARC
  5
3C
  8
0
  6
CONTINUOUS
 62
     7
 10
1.3092955264
 20
12.9095922201
 30
0.0
 40
0.0850000000000017
 50
125.0
 51
305.0
  0
LINE
  5
3D
  8
0
  6
CONTINUOUS
 62
     7
 10
1.3580495235
 20
12.8399642964
 30
0.0
 11
2.0133711589
 21
13.2988254454
 31
0.0
  0
ARC
  5
3E
  8
0
  6
CONTINUOUS
 62
     7
 10
1.9646171618
 20
13.3684533692
 30
0.0
 40
0.085
 50
305.0
 51
125.0
  0
LINE
  5
3F
  8
0
  6
CONTINUOUS
 62
     7
 10
1.9158631648
 20
13.438081293
 30
0.0
 11
1.2605415293
 21
12.9792201439
 31
0.0
  0
LINE
  5
40
  8
0
  6
CONTINUOUS
 62
     7
 10
4.0883741527
 20
10.5097587355
 30
0.0
 11
3.4171928223
 21
10.0397925085
 31
0.0
  0
ARC
  5
41
  8
0
  6
CONTINUOUS
 62
     7
 10
4.20308944
 20
10.3459283266
 30
0.0
 40
0.2000000000000002
 50
35.0
 51
125.0
  0
LINE
  5
42
  8
0
  6
CONTINUOUS
 62
     7
 10
4.4798285961
 20
10.2993932115
 30
0.0
 11
4.3669198488
 21
10.4606436139
 31
0.0
  0
ARC
  5
43
  8
0
  6
CONTINUOUS
 62
     7
 10
4.3159981873
 20
10.1846779242
 30
0.0
 40
0.2000000000000019
 50
333.8144807277
 51
35.0
  0
LINE
  5
44
  8
0
  6
CONTINUOUS
 62
     7
 10
3.5964930943
 20
8.2682892001
 30
0.0
 11
4.4954721724
 21
10.0964221104
 31
0.0
  0
LINE
  5
45
  8
0
  6
CONTINUOUS
 62
     7
 10
2.4934620315
 20
8.0587688129
 30
0.0
 11
3.2599793722
 21
8.058768851
 31
0.0
  0
LINE
  5
46
  8
0
  6
CONTINUOUS
 62
     7
 10
2.4934620678
 20
8.558768851
 30
0.0
 11
2.4934620315
 21
8.0587688129
 31
0.0
  0
ARC
  5
47
  8
0
  6
CONTINUOUS
 62
     7
 10
1.9934620678
 20
8.558768851
 30
0.0
 40
0.5000000000000004
 50
0.0
 51
180.0
  0
LINE
  5
48
  8
0
  6
CONTINUOUS
 62
     7
 10
1.4934620098
 20
8.058768868
 30
0.0
 11
1.4934620678
 21
8.558768851
 31
0.0
  0
LINE
  5
49
  8
0
  6
CONTINUOUS
 62
     7
 10
0.8684620678
 20
8.058768851
 30
0.0
 11
1.4934620098
 21
8.058768868
 31
0.0
  0
LINE
  5
4A
  8
0
  6
CONTINUOUS
 62
     7
 10
0.4934620678
 20
12.5074367355
 30
0.0
 11
0.4934620678
 21
8.433768851
 31
0.0
  0
LINE
  5
4B
  8
0
  6
CONTINUOUS
 62
     7
 10
1.8753627053
 20
13.6702666229
 30
0.0
 11
0.6533709042
 21
12.8146187521
 31
0.0
  0
ARC
  5
4C
  8
0
  6
CONTINUOUS
 62
     7
 10
1.9900779926
 20
13.5064362141
 30
0.0
 40
0.2000000000000004
 50
35.0
 51
125.0
  0
LINE
  5
4D
  8
0
  6
CONTINUOUS
 62
     7
 10
2.2668171488
 20
13.4599010989
 30
0.0
 11
2.1539084015
 21
13.6211515013
 31
0.0
  0
ARC
  5
4E
  8
0
  6
CONTINUOUS
 62
     7
 10
2.1029867399
 20
13.3451858116
 30
0.0
 40
0.2000000000000008
 50
305.0
 51
35.0
  0
LINE
  5
4F
  8
0
  6
CONTINUOUS
 62
     7
 10
1.5465206969
 20
12.7113891758
 30
0.0
 11
2.2177020272
 21
13.1813554028
 31
0.0
  0
ARC
  5
50
  8
0
  6
CONTINUOUS
 62
     7
 10
3.8861282174
 20
12.3588723026
 30
0.0
 40
2.5
 50
178.7775562232
 51
251.2224437768
  0
ARC
  5
51
  8
0
  6
CONTINUOUS
 62
     7
 10
4.5394623548
 20
9.1513545691
 30
0.0
 40
0.3749999999999993
 50
305.0
 51
358.7775562232
  0
ARC
  5
52
  8
0
  6
CONTINUOUS
 62
     7
 10
3.0989725566
 20
11.2085872031
 30
0.0
 40
0.3749999999999998
 50
71.2224437768
 51
125.0
  0
ARC
  5
53
  8
0
  6
CONTINUOUS
 62
     7
 10
3.0410948431
 20
13.1217928773
 30
0.0
 40
0.3750000000000004
 50
90.0
 51
153.8144807277
  0
ARC
  5
54
  8
0
  6
CONTINUOUS
 62
     7
 10
5.4326121475
 20
13.1217928773
 30
0.0
 40
0.375
 50
0.0
 51
90.0
  0
ARC
  5
55
  8
0
  6
CONTINUOUS
 62
     7
 10
5.4326121475
 20
9.0481249928
 30
0.0
 40
0.3749999999999993
 50
305.0
 51
0.0
  0
ARC
  5
56
  8
0
  6
CONTINUOUS
 62
     7
 10
2.7787672415
 20
11.8064773955
 30
0.0
 40
0.0850000000000022
 50
305.0
 51
125.0
  0
LINE
  5
57
  8
0
  6
CONTINUOUS
 62
     7
 10
2.7300132445
 20
11.8761053193
 30
0.0
 11
2.074691609
 21
11.4172441702
 31
0.0
  0
ARC
  5
58
  8
0
  6
CONTINUOUS
 62
     7
 10
2.1234456061
 20
11.3476162464
 30
0.0
 40
0.0850000000000019
 50
125.0
 51
305.0
  0
LINE
  5
59
  8
0
  6
CONTINUOUS
 62
     7
 10
2.1721996032
 20
11.2779883227
 30
0.0
 11
2.8275212386
 21
11.7368494718
 31
0.0
  0
ARC
  5
5A
  8
0
  6
CONTINUOUS
 62
     7
 10
5.4655269089
 20
11.3327291755
 30
0.0
 40
0.0850000000000002
 50
305.0
 51
125.0
  0
LINE
  5
5B
  8
0
  6
CONTINUOUS
 62
     7
 10
5.4167729118
 20
11.4023570992
 30
0.0
 11
4.7614512764
 21
10.9434959502
 31
0.0
  0
ARC
  5
5C
  8
0
  6
CONTINUOUS
 62
     7
 10
4.8102052735
 20
10.8738680264
 30
0.0
 40
0.0850000000000002
 50
125.0
 51
305.0
  0
LINE
  5
5D
  8
0
  6
CONTINUOUS
 62
     7
 10
4.8589592706
 20
10.8042401026
 30
0.0
 11
5.514280906
 21
11.2631012517
 31
0.0
  0
ARC
  5
5E
  8
0
  6
CONTINUOUS
 62
     7
 10
4.9917786889
 20
8.6459695081
 30
0.0
 40
0.0850000000000007
 50
305.0
 51
125.0
  0
LINE
  5
5F
  8
0
  6
CONTINUOUS
 62
     7
 10
4.9430246918
 20
8.7155974319
 30
0.0
 11
4.2877030564
 21
8.2567362828
 31
0.0
  0
ARC
  5
60
  8
0
  6
CONTINUOUS
 62
     7
 10
4.3364570535
 20
8.187108359
 30
0.0
 40
0.0850000000000007
 50
125.0
 51
305.0
  0
LINE
  5
61
  8
0
  6
CONTINUOUS
 62
     7
 10
4.3852110505
 20
8.1174804353
 30
0.0
 11
5.040532686
 21
8.5763415843
 31
0.0
  0
LINE
  5
62
  8
0
  6
CONTINUOUS
 62
     7
 10
2.2127000626
 20
11.0458029927
 30
0.0
 11
2.883881393
 21
11.5157692198
 31
0.0
  0
ARC
  5
63
  8
0
  6
CONTINUOUS
 62
     7
 10
2.0979847753
 20
11.2096334016
 30
0.0
 40
0.2000000000000011
 50
215.0
 51
305.0
  0
LINE
  5
64
  8
0
  6
CONTINUOUS
 62
     7
 10
1.8212456192
 20
11.2561685167
 30
0.0
 11
1.9341543665
 21
11.0949181143
 31
0.0
  0
ARC
  5
65
  8
0
  6
CONTINUOUS
 62
     7
 10
1.985076028
 20
11.370883804
 30
0.0
 40
0.2000000000000005
 50
153.8144807277
 51
215.0
  0
LINE
  5
66
  8
0
  6
CONTINUOUS
 62
     7
 10
2.704581121
 20
13.2872725281
 30
0.0
 11
1.8056020429
 21
11.4591396178
 31
0.0
  0
LINE
  5
67
  8
0
  6
CONTINUOUS
 62
     7
 10
3.8076121838
 20
13.4967929154
 30
0.0
 11
3.0410948431
 21
13.4967928773
 31
0.0
  0
LINE
  5
68
  8
0
  6
CONTINUOUS
 62
     7
 10
3.8076121475
 20
12.9967928773
 30
0.0
 11
3.8076121838
 21
13.4967929154
 31
0.0
  0
ARC
  5
69
  8
0
  6
CONTINUOUS
 62
     7
 10
4.3076121475
 20
12.9967928773
 30
0.0
 40
0.5
 50
180.0
 51
0.0
  0
LINE
  5
6A
  8
0
  6
CONTINUOUS
 62
     7
 10
4.8076122055
 20
13.4967928602
 30
0.0
 11
4.8076121475
 21
12.9967928773
 31
0.0
  0
LINE
  5
6B
  8
0
  6
CONTINUOUS
 62
     7
 10
5.4326121475
 20
13.4967928773
 30
0.0
 11
4.8076122055
 21
13.4967928602
 31
0.0
  0
LINE
  5
6C
  8
0
  6
CONTINUOUS
 62
     7
 10
5.8076121475
 20
9.0481249928
 30
0.0
 11
5.8076121475
 21
13.1217928773
 31
0.0
  0
LINE
  5
6D
  8
0
  6
CONTINUOUS
 62
     7
 10
4.42571151
 20
7.8852951053
 30
0.0
 11
5.6477033111
 21
8.7409429761
 31
0.0
  0
ARC
  5
6E
  8
0
  6
CONTINUOUS
 62
     7
 10
4.3109962227
 20
8.0491255142
 30
0.0
 40
0.2
 50
215.0
 51
305.0
  0
LINE
  5
6F
  8
0
  6
CONTINUOUS
 62
     7
 10
4.0342570665
 20
8.0956606293
 30
0.0
 11
4.1471658138
 21
7.9344102269
 31
0.0
  0
ARC
  5
70
  8
0
  6
CONTINUOUS
 62
     7
 10
4.1980874754
 20
8.2103759166
 30
0.0
 40
0.1999999999999997
 50
125.0
 51
215.0
  0
LINE
  5
71
  8
0
  6
CONTINUOUS
 62
     7
 10
4.7545535184
 20
8.8441725525
 30
0.0
 11
4.0833721881
 21
8.3742063255
 31
0.0
  0
ARC
  5
72
  8
0
  6
CONTINUOUS
 62
     7
 10
2.4149459979
 20
9.1966894257
 30
0.0
 40
2.5
 50
358.7775562232
 51
71.2224437768
  0
ARC
  5
73
  8
0
  6
CONTINUOUS
 62
     7
 10
7.3498687227
 20
12.4376825764
 30
0.0
 40
0.3749999999999997
 50
125.0
 51
178.7775562232
  0
ARC
  5
74
  8
0
  6
CONTINUOUS
 62
     7
 10
8.7903585209
 20
10.3804499424
 30
0.0
 40
0.3750000000000007
 50
251.2224437768
 51
305.0
  0
ARC
  5
75
  8
0
  6
CONTINUOUS
 62
     7
 10
8.8482362344
 20
8.4672442683
 30
0.0
 40
0.375
 50
270.0
 51
333.8144807277
  0
ARC
  5
76
  8
0
  6
CONTINUOUS
 62
     7
 10
6.45671893
 20
8.4672442683
 30
0.0
 40
0.375
 50
180.0
 51
270.0
  0
ARC
  5
77
  8
0
  6
CONTINUOUS
 62
     7
 10
6.45671893
 20
12.5409121528
 30
0.0
 40
0.3750000000000002
 50
125.0
 51
180.0
  0
ARC
  5
78
  8
0
  6
CONTINUOUS
 62
     7
 10
9.110563836
 20
9.78255975
 30
0.0
 40
0.0850000000000017
 50
125.0
 51
305.0
  0
LINE
  5
79
  8
0
  6
CONTINUOUS
 62
     7
 10
9.159317833
 20
9.7129318262
 30
0.0
 11
9.8146394685
 21
10.1717929753
 31
0.0
  0
ARC
  5
7A
  8
0
  6
CONTINUOUS
 62
     7
 10
9.7658854714
 20
10.2414208991
 30
0.0
 40
0.0850000000000017
 50
305.0
 51
125.0
  0
LINE
  5
7B
  8
0
  6
CONTINUOUS
 62
     7
 10
9.7171314743
 20
10.3110488228
 30
0.0
 11
9.0618098389
 21
9.8521876738
 31
0.0
  0
ARC
  5
7C
  8
0
  6
CONTINUOUS
 62
     7
 10
6.4238041686
 20
10.25630797
 30
0.0
 40
0.0850000000000002
 50
125.0
 51
305.0
  0
LINE
  5
7D
  8
0
  6
CONTINUOUS
 62
     7
 10
6.4725581657
 20
10.1866800463
 30
0.0
 11
7.1278798011
 21
10.6455411954
 31
0.0
  0
ARC
  5
7E
  8
0
  6
CONTINUOUS
 62
     7
 10
7.079125804
 20
10.7151691191
 30
0.0
 40
0.0850000000000002
 50
305.0
 51
125.0
  0
LINE
  5
7F
  8
0
  6
CONTINUOUS
 62
     7
 10
7.0303718069
 20
10.7847970429
 30
0.0
 11
6.3750501715
 21
10.3259358938
 31
0.0
  0
ARC
  5
80
  8
0
  6
CONTINUOUS
 62
     7
 10
6.8975523886
 20
12.9430676374
 30
0.0
 40
0.0849999999999997
 50
125.0
 51
305.0
  0
LINE
  5
81
  8
0
  6
CONTINUOUS
 62
     7
 10
6.9463063857
 20
12.8734397137
 30
0.0
 11
7.6016280211
 21
13.3323008627
 31
0.0
  0
ARC
  5
82
  8
0
  6
CONTINUOUS
 62
     7
 10
7.552874024
 20
13.4019287865
 30
0.0
 40
0.0850000000000002
 50
305.0
 51
125.0
  0
LINE
  5
83
  8
0
  6
CONTINUOUS
 62
     7
 10
7.504120027
 20
13.4715567103
 30
0.0
 11
6.8487983915
 21
13.0126955612
 31
0.0
  0
LINE
  5
84
  8
0
  6
CONTINUOUS
 62
     7
 10
9.6766310149
 20
10.5432341528
 30
0.0
 11
9.0054496845
 21
10.0732679258
 31
0.0
  0
ARC
  5
85
  8
0
  6
CONTINUOUS
 62
     7
 10
9.7913463022
 20
10.3794037439
 30
0.0
 40
0.2000000000000012
 50
35.0
 51
125.0
  0
LINE
  5
86
  8
0
  6
CONTINUOUS
 62
     7
 10
10.0680854583
 20
10.3328686288
 30
0.0
 11
9.955176711
 21
10.4941190312
 31
0.0
  0
ARC
  5
87
  8
0
  6
CONTINUOUS
 62
     7
 10
9.9042550495
 20
10.2181533415
 30
0.0
 40
0.2000000000000022
 50
333.8144807277
 51
35.0
  0
LINE
  5
88
  8
0
  6
CONTINUOUS
 62
     7
 10
9.1847499565
 20
8.3017646174
 30
0.0
 11
10.0837290346
 21
10.1298975277
 31
0.0
  0
LINE
  5
89
  8
0
  6
CONTINUOUS
 62
     7
 10
8.0817188937
 20
8.0922442301
 30
0.0
 11
8.8482362344
 21
8.0922442683
 31
0.0
  0
LINE
  5
8A
  8
0
  6
CONTINUOUS
 62
     7
 10
8.08171893
 20
8.5922442683
 30
0.0
 11
8.0817188937
 21
8.0922442301
 31
0.0
  0
ARC
  5
8B
  8
0
  6
CONTINUOUS
 62
     7
 10
7.58171893
 20
8.5922442683
 30
0.0
 40
0.5000000000000009
 50
0.0
 51
180.0
  0
LINE
  5
8C
  8
0
  6
CONTINUOUS
 62
     7
 10
7.081718872
 20
8.0922442853
 30
0.0
 11
7.08171893
 21
8.5922442683
 31
0.0
  0
LINE
  5
8D
  8
0
  6
CONTINUOUS
 62
     7
 10
6.45671893
 20
8.0922442683
 30
0.0
 11
7.081718872
 21
8.0922442853
 31
0.0
  0
LINE
  5
8E
  8
0
  6
CONTINUOUS
 62
     7
 10
6.08171893
 20
12.5409121528
 30
0.0
 11
6.08171893
 21
8.4672442683
 31
0.0
  0
LINE
  5
8F
  8
0
  6
CONTINUOUS
 62
     7
 10
7.4636195675
 20
13.7037420402
 30
0.0
 11
6.2416277664
 21
12.8480941694
 31
0.0
  0
ARC
  5
90
  8
0
  6
CONTINUOUS
 62
     7
 10
7.5783348548
 20
13.5399116313
 30
0.0
 40
0.2000000000000007
 50
35.0
 51
125.0
  0
LINE
  5
91
  8
0
  6
CONTINUOUS
 62
     7
 10
7.855074011
 20
13.4933765162
 30
0.0
 11
7.7421652637
 21
13.6546269186
 31
0.0
  0
ARC
  5
92
  8
0
  6
CONTINUOUS
 62
     7
 10
7.6912436021
 20
13.3786612289
 30
0.0
 40
0.2000000000000002
 50
305.0
 51
35.0
  0
LINE
  5
93
  8
0
  6
CONTINUOUS
 62
     7
 10
7.1347775591
 20
12.7448645931
 30
0.0
 11
7.8059588894
 21
13.2148308201
 31
0.0
  0
ARC
  5
94
  8
0
  6
CONTINUOUS
 62
     7
 10
9.4743850796
 20
12.3923477199
 30
0.0
 40
2.5
 50
178.7775562232
 51
251.2224437768
  0
ARC
  5
95
  8
0
  6
CONTINUOUS
 62
     7
 10
10.2951564029
 20
9.3044279763
 30
0.0
 40
0.3749999999999998
 50
305.0
 51
358.7775562232
  0
ARC
  5
96
  8
0
  6
CONTINUOUS
 62
     7
 10
8.8546666047
 20
11.3616606104
 30
0.0
 40
0.3749999999999998
 50
71.2224437768
 51
125.0
  0
ARC
  5
97
  8
0
  6
CONTINUOUS
 62
     7
 10
8.7967888912
 20
13.2748662845
 30
0.0
 40
0.3750000000000016
 50
90.0
 51
153.8144807277
  0
ARC
  5
98
  8
0
  6
CONTINUOUS
 62
     7
 10
11.1883061956
 20
13.2748662845
 30
0.0
 40
0.375
 50
0.0
 51
90.0
  0
ARC
  5
99
  8
0
  6
CONTINUOUS
 62
     7
 10
11.1883061956
 20
9.2011984
 30
0.0
 40
0.375
 50
305.0
 51
0.0
  0
ARC
  5
9A
  8
0
  6
CONTINUOUS
 62
     7
 10
8.5344612897
 20
11.9595508028
 30
0.0
 40
0.0850000000000002
 50
305.0
 51
125.0
  0
LINE
  5
9B
  8
0
  6
CONTINUOUS
 62
     7
 10
8.4857072926
 20
12.0291787265
 30
0.0
 11
7.8303856572
 21
11.5703175774
 31
0.0
  0
ARC
  5
9C
  8
0
  6
CONTINUOUS
 62
     7
 10
7.8791396542
 20
11.5006896537
 30
0.0
 40
0.0850000000000002
 50
125.0
 51
305.0
  0
LINE
  5
9D
  8
0
  6
CONTINUOUS
 62
     7
 10
7.9278936513
 20
11.4310617299
 30
0.0
 11
8.5832152868
 21
11.889922879
 31
0.0
  0
ARC
  5
9E
  8
0
  6
CONTINUOUS
 62
     7
 10
11.2212209571
 20
11.4858025827
 30
0.0
 40
0.0850000000000002
 50
305.0
 51
125.0
  0
LINE
  5
9F
  8
0
  6
CONTINUOUS
 62
     7
 10
11.17246696
 20
11.5554305065
 30
0.0
 11
10.5171453245
 21
11.0965693574
 31
0.0
  0
ARC
  5
A0
  8
0
  6
CONTINUOUS
 62
     7
 10
10.5658993216
 20
11.0269414336
 30
0.0
 40
0.0850000000000002
 50
125.0
 51
305.0
  0
LINE
  5
A1
  8
0
  6
CONTINUOUS
 62
     7
 10
10.6146533187
 20
10.9573135099
 30
0.0
 11
11.2699749541
 21
11.416174659
 31
0.0
  0
ARC
  5
A2
  8
0
  6
CONTINUOUS
 62
     7
 10
10.747472737
 20
8.7990429153
 30
0.0
 40
0.0850000000000027
 50
305.0
 51
125.0
  0
LINE
  5
A3
  8
0
  6
CONTINUOUS
 62
     7
 10
10.6987187399
 20
8.8686708391
 30
0.0
 11
10.0433971045
 21
8.40980969
 31
0.0
  0
ARC
  5
A4
  8
0
  6
CONTINUOUS
 62
     7
 10
10.0921511016
 20
8.3401817663
 30
0.0
 40
0.0850000000000017
 50
125.0
 51
305.0
  0
LINE
  5
A5
  8
0
  6
CONTINUOUS
 62
     7
 10
10.1409050987
 20
8.2705538425
 30
0.0
 11
10.7962267341
 21
8.7294149916
 31
0.0
  0
LINE
  5
A6
  8
0
  6
CONTINUOUS
 62
     7
 10
7.9683941107
 20
11.1988764
 30
0.0
 11
8.6395754411
 21
11.668842627
 31
0.0
  0
ARC
  5
A7
  8
0
  6
CONTINUOUS
 62
     7
 10
7.8536788235
 20
11.3627068088
 30
0.0
 40
0.2000000000000008
 50
215.0
 51
305.0
  0
LINE
  5
A8
  8
0
  6
CONTINUOUS
 62
     7
 10
7.5769396673
 20
11.409241924
 30
0.0
 11
7.6898484146
 21
11.2479915216
 31
0.0
  0
ARC
  5
A9
  8
0
  6
CONTINUOUS
 62
     7
 10
7.7407700762
 20
11.5239572113
 30
0.0
 40
0.2000000000000006
 50
153.8144807277
 51
215.0
  0
LINE
  5
AA
  8
0
  6
CONTINUOUS
 62
     7
 10
8.4602751691
 20
13.4403459353
 30
0.0
 11
7.561296091
 21
11.612213025
 31
0.0
  0
LINE
  5
AB
  8
0
  6
CONTINUOUS
 62
     7
 10
9.563306232
 20
13.6498663226
 30
0.0
 11
8.7967888912
 21
13.6498662845
 31
0.0
  0
LINE
  5
AC
  8
0
  6
CONTINUOUS
 62
     7
 10
9.5633061956
 20
13.1498662845
 30
0.0
 11
9.563306232
 21
13.6498663226
 31
0.0
  0
ARC
  5
AD
  8
0
  6
CONTINUOUS
 62
     7
 10
10.0633061956
 20
13.1498662845
 30
0.0
 40
0.5
 50
180.0
 51
0.0
  0
LINE
  5
AE
  8
0
  6
CONTINUOUS
 62
     7
 10
10.5633062537
 20
13.6498662674
 30
0.0
 11
10.5633061956
 21
13.1498662845
 31
0.0
  0
LINE
  5
AF
  8
0
  6
CONTINUOUS
 62
     7
 10
11.1883061956
 20
13.6498662845
 30
0.0
 11
10.5633062537
 21
13.6498662674
 31
0.0
  0
LINE
  5
B0
  8
0
  6
CONTINUOUS
 62
     7
 10
11.5633061956
 20
9.2011984
 30
0.0
 11
11.5633061956
 21
13.2748662845
 31
0.0
  0
LINE
  5
B1
  8
0
  6
CONTINUOUS
 62
     7
 10
10.1814055581
 20
8.0383685126
 30
0.0
 11
11.4033973593
 21
8.8940163834
 31
0.0
  0
ARC
  5
B2
  8
0
  6
CONTINUOUS
 62
     7
 10
10.0666902708
 20
8.2021989214
 30
0.0
 40
0.2000000000000012
 50
215.0
 51
305.0
  0
LINE
  5
B3
  8
0
  6
CONTINUOUS
 62
     7
 10
9.7899511146
 20
8.2487340366
 30
0.0
 11
9.902859862
 21
8.0874836342
 31
0.0
  0
ARC
  5
B4
  8
0
  6
CONTINUOUS
 62
     7
 10
9.9537815235
 20
8.3634493238
 30
0.0
 40
0.1999999999999997
 50
125.0
 51
215.0
  0
LINE
  5
B5
  8
0
  6
CONTINUOUS
 62
     7
 10
10.5102475666
 20
8.9972459597
 30
0.0
 11
9.8390662362
 21
8.5272797327
 31
0.0
  0
ARC
  5
B6
  8
0
  6
CONTINUOUS
 62
     7
 10
8.170640046
 20
9.3497628329
 30
0.0
 40
2.5
 50
358.7775562232
 51
71.2224437768
  0
ARC
  5
B7
  8
0
  6
CONTINUOUS
 62
     7
 10
1.848361185
 20
6.5056222749
 30
0.0
 40
0.3750000000000001
 50
125.0
 51
178.7775562232
  0
ARC
  5
B8
  8
0
  6
CONTINUOUS
 62
     7
 10
3.2888509832
 20
4.4483896409
 30
0.0
 40
0.3750000000000004
 50
251.2224437768
 51
305.0
  0
ARC
  5
B9
  8
0
  6
CONTINUOUS
 62
     7
 10
3.3467286967
 20
2.5351839667
 30
0.0
 40
0.3750000000000002
 50
270.0
 51
333.8144807277
  0
ARC
  5
BA
  8
0
  6
CONTINUOUS
 62
     7
 10
0.9552113923
 20
2.5351839667
 30
0.0
 40
0.3749999999999996
 50
180.0
 51
270.0
  0
ARC
  5
BB
  8
0
  6
CONTINUOUS
 62
     7
 10
0.9552113923
 20
6.6088518513
 30
0.0
 40
0.375
 50
125.0
 51
180.0
  0
ARC
  5
BC
  8
0
  6
CONTINUOUS
 62
     7
 10
3.6090562983
 20
3.8504994485
 30
0.0
 40
0.0850000000000006
 50
125.0
 51
305.0
  0
LINE
  5
BD
  8
0
  6
CONTINUOUS
 62
     7
 10
3.6578102954
 20
3.7808715247
 30
0.0
 11
4.3131319308
 21
4.2397326738
 31
0.0
  0
ARC
  5
BE
  8
0
  6
CONTINUOUS
 62
     7
 10
4.2643779337
 20
4.3093605976
 30
0.0
 40
0.0850000000000002
 50
305.0
 51
125.0
  0
LINE
  5
BF
  8
0
  6
CONTINUOUS
 62
     7
 10
4.2156239366
 20
4.3789885213
 30
0.0
 11
3.5603023012
 21
3.9201273723
 31
0.0
  0
ARC
  5
C0
  8
0
  6
CONTINUOUS
 62
     7
 10
0.9222966309
 20
4.3242476685
 30
0.0
 40
0.0850000000000001
 50
125.0
 51
305.0
  0
LINE
  5
C1
  8
0
  6
CONTINUOUS
 62
     7
 10
0.971050628
 20
4.2546197448
 30
0.0
 11
1.6263722634
 21
4.7134808939
 31
0.0
  0
ARC
  5
C2
  8
0
  6
CONTINUOUS
 62
     7
 10
1.5776182663
 20
4.7831088176
 30
0.0
 40
0.085
 50
305.0
 51
125.0
  0
LINE
  5
C3
  8
0
  6
CONTINUOUS
 62
     7
 10
1.5288642692
 20
4.8527367414
 30
0.0
 11
0.8735426338
 21
4.3938755923
 31
0.0
  0
ARC
  5
C4
  8
0
  6
CONTINUOUS
 62
     7
 10
1.3960448509
 20
7.0110073359
 30
0.0
 40
0.0850000000000008
 50
125.0
 51
305.0
  0
LINE
  5
C5
  8
0
  6
CONTINUOUS
 62
     7
 10
1.444798848
 20
6.9413794121
 30
0.0
 11
2.1001204834
 21
7.4002405612
 31
0.0
  0
ARC
  5
C6
  8
0
  6
CONTINUOUS
 62
     7
 10
2.0513664864
 20
7.469868485
 30
0.0
 40
0.0850000000000007
 50
305.0
 51
125.0
  0
LINE
  5
C7
  8
0
  6
CONTINUOUS
 62
     7
 10
2.0026124893
 20
7.5394964088
 30
0.0
 11
1.3472908538
 21
7.0806352597
 31
0.0
  0
LINE
  5
C8
  8
0
  6
CONTINUOUS
 62
     7
 10
4.1751234772
 20
4.6111738513
 30
0.0
 11
3.5039421469
 21
4.1412076243
 31
0.0
  0
ARC
  5
C9
  8
0
  6
CONTINUOUS
 62
     7
 10
4.2898387645
 20
4.4473434424
 30
0.0
 40
0.2
 50
35.0
 51
125.0
  0
LINE
  5
CA
  8
0
  6
CONTINUOUS
 62
     7
 10
4.5665779206
 20
4.4008083273
 30
0.0
 11
4.4536691733
 21
4.5620587297
 31
0.0
  0
ARC
  5
CB
  8
0
  6
CONTINUOUS
 62
     7
 10
4.4027475118
 20
4.28609304
 30
0.0
 40
0.2000000000000007
 50
333.8144807277
 51
35.0
  0
LINE
  5
CC
  8
0
  6
CONTINUOUS
 62
     7
 10
3.6832424188
 20
2.3697043159
 30
0.0
 11
4.5822214969
 21
4.1978372262
 31
0.0
  0
LINE
  5
CD
  8
0
  6
CONTINUOUS
 62
     7
 10
2.580211356
 20
2.1601839286
 30
0.0
 11
3.3467286967
 21
2.1601839667
 31
0.0
  0
LINE
  5
CE
  8
0
  6
CONTINUOUS
 62
     7
 10
2.5802113923
 20
2.6601839667
 30
0.0
 11
2.580211356
 21
2.1601839286
 31
0.0
  0
ARC
  5
CF
  8
0
  6
CONTINUOUS
 62
     7
 10
2.0802113923
 20
2.6601839667
 30
0.0
 40
0.5000000000000004
 50
0.0
 51
180.0
  0
LINE
  5
D0
  8
0
  6
CONTINUOUS
 62
     7
 10
1.5802113343
 20
2.1601839838
 30
0.0
 11
1.5802113923
 21
2.6601839667
 31
0.0
  0
LINE
  5
D1
  8
0
  6
CONTINUOUS
 62
     7
 10
0.9552113923
 20
2.1601839667
 30
0.0
 11
1.5802113343
 21
2.1601839838
 31
0.0
  0
LINE
  5
D2
  8
0
  6
CONTINUOUS
 62
     7
 10
0.5802113923
 20
6.6088518513
 30
0.0
 11
0.5802113923
 21
2.5351839667
 31
0.0
  0
LINE
  5
D3
  8
0
  6
CONTINUOUS
 62
     7
 10
1.9621120299
 20
7.7716817387
 30
0.0
 11
0.7401202287
 21
6.9160338679
 31
0.0
  0
ARC
  5
D4
  8
0
  6
CONTINUOUS
 62
     7
 10
2.0768273171
 20
7.6078513298
 30
0.0
 40
0.2000000000000004
 50
35.0
 51
125.0
  0
LINE
  5
D5
  8
0
  6
CONTINUOUS
 62
     7
 10
2.3535664733
 20
7.5613162147
 30
0.0
 11
2.240657726
 21
7.7225666171
 31
0.0
  0
ARC
  5
D6
  8
0
  6
CONTINUOUS
 62
     7
 10
2.1897360644
 20
7.4466009274
 30
0.0
 40
0.2000000000000002
 50
305.0
 51
35.0
  0
LINE
  5
D7
  8
0
  6
CONTINUOUS
 62
     7
 10
1.6332700214
 20
6.8128042915
 30
0.0
 11
2.3044513517
 21
7.2827705186
 31
0.0
  0
ARC
  5
D8
  8
0
  6
CONTINUOUS
 62
     7
 10
3.9728775419
 20
6.4602874183
 30
0.0
 40
2.5
 50
178.7775562232
 51
251.2224437768
  0
ARC
  5
D9
  8
0
  6
CONTINUOUS
 62
     7
 10
4.5783724833
 20
3.3006088808
 30
0.0
 40
0.3749999999999998
 50
305.0
 51
358.7775562232
  0
ARC
  5
DA
  8
0
  6
CONTINUOUS
 62
     7
 10
3.1378826851
 20
5.3578415149
 30
0.0
 40
0.3750000000000012
 50
71.2224437768
 51
125.0
  0
ARC
  5
DB
  8
0
  6
CONTINUOUS
 62
     7
 10
3.0800049716
 20
7.271047189
 30
0.0
 40
0.3750000000000004
 50
90.0
 51
153.8144807277
  0
ARC
  5
DC
  8
0
  6
CONTINUOUS
 62
     7
 10
5.471522276
 20
7.271047189
 30
0.0
 40
0.375
 50
0.0
 51
90.0
  0
ARC
  5
DD
  8
0
  6
CONTINUOUS
 62
     7
 10
5.471522276
 20
3.1973793045
 30
0.0
 40
0.3750000000000009
 50
305.0
 51
0.0
  0
ARC
  5
DE
  8
0
  6
CONTINUOUS
 62
     7
 10
2.8176773701
 20
5.9557317073
 30
0.0
 40
0.0850000000000012
 50
305.0
 51
125.0
  0
LINE
  5
DF
  8
0
  6
CONTINUOUS
 62
     7
 10
2.768923373
 20
6.025359631
 30
0.0
 11
2.1136017376
 21
5.566498482
 31
0.0
  0
ARC
  5
E0
  8
0
  6
CONTINUOUS
 62
     7
 10
2.1623557346
 20
5.4968705582
 30
0.0
 40
0.0850000000000012
 50
125.0
 51
305.0
  0
LINE
  5
E1
  8
0
  6
CONTINUOUS
 62
     7
 10
2.2111097317
 20
5.4272426344
 30
0.0
 11
2.8664313672
 21
5.8861037835
 31
0.0
  0
ARC
  5
E2
  8
0
  6
CONTINUOUS
 62
     7
 10
5.5044370375
 20
5.4819834872
 30
0.0
 40
0.0850000000000009
 50
305.0
 51
125.0
  0
LINE
  5
E3
  8
0
  6
CONTINUOUS
 62
     7
 10
5.4556830404
 20
5.551611411
 30
0.0
 11
4.8003614049
 21
5.0927502619
 31
0.0
  0
ARC
  5
E4
  8
0
  6
CONTINUOUS
 62
     7
 10
4.849115402
 20
5.0231223382
 30
0.0
 40
0.0850000000000009
 50
125.0
 51
305.0
  0
LINE
  5
E5
  8
0
  6
CONTINUOUS
 62
     7
 10
4.8978693991
 20
4.9534944144
 30
0.0
 11
5.5531910345
 21
5.4123555635
 31
0.0
  0
ARC
  5
E6
  8
0
  6
CONTINUOUS
 62
     7
 10
5.0306888174
 20
2.7952238199
 30
0.0
 40
0.0850000000000007
 50
305.0
 51
125.0
  0
LINE
  5
E7
  8
0
  6
CONTINUOUS
 62
     7
 10
4.9819348203
 20
2.8648517436
 30
0.0
 11
4.3266131849
 21
2.4059905946
 31
0.0
  0
ARC
  5
E8
  8
0
  6
CONTINUOUS
 62
     7
 10
4.375367182
 20
2.3363626708
 30
0.0
 40
0.0850000000000011
 50
125.0
 51
305.0
  0
LINE
  5
E9
  8
0
  6
CONTINUOUS
 62
     7
 10
4.4241211791
 20
2.266734747
 30
0.0
 11
5.0794428145
 21
2.7255958961
 31
0.0
  0
LINE
  5
EA
  8
0
  6
CONTINUOUS
 62
     7
 10
2.2516101911
 20
5.1950573045
 30
0.0
 11
2.9227915215
 21
5.6650235315
 31
0.0
  0
ARC
  5
EB
  8
0
  6
CONTINUOUS
 62
     7
 10
2.1368949039
 20
5.3588877134
 30
0.0
 40
0.2000000000000002
 50
215.0
 51
305.0
  0
LINE
  5
EC
  8
0
  6
CONTINUOUS
 62
     7
 10
1.8601557477
 20
5.4054228285
 30
0.0
 11
1.973064495
 21
5.2441724261
 31
0.0
  0
ARC
  5
ED
  8
0
  6
CONTINUOUS
 62
     7
 10
2.0239861566
 20
5.5201381158
 30
0.0
 40
0.2000000000000003
 50
153.8144807277
 51
215.0
  0
LINE
  5
EE
  8
0
  6
CONTINUOUS
 62
     7
 10
2.7434912495
 20
7.4365268399
 30
0.0
 11
1.8445121714
 21
5.6083939295
 31
0.0
  0
LINE
  5
EF
  8
0
  6
CONTINUOUS
 62
     7
 10
3.8465223124
 20
7.6460472271
 30
0.0
 11
3.0800049716
 21
7.646047189
 31
0.0
  0
LINE
  5
F0
  8
0
  6
CONTINUOUS
 62
     7
 10
3.846522276
 20
7.146047189
 30
0.0
 11
3.8465223124
 21
7.6460472271
 31
0.0
  0
ARC
  5
F1
  8
0
  6
CONTINUOUS
 62
     7
 10
4.346522276
 20
7.146047189
 30
0.0
 40
0.5
 50
180.0
 51
0.0
  0
LINE
  5
F2
  8
0
  6
CONTINUOUS
 62
     7
 10
4.8465223341
 20
7.646047172
 30
0.0
 11
4.846522276
 21
7.146047189
 31
0.0
  0
LINE
  5
F3
  8
0
  6
CONTINUOUS
 62
     7
 10
5.471522276
 20
7.646047189
 30
0.0
 11
4.8465223341
 21
7.646047172
 31
0.0
  0
LINE
  5
F4
  8
0
  6
CONTINUOUS
 62
     7
 10
5.846522276
 20
3.1973793045
 30
0.0
 11
5.846522276
 21
7.271047189
 31
0.0
  0
LINE
  5
F5
  8
0
  6
CONTINUOUS
 62
     7
 10
4.4646216385
 20
2.0345494171
 30
0.0
 11
5.6866134397
 21
2.8901972879
 31
0.0
  0
ARC
  5
F6
  8
0
  6
CONTINUOUS
 62
     7
 10
4.3499063512
 20
2.1983798259
 30
0.0
 40
0.2000000000000002
 50
215.0
 51
305.0
  0
LINE
  5
F7
  8
0
  6
CONTINUOUS
 62
     7
 10
4.073167195
 20
2.2449149411
 30
0.0
 11
4.1860759424
 21
2.0836645387
 31
0.0
  0
ARC
  5
F8
  8
0
  6
CONTINUOUS
 62
     7
 10
4.2369976039
 20
2.3596302284
 30
0.0
 40
0.1999999999999997
 50
125.0
 51
215.0
  0
LINE
  5
F9
  8
0
  6
CONTINUOUS
 62
     7
 10
4.793463647
 20
2.9934268642
 30
0.0
 11
4.1222823166
 21
2.5234606372
 31
0.0
  0
ARC
  5
FA
  8
0
  6
CONTINUOUS
 62
     7
 10
2.4538561264
 20
3.3459437374
 30
0.0
 40
2.5
 50
358.7775562232
 51
71.2224437768
  0
ARC
  5
FB
  8
0
  6
CONTINUOUS
 62
     7
 10
7.6369038986
 20
6.6730594609
 30
0.0
 40
0.3750000000000004
 50
125.0
 51
178.7775562232
  0
ARC
  5
FC
  8
0
  6
CONTINUOUS
 62
     7
 10
9.0773936968
 20
4.6158268268
 30
0.0
 40
0.3750000000000003
 50
251.2224437768
 51
305.0
  0
ARC
  5
FD
  8
0
  6
CONTINUOUS
 62
     7
 10
9.1352714103
 20
2.7026211527
 30
0.0
 40
0.3750000000000012
 50
270.0
 51
333.8144807277
  0
ARC
  5
FE
  8
0
  6
CONTINUOUS
 62
     7
 10
6.7437541059
 20
2.7026211527
 30
0.0
 40
0.3749999999999991
 50
180.0
 51
270.0
  0
ARC
  5
FF
  8
0
  6
CONTINUOUS
 62
     7
 10
6.7437541059
 20
6.7762890372
 30
0.0
 40
0.3750000000000017
 50
125.0
 51
180.0
  0
ARC
  5
100
  8
0
  6
CONTINUOUS
 62
     7
 10
9.3975990118
 20
4.0179366344
 30
0.0
 40
0.0850000000000009
 50
125.0
 51
305.0
  0
LINE
  5
101
  8
0
  6
CONTINUOUS
 62
     7
 10
9.4463530089
 20
3.9483087107
 30
0.0
 11
10.1016746444
 21
4.4071698597
 31
0.0
  0
ARC
  5
102
  8
0
  6
CONTINUOUS
 62
     7
 10
10.0529206473
 20
4.4767977835
 30
0.0
 40
0.0850000000000009
 50
305.0
 51
125.0
  0
LINE
  5
103
  8
0
  6
CONTINUOUS
 62
     7
 10
10.0041666502
 20
4.5464257073
 30
0.0
 11
9.3488450147
 21
4.0875645582
 31
0.0
  0
ARC
  5
104
  8
0
  6
CONTINUOUS
 62
     7
 10
6.7108393445
 20
4.4916848545
 30
0.0
 40
0.0850000000000002
 50
125.0
 51
305.0
  0
LINE
  5
105
  8
0
  6
CONTINUOUS
 62
     7
 10
6.7595933415
 20
4.4220569307
 30
0.0
 11
7.414914977
 21
4.8809180798
 31
0.0
  0
ARC
  5
106
  8
0
  6
CONTINUOUS
 62
     7
 10
7.3661609799
 20
4.9505460035
 30
0.0
 40
0.0850000000000009
 50
305.0
 51
125.0
  0
LINE
  5
107
  8
0
  6
CONTINUOUS
 62
     7
 10
7.3174069828
 20
5.0201739273
 30
0.0
 11
6.6620853474
 21
4.5613127782
 31
0.0
  0
ARC
  5
108
  8
0
  6
CONTINUOUS
 62
     7
 10
7.1845875645
 20
7.1784445218
 30
0.0
 40
0.0850000000000009
 50
125.0
 51
305.0
  0
LINE
  5
109
  8
0
  6
CONTINUOUS
 62
     7
 10
7.2333415616
 20
7.1088165981
 30
0.0
 11
7.888663197
 21
7.5676777472
 31
0.0
  0
ARC
  5
10A
  8
0
  6
CONTINUOUS
 62
     7
 10
7.8399091999
 20
7.6373056709
 30
0.0
 40
0.0850000000000002
 50
305.0
 51
125.0
  0
LINE
  5
10B
  8
0
  6
CONTINUOUS
 62
     7
 10
7.7911552028
 20
7.7069335947
 30
0.0
 11
7.1358335674
 21
7.2480724456
 31
0.0
  0
LINE
  5
10C
  8
0
  6
CONTINUOUS
 62
     7
 10
9.9636661908
 20
4.7786110372
 30
0.0
 11
9.2924848604
 21
4.3086448102
 31
0.0
  0
ARC
  5
10D
  8
0
  6
CONTINUOUS
 62
     7
 10
10.078381478
 20
4.6147806284
 30
0.0
 40
0.2000000000000007
 50
35.0
 51
125.0
  0
LINE
  5
10E
  8
0
  6
CONTINUOUS
 62
     7
 10
10.3551206342
 20
4.5682455132
 30
0.0
 11
10.2422118869
 21
4.7294959156
 31
0.0
  0
ARC
  5
10F
  8
0
  6
CONTINUOUS
 62
     7
 10
10.1912902253
 20
4.4535302259
 30
0.0
 40
0.2000000000000015
 50
333.8144807277
 51
35.0
  0
LINE
  5
110
  8
0
  6
CONTINUOUS
 62
     7
 10
9.4717851324
 20
2.5371415018
 30
0.0
 11
10.3707642105
 21
4.3652744122
 31
0.0
  0
LINE
  5
111
  8
0
  6
CONTINUOUS
 62
     7
 10
8.3687540695
 20
2.3276211146
 30
0.0
 11
9.1352714103
 21
2.3276211527
 31
0.0
  0
LINE
  5
112
  8
0
  6
CONTINUOUS
 62
     7
 10
8.3687541059
 20
2.8276211527
 30
0.0
 11
8.3687540695
 21
2.3276211146
 31
0.0
  0
ARC
  5
113
  8
0
  6
CONTINUOUS
 62
     7
 10
7.8687541059
 20
2.8276211527
 30
0.0
 40
0.5000000000000009
 50
0.0
 51
180.0
  0
LINE
  5
114
  8
0
  6
CONTINUOUS
 62
     7
 10
7.3687540478
 20
2.3276211697
 30
0.0
 11
7.3687541059
 21
2.8276211527
 31
0.0
  0
LINE
  5
115
  8
0
  6
CONTINUOUS
 62
     7
 10
6.7437541059
 20
2.3276211527
 30
0.0
 11
7.3687540478
 21
2.3276211697
 31
0.0
  0
LINE
  5
116
  8
0
  6
CONTINUOUS
 62
     7
 10
6.3687541059
 20
6.7762890372
 30
0.0
 11
6.3687541059
 21
2.7026211527
 31
0.0
  0
LINE
  5
117
  8
0
  6
CONTINUOUS
 62
     7
 10
7.7506547434
 20
7.9391189246
 30
0.0
 11
6.5286629422
 21
7.0834710538
 31
0.0
  0
ARC
  5
118
  8
0
  6
CONTINUOUS
 62
     7
 10
7.8653700307
 20
7.7752885158
 30
0.0
 40
0.2000000000000014
 50
35.0
 51
125.0
  0
LINE
  5
119
  8
0
  6
CONTINUOUS
 62
     7
 10
8.1421091869
 20
7.7287534006
 30
0.0
 11
8.0292004396
 21
7.890003803
 31
0.0
  0
ARC
  5
11A
  8
0
  6
CONTINUOUS
 62
     7
 10
7.978278778
 20
7.6140381133
 30
0.0
 40
0.2000000000000007
 50
305.0
 51
35.0
  0
LINE
  5
11B
  8
0
  6
CONTINUOUS
 62
     7
 10
7.4218127349
 20
6.9802414775
 30
0.0
 11
8.0929940653
 21
7.4502077045
 31
0.0
  0
ARC
  5
11C
  8
0
  6
CONTINUOUS
 62
     7
 10
9.7614202555
 20
6.6277246043
 30
0.0
 40
2.5
 50
178.7775562232
 51
251.2224437768
  0
ARC
  5
11D
  8
0
  6
CONTINUOUS
 62
     7
 10
10.4625935889
 20
3.4441264688
 30
0.0
 40
0.3750000000000002
 50
305.0
 51
358.7775562232
  0
ARC
  5
11E
  8
0
  6
CONTINUOUS
 62
     7
 10
9.0221037906
 20
5.5013591028
 30
0.0
 40
0.3749999999999997
 50
71.2224437768
 51
125.0
  0
ARC
  5
11F
  8
0
  6
CONTINUOUS
 62
     7
 10
8.9642260772
 20
7.414564777
 30
0.0
 40
0.3750000000000019
 50
90.0
 51
153.8144807277
  0
ARC
  5
120
  8
0
  6
CONTINUOUS
 62
     7
 10
11.3557433816
 20
7.414564777
 30
0.0
 40
0.375
 50
0.0
 51
90.0
  0
ARC
  5
121
  8
0
  6
CONTINUOUS
 62
     7
 10
11.3557433816
 20
3.3408968924
 30
0.0
 40
0.3750000000000005
 50
305.0
 51
0.0
  0
ARC
  5
122
  8
0
  6
CONTINUOUS
 62
     7
 10
8.7018984756
 20
6.0992492952
 30
0.0
 40
0.0850000000000002
 50
305.0
 51
125.0
  0
LINE
  5
123
  8
0
  6
CONTINUOUS
 62
     7
 10
8.6531444785
 20
6.168877219
 30
0.0
 11
7.9978228431
 21
5.7100160699
 31
0.0
  0
ARC
  5
124
  8
0
  6
CONTINUOUS
 62
     7
 10
8.0465768402
 20
5.6403881461
 30
0.0
 40
0.0850000000000009
 50
125.0
 51
305.0
  0
LINE
  5
125
  8
0
  6
CONTINUOUS
 62
     7
 10
8.0953308373
 20
5.5707602224
 30
0.0
 11
8.7506524727
 21
6.0296213715
 31
0.0
  0
ARC
  5
126
  8
0
  6
CONTINUOUS
 62
     7
 10
11.388658143
 20
5.6255010752
 30
0.0
 40
0.0850000000000002
 50
305.0
 51
125.0
  0
LINE
  5
127
  8
0
  6
CONTINUOUS
 62
     7
 10
11.3399041459
 20
5.6951289989
 30
0.0
 11
10.6845825105
 21
5.2362678499
 31
0.0
  0
ARC
  5
128
  8
0
  6
CONTINUOUS
 62
     7
 10
10.7333365076
 20
5.1666399261
 30
0.0
 40
0.0850000000000009
 50
125.0
 51
305.0
  0
LINE
  5
129
  8
0
  6
CONTINUOUS
 62
     7
 10
10.7820905046
 20
5.0970120023
 30
0.0
 11
11.4374121401
 21
5.5558731514
 31
0.0
  0
ARC
  5
12A
  8
0
  6
CONTINUOUS
 62
     7
 10
10.9149099229
 20
2.9387414078
 30
0.0
 40
0.0850000000000012
 50
305.0
 51
125.0
  0
LINE
  5
12B
  8
0
  6
CONTINUOUS
 62
     7
 10
10.8661559259
 20
3.0083693316
 30
0.0
 11
10.2108342904
 21
2.5495081825
 31
0.0
  0
ARC
  5
12C
  8
0
  6
CONTINUOUS
 62
     7
 10
10.2595882875
 20
2.4798802587
 30
0.0
 40
0.0850000000000006
 50
125.0
 51
305.0
  0
LINE
  5
12D
  8
0
  6
CONTINUOUS
 62
     7
 10
10.3083422846
 20
2.410252335
 30
0.0
 11
10.96366392
 21
2.869113484
 31
0.0
  0
LINE
  5
12E
  8
0
  6
CONTINUOUS
 62
     7
 10
8.1358312967
 20
5.3385748924
 30
0.0
 11
8.807012627
 21
5.8085411195
 31
0.0
  0
ARC
  5
12F
  8
0
  6
CONTINUOUS
 62
     7
 10
8.0211160094
 20
5.5024053013
 30
0.0
 40
0.1999999999999997
 50
215.0
 51
305.0
  0
LINE
  5
130
  8
0
  6
CONTINUOUS
 62
     7
 10
7.7443768532
 20
5.5489404164
 30
0.0
 11
7.8572856005
 21
5.387690014
 31
0.0
  0
ARC
  5
131
  8
0
  6
CONTINUOUS
 62
     7
 10
7.9082072621
 20
5.6636557037
 30
0.0
 40
0.2
 50
153.8144807277
 51
215.0
  0
LINE
  5
132
  8
0
  6
CONTINUOUS
 62
     7
 10
8.6277123551
 20
7.5800444278
 30
0.0
 11
7.728733277
 21
5.7519115175
 31
0.0
  0
LINE
  5
133
  8
0
  6
CONTINUOUS
 62
     7
 10
9.7307434179
 20
7.7895648151
 30
0.0
 11
8.9642260772
 21
7.789564777
 31
0.0
  0
LINE
  5
134
  8
0
  6
CONTINUOUS
 62
     7
 10
9.7307433816
 20
7.289564777
 30
0.0
 11
9.7307434179
 21
7.7895648151
 31
0.0
  0
ARC
  5
135
  8
0
  6
CONTINUOUS
 62
     7
 10
10.2307433816
 20
7.289564777
 30
0.0
 40
0.5000000000000018
 50
180.0
 51
0.0
  0
LINE
  5
136
  8
0
  6
CONTINUOUS
 62
     7
 10
10.7307434396
 20
7.7895647599
 30
0.0
 11
10.7307433816
 21
7.289564777
 31
0.0
  0
LINE
  5
137
  8
0
  6
CONTINUOUS
 62
     7
 10
11.3557433816
 20
7.789564777
 30
0.0
 11
10.7307434396
 21
7.7895647599
 31
0.0
  0
LINE
  5
138
  8
0
  6
CONTINUOUS
 62
     7
 10
11.7307433816
 20
3.3408968924
 30
0.0
 11
11.7307433816
 21
7.414564777
 31
0.0
  0
LINE
  5
139
  8
0
  6
CONTINUOUS
 62
     7
 10
10.348842744
 20
2.178067005
 30
0.0
 11
11.5708345452
 21
3.0337148758
 31
0.0
  0
ARC
  5
13A
  8
0
  6
CONTINUOUS
 62
     7
 10
10.2341274567
 20
2.3418974139
 30
0.0
 40
0.2000000000000021
 50
215.0
 51
305.0
  0
LINE
  5
13B
  8
0
  6
CONTINUOUS
 62
     7
 10
9.9573883006
 20
2.388432529
 30
0.0
 11
10.0702970479
 21
2.2271821266
 31
0.0
  0
ARC
  5
13C
  8
0
  6
CONTINUOUS
 62
     7
 10
10.1212187094
 20
2.5031478163
 30
0.0
 40
0.1999999999999997
 50
125.0
 51
215.0
  0
LINE
  5
13D
  8
0
  6
CONTINUOUS
 62
     7
 10
10.6776847525
 20
3.1369444522
 30
0.0
 11
10.0065034222
 21
2.6669782252
 31
0.0
  0
ARC
  5
13E
  8
0
  6
CONTINUOUS
 62
     7
 10
8.338077232
 20
3.4894613254
 30
0.0
 40
2.5
 50
358.7775562232
 51
71.2224437768
  0
ENDSEC
  0
EOF
