  0
SECTION
  2
HEADER
  9
$ACADVER
  1
AC1009
  9
$DWGCODEPAGE
  3
ansi_1252
  9
$INSBASE
 10
0.0
 20
0.0
 30
0.0
  9
$EXTMIN
 10
0.0
 20
0.0
 30
0.0
  9
$EXTMAX
 10
12.0
 20
14.0
 30
0.0
  9
$LIMMIN
 10
0.0
 20
0.0
  9
$LIMMAX
 10
0.0
 20
0.0
  9
$ORTHOMODE
 70
     0
  9
$REGENMODE
 70
     1
  9
$FILLMODE
 70
     1
  9
$QTEXTMODE
 70
     0
  9
$MIRRTEXT
 70
     1
  9
$DRAGMODE
 70
     2
  9
$LTSCALE
 40
1.0
  9
$OSMODE
 70
    37
  9
$ATTMODE
 70
     1
  9
$TEXTSIZE
 40
0.1377952756
  9
$TRACEWID
 40
0.05
  9
$TEXTSTYLE
  7
STANDARD
  9
$CLAYER
  8
0
  9
$CELTYPE
  6
BYLAYER
  9
$CECOLOR
 62
   256
  9
$DIMSCALE
 40
1.0
  9
$DIMASZ
 40
0.156
  9
$DIMEXO
 40
0.05
  9
$DIMDLI
 40
0.38
  9
$DIMRND
 40
0.0
  9
$DIMDLE
 40
0.0
  9
$DIMEXE
 40
0.125
  9
$DIMTP
 40
0.0
  9
$DIMTM
 40
0.0
  9
$DIMTXT
 40
0.1377952756
  9
$DIMCEN
 40
0.09
  9
$DIMTSZ
 40
0.0
  9
$DIMTOL
 70
     0
  9
$DIMLIM
 70
     0
  9
$DIMTIH
 70
     1
  9
$DIMTOH
 70
     1
  9
$DIMSE1
 70
     0
  9
$DIMSE2
 70
     0
  9
$DIMTAD
 70
     0
  9
$DIMZIN
 70
     0
  9
$DIMBLK
  1

  9
$DIMASO
 70
     1
  9
$DIMSHO
 70
     1
  9
$DIMPOST
  1

  9
$DIMAPOST
  1

  9
$DIMALT
 70
     0
  9
$DIMALTD
 70
     2
  9
$DIMALTF
 40
25.4
  9
$DIMLFAC
 40
1.0
  9
$DIMTOFL
 70
     0
  9
$DIMTVP
 40
0.0
  9
$DIMTIX
 70
     0
  9
$DIMSOXD
 70
     0
  9
$DIMSAH
 70
     0
  9
$DIMBLK1
  1

  9
$DIMBLK2
  1

  9
$DIMSTYLE
  2
STANDARD
  9
$DIMCLRD
 70
     0
  9
$DIMCLRE
 70
     0
  9
$DIMCLRT
 70
     0
  9
$DIMTFAC
 40
1.0
  9
$DIMGAP
 40
0.06
  9
$LUNITS
 70
     2
  9
$LUPREC
 70
     2
  9
$SKETCHINC
 40
0.1
  9
$FILLETRAD
 40
0.5
  9
$AUNITS
 70
     0
  9
$AUPREC
 70
     0
  9
$MENU
  1
.
  9
$ELEVATION
 40
0.0
  9
$PELEVATION
 40
0.0
  9
$THICKNESS
 40
0.0
  9
$LIMCHECK
 70
     0
  9
$CHAMFERA
 40
0.5
  9
$CHAMFERB
 40
0.5
  9
$SKPOLY
 70
     0
  9
$TDCREATE
 40
2454314.954664167
  9
$TDUPDATE
 40
2454314.954664178
  9
$TDINDWG
 40
0.0000000116
  9
$TDUSRTIMER
 40
0.0000000116
  9
$USRTIMER
 70
     1
  9
$ANGBASE
 50
0.0
  9
$ANGDIR
 70
     0
  9
$PDMODE
 70
     0
  9
$PDSIZE
 40
-1.0
  9
$PLINEWID
 40
0.0
  9
$COORDS
 70
     1
  9
$SPLFRAME
 70
     0
  9
$SPLINETYPE
 70
     6
  9
$SPLINESEGS
 70
     8
  9
$ATTDIA
 70
     0
  9
$ATTREQ
 70
     1
  9
$HANDLING
 70
     1
  9
$HANDSEED
  5
79
  9
$SURFTAB1
 70
     6
  9
$SURFTAB2
 70
     6
  9
$SURFTYPE
 70
     6
  9
$SURFU
 70
     6
  9
$SURFV
 70
     6
  9
$UCSNAME
  2

  9
$UCSORG
 10
0.0
 20
0.0
 30
0.0
  9
$UCSXDIR
 10
1.0
 20
0.0
 30
0.0
  9
$UCSYDIR
 10
0.0
 20
1.0
 30
0.0
  9
$PUCSNAME
  2

  9
$PUCSORG
 10
0.0
 20
0.0
 30
0.0
  9
$PUCSXDIR
 10
1.0
 20
0.0
 30
0.0
  9
$PUCSYDIR
 10
0.0
 20
1.0
 30
0.0
  9
$USERI1
 70
     0
  9
$USERI2
 70
     0
  9
$USERI3
 70
     0
  9
$USERI4
 70
     0
  9
$USERI5
 70
     0
  9
$USERR1
 40
0.0
  9
$USERR2
 40
0.0
  9
$USERR3
 40
0.0
  9
$USERR4
 40
0.0
  9
$USERR5
 40
0.0
  9
$WORLDVIEW
 70
     1
  9
$SHADEDGE
 70
     3
  9
$SHADEDIF
 70
    70
  9
$TILEMODE
 70
     1
  9
$MAXACTVP
 70
    64
  9
$PLIMCHECK
 70
     0
  9
$PEXTMIN
 10
1.0000000000E+20
 20
1.0000000000E+20
 30
1.0000000000E+20
  9
$PEXTMAX
 10
-1.0000000000E+20
 20
-1.0000000000E+20
 30
-1.0000000000E+20
  9
$PLIMMIN
 10
0.0
 20
0.0
  9
$PLIMMAX
 10
12.0
 20
9.0
  9
$UNITMODE
 70
     0
  9
$VISRETAIN
 70
     1
  9
$PLINEGEN
 70
     0
  9
$PSLTSCALE
 70
     1
  0
ENDSEC
  0
SECTION
  2
TABLES
  0
TABLE
  2
VPORT
 70
     1
  0
VPORT
  2
*ACTIVE
 70
     0
 10
0.0
 20
0.0
 11
1.0
 21
1.0
 12
6.0
 22
7.0
 13
0.0
 23
0.0
 14
0.5
 24
0.5
 15
0.5
 25
0.5
 16
0.0
 26
0.0
 36
1.0
 17
0.0
 27
0.0
 37
0.0
 40
14.0
 41
0.8571428571
 42
50.0
 43
0.0
 44
0.0
 50
0.0
 51
0.0
 71
     0
 72
  2000
 73
     1
 74
     3
 75
     0
 76
     0
 77
     0
 78
     0
  0
ENDTAB
  0
TABLE
  2
LTYPE
 70
     6
  0
LTYPE
  2
CONTINUOUS
 70
     0
  3
Solid line
 72
    65
 73
     0
 40
0.0
  0
LTYPE
  2
HIDDEN
 70
     0
  3
Hidden __ __ __ __ __ __ __ __ __ __ __ __ __ __
 72
    65
 73
     2
 40
0.075
 49
0.05
 49
-0.025
  0
LTYPE
  2
PHANTOM
 70
     0
  3
Phantom ______  __  __  ______  __  __  ______
 72
    65
 73
     6
 40
0.5
 49
0.25
 49
-0.05
 49
0.05
 49
-0.05
 49
0.05
 49
-0.05
  0
LTYPE
  2
CENTER
 70
     0
  3
Center ____ _ ____ _ ____ _ ____ _ ____ _ ____
 72
    65
 73
     4
 40
0.4
 49
0.25
 49
-0.05
 49
0.05
 49
-0.05
  0
LTYPE
  2
CENTERX2
 70
     0
  3
Center (2x) ________  __  ________  __  _____
 72
    65
 73
     4
 40
0.8
 49
0.5
 49
-0.1
 49
0.1
 49
-0.1
  0
LTYPE
  2
DOT2
 70
     0
  3
Dot (.5x) ........................................
 72
    65
 73
     2
 40
0.025
 49
0.0
 49
-0.025
  0
ENDTAB
  0
TABLE
  2
LAYER
 70
     1
  0
LAYER
  2
0
 70
     0
 62
     7
  6
CONTINUOUS
  0
ENDTAB
  0
TABLE
  2
STYLE
 70
     1
  0
STYLE
  2
STANDARD
 70
     0
 40
0.0
 41
1.0
 50
0.0
 71
     0
 42
0.2
  3
txt
  4

  0
ENDTAB
  0
TABLE
  2
VIEW
 70
     0
  0
ENDTAB
  0
TABLE
  2
UCS
 70
     0
  0
ENDTAB
  0
TABLE
  2
APPID
 70
     1
  0
APPID
  2
ACAD
 70
     0
  0
ENDTAB
  0
TABLE
  2
DIMSTYLE
 70
     1
  0
DIMSTYLE
  2
STANDARD
 70
     0
  3

  4

  5

  6

  7

 40
1.0
 41
0.18
 42
0.0625
 43
0.38
 44
0.18
 45
0.0
 46
0.0
 47
0.0
 48
0.0
140
0.18
141
0.09
142
0.0
143
25.4
144
1.0
145
0.0
146
1.0
147
0.09
 71
     0
 72
     0
 73
     1
 74
     1
 75
     0
 76
     0
 77
     0
 78
     0
170
     0
171
     2
172
     0
173
     0
174
     0
175
     0
176
     0
177
     0
178
     0
  0
ENDTAB
  0
ENDSEC
  0
SECTION
  2
BLOCKS
  0
BLOCK
  8
0
  2
$MODEL_SPACE
 70
     0
 10
0.0
 20
0.0
 30
0.0
  3
$MODEL_SPACE
  1

  0
ENDBLK
  5
21
  8
0
  0
BLOCK
 67
     1
  8
0
  2
$PAPER_SPACE
 70
     0
 10
0.0
 20
0.0
 30
0.0
  3
$PAPER_SPACE
  1

  0
ENDBLK
  5
1D
 67
     1
  8
0
  0
ENDSEC
  0
SECTION
  2
ENTITIES
  0
ARC
  5
2F
  8
0
  6
CONTINUOUS
 62
     7
 10
1.7616118605
 20
12.4042071592
 30
0.0
 40
0.3750000000000001
 50
125.0
 51
178.7775562232
  0
ARC
  5
30
  8
0
  6
CONTINUOUS
 62
     7
 10
3.2021016587
 20
10.3469745251
 30
0.0
 40
0.3749999999999996
 50
251.2224437768
 51
305.0
  0
ARC
  5
31
  8
0
  6
CONTINUOUS
 62
     7
 10
3.2599793722
 20
8.433768851
 30
0.0
 40
0.375
 50
270.0
 51
333.8144807277
  0
ARC
  5
32
  8
0
  6
CONTINUOUS
 62
     7
 10
0.8684620678
 20
8.433768851
 30
0.0
 40
0.375
 50
180.0
 51
270.0
  0
ARC
  5
33
  8
0
  6
CONTINUOUS
 62
     7
 10
0.8684620678
 20
12.5074367355
 30
0.0
 40
0.3750000000000014
 50
125.0
 51
180.0
  0
ARC
  5
34
  8
0
  6
CONTINUOUS
 62
     7
 10
3.5223069738
 20
9.7490843327
 30
0.0
 40
0.0850000000000002
 50
125.0
 51
305.0
  0
LINE
  5
35
  8
0
  6
CONTINUOUS
 62
     7
 10
3.5710609708
 20
9.679456409
 30
0.0
 11
4.2263826063
 21
10.138317558
 31
0.0
  0
ARC
  5
36
  8
0
  6
CONTINUOUS
 62
     7
 10
4.1776286092
 20
10.2079454818
 30
0.0
 40
0.0850000000000017
 50
305.0
 51
125.0
  0
LINE
  5
37
  8
0
  6
CONTINUOUS
 62
     7
 10
4.1288746121
 20
10.2775734056
 30
0.0
 11
3.4735529767
 21
9.8187122565
 31
0.0
  0
ARC
  5
38
  8
0
  6
CONTINUOUS
 62
     7
 10
0.8355473064
 20
10.2228325528
 30
0.0
 40
0.0850000000000015
 50
125.0
 51
305.0
  0
LINE
  5
39
  8
0
  6
CONTINUOUS
 62
     7
 10
0.8843013035
 20
10.153204629
 30
0.0
 11
1.5396229389
 21
10.6120657781
 31
0.0
  0
ARC
  5
3A
  8
0
  6
CONTINUOUS
 62
     7
 10
1.4908689418
 20
10.6816937018
 30
0.0
 40
0.0850000000000001
 50
305.0
 51
125.0
  0
LINE
  5
3B
  8
0
  6
CONTINUOUS
 62
     7
 10
1.4421149447
 20
10.7513216256
 30
0.0
 11
0.7867933093
 21
10.2924604765
 31
0.0
  0
ARC
  5
3C
  8
0
  6
CONTINUOUS
 62
     7
 10
1.3092955264
 20
12.9095922201
 30
0.0
 40
0.0850000000000017
 50
125.0
 51
305.0
  0
LINE
  5
3D
  8
0
  6
CONTINUOUS
 62
     7
 10
1.3580495235
 20
12.8399642964
 30
0.0
 11
2.0133711589
 21
13.2988254454
 31
0.0
  0
ARC
  5
3E
  8
0
  6
CONTINUOUS
 62
     7
 10
1.9646171618
 20
13.3684533692
 30
0.0
 40
0.085
 50
305.0
 51
125.0
  0
LINE
  5
3F
  8
0
  6
CONTINUOUS
 62
     7
 10
1.9158631648
 20
13.438081293
 30
0.0
 11
1.2605415293
 21
12.9792201439
 31
0.0
  0
LINE
  5
40
  8
0
  6
CONTINUOUS
 62
     7
 10
4.0883741527
 20
10.5097587355
 30
0.0
 11
3.4171928223
 21
10.0397925085
 31
0.0
  0
ARC
  5
41
  8
0
  6
CONTINUOUS
 62
     7
 10
4.20308944
 20
10.3459283266
 30
0.0
 40
0.2000000000000002
 50
35.0
 51
125.0
  0
LINE
  5
42
  8
0
  6
CONTINUOUS
 62
     7
 10
4.4798285961
 20
10.2993932115
 30
0.0
 11
4.3669198488
 21
10.4606436139
 31
0.0
  0
ARC
  5
43
  8
0
  6
CONTINUOUS
 62
     7
 10
4.3159981873
 20
10.1846779242
 30
0.0
 40
0.2000000000000019
 50
333.8144807277
 51
35.0
  0
LINE
  5
44
  8
0
  6
CONTINUOUS
 62
     7
 10
3.5964930943
 20
8.2682892001
 30
0.0
 11
4.4954721724
 21
10.0964221104
 31
0.0
  0
LINE
  5
45
  8
0
  6
CONTINUOUS
 62
     7
 10
2.4934620315
 20
8.0587688129
 30
0.0
 11
3.2599793722
 21
8.058768851
 31
0.0
  0
LINE
  5
46
  8
0
  6
CONTINUOUS
 62
     7
 10
2.4934620678
 20
8.558768851
 30
0.0
 11
2.4934620315
 21
8.0587688129
 31
0.0
  0
ARC
  5
47
  8
0
  6
CONTINUOUS
 62
     7
 10
1.9934620678
 20
8.558768851
 30
0.0
 40
0.5000000000000004
 50
0.0
 51
180.0
  0
LINE
  5
48
  8
0
  6
CONTINUOUS
 62
     7
 10
1.4934620098
 20
8.058768868
 30
0.0
 11
1.4934620678
 21
8.558768851
 31
0.0
  0
LINE
  5
49
  8
0
  6
CONTINUOUS
 62
     7
 10
0.8684620678
 20
8.058768851
 30
0.0
 11
1.4934620098
 21
8.058768868
 31
0.0
  0
LINE
  5
4A
  8
0
  6
CONTINUOUS
 62
     7
 10
0.4934620678
 20
12.5074367355
 30
0.0
 11
0.4934620678
 21
8.433768851
 31
0.0
  0
LINE
  5
4B
  8
0
  6
CONTINUOUS
 62
     7
 10
1.8753627053
 20
13.6702666229
 30
0.0
 11
0.6533709042
 21
12.8146187521
 31
0.0
  0
ARC
  5
4C
  8
0
  6
CONTINUOUS
 62
     7
 10
1.9900779926
 20
13.5064362141
 30
0.0
 40
0.2000000000000004
 50
35.0
 51
125.0
  0
LINE
  5
4D
  8
0
  6
CONTINUOUS
 62
     7
 10
2.2668171488
 20
13.4599010989
 30
0.0
 11
2.1539084015
 21
13.6211515013
 31
0.0
  0
ARC
  5
4E
  8
0
  6
CONTINUOUS
 62
     7
 10
2.1029867399
 20
13.3451858116
 30
0.0
 40
0.2000000000000008
 50
305.0
 51
35.0
  0
LINE
  5
4F
  8
0
  6
CONTINUOUS
 62
     7
 10
1.5465206969
 20
12.7113891758
 30
0.0
 11
2.2177020272
 21
13.1813554028
 31
0.0
  0
ARC
  5
50
  8
0
  6
CONTINUOUS
 62
     7
 10
3.8861282174
 20
12.3588723026
 30
0.0
 40
2.5
 50
178.7775562232
 51
251.2224437768
  0
ARC
  5
51
  8
0
  6
CONTINUOUS
 62
     7
 10
4.5394623548
 20
9.1513545691
 30
0.0
 40
0.3749999999999993
 50
305.0
 51
358.7775562232
  0
ARC
  5
52
  8
0
  6
CONTINUOUS
 62
     7
 10
3.0989725566
 20
11.2085872031
 30
0.0
 40
0.3749999999999998
 50
71.2224437768
 51
125.0
  0
ARC
  5
53
  8
0
  6
CONTINUOUS
 62
     7
 10
3.0410948431
 20
13.1217928773
 30
0.0
 40
0.3750000000000004
 50
90.0
 51
153.8144807277
  0
ARC
  5
54
  8
0
  6
CONTINUOUS
 62
     7
 10
5.4326121475
 20
13.1217928773
 30
0.0
 40
0.375
 50
0.0
 51
90.0
  0
ARC
  5
55
  8
0
  6
CONTINUOUS
 62
     7
 10
5.4326121475
 20
9.0481249928
 30
0.0
 40
0.3749999999999993
 50
305.0
 51
0.0
  0
ARC
  5
56
  8
0
  6
CONTINUOUS
 62
     7
 10
2.7787672415
 20
11.8064773955
 30
0.0
 40
0.0850000000000022
 50
305.0
 51
125.0
  0
LINE
  5
57
  8
0
  6
CONTINUOUS
 62
     7
 10
2.7300132445
 20
11.8761053193
 30
0.0
 11
2.074691609
 21
11.4172441702
 31
0.0
  0
ARC
  5
58
  8
0
  6
CONTINUOUS
 62
     7
 10
2.1234456061
 20
11.3476162464
 30
0.0
 40
0.0850000000000019
 50
125.0
 51
305.0
  0
LINE
  5
59
  8
0
  6
CONTINUOUS
 62
     7
 10
2.1721996032
 20
11.2779883227
 30
0.0
 11
2.8275212386
 21
11.7368494718
 31
0.0
  0
ARC
  5
5A
  8
0
  6
CONTINUOUS
 62
     7
 10
5.4655269089
 20
11.3327291755
 30
0.0
 40
0.0850000000000002
 50
305.0
 51
125.0
  0
LINE
  5
5B
  8
0
  6
CONTINUOUS
 62
     7
 10
5.4167729118
 20
11.4023570992
 30
0.0
 11
4.7614512764
 21
10.9434959502
 31
0.0
  0
ARC
  5
5C
  8
0
  6
CONTINUOUS
 62
     7
 10
4.8102052735
 20
10.8738680264
 30
0.0
 40
0.0850000000000002
 50
125.0
 51
305.0
  0
LINE
  5
5D
  8
0
  6
CONTINUOUS
 62
     7
 10
4.8589592706
 20
10.8042401026
 30
0.0
 11
5.514280906
 21
11.2631012517
 31
0.0
  0
ARC
  5
5E
  8
0
  6
CONTINUOUS
 62
     7
 10
4.9917786889
 20
8.6459695081
 30
0.0
 40
0.0850000000000007
 50
305.0
 51
125.0
  0
LINE
  5
5F
  8
0
  6
CONTINUOUS
 62
     7
 10
4.9430246918
 20
8.7155974319
 30
0.0
 11
4.2877030564
 21
8.2567362828
 31
0.0
  0
ARC
  5
60
  8
0
  6
CONTINUOUS
 62
     7
 10
4.3364570535
 20
8.187108359
 30
0.0
 40
0.0850000000000007
 50
125.0
 51
305.0
  0
LINE
  5
61
  8
0
  6
CONTINUOUS
 62
     7
 10
4.3852110505
 20
8.1174804353
 30
0.0
 11
5.040532686
 21
8.5763415843
 31
0.0
  0
LINE
  5
62
  8
0
  6
CONTINUOUS
 62
     7
 10
2.2127000626
 20
11.0458029927
 30
0.0
 11
2.883881393
 21
11.5157692198
 31
0.0
  0
ARC
  5
63
  8
0
  6
CONTINUOUS
 62
     7
 10
2.0979847753
 20
11.2096334016
 30
0.0
 40
0.2000000000000011
 50
215.0
 51
305.0
  0
LINE
  5
64
  8
0
  6
CONTINUOUS
 62
     7
 10
1.8212456192
 20
11.2561685167
 30
0.0
 11
1.9341543665
 21
11.0949181143
 31
0.0
  0
ARC
  5
65
  8
0
  6
CONTINUOUS
 62
     7
 10
1.985076028
 20
11.370883804
 30
0.0
 40
0.2000000000000005
 50
153.8144807277
 51
215.0
  0
LINE
  5
66
  8
0
  6
CONTINUOUS
 62
     7
 10
2.704581121
 20
13.2872725281
 30
0.0
 11
1.8056020429
 21
11.4591396178
 31
0.0
  0
LINE
  5
67
  8
0
  6
CONTINUOUS
 62
     7
 10
3.8076121838
 20
13.4967929154
 30
0.0
 11
3.0410948431
 21
13.4967928773
 31
0.0
  0
LINE
  5
68
  8
0
  6
CONTINUOUS
 62
     7
 10
3.8076121475
 20
12.9967928773
 30
0.0
 11
3.8076121838
 21
13.4967929154
 31
0.0
  0
ARC
  5
69
  8
0
  6
CONTINUOUS
 62
     7
 10
4.3076121475
 20
12.9967928773
 30
0.0
 40
0.5
 50
180.0
 51
0.0
  0
LINE
  5
6A
  8
0
  6
CONTINUOUS
 62
     7
 10
4.8076122055
 20
13.4967928602
 30
0.0
 11
4.8076121475
 21
12.9967928773
 31
0.0
  0
LINE
  5
6B
  8
0
  6
CONTINUOUS
 62
     7
 10
5.4326121475
 20
13.4967928773
 30
0.0
 11
4.8076122055
 21
13.4967928602
 31
0.0
  0
LINE
  5
6C
  8
0
  6
CONTINUOUS
 62
     7
 10
5.8076121475
 20
9.0481249928
 30
0.0
 11
5.8076121475
 21
13.1217928773
 31
0.0
  0
LINE
  5
6D
  8
0
  6
CONTINUOUS
 62
     7
 10
4.42571151
 20
7.8852951053
 30
0.0
 11
5.6477033111
 21
8.7409429761
 31
0.0
  0
ARC
  5
6E
  8
0
  6
CONTINUOUS
 62
     7
 10
4.3109962227
 20
8.0491255142
 30
0.0
 40
0.2
 50
215.0
 51
305.0
  0
LINE
  5
6F
  8
0
  6
CONTINUOUS
 62
     7
 10
4.0342570665
 20
8.0956606293
 30
0.0
 11
4.1471658138
 21
7.9344102269
 31
0.0
  0
ARC
  5
70
  8
0
  6
CONTINUOUS
 62
     7
 10
4.1980874754
 20
8.2103759166
 30
0.0
 40
0.1999999999999997
 50
125.0
 51
215.0
  0
LINE
  5
71
  8
0
  6
CONTINUOUS
 62
     7
 10
4.7545535184
 20
8.8441725525
 30
0.0
 11
4.0833721881
 21
8.3742063255
 31
0.0
  0
ARC
  5
72
  8
0
  6
CONTINUOUS
 62
     7
 10
2.4149459979
 20
9.1966894257
 30
0.0
 40
2.5
 50
358.7775562232
 51
71.2224437768
  0
ENDSEC
  0
EOF
