  0
SECTION
  2
HEADER
  9
$ACADVER
  1
AC1009
  9
$DWGCODEPAGE
  3
ansi_1252
  9
$INSBASE
 10
0.0
 20
0.0
 30
0.0
  9
$EXTMIN
 10
0.0
 20
0.0
 30
0.0
  9
$EXTMAX
 10
36.0
 20
36.0
 30
0.0
  9
$LIMMIN
 10
0.0
 20
0.0
  9
$LIMMAX
 10
0.0
 20
0.0
  9
$ORTHOMODE
 70
     0
  9
$REGENMODE
 70
     1
  9
$FILLMODE
 70
     1
  9
$QTEXTMODE
 70
     0
  9
$MIRRTEXT
 70
     1
  9
$DRAGMODE
 70
     2
  9
$LTSCALE
 40
1.0
  9
$OSMODE
 70
    37
  9
$ATTMODE
 70
     1
  9
$TEXTSIZE
 40
0.1377952756
  9
$TRACEWID
 40
0.05
  9
$TEXTSTYLE
  7
STANDARD
  9
$CLAYER
  8
0
  9
$CELTYPE
  6
BYLAYER
  9
$CECOLOR
 62
   256
  9
$DIMSCALE
 40
1.0
  9
$DIMASZ
 40
0.156
  9
$DIMEXO
 40
0.05
  9
$DIMDLI
 40
0.38
  9
$DIMRND
 40
0.0
  9
$DIMDLE
 40
0.0
  9
$DIMEXE
 40
0.125
  9
$DIMTP
 40
0.0
  9
$DIMTM
 40
0.0
  9
$DIMTXT
 40
0.1377952756
  9
$DIMCEN
 40
0.09
  9
$DIMTSZ
 40
0.0
  9
$DIMTOL
 70
     0
  9
$DIMLIM
 70
     0
  9
$DIMTIH
 70
     1
  9
$DIMTOH
 70
     1
  9
$DIMSE1
 70
     0
  9
$DIMSE2
 70
     0
  9
$DIMTAD
 70
     0
  9
$DIMZIN
 70
     0
  9
$DIMBLK
  1

  9
$DIMASO
 70
     1
  9
$DIMSHO
 70
     1
  9
$DIMPOST
  1

  9
$DIMAPOST
  1

  9
$DIMALT
 70
     0
  9
$DIMALTD
 70
     2
  9
$DIMALTF
 40
25.4
  9
$DIMLFAC
 40
2.0
  9
$DIMTOFL
 70
     0
  9
$DIMTVP
 40
0.0
  9
$DIMTIX
 70
     0
  9
$DIMSOXD
 70
     0
  9
$DIMSAH
 70
     0
  9
$DIMBLK1
  1

  9
$DIMBLK2
  1

  9
$DIMSTYLE
  2
STANDARD
  9
$DIMCLRD
 70
     0
  9
$DIMCLRE
 70
     0
  9
$DIMCLRT
 70
     0
  9
$DIMTFAC
 40
1.0
  9
$DIMGAP
 40
0.06
  9
$LUNITS
 70
     2
  9
$LUPREC
 70
     2
  9
$SKETCHINC
 40
0.1
  9
$FILLETRAD
 40
0.5
  9
$AUNITS
 70
     0
  9
$AUPREC
 70
     0
  9
$MENU
  1
.
  9
$ELEVATION
 40
0.0
  9
$PELEVATION
 40
0.0
  9
$THICKNESS
 40
0.0
  9
$LIMCHECK
 70
     0
  9
$CHAMFERA
 40
0.5
  9
$CHAMFERB
 40
0.5
  9
$SKPOLY
 70
     0
  9
$TDCREATE
 40
2454244.976207315
  9
$TDUPDATE
 40
2454244.976207326
  9
$TDINDWG
 40
0.0000000116
  9
$TDUSRTIMER
 40
0.0000000116
  9
$USRTIMER
 70
     1
  9
$ANGBASE
 50
0.0
  9
$ANGDIR
 70
     0
  9
$PDMODE
 70
     0
  9
$PDSIZE
 40
-1.0
  9
$PLINEWID
 40
0.0
  9
$COORDS
 70
     1
  9
$SPLFRAME
 70
     0
  9
$SPLINETYPE
 70
     6
  9
$SPLINESEGS
 70
     8
  9
$ATTDIA
 70
     0
  9
$ATTREQ
 70
     1
  9
$HANDLING
 70
     1
  9
$HANDSEED
  5
54
  9
$SURFTAB1
 70
     6
  9
$SURFTAB2
 70
     6
  9
$SURFTYPE
 70
     6
  9
$SURFU
 70
     6
  9
$SURFV
 70
     6
  9
$UCSNAME
  2

  9
$UCSORG
 10
0.0
 20
0.0
 30
0.0
  9
$UCSXDIR
 10
1.0
 20
0.0
 30
0.0
  9
$UCSYDIR
 10
0.0
 20
1.0
 30
0.0
  9
$PUCSNAME
  2

  9
$PUCSORG
 10
0.0
 20
0.0
 30
0.0
  9
$PUCSXDIR
 10
1.0
 20
0.0
 30
0.0
  9
$PUCSYDIR
 10
0.0
 20
1.0
 30
0.0
  9
$USERI1
 70
     0
  9
$USERI2
 70
     0
  9
$USERI3
 70
     0
  9
$USERI4
 70
     0
  9
$USERI5
 70
     0
  9
$USERR1
 40
0.0
  9
$USERR2
 40
0.0
  9
$USERR3
 40
0.0
  9
$USERR4
 40
0.0
  9
$USERR5
 40
0.0
  9
$WORLDVIEW
 70
     1
  9
$SHADEDGE
 70
     3
  9
$SHADEDIF
 70
    70
  9
$TILEMODE
 70
     1
  9
$MAXACTVP
 70
    64
  9
$PLIMCHECK
 70
     0
  9
$PEXTMIN
 10
1.0000000000E+20
 20
1.0000000000E+20
 30
1.0000000000E+20
  9
$PEXTMAX
 10
-1.0000000000E+20
 20
-1.0000000000E+20
 30
-1.0000000000E+20
  9
$PLIMMIN
 10
0.0
 20
0.0
  9
$PLIMMAX
 10
12.0
 20
9.0
  9
$UNITMODE
 70
     0
  9
$VISRETAIN
 70
     1
  9
$PLINEGEN
 70
     0
  9
$PSLTSCALE
 70
     1
  0
ENDSEC
  0
SECTION
  2
TABLES
  0
TABLE
  2
VPORT
 70
     1
  0
VPORT
  2
*ACTIVE
 70
     0
 10
0.0
 20
0.0
 11
1.0
 21
1.0
 12
18.0
 22
18.0
 13
0.0
 23
0.0
 14
0.5
 24
0.5
 15
0.5
 25
0.5
 16
0.0
 26
0.0
 36
1.0
 17
0.0
 27
0.0
 37
0.0
 40
36.0
 41
1.0
 42
50.0
 43
0.0
 44
0.0
 50
0.0
 51
0.0
 71
     0
 72
  2000
 73
     1
 74
     3
 75
     0
 76
     0
 77
     0
 78
     0
  0
ENDTAB
  0
TABLE
  2
LTYPE
 70
     6
  0
LTYPE
  2
CONTINUOUS
 70
     0
  3
Solid line
 72
    65
 73
     0
 40
0.0
  0
LTYPE
  2
HIDDEN
 70
     0
  3
Hidden __ __ __ __ __ __ __ __ __ __ __ __ __ __
 72
    65
 73
     2
 40
0.075
 49
0.05
 49
-0.025
  0
LTYPE
  2
PHANTOM
 70
     0
  3
Phantom ______  __  __  ______  __  __  ______
 72
    65
 73
     6
 40
0.5
 49
0.25
 49
-0.05
 49
0.05
 49
-0.05
 49
0.05
 49
-0.05
  0
LTYPE
  2
CENTER
 70
     0
  3
Center ____ _ ____ _ ____ _ ____ _ ____ _ ____
 72
    65
 73
     4
 40
0.4
 49
0.25
 49
-0.05
 49
0.05
 49
-0.05
  0
LTYPE
  2
CENTERX2
 70
     0
  3
Center (2x) ________  __  ________  __  _____
 72
    65
 73
     4
 40
0.8
 49
0.5
 49
-0.1
 49
0.1
 49
-0.1
  0
LTYPE
  2
DOT2
 70
     0
  3
Dot (.5x) ........................................
 72
    65
 73
     2
 40
0.025
 49
0.0
 49
-0.025
  0
ENDTAB
  0
TABLE
  2
LAYER
 70
     1
  0
LAYER
  2
0
 70
     0
 62
     7
  6
CONTINUOUS
  0
ENDTAB
  0
TABLE
  2
STYLE
 70
     1
  0
STYLE
  2
STANDARD
 70
     0
 40
0.0
 41
1.0
 50
0.0
 71
     0
 42
0.2
  3
txt
  4

  0
ENDTAB
  0
TABLE
  2
VIEW
 70
     0
  0
ENDTAB
  0
TABLE
  2
UCS
 70
     0
  0
ENDTAB
  0
TABLE
  2
APPID
 70
     1
  0
APPID
  2
ACAD
 70
     0
  0
ENDTAB
  0
TABLE
  2
DIMSTYLE
 70
     1
  0
DIMSTYLE
  2
STANDARD
 70
     0
  3

  4

  5

  6

  7

 40
1.0
 41
0.18
 42
0.0625
 43
0.38
 44
0.18
 45
0.0
 46
0.0
 47
0.0
 48
0.0
140
0.18
141
0.09
142
0.0
143
25.4
144
1.0
145
0.0
146
1.0
147
0.09
 71
     0
 72
     0
 73
     1
 74
     1
 75
     0
 76
     0
 77
     0
 78
     0
170
     0
171
     2
172
     0
173
     0
174
     0
175
     0
176
     0
177
     0
178
     0
  0
ENDTAB
  0
ENDSEC
  0
SECTION
  2
BLOCKS
  0
BLOCK
  8
0
  2
$MODEL_SPACE
 70
     0
 10
0.0
 20
0.0
 30
0.0
  3
$MODEL_SPACE
  1

  0
ENDBLK
  5
21
  8
0
  0
BLOCK
 67
     1
  8
0
  2
$PAPER_SPACE
 70
     0
 10
0.0
 20
0.0
 30
0.0
  3
$PAPER_SPACE
  1

  0
ENDBLK
  5
1D
 67
     1
  8
0
  0
ENDSEC
  0
SECTION
  2
ENTITIES
  0
LINE
  5
2F
  8
0
  6
CONTINUOUS
 62
     7
 10
9.4700379026
 20
33.2201668494
 30
0.0
 11
9.7908137165
 21
33.3880639379
 31
0.0
  0
LINE
  5
30
  8
0
  6
CONTINUOUS
 62
     7
 10
9.7908137165
 20
33.3880639379
 30
0.0
 11
9.7258928112
 21
33.5120985858
 31
0.0
  0
LINE
  5
31
  8
0
  6
CONTINUOUS
 62
     7
 10
9.7258928112
 20
33.5120985858
 30
0.0
 11
9.3496383906
 21
33.3151634898
 31
0.0
  0
ARC
  5
32
  8
0
  6
CONTINUOUS
 62
     7
 10
6.2740260345
 20
29.2933114798
 30
0.0
 40
5.063070704134157
 50
52.5939380155
 51
82.4023281621
  0
LINE
  5
33
  8
0
  6
CONTINUOUS
 62
     7
 10
6.9434455629
 20
34.3119330485
 30
0.0
 11
7.2243018062
 21
34.5904191661
 31
0.0
  0
LINE
  5
34
  8
0
  6
CONTINUOUS
 62
     7
 10
7.2243018062
 20
34.5904191661
 30
0.0
 11
7.1593809009
 21
34.6558925971
 31
0.0
  0
LINE
  5
35
  8
0
  6
CONTINUOUS
 62
     7
 10
7.1593809009
 20
34.6558925971
 30
0.0
 11
6.8267983025
 21
34.3261166394
 31
0.0
  0
ARC
  5
36
  8
0
  6
CONTINUOUS
 62
     7
 10
6.2740260345
 20
29.2933114798
 30
0.0
 40
5.063070704134154
 50
83.7321086766
 51
118.4253694519
  0
LINE
  5
37
  8
0
  6
CONTINUOUS
 62
     7
 10
3.86393525
 20
33.7459676944
 30
0.0
 11
4.0767577511
 21
34.2178373095
 31
0.0
  0
LINE
  5
38
  8
0
  6
CONTINUOUS
 62
     7
 10
4.0767577511
 20
34.2178373095
 30
0.0
 11
4.0118368457
 21
34.247117918
 31
0.0
  0
LINE
  5
39
  8
0
  6
CONTINUOUS
 62
     7
 10
4.0118368457
 20
34.247117918
 30
0.0
 11
3.7596207255
 21
33.6879048509
 31
0.0
  0
ARC
  5
3A
  8
0
  6
CONTINUOUS
 62
     7
 10
6.2740260345
 20
29.2933114798
 30
0.0
 40
5.063070704134154
 50
119.7764119422
 51
150.9223238999
  0
LINE
  5
3B
  8
0
  6
CONTINUOUS
 62
     7
 10
1.8490964312
 20
31.7539380179
 30
0.0
 11
1.8490964312
 21
32.3913694425
 31
0.0
  0
LINE
  5
3C
  8
0
  6
CONTINUOUS
 62
     7
 10
1.8490964312
 20
32.3913694425
 30
0.0
 11
1.7841755258
 21
32.3913694425
 31
0.0
  0
LINE
  5
3D
  8
0
  6
CONTINUOUS
 62
     7
 10
1.7841755258
 20
32.3913694425
 30
0.0
 11
1.7841755258
 21
31.6333814284
 31
0.0
  0
ARC
  5
3E
  8
0
  6
CONTINUOUS
 62
     7
 10
6.2740260345
 20
29.2933114798
 30
0.0
 40
5.063070704134154
 50
152.4718770382
 51
156.7766881326
  0
ARC
  5
3F
  8
0
  6
CONTINUOUS
 62
     7
 10
1.7799897733
 20
27.5320266156
 30
0.0
 40
3.761087732701204
 50
92.4198372598
 51
102.2298000492
  0
LINE
  5
40
  8
0
  6
CONTINUOUS
 62
     7
 10
0.9832667843
 20
31.2077596597
 30
0.0
 11
0.8394498518
 21
31.5266302689
 31
0.0
  0
ARC
  5
41
  8
0
  6
CONTINUOUS
 62
     7
 10
6.2740260345
 20
29.2933114798
 30
0.0
 40
5.875570704134152
 50
93.4951814555
 51
157.6599715335
  0
LINE
  5
42
  8
0
  6
CONTINUOUS
 62
     7
 10
5.9158242361
 20
35.1579532055
 30
0.0
 11
5.6339092087
 21
34.7593572805
 31
0.0
  0
LINE
  5
43
  8
0
  6
CONTINUOUS
 62
     7
 10
5.6339092087
 20
34.7593572805
 30
0.0
 11
5.6988301141
 21
34.7134406575
 31
0.0
  0
LINE
  5
44
  8
0
  6
CONTINUOUS
 62
     7
 10
5.6988301141
 20
34.7134406575
 30
0.0
 11
6.016971433
 21
35.1632564566
 31
0.0
  0
ARC
  5
45
  8
0
  6
CONTINUOUS
 62
     7
 10
6.2740260345
 20
29.2933114798
 30
0.0
 40
5.875570704134152
 50
70.5329396884
 51
92.5074749222
  0
ARC
  5
46
  8
0
  6
CONTINUOUS
 62
     7
 10
6.7459793889
 20
30.8664434385
 30
0.0
 40
4.2358264167845
 50
58.8485448746
 51
69.4602778313
  0
LINE
  5
47
  8
0
  6
CONTINUOUS
 62
     7
 10
8.9371812878
 20
34.4914757946
 30
0.0
 11
8.6192366753
 21
34.2624249069
 31
0.0
  0
LINE
  5
48
  8
0
  6
CONTINUOUS
 62
     7
 10
8.6192366753
 20
34.2624249069
 30
0.0
 11
8.6841575807
 21
34.1723084603
 31
0.0
  0
LINE
  5
49
  8
0
  6
CONTINUOUS
 62
     7
 10
8.6841575807
 20
34.1723084603
 30
0.0
 11
9.0405725814
 21
34.4290738499
 31
0.0
  0
ARC
  5
4A
  8
0
  6
CONTINUOUS
 62
     7
 10
5.5418278678
 20
28.7902988832
 30
0.0
 40
6.63603780099331
 50
34.765595588
 51
58.181243263
  0
LINE
  5
4B
  8
0
  6
CONTINUOUS
 62
     7
 10
10.9932782245
 20
31.4483836057
 30
0.0
 11
10.9932782245
 21
32.5743029405
 31
0.0
  0
LINE
  5
4C
  8
0
  6
CONTINUOUS
 62
     7
 10
10.8691081409
 20
31.419318392
 30
0.0
 11
10.9932782245
 21
31.4483836057
 31
0.0
  0
ARC
  5
4D
  8
0
  6
CONTINUOUS
 62
     7
 10
6.2740260345
 20
29.2933114798
 30
0.0
 40
5.063070704134157
 50
24.8285675471
 51
50.858346034
  0
ENDSEC
  0
EOF
