  0
SECTION
  2
HEADER
  9
$ACADVER
  1
AC1009
  9
$DWGCODEPAGE
  3
ansi_1252
  9
$INSBASE
 10
0.0
 20
0.0
 30
0.0
  9
$EXTMIN
 10
0.0
 20
0.0
 30
0.0
  9
$EXTMAX
 10
24.0
 20
24.0
 30
0.0
  9
$LIMMIN
 10
0.0
 20
0.0
  9
$LIMMAX
 10
0.0
 20
0.0
  9
$ORTHOMODE
 70
     0
  9
$REGENMODE
 70
     1
  9
$FILLMODE
 70
     1
  9
$QTEXTMODE
 70
     0
  9
$MIRRTEXT
 70
     1
  9
$DRAGMODE
 70
     2
  9
$LTSCALE
 40
1.0
  9
$OSMODE
 70
    37
  9
$ATTMODE
 70
     1
  9
$TEXTSIZE
 40
0.1377952756
  9
$TRACEWID
 40
0.05
  9
$TEXTSTYLE
  7
STANDARD
  9
$CLAYER
  8
0
  9
$CELTYPE
  6
BYLAYER
  9
$CECOLOR
 62
   256
  9
$DIMSCALE
 40
1.0
  9
$DIMASZ
 40
0.156
  9
$DIMEXO
 40
0.05
  9
$DIMDLI
 40
0.38
  9
$DIMRND
 40
0.0
  9
$DIMDLE
 40
0.0
  9
$DIMEXE
 40
0.125
  9
$DIMTP
 40
0.0
  9
$DIMTM
 40
0.0
  9
$DIMTXT
 40
0.1377952756
  9
$DIMCEN
 40
0.09
  9
$DIMTSZ
 40
0.0
  9
$DIMTOL
 70
     0
  9
$DIMLIM
 70
     0
  9
$DIMTIH
 70
     1
  9
$DIMTOH
 70
     1
  9
$DIMSE1
 70
     0
  9
$DIMSE2
 70
     0
  9
$DIMTAD
 70
     0
  9
$DIMZIN
 70
     0
  9
$DIMBLK
  1

  9
$DIMASO
 70
     1
  9
$DIMSHO
 70
     1
  9
$DIMPOST
  1

  9
$DIMAPOST
  1

  9
$DIMALT
 70
     0
  9
$DIMALTD
 70
     2
  9
$DIMALTF
 40
25.4
  9
$DIMLFAC
 40
1.0
  9
$DIMTOFL
 70
     0
  9
$DIMTVP
 40
0.0
  9
$DIMTIX
 70
     0
  9
$DIMSOXD
 70
     0
  9
$DIMSAH
 70
     0
  9
$DIMBLK1
  1

  9
$DIMBLK2
  1

  9
$DIMSTYLE
  2
STANDARD
  9
$DIMCLRD
 70
     0
  9
$DIMCLRE
 70
     0
  9
$DIMCLRT
 70
     0
  9
$DIMTFAC
 40
1.0
  9
$DIMGAP
 40
0.06
  9
$LUNITS
 70
     2
  9
$LUPREC
 70
     2
  9
$SKETCHINC
 40
0.1
  9
$FILLETRAD
 40
0.5
  9
$AUNITS
 70
     0
  9
$AUPREC
 70
     0
  9
$MENU
  1
.
  9
$ELEVATION
 40
0.0
  9
$PELEVATION
 40
0.0
  9
$THICKNESS
 40
0.0
  9
$LIMCHECK
 70
     0
  9
$CHAMFERA
 40
0.5
  9
$CHAMFERB
 40
0.5
  9
$SKPOLY
 70
     0
  9
$TDCREATE
 40
2454314.86374963
  9
$TDUPDATE
 40
2454314.863749641
  9
$TDINDWG
 40
0.0000000116
  9
$TDUSRTIMER
 40
0.0000000116
  9
$USRTIMER
 70
     1
  9
$ANGBASE
 50
0.0
  9
$ANGDIR
 70
     0
  9
$PDMODE
 70
     0
  9
$PDSIZE
 40
-1.0
  9
$PLINEWID
 40
0.0
  9
$COORDS
 70
     1
  9
$SPLFRAME
 70
     0
  9
$SPLINETYPE
 70
     6
  9
$SPLINESEGS
 70
     8
  9
$ATTDIA
 70
     0
  9
$ATTREQ
 70
     1
  9
$HANDLING
 70
     1
  9
$HANDSEED
  5
66
  9
$SURFTAB1
 70
     6
  9
$SURFTAB2
 70
     6
  9
$SURFTYPE
 70
     6
  9
$SURFU
 70
     6
  9
$SURFV
 70
     6
  9
$UCSNAME
  2

  9
$UCSORG
 10
0.0
 20
0.0
 30
0.0
  9
$UCSXDIR
 10
1.0
 20
0.0
 30
0.0
  9
$UCSYDIR
 10
0.0
 20
1.0
 30
0.0
  9
$PUCSNAME
  2

  9
$PUCSORG
 10
0.0
 20
0.0
 30
0.0
  9
$PUCSXDIR
 10
1.0
 20
0.0
 30
0.0
  9
$PUCSYDIR
 10
0.0
 20
1.0
 30
0.0
  9
$USERI1
 70
     0
  9
$USERI2
 70
     0
  9
$USERI3
 70
     0
  9
$USERI4
 70
     0
  9
$USERI5
 70
     0
  9
$USERR1
 40
0.0
  9
$USERR2
 40
0.0
  9
$USERR3
 40
0.0
  9
$USERR4
 40
0.0
  9
$USERR5
 40
0.0
  9
$WORLDVIEW
 70
     1
  9
$SHADEDGE
 70
     3
  9
$SHADEDIF
 70
    70
  9
$TILEMODE
 70
     1
  9
$MAXACTVP
 70
    64
  9
$PLIMCHECK
 70
     0
  9
$PEXTMIN
 10
1.0000000000E+20
 20
1.0000000000E+20
 30
1.0000000000E+20
  9
$PEXTMAX
 10
-1.0000000000E+20
 20
-1.0000000000E+20
 30
-1.0000000000E+20
  9
$PLIMMIN
 10
0.0
 20
0.0
  9
$PLIMMAX
 10
12.0
 20
9.0
  9
$UNITMODE
 70
     0
  9
$VISRETAIN
 70
     1
  9
$PLINEGEN
 70
     0
  9
$PSLTSCALE
 70
     1
  0
ENDSEC
  0
SECTION
  2
TABLES
  0
TABLE
  2
VPORT
 70
     1
  0
VPORT
  2
*ACTIVE
 70
     0
 10
0.0
 20
0.0
 11
1.0
 21
1.0
 12
12.0
 22
12.0
 13
0.0
 23
0.0
 14
0.5
 24
0.5
 15
0.5
 25
0.5
 16
0.0
 26
0.0
 36
1.0
 17
0.0
 27
0.0
 37
0.0
 40
24.0
 41
1.0
 42
50.0
 43
0.0
 44
0.0
 50
0.0
 51
0.0
 71
     0
 72
  2000
 73
     1
 74
     3
 75
     0
 76
     0
 77
     0
 78
     0
  0
ENDTAB
  0
TABLE
  2
LTYPE
 70
     6
  0
LTYPE
  2
CONTINUOUS
 70
     0
  3
Solid line
 72
    65
 73
     0
 40
0.0
  0
LTYPE
  2
HIDDEN
 70
     0
  3
Hidden __ __ __ __ __ __ __ __ __ __ __ __ __ __
 72
    65
 73
     2
 40
0.075
 49
0.05
 49
-0.025
  0
LTYPE
  2
PHANTOM
 70
     0
  3
Phantom ______  __  __  ______  __  __  ______
 72
    65
 73
     6
 40
0.5
 49
0.25
 49
-0.05
 49
0.05
 49
-0.05
 49
0.05
 49
-0.05
  0
LTYPE
  2
CENTER
 70
     0
  3
Center ____ _ ____ _ ____ _ ____ _ ____ _ ____
 72
    65
 73
     4
 40
0.4
 49
0.25
 49
-0.05
 49
0.05
 49
-0.05
  0
LTYPE
  2
CENTERX2
 70
     0
  3
Center (2x) ________  __  ________  __  _____
 72
    65
 73
     4
 40
0.8
 49
0.5
 49
-0.1
 49
0.1
 49
-0.1
  0
LTYPE
  2
DOT2
 70
     0
  3
Dot (.5x) ........................................
 72
    65
 73
     2
 40
0.025
 49
0.0
 49
-0.025
  0
ENDTAB
  0
TABLE
  2
LAYER
 70
     1
  0
LAYER
  2
0
 70
     0
 62
     7
  6
CONTINUOUS
  0
ENDTAB
  0
TABLE
  2
STYLE
 70
     1
  0
STYLE
  2
STANDARD
 70
     0
 40
0.0
 41
1.0
 50
0.0
 71
     0
 42
0.2
  3
txt
  4

  0
ENDTAB
  0
TABLE
  2
VIEW
 70
     0
  0
ENDTAB
  0
TABLE
  2
UCS
 70
     0
  0
ENDTAB
  0
TABLE
  2
APPID
 70
     1
  0
APPID
  2
ACAD
 70
     0
  0
ENDTAB
  0
TABLE
  2
DIMSTYLE
 70
     1
  0
DIMSTYLE
  2
STANDARD
 70
     0
  3

  4

  5

  6

  7

 40
1.0
 41
0.18
 42
0.0625
 43
0.38
 44
0.18
 45
0.0
 46
0.0
 47
0.0
 48
0.0
140
0.18
141
0.09
142
0.0
143
25.4
144
1.0
145
0.0
146
1.0
147
0.09
 71
     0
 72
     0
 73
     1
 74
     1
 75
     0
 76
     0
 77
     0
 78
     0
170
     0
171
     2
172
     0
173
     0
174
     0
175
     0
176
     0
177
     0
178
     0
  0
ENDTAB
  0
ENDSEC
  0
SECTION
  2
BLOCKS
  0
BLOCK
  8
0
  2
$MODEL_SPACE
 70
     0
 10
0.0
 20
0.0
 30
0.0
  3
$MODEL_SPACE
  1

  0
ENDBLK
  5
21
  8
0
  0
BLOCK
 67
     1
  8
0
  2
$PAPER_SPACE
 70
     0
 10
0.0
 20
0.0
 30
0.0
  3
$PAPER_SPACE
  1

  0
ENDBLK
  5
1D
 67
     1
  8
0
  0
ENDSEC
  0
SECTION
  2
ENTITIES
  0
CIRCLE
  5
2F
  8
0
  6
CONTINUOUS
 62
     7
 10
9.8671705944
 20
17.6355276382
 30
0.0
 40
0.1875
  0
CIRCLE
  5
30
  8
0
  6
CONTINUOUS
 62
     7
 10
9.8671705944
 20
21.3855276382
 30
0.0
 40
0.1875
  0
ARC
  5
31
  8
0
  6
CONTINUOUS
 62
     7
 10
6.0381949289
 20
23.1355276382
 30
0.0
 40
0.375
 50
0.0
 51
90.0
  0
LINE
  5
32
  8
0
  6
CONTINUOUS
 62
     7
 10
6.4131949289
 20
23.1355276382
 30
0.0
 11
6.4131949289
 21
22.5105276382
 31
0.0
  0
ARC
  5
33
  8
0
  6
CONTINUOUS
 62
     7
 10
7.1631949289
 20
22.5105276382
 30
0.0
 40
0.7499999999999991
 50
180.0
 51
270.0
  0
LINE
  5
34
  8
0
  6
CONTINUOUS
 62
     7
 10
7.1631949289
 20
21.7605276382
 30
0.0
 11
10.242170599
 21
21.7605275927
 31
0.0
  0
LINE
  5
35
  8
0
  6
CONTINUOUS
 62
     7
 10
10.242170599
 20
21.7605275927
 30
0.0
 11
10.2421705944
 21
20.2605276382
 31
0.0
  0
ARC
  5
36
  8
0
  6
CONTINUOUS
 62
     7
 10
10.7421705944
 20
20.2605276382
 30
0.0
 40
0.5000000000000018
 50
180.0
 51
270.0
  0
ARC
  5
37
  8
0
  6
CONTINUOUS
 62
     7
 10
10.7421705944
 20
19.5105276382
 30
0.0
 40
0.2500000000000036
 50
270.0
 51
90.0
  0
ARC
  5
38
  8
0
  6
CONTINUOUS
 62
     7
 10
10.7421705944
 20
18.7605276382
 30
0.0
 40
0.5000000000000018
 50
90.0
 51
180.0
  0
LINE
  5
39
  8
0
  6
CONTINUOUS
 62
     7
 10
10.2421705944
 20
18.7605276382
 30
0.0
 11
10.242170599
 21
17.2605276837
 31
0.0
  0
LINE
  5
3A
  8
0
  6
CONTINUOUS
 62
     7
 10
10.242170599
 20
17.2605276837
 30
0.0
 11
0.5012968164
 21
17.2605276837
 31
0.0
  0
LINE
  5
3B
  8
0
  6
CONTINUOUS
 62
     7
 10
0.5012968164
 20
18.0105276197
 30
0.0
 11
0.5012968164
 21
17.2605276837
 31
0.0
  0
LINE
  5
3C
  8
0
  6
CONTINUOUS
 62
     7
 10
0.6262967423
 20
18.0105276382
 30
0.0
 11
0.5012968164
 21
18.0105276197
 31
0.0
  0
ARC
  5
3D
  8
0
  6
CONTINUOUS
 62
     7
 10
0.6262967423
 20
18.3855276382
 30
0.0
 40
0.3750000000000003
 50
270.0
 51
0.0
  0
LINE
  5
3E
  8
0
  6
CONTINUOUS
 62
     7
 10
1.0012967423
 20
20.6355276382
 30
0.0
 11
1.0012967423
 21
18.3855276382
 31
0.0
  0
ARC
  5
3F
  8
0
  6
CONTINUOUS
 62
     7
 10
0.6262967423
 20
20.6355276382
 30
0.0
 40
0.3750000000000003
 50
0.0
 51
90.0
  0
LINE
  5
40
  8
0
  6
CONTINUOUS
 62
     7
 10
0.5012968164
 20
21.0105276567
 30
0.0
 11
0.6262967423
 21
21.0105276382
 31
0.0
  0
LINE
  5
41
  8
0
  6
CONTINUOUS
 62
     7
 10
0.5012968164
 20
21.7605275927
 30
0.0
 11
0.5012968164
 21
21.0105276567
 31
0.0
  0
LINE
  5
42
  8
0
  6
CONTINUOUS
 62
     7
 10
0.5012968164
 20
21.7605275927
 30
0.0
 11
1.6631949289
 21
21.7605276382
 31
0.0
  0
ARC
  5
43
  8
0
  6
CONTINUOUS
 62
     7
 10
1.6631949289
 20
22.5105276382
 30
0.0
 40
0.7499999999999984
 50
270.0
 51
0.0
  0
LINE
  5
44
  8
0
  6
CONTINUOUS
 62
     7
 10
2.4131949289
 20
22.5105276382
 30
0.0
 11
2.4131949289
 21
23.1355276382
 31
0.0
  0
ARC
  5
45
  8
0
  6
CONTINUOUS
 62
     7
 10
2.7881949289
 20
23.1355276382
 30
0.0
 40
0.375
 50
90.0
 51
180.0
  0
LINE
  5
46
  8
0
  6
CONTINUOUS
 62
     7
 10
2.7881949289
 20
23.5105276382
 30
0.0
 11
6.0381949289
 21
23.5105276382
 31
0.0
  0
CIRCLE
  5
47
  8
0
  6
CONTINUOUS
 62
     7
 10
7.6887967423
 20
19.5105276382
 30
0.0
 40
0.5000000000000009
  0
ARC
  5
48
  8
0
  6
CONTINUOUS
 62
     7
 10
4.7196543571
 20
21.6044081831
 30
0.0
 40
0.3124999999999991
 50
234.807976767
 51
54.807976767
  0
LINE
  5
49
  8
0
  6
CONTINUOUS
 62
     7
 10
4.899753903
 20
21.8597910399
 30
0.0
 11
4.2868350466
 21
22.2920299501
 31
0.0
  0
ARC
  5
4A
  8
0
  6
CONTINUOUS
 62
     7
 10
4.1067355007
 20
22.0366470933
 30
0.0
 40
0.3125000000000039
 50
54.807976767
 51
234.807976767
  0
LINE
  5
4B
  8
0
  6
CONTINUOUS
 62
     7
 10
3.9266359548
 20
21.7812642365
 30
0.0
 11
4.5395548111
 21
21.3490253263
 31
0.0
  0
ARC
  5
4C
  8
0
  6
CONTINUOUS
 62
     7
 10
3.4598118374
 20
21.6044081831
 30
0.0
 40
0.1250000000000008
 50
234.807976767
 51
54.807976767
  0
LINE
  5
4D
  8
0
  6
CONTINUOUS
 62
     7
 10
3.5318516557
 20
21.7065613258
 30
0.0
 11
2.9189327994
 21
22.138800236
 31
0.0
  0
ARC
  5
4E
  8
0
  6
CONTINUOUS
 62
     7
 10
2.846892981
 20
22.0366470933
 30
0.0
 40
0.1249999999999995
 50
54.807976767
 51
234.807976767
  0
LINE
  5
4F
  8
0
  6
CONTINUOUS
 62
     7
 10
2.7748531626
 20
21.9344939506
 30
0.0
 11
3.387772019
 21
21.5022550403
 31
0.0
  0
ARC
  5
50
  8
0
  6
CONTINUOUS
 62
     7
 10
5.3495756169
 20
22.6954638099
 30
0.0
 40
0.1249999999999983
 50
234.807976767
 51
54.807976767
  0
LINE
  5
51
  8
0
  6
CONTINUOUS
 62
     7
 10
5.4216154353
 20
22.7976169526
 30
0.0
 11
4.8086965789
 21
23.2298558628
 31
0.0
  0
ARC
  5
52
  8
0
  6
CONTINUOUS
 62
     7
 10
4.7366567605
 20
23.1277027201
 30
0.0
 40
0.1250000000000106
 50
54.807976767
 51
234.807976767
  0
LINE
  5
53
  8
0
  6
CONTINUOUS
 62
     7
 10
4.6646169422
 20
23.0255495774
 30
0.0
 11
5.2775357985
 21
22.5933106672
 31
0.0
  0
ARC
  5
54
  8
0
  6
CONTINUOUS
 62
     7
 10
5.3495756169
 20
20.5133525563
 30
0.0
 40
0.124999999999997
 50
234.807976767
 51
54.807976767
  0
LINE
  5
55
  8
0
  6
CONTINUOUS
 62
     7
 10
5.4216154353
 20
20.615505699
 30
0.0
 11
4.8086965789
 21
21.0477446092
 31
0.0
  0
ARC
  5
56
  8
0
  6
CONTINUOUS
 62
     7
 10
4.7366567605
 20
20.9455914665
 30
0.0
 40
0.1250000000000014
 50
54.807976767
 51
234.807976767
  0
LINE
  5
57
  8
0
  6
CONTINUOUS
 62
     7
 10
4.6646169422
 20
20.8434383238
 30
0.0
 11
5.2775357985
 21
20.4111994135
 31
0.0
  0
ARC
  5
58
  8
0
  6
CONTINUOUS
 62
     7
 10
2.0612967423
 20
17.7605276382
 30
0.0
 40
0.125
 50
270.0
 51
90.0
  0
LINE
  5
59
  8
0
  6
CONTINUOUS
 62
     7
 10
2.0612967423
 20
17.8855276382
 30
0.0
 11
1.3112967423
 21
17.8855276382
 31
0.0
  0
ARC
  5
5A
  8
0
  6
CONTINUOUS
 62
     7
 10
1.3112967423
 20
17.7605276382
 30
0.0
 40
0.125
 50
90.0
 51
270.0
  0
LINE
  5
5B
  8
0
  6
CONTINUOUS
 62
     7
 10
1.3112967423
 20
17.6355276382
 30
0.0
 11
2.0612967423
 21
17.6355276382
 31
0.0
  0
ARC
  5
5C
  8
0
  6
CONTINUOUS
 62
     7
 10
2.0612967423
 20
21.2605276382
 30
0.0
 40
0.125
 50
270.0
 51
90.0
  0
LINE
  5
5D
  8
0
  6
CONTINUOUS
 62
     7
 10
2.0612967423
 20
21.3855276382
 30
0.0
 11
1.3112967423
 21
21.3855276382
 31
0.0
  0
ARC
  5
5E
  8
0
  6
CONTINUOUS
 62
     7
 10
1.3112967423
 20
21.2605276382
 30
0.0
 40
0.125
 50
90.0
 51
270.0
  0
LINE
  5
5F
  8
0
  6
CONTINUOUS
 62
     7
 10
1.3112967423
 20
21.1355276382
 30
0.0
 11
2.0612967423
 21
21.1355276382
 31
0.0
  0
ENDSEC
  0
EOF
