%
M48
M72
T01C0.0276
T02C0.0360
T03C0.0400
T04C0.0440
T05C0.0512
%
T01
X6506Y8254
X9506Y11504
X13006Y10754
X14006Y8754
X20006Y12504
X18006Y14504
X18006Y15004
X18006Y15504
X20256Y16754
X23256Y19004
X23506Y20754
X25166Y19784
X25256Y18504
X26506Y19754
X25296Y22504
X25336Y23504
X22006Y22504
X19256Y20754
X14256Y22004
X9006Y20254
X10756Y15004
X20256Y9504
X22756Y9504
X25256Y10504
X22756Y12504
X27256Y14504
X30756Y19754
X30756Y22754
X29006Y24504
X29506Y25504
X31506Y26254
X28506Y23504
X23756Y7004
X24506Y5004
X21506Y3754
X8256Y27504
X5006Y28254
X5756Y30504
T02
X3756Y30504
X2756Y30504
X2756Y29504
X3756Y29504
X3756Y28504
X2756Y28504
X2756Y27504
X3756Y27504
X3756Y26504
X2756Y26504
X2756Y23504
X3756Y23504
X3756Y22504
X2756Y22504
X2756Y21504
X3756Y21504
X3756Y20504
X2756Y20504
X2756Y19504
X3756Y19504
X3756Y18504
X2756Y18504
X2756Y17504
X3756Y17504
X6256Y17004
X6256Y18004
X7256Y18004
X7256Y17004
X7256Y16004
X7256Y15004
X7256Y14004
X6256Y14004
X6256Y15004
X6256Y16004
X3756Y14504
X2756Y14504
X2756Y13504
X3756Y13504
X3756Y12504
X2756Y12504
X2756Y11504
X3756Y11504
X3756Y10504
X2756Y10504
X2756Y9504
X3756Y9504
X3756Y8504
X2756Y8504
X2756Y7504
X3756Y7504
X6256Y21504
X6256Y22504
X6256Y23504
X6256Y24504
X6256Y25504
X6256Y26504
X6256Y27504
X6256Y28504
X7256Y28504
X7256Y27504
X7256Y26504
X7256Y25504
X7256Y24504
X7256Y23504
X7256Y22504
X7256Y21504
X9756Y24754
X9756Y25754
X10756Y25754
X10756Y24754
X32256Y14504
X32256Y13504
T03
X2506Y2504
X2506Y3504
X3506Y3504
X4506Y3504
X5506Y3504
X6506Y3504
X6506Y2504
X5506Y2504
X4506Y2504
X3506Y2504
X10006Y2504
X10006Y3504
X11006Y3504
X12006Y3504
X13006Y3504
X14006Y3504
X14006Y2504
X13006Y2504
X12006Y2504
X11006Y2504
X23256Y2254
X23256Y3254
X24256Y3254
X25256Y3254
X26256Y3254
X27256Y3254
X28256Y3254
X28256Y2254
X27256Y2254
X26256Y2254
X25256Y2254
X24256Y2254
X34256Y3504
X34256Y4504
X34256Y5504
X34256Y6504
X34256Y7504
X34256Y8504
X34256Y9504
X34256Y10504
X35256Y10504
X35256Y9504
X35256Y8504
X35256Y7504
X35256Y6504
X35256Y5504
X35256Y4504
X35256Y3504
X29756Y14004
X29756Y15004
X29756Y16004
X28756Y16004
X28756Y15004
X28756Y14004
X34256Y22504
X34256Y23504
X34256Y24504
X34256Y25504
X34256Y26504
X34256Y27504
X34256Y28504
X34256Y29504
X35256Y29504
X35256Y28504
X35256Y27504
X35256Y26504
X35256Y25504
X35256Y24504
X35256Y23504
X35256Y22504
X31756Y28004
X30756Y28004
X30756Y29004
X31756Y29004
X29756Y29004
X29756Y28004
X28756Y28004
X27756Y28004
X27756Y29004
X28756Y29004
X26756Y29004
X25756Y29004
X25756Y28004
X26756Y28004
X24756Y28004
X24756Y29004
X23756Y29004
X23756Y28004
X21256Y28004
X21256Y29004
X20256Y29004
X20256Y28004
X19256Y28004
X19256Y29004
X15756Y29004
X15756Y28004
X14756Y28004
X13756Y28004
X13756Y29004
X14756Y29004
X12756Y29004
X11756Y29004
X11756Y28004
X12756Y28004
X19256Y25504
X20256Y25504
X21256Y25504
X21256Y24504
X20256Y24504
X19256Y24504
T04
X28256Y9754
X28256Y5754
T05
X30022Y8004
X31990Y8004
X17990Y10254
X16022Y10254
M30
