G75*
G70*
%OFA0B0*%
%FSLAX24Y24*%
%IPPOS*%
%LPD*%
%AMOC8*
5,1,8,0,0,1.08239X$1,22.5*
%
%ADD10C,0.0000*%
%ADD11C,0.0640*%
%ADD12OC8,0.0640*%
%ADD13C,0.0680*%
%ADD14OC8,0.0680*%
%ADD15O,0.1200X0.0640*%
%ADD16O,0.0848X0.1615*%
%ADD17C,0.0740*%
%ADD18R,0.0516X0.0516*%
D10*
X000756Y000504D02*
X000756Y031504D01*
X037756Y031504D01*
X037756Y000504D01*
X000756Y000504D01*
D11*
X007256Y018004D03*
X002756Y023504D03*
X003756Y030504D03*
D12*
X002756Y030504D03*
X002756Y029504D03*
X003756Y029504D03*
X003756Y028504D03*
X002756Y028504D03*
X002756Y027504D03*
X003756Y027504D03*
X003756Y026504D03*
X002756Y026504D03*
X003756Y023504D03*
X003756Y022504D03*
X002756Y022504D03*
X002756Y021504D03*
X003756Y021504D03*
X003756Y020504D03*
X002756Y020504D03*
X002756Y019504D03*
X003756Y019504D03*
X003756Y018504D03*
X002756Y018504D03*
X002756Y017504D03*
X003756Y017504D03*
X006256Y017004D03*
X006256Y018004D03*
X007256Y017004D03*
X007256Y016004D03*
X007256Y015004D03*
X007256Y014004D03*
X006256Y014004D03*
X006256Y015004D03*
X006256Y016004D03*
X003756Y014504D03*
X002756Y014504D03*
X002756Y013504D03*
X003756Y013504D03*
X003756Y012504D03*
X002756Y012504D03*
X002756Y011504D03*
X003756Y011504D03*
X003756Y010504D03*
X002756Y010504D03*
X002756Y009504D03*
X003756Y009504D03*
X003756Y008504D03*
X002756Y008504D03*
X002756Y007504D03*
X003756Y007504D03*
X006256Y021504D03*
X006256Y022504D03*
X006256Y023504D03*
X006256Y024504D03*
X006256Y025504D03*
X006256Y026504D03*
X006256Y027504D03*
X006256Y028504D03*
X007256Y028504D03*
X007256Y027504D03*
X007256Y026504D03*
X007256Y025504D03*
X007256Y024504D03*
X007256Y023504D03*
X007256Y022504D03*
X007256Y021504D03*
X009756Y024754D03*
X009756Y025754D03*
X010756Y025754D03*
X010756Y024754D03*
D13*
X019256Y024504D03*
X019256Y028004D03*
X029756Y014004D03*
D14*
X029756Y015004D03*
X029756Y016004D03*
X028756Y016004D03*
X028756Y015004D03*
X028756Y014004D03*
X034256Y010504D03*
X035256Y010504D03*
X035256Y009504D03*
X035256Y008504D03*
X035256Y007504D03*
X035256Y006504D03*
X035256Y005504D03*
X035256Y004504D03*
X035256Y003504D03*
X034256Y003504D03*
X034256Y004504D03*
X034256Y005504D03*
X034256Y006504D03*
X034256Y007504D03*
X034256Y008504D03*
X034256Y009504D03*
X028256Y003254D03*
X028256Y002254D03*
X027256Y002254D03*
X026256Y002254D03*
X026256Y003254D03*
X027256Y003254D03*
X025256Y003254D03*
X024256Y003254D03*
X024256Y002254D03*
X025256Y002254D03*
X023256Y002254D03*
X023256Y003254D03*
X014006Y003504D03*
X013006Y003504D03*
X013006Y002504D03*
X014006Y002504D03*
X012006Y002504D03*
X011006Y002504D03*
X011006Y003504D03*
X012006Y003504D03*
X010006Y003504D03*
X010006Y002504D03*
X006506Y002504D03*
X006506Y003504D03*
X005506Y003504D03*
X005506Y002504D03*
X004506Y002504D03*
X003506Y002504D03*
X003506Y003504D03*
X004506Y003504D03*
X002506Y003504D03*
X002506Y002504D03*
X020256Y024504D03*
X020256Y025504D03*
X021256Y025504D03*
X021256Y024504D03*
X019256Y025504D03*
X020256Y028004D03*
X020256Y029004D03*
X021256Y029004D03*
X021256Y028004D03*
X019256Y029004D03*
X015756Y029004D03*
X015756Y028004D03*
X014756Y028004D03*
X013756Y028004D03*
X013756Y029004D03*
X014756Y029004D03*
X012756Y029004D03*
X011756Y029004D03*
X011756Y028004D03*
X012756Y028004D03*
X023756Y028004D03*
X023756Y029004D03*
X024756Y029004D03*
X025756Y029004D03*
X026756Y029004D03*
X027756Y029004D03*
X028756Y029004D03*
X029756Y029004D03*
X030756Y029004D03*
X031756Y029004D03*
X031756Y028004D03*
X030756Y028004D03*
X029756Y028004D03*
X028756Y028004D03*
X027756Y028004D03*
X026756Y028004D03*
X025756Y028004D03*
X024756Y028004D03*
X034256Y028504D03*
X034256Y029504D03*
X035256Y029504D03*
X035256Y028504D03*
X035256Y027504D03*
X035256Y026504D03*
X035256Y025504D03*
X035256Y024504D03*
X035256Y023504D03*
X035256Y022504D03*
X034256Y022504D03*
X034256Y023504D03*
X034256Y024504D03*
X034256Y025504D03*
X034256Y026504D03*
X034256Y027504D03*
D15*
X032256Y014504D03*
X032256Y013504D03*
D16*
X031990Y008004D03*
X030022Y008004D03*
X017990Y010254D03*
X016022Y010254D03*
D17*
X028256Y009754D03*
X028256Y005754D03*
D18*
X024506Y005004D03*
X023756Y007004D03*
X022756Y009504D03*
X025256Y010504D03*
X022756Y012504D03*
X020006Y012504D03*
X018006Y014504D03*
X018006Y015004D03*
X018006Y015504D03*
X020256Y016754D03*
X023256Y019004D03*
X023506Y020754D03*
X025166Y019784D03*
X025256Y018504D03*
X026506Y019754D03*
X025296Y022504D03*
X025336Y023504D03*
X022006Y022504D03*
X019256Y020754D03*
X014256Y022004D03*
X009006Y020254D03*
X010756Y015004D03*
X009506Y011504D03*
X013006Y010754D03*
X014006Y008754D03*
X020256Y009504D03*
X021506Y003754D03*
X027256Y014504D03*
X030756Y019754D03*
X030756Y022754D03*
X029006Y024504D03*
X029506Y025504D03*
X031506Y026254D03*
X028506Y023504D03*
X008256Y027504D03*
X005006Y028254D03*
X005756Y030504D03*
X006506Y008254D03*
M02*
