G75*
G70*
%OFA0B0*%
%FSLAX24Y24*%
%IPPOS*%
%LPD*%
%AMOC8*
5,1,8,0,0,1.08239X$1,22.5*
%
%ADD10C,0.0000*%
%ADD11C,0.0150*%
%ADD12C,0.0110*%
%ADD13R,0.0500X0.0220*%
%ADD14R,0.0220X0.0500*%
%ADD15C,0.0560*%
%ADD16OC8,0.0560*%
%ADD17R,0.0800X0.0260*%
%ADD18R,0.0787X0.0630*%
%ADD19R,0.0710X0.0630*%
%ADD20R,0.1339X0.0748*%
%ADD21C,0.0600*%
%ADD22OC8,0.0600*%
%ADD23R,0.0709X0.0630*%
%ADD24R,0.0760X0.2100*%
%ADD25R,0.0945X0.1024*%
%ADD26R,0.0630X0.0709*%
%ADD27O,0.1120X0.0560*%
%ADD28O,0.0768X0.1535*%
%ADD29R,0.0630X0.0787*%
%ADD30C,0.0660*%
%ADD31C,0.0160*%
%ADD32R,0.0436X0.0436*%
%ADD33C,0.0500*%
%ADD34C,0.0320*%
%ADD35C,0.0240*%
%ADD36C,0.0560*%
%ADD37C,0.0100*%
%ADD38C,0.0700*%
%ADD39C,0.0120*%
D10*
X000756Y000504D02*
X000756Y031504D01*
X037756Y031504D01*
X037756Y000504D01*
X000756Y000504D01*
D11*
X015581Y004221D02*
X015723Y004079D01*
X016006Y004079D01*
X016148Y004221D01*
X016148Y004362D01*
X016006Y004504D01*
X015723Y004504D01*
X015581Y004646D01*
X015581Y004788D01*
X015723Y004930D01*
X016006Y004930D01*
X016148Y004788D01*
X016502Y004930D02*
X016502Y004079D01*
X016785Y004362D01*
X017069Y004079D01*
X017069Y004930D01*
X017422Y004646D02*
X017706Y004930D01*
X017990Y004646D01*
X017990Y004079D01*
X018343Y004079D02*
X018343Y004930D01*
X018769Y004930D01*
X018910Y004788D01*
X018910Y004504D01*
X018769Y004362D01*
X018343Y004362D01*
X018627Y004362D02*
X018910Y004079D01*
X019264Y004079D02*
X019264Y004930D01*
X019547Y004646D01*
X019831Y004930D01*
X019831Y004079D01*
X017990Y004504D02*
X017422Y004504D01*
X017422Y004646D02*
X017422Y004079D01*
D12*
X016493Y003149D02*
X016493Y002559D01*
X016788Y002559D01*
X016886Y002657D01*
X016886Y002854D01*
X016788Y002953D01*
X016493Y002953D01*
X016251Y002953D02*
X016152Y002953D01*
X015955Y002756D01*
X015955Y002559D02*
X015955Y002953D01*
X015705Y002854D02*
X015606Y002953D01*
X015409Y002953D01*
X015311Y002854D01*
X015311Y002657D01*
X015409Y002559D01*
X015606Y002559D01*
X015705Y002657D01*
X015705Y002854D01*
X015811Y001649D02*
X016106Y001649D01*
X016205Y001551D01*
X016205Y001354D01*
X016106Y001256D01*
X015811Y001256D01*
X016008Y001256D02*
X016205Y001059D01*
X016455Y001059D02*
X016849Y001059D01*
X017100Y001256D02*
X017297Y001059D01*
X017494Y001256D01*
X017494Y001649D01*
X017744Y001453D02*
X017941Y001649D01*
X017941Y001059D01*
X017744Y001059D02*
X018138Y001059D01*
X017100Y001256D02*
X017100Y001649D01*
X016849Y001649D02*
X016455Y001649D01*
X016455Y001059D01*
X016455Y001354D02*
X016652Y001354D01*
X015811Y001059D02*
X015811Y001649D01*
X017137Y002559D02*
X017432Y002559D01*
X017531Y002657D01*
X017432Y002756D01*
X017235Y002756D01*
X017137Y002854D01*
X017235Y002953D01*
X017531Y002953D01*
X017782Y002953D02*
X017782Y002657D01*
X017880Y002559D01*
X017978Y002657D01*
X018077Y002559D01*
X018175Y002657D01*
X018175Y002953D01*
X018524Y002953D02*
X018721Y002953D01*
X018820Y002854D01*
X018820Y002559D01*
X018524Y002559D01*
X018426Y002657D01*
X018524Y002756D01*
X018820Y002756D01*
X019071Y002756D02*
X019267Y002953D01*
X019366Y002953D01*
X019608Y002953D02*
X019706Y002953D01*
X019805Y002854D01*
X019903Y002953D01*
X020001Y002854D01*
X020001Y002559D01*
X019805Y002559D02*
X019805Y002854D01*
X019608Y002953D02*
X019608Y002559D01*
X019071Y002559D02*
X019071Y002953D01*
X020252Y002657D02*
X020252Y002559D01*
X020351Y002559D01*
X020351Y002657D01*
X020252Y002657D01*
X020574Y002657D02*
X020673Y002559D01*
X020968Y002559D01*
X021219Y002657D02*
X021317Y002559D01*
X021514Y002559D01*
X021613Y002657D01*
X021613Y002854D01*
X021514Y002953D01*
X021317Y002953D01*
X021219Y002854D01*
X021219Y002657D01*
X020968Y002953D02*
X020673Y002953D01*
X020574Y002854D01*
X020574Y002657D01*
X020645Y001649D02*
X020744Y001551D01*
X020350Y001157D01*
X020448Y001059D01*
X020645Y001059D01*
X020744Y001157D01*
X020744Y001551D01*
X020645Y001649D02*
X020448Y001649D01*
X020350Y001551D01*
X020350Y001157D01*
X020099Y001157D02*
X020001Y001059D01*
X019804Y001059D01*
X019705Y001157D01*
X020099Y001551D01*
X020099Y001157D01*
X019705Y001157D02*
X019705Y001551D01*
X019804Y001649D01*
X020001Y001649D01*
X020099Y001551D01*
X019455Y001551D02*
X019356Y001649D01*
X019159Y001649D01*
X019061Y001551D01*
X019455Y001551D02*
X019455Y001453D01*
X019061Y001059D01*
X019455Y001059D01*
X020994Y001059D02*
X020994Y001157D01*
X021388Y001551D01*
X021388Y001649D01*
X020994Y001649D01*
X021864Y002559D02*
X021864Y002953D01*
X021962Y002953D01*
X022060Y002854D01*
X022159Y002953D01*
X022257Y002854D01*
X022257Y002559D01*
X022060Y002559D02*
X022060Y002854D01*
D13*
X024066Y017902D03*
X024066Y018217D03*
X024066Y018531D03*
X024066Y018846D03*
X024066Y019161D03*
X024066Y019476D03*
X024066Y019791D03*
X024066Y020106D03*
X027446Y020106D03*
X027446Y019791D03*
X027446Y019476D03*
X027446Y019161D03*
X027446Y018846D03*
X027446Y018531D03*
X027446Y018217D03*
X027446Y017902D03*
D14*
X026858Y017314D03*
X026543Y017314D03*
X026228Y017314D03*
X025913Y017314D03*
X025598Y017314D03*
X025283Y017314D03*
X024969Y017314D03*
X024654Y017314D03*
X024654Y020694D03*
X024969Y020694D03*
X025283Y020694D03*
X025598Y020694D03*
X025913Y020694D03*
X026228Y020694D03*
X026543Y020694D03*
X026858Y020694D03*
D15*
X007256Y018004D03*
X002756Y023504D03*
X003756Y030504D03*
D16*
X002756Y030504D03*
X002756Y029504D03*
X003756Y029504D03*
X003756Y028504D03*
X002756Y028504D03*
X002756Y027504D03*
X003756Y027504D03*
X003756Y026504D03*
X002756Y026504D03*
X003756Y023504D03*
X003756Y022504D03*
X002756Y022504D03*
X002756Y021504D03*
X003756Y021504D03*
X003756Y020504D03*
X002756Y020504D03*
X002756Y019504D03*
X003756Y019504D03*
X003756Y018504D03*
X002756Y018504D03*
X002756Y017504D03*
X003756Y017504D03*
X006256Y017004D03*
X006256Y018004D03*
X007256Y017004D03*
X007256Y016004D03*
X007256Y015004D03*
X007256Y014004D03*
X006256Y014004D03*
X006256Y015004D03*
X006256Y016004D03*
X003756Y014504D03*
X002756Y014504D03*
X002756Y013504D03*
X003756Y013504D03*
X003756Y012504D03*
X002756Y012504D03*
X002756Y011504D03*
X003756Y011504D03*
X003756Y010504D03*
X002756Y010504D03*
X002756Y009504D03*
X003756Y009504D03*
X003756Y008504D03*
X002756Y008504D03*
X002756Y007504D03*
X003756Y007504D03*
X006256Y021504D03*
X006256Y022504D03*
X006256Y023504D03*
X006256Y024504D03*
X006256Y025504D03*
X006256Y026504D03*
X006256Y027504D03*
X006256Y028504D03*
X007256Y028504D03*
X007256Y027504D03*
X007256Y026504D03*
X007256Y025504D03*
X007256Y024504D03*
X007256Y023504D03*
X007256Y022504D03*
X007256Y021504D03*
X009756Y024754D03*
X009756Y025754D03*
X010756Y025754D03*
X010756Y024754D03*
D17*
X010296Y009754D03*
X010296Y009254D03*
X010296Y008754D03*
X010296Y008254D03*
X010296Y007754D03*
X010296Y007254D03*
X010296Y006754D03*
X010296Y006254D03*
X012716Y006254D03*
X012716Y006754D03*
X012716Y007254D03*
X012716Y007754D03*
X012716Y008254D03*
X012716Y008754D03*
X012716Y009254D03*
X012716Y009754D03*
D18*
X021506Y008055D03*
X021506Y006953D03*
X021506Y005805D03*
X021506Y004703D03*
X025256Y014203D03*
X025256Y015305D03*
X015256Y022203D03*
X015256Y023305D03*
X015756Y024703D03*
X015756Y025805D03*
X010756Y022055D03*
X010756Y020953D03*
X010756Y019555D03*
X010756Y018453D03*
D19*
X025256Y012814D03*
X025256Y011694D03*
D20*
X032006Y015986D03*
X032006Y017522D03*
D21*
X029756Y014004D03*
X019256Y024504D03*
X019256Y028004D03*
D22*
X019256Y029004D03*
X020256Y029004D03*
X021256Y029004D03*
X021256Y028004D03*
X020256Y028004D03*
X020256Y025504D03*
X021256Y025504D03*
X021256Y024504D03*
X020256Y024504D03*
X019256Y025504D03*
X015756Y028004D03*
X015756Y029004D03*
X014756Y029004D03*
X013756Y029004D03*
X013756Y028004D03*
X014756Y028004D03*
X012756Y028004D03*
X011756Y028004D03*
X011756Y029004D03*
X012756Y029004D03*
X023756Y029004D03*
X024756Y029004D03*
X025756Y029004D03*
X026756Y029004D03*
X027756Y029004D03*
X028756Y029004D03*
X029756Y029004D03*
X030756Y029004D03*
X031756Y029004D03*
X031756Y028004D03*
X030756Y028004D03*
X029756Y028004D03*
X028756Y028004D03*
X027756Y028004D03*
X026756Y028004D03*
X025756Y028004D03*
X024756Y028004D03*
X023756Y028004D03*
X034256Y027504D03*
X034256Y028504D03*
X034256Y029504D03*
X035256Y029504D03*
X035256Y028504D03*
X035256Y027504D03*
X035256Y026504D03*
X035256Y025504D03*
X035256Y024504D03*
X035256Y023504D03*
X035256Y022504D03*
X034256Y022504D03*
X034256Y023504D03*
X034256Y024504D03*
X034256Y025504D03*
X034256Y026504D03*
X029756Y016004D03*
X029756Y015004D03*
X028756Y015004D03*
X028756Y016004D03*
X028756Y014004D03*
X034256Y010504D03*
X035256Y010504D03*
X035256Y009504D03*
X035256Y008504D03*
X035256Y007504D03*
X035256Y006504D03*
X035256Y005504D03*
X035256Y004504D03*
X035256Y003504D03*
X034256Y003504D03*
X034256Y004504D03*
X034256Y005504D03*
X034256Y006504D03*
X034256Y007504D03*
X034256Y008504D03*
X034256Y009504D03*
X028256Y003254D03*
X028256Y002254D03*
X027256Y002254D03*
X026256Y002254D03*
X026256Y003254D03*
X027256Y003254D03*
X025256Y003254D03*
X024256Y003254D03*
X024256Y002254D03*
X025256Y002254D03*
X023256Y002254D03*
X023256Y003254D03*
X014006Y003504D03*
X013006Y003504D03*
X013006Y002504D03*
X014006Y002504D03*
X012006Y002504D03*
X011006Y002504D03*
X011006Y003504D03*
X012006Y003504D03*
X010006Y003504D03*
X010006Y002504D03*
X006506Y002504D03*
X006506Y003504D03*
X005506Y003504D03*
X005506Y002504D03*
X004506Y002504D03*
X003506Y002504D03*
X003506Y003504D03*
X004506Y003504D03*
X002506Y003504D03*
X002506Y002504D03*
D23*
X006506Y006203D03*
X006506Y007305D03*
X008756Y008703D03*
X008756Y009805D03*
X014006Y009453D03*
X014006Y010555D03*
X019946Y010443D03*
X019946Y011545D03*
X020256Y014453D03*
X020256Y015555D03*
X020256Y017453D03*
X020256Y018555D03*
X022756Y019703D03*
X022756Y020805D03*
X018006Y024453D03*
X018006Y025555D03*
X017256Y028453D03*
X017256Y029555D03*
X022506Y029055D03*
X022506Y027953D03*
X024756Y026555D03*
X024756Y025453D03*
X030756Y021805D03*
X030756Y020703D03*
X028756Y012805D03*
X028756Y011703D03*
X030006Y003555D03*
X030006Y002453D03*
X009256Y027453D03*
X009256Y028555D03*
D24*
X021756Y018404D03*
X021756Y014604D03*
D25*
X021506Y012264D03*
X021506Y009744D03*
X032006Y004514D03*
X032006Y001994D03*
D26*
X008807Y007254D03*
X007705Y007254D03*
X007557Y009254D03*
X006455Y009254D03*
X003807Y025004D03*
X002705Y025004D03*
D27*
X032256Y014504D03*
X032256Y013504D03*
D28*
X031990Y008004D03*
X030022Y008004D03*
X017990Y010254D03*
X016022Y010254D03*
D29*
X015057Y006004D03*
X013955Y006004D03*
D30*
X028256Y005754D03*
X028256Y009754D03*
D31*
X027256Y009004D02*
X027256Y014504D01*
X027756Y015004D02*
X028756Y015004D01*
X029006Y015504D02*
X028256Y015504D01*
X028006Y015754D01*
X026858Y016902D01*
X026858Y017314D01*
X026543Y017314D02*
X026543Y016217D01*
X027756Y015004D01*
X026756Y015314D02*
X026756Y009754D01*
X025756Y008504D01*
X025756Y002754D01*
X025256Y002254D01*
X025006Y001754D02*
X026006Y001754D01*
X026256Y002004D01*
X026256Y002254D01*
X026756Y002754D02*
X026756Y008254D01*
X027256Y009004D01*
X026256Y010504D02*
X026256Y015294D01*
X025916Y015634D01*
X025916Y017311D01*
X025913Y017314D01*
X026216Y017301D02*
X026216Y015854D01*
X026756Y015314D01*
X025606Y016324D02*
X025256Y015724D01*
X025256Y015305D01*
X025256Y015254D01*
X024256Y015254D02*
X025276Y016556D01*
X025283Y017314D01*
X025596Y017316D02*
X025598Y017314D01*
X025606Y017306D01*
X025606Y016324D01*
X024956Y016834D02*
X023756Y015504D01*
X023756Y007004D01*
X022506Y008004D02*
X021506Y008004D01*
X022506Y008004D02*
X022506Y004754D01*
X023756Y003754D01*
X023756Y002754D01*
X024256Y002254D01*
X024756Y002004D02*
X025006Y001754D01*
X024756Y002004D02*
X024756Y004004D01*
X023256Y005254D01*
X023266Y015954D01*
X024344Y017004D01*
X024654Y017314D01*
X024956Y017301D02*
X024956Y016834D01*
X024956Y017301D02*
X024969Y017314D01*
X024066Y017902D02*
X024064Y017904D01*
X023636Y017904D01*
X022506Y016774D01*
X022506Y016754D01*
X021656Y015504D01*
X021756Y014604D01*
X021506Y014504D01*
X020057Y014504D01*
X020256Y014453D01*
X020256Y015555D02*
X020256Y016754D01*
X020256Y017453D01*
X020057Y018504D02*
X021506Y018504D01*
X021756Y018404D01*
X021756Y018217D01*
X024066Y018217D01*
X024066Y018531D02*
X023256Y018531D01*
X023256Y019004D01*
X023256Y019174D01*
X023246Y019164D01*
X023813Y019164D01*
X024066Y019161D01*
X024068Y019474D02*
X024606Y019484D01*
X024726Y019364D01*
X024726Y018844D01*
X025256Y018504D01*
X024796Y018814D01*
X024066Y018844D01*
X024066Y018846D01*
X024068Y019474D02*
X024066Y019476D01*
X023698Y019476D01*
X023352Y019882D01*
X023346Y020086D01*
X023346Y020754D01*
X023506Y020754D01*
X023346Y020754D02*
X023006Y020754D01*
X022756Y020754D01*
X022756Y020805D02*
X023006Y020754D01*
X023256Y021754D02*
X023256Y022754D01*
X021256Y024504D01*
X021256Y025504D02*
X023756Y023004D01*
X023756Y022004D01*
X024646Y021134D01*
X024654Y020694D01*
X024956Y020714D02*
X024956Y021444D01*
X024256Y022254D01*
X024256Y023254D01*
X022006Y025504D01*
X022006Y026004D01*
X021756Y026254D01*
X017506Y026254D01*
X015756Y025754D01*
X010756Y025754D01*
X010256Y026254D02*
X010256Y024754D01*
X010256Y024504D01*
X009756Y024004D01*
X006756Y024004D01*
X006256Y024504D01*
X005506Y025004D02*
X006006Y025504D01*
X006256Y025504D01*
X006756Y026004D01*
X007756Y026004D01*
X008756Y024754D01*
X009756Y024754D01*
X010256Y024754D02*
X010756Y024754D01*
X009756Y025754D02*
X008756Y025754D01*
X007756Y027004D01*
X006756Y027004D01*
X006256Y026504D01*
X005756Y026504D01*
X005006Y025754D01*
X005006Y020254D01*
X006006Y019254D01*
X008006Y019254D01*
X008506Y018754D01*
X008506Y014754D01*
X009506Y013754D01*
X012756Y013754D01*
X014756Y011754D01*
X014756Y007754D01*
X013756Y006754D01*
X012716Y006754D01*
X012716Y006254D02*
X014006Y006254D01*
X014006Y006004D01*
X013955Y006004D01*
X015057Y006004D02*
X015256Y006004D01*
X015256Y012004D01*
X013006Y014254D01*
X009756Y014254D01*
X009006Y015004D01*
X009006Y019004D01*
X008256Y019754D01*
X006256Y019754D01*
X005506Y020504D01*
X005506Y025004D01*
X006256Y023504D02*
X006756Y023004D01*
X013256Y023004D01*
X013676Y023164D01*
X014727Y023164D01*
X015256Y023305D01*
X015756Y024703D01*
X015756Y025805D02*
X015756Y026004D01*
X015756Y025805D02*
X016006Y026004D01*
X016506Y026504D02*
X010506Y026504D01*
X010256Y026254D01*
X011006Y027504D02*
X012256Y027504D01*
X012756Y028004D01*
X013256Y028504D02*
X011006Y028504D01*
X009756Y030004D01*
X002256Y030004D01*
X002006Y029754D01*
X002006Y029254D01*
X002756Y028504D01*
X003256Y029004D02*
X005256Y029004D01*
X005756Y029504D01*
X009506Y029504D01*
X011006Y027504D01*
X009256Y027453D02*
X009256Y027504D01*
X011756Y030504D02*
X005756Y030504D01*
X005006Y028254D02*
X004506Y027754D01*
X004506Y019004D01*
X006256Y017004D01*
X006756Y016504D01*
X007506Y016504D01*
X008006Y015754D01*
X008006Y013754D01*
X008756Y013004D01*
X011006Y013004D01*
X012006Y012004D01*
X012006Y005004D01*
X012506Y004504D01*
X012506Y002254D01*
X012256Y002004D01*
X011256Y002004D01*
X011006Y002504D01*
X011506Y003004D02*
X011506Y011504D01*
X010756Y012254D01*
X007506Y012254D01*
X006756Y013004D01*
X006756Y015254D01*
X006256Y016004D01*
X005506Y016754D01*
X002006Y016754D01*
X001506Y017254D01*
X001506Y030254D01*
X002256Y031004D01*
X013256Y031004D01*
X013756Y030504D01*
X013756Y029004D01*
X013256Y028504D02*
X013756Y028004D01*
X012756Y029254D02*
X011756Y030504D01*
X016506Y026504D02*
X017506Y026754D01*
X022006Y026754D01*
X022506Y026254D01*
X022506Y025754D01*
X024756Y023504D01*
X024756Y022254D01*
X025296Y021794D01*
X025283Y020694D01*
X025596Y020696D02*
X025596Y022204D01*
X025296Y022504D01*
X025336Y023504D02*
X024756Y024254D01*
X024756Y025453D01*
X024756Y025504D01*
X022756Y027254D01*
X021256Y027254D01*
X020756Y027754D01*
X020756Y028504D01*
X020256Y029004D01*
X021256Y029004D02*
X022256Y028004D01*
X022506Y028004D01*
X022506Y027953D01*
X024756Y028004D02*
X024756Y026504D01*
X024756Y026555D01*
X024756Y026504D02*
X025006Y026754D01*
X025916Y026174D02*
X027756Y028004D01*
X027756Y029004D01*
X026756Y029004D02*
X026756Y028004D01*
X025756Y028004D02*
X025756Y029004D01*
X028256Y027004D02*
X028756Y027004D01*
X029756Y028004D01*
X029756Y029004D01*
X030756Y029004D02*
X030756Y028004D01*
X029256Y026504D01*
X028756Y026504D01*
X027006Y024754D01*
X027006Y022254D01*
X026546Y021444D01*
X026546Y021154D01*
X026543Y020694D01*
X026228Y020694D02*
X026236Y021244D01*
X026256Y021754D01*
X026506Y022504D01*
X026506Y025254D01*
X028256Y027004D01*
X029256Y026004D02*
X029756Y026004D01*
X031756Y028004D01*
X031756Y029004D01*
X031506Y026254D02*
X031506Y019004D01*
X030926Y018534D01*
X027448Y018534D01*
X027446Y018531D01*
X027448Y018844D02*
X027966Y018844D01*
X028126Y019004D01*
X029256Y019004D01*
X030006Y019754D01*
X030006Y021254D01*
X030756Y022004D01*
X030756Y022754D01*
X029006Y024504D02*
X029006Y020564D01*
X028236Y019794D01*
X027449Y019794D01*
X027446Y019791D01*
X027473Y019504D02*
X028756Y019504D01*
X029506Y020254D01*
X029506Y025504D01*
X029256Y026004D02*
X027756Y024504D01*
X027756Y022124D01*
X026866Y021224D01*
X026856Y021074D01*
X026858Y020694D01*
X027446Y020106D02*
X027764Y020094D01*
X028006Y020254D01*
X028506Y020754D01*
X028506Y023504D01*
X025916Y021664D02*
X025916Y021334D01*
X025913Y020694D01*
X025598Y020694D02*
X025598Y020436D01*
X025606Y020434D01*
X025606Y019154D01*
X027756Y017004D01*
X028756Y017004D01*
X029756Y016004D01*
X030256Y015504D02*
X030256Y016504D01*
X029256Y017504D01*
X027844Y017504D01*
X027446Y017902D01*
X027449Y018214D02*
X027886Y018214D01*
X028096Y018004D01*
X030006Y018004D01*
X030506Y017754D01*
X031756Y017754D01*
X030756Y019754D02*
X030756Y020703D01*
X027473Y019504D02*
X027446Y019476D01*
X027433Y019174D02*
X026936Y019174D01*
X026506Y019604D01*
X026506Y019754D01*
X027433Y019174D02*
X027446Y019161D01*
X027446Y018846D02*
X027448Y018844D01*
X027446Y018217D02*
X027449Y018214D01*
X026228Y017314D02*
X026216Y017301D01*
X024256Y015254D02*
X024256Y015184D01*
X024276Y010204D01*
X024506Y009754D01*
X024506Y005004D01*
X025256Y003254D02*
X025256Y009254D01*
X026256Y010504D01*
X025256Y010504D02*
X025256Y011694D01*
X025256Y011754D01*
X025256Y012814D02*
X025256Y014203D01*
X028756Y012805D02*
X028807Y012754D01*
X029756Y014004D02*
X029256Y014504D01*
X029256Y015254D01*
X029006Y015504D01*
X029756Y015004D02*
X030256Y015504D01*
X025166Y019784D02*
X024463Y019784D01*
X024423Y019784D01*
X024463Y019784D02*
X024066Y019791D01*
X024066Y020106D02*
X024006Y020166D01*
X024006Y021004D01*
X023256Y021754D01*
X022006Y022504D02*
X021006Y021504D01*
X011557Y021504D01*
X010756Y020953D01*
X010756Y019555D01*
X010756Y018504D02*
X010756Y018453D01*
X010756Y015004D01*
X009506Y011504D02*
X006756Y011504D01*
X004256Y014004D01*
X003256Y014004D01*
X002756Y014504D01*
X006455Y009254D02*
X006506Y009203D01*
X006506Y008254D01*
X006506Y007305D01*
X006506Y007254D01*
X006506Y006203D02*
X009006Y006254D01*
X009756Y007254D01*
X010296Y007254D01*
X010296Y006754D02*
X010826Y006754D01*
X011006Y006504D01*
X011006Y005504D01*
X010506Y005004D01*
X005756Y005004D01*
X005006Y004004D01*
X005006Y003004D01*
X004506Y002504D01*
X004006Y003004D02*
X003506Y002504D01*
X004006Y003004D02*
X004006Y004754D01*
X004756Y005504D01*
X009006Y005504D01*
X009756Y006254D01*
X010296Y006254D01*
X008807Y007254D02*
X009307Y007754D01*
X010296Y007754D01*
X010506Y007754D01*
X010296Y008254D02*
X009506Y008254D01*
X009006Y008004D01*
X008256Y008004D01*
X007705Y007254D01*
X008756Y008703D02*
X008756Y008754D01*
X010296Y008754D01*
X010296Y009254D02*
X007557Y009254D01*
X007506Y009254D01*
X008756Y009754D02*
X010296Y009754D01*
X008756Y009805D02*
X008756Y009754D01*
X012716Y009754D02*
X013006Y009754D01*
X013006Y010754D01*
X013807Y010754D01*
X014006Y010555D01*
X014006Y009504D02*
X014006Y009453D01*
X014006Y008754D01*
X014006Y009254D02*
X012716Y009254D01*
X019256Y007504D02*
X019756Y007004D01*
X021506Y006953D01*
X021506Y005805D01*
X021256Y005754D01*
X021506Y004703D02*
X021504Y004602D01*
X021506Y003754D01*
X019256Y007504D02*
X019256Y020754D01*
X020057Y018504D02*
X020256Y018555D01*
X021756Y018404D02*
X021846Y018224D01*
X024969Y020694D02*
X024956Y020714D01*
X025596Y020696D02*
X025598Y020694D01*
X025916Y021664D02*
X025906Y025974D01*
X025916Y026174D01*
X020256Y024504D02*
X019756Y024004D01*
X019006Y024004D01*
X018506Y024504D01*
X018006Y024504D01*
X017756Y024004D01*
X016506Y022254D01*
X015307Y022254D01*
X015256Y022203D01*
X016256Y022754D02*
X014006Y022754D01*
X013256Y022004D01*
X011006Y022004D01*
X010756Y022055D01*
X010756Y021004D02*
X010756Y020953D01*
X015256Y023254D02*
X015256Y023305D01*
X016256Y022754D02*
X017256Y025254D01*
X017756Y025504D01*
X019256Y025504D01*
X019256Y024504D01*
X018006Y024504D02*
X018006Y024453D01*
X017756Y024504D01*
X018006Y024504D01*
X017756Y025504D02*
X018006Y025555D01*
X003256Y029004D02*
X002756Y029504D01*
X020006Y012504D02*
X019955Y011754D01*
X019946Y011545D01*
X019946Y010443D02*
X020256Y009504D01*
X026756Y002754D02*
X027256Y002254D01*
X030012Y005754D02*
X030256Y005754D01*
X030256Y005754D01*
X031756Y004754D02*
X032006Y004514D01*
X032006Y004520D01*
X012006Y002504D02*
X011506Y003004D01*
D32*
X006506Y008254D03*
X009506Y011504D03*
X013006Y010754D03*
X014006Y008754D03*
X020006Y012504D03*
X018006Y014504D03*
X018006Y015004D03*
X018006Y015504D03*
X020256Y016754D03*
X023256Y019004D03*
X023506Y020754D03*
X025166Y019784D03*
X025256Y018504D03*
X026506Y019754D03*
X025296Y022504D03*
X025336Y023504D03*
X022006Y022504D03*
X019256Y020754D03*
X014256Y022004D03*
X009006Y020254D03*
X010756Y015004D03*
X020256Y009504D03*
X022756Y009504D03*
X025256Y010504D03*
X022756Y012504D03*
X027256Y014504D03*
X030756Y019754D03*
X030756Y022754D03*
X029006Y024504D03*
X029506Y025504D03*
X031506Y026254D03*
X028506Y023504D03*
X023756Y007004D03*
X024506Y005004D03*
X021506Y003754D03*
X008256Y027504D03*
X005006Y028254D03*
X005756Y030504D03*
D33*
X003807Y025004D02*
X003756Y024953D01*
X003756Y023504D01*
X002756Y023504D02*
X002756Y024953D01*
X002705Y025004D01*
X014756Y028004D02*
X014756Y029504D01*
X015006Y029754D01*
X015756Y028004D02*
X016756Y028004D01*
X017256Y028453D01*
X017256Y029555D02*
X017256Y029754D01*
X021756Y029754D02*
X022506Y029004D01*
X023756Y029004D01*
X022756Y019703D02*
X022775Y019584D01*
X023256Y019004D01*
X028756Y014004D02*
X028756Y013004D01*
X030256Y013004D01*
X031006Y013754D01*
X031006Y015254D01*
X032006Y015986D01*
X028756Y013004D02*
X028756Y012805D01*
X028756Y011703D02*
X028256Y009754D01*
X022756Y009504D02*
X021059Y009504D01*
X020256Y009504D01*
X021059Y009504D02*
X021103Y009506D01*
X021146Y009512D01*
X021188Y009521D01*
X021230Y009534D01*
X021270Y009551D01*
X021309Y009571D01*
X021346Y009594D01*
X021380Y009621D01*
X021413Y009650D01*
X021412Y009650D02*
X021506Y009744D01*
X021506Y012004D02*
X021506Y012264D01*
X021506Y012504D01*
X021756Y012504D02*
X022756Y012504D01*
X021756Y012504D02*
X020006Y012504D01*
X028756Y003754D02*
X028256Y003254D01*
X028256Y002254D01*
X028756Y003754D02*
X030006Y003754D01*
X030006Y004754D02*
X031496Y004754D01*
X032006Y004514D01*
X032006Y004520D02*
X031990Y004754D01*
X031496Y004754D01*
X032006Y002504D02*
X030006Y002504D01*
X030006Y002453D01*
X032006Y002504D02*
X032006Y001994D01*
X032006Y002504D02*
X033404Y002504D01*
X034256Y003504D01*
X034205Y003453D01*
D34*
X017006Y027254D02*
X016506Y027004D01*
X009756Y027004D01*
X009256Y027504D01*
X009205Y027504D02*
X008256Y027504D01*
X009205Y027504D02*
X009256Y027453D01*
X009256Y028555D02*
X008557Y028504D01*
X007256Y028504D01*
X017006Y027254D02*
X017506Y027254D01*
X019256Y029004D01*
X020006Y029754D01*
X021756Y029754D01*
D35*
X015256Y022254D02*
X015256Y022004D01*
X014256Y022004D01*
X010756Y022004D02*
X010256Y022004D01*
X009006Y020254D01*
X010756Y022004D02*
X010756Y022055D01*
D36*
X018006Y015504D02*
X018006Y010254D01*
X030006Y009504D02*
X030022Y009488D01*
X030022Y008004D01*
X018506Y029754D02*
X017256Y029754D01*
X015006Y029754D01*
D37*
X030756Y022004D02*
X030756Y021805D01*
X031756Y017754D02*
X032006Y017522D01*
X021756Y012504D02*
X021506Y012264D01*
X021506Y005805D02*
X021506Y005754D01*
X021256Y005754D01*
D38*
X028256Y005754D02*
X030256Y005754D01*
X030012Y005754D02*
X030022Y008004D01*
X030006Y008004D02*
X030006Y009504D01*
X034506Y012754D01*
X034506Y019254D01*
X033006Y020254D01*
X033006Y029754D01*
X031506Y030504D01*
X019256Y030504D01*
X018506Y029754D01*
X022506Y029055D02*
X022506Y029004D01*
X023756Y029004D02*
X023756Y028004D01*
X030012Y005754D02*
X030006Y004754D01*
X030006Y003754D01*
D39*
X012756Y029004D02*
X012756Y029254D01*
M02*
