G75*
G70*
%OFA0B0*%
%FSLAX24Y24*%
%IPPOS*%
%LPD*%
%AMOC8*
5,1,8,0,0,1.08239X$1,22.5*
%
%ADD101R,0.0800X0.0260*%
%ADD105O,0.0768X0.1535*%
%ADD110C,0.0700*%
%ADD111R,0.0436X0.0436*%
%ADD113R,0.0787X0.0630*%
%ADD114OC8,0.0560*%
%ADD117R,0.0710X0.0630*%
%ADD118R,0.0630X0.0787*%
%ADD128R,0.0630X0.0709*%
%ADD129R,0.0945X0.1024*%
%ADD13C,0.0500*%
%ADD131C,0.0100*%
%ADD132R,0.0500X0.0220*%
%ADD133C,0.0660*%
%ADD138C,0.0000*%
%ADD42C,0.0110*%
%ADD43O,0.1120X0.0560*%
%ADD47C,0.0240*%
%ADD61C,0.0150*%
%ADD62R,0.0760X0.2100*%
%ADD63C,0.0320*%
%ADD70C,0.0160*%
%ADD74C,0.0600*%
%ADD76R,0.1339X0.0748*%
%ADD81R,0.0220X0.0500*%
%ADD86OC8,0.0600*%
%ADD88R,0.0709X0.0630*%
%ADD95C,0.0120*%
%ADD97C,0.0560*%
X001000Y001000D02*
D138*
X001000Y001000D02*
X001000Y032000D01*
X038000Y032000D01*
X038000Y001000D01*
X001000Y001000D01*
D61*
X015825Y004717D02*
X015967Y004575D01*
X016250Y004575D01*
X016392Y004717D01*
X016392Y004858D01*
X016250Y005000D01*
X015967Y005000D01*
X015825Y005142D01*
X015825Y005284D01*
X015967Y005426D01*
X016250Y005426D01*
X016392Y005284D01*
X016746Y005426D02*
X016746Y004575D01*
X017029Y004858D01*
X017313Y004575D01*
X017313Y005426D01*
X017666Y005142D02*
X017950Y005426D01*
X018234Y005142D01*
X018234Y004575D01*
X018587Y004575D02*
X018587Y005426D01*
X019013Y005426D01*
X019154Y005284D01*
X019154Y005000D01*
X019013Y004858D01*
X018587Y004858D01*
X018871Y004858D02*
X019154Y004575D01*
X019508Y004575D02*
X019508Y005426D01*
X019791Y005142D01*
X020075Y005426D01*
X020075Y004575D01*
X018234Y005000D02*
X017666Y005000D01*
X017666Y005142D02*
X017666Y004575D01*
D42*
X016737Y003645D02*
X016737Y003055D01*
X017032Y003055D01*
X017130Y003153D01*
X017130Y003350D01*
X017032Y003449D01*
X016737Y003449D01*
X016495Y003449D02*
X016396Y003449D01*
X016199Y003252D01*
X016199Y003055D02*
X016199Y003449D01*
X015949Y003350D02*
X015850Y003449D01*
X015653Y003449D01*
X015555Y003350D01*
X015555Y003153D01*
X015653Y003055D01*
X015850Y003055D01*
X015949Y003153D01*
X015949Y003350D01*
X016055Y002145D02*
X016350Y002145D01*
X016449Y002047D01*
X016449Y001850D01*
X016350Y001752D01*
X016055Y001752D01*
X016252Y001752D02*
X016449Y001555D01*
X016699Y001555D02*
X017093Y001555D01*
X017344Y001752D02*
X017541Y001555D01*
X017738Y001752D01*
X017738Y002145D01*
X017988Y001949D02*
X018185Y002145D01*
X018185Y001555D01*
X017988Y001555D02*
X018382Y001555D01*
X017344Y001752D02*
X017344Y002145D01*
X017093Y002145D02*
X016699Y002145D01*
X016699Y001555D01*
X016699Y001850D02*
X016896Y001850D01*
X016055Y001555D02*
X016055Y002145D01*
X017381Y003055D02*
X017676Y003055D01*
X017775Y003153D01*
X017676Y003252D01*
X017479Y003252D01*
X017381Y003350D01*
X017479Y003449D01*
X017775Y003449D01*
X018026Y003449D02*
X018026Y003153D01*
X018124Y003055D01*
X018222Y003153D01*
X018321Y003055D01*
X018419Y003153D01*
X018419Y003449D01*
X018768Y003449D02*
X018965Y003449D01*
X019064Y003350D01*
X019064Y003055D01*
X018768Y003055D01*
X018670Y003153D01*
X018768Y003252D01*
X019064Y003252D01*
X019315Y003252D02*
X019511Y003449D01*
X019610Y003449D01*
X019852Y003449D02*
X019950Y003449D01*
X020049Y003350D01*
X020147Y003449D01*
X020245Y003350D01*
X020245Y003055D01*
X020049Y003055D02*
X020049Y003350D01*
X019852Y003449D02*
X019852Y003055D01*
X019315Y003055D02*
X019315Y003449D01*
X020496Y003153D02*
X020496Y003055D01*
X020595Y003055D01*
X020595Y003153D01*
X020496Y003153D01*
X020818Y003153D02*
X020917Y003055D01*
X021212Y003055D01*
X021463Y003153D02*
X021561Y003055D01*
X021758Y003055D01*
X021857Y003153D01*
X021857Y003350D01*
X021758Y003449D01*
X021561Y003449D01*
X021463Y003350D01*
X021463Y003153D01*
X021212Y003449D02*
X020917Y003449D01*
X020818Y003350D01*
X020818Y003153D01*
X020889Y002145D02*
X020988Y002047D01*
X020594Y001653D01*
X020692Y001555D01*
X020889Y001555D01*
X020988Y001653D01*
X020988Y002047D01*
X020889Y002145D02*
X020692Y002145D01*
X020594Y002047D01*
X020594Y001653D01*
X020343Y001653D02*
X020245Y001555D01*
X020048Y001555D01*
X019949Y001653D01*
X020343Y002047D01*
X020343Y001653D01*
X019949Y001653D02*
X019949Y002047D01*
X020048Y002145D01*
X020245Y002145D01*
X020343Y002047D01*
X019699Y002047D02*
X019600Y002145D01*
X019403Y002145D01*
X019305Y002047D01*
X019699Y002047D02*
X019699Y001949D01*
X019305Y001555D01*
X019699Y001555D01*
X021238Y001555D02*
X021238Y001653D01*
X021632Y002047D01*
X021632Y002145D01*
X021238Y002145D01*
X022108Y003055D02*
X022108Y003449D01*
X022206Y003449D01*
X022304Y003350D01*
X022403Y003449D01*
X022501Y003350D01*
X022501Y003055D01*
X022304Y003055D02*
X022304Y003350D01*
D132*
X024310Y018398D03*
X024310Y018713D03*
X024310Y019027D03*
X024310Y019342D03*
X024310Y019657D03*
X024310Y019972D03*
X024310Y020287D03*
X024310Y020602D03*
X027690Y020602D03*
X027690Y020287D03*
X027690Y019972D03*
X027690Y019657D03*
X027690Y019342D03*
X027690Y019027D03*
X027690Y018713D03*
X027690Y018398D03*
D81*
X027102Y017810D03*
X026787Y017810D03*
X026472Y017810D03*
X026157Y017810D03*
X025842Y017810D03*
X025527Y017810D03*
X025213Y017810D03*
X024898Y017810D03*
X024898Y021190D03*
X025213Y021190D03*
X025527Y021190D03*
X025842Y021190D03*
X026157Y021190D03*
X026472Y021190D03*
X026787Y021190D03*
X027102Y021190D03*
D97*
X007500Y018500D03*
X003000Y024000D03*
X004000Y031000D03*
D114*
X003000Y031000D03*
X003000Y030000D03*
X004000Y030000D03*
X004000Y029000D03*
X003000Y029000D03*
X003000Y028000D03*
X004000Y028000D03*
X004000Y027000D03*
X003000Y027000D03*
X004000Y024000D03*
X004000Y023000D03*
X003000Y023000D03*
X003000Y022000D03*
X004000Y022000D03*
X004000Y021000D03*
X003000Y021000D03*
X003000Y020000D03*
X004000Y020000D03*
X004000Y019000D03*
X003000Y019000D03*
X003000Y018000D03*
X004000Y018000D03*
X006500Y017500D03*
X006500Y018500D03*
X007500Y017500D03*
X007500Y016500D03*
X007500Y015500D03*
X007500Y014500D03*
X006500Y014500D03*
X006500Y015500D03*
X006500Y016500D03*
X004000Y015000D03*
X003000Y015000D03*
X003000Y014000D03*
X004000Y014000D03*
X004000Y013000D03*
X003000Y013000D03*
X003000Y012000D03*
X004000Y012000D03*
X004000Y011000D03*
X003000Y011000D03*
X003000Y010000D03*
X004000Y010000D03*
X004000Y009000D03*
X003000Y009000D03*
X003000Y008000D03*
X004000Y008000D03*
X006500Y022000D03*
X006500Y023000D03*
X006500Y024000D03*
X006500Y025000D03*
X006500Y026000D03*
X006500Y027000D03*
X006500Y028000D03*
X006500Y029000D03*
X007500Y029000D03*
X007500Y028000D03*
X007500Y027000D03*
X007500Y026000D03*
X007500Y025000D03*
X007500Y024000D03*
X007500Y023000D03*
X007500Y022000D03*
X010000Y025250D03*
X010000Y026250D03*
X011000Y026250D03*
X011000Y025250D03*
D101*
X010540Y010250D03*
X010540Y009750D03*
X010540Y009250D03*
X010540Y008750D03*
X010540Y008250D03*
X010540Y007750D03*
X010540Y007250D03*
X010540Y006750D03*
X012960Y006750D03*
X012960Y007250D03*
X012960Y007750D03*
X012960Y008250D03*
X012960Y008750D03*
X012960Y009250D03*
X012960Y009750D03*
X012960Y010250D03*
D113*
X021750Y008551D03*
X021750Y007449D03*
X021750Y006301D03*
X021750Y005199D03*
X025500Y014699D03*
X025500Y015801D03*
X015500Y022699D03*
X015500Y023801D03*
X016000Y025199D03*
X016000Y026301D03*
X011000Y022551D03*
X011000Y021449D03*
X011000Y020051D03*
X011000Y018949D03*
D117*
X025500Y013310D03*
X025500Y012190D03*
D76*
X032250Y016482D03*
X032250Y018018D03*
D74*
X030000Y014500D03*
X019500Y025000D03*
X019500Y028500D03*
D86*
X019500Y029500D03*
X020500Y029500D03*
X021500Y029500D03*
X021500Y028500D03*
X020500Y028500D03*
X020500Y026000D03*
X021500Y026000D03*
X021500Y025000D03*
X020500Y025000D03*
X019500Y026000D03*
X016000Y028500D03*
X016000Y029500D03*
X015000Y029500D03*
X014000Y029500D03*
X014000Y028500D03*
X015000Y028500D03*
X013000Y028500D03*
X012000Y028500D03*
X012000Y029500D03*
X013000Y029500D03*
X024000Y029500D03*
X025000Y029500D03*
X026000Y029500D03*
X027000Y029500D03*
X028000Y029500D03*
X029000Y029500D03*
X030000Y029500D03*
X031000Y029500D03*
X032000Y029500D03*
X032000Y028500D03*
X031000Y028500D03*
X030000Y028500D03*
X029000Y028500D03*
X028000Y028500D03*
X027000Y028500D03*
X026000Y028500D03*
X025000Y028500D03*
X024000Y028500D03*
X034500Y028000D03*
X034500Y029000D03*
X034500Y030000D03*
X035500Y030000D03*
X035500Y029000D03*
X035500Y028000D03*
X035500Y027000D03*
X035500Y026000D03*
X035500Y025000D03*
X035500Y024000D03*
X035500Y023000D03*
X034500Y023000D03*
X034500Y024000D03*
X034500Y025000D03*
X034500Y026000D03*
X034500Y027000D03*
X030000Y016500D03*
X030000Y015500D03*
X029000Y015500D03*
X029000Y016500D03*
X029000Y014500D03*
X034500Y011000D03*
X035500Y011000D03*
X035500Y010000D03*
X035500Y009000D03*
X035500Y008000D03*
X035500Y007000D03*
X035500Y006000D03*
X035500Y005000D03*
X035500Y004000D03*
X034500Y004000D03*
X034500Y005000D03*
X034500Y006000D03*
X034500Y007000D03*
X034500Y008000D03*
X034500Y009000D03*
X034500Y010000D03*
X028500Y003750D03*
X028500Y002750D03*
X027500Y002750D03*
X026500Y002750D03*
X026500Y003750D03*
X027500Y003750D03*
X025500Y003750D03*
X024500Y003750D03*
X024500Y002750D03*
X025500Y002750D03*
X023500Y002750D03*
X023500Y003750D03*
X014250Y004000D03*
X013250Y004000D03*
X013250Y003000D03*
X014250Y003000D03*
X012250Y003000D03*
X011250Y003000D03*
X011250Y004000D03*
X012250Y004000D03*
X010250Y004000D03*
X010250Y003000D03*
X006750Y003000D03*
X006750Y004000D03*
X005750Y004000D03*
X005750Y003000D03*
X004750Y003000D03*
X003750Y003000D03*
X003750Y004000D03*
X004750Y004000D03*
X002750Y004000D03*
X002750Y003000D03*
D88*
X006750Y006699D03*
X006750Y007801D03*
X009000Y009199D03*
X009000Y010301D03*
X014250Y009949D03*
X014250Y011051D03*
X020190Y010939D03*
X020190Y012041D03*
X020500Y014949D03*
X020500Y016051D03*
X020500Y017949D03*
X020500Y019051D03*
X023000Y020199D03*
X023000Y021301D03*
X018250Y024949D03*
X018250Y026051D03*
X017500Y028949D03*
X017500Y030051D03*
X022750Y029551D03*
X022750Y028449D03*
X025000Y027051D03*
X025000Y025949D03*
X031000Y022301D03*
X031000Y021199D03*
X029000Y013301D03*
X029000Y012199D03*
X030250Y004051D03*
X030250Y002949D03*
X009500Y027949D03*
X009500Y029051D03*
D62*
X022000Y018900D03*
X022000Y015100D03*
D129*
X021750Y012760D03*
X021750Y010240D03*
X032250Y005010D03*
X032250Y002490D03*
D128*
X009051Y007750D03*
X007949Y007750D03*
X007801Y009750D03*
X006699Y009750D03*
X004051Y025500D03*
X002949Y025500D03*
D43*
X032500Y015000D03*
X032500Y014000D03*
D105*
X032234Y008500D03*
X030266Y008500D03*
X018234Y010750D03*
X016266Y010750D03*
D118*
X015301Y006500D03*
X014199Y006500D03*
D133*
X028500Y006250D03*
X028500Y010250D03*
D70*
X027500Y009500D02*
X027500Y015000D01*
X028000Y015500D02*
X029000Y015500D01*
X029250Y016000D02*
X028500Y016000D01*
X028250Y016250D01*
X027102Y017398D01*
X027102Y017810D01*
X026787Y017810D02*
X026787Y016713D01*
X028000Y015500D01*
X027000Y015810D02*
X027000Y010250D01*
X026000Y009000D01*
X026000Y003250D01*
X025500Y002750D01*
X025250Y002250D02*
X026250Y002250D01*
X026500Y002500D01*
X026500Y002750D01*
X027000Y003250D02*
X027000Y008750D01*
X027500Y009500D01*
X026500Y011000D02*
X026500Y015790D01*
X026160Y016130D01*
X026160Y017807D01*
X026157Y017810D01*
X026460Y017797D02*
X026460Y016350D01*
X027000Y015810D01*
X025850Y016820D02*
X025500Y016220D01*
X025500Y015801D01*
X025500Y015750D01*
X024500Y015750D02*
X025520Y017052D01*
X025527Y017810D01*
X025840Y017812D02*
X025842Y017810D01*
X025850Y017802D01*
X025850Y016820D01*
X025200Y017330D02*
X024000Y016000D01*
X024000Y007500D01*
X022750Y008500D02*
X021750Y008500D01*
X022750Y008500D02*
X022750Y005250D01*
X024000Y004250D01*
X024000Y003250D01*
X024500Y002750D01*
X025000Y002500D02*
X025250Y002250D01*
X025000Y002500D02*
X025000Y004500D01*
X023500Y005750D01*
X023510Y016450D01*
X024588Y017500D01*
X024898Y017810D01*
X025200Y017797D02*
X025200Y017330D01*
X025200Y017797D02*
X025213Y017810D01*
X024310Y018398D02*
X024308Y018400D01*
X023880Y018400D01*
X022750Y017270D01*
X022750Y017250D01*
X021900Y016000D01*
X022000Y015100D01*
X021750Y015000D01*
X020301Y015000D01*
X020500Y014949D01*
X020500Y016051D02*
X020500Y017250D01*
X020500Y017949D01*
X020301Y019000D02*
X021750Y019000D01*
X022000Y018900D01*
X022000Y018713D01*
X024310Y018713D01*
X024310Y019027D02*
X023500Y019027D01*
X023500Y019500D01*
X023500Y019670D01*
X023490Y019660D01*
X024057Y019660D01*
X024310Y019657D01*
X024312Y019970D02*
X024850Y019980D01*
X024970Y019860D01*
X024970Y019340D01*
X025500Y019000D01*
X025040Y019310D01*
X024310Y019340D01*
X024310Y019342D01*
X024312Y019970D02*
X024310Y019972D01*
X023942Y019972D01*
X023596Y020378D01*
X023590Y020582D01*
X023590Y021250D01*
X023750Y021250D01*
X023590Y021250D02*
X023250Y021250D01*
X023000Y021250D01*
X023000Y021301D02*
X023250Y021250D01*
X023500Y022250D02*
X023500Y023250D01*
X021500Y025000D01*
X021500Y026000D02*
X024000Y023500D01*
X024000Y022500D01*
X024890Y021630D01*
X024898Y021190D01*
X025200Y021210D02*
X025200Y021940D01*
X024500Y022750D01*
X024500Y023750D01*
X022250Y026000D01*
X022250Y026500D01*
X022000Y026750D01*
X017750Y026750D01*
X016000Y026250D01*
X011000Y026250D01*
X010500Y026750D02*
X010500Y025250D01*
X010500Y025000D01*
X010000Y024500D01*
X007000Y024500D01*
X006500Y025000D01*
X005750Y025500D02*
X006250Y026000D01*
X006500Y026000D01*
X007000Y026500D01*
X008000Y026500D01*
X009000Y025250D01*
X010000Y025250D01*
X010500Y025250D02*
X011000Y025250D01*
X010000Y026250D02*
X009000Y026250D01*
X008000Y027500D01*
X007000Y027500D01*
X006500Y027000D01*
X006000Y027000D01*
X005250Y026250D01*
X005250Y020750D01*
X006250Y019750D01*
X008250Y019750D01*
X008750Y019250D01*
X008750Y015250D01*
X009750Y014250D01*
X013000Y014250D01*
X015000Y012250D01*
X015000Y008250D01*
X014000Y007250D01*
X012960Y007250D01*
X012960Y006750D02*
X014250Y006750D01*
X014250Y006500D01*
X014199Y006500D01*
X015301Y006500D02*
X015500Y006500D01*
X015500Y012500D01*
X013250Y014750D01*
X010000Y014750D01*
X009250Y015500D01*
X009250Y019500D01*
X008500Y020250D01*
X006500Y020250D01*
X005750Y021000D01*
X005750Y025500D01*
X006500Y024000D02*
X007000Y023500D01*
X013500Y023500D01*
X013920Y023660D01*
X014971Y023660D01*
X015500Y023801D01*
X016000Y025199D01*
X016000Y026301D02*
X016000Y026500D01*
X016000Y026301D02*
X016250Y026500D01*
X016750Y027000D02*
X010750Y027000D01*
X010500Y026750D01*
X011250Y028000D02*
X012500Y028000D01*
X013000Y028500D01*
X013500Y029000D02*
X011250Y029000D01*
X010000Y030500D01*
X002500Y030500D01*
X002250Y030250D01*
X002250Y029750D01*
X003000Y029000D01*
X003500Y029500D02*
X005500Y029500D01*
X006000Y030000D01*
X009750Y030000D01*
X011250Y028000D01*
X009500Y027949D02*
X009500Y028000D01*
X012000Y031000D02*
X006000Y031000D01*
X005250Y028750D02*
X004750Y028250D01*
X004750Y019500D01*
X006500Y017500D01*
X007000Y017000D01*
X007750Y017000D01*
X008250Y016250D01*
X008250Y014250D01*
X009000Y013500D01*
X011250Y013500D01*
X012250Y012500D01*
X012250Y005500D01*
X012750Y005000D01*
X012750Y002750D01*
X012500Y002500D01*
X011500Y002500D01*
X011250Y003000D01*
X011750Y003500D02*
X011750Y012000D01*
X011000Y012750D01*
X007750Y012750D01*
X007000Y013500D01*
X007000Y015750D01*
X006500Y016500D01*
X005750Y017250D01*
X002250Y017250D01*
X001750Y017750D01*
X001750Y030750D01*
X002500Y031500D01*
X013500Y031500D01*
X014000Y031000D01*
X014000Y029500D01*
X013500Y029000D02*
X014000Y028500D01*
X013000Y029750D02*
X012000Y031000D01*
X016750Y027000D02*
X017750Y027250D01*
X022250Y027250D01*
X022750Y026750D01*
X022750Y026250D01*
X025000Y024000D01*
X025000Y022750D01*
X025540Y022290D01*
X025527Y021190D01*
X025840Y021192D02*
X025840Y022700D01*
X025540Y023000D01*
X025580Y024000D02*
X025000Y024750D01*
X025000Y025949D01*
X025000Y026000D01*
X023000Y027750D01*
X021500Y027750D01*
X021000Y028250D01*
X021000Y029000D01*
X020500Y029500D01*
X021500Y029500D02*
X022500Y028500D01*
X022750Y028500D01*
X022750Y028449D01*
X025000Y028500D02*
X025000Y027000D01*
X025000Y027051D01*
X025000Y027000D02*
X025250Y027250D01*
X026160Y026670D02*
X028000Y028500D01*
X028000Y029500D01*
X027000Y029500D02*
X027000Y028500D01*
X026000Y028500D02*
X026000Y029500D01*
X028500Y027500D02*
X029000Y027500D01*
X030000Y028500D01*
X030000Y029500D01*
X031000Y029500D02*
X031000Y028500D01*
X029500Y027000D01*
X029000Y027000D01*
X027250Y025250D01*
X027250Y022750D01*
X026790Y021940D01*
X026790Y021650D01*
X026787Y021190D01*
X026472Y021190D02*
X026480Y021740D01*
X026500Y022250D01*
X026750Y023000D01*
X026750Y025750D01*
X028500Y027500D01*
X029500Y026500D02*
X030000Y026500D01*
X032000Y028500D01*
X032000Y029500D01*
X031750Y026750D02*
X031750Y019500D01*
X031170Y019030D01*
X027692Y019030D01*
X027690Y019027D01*
X027692Y019340D02*
X028210Y019340D01*
X028370Y019500D01*
X029500Y019500D01*
X030250Y020250D01*
X030250Y021750D01*
X031000Y022500D01*
X031000Y023250D01*
X029250Y025000D02*
X029250Y021060D01*
X028480Y020290D01*
X027693Y020290D01*
X027690Y020287D01*
X027717Y020000D02*
X029000Y020000D01*
X029750Y020750D01*
X029750Y026000D01*
X029500Y026500D02*
X028000Y025000D01*
X028000Y022620D01*
X027110Y021720D01*
X027100Y021570D01*
X027102Y021190D01*
X027690Y020602D02*
X028008Y020590D01*
X028250Y020750D01*
X028750Y021250D01*
X028750Y024000D01*
X026160Y022160D02*
X026160Y021830D01*
X026157Y021190D01*
X025842Y021190D02*
X025842Y020932D01*
X025850Y020930D01*
X025850Y019650D01*
X028000Y017500D01*
X029000Y017500D01*
X030000Y016500D01*
X030500Y016000D02*
X030500Y017000D01*
X029500Y018000D01*
X028088Y018000D01*
X027690Y018398D01*
X027693Y018710D02*
X028130Y018710D01*
X028340Y018500D01*
X030250Y018500D01*
X030750Y018250D01*
X032000Y018250D01*
X031000Y020250D02*
X031000Y021199D01*
X027717Y020000D02*
X027690Y019972D01*
X027677Y019670D02*
X027180Y019670D01*
X026750Y020100D01*
X026750Y020250D01*
X027677Y019670D02*
X027690Y019657D01*
X027690Y019342D02*
X027692Y019340D01*
X027690Y018713D02*
X027693Y018710D01*
X026472Y017810D02*
X026460Y017797D01*
X024500Y015750D02*
X024500Y015680D01*
X024520Y010700D01*
X024750Y010250D01*
X024750Y005500D01*
X025500Y003750D02*
X025500Y009750D01*
X026500Y011000D01*
X025500Y011000D02*
X025500Y012190D01*
X025500Y012250D01*
X025500Y013310D02*
X025500Y014699D01*
X029000Y013301D02*
X029051Y013250D01*
X030000Y014500D02*
X029500Y015000D01*
X029500Y015750D01*
X029250Y016000D01*
X030000Y015500D02*
X030500Y016000D01*
X025410Y020280D02*
X024707Y020280D01*
X024667Y020280D01*
X024707Y020280D02*
X024310Y020287D01*
X024310Y020602D02*
X024250Y020662D01*
X024250Y021500D01*
X023500Y022250D01*
X022250Y023000D02*
X021250Y022000D01*
X011801Y022000D01*
X011000Y021449D01*
X011000Y020051D01*
X011000Y019000D02*
X011000Y018949D01*
X011000Y015500D01*
X009750Y012000D02*
X007000Y012000D01*
X004500Y014500D01*
X003500Y014500D01*
X003000Y015000D01*
X006699Y009750D02*
X006750Y009699D01*
X006750Y008750D01*
X006750Y007801D01*
X006750Y007750D01*
X006750Y006699D02*
X009250Y006750D01*
X010000Y007750D01*
X010540Y007750D01*
X010540Y007250D02*
X011070Y007250D01*
X011250Y007000D01*
X011250Y006000D01*
X010750Y005500D01*
X006000Y005500D01*
X005250Y004500D01*
X005250Y003500D01*
X004750Y003000D01*
X004250Y003500D02*
X003750Y003000D01*
X004250Y003500D02*
X004250Y005250D01*
X005000Y006000D01*
X009250Y006000D01*
X010000Y006750D01*
X010540Y006750D01*
X009051Y007750D02*
X009551Y008250D01*
X010540Y008250D01*
X010750Y008250D01*
X010540Y008750D02*
X009750Y008750D01*
X009250Y008500D01*
X008500Y008500D01*
X007949Y007750D01*
X009000Y009199D02*
X009000Y009250D01*
X010540Y009250D01*
X010540Y009750D02*
X007801Y009750D01*
X007750Y009750D01*
X009000Y010250D02*
X010540Y010250D01*
X009000Y010301D02*
X009000Y010250D01*
X012960Y010250D02*
X013250Y010250D01*
X013250Y011250D01*
X014051Y011250D01*
X014250Y011051D01*
X014250Y010000D02*
X014250Y009949D01*
X014250Y009250D01*
X014250Y009750D02*
X012960Y009750D01*
X019500Y008000D02*
X020000Y007500D01*
X021750Y007449D01*
X021750Y006301D01*
X021500Y006250D01*
X021750Y005199D02*
X021748Y005098D01*
X021750Y004250D01*
X019500Y008000D02*
X019500Y021250D01*
X020301Y019000D02*
X020500Y019051D01*
X022000Y018900D02*
X022090Y018720D01*
X025213Y021190D02*
X025200Y021210D01*
X025840Y021192D02*
X025842Y021190D01*
X026160Y022160D02*
X026150Y026470D01*
X026160Y026670D01*
X020500Y025000D02*
X020000Y024500D01*
X019250Y024500D01*
X018750Y025000D01*
X018250Y025000D01*
X018000Y024500D01*
X016750Y022750D01*
X015551Y022750D01*
X015500Y022699D01*
X016500Y023250D02*
X014250Y023250D01*
X013500Y022500D01*
X011250Y022500D01*
X011000Y022551D01*
X011000Y021500D02*
X011000Y021449D01*
X015500Y023750D02*
X015500Y023801D01*
X016500Y023250D02*
X017500Y025750D01*
X018000Y026000D01*
X019500Y026000D01*
X019500Y025000D01*
X018250Y025000D02*
X018250Y024949D01*
X018000Y025000D01*
X018250Y025000D01*
X018000Y026000D02*
X018250Y026051D01*
X003500Y029500D02*
X003000Y030000D01*
X020250Y013000D02*
X020199Y012250D01*
X020190Y012041D01*
X020190Y010939D02*
X020500Y010000D01*
X027000Y003250D02*
X027500Y002750D01*
X030256Y006250D02*
X030500Y006250D01*
X030500Y006250D01*
X032000Y005250D02*
X032250Y005010D01*
X032250Y005016D01*
X012250Y003000D02*
X011750Y003500D01*
D111*
X006750Y008750D03*
X009750Y012000D03*
X013250Y011250D03*
X014250Y009250D03*
X020250Y013000D03*
X018250Y015000D03*
X018250Y015500D03*
X018250Y016000D03*
X020500Y017250D03*
X023500Y019500D03*
X023750Y021250D03*
X025410Y020280D03*
X025500Y019000D03*
X026750Y020250D03*
X025540Y023000D03*
X025580Y024000D03*
X022250Y023000D03*
X019500Y021250D03*
X014500Y022500D03*
X009250Y020750D03*
X011000Y015500D03*
X020500Y010000D03*
X023000Y010000D03*
X025500Y011000D03*
X023000Y013000D03*
X027500Y015000D03*
X031000Y020250D03*
X031000Y023250D03*
X029250Y025000D03*
X029750Y026000D03*
X031750Y026750D03*
X028750Y024000D03*
X024000Y007500D03*
X024750Y005500D03*
X021750Y004250D03*
X008500Y028000D03*
X005250Y028750D03*
X006000Y031000D03*
D13*
X004051Y025500D02*
X004000Y025449D01*
X004000Y024000D01*
X003000Y024000D02*
X003000Y025449D01*
X002949Y025500D01*
X015000Y028500D02*
X015000Y030000D01*
X015250Y030250D01*
X016000Y028500D02*
X017000Y028500D01*
X017500Y028949D01*
X017500Y030051D02*
X017500Y030250D01*
X022000Y030250D02*
X022750Y029500D01*
X024000Y029500D01*
X023000Y020199D02*
X023019Y020080D01*
X023500Y019500D01*
X029000Y014500D02*
X029000Y013500D01*
X030500Y013500D01*
X031250Y014250D01*
X031250Y015750D01*
X032250Y016482D01*
X029000Y013500D02*
X029000Y013301D01*
X029000Y012199D02*
X028500Y010250D01*
X023000Y010000D02*
X021303Y010000D01*
X020500Y010000D01*
X021303Y010000D02*
X021347Y010002D01*
X021390Y010008D01*
X021432Y010017D01*
X021474Y010030D01*
X021514Y010047D01*
X021553Y010067D01*
X021590Y010090D01*
X021624Y010117D01*
X021657Y010146D01*
X021656Y010146D02*
X021750Y010240D01*
X021750Y012500D02*
X021750Y012760D01*
X021750Y013000D01*
X022000Y013000D02*
X023000Y013000D01*
X022000Y013000D02*
X020250Y013000D01*
X029000Y004250D02*
X028500Y003750D01*
X028500Y002750D01*
X029000Y004250D02*
X030250Y004250D01*
X030250Y005250D02*
X031740Y005250D01*
X032250Y005010D01*
X032250Y005016D02*
X032234Y005250D01*
X031740Y005250D01*
X032250Y003000D02*
X030250Y003000D01*
X030250Y002949D01*
X032250Y003000D02*
X032250Y002490D01*
X032250Y003000D02*
X033648Y003000D01*
X034500Y004000D01*
X034449Y003949D01*
D63*
X017250Y027750D02*
X016750Y027500D01*
X010000Y027500D01*
X009500Y028000D01*
X009449Y028000D02*
X008500Y028000D01*
X009449Y028000D02*
X009500Y027949D01*
X009500Y029051D02*
X008801Y029000D01*
X007500Y029000D01*
X017250Y027750D02*
X017750Y027750D01*
X019500Y029500D01*
X020250Y030250D01*
X022000Y030250D01*
D47*
X015500Y022750D02*
X015500Y022500D01*
X014500Y022500D01*
X011000Y022500D02*
X010500Y022500D01*
X009250Y020750D01*
X011000Y022500D02*
X011000Y022551D01*
D97*
X018250Y016000D02*
X018250Y010750D01*
X030250Y010000D02*
X030266Y009984D01*
X030266Y008500D01*
X018750Y030250D02*
X017500Y030250D01*
X015250Y030250D01*
D131*
X031000Y022500D02*
X031000Y022301D01*
X032000Y018250D02*
X032250Y018018D01*
X022000Y013000D02*
X021750Y012760D01*
X021750Y006301D02*
X021750Y006250D01*
X021500Y006250D01*
D110*
X028500Y006250D02*
X030500Y006250D01*
X030256Y006250D02*
X030266Y008500D01*
X030250Y008500D02*
X030250Y010000D01*
X034750Y013250D01*
X034750Y019750D01*
X033250Y020750D01*
X033250Y030250D01*
X031750Y031000D01*
X019500Y031000D01*
X018750Y030250D01*
X022750Y029551D02*
X022750Y029500D01*
X024000Y029500D02*
X024000Y028500D01*
X030256Y006250D02*
X030250Y005250D01*
X030250Y004250D01*
D95*
X013000Y029500D02*
X013000Y029750D01*
X038000Y001000D02*
D138*
X038000Y001000D02*
X038000Y032000D01*
X075000Y032000D01*
X075000Y001000D01*
X038000Y001000D01*
D61*
X052825Y004717D02*
X052967Y004575D01*
X053250Y004575D01*
X053392Y004717D01*
X053392Y004858D01*
X053250Y005000D01*
X052967Y005000D01*
X052825Y005142D01*
X052825Y005284D01*
X052967Y005426D01*
X053250Y005426D01*
X053392Y005284D01*
X053746Y005426D02*
X053746Y004575D01*
X054029Y004858D01*
X054313Y004575D01*
X054313Y005426D01*
X054666Y005142D02*
X054950Y005426D01*
X055234Y005142D01*
X055234Y004575D01*
X055587Y004575D02*
X055587Y005426D01*
X056013Y005426D01*
X056154Y005284D01*
X056154Y005000D01*
X056013Y004858D01*
X055587Y004858D01*
X055871Y004858D02*
X056154Y004575D01*
X056508Y004575D02*
X056508Y005426D01*
X056791Y005142D01*
X057075Y005426D01*
X057075Y004575D01*
X055234Y005000D02*
X054666Y005000D01*
X054666Y005142D02*
X054666Y004575D01*
D42*
X053737Y003645D02*
X053737Y003055D01*
X054032Y003055D01*
X054130Y003153D01*
X054130Y003350D01*
X054032Y003449D01*
X053737Y003449D01*
X053495Y003449D02*
X053396Y003449D01*
X053199Y003252D01*
X053199Y003055D02*
X053199Y003449D01*
X052949Y003350D02*
X052850Y003449D01*
X052653Y003449D01*
X052555Y003350D01*
X052555Y003153D01*
X052653Y003055D01*
X052850Y003055D01*
X052949Y003153D01*
X052949Y003350D01*
X053055Y002145D02*
X053350Y002145D01*
X053449Y002047D01*
X053449Y001850D01*
X053350Y001752D01*
X053055Y001752D01*
X053252Y001752D02*
X053449Y001555D01*
X053699Y001555D02*
X054093Y001555D01*
X054344Y001752D02*
X054541Y001555D01*
X054738Y001752D01*
X054738Y002145D01*
X054988Y001949D02*
X055185Y002145D01*
X055185Y001555D01*
X054988Y001555D02*
X055382Y001555D01*
X054344Y001752D02*
X054344Y002145D01*
X054093Y002145D02*
X053699Y002145D01*
X053699Y001555D01*
X053699Y001850D02*
X053896Y001850D01*
X053055Y001555D02*
X053055Y002145D01*
X054381Y003055D02*
X054676Y003055D01*
X054775Y003153D01*
X054676Y003252D01*
X054479Y003252D01*
X054381Y003350D01*
X054479Y003449D01*
X054775Y003449D01*
X055026Y003449D02*
X055026Y003153D01*
X055124Y003055D01*
X055222Y003153D01*
X055321Y003055D01*
X055419Y003153D01*
X055419Y003449D01*
X055768Y003449D02*
X055965Y003449D01*
X056064Y003350D01*
X056064Y003055D01*
X055768Y003055D01*
X055670Y003153D01*
X055768Y003252D01*
X056064Y003252D01*
X056315Y003252D02*
X056511Y003449D01*
X056610Y003449D01*
X056852Y003449D02*
X056950Y003449D01*
X057049Y003350D01*
X057147Y003449D01*
X057245Y003350D01*
X057245Y003055D01*
X057049Y003055D02*
X057049Y003350D01*
X056852Y003449D02*
X056852Y003055D01*
X056315Y003055D02*
X056315Y003449D01*
X057496Y003153D02*
X057496Y003055D01*
X057595Y003055D01*
X057595Y003153D01*
X057496Y003153D01*
X057818Y003153D02*
X057917Y003055D01*
X058212Y003055D01*
X058463Y003153D02*
X058561Y003055D01*
X058758Y003055D01*
X058857Y003153D01*
X058857Y003350D01*
X058758Y003449D01*
X058561Y003449D01*
X058463Y003350D01*
X058463Y003153D01*
X058212Y003449D02*
X057917Y003449D01*
X057818Y003350D01*
X057818Y003153D01*
X057889Y002145D02*
X057988Y002047D01*
X057594Y001653D01*
X057692Y001555D01*
X057889Y001555D01*
X057988Y001653D01*
X057988Y002047D01*
X057889Y002145D02*
X057692Y002145D01*
X057594Y002047D01*
X057594Y001653D01*
X057343Y001653D02*
X057245Y001555D01*
X057048Y001555D01*
X056949Y001653D01*
X057343Y002047D01*
X057343Y001653D01*
X056949Y001653D02*
X056949Y002047D01*
X057048Y002145D01*
X057245Y002145D01*
X057343Y002047D01*
X056699Y002047D02*
X056600Y002145D01*
X056403Y002145D01*
X056305Y002047D01*
X056699Y002047D02*
X056699Y001949D01*
X056305Y001555D01*
X056699Y001555D01*
X058238Y001555D02*
X058238Y001653D01*
X058632Y002047D01*
X058632Y002145D01*
X058238Y002145D01*
X059108Y003055D02*
X059108Y003449D01*
X059206Y003449D01*
X059304Y003350D01*
X059403Y003449D01*
X059501Y003350D01*
X059501Y003055D01*
X059304Y003055D02*
X059304Y003350D01*
D132*
X061310Y018398D03*
X061310Y018713D03*
X061310Y019027D03*
X061310Y019342D03*
X061310Y019657D03*
X061310Y019972D03*
X061310Y020287D03*
X061310Y020602D03*
X064690Y020602D03*
X064690Y020287D03*
X064690Y019972D03*
X064690Y019657D03*
X064690Y019342D03*
X064690Y019027D03*
X064690Y018713D03*
X064690Y018398D03*
D81*
X064102Y017810D03*
X063787Y017810D03*
X063472Y017810D03*
X063157Y017810D03*
X062842Y017810D03*
X062527Y017810D03*
X062213Y017810D03*
X061898Y017810D03*
X061898Y021190D03*
X062213Y021190D03*
X062527Y021190D03*
X062842Y021190D03*
X063157Y021190D03*
X063472Y021190D03*
X063787Y021190D03*
X064102Y021190D03*
D97*
X044500Y018500D03*
X040000Y024000D03*
X041000Y031000D03*
D114*
X040000Y031000D03*
X040000Y030000D03*
X041000Y030000D03*
X041000Y029000D03*
X040000Y029000D03*
X040000Y028000D03*
X041000Y028000D03*
X041000Y027000D03*
X040000Y027000D03*
X041000Y024000D03*
X041000Y023000D03*
X040000Y023000D03*
X040000Y022000D03*
X041000Y022000D03*
X041000Y021000D03*
X040000Y021000D03*
X040000Y020000D03*
X041000Y020000D03*
X041000Y019000D03*
X040000Y019000D03*
X040000Y018000D03*
X041000Y018000D03*
X043500Y017500D03*
X043500Y018500D03*
X044500Y017500D03*
X044500Y016500D03*
X044500Y015500D03*
X044500Y014500D03*
X043500Y014500D03*
X043500Y015500D03*
X043500Y016500D03*
X041000Y015000D03*
X040000Y015000D03*
X040000Y014000D03*
X041000Y014000D03*
X041000Y013000D03*
X040000Y013000D03*
X040000Y012000D03*
X041000Y012000D03*
X041000Y011000D03*
X040000Y011000D03*
X040000Y010000D03*
X041000Y010000D03*
X041000Y009000D03*
X040000Y009000D03*
X040000Y008000D03*
X041000Y008000D03*
X043500Y022000D03*
X043500Y023000D03*
X043500Y024000D03*
X043500Y025000D03*
X043500Y026000D03*
X043500Y027000D03*
X043500Y028000D03*
X043500Y029000D03*
X044500Y029000D03*
X044500Y028000D03*
X044500Y027000D03*
X044500Y026000D03*
X044500Y025000D03*
X044500Y024000D03*
X044500Y023000D03*
X044500Y022000D03*
X047000Y025250D03*
X047000Y026250D03*
X048000Y026250D03*
X048000Y025250D03*
D101*
X047540Y010250D03*
X047540Y009750D03*
X047540Y009250D03*
X047540Y008750D03*
X047540Y008250D03*
X047540Y007750D03*
X047540Y007250D03*
X047540Y006750D03*
X049960Y006750D03*
X049960Y007250D03*
X049960Y007750D03*
X049960Y008250D03*
X049960Y008750D03*
X049960Y009250D03*
X049960Y009750D03*
X049960Y010250D03*
D113*
X058750Y008551D03*
X058750Y007449D03*
X058750Y006301D03*
X058750Y005199D03*
X062500Y014699D03*
X062500Y015801D03*
X052500Y022699D03*
X052500Y023801D03*
X053000Y025199D03*
X053000Y026301D03*
X048000Y022551D03*
X048000Y021449D03*
X048000Y020051D03*
X048000Y018949D03*
D117*
X062500Y013310D03*
X062500Y012190D03*
D76*
X069250Y016482D03*
X069250Y018018D03*
D74*
X067000Y014500D03*
X056500Y025000D03*
X056500Y028500D03*
D86*
X056500Y029500D03*
X057500Y029500D03*
X058500Y029500D03*
X058500Y028500D03*
X057500Y028500D03*
X057500Y026000D03*
X058500Y026000D03*
X058500Y025000D03*
X057500Y025000D03*
X056500Y026000D03*
X053000Y028500D03*
X053000Y029500D03*
X052000Y029500D03*
X051000Y029500D03*
X051000Y028500D03*
X052000Y028500D03*
X050000Y028500D03*
X049000Y028500D03*
X049000Y029500D03*
X050000Y029500D03*
X061000Y029500D03*
X062000Y029500D03*
X063000Y029500D03*
X064000Y029500D03*
X065000Y029500D03*
X066000Y029500D03*
X067000Y029500D03*
X068000Y029500D03*
X069000Y029500D03*
X069000Y028500D03*
X068000Y028500D03*
X067000Y028500D03*
X066000Y028500D03*
X065000Y028500D03*
X064000Y028500D03*
X063000Y028500D03*
X062000Y028500D03*
X061000Y028500D03*
X071500Y028000D03*
X071500Y029000D03*
X071500Y030000D03*
X072500Y030000D03*
X072500Y029000D03*
X072500Y028000D03*
X072500Y027000D03*
X072500Y026000D03*
X072500Y025000D03*
X072500Y024000D03*
X072500Y023000D03*
X071500Y023000D03*
X071500Y024000D03*
X071500Y025000D03*
X071500Y026000D03*
X071500Y027000D03*
X067000Y016500D03*
X067000Y015500D03*
X066000Y015500D03*
X066000Y016500D03*
X066000Y014500D03*
X071500Y011000D03*
X072500Y011000D03*
X072500Y010000D03*
X072500Y009000D03*
X072500Y008000D03*
X072500Y007000D03*
X072500Y006000D03*
X072500Y005000D03*
X072500Y004000D03*
X071500Y004000D03*
X071500Y005000D03*
X071500Y006000D03*
X071500Y007000D03*
X071500Y008000D03*
X071500Y009000D03*
X071500Y010000D03*
X065500Y003750D03*
X065500Y002750D03*
X064500Y002750D03*
X063500Y002750D03*
X063500Y003750D03*
X064500Y003750D03*
X062500Y003750D03*
X061500Y003750D03*
X061500Y002750D03*
X062500Y002750D03*
X060500Y002750D03*
X060500Y003750D03*
X051250Y004000D03*
X050250Y004000D03*
X050250Y003000D03*
X051250Y003000D03*
X049250Y003000D03*
X048250Y003000D03*
X048250Y004000D03*
X049250Y004000D03*
X047250Y004000D03*
X047250Y003000D03*
X043750Y003000D03*
X043750Y004000D03*
X042750Y004000D03*
X042750Y003000D03*
X041750Y003000D03*
X040750Y003000D03*
X040750Y004000D03*
X041750Y004000D03*
X039750Y004000D03*
X039750Y003000D03*
D88*
X043750Y006699D03*
X043750Y007801D03*
X046000Y009199D03*
X046000Y010301D03*
X051250Y009949D03*
X051250Y011051D03*
X057190Y010939D03*
X057190Y012041D03*
X057500Y014949D03*
X057500Y016051D03*
X057500Y017949D03*
X057500Y019051D03*
X060000Y020199D03*
X060000Y021301D03*
X055250Y024949D03*
X055250Y026051D03*
X054500Y028949D03*
X054500Y030051D03*
X059750Y029551D03*
X059750Y028449D03*
X062000Y027051D03*
X062000Y025949D03*
X068000Y022301D03*
X068000Y021199D03*
X066000Y013301D03*
X066000Y012199D03*
X067250Y004051D03*
X067250Y002949D03*
X046500Y027949D03*
X046500Y029051D03*
D62*
X059000Y018900D03*
X059000Y015100D03*
D129*
X058750Y012760D03*
X058750Y010240D03*
X069250Y005010D03*
X069250Y002490D03*
D128*
X046051Y007750D03*
X044949Y007750D03*
X044801Y009750D03*
X043699Y009750D03*
X041051Y025500D03*
X039949Y025500D03*
D43*
X069500Y015000D03*
X069500Y014000D03*
D105*
X069234Y008500D03*
X067266Y008500D03*
X055234Y010750D03*
X053266Y010750D03*
D118*
X052301Y006500D03*
X051199Y006500D03*
D133*
X065500Y006250D03*
X065500Y010250D03*
D70*
X064500Y009500D02*
X064500Y015000D01*
X065000Y015500D02*
X066000Y015500D01*
X066250Y016000D02*
X065500Y016000D01*
X065250Y016250D01*
X064102Y017398D01*
X064102Y017810D01*
X063787Y017810D02*
X063787Y016713D01*
X065000Y015500D01*
X064000Y015810D02*
X064000Y010250D01*
X063000Y009000D01*
X063000Y003250D01*
X062500Y002750D01*
X062250Y002250D02*
X063250Y002250D01*
X063500Y002500D01*
X063500Y002750D01*
X064000Y003250D02*
X064000Y008750D01*
X064500Y009500D01*
X063500Y011000D02*
X063500Y015790D01*
X063160Y016130D01*
X063160Y017807D01*
X063157Y017810D01*
X063460Y017797D02*
X063460Y016350D01*
X064000Y015810D01*
X062850Y016820D02*
X062500Y016220D01*
X062500Y015801D01*
X062500Y015750D01*
X061500Y015750D02*
X062520Y017052D01*
X062527Y017810D01*
X062840Y017812D02*
X062842Y017810D01*
X062850Y017802D01*
X062850Y016820D01*
X062200Y017330D02*
X061000Y016000D01*
X061000Y007500D01*
X059750Y008500D02*
X058750Y008500D01*
X059750Y008500D02*
X059750Y005250D01*
X061000Y004250D01*
X061000Y003250D01*
X061500Y002750D01*
X062000Y002500D02*
X062250Y002250D01*
X062000Y002500D02*
X062000Y004500D01*
X060500Y005750D01*
X060510Y016450D01*
X061588Y017500D01*
X061898Y017810D01*
X062200Y017797D02*
X062200Y017330D01*
X062200Y017797D02*
X062213Y017810D01*
X061310Y018398D02*
X061308Y018400D01*
X060880Y018400D01*
X059750Y017270D01*
X059750Y017250D01*
X058900Y016000D01*
X059000Y015100D01*
X058750Y015000D01*
X057301Y015000D01*
X057500Y014949D01*
X057500Y016051D02*
X057500Y017250D01*
X057500Y017949D01*
X057301Y019000D02*
X058750Y019000D01*
X059000Y018900D01*
X059000Y018713D01*
X061310Y018713D01*
X061310Y019027D02*
X060500Y019027D01*
X060500Y019500D01*
X060500Y019670D01*
X060490Y019660D01*
X061057Y019660D01*
X061310Y019657D01*
X061312Y019970D02*
X061850Y019980D01*
X061970Y019860D01*
X061970Y019340D01*
X062500Y019000D01*
X062040Y019310D01*
X061310Y019340D01*
X061310Y019342D01*
X061312Y019970D02*
X061310Y019972D01*
X060942Y019972D01*
X060596Y020378D01*
X060590Y020582D01*
X060590Y021250D01*
X060750Y021250D01*
X060590Y021250D02*
X060250Y021250D01*
X060000Y021250D01*
X060000Y021301D02*
X060250Y021250D01*
X060500Y022250D02*
X060500Y023250D01*
X058500Y025000D01*
X058500Y026000D02*
X061000Y023500D01*
X061000Y022500D01*
X061890Y021630D01*
X061898Y021190D01*
X062200Y021210D02*
X062200Y021940D01*
X061500Y022750D01*
X061500Y023750D01*
X059250Y026000D01*
X059250Y026500D01*
X059000Y026750D01*
X054750Y026750D01*
X053000Y026250D01*
X048000Y026250D01*
X047500Y026750D02*
X047500Y025250D01*
X047500Y025000D01*
X047000Y024500D01*
X044000Y024500D01*
X043500Y025000D01*
X042750Y025500D02*
X043250Y026000D01*
X043500Y026000D01*
X044000Y026500D01*
X045000Y026500D01*
X046000Y025250D01*
X047000Y025250D01*
X047500Y025250D02*
X048000Y025250D01*
X047000Y026250D02*
X046000Y026250D01*
X045000Y027500D01*
X044000Y027500D01*
X043500Y027000D01*
X043000Y027000D01*
X042250Y026250D01*
X042250Y020750D01*
X043250Y019750D01*
X045250Y019750D01*
X045750Y019250D01*
X045750Y015250D01*
X046750Y014250D01*
X050000Y014250D01*
X052000Y012250D01*
X052000Y008250D01*
X051000Y007250D01*
X049960Y007250D01*
X049960Y006750D02*
X051250Y006750D01*
X051250Y006500D01*
X051199Y006500D01*
X052301Y006500D02*
X052500Y006500D01*
X052500Y012500D01*
X050250Y014750D01*
X047000Y014750D01*
X046250Y015500D01*
X046250Y019500D01*
X045500Y020250D01*
X043500Y020250D01*
X042750Y021000D01*
X042750Y025500D01*
X043500Y024000D02*
X044000Y023500D01*
X050500Y023500D01*
X050920Y023660D01*
X051971Y023660D01*
X052500Y023801D01*
X053000Y025199D01*
X053000Y026301D02*
X053000Y026500D01*
X053000Y026301D02*
X053250Y026500D01*
X053750Y027000D02*
X047750Y027000D01*
X047500Y026750D01*
X048250Y028000D02*
X049500Y028000D01*
X050000Y028500D01*
X050500Y029000D02*
X048250Y029000D01*
X047000Y030500D01*
X039500Y030500D01*
X039250Y030250D01*
X039250Y029750D01*
X040000Y029000D01*
X040500Y029500D02*
X042500Y029500D01*
X043000Y030000D01*
X046750Y030000D01*
X048250Y028000D01*
X046500Y027949D02*
X046500Y028000D01*
X049000Y031000D02*
X043000Y031000D01*
X042250Y028750D02*
X041750Y028250D01*
X041750Y019500D01*
X043500Y017500D01*
X044000Y017000D01*
X044750Y017000D01*
X045250Y016250D01*
X045250Y014250D01*
X046000Y013500D01*
X048250Y013500D01*
X049250Y012500D01*
X049250Y005500D01*
X049750Y005000D01*
X049750Y002750D01*
X049500Y002500D01*
X048500Y002500D01*
X048250Y003000D01*
X048750Y003500D02*
X048750Y012000D01*
X048000Y012750D01*
X044750Y012750D01*
X044000Y013500D01*
X044000Y015750D01*
X043500Y016500D01*
X042750Y017250D01*
X039250Y017250D01*
X038750Y017750D01*
X038750Y030750D01*
X039500Y031500D01*
X050500Y031500D01*
X051000Y031000D01*
X051000Y029500D01*
X050500Y029000D02*
X051000Y028500D01*
X050000Y029750D02*
X049000Y031000D01*
X053750Y027000D02*
X054750Y027250D01*
X059250Y027250D01*
X059750Y026750D01*
X059750Y026250D01*
X062000Y024000D01*
X062000Y022750D01*
X062540Y022290D01*
X062527Y021190D01*
X062840Y021192D02*
X062840Y022700D01*
X062540Y023000D01*
X062580Y024000D02*
X062000Y024750D01*
X062000Y025949D01*
X062000Y026000D01*
X060000Y027750D01*
X058500Y027750D01*
X058000Y028250D01*
X058000Y029000D01*
X057500Y029500D01*
X058500Y029500D02*
X059500Y028500D01*
X059750Y028500D01*
X059750Y028449D01*
X062000Y028500D02*
X062000Y027000D01*
X062000Y027051D01*
X062000Y027000D02*
X062250Y027250D01*
X063160Y026670D02*
X065000Y028500D01*
X065000Y029500D01*
X064000Y029500D02*
X064000Y028500D01*
X063000Y028500D02*
X063000Y029500D01*
X065500Y027500D02*
X066000Y027500D01*
X067000Y028500D01*
X067000Y029500D01*
X068000Y029500D02*
X068000Y028500D01*
X066500Y027000D01*
X066000Y027000D01*
X064250Y025250D01*
X064250Y022750D01*
X063790Y021940D01*
X063790Y021650D01*
X063787Y021190D01*
X063472Y021190D02*
X063480Y021740D01*
X063500Y022250D01*
X063750Y023000D01*
X063750Y025750D01*
X065500Y027500D01*
X066500Y026500D02*
X067000Y026500D01*
X069000Y028500D01*
X069000Y029500D01*
X068750Y026750D02*
X068750Y019500D01*
X068170Y019030D01*
X064692Y019030D01*
X064690Y019027D01*
X064692Y019340D02*
X065210Y019340D01*
X065370Y019500D01*
X066500Y019500D01*
X067250Y020250D01*
X067250Y021750D01*
X068000Y022500D01*
X068000Y023250D01*
X066250Y025000D02*
X066250Y021060D01*
X065480Y020290D01*
X064693Y020290D01*
X064690Y020287D01*
X064717Y020000D02*
X066000Y020000D01*
X066750Y020750D01*
X066750Y026000D01*
X066500Y026500D02*
X065000Y025000D01*
X065000Y022620D01*
X064110Y021720D01*
X064100Y021570D01*
X064102Y021190D01*
X064690Y020602D02*
X065008Y020590D01*
X065250Y020750D01*
X065750Y021250D01*
X065750Y024000D01*
X063160Y022160D02*
X063160Y021830D01*
X063157Y021190D01*
X062842Y021190D02*
X062842Y020932D01*
X062850Y020930D01*
X062850Y019650D01*
X065000Y017500D01*
X066000Y017500D01*
X067000Y016500D01*
X067500Y016000D02*
X067500Y017000D01*
X066500Y018000D01*
X065088Y018000D01*
X064690Y018398D01*
X064693Y018710D02*
X065130Y018710D01*
X065340Y018500D01*
X067250Y018500D01*
X067750Y018250D01*
X069000Y018250D01*
X068000Y020250D02*
X068000Y021199D01*
X064717Y020000D02*
X064690Y019972D01*
X064677Y019670D02*
X064180Y019670D01*
X063750Y020100D01*
X063750Y020250D01*
X064677Y019670D02*
X064690Y019657D01*
X064690Y019342D02*
X064692Y019340D01*
X064690Y018713D02*
X064693Y018710D01*
X063472Y017810D02*
X063460Y017797D01*
X061500Y015750D02*
X061500Y015680D01*
X061520Y010700D01*
X061750Y010250D01*
X061750Y005500D01*
X062500Y003750D02*
X062500Y009750D01*
X063500Y011000D01*
X062500Y011000D02*
X062500Y012190D01*
X062500Y012250D01*
X062500Y013310D02*
X062500Y014699D01*
X066000Y013301D02*
X066051Y013250D01*
X067000Y014500D02*
X066500Y015000D01*
X066500Y015750D01*
X066250Y016000D01*
X067000Y015500D02*
X067500Y016000D01*
X062410Y020280D02*
X061707Y020280D01*
X061667Y020280D01*
X061707Y020280D02*
X061310Y020287D01*
X061310Y020602D02*
X061250Y020662D01*
X061250Y021500D01*
X060500Y022250D01*
X059250Y023000D02*
X058250Y022000D01*
X048801Y022000D01*
X048000Y021449D01*
X048000Y020051D01*
X048000Y019000D02*
X048000Y018949D01*
X048000Y015500D01*
X046750Y012000D02*
X044000Y012000D01*
X041500Y014500D01*
X040500Y014500D01*
X040000Y015000D01*
X043699Y009750D02*
X043750Y009699D01*
X043750Y008750D01*
X043750Y007801D01*
X043750Y007750D01*
X043750Y006699D02*
X046250Y006750D01*
X047000Y007750D01*
X047540Y007750D01*
X047540Y007250D02*
X048070Y007250D01*
X048250Y007000D01*
X048250Y006000D01*
X047750Y005500D01*
X043000Y005500D01*
X042250Y004500D01*
X042250Y003500D01*
X041750Y003000D01*
X041250Y003500D02*
X040750Y003000D01*
X041250Y003500D02*
X041250Y005250D01*
X042000Y006000D01*
X046250Y006000D01*
X047000Y006750D01*
X047540Y006750D01*
X046051Y007750D02*
X046551Y008250D01*
X047540Y008250D01*
X047750Y008250D01*
X047540Y008750D02*
X046750Y008750D01*
X046250Y008500D01*
X045500Y008500D01*
X044949Y007750D01*
X046000Y009199D02*
X046000Y009250D01*
X047540Y009250D01*
X047540Y009750D02*
X044801Y009750D01*
X044750Y009750D01*
X046000Y010250D02*
X047540Y010250D01*
X046000Y010301D02*
X046000Y010250D01*
X049960Y010250D02*
X050250Y010250D01*
X050250Y011250D01*
X051051Y011250D01*
X051250Y011051D01*
X051250Y010000D02*
X051250Y009949D01*
X051250Y009250D01*
X051250Y009750D02*
X049960Y009750D01*
X056500Y008000D02*
X057000Y007500D01*
X058750Y007449D01*
X058750Y006301D01*
X058500Y006250D01*
X058750Y005199D02*
X058748Y005098D01*
X058750Y004250D01*
X056500Y008000D02*
X056500Y021250D01*
X057301Y019000D02*
X057500Y019051D01*
X059000Y018900D02*
X059090Y018720D01*
X062213Y021190D02*
X062200Y021210D01*
X062840Y021192D02*
X062842Y021190D01*
X063160Y022160D02*
X063150Y026470D01*
X063160Y026670D01*
X057500Y025000D02*
X057000Y024500D01*
X056250Y024500D01*
X055750Y025000D01*
X055250Y025000D01*
X055000Y024500D01*
X053750Y022750D01*
X052551Y022750D01*
X052500Y022699D01*
X053500Y023250D02*
X051250Y023250D01*
X050500Y022500D01*
X048250Y022500D01*
X048000Y022551D01*
X048000Y021500D02*
X048000Y021449D01*
X052500Y023750D02*
X052500Y023801D01*
X053500Y023250D02*
X054500Y025750D01*
X055000Y026000D01*
X056500Y026000D01*
X056500Y025000D01*
X055250Y025000D02*
X055250Y024949D01*
X055000Y025000D01*
X055250Y025000D01*
X055000Y026000D02*
X055250Y026051D01*
X040500Y029500D02*
X040000Y030000D01*
X057250Y013000D02*
X057199Y012250D01*
X057190Y012041D01*
X057190Y010939D02*
X057500Y010000D01*
X064000Y003250D02*
X064500Y002750D01*
X067256Y006250D02*
X067500Y006250D01*
X067500Y006250D01*
X069000Y005250D02*
X069250Y005010D01*
X069250Y005016D01*
X049250Y003000D02*
X048750Y003500D01*
D111*
X043750Y008750D03*
X046750Y012000D03*
X050250Y011250D03*
X051250Y009250D03*
X057250Y013000D03*
X055250Y015000D03*
X055250Y015500D03*
X055250Y016000D03*
X057500Y017250D03*
X060500Y019500D03*
X060750Y021250D03*
X062410Y020280D03*
X062500Y019000D03*
X063750Y020250D03*
X062540Y023000D03*
X062580Y024000D03*
X059250Y023000D03*
X056500Y021250D03*
X051500Y022500D03*
X046250Y020750D03*
X048000Y015500D03*
X057500Y010000D03*
X060000Y010000D03*
X062500Y011000D03*
X060000Y013000D03*
X064500Y015000D03*
X068000Y020250D03*
X068000Y023250D03*
X066250Y025000D03*
X066750Y026000D03*
X068750Y026750D03*
X065750Y024000D03*
X061000Y007500D03*
X061750Y005500D03*
X058750Y004250D03*
X045500Y028000D03*
X042250Y028750D03*
X043000Y031000D03*
D13*
X041051Y025500D02*
X041000Y025449D01*
X041000Y024000D01*
X040000Y024000D02*
X040000Y025449D01*
X039949Y025500D01*
X052000Y028500D02*
X052000Y030000D01*
X052250Y030250D01*
X053000Y028500D02*
X054000Y028500D01*
X054500Y028949D01*
X054500Y030051D02*
X054500Y030250D01*
X059000Y030250D02*
X059750Y029500D01*
X061000Y029500D01*
X060000Y020199D02*
X060019Y020080D01*
X060500Y019500D01*
X066000Y014500D02*
X066000Y013500D01*
X067500Y013500D01*
X068250Y014250D01*
X068250Y015750D01*
X069250Y016482D01*
X066000Y013500D02*
X066000Y013301D01*
X066000Y012199D02*
X065500Y010250D01*
X060000Y010000D02*
X058303Y010000D01*
X057500Y010000D01*
X058303Y010000D02*
X058347Y010002D01*
X058390Y010008D01*
X058432Y010017D01*
X058474Y010030D01*
X058514Y010047D01*
X058553Y010067D01*
X058590Y010090D01*
X058624Y010117D01*
X058657Y010146D01*
X058656Y010146D02*
X058750Y010240D01*
X058750Y012500D02*
X058750Y012760D01*
X058750Y013000D01*
X059000Y013000D02*
X060000Y013000D01*
X059000Y013000D02*
X057250Y013000D01*
X066000Y004250D02*
X065500Y003750D01*
X065500Y002750D01*
X066000Y004250D02*
X067250Y004250D01*
X067250Y005250D02*
X068740Y005250D01*
X069250Y005010D01*
X069250Y005016D02*
X069234Y005250D01*
X068740Y005250D01*
X069250Y003000D02*
X067250Y003000D01*
X067250Y002949D01*
X069250Y003000D02*
X069250Y002490D01*
X069250Y003000D02*
X070648Y003000D01*
X071500Y004000D01*
X071449Y003949D01*
D63*
X054250Y027750D02*
X053750Y027500D01*
X047000Y027500D01*
X046500Y028000D01*
X046449Y028000D02*
X045500Y028000D01*
X046449Y028000D02*
X046500Y027949D01*
X046500Y029051D02*
X045801Y029000D01*
X044500Y029000D01*
X054250Y027750D02*
X054750Y027750D01*
X056500Y029500D01*
X057250Y030250D01*
X059000Y030250D01*
D47*
X052500Y022750D02*
X052500Y022500D01*
X051500Y022500D01*
X048000Y022500D02*
X047500Y022500D01*
X046250Y020750D01*
X048000Y022500D02*
X048000Y022551D01*
D97*
X055250Y016000D02*
X055250Y010750D01*
X067250Y010000D02*
X067266Y009984D01*
X067266Y008500D01*
X055750Y030250D02*
X054500Y030250D01*
X052250Y030250D01*
D131*
X068000Y022500D02*
X068000Y022301D01*
X069000Y018250D02*
X069250Y018018D01*
X059000Y013000D02*
X058750Y012760D01*
X058750Y006301D02*
X058750Y006250D01*
X058500Y006250D01*
D110*
X065500Y006250D02*
X067500Y006250D01*
X067256Y006250D02*
X067266Y008500D01*
X067250Y008500D02*
X067250Y010000D01*
X071750Y013250D01*
X071750Y019750D01*
X070250Y020750D01*
X070250Y030250D01*
X068750Y031000D01*
X056500Y031000D01*
X055750Y030250D01*
X059750Y029551D02*
X059750Y029500D01*
X061000Y029500D02*
X061000Y028500D01*
X067256Y006250D02*
X067250Y005250D01*
X067250Y004250D01*
D95*
X050000Y029500D02*
X050000Y029750D01*
X075000Y001000D02*
D138*
X075000Y001000D02*
X075000Y032000D01*
X112000Y032000D01*
X112000Y001000D01*
X075000Y001000D01*
D61*
X089825Y004717D02*
X089967Y004575D01*
X090250Y004575D01*
X090392Y004717D01*
X090392Y004858D01*
X090250Y005000D01*
X089967Y005000D01*
X089825Y005142D01*
X089825Y005284D01*
X089967Y005426D01*
X090250Y005426D01*
X090392Y005284D01*
X090746Y005426D02*
X090746Y004575D01*
X091029Y004858D01*
X091313Y004575D01*
X091313Y005426D01*
X091666Y005142D02*
X091950Y005426D01*
X092234Y005142D01*
X092234Y004575D01*
X092587Y004575D02*
X092587Y005426D01*
X093013Y005426D01*
X093154Y005284D01*
X093154Y005000D01*
X093013Y004858D01*
X092587Y004858D01*
X092871Y004858D02*
X093154Y004575D01*
X093508Y004575D02*
X093508Y005426D01*
X093791Y005142D01*
X094075Y005426D01*
X094075Y004575D01*
X092234Y005000D02*
X091666Y005000D01*
X091666Y005142D02*
X091666Y004575D01*
D42*
X090737Y003645D02*
X090737Y003055D01*
X091032Y003055D01*
X091130Y003153D01*
X091130Y003350D01*
X091032Y003449D01*
X090737Y003449D01*
X090495Y003449D02*
X090396Y003449D01*
X090199Y003252D01*
X090199Y003055D02*
X090199Y003449D01*
X089949Y003350D02*
X089850Y003449D01*
X089653Y003449D01*
X089555Y003350D01*
X089555Y003153D01*
X089653Y003055D01*
X089850Y003055D01*
X089949Y003153D01*
X089949Y003350D01*
X090055Y002145D02*
X090350Y002145D01*
X090449Y002047D01*
X090449Y001850D01*
X090350Y001752D01*
X090055Y001752D01*
X090252Y001752D02*
X090449Y001555D01*
X090699Y001555D02*
X091093Y001555D01*
X091344Y001752D02*
X091541Y001555D01*
X091738Y001752D01*
X091738Y002145D01*
X091988Y001949D02*
X092185Y002145D01*
X092185Y001555D01*
X091988Y001555D02*
X092382Y001555D01*
X091344Y001752D02*
X091344Y002145D01*
X091093Y002145D02*
X090699Y002145D01*
X090699Y001555D01*
X090699Y001850D02*
X090896Y001850D01*
X090055Y001555D02*
X090055Y002145D01*
X091381Y003055D02*
X091676Y003055D01*
X091775Y003153D01*
X091676Y003252D01*
X091479Y003252D01*
X091381Y003350D01*
X091479Y003449D01*
X091775Y003449D01*
X092026Y003449D02*
X092026Y003153D01*
X092124Y003055D01*
X092222Y003153D01*
X092321Y003055D01*
X092419Y003153D01*
X092419Y003449D01*
X092768Y003449D02*
X092965Y003449D01*
X093064Y003350D01*
X093064Y003055D01*
X092768Y003055D01*
X092670Y003153D01*
X092768Y003252D01*
X093064Y003252D01*
X093315Y003252D02*
X093511Y003449D01*
X093610Y003449D01*
X093852Y003449D02*
X093950Y003449D01*
X094049Y003350D01*
X094147Y003449D01*
X094245Y003350D01*
X094245Y003055D01*
X094049Y003055D02*
X094049Y003350D01*
X093852Y003449D02*
X093852Y003055D01*
X093315Y003055D02*
X093315Y003449D01*
X094496Y003153D02*
X094496Y003055D01*
X094595Y003055D01*
X094595Y003153D01*
X094496Y003153D01*
X094818Y003153D02*
X094917Y003055D01*
X095212Y003055D01*
X095463Y003153D02*
X095561Y003055D01*
X095758Y003055D01*
X095857Y003153D01*
X095857Y003350D01*
X095758Y003449D01*
X095561Y003449D01*
X095463Y003350D01*
X095463Y003153D01*
X095212Y003449D02*
X094917Y003449D01*
X094818Y003350D01*
X094818Y003153D01*
X094889Y002145D02*
X094988Y002047D01*
X094594Y001653D01*
X094692Y001555D01*
X094889Y001555D01*
X094988Y001653D01*
X094988Y002047D01*
X094889Y002145D02*
X094692Y002145D01*
X094594Y002047D01*
X094594Y001653D01*
X094343Y001653D02*
X094245Y001555D01*
X094048Y001555D01*
X093949Y001653D01*
X094343Y002047D01*
X094343Y001653D01*
X093949Y001653D02*
X093949Y002047D01*
X094048Y002145D01*
X094245Y002145D01*
X094343Y002047D01*
X093699Y002047D02*
X093600Y002145D01*
X093403Y002145D01*
X093305Y002047D01*
X093699Y002047D02*
X093699Y001949D01*
X093305Y001555D01*
X093699Y001555D01*
X095238Y001555D02*
X095238Y001653D01*
X095632Y002047D01*
X095632Y002145D01*
X095238Y002145D01*
X096108Y003055D02*
X096108Y003449D01*
X096206Y003449D01*
X096304Y003350D01*
X096403Y003449D01*
X096501Y003350D01*
X096501Y003055D01*
X096304Y003055D02*
X096304Y003350D01*
D132*
X098310Y018398D03*
X098310Y018713D03*
X098310Y019027D03*
X098310Y019342D03*
X098310Y019657D03*
X098310Y019972D03*
X098310Y020287D03*
X098310Y020602D03*
X101690Y020602D03*
X101690Y020287D03*
X101690Y019972D03*
X101690Y019657D03*
X101690Y019342D03*
X101690Y019027D03*
X101690Y018713D03*
X101690Y018398D03*
D81*
X101102Y017810D03*
X100787Y017810D03*
X100472Y017810D03*
X100157Y017810D03*
X099842Y017810D03*
X099527Y017810D03*
X099213Y017810D03*
X098898Y017810D03*
X098898Y021190D03*
X099213Y021190D03*
X099527Y021190D03*
X099842Y021190D03*
X100157Y021190D03*
X100472Y021190D03*
X100787Y021190D03*
X101102Y021190D03*
D97*
X081500Y018500D03*
X077000Y024000D03*
X078000Y031000D03*
D114*
X077000Y031000D03*
X077000Y030000D03*
X078000Y030000D03*
X078000Y029000D03*
X077000Y029000D03*
X077000Y028000D03*
X078000Y028000D03*
X078000Y027000D03*
X077000Y027000D03*
X078000Y024000D03*
X078000Y023000D03*
X077000Y023000D03*
X077000Y022000D03*
X078000Y022000D03*
X078000Y021000D03*
X077000Y021000D03*
X077000Y020000D03*
X078000Y020000D03*
X078000Y019000D03*
X077000Y019000D03*
X077000Y018000D03*
X078000Y018000D03*
X080500Y017500D03*
X080500Y018500D03*
X081500Y017500D03*
X081500Y016500D03*
X081500Y015500D03*
X081500Y014500D03*
X080500Y014500D03*
X080500Y015500D03*
X080500Y016500D03*
X078000Y015000D03*
X077000Y015000D03*
X077000Y014000D03*
X078000Y014000D03*
X078000Y013000D03*
X077000Y013000D03*
X077000Y012000D03*
X078000Y012000D03*
X078000Y011000D03*
X077000Y011000D03*
X077000Y010000D03*
X078000Y010000D03*
X078000Y009000D03*
X077000Y009000D03*
X077000Y008000D03*
X078000Y008000D03*
X080500Y022000D03*
X080500Y023000D03*
X080500Y024000D03*
X080500Y025000D03*
X080500Y026000D03*
X080500Y027000D03*
X080500Y028000D03*
X080500Y029000D03*
X081500Y029000D03*
X081500Y028000D03*
X081500Y027000D03*
X081500Y026000D03*
X081500Y025000D03*
X081500Y024000D03*
X081500Y023000D03*
X081500Y022000D03*
X084000Y025250D03*
X084000Y026250D03*
X085000Y026250D03*
X085000Y025250D03*
D101*
X084540Y010250D03*
X084540Y009750D03*
X084540Y009250D03*
X084540Y008750D03*
X084540Y008250D03*
X084540Y007750D03*
X084540Y007250D03*
X084540Y006750D03*
X086960Y006750D03*
X086960Y007250D03*
X086960Y007750D03*
X086960Y008250D03*
X086960Y008750D03*
X086960Y009250D03*
X086960Y009750D03*
X086960Y010250D03*
D113*
X095750Y008551D03*
X095750Y007449D03*
X095750Y006301D03*
X095750Y005199D03*
X099500Y014699D03*
X099500Y015801D03*
X089500Y022699D03*
X089500Y023801D03*
X090000Y025199D03*
X090000Y026301D03*
X085000Y022551D03*
X085000Y021449D03*
X085000Y020051D03*
X085000Y018949D03*
D117*
X099500Y013310D03*
X099500Y012190D03*
D76*
X106250Y016482D03*
X106250Y018018D03*
D74*
X104000Y014500D03*
X093500Y025000D03*
X093500Y028500D03*
D86*
X093500Y029500D03*
X094500Y029500D03*
X095500Y029500D03*
X095500Y028500D03*
X094500Y028500D03*
X094500Y026000D03*
X095500Y026000D03*
X095500Y025000D03*
X094500Y025000D03*
X093500Y026000D03*
X090000Y028500D03*
X090000Y029500D03*
X089000Y029500D03*
X088000Y029500D03*
X088000Y028500D03*
X089000Y028500D03*
X087000Y028500D03*
X086000Y028500D03*
X086000Y029500D03*
X087000Y029500D03*
X098000Y029500D03*
X099000Y029500D03*
X100000Y029500D03*
X101000Y029500D03*
X102000Y029500D03*
X103000Y029500D03*
X104000Y029500D03*
X105000Y029500D03*
X106000Y029500D03*
X106000Y028500D03*
X105000Y028500D03*
X104000Y028500D03*
X103000Y028500D03*
X102000Y028500D03*
X101000Y028500D03*
X100000Y028500D03*
X099000Y028500D03*
X098000Y028500D03*
X108500Y028000D03*
X108500Y029000D03*
X108500Y030000D03*
X109500Y030000D03*
X109500Y029000D03*
X109500Y028000D03*
X109500Y027000D03*
X109500Y026000D03*
X109500Y025000D03*
X109500Y024000D03*
X109500Y023000D03*
X108500Y023000D03*
X108500Y024000D03*
X108500Y025000D03*
X108500Y026000D03*
X108500Y027000D03*
X104000Y016500D03*
X104000Y015500D03*
X103000Y015500D03*
X103000Y016500D03*
X103000Y014500D03*
X108500Y011000D03*
X109500Y011000D03*
X109500Y010000D03*
X109500Y009000D03*
X109500Y008000D03*
X109500Y007000D03*
X109500Y006000D03*
X109500Y005000D03*
X109500Y004000D03*
X108500Y004000D03*
X108500Y005000D03*
X108500Y006000D03*
X108500Y007000D03*
X108500Y008000D03*
X108500Y009000D03*
X108500Y010000D03*
X102500Y003750D03*
X102500Y002750D03*
X101500Y002750D03*
X100500Y002750D03*
X100500Y003750D03*
X101500Y003750D03*
X099500Y003750D03*
X098500Y003750D03*
X098500Y002750D03*
X099500Y002750D03*
X097500Y002750D03*
X097500Y003750D03*
X088250Y004000D03*
X087250Y004000D03*
X087250Y003000D03*
X088250Y003000D03*
X086250Y003000D03*
X085250Y003000D03*
X085250Y004000D03*
X086250Y004000D03*
X084250Y004000D03*
X084250Y003000D03*
X080750Y003000D03*
X080750Y004000D03*
X079750Y004000D03*
X079750Y003000D03*
X078750Y003000D03*
X077750Y003000D03*
X077750Y004000D03*
X078750Y004000D03*
X076750Y004000D03*
X076750Y003000D03*
D88*
X080750Y006699D03*
X080750Y007801D03*
X083000Y009199D03*
X083000Y010301D03*
X088250Y009949D03*
X088250Y011051D03*
X094190Y010939D03*
X094190Y012041D03*
X094500Y014949D03*
X094500Y016051D03*
X094500Y017949D03*
X094500Y019051D03*
X097000Y020199D03*
X097000Y021301D03*
X092250Y024949D03*
X092250Y026051D03*
X091500Y028949D03*
X091500Y030051D03*
X096750Y029551D03*
X096750Y028449D03*
X099000Y027051D03*
X099000Y025949D03*
X105000Y022301D03*
X105000Y021199D03*
X103000Y013301D03*
X103000Y012199D03*
X104250Y004051D03*
X104250Y002949D03*
X083500Y027949D03*
X083500Y029051D03*
D62*
X096000Y018900D03*
X096000Y015100D03*
D129*
X095750Y012760D03*
X095750Y010240D03*
X106250Y005010D03*
X106250Y002490D03*
D128*
X083051Y007750D03*
X081949Y007750D03*
X081801Y009750D03*
X080699Y009750D03*
X078051Y025500D03*
X076949Y025500D03*
D43*
X106500Y015000D03*
X106500Y014000D03*
D105*
X106234Y008500D03*
X104266Y008500D03*
X092234Y010750D03*
X090266Y010750D03*
D118*
X089301Y006500D03*
X088199Y006500D03*
D133*
X102500Y006250D03*
X102500Y010250D03*
D70*
X101500Y009500D02*
X101500Y015000D01*
X102000Y015500D02*
X103000Y015500D01*
X103250Y016000D02*
X102500Y016000D01*
X102250Y016250D01*
X101102Y017398D01*
X101102Y017810D01*
X100787Y017810D02*
X100787Y016713D01*
X102000Y015500D01*
X101000Y015810D02*
X101000Y010250D01*
X100000Y009000D01*
X100000Y003250D01*
X099500Y002750D01*
X099250Y002250D02*
X100250Y002250D01*
X100500Y002500D01*
X100500Y002750D01*
X101000Y003250D02*
X101000Y008750D01*
X101500Y009500D01*
X100500Y011000D02*
X100500Y015790D01*
X100160Y016130D01*
X100160Y017807D01*
X100157Y017810D01*
X100460Y017797D02*
X100460Y016350D01*
X101000Y015810D01*
X099850Y016820D02*
X099500Y016220D01*
X099500Y015801D01*
X099500Y015750D01*
X098500Y015750D02*
X099520Y017052D01*
X099527Y017810D01*
X099840Y017812D02*
X099842Y017810D01*
X099850Y017802D01*
X099850Y016820D01*
X099200Y017330D02*
X098000Y016000D01*
X098000Y007500D01*
X096750Y008500D02*
X095750Y008500D01*
X096750Y008500D02*
X096750Y005250D01*
X098000Y004250D01*
X098000Y003250D01*
X098500Y002750D01*
X099000Y002500D02*
X099250Y002250D01*
X099000Y002500D02*
X099000Y004500D01*
X097500Y005750D01*
X097510Y016450D01*
X098588Y017500D01*
X098898Y017810D01*
X099200Y017797D02*
X099200Y017330D01*
X099200Y017797D02*
X099213Y017810D01*
X098310Y018398D02*
X098308Y018400D01*
X097880Y018400D01*
X096750Y017270D01*
X096750Y017250D01*
X095900Y016000D01*
X096000Y015100D01*
X095750Y015000D01*
X094301Y015000D01*
X094500Y014949D01*
X094500Y016051D02*
X094500Y017250D01*
X094500Y017949D01*
X094301Y019000D02*
X095750Y019000D01*
X096000Y018900D01*
X096000Y018713D01*
X098310Y018713D01*
X098310Y019027D02*
X097500Y019027D01*
X097500Y019500D01*
X097500Y019670D01*
X097490Y019660D01*
X098057Y019660D01*
X098310Y019657D01*
X098312Y019970D02*
X098850Y019980D01*
X098970Y019860D01*
X098970Y019340D01*
X099500Y019000D01*
X099040Y019310D01*
X098310Y019340D01*
X098310Y019342D01*
X098312Y019970D02*
X098310Y019972D01*
X097942Y019972D01*
X097596Y020378D01*
X097590Y020582D01*
X097590Y021250D01*
X097750Y021250D01*
X097590Y021250D02*
X097250Y021250D01*
X097000Y021250D01*
X097000Y021301D02*
X097250Y021250D01*
X097500Y022250D02*
X097500Y023250D01*
X095500Y025000D01*
X095500Y026000D02*
X098000Y023500D01*
X098000Y022500D01*
X098890Y021630D01*
X098898Y021190D01*
X099200Y021210D02*
X099200Y021940D01*
X098500Y022750D01*
X098500Y023750D01*
X096250Y026000D01*
X096250Y026500D01*
X096000Y026750D01*
X091750Y026750D01*
X090000Y026250D01*
X085000Y026250D01*
X084500Y026750D02*
X084500Y025250D01*
X084500Y025000D01*
X084000Y024500D01*
X081000Y024500D01*
X080500Y025000D01*
X079750Y025500D02*
X080250Y026000D01*
X080500Y026000D01*
X081000Y026500D01*
X082000Y026500D01*
X083000Y025250D01*
X084000Y025250D01*
X084500Y025250D02*
X085000Y025250D01*
X084000Y026250D02*
X083000Y026250D01*
X082000Y027500D01*
X081000Y027500D01*
X080500Y027000D01*
X080000Y027000D01*
X079250Y026250D01*
X079250Y020750D01*
X080250Y019750D01*
X082250Y019750D01*
X082750Y019250D01*
X082750Y015250D01*
X083750Y014250D01*
X087000Y014250D01*
X089000Y012250D01*
X089000Y008250D01*
X088000Y007250D01*
X086960Y007250D01*
X086960Y006750D02*
X088250Y006750D01*
X088250Y006500D01*
X088199Y006500D01*
X089301Y006500D02*
X089500Y006500D01*
X089500Y012500D01*
X087250Y014750D01*
X084000Y014750D01*
X083250Y015500D01*
X083250Y019500D01*
X082500Y020250D01*
X080500Y020250D01*
X079750Y021000D01*
X079750Y025500D01*
X080500Y024000D02*
X081000Y023500D01*
X087500Y023500D01*
X087920Y023660D01*
X088971Y023660D01*
X089500Y023801D01*
X090000Y025199D01*
X090000Y026301D02*
X090000Y026500D01*
X090000Y026301D02*
X090250Y026500D01*
X090750Y027000D02*
X084750Y027000D01*
X084500Y026750D01*
X085250Y028000D02*
X086500Y028000D01*
X087000Y028500D01*
X087500Y029000D02*
X085250Y029000D01*
X084000Y030500D01*
X076500Y030500D01*
X076250Y030250D01*
X076250Y029750D01*
X077000Y029000D01*
X077500Y029500D02*
X079500Y029500D01*
X080000Y030000D01*
X083750Y030000D01*
X085250Y028000D01*
X083500Y027949D02*
X083500Y028000D01*
X086000Y031000D02*
X080000Y031000D01*
X079250Y028750D02*
X078750Y028250D01*
X078750Y019500D01*
X080500Y017500D01*
X081000Y017000D01*
X081750Y017000D01*
X082250Y016250D01*
X082250Y014250D01*
X083000Y013500D01*
X085250Y013500D01*
X086250Y012500D01*
X086250Y005500D01*
X086750Y005000D01*
X086750Y002750D01*
X086500Y002500D01*
X085500Y002500D01*
X085250Y003000D01*
X085750Y003500D02*
X085750Y012000D01*
X085000Y012750D01*
X081750Y012750D01*
X081000Y013500D01*
X081000Y015750D01*
X080500Y016500D01*
X079750Y017250D01*
X076250Y017250D01*
X075750Y017750D01*
X075750Y030750D01*
X076500Y031500D01*
X087500Y031500D01*
X088000Y031000D01*
X088000Y029500D01*
X087500Y029000D02*
X088000Y028500D01*
X087000Y029750D02*
X086000Y031000D01*
X090750Y027000D02*
X091750Y027250D01*
X096250Y027250D01*
X096750Y026750D01*
X096750Y026250D01*
X099000Y024000D01*
X099000Y022750D01*
X099540Y022290D01*
X099527Y021190D01*
X099840Y021192D02*
X099840Y022700D01*
X099540Y023000D01*
X099580Y024000D02*
X099000Y024750D01*
X099000Y025949D01*
X099000Y026000D01*
X097000Y027750D01*
X095500Y027750D01*
X095000Y028250D01*
X095000Y029000D01*
X094500Y029500D01*
X095500Y029500D02*
X096500Y028500D01*
X096750Y028500D01*
X096750Y028449D01*
X099000Y028500D02*
X099000Y027000D01*
X099000Y027051D01*
X099000Y027000D02*
X099250Y027250D01*
X100160Y026670D02*
X102000Y028500D01*
X102000Y029500D01*
X101000Y029500D02*
X101000Y028500D01*
X100000Y028500D02*
X100000Y029500D01*
X102500Y027500D02*
X103000Y027500D01*
X104000Y028500D01*
X104000Y029500D01*
X105000Y029500D02*
X105000Y028500D01*
X103500Y027000D01*
X103000Y027000D01*
X101250Y025250D01*
X101250Y022750D01*
X100790Y021940D01*
X100790Y021650D01*
X100787Y021190D01*
X100472Y021190D02*
X100480Y021740D01*
X100500Y022250D01*
X100750Y023000D01*
X100750Y025750D01*
X102500Y027500D01*
X103500Y026500D02*
X104000Y026500D01*
X106000Y028500D01*
X106000Y029500D01*
X105750Y026750D02*
X105750Y019500D01*
X105170Y019030D01*
X101692Y019030D01*
X101690Y019027D01*
X101692Y019340D02*
X102210Y019340D01*
X102370Y019500D01*
X103500Y019500D01*
X104250Y020250D01*
X104250Y021750D01*
X105000Y022500D01*
X105000Y023250D01*
X103250Y025000D02*
X103250Y021060D01*
X102480Y020290D01*
X101693Y020290D01*
X101690Y020287D01*
X101717Y020000D02*
X103000Y020000D01*
X103750Y020750D01*
X103750Y026000D01*
X103500Y026500D02*
X102000Y025000D01*
X102000Y022620D01*
X101110Y021720D01*
X101100Y021570D01*
X101102Y021190D01*
X101690Y020602D02*
X102008Y020590D01*
X102250Y020750D01*
X102750Y021250D01*
X102750Y024000D01*
X100160Y022160D02*
X100160Y021830D01*
X100157Y021190D01*
X099842Y021190D02*
X099842Y020932D01*
X099850Y020930D01*
X099850Y019650D01*
X102000Y017500D01*
X103000Y017500D01*
X104000Y016500D01*
X104500Y016000D02*
X104500Y017000D01*
X103500Y018000D01*
X102088Y018000D01*
X101690Y018398D01*
X101693Y018710D02*
X102130Y018710D01*
X102340Y018500D01*
X104250Y018500D01*
X104750Y018250D01*
X106000Y018250D01*
X105000Y020250D02*
X105000Y021199D01*
X101717Y020000D02*
X101690Y019972D01*
X101677Y019670D02*
X101180Y019670D01*
X100750Y020100D01*
X100750Y020250D01*
X101677Y019670D02*
X101690Y019657D01*
X101690Y019342D02*
X101692Y019340D01*
X101690Y018713D02*
X101693Y018710D01*
X100472Y017810D02*
X100460Y017797D01*
X098500Y015750D02*
X098500Y015680D01*
X098520Y010700D01*
X098750Y010250D01*
X098750Y005500D01*
X099500Y003750D02*
X099500Y009750D01*
X100500Y011000D01*
X099500Y011000D02*
X099500Y012190D01*
X099500Y012250D01*
X099500Y013310D02*
X099500Y014699D01*
X103000Y013301D02*
X103051Y013250D01*
X104000Y014500D02*
X103500Y015000D01*
X103500Y015750D01*
X103250Y016000D01*
X104000Y015500D02*
X104500Y016000D01*
X099410Y020280D02*
X098707Y020280D01*
X098667Y020280D01*
X098707Y020280D02*
X098310Y020287D01*
X098310Y020602D02*
X098250Y020662D01*
X098250Y021500D01*
X097500Y022250D01*
X096250Y023000D02*
X095250Y022000D01*
X085801Y022000D01*
X085000Y021449D01*
X085000Y020051D01*
X085000Y019000D02*
X085000Y018949D01*
X085000Y015500D01*
X083750Y012000D02*
X081000Y012000D01*
X078500Y014500D01*
X077500Y014500D01*
X077000Y015000D01*
X080699Y009750D02*
X080750Y009699D01*
X080750Y008750D01*
X080750Y007801D01*
X080750Y007750D01*
X080750Y006699D02*
X083250Y006750D01*
X084000Y007750D01*
X084540Y007750D01*
X084540Y007250D02*
X085070Y007250D01*
X085250Y007000D01*
X085250Y006000D01*
X084750Y005500D01*
X080000Y005500D01*
X079250Y004500D01*
X079250Y003500D01*
X078750Y003000D01*
X078250Y003500D02*
X077750Y003000D01*
X078250Y003500D02*
X078250Y005250D01*
X079000Y006000D01*
X083250Y006000D01*
X084000Y006750D01*
X084540Y006750D01*
X083051Y007750D02*
X083551Y008250D01*
X084540Y008250D01*
X084750Y008250D01*
X084540Y008750D02*
X083750Y008750D01*
X083250Y008500D01*
X082500Y008500D01*
X081949Y007750D01*
X083000Y009199D02*
X083000Y009250D01*
X084540Y009250D01*
X084540Y009750D02*
X081801Y009750D01*
X081750Y009750D01*
X083000Y010250D02*
X084540Y010250D01*
X083000Y010301D02*
X083000Y010250D01*
X086960Y010250D02*
X087250Y010250D01*
X087250Y011250D01*
X088051Y011250D01*
X088250Y011051D01*
X088250Y010000D02*
X088250Y009949D01*
X088250Y009250D01*
X088250Y009750D02*
X086960Y009750D01*
X093500Y008000D02*
X094000Y007500D01*
X095750Y007449D01*
X095750Y006301D01*
X095500Y006250D01*
X095750Y005199D02*
X095748Y005098D01*
X095750Y004250D01*
X093500Y008000D02*
X093500Y021250D01*
X094301Y019000D02*
X094500Y019051D01*
X096000Y018900D02*
X096090Y018720D01*
X099213Y021190D02*
X099200Y021210D01*
X099840Y021192D02*
X099842Y021190D01*
X100160Y022160D02*
X100150Y026470D01*
X100160Y026670D01*
X094500Y025000D02*
X094000Y024500D01*
X093250Y024500D01*
X092750Y025000D01*
X092250Y025000D01*
X092000Y024500D01*
X090750Y022750D01*
X089551Y022750D01*
X089500Y022699D01*
X090500Y023250D02*
X088250Y023250D01*
X087500Y022500D01*
X085250Y022500D01*
X085000Y022551D01*
X085000Y021500D02*
X085000Y021449D01*
X089500Y023750D02*
X089500Y023801D01*
X090500Y023250D02*
X091500Y025750D01*
X092000Y026000D01*
X093500Y026000D01*
X093500Y025000D01*
X092250Y025000D02*
X092250Y024949D01*
X092000Y025000D01*
X092250Y025000D01*
X092000Y026000D02*
X092250Y026051D01*
X077500Y029500D02*
X077000Y030000D01*
X094250Y013000D02*
X094199Y012250D01*
X094190Y012041D01*
X094190Y010939D02*
X094500Y010000D01*
X101000Y003250D02*
X101500Y002750D01*
X104256Y006250D02*
X104500Y006250D01*
X104500Y006250D01*
X106000Y005250D02*
X106250Y005010D01*
X106250Y005016D01*
X086250Y003000D02*
X085750Y003500D01*
D111*
X080750Y008750D03*
X083750Y012000D03*
X087250Y011250D03*
X088250Y009250D03*
X094250Y013000D03*
X092250Y015000D03*
X092250Y015500D03*
X092250Y016000D03*
X094500Y017250D03*
X097500Y019500D03*
X097750Y021250D03*
X099410Y020280D03*
X099500Y019000D03*
X100750Y020250D03*
X099540Y023000D03*
X099580Y024000D03*
X096250Y023000D03*
X093500Y021250D03*
X088500Y022500D03*
X083250Y020750D03*
X085000Y015500D03*
X094500Y010000D03*
X097000Y010000D03*
X099500Y011000D03*
X097000Y013000D03*
X101500Y015000D03*
X105000Y020250D03*
X105000Y023250D03*
X103250Y025000D03*
X103750Y026000D03*
X105750Y026750D03*
X102750Y024000D03*
X098000Y007500D03*
X098750Y005500D03*
X095750Y004250D03*
X082500Y028000D03*
X079250Y028750D03*
X080000Y031000D03*
D13*
X078051Y025500D02*
X078000Y025449D01*
X078000Y024000D01*
X077000Y024000D02*
X077000Y025449D01*
X076949Y025500D01*
X089000Y028500D02*
X089000Y030000D01*
X089250Y030250D01*
X090000Y028500D02*
X091000Y028500D01*
X091500Y028949D01*
X091500Y030051D02*
X091500Y030250D01*
X096000Y030250D02*
X096750Y029500D01*
X098000Y029500D01*
X097000Y020199D02*
X097019Y020080D01*
X097500Y019500D01*
X103000Y014500D02*
X103000Y013500D01*
X104500Y013500D01*
X105250Y014250D01*
X105250Y015750D01*
X106250Y016482D01*
X103000Y013500D02*
X103000Y013301D01*
X103000Y012199D02*
X102500Y010250D01*
X097000Y010000D02*
X095303Y010000D01*
X094500Y010000D01*
X095303Y010000D02*
X095347Y010002D01*
X095390Y010008D01*
X095432Y010017D01*
X095474Y010030D01*
X095514Y010047D01*
X095553Y010067D01*
X095590Y010090D01*
X095624Y010117D01*
X095657Y010146D01*
X095656Y010146D02*
X095750Y010240D01*
X095750Y012500D02*
X095750Y012760D01*
X095750Y013000D01*
X096000Y013000D02*
X097000Y013000D01*
X096000Y013000D02*
X094250Y013000D01*
X103000Y004250D02*
X102500Y003750D01*
X102500Y002750D01*
X103000Y004250D02*
X104250Y004250D01*
X104250Y005250D02*
X105740Y005250D01*
X106250Y005010D01*
X106250Y005016D02*
X106234Y005250D01*
X105740Y005250D01*
X106250Y003000D02*
X104250Y003000D01*
X104250Y002949D01*
X106250Y003000D02*
X106250Y002490D01*
X106250Y003000D02*
X107648Y003000D01*
X108500Y004000D01*
X108449Y003949D01*
D63*
X091250Y027750D02*
X090750Y027500D01*
X084000Y027500D01*
X083500Y028000D01*
X083449Y028000D02*
X082500Y028000D01*
X083449Y028000D02*
X083500Y027949D01*
X083500Y029051D02*
X082801Y029000D01*
X081500Y029000D01*
X091250Y027750D02*
X091750Y027750D01*
X093500Y029500D01*
X094250Y030250D01*
X096000Y030250D01*
D47*
X089500Y022750D02*
X089500Y022500D01*
X088500Y022500D01*
X085000Y022500D02*
X084500Y022500D01*
X083250Y020750D01*
X085000Y022500D02*
X085000Y022551D01*
D97*
X092250Y016000D02*
X092250Y010750D01*
X104250Y010000D02*
X104266Y009984D01*
X104266Y008500D01*
X092750Y030250D02*
X091500Y030250D01*
X089250Y030250D01*
D131*
X105000Y022500D02*
X105000Y022301D01*
X106000Y018250D02*
X106250Y018018D01*
X096000Y013000D02*
X095750Y012760D01*
X095750Y006301D02*
X095750Y006250D01*
X095500Y006250D01*
D110*
X102500Y006250D02*
X104500Y006250D01*
X104256Y006250D02*
X104266Y008500D01*
X104250Y008500D02*
X104250Y010000D01*
X108750Y013250D01*
X108750Y019750D01*
X107250Y020750D01*
X107250Y030250D01*
X105750Y031000D01*
X093500Y031000D01*
X092750Y030250D01*
X096750Y029551D02*
X096750Y029500D01*
X098000Y029500D02*
X098000Y028500D01*
X104256Y006250D02*
X104250Y005250D01*
X104250Y004250D01*
D95*
X087000Y029500D02*
X087000Y029750D01*
M02*
