%
T01C0.051200
X30266Y8500
X32234Y8500
X18234Y10750
X16266Y10750
X67266Y8500
X69234Y8500
X55234Y10750
X53266Y10750
X104266Y8500
X106234Y8500
X92234Y10750
X90266Y10750
T02C0.044000
X28500Y10250
X28500Y6250
X65500Y10250
X65500Y6250
X102500Y10250
X102500Y6250
T03C0.040000
X2750Y3000
X2750Y4000
X3750Y4000
X4750Y4000
X5750Y4000
X6750Y4000
X6750Y3000
X5750Y3000
X4750Y3000
X3750Y3000
X10250Y3000
X10250Y4000
X11250Y4000
X12250Y4000
X13250Y4000
X14250Y4000
X14250Y3000
X13250Y3000
X12250Y3000
X11250Y3000
X23500Y2750
X23500Y3750
X24500Y3750
X25500Y3750
X26500Y3750
X27500Y3750
X28500Y3750
X28500Y2750
X27500Y2750
X26500Y2750
X25500Y2750
X24500Y2750
X34500Y4000
X34500Y5000
X34500Y6000
X34500Y7000
X34500Y8000
X34500Y9000
X34500Y10000
X34500Y11000
X35500Y11000
X35500Y10000
X35500Y9000
X35500Y8000
X35500Y7000
X35500Y6000
X35500Y5000
X35500Y4000
X30000Y14500
X30000Y15500
X30000Y16500
X29000Y16500
X29000Y15500
X29000Y14500
X34500Y23000
X34500Y24000
X34500Y25000
X34500Y26000
X34500Y27000
X34500Y28000
X34500Y29000
X34500Y30000
X35500Y30000
X35500Y29000
X35500Y28000
X35500Y27000
X35500Y26000
X35500Y25000
X35500Y24000
X35500Y23000
X32000Y28500
X31000Y28500
X31000Y29500
X32000Y29500
X30000Y29500
X30000Y28500
X29000Y28500
X28000Y28500
X28000Y29500
X29000Y29500
X27000Y29500
X26000Y29500
X26000Y28500
X27000Y28500
X25000Y28500
X25000Y29500
X24000Y29500
X24000Y28500
X21500Y28500
X21500Y29500
X20500Y29500
X20500Y28500
X19500Y28500
X19500Y29500
X16000Y29500
X16000Y28500
X15000Y28500
X14000Y28500
X14000Y29500
X15000Y29500
X13000Y29500
X12000Y29500
X12000Y28500
X13000Y28500
X19500Y26000
X20500Y26000
X21500Y26000
X21500Y25000
X20500Y25000
X19500Y25000
X39750Y3000
X39750Y4000
X40750Y4000
X41750Y4000
X42750Y4000
X43750Y4000
X43750Y3000
X42750Y3000
X41750Y3000
X40750Y3000
X47250Y3000
X47250Y4000
X48250Y4000
X49250Y4000
X50250Y4000
X51250Y4000
X51250Y3000
X50250Y3000
X49250Y3000
X48250Y3000
X60500Y2750
X60500Y3750
X61500Y3750
X62500Y3750
X63500Y3750
X64500Y3750
X65500Y3750
X65500Y2750
X64500Y2750
X63500Y2750
X62500Y2750
X61500Y2750
X71500Y4000
X71500Y5000
X71500Y6000
X71500Y7000
X71500Y8000
X71500Y9000
X71500Y10000
X71500Y11000
X72500Y11000
X72500Y10000
X72500Y9000
X72500Y8000
X72500Y7000
X72500Y6000
X72500Y5000
X72500Y4000
X67000Y14500
X67000Y15500
X67000Y16500
X66000Y16500
X66000Y15500
X66000Y14500
X71500Y23000
X71500Y24000
X71500Y25000
X71500Y26000
X71500Y27000
X71500Y28000
X71500Y29000
X71500Y30000
X72500Y30000
X72500Y29000
X72500Y28000
X72500Y27000
X72500Y26000
X72500Y25000
X72500Y24000
X72500Y23000
X69000Y28500
X68000Y28500
X68000Y29500
X69000Y29500
X67000Y29500
X67000Y28500
X66000Y28500
X65000Y28500
X65000Y29500
X66000Y29500
X64000Y29500
X63000Y29500
X63000Y28500
X64000Y28500
X62000Y28500
X62000Y29500
X61000Y29500
X61000Y28500
X58500Y28500
X58500Y29500
X57500Y29500
X57500Y28500
X56500Y28500
X56500Y29500
X53000Y29500
X53000Y28500
X52000Y28500
X51000Y28500
X51000Y29500
X52000Y29500
X50000Y29500
X49000Y29500
X49000Y28500
X50000Y28500
X56500Y26000
X57500Y26000
X58500Y26000
X58500Y25000
X57500Y25000
X56500Y25000
X76750Y3000
X76750Y4000
X77750Y4000
X78750Y4000
X79750Y4000
X80750Y4000
X80750Y3000
X79750Y3000
X78750Y3000
X77750Y3000
X84250Y3000
X84250Y4000
X85250Y4000
X86250Y4000
X87250Y4000
X88250Y4000
X88250Y3000
X87250Y3000
X86250Y3000
X85250Y3000
X97500Y2750
X97500Y3750
X98500Y3750
X99500Y3750
X100500Y3750
X101500Y3750
X102500Y3750
X102500Y2750
X101500Y2750
X100500Y2750
X99500Y2750
X98500Y2750
X108500Y4000
X108500Y5000
X108500Y6000
X108500Y7000
X108500Y8000
X108500Y9000
X108500Y10000
X108500Y11000
X109500Y11000
X109500Y10000
X109500Y9000
X109500Y8000
X109500Y7000
X109500Y6000
X109500Y5000
X109500Y4000
X104000Y14500
X104000Y15500
X104000Y16500
X103000Y16500
X103000Y15500
X103000Y14500
X108500Y23000
X108500Y24000
X108500Y25000
X108500Y26000
X108500Y27000
X108500Y28000
X108500Y29000
X108500Y30000
X109500Y30000
X109500Y29000
X109500Y28000
X109500Y27000
X109500Y26000
X109500Y25000
X109500Y24000
X109500Y23000
X106000Y28500
X105000Y28500
X105000Y29500
X106000Y29500
X104000Y29500
X104000Y28500
X103000Y28500
X102000Y28500
X102000Y29500
X103000Y29500
X101000Y29500
X100000Y29500
X100000Y28500
X101000Y28500
X99000Y28500
X99000Y29500
X98000Y29500
X98000Y28500
X95500Y28500
X95500Y29500
X94500Y29500
X94500Y28500
X93500Y28500
X93500Y29500
X90000Y29500
X90000Y28500
X89000Y28500
X88000Y28500
X88000Y29500
X89000Y29500
X87000Y29500
X86000Y29500
X86000Y28500
X87000Y28500
X93500Y26000
X94500Y26000
X95500Y26000
X95500Y25000
X94500Y25000
X93500Y25000
T04C0.036000
X4000Y31000
X3000Y31000
X3000Y30000
X4000Y30000
X4000Y29000
X3000Y29000
X3000Y28000
X4000Y28000
X4000Y27000
X3000Y27000
X3000Y24000
X4000Y24000
X4000Y23000
X3000Y23000
X3000Y22000
X4000Y22000
X4000Y21000
X3000Y21000
X3000Y20000
X4000Y20000
X4000Y19000
X3000Y19000
X3000Y18000
X4000Y18000
X6500Y17500
X6500Y18500
X7500Y18500
X7500Y17500
X7500Y16500
X7500Y15500
X7500Y14500
X6500Y14500
X6500Y15500
X6500Y16500
X4000Y15000
X3000Y15000
X3000Y14000
X4000Y14000
X4000Y13000
X3000Y13000
X3000Y12000
X4000Y12000
X4000Y11000
X3000Y11000
X3000Y10000
X4000Y10000
X4000Y9000
X3000Y9000
X3000Y8000
X4000Y8000
X6500Y22000
X6500Y23000
X6500Y24000
X6500Y25000
X6500Y26000
X6500Y27000
X6500Y28000
X6500Y29000
X7500Y29000
X7500Y28000
X7500Y27000
X7500Y26000
X7500Y25000
X7500Y24000
X7500Y23000
X7500Y22000
X10000Y25250
X10000Y26250
X11000Y26250
X11000Y25250
X32500Y15000
X32500Y14000
X41000Y31000
X40000Y31000
X40000Y30000
X41000Y30000
X41000Y29000
X40000Y29000
X40000Y28000
X41000Y28000
X41000Y27000
X40000Y27000
X40000Y24000
X41000Y24000
X41000Y23000
X40000Y23000
X40000Y22000
X41000Y22000
X41000Y21000
X40000Y21000
X40000Y20000
X41000Y20000
X41000Y19000
X40000Y19000
X40000Y18000
X41000Y18000
X43500Y17500
X43500Y18500
X44500Y18500
X44500Y17500
X44500Y16500
X44500Y15500
X44500Y14500
X43500Y14500
X43500Y15500
X43500Y16500
X41000Y15000
X40000Y15000
X40000Y14000
X41000Y14000
X41000Y13000
X40000Y13000
X40000Y12000
X41000Y12000
X41000Y11000
X40000Y11000
X40000Y10000
X41000Y10000
X41000Y9000
X40000Y9000
X40000Y8000
X41000Y8000
X43500Y22000
X43500Y23000
X43500Y24000
X43500Y25000
X43500Y26000
X43500Y27000
X43500Y28000
X43500Y29000
X44500Y29000
X44500Y28000
X44500Y27000
X44500Y26000
X44500Y25000
X44500Y24000
X44500Y23000
X44500Y22000
X47000Y25250
X47000Y26250
X48000Y26250
X48000Y25250
X69500Y15000
X69500Y14000
X78000Y31000
X77000Y31000
X77000Y30000
X78000Y30000
X78000Y29000
X77000Y29000
X77000Y28000
X78000Y28000
X78000Y27000
X77000Y27000
X77000Y24000
X78000Y24000
X78000Y23000
X77000Y23000
X77000Y22000
X78000Y22000
X78000Y21000
X77000Y21000
X77000Y20000
X78000Y20000
X78000Y19000
X77000Y19000
X77000Y18000
X78000Y18000
X80500Y17500
X80500Y18500
X81500Y18500
X81500Y17500
X81500Y16500
X81500Y15500
X81500Y14500
X80500Y14500
X80500Y15500
X80500Y16500
X78000Y15000
X77000Y15000
X77000Y14000
X78000Y14000
X78000Y13000
X77000Y13000
X77000Y12000
X78000Y12000
X78000Y11000
X77000Y11000
X77000Y10000
X78000Y10000
X78000Y9000
X77000Y9000
X77000Y8000
X78000Y8000
X80500Y22000
X80500Y23000
X80500Y24000
X80500Y25000
X80500Y26000
X80500Y27000
X80500Y28000
X80500Y29000
X81500Y29000
X81500Y28000
X81500Y27000
X81500Y26000
X81500Y25000
X81500Y24000
X81500Y23000
X81500Y22000
X84000Y25250
X84000Y26250
X85000Y26250
X85000Y25250
X106500Y15000
X106500Y14000
T05C0.027600
X6750Y8750
X9750Y12000
X13250Y11250
X14250Y9250
X20250Y13000
X18250Y15000
X18250Y15500
X18250Y16000
X20500Y17250
X23500Y19500
X23750Y21250
X25410Y20280
X25500Y19000
X26750Y20250
X25540Y23000
X25580Y24000
X22250Y23000
X19500Y21250
X14500Y22500
X9250Y20750
X11000Y15500
X20500Y10000
X23000Y10000
X25500Y11000
X23000Y13000
X27500Y15000
X31000Y20250
X31000Y23250
X29250Y25000
X29750Y26000
X31750Y26750
X28750Y24000
X24000Y7500
X24750Y5500
X21750Y4250
X8500Y28000
X5250Y28750
X6000Y31000
X43750Y8750
X46750Y12000
X50250Y11250
X51250Y9250
X57250Y13000
X55250Y15000
X55250Y15500
X55250Y16000
X57500Y17250
X60500Y19500
X60750Y21250
X62410Y20280
X62500Y19000
X63750Y20250
X62540Y23000
X62580Y24000
X59250Y23000
X56500Y21250
X51500Y22500
X46250Y20750
X48000Y15500
X57500Y10000
X60000Y10000
X62500Y11000
X60000Y13000
X64500Y15000
X68000Y20250
X68000Y23250
X66250Y25000
X66750Y26000
X68750Y26750
X65750Y24000
X61000Y7500
X61750Y5500
X58750Y4250
X45500Y28000
X42250Y28750
X43000Y31000
X80750Y8750
X83750Y12000
X87250Y11250
X88250Y9250
X94250Y13000
X92250Y15000
X92250Y15500
X92250Y16000
X94500Y17250
X97500Y19500
X97750Y21250
X99410Y20280
X99500Y19000
X100750Y20250
X99540Y23000
X99580Y24000
X96250Y23000
X93500Y21250
X88500Y22500
X83250Y20750
X85000Y15500
X94500Y10000
X97000Y10000
X99500Y11000
X97000Y13000
X101500Y15000
X105000Y20250
X105000Y23250
X103250Y25000
X103750Y26000
X105750Y26750
X102750Y24000
X98000Y7500
X98750Y5500
X95750Y4250
X82500Y28000
X79250Y28750
X80000Y31000
M30
