M48
R,T
VER,1
FMAT,2
INCH,TZ
TCST,OFF
ICI,OFF
ATC,ON
T1C0.0170
T2C0.0250
T3C0.0300
T4C0.0320
T5C0.0450
T6C0.1450
%
M47,OrCAD PCB Drill V2.01
M47,Holes between Component Layer and Solder Layer
G05
T1
X105850Y111970
X106400Y115770
X109950Y116670
X110900Y118120
X112250Y116720
X112450Y116020
X112150Y115570
X111800Y115120
X110432Y114221
X110850Y113170
X112621Y113024
X112200Y111570
X112650Y108970
X121550Y112270
X125650Y110070
X125950Y110370
X125350Y109770
X120650Y105470
X120650Y104470
X116850Y106170
X112600Y99670
X113200Y99670
X112600Y106170
X109050Y109470
X110850Y112470
X110681Y113863
X110246Y114592
T2
X102431Y113324
X103138Y114031
X103845Y114738
X104553Y115445
X105260Y116152
X105967Y116860
T3
X121600Y101870
T4
X104610Y107150
X105610Y107150
X107110Y107150
X108110Y107150
X109610Y107150
X110610Y107150
X112110Y107150
X113110Y107150
X114610Y107150
X115610Y107150
X117110Y107150
X118110Y107150
X116830Y104970
X114330Y104970
X111830Y104970
X109330Y104970
X106830Y104970
X105830Y104970
X108330Y104970
X110830Y104970
X113330Y104970
X115830Y104970
X118370Y104970
X119370Y104970
X118150Y102790
X115650Y102790
X113150Y102790
X110650Y102790
X108110Y102790
X107110Y102790
X109650Y102790
X112150Y102790
X114650Y102790
X117150Y102790
X119650Y102790
X120650Y102790
T5
X102500Y98920
X103893Y97527
X105286Y96134
X106686Y94734
X118550Y94720
X119950Y96120
X121343Y97513
X122736Y98906
T6
X99200Y104970
X112600Y91570
X126000Y104970
X117344Y117599
T0
M30
