G75*
G70*
%OFA0B0*%
%FSLAX24Y24*%
%IPPOS*%
%LPD*%
%AMOC8*
5,1,8,0,0,1.08239X$1,22.5*
%
%ADD11R,0.1025X0.1104*%
%ADD13C,0.0640*%
%ADD15OC8,0.0680*%
%ADD18R,0.0631X0.0631*%
%ADD19R,0.0880X0.0340*%
%ADD21R,0.0710X0.0867*%
%ADD22R,0.0867X0.0710*%
%ADD24O,0.0680X0.1280*%
%ADD26R,0.0789X0.0710*%
%ADD29R,0.0710X0.0789*%
%ADD30R,0.0840X0.2180*%
%ADD32O,0.0640X0.1200*%
%ADD34R,0.0516X0.0516*%
%ADD36R,0.0580X0.0300*%
%ADD44O,0.1200X0.0640*%
%ADD49C,0.0595*%
%ADD54R,0.0300X0.0580*%
%ADD57C,0.0680*%
X001000Y001000D02*
D36*
X024310Y004148D03*
X024310Y004462D03*
X024310Y004777D03*
X024310Y005092D03*
X024310Y005407D03*
X024310Y005722D03*
X024310Y006037D03*
X024310Y006352D03*
X027690Y006352D03*
X027690Y006037D03*
X027690Y005722D03*
X027690Y005407D03*
X027690Y005092D03*
X027690Y004777D03*
X027690Y004462D03*
X027690Y004148D03*
D54*
X027102Y003560D03*
X026787Y003560D03*
X026472Y003560D03*
X026157Y003560D03*
X025842Y003560D03*
X025527Y003560D03*
X025212Y003560D03*
X024897Y003560D03*
X024897Y006940D03*
X025212Y006940D03*
X025527Y006940D03*
X025842Y006940D03*
X026157Y006940D03*
X026472Y006940D03*
X026787Y006940D03*
X027102Y006940D03*
D19*
X012960Y006750D03*
X012960Y006250D03*
X012960Y007250D03*
X012960Y007750D03*
X012960Y008250D03*
X012960Y008750D03*
X012960Y009250D03*
X012960Y009750D03*
X010540Y009750D03*
X010540Y009250D03*
X010540Y008750D03*
X010540Y008250D03*
X010540Y007750D03*
X010540Y007250D03*
X010540Y006750D03*
X010540Y006250D03*
D22*
X014720Y006251D03*
X014720Y005149D03*
X023130Y005411D03*
X023130Y004309D03*
X027750Y003051D03*
X028750Y003449D03*
X028750Y004551D03*
X027750Y001949D03*
X005750Y006449D03*
X005750Y007551D03*
D26*
X007000Y007551D03*
X007000Y006449D03*
X009000Y008699D03*
X009000Y009801D03*
X014250Y009801D03*
X014250Y008699D03*
X012750Y005301D03*
X012750Y004199D03*
X021950Y004309D03*
X021950Y005411D03*
X030000Y005199D03*
X030000Y006301D03*
X030250Y007199D03*
X030250Y008301D03*
X030250Y009949D03*
X030250Y011051D03*
X003750Y011051D03*
X003750Y009949D03*
D30*
X028750Y010900D03*
X028750Y007100D03*
D29*
X021801Y006500D03*
X020699Y006500D03*
X020431Y005380D03*
X019329Y005380D03*
X020199Y002830D03*
X021301Y002830D03*
X019051Y002500D03*
X017949Y002500D03*
X009051Y007250D03*
X007949Y007250D03*
X007801Y009250D03*
X006699Y009250D03*
D21*
X008949Y004750D03*
X010051Y004750D03*
D49*
X009893Y002419D03*
X009106Y002419D03*
X008319Y002419D03*
X007531Y002419D03*
X006744Y002419D03*
X005956Y002419D03*
X010681Y002419D03*
X011468Y002419D03*
X012256Y002419D03*
X013043Y002419D03*
X013043Y011081D03*
X012256Y011081D03*
X011468Y011081D03*
X010681Y011081D03*
X009893Y011081D03*
X009106Y011081D03*
X008319Y011081D03*
X007531Y011081D03*
X006744Y011081D03*
X005956Y011081D03*
D57*
X017250Y008750D03*
X017250Y007500D03*
X026500Y011250D03*
D15*
X025500Y011250D03*
X024500Y011250D03*
X024500Y010250D03*
X025500Y010250D03*
X026500Y010250D03*
X019250Y009750D03*
X018250Y009750D03*
X017250Y009750D03*
X018250Y008750D03*
X019250Y008750D03*
X018250Y007500D03*
X018250Y006500D03*
X017250Y006500D03*
X017250Y005500D03*
X018250Y005500D03*
X002750Y007000D03*
X001750Y007000D03*
X001750Y008000D03*
X002750Y008000D03*
X002750Y009000D03*
X001750Y009000D03*
X001750Y010000D03*
X002750Y010000D03*
X002750Y011000D03*
X001750Y011000D03*
D18*
X022252Y002750D03*
X023748Y002750D03*
D11*
X002250Y003240D03*
X002250Y005760D03*
D44*
X030000Y004250D03*
X030000Y003250D03*
D32*
X029750Y002000D03*
X028750Y002000D03*
X004250Y002250D03*
X003250Y002250D03*
D24*
X015250Y011250D03*
X016250Y011250D03*
X017250Y011250D03*
X018250Y011250D03*
X020000Y011250D03*
X021000Y011250D03*
X022000Y011250D03*
X023000Y011250D03*
X020750Y004000D03*
X019750Y004000D03*
X018750Y004000D03*
X017750Y004000D03*
D13*
X002000Y002000D03*
X014750Y003000D03*
X014750Y004000D03*
X004750Y011250D03*
D34*
X005250Y009750D03*
X006750Y008500D03*
X002750Y004500D03*
X002250Y004500D03*
X015250Y009250D03*
X016000Y007000D03*
X019750Y006500D03*
X021170Y005380D03*
X022000Y003560D03*
X023500Y003500D03*
X024180Y003610D03*
X024500Y003000D03*
X025250Y004500D03*
X026590Y004470D03*
X025390Y005550D03*
X026500Y005750D03*
X028500Y005500D03*
X030250Y009250D03*
X017250Y003000D03*
X001000Y012500D02*
D36*
X024310Y015648D03*
X024310Y015962D03*
X024310Y016277D03*
X024310Y016592D03*
X024310Y016907D03*
X024310Y017222D03*
X024310Y017537D03*
X024310Y017852D03*
X027690Y017852D03*
X027690Y017537D03*
X027690Y017222D03*
X027690Y016907D03*
X027690Y016592D03*
X027690Y016277D03*
X027690Y015962D03*
X027690Y015648D03*
D54*
X027102Y015060D03*
X026787Y015060D03*
X026472Y015060D03*
X026157Y015060D03*
X025842Y015060D03*
X025527Y015060D03*
X025212Y015060D03*
X024897Y015060D03*
X024897Y018440D03*
X025212Y018440D03*
X025527Y018440D03*
X025842Y018440D03*
X026157Y018440D03*
X026472Y018440D03*
X026787Y018440D03*
X027102Y018440D03*
D19*
X012960Y018250D03*
X012960Y017750D03*
X012960Y018750D03*
X012960Y019250D03*
X012960Y019750D03*
X012960Y020250D03*
X012960Y020750D03*
X012960Y021250D03*
X010540Y021250D03*
X010540Y020750D03*
X010540Y020250D03*
X010540Y019750D03*
X010540Y019250D03*
X010540Y018750D03*
X010540Y018250D03*
X010540Y017750D03*
D22*
X014720Y017751D03*
X014720Y016649D03*
X023130Y016911D03*
X023130Y015809D03*
X027750Y014551D03*
X028750Y014949D03*
X028750Y016051D03*
X027750Y013449D03*
X005750Y017949D03*
X005750Y019051D03*
D26*
X007000Y019051D03*
X007000Y017949D03*
X009000Y020199D03*
X009000Y021301D03*
X014250Y021301D03*
X014250Y020199D03*
X012750Y016801D03*
X012750Y015699D03*
X021950Y015809D03*
X021950Y016911D03*
X030000Y016699D03*
X030000Y017801D03*
X030250Y018699D03*
X030250Y019801D03*
X030250Y021449D03*
X030250Y022551D03*
X003750Y022551D03*
X003750Y021449D03*
D30*
X028750Y022400D03*
X028750Y018600D03*
D29*
X021801Y018000D03*
X020699Y018000D03*
X020431Y016880D03*
X019329Y016880D03*
X020199Y014330D03*
X021301Y014330D03*
X019051Y014000D03*
X017949Y014000D03*
X009051Y018750D03*
X007949Y018750D03*
X007801Y020750D03*
X006699Y020750D03*
D21*
X008949Y016250D03*
X010051Y016250D03*
D49*
X009893Y013919D03*
X009106Y013919D03*
X008319Y013919D03*
X007531Y013919D03*
X006744Y013919D03*
X005956Y013919D03*
X010681Y013919D03*
X011468Y013919D03*
X012256Y013919D03*
X013043Y013919D03*
X013043Y022581D03*
X012256Y022581D03*
X011468Y022581D03*
X010681Y022581D03*
X009893Y022581D03*
X009106Y022581D03*
X008319Y022581D03*
X007531Y022581D03*
X006744Y022581D03*
X005956Y022581D03*
D57*
X017250Y020250D03*
X017250Y019000D03*
X026500Y022750D03*
D15*
X025500Y022750D03*
X024500Y022750D03*
X024500Y021750D03*
X025500Y021750D03*
X026500Y021750D03*
X019250Y021250D03*
X018250Y021250D03*
X017250Y021250D03*
X018250Y020250D03*
X019250Y020250D03*
X018250Y019000D03*
X018250Y018000D03*
X017250Y018000D03*
X017250Y017000D03*
X018250Y017000D03*
X002750Y018500D03*
X001750Y018500D03*
X001750Y019500D03*
X002750Y019500D03*
X002750Y020500D03*
X001750Y020500D03*
X001750Y021500D03*
X002750Y021500D03*
X002750Y022500D03*
X001750Y022500D03*
D18*
X022252Y014250D03*
X023748Y014250D03*
D11*
X002250Y014740D03*
X002250Y017260D03*
D44*
X030000Y015750D03*
X030000Y014750D03*
D32*
X029750Y013500D03*
X028750Y013500D03*
X004250Y013750D03*
X003250Y013750D03*
D24*
X015250Y022750D03*
X016250Y022750D03*
X017250Y022750D03*
X018250Y022750D03*
X020000Y022750D03*
X021000Y022750D03*
X022000Y022750D03*
X023000Y022750D03*
X020750Y015500D03*
X019750Y015500D03*
X018750Y015500D03*
X017750Y015500D03*
D13*
X002000Y013500D03*
X014750Y014500D03*
X014750Y015500D03*
X004750Y022750D03*
D34*
X005250Y021250D03*
X006750Y020000D03*
X002750Y016000D03*
X002250Y016000D03*
X015250Y020750D03*
X016000Y018500D03*
X019750Y018000D03*
X021170Y016880D03*
X022000Y015060D03*
X023500Y015000D03*
X024180Y015110D03*
X024500Y014500D03*
X025250Y016000D03*
X026590Y015970D03*
X025390Y017050D03*
X026500Y017250D03*
X028500Y017000D03*
X030250Y020750D03*
X017250Y014500D03*
X001000Y024000D02*
D36*
X024310Y027148D03*
X024310Y027462D03*
X024310Y027777D03*
X024310Y028092D03*
X024310Y028407D03*
X024310Y028722D03*
X024310Y029037D03*
X024310Y029352D03*
X027690Y029352D03*
X027690Y029037D03*
X027690Y028722D03*
X027690Y028407D03*
X027690Y028092D03*
X027690Y027777D03*
X027690Y027462D03*
X027690Y027148D03*
D54*
X027102Y026560D03*
X026787Y026560D03*
X026472Y026560D03*
X026157Y026560D03*
X025842Y026560D03*
X025527Y026560D03*
X025212Y026560D03*
X024897Y026560D03*
X024897Y029940D03*
X025212Y029940D03*
X025527Y029940D03*
X025842Y029940D03*
X026157Y029940D03*
X026472Y029940D03*
X026787Y029940D03*
X027102Y029940D03*
D19*
X012960Y029750D03*
X012960Y029250D03*
X012960Y030250D03*
X012960Y030750D03*
X012960Y031250D03*
X012960Y031750D03*
X012960Y032250D03*
X012960Y032750D03*
X010540Y032750D03*
X010540Y032250D03*
X010540Y031750D03*
X010540Y031250D03*
X010540Y030750D03*
X010540Y030250D03*
X010540Y029750D03*
X010540Y029250D03*
D22*
X014720Y029251D03*
X014720Y028149D03*
X023130Y028411D03*
X023130Y027309D03*
X027750Y026051D03*
X028750Y026449D03*
X028750Y027551D03*
X027750Y024949D03*
X005750Y029449D03*
X005750Y030551D03*
D26*
X007000Y030551D03*
X007000Y029449D03*
X009000Y031699D03*
X009000Y032801D03*
X014250Y032801D03*
X014250Y031699D03*
X012750Y028301D03*
X012750Y027199D03*
X021950Y027309D03*
X021950Y028411D03*
X030000Y028199D03*
X030000Y029301D03*
X030250Y030199D03*
X030250Y031301D03*
X030250Y032949D03*
X030250Y034051D03*
X003750Y034051D03*
X003750Y032949D03*
D30*
X028750Y033900D03*
X028750Y030100D03*
D29*
X021801Y029500D03*
X020699Y029500D03*
X020431Y028380D03*
X019329Y028380D03*
X020199Y025830D03*
X021301Y025830D03*
X019051Y025500D03*
X017949Y025500D03*
X009051Y030250D03*
X007949Y030250D03*
X007801Y032250D03*
X006699Y032250D03*
D21*
X008949Y027750D03*
X010051Y027750D03*
D49*
X009893Y025419D03*
X009106Y025419D03*
X008319Y025419D03*
X007531Y025419D03*
X006744Y025419D03*
X005956Y025419D03*
X010681Y025419D03*
X011468Y025419D03*
X012256Y025419D03*
X013043Y025419D03*
X013043Y034081D03*
X012256Y034081D03*
X011468Y034081D03*
X010681Y034081D03*
X009893Y034081D03*
X009106Y034081D03*
X008319Y034081D03*
X007531Y034081D03*
X006744Y034081D03*
X005956Y034081D03*
D57*
X017250Y031750D03*
X017250Y030500D03*
X026500Y034250D03*
D15*
X025500Y034250D03*
X024500Y034250D03*
X024500Y033250D03*
X025500Y033250D03*
X026500Y033250D03*
X019250Y032750D03*
X018250Y032750D03*
X017250Y032750D03*
X018250Y031750D03*
X019250Y031750D03*
X018250Y030500D03*
X018250Y029500D03*
X017250Y029500D03*
X017250Y028500D03*
X018250Y028500D03*
X002750Y030000D03*
X001750Y030000D03*
X001750Y031000D03*
X002750Y031000D03*
X002750Y032000D03*
X001750Y032000D03*
X001750Y033000D03*
X002750Y033000D03*
X002750Y034000D03*
X001750Y034000D03*
D18*
X022252Y025750D03*
X023748Y025750D03*
D11*
X002250Y026240D03*
X002250Y028760D03*
D44*
X030000Y027250D03*
X030000Y026250D03*
D32*
X029750Y025000D03*
X028750Y025000D03*
X004250Y025250D03*
X003250Y025250D03*
D24*
X015250Y034250D03*
X016250Y034250D03*
X017250Y034250D03*
X018250Y034250D03*
X020000Y034250D03*
X021000Y034250D03*
X022000Y034250D03*
X023000Y034250D03*
X020750Y027000D03*
X019750Y027000D03*
X018750Y027000D03*
X017750Y027000D03*
D13*
X002000Y025000D03*
X014750Y026000D03*
X014750Y027000D03*
X004750Y034250D03*
D34*
X005250Y032750D03*
X006750Y031500D03*
X002750Y027500D03*
X002250Y027500D03*
X015250Y032250D03*
X016000Y030000D03*
X019750Y029500D03*
X021170Y028380D03*
X022000Y026560D03*
X023500Y026500D03*
X024180Y026610D03*
X024500Y026000D03*
X025250Y027500D03*
X026590Y027470D03*
X025390Y028550D03*
X026500Y028750D03*
X028500Y028500D03*
X030250Y032250D03*
X017250Y026000D03*
X001000Y035500D02*
D36*
X024310Y038648D03*
X024310Y038962D03*
X024310Y039277D03*
X024310Y039592D03*
X024310Y039907D03*
X024310Y040222D03*
X024310Y040537D03*
X024310Y040852D03*
X027690Y040852D03*
X027690Y040537D03*
X027690Y040222D03*
X027690Y039907D03*
X027690Y039592D03*
X027690Y039277D03*
X027690Y038962D03*
X027690Y038648D03*
D54*
X027102Y038060D03*
X026787Y038060D03*
X026472Y038060D03*
X026157Y038060D03*
X025842Y038060D03*
X025527Y038060D03*
X025212Y038060D03*
X024897Y038060D03*
X024897Y041440D03*
X025212Y041440D03*
X025527Y041440D03*
X025842Y041440D03*
X026157Y041440D03*
X026472Y041440D03*
X026787Y041440D03*
X027102Y041440D03*
D19*
X012960Y041250D03*
X012960Y040750D03*
X012960Y041750D03*
X012960Y042250D03*
X012960Y042750D03*
X012960Y043250D03*
X012960Y043750D03*
X012960Y044250D03*
X010540Y044250D03*
X010540Y043750D03*
X010540Y043250D03*
X010540Y042750D03*
X010540Y042250D03*
X010540Y041750D03*
X010540Y041250D03*
X010540Y040750D03*
D22*
X014720Y040751D03*
X014720Y039649D03*
X023130Y039911D03*
X023130Y038809D03*
X027750Y037551D03*
X028750Y037949D03*
X028750Y039051D03*
X027750Y036449D03*
X005750Y040949D03*
X005750Y042051D03*
D26*
X007000Y042051D03*
X007000Y040949D03*
X009000Y043199D03*
X009000Y044301D03*
X014250Y044301D03*
X014250Y043199D03*
X012750Y039801D03*
X012750Y038699D03*
X021950Y038809D03*
X021950Y039911D03*
X030000Y039699D03*
X030000Y040801D03*
X030250Y041699D03*
X030250Y042801D03*
X030250Y044449D03*
X030250Y045551D03*
X003750Y045551D03*
X003750Y044449D03*
D30*
X028750Y045400D03*
X028750Y041600D03*
D29*
X021801Y041000D03*
X020699Y041000D03*
X020431Y039880D03*
X019329Y039880D03*
X020199Y037330D03*
X021301Y037330D03*
X019051Y037000D03*
X017949Y037000D03*
X009051Y041750D03*
X007949Y041750D03*
X007801Y043750D03*
X006699Y043750D03*
D21*
X008949Y039250D03*
X010051Y039250D03*
D49*
X009893Y036919D03*
X009106Y036919D03*
X008319Y036919D03*
X007531Y036919D03*
X006744Y036919D03*
X005956Y036919D03*
X010681Y036919D03*
X011468Y036919D03*
X012256Y036919D03*
X013043Y036919D03*
X013043Y045581D03*
X012256Y045581D03*
X011468Y045581D03*
X010681Y045581D03*
X009893Y045581D03*
X009106Y045581D03*
X008319Y045581D03*
X007531Y045581D03*
X006744Y045581D03*
X005956Y045581D03*
D57*
X017250Y043250D03*
X017250Y042000D03*
X026500Y045750D03*
D15*
X025500Y045750D03*
X024500Y045750D03*
X024500Y044750D03*
X025500Y044750D03*
X026500Y044750D03*
X019250Y044250D03*
X018250Y044250D03*
X017250Y044250D03*
X018250Y043250D03*
X019250Y043250D03*
X018250Y042000D03*
X018250Y041000D03*
X017250Y041000D03*
X017250Y040000D03*
X018250Y040000D03*
X002750Y041500D03*
X001750Y041500D03*
X001750Y042500D03*
X002750Y042500D03*
X002750Y043500D03*
X001750Y043500D03*
X001750Y044500D03*
X002750Y044500D03*
X002750Y045500D03*
X001750Y045500D03*
D18*
X022252Y037250D03*
X023748Y037250D03*
D11*
X002250Y037740D03*
X002250Y040260D03*
D44*
X030000Y038750D03*
X030000Y037750D03*
D32*
X029750Y036500D03*
X028750Y036500D03*
X004250Y036750D03*
X003250Y036750D03*
D24*
X015250Y045750D03*
X016250Y045750D03*
X017250Y045750D03*
X018250Y045750D03*
X020000Y045750D03*
X021000Y045750D03*
X022000Y045750D03*
X023000Y045750D03*
X020750Y038500D03*
X019750Y038500D03*
X018750Y038500D03*
X017750Y038500D03*
D13*
X002000Y036500D03*
X014750Y037500D03*
X014750Y038500D03*
X004750Y045750D03*
D34*
X005250Y044250D03*
X006750Y043000D03*
X002750Y039000D03*
X002250Y039000D03*
X015250Y043750D03*
X016000Y041500D03*
X019750Y041000D03*
X021170Y039880D03*
X022000Y038060D03*
X023500Y038000D03*
X024180Y038110D03*
X024500Y037500D03*
X025250Y039000D03*
X026590Y038970D03*
X025390Y040050D03*
X026500Y040250D03*
X028500Y040000D03*
X030250Y043750D03*
X017250Y037500D03*
M02*
