G75*
G70*
%OFA0B0*%
%FSLAX24Y24*%
%IPPOS*%
%LPD*%
%AMOC8*
5,1,8,0,0,1.08239X$1,22.5*
%
%ADD13C,0.0640*%
%ADD15OC8,0.0680*%
%ADD24O,0.0680X0.1280*%
%ADD32O,0.0640X0.1200*%
%ADD34R,0.0516X0.0516*%
%ADD44O,0.1200X0.0640*%
%ADD49C,0.0595*%
%ADD57C,0.0680*%
X001000Y001000D02*
D49*
X005956Y002419D03*
X006744Y002419D03*
X007531Y002419D03*
X008319Y002419D03*
X009106Y002419D03*
X009893Y002419D03*
X010681Y002419D03*
X011468Y002419D03*
X012256Y002419D03*
X013043Y002419D03*
X013043Y011081D03*
X012256Y011081D03*
X011468Y011081D03*
X010681Y011081D03*
X009893Y011081D03*
X009106Y011081D03*
X008319Y011081D03*
X007531Y011081D03*
X006744Y011081D03*
X005956Y011081D03*
D57*
X017250Y008750D03*
X017250Y007500D03*
X026500Y011250D03*
D15*
X025500Y011250D03*
X024500Y011250D03*
X024500Y010250D03*
X025500Y010250D03*
X026500Y010250D03*
X019250Y009750D03*
X018250Y009750D03*
X017250Y009750D03*
X018250Y008750D03*
X019250Y008750D03*
X018250Y007500D03*
X018250Y006500D03*
X017250Y006500D03*
X017250Y005500D03*
X018250Y005500D03*
X002750Y007000D03*
X001750Y007000D03*
X001750Y008000D03*
X002750Y008000D03*
X002750Y009000D03*
X001750Y009000D03*
X001750Y010000D03*
X002750Y010000D03*
X002750Y011000D03*
X001750Y011000D03*
D44*
X030000Y004250D03*
X030000Y003250D03*
D32*
X029750Y002000D03*
X028750Y002000D03*
X004250Y002250D03*
X003250Y002250D03*
D24*
X015250Y011250D03*
X016250Y011250D03*
X017250Y011250D03*
X018250Y011250D03*
X020000Y011250D03*
X021000Y011250D03*
X022000Y011250D03*
X023000Y011250D03*
X020750Y004000D03*
X019750Y004000D03*
X018750Y004000D03*
X017750Y004000D03*
D13*
X002000Y002000D03*
X014750Y003000D03*
X014750Y004000D03*
X004750Y011250D03*
D34*
X005250Y009750D03*
X006750Y008500D03*
X002750Y004500D03*
X002250Y004500D03*
X015250Y009250D03*
X016000Y007000D03*
X019750Y006500D03*
X021170Y005380D03*
X022000Y003560D03*
X023500Y003500D03*
X024180Y003610D03*
X024500Y003000D03*
X025250Y004500D03*
X026590Y004470D03*
X025390Y005550D03*
X026500Y005750D03*
X028500Y005500D03*
X030250Y009250D03*
X017250Y003000D03*
X001000Y012500D02*
D49*
X005956Y013919D03*
X006744Y013919D03*
X007531Y013919D03*
X008319Y013919D03*
X009106Y013919D03*
X009893Y013919D03*
X010681Y013919D03*
X011468Y013919D03*
X012256Y013919D03*
X013043Y013919D03*
X013043Y022581D03*
X012256Y022581D03*
X011468Y022581D03*
X010681Y022581D03*
X009893Y022581D03*
X009106Y022581D03*
X008319Y022581D03*
X007531Y022581D03*
X006744Y022581D03*
X005956Y022581D03*
D57*
X017250Y020250D03*
X017250Y019000D03*
X026500Y022750D03*
D15*
X025500Y022750D03*
X024500Y022750D03*
X024500Y021750D03*
X025500Y021750D03*
X026500Y021750D03*
X019250Y021250D03*
X018250Y021250D03*
X017250Y021250D03*
X018250Y020250D03*
X019250Y020250D03*
X018250Y019000D03*
X018250Y018000D03*
X017250Y018000D03*
X017250Y017000D03*
X018250Y017000D03*
X002750Y018500D03*
X001750Y018500D03*
X001750Y019500D03*
X002750Y019500D03*
X002750Y020500D03*
X001750Y020500D03*
X001750Y021500D03*
X002750Y021500D03*
X002750Y022500D03*
X001750Y022500D03*
D44*
X030000Y015750D03*
X030000Y014750D03*
D32*
X029750Y013500D03*
X028750Y013500D03*
X004250Y013750D03*
X003250Y013750D03*
D24*
X015250Y022750D03*
X016250Y022750D03*
X017250Y022750D03*
X018250Y022750D03*
X020000Y022750D03*
X021000Y022750D03*
X022000Y022750D03*
X023000Y022750D03*
X020750Y015500D03*
X019750Y015500D03*
X018750Y015500D03*
X017750Y015500D03*
D13*
X002000Y013500D03*
X014750Y014500D03*
X014750Y015500D03*
X004750Y022750D03*
D34*
X005250Y021250D03*
X006750Y020000D03*
X002750Y016000D03*
X002250Y016000D03*
X015250Y020750D03*
X016000Y018500D03*
X019750Y018000D03*
X021170Y016880D03*
X022000Y015060D03*
X023500Y015000D03*
X024180Y015110D03*
X024500Y014500D03*
X025250Y016000D03*
X026590Y015970D03*
X025390Y017050D03*
X026500Y017250D03*
X028500Y017000D03*
X030250Y020750D03*
X017250Y014500D03*
X001000Y024000D02*
D49*
X005956Y025419D03*
X006744Y025419D03*
X007531Y025419D03*
X008319Y025419D03*
X009106Y025419D03*
X009893Y025419D03*
X010681Y025419D03*
X011468Y025419D03*
X012256Y025419D03*
X013043Y025419D03*
X013043Y034081D03*
X012256Y034081D03*
X011468Y034081D03*
X010681Y034081D03*
X009893Y034081D03*
X009106Y034081D03*
X008319Y034081D03*
X007531Y034081D03*
X006744Y034081D03*
X005956Y034081D03*
D57*
X017250Y031750D03*
X017250Y030500D03*
X026500Y034250D03*
D15*
X025500Y034250D03*
X024500Y034250D03*
X024500Y033250D03*
X025500Y033250D03*
X026500Y033250D03*
X019250Y032750D03*
X018250Y032750D03*
X017250Y032750D03*
X018250Y031750D03*
X019250Y031750D03*
X018250Y030500D03*
X018250Y029500D03*
X017250Y029500D03*
X017250Y028500D03*
X018250Y028500D03*
X002750Y030000D03*
X001750Y030000D03*
X001750Y031000D03*
X002750Y031000D03*
X002750Y032000D03*
X001750Y032000D03*
X001750Y033000D03*
X002750Y033000D03*
X002750Y034000D03*
X001750Y034000D03*
D44*
X030000Y027250D03*
X030000Y026250D03*
D32*
X029750Y025000D03*
X028750Y025000D03*
X004250Y025250D03*
X003250Y025250D03*
D24*
X015250Y034250D03*
X016250Y034250D03*
X017250Y034250D03*
X018250Y034250D03*
X020000Y034250D03*
X021000Y034250D03*
X022000Y034250D03*
X023000Y034250D03*
X020750Y027000D03*
X019750Y027000D03*
X018750Y027000D03*
X017750Y027000D03*
D13*
X002000Y025000D03*
X014750Y026000D03*
X014750Y027000D03*
X004750Y034250D03*
D34*
X005250Y032750D03*
X006750Y031500D03*
X002750Y027500D03*
X002250Y027500D03*
X015250Y032250D03*
X016000Y030000D03*
X019750Y029500D03*
X021170Y028380D03*
X022000Y026560D03*
X023500Y026500D03*
X024180Y026610D03*
X024500Y026000D03*
X025250Y027500D03*
X026590Y027470D03*
X025390Y028550D03*
X026500Y028750D03*
X028500Y028500D03*
X030250Y032250D03*
X017250Y026000D03*
X001000Y035500D02*
D49*
X005956Y036919D03*
X006744Y036919D03*
X007531Y036919D03*
X008319Y036919D03*
X009106Y036919D03*
X009893Y036919D03*
X010681Y036919D03*
X011468Y036919D03*
X012256Y036919D03*
X013043Y036919D03*
X013043Y045581D03*
X012256Y045581D03*
X011468Y045581D03*
X010681Y045581D03*
X009893Y045581D03*
X009106Y045581D03*
X008319Y045581D03*
X007531Y045581D03*
X006744Y045581D03*
X005956Y045581D03*
D57*
X017250Y043250D03*
X017250Y042000D03*
X026500Y045750D03*
D15*
X025500Y045750D03*
X024500Y045750D03*
X024500Y044750D03*
X025500Y044750D03*
X026500Y044750D03*
X019250Y044250D03*
X018250Y044250D03*
X017250Y044250D03*
X018250Y043250D03*
X019250Y043250D03*
X018250Y042000D03*
X018250Y041000D03*
X017250Y041000D03*
X017250Y040000D03*
X018250Y040000D03*
X002750Y041500D03*
X001750Y041500D03*
X001750Y042500D03*
X002750Y042500D03*
X002750Y043500D03*
X001750Y043500D03*
X001750Y044500D03*
X002750Y044500D03*
X002750Y045500D03*
X001750Y045500D03*
D44*
X030000Y038750D03*
X030000Y037750D03*
D32*
X029750Y036500D03*
X028750Y036500D03*
X004250Y036750D03*
X003250Y036750D03*
D24*
X015250Y045750D03*
X016250Y045750D03*
X017250Y045750D03*
X018250Y045750D03*
X020000Y045750D03*
X021000Y045750D03*
X022000Y045750D03*
X023000Y045750D03*
X020750Y038500D03*
X019750Y038500D03*
X018750Y038500D03*
X017750Y038500D03*
D13*
X002000Y036500D03*
X014750Y037500D03*
X014750Y038500D03*
X004750Y045750D03*
D34*
X005250Y044250D03*
X006750Y043000D03*
X002750Y039000D03*
X002250Y039000D03*
X015250Y043750D03*
X016000Y041500D03*
X019750Y041000D03*
X021170Y039880D03*
X022000Y038060D03*
X023500Y038000D03*
X024180Y038110D03*
X024500Y037500D03*
X025250Y039000D03*
X026590Y038970D03*
X025390Y040050D03*
X026500Y040250D03*
X028500Y040000D03*
X030250Y043750D03*
X017250Y037500D03*
M02*
