%
T01C0.040000
X26500Y10250
X25500Y10250
X24500Y10250
X24500Y11250
X25500Y11250
X26500Y11250
X23000Y11250
X22000Y11250
X21000Y11250
X20000Y11250
X18250Y11250
X17250Y11250
X16250Y11250
X15250Y11250
X17250Y9750
X18250Y9750
X19250Y9750
X19250Y8750
X18250Y8750
X17250Y8750
X17250Y7500
X18250Y7500
X18250Y6500
X17250Y6500
X17250Y5500
X18250Y5500
X18750Y4000
X19750Y4000
X20750Y4000
X17750Y4000
X2750Y7000
X1750Y7000
X1750Y8000
X2750Y8000
X2750Y9000
X1750Y9000
X1750Y10000
X2750Y10000
X2750Y11000
X1750Y11000
X26500Y21750
X25500Y21750
X24500Y21750
X24500Y22750
X25500Y22750
X26500Y22750
X23000Y22750
X22000Y22750
X21000Y22750
X20000Y22750
X18250Y22750
X17250Y22750
X16250Y22750
X15250Y22750
X17250Y21250
X18250Y21250
X19250Y21250
X19250Y20250
X18250Y20250
X17250Y20250
X17250Y19000
X18250Y19000
X18250Y18000
X17250Y18000
X17250Y17000
X18250Y17000
X18750Y15500
X19750Y15500
X20750Y15500
X17750Y15500
X2750Y18500
X1750Y18500
X1750Y19500
X2750Y19500
X2750Y20500
X1750Y20500
X1750Y21500
X2750Y21500
X2750Y22500
X1750Y22500
X26500Y33250
X25500Y33250
X24500Y33250
X24500Y34250
X25500Y34250
X26500Y34250
X23000Y34250
X22000Y34250
X21000Y34250
X20000Y34250
X18250Y34250
X17250Y34250
X16250Y34250
X15250Y34250
X17250Y32750
X18250Y32750
X19250Y32750
X19250Y31750
X18250Y31750
X17250Y31750
X17250Y30500
X18250Y30500
X18250Y29500
X17250Y29500
X17250Y28500
X18250Y28500
X18750Y27000
X19750Y27000
X20750Y27000
X17750Y27000
X2750Y30000
X1750Y30000
X1750Y31000
X2750Y31000
X2750Y32000
X1750Y32000
X1750Y33000
X2750Y33000
X2750Y34000
X1750Y34000
X26500Y44750
X25500Y44750
X24500Y44750
X24500Y45750
X25500Y45750
X26500Y45750
X23000Y45750
X22000Y45750
X21000Y45750
X20000Y45750
X18250Y45750
X17250Y45750
X16250Y45750
X15250Y45750
X17250Y44250
X18250Y44250
X19250Y44250
X19250Y43250
X18250Y43250
X17250Y43250
X17250Y42000
X18250Y42000
X18250Y41000
X17250Y41000
X17250Y40000
X18250Y40000
X18750Y38500
X19750Y38500
X20750Y38500
X17750Y38500
X2750Y41500
X1750Y41500
X1750Y42500
X2750Y42500
X2750Y43500
X1750Y43500
X1750Y44500
X2750Y44500
X2750Y45500
X1750Y45500
T02C0.036000
X4250Y2250
X3250Y2250
X28750Y2000
X29750Y2000
X30000Y3250
X30000Y4250
X4250Y13750
X3250Y13750
X28750Y13500
X29750Y13500
X30000Y14750
X30000Y15750
X4250Y25250
X3250Y25250
X28750Y25000
X29750Y25000
X30000Y26250
X30000Y27250
X4250Y36750
X3250Y36750
X28750Y36500
X29750Y36500
X30000Y37750
X30000Y38750
T03C0.031500
X5956Y11081
X6744Y11081
X7531Y11081
X8319Y11081
X9106Y11081
X9893Y11081
X10681Y11081
X11468Y11081
X12256Y11081
X13043Y11081
X13043Y2419
X12256Y2419
X11468Y2419
X10681Y2419
X9893Y2419
X9106Y2419
X8319Y2419
X7531Y2419
X6744Y2419
X5956Y2419
X5956Y22581
X6744Y22581
X7531Y22581
X8319Y22581
X9106Y22581
X9893Y22581
X10681Y22581
X11468Y22581
X12256Y22581
X13043Y22581
X13043Y13919
X12256Y13919
X11468Y13919
X10681Y13919
X9893Y13919
X9106Y13919
X8319Y13919
X7531Y13919
X6744Y13919
X5956Y13919
X5956Y34081
X6744Y34081
X7531Y34081
X8319Y34081
X9106Y34081
X9893Y34081
X10681Y34081
X11468Y34081
X12256Y34081
X13043Y34081
X13043Y25419
X12256Y25419
X11468Y25419
X10681Y25419
X9893Y25419
X9106Y25419
X8319Y25419
X7531Y25419
X6744Y25419
X5956Y25419
X5956Y45581
X6744Y45581
X7531Y45581
X8319Y45581
X9106Y45581
X9893Y45581
X10681Y45581
X11468Y45581
X12256Y45581
X13043Y45581
X13043Y36919
X12256Y36919
X11468Y36919
X10681Y36919
X9893Y36919
X9106Y36919
X8319Y36919
X7531Y36919
X6744Y36919
X5956Y36919
T04C0.028000
X2000Y2000
X14750Y3000
X14750Y4000
X4750Y11250
X2000Y13500
X14750Y14500
X14750Y15500
X4750Y22750
X2000Y25000
X14750Y26000
X14750Y27000
X4750Y34250
X2000Y36500
X14750Y37500
X14750Y38500
X4750Y45750
T05C0.027600
X2250Y4500
X2750Y4500
X6750Y8500
X5250Y9750
X15250Y9250
X16000Y7000
X19750Y6500
X21170Y5380
X22000Y3560
X23500Y3500
X24180Y3610
X24500Y3000
X25250Y4500
X26590Y4470
X25390Y5550
X26500Y5750
X28500Y5500
X30250Y9250
X17250Y3000
X2250Y16000
X2750Y16000
X6750Y20000
X5250Y21250
X15250Y20750
X16000Y18500
X19750Y18000
X21170Y16880
X22000Y15060
X23500Y15000
X24180Y15110
X24500Y14500
X25250Y16000
X26590Y15970
X25390Y17050
X26500Y17250
X28500Y17000
X30250Y20750
X17250Y14500
X2250Y27500
X2750Y27500
X6750Y31500
X5250Y32750
X15250Y32250
X16000Y30000
X19750Y29500
X21170Y28380
X22000Y26560
X23500Y26500
X24180Y26610
X24500Y26000
X25250Y27500
X26590Y27470
X25390Y28550
X26500Y28750
X28500Y28500
X30250Y32250
X17250Y26000
X2250Y39000
X2750Y39000
X6750Y43000
X5250Y44250
X15250Y43750
X16000Y41500
X19750Y41000
X21170Y39880
X22000Y38060
X23500Y38000
X24180Y38110
X24500Y37500
X25250Y39000
X26590Y38970
X25390Y40050
X26500Y40250
X28500Y40000
X30250Y43750
X17250Y37500
M30
