G75*
G70*
%OFA0B0*%
%FSLAX24Y24*%
%IPPOS*%
%LPD*%
%AMOC8*
5,1,8,0,0,1.08239X$1,22.5*
%
%ADD10C,0.0000*%
%ADD11C,0.2300*%
%ADD12C,0.0748*%
%ADD13OC8,0.0748*%
%ADD14C,0.0660*%
%ADD15O,0.1650X0.0825*%
%ADD16O,0.1040X0.0520*%
%ADD17O,0.0600X0.1200*%
%ADD18OC8,0.0600*%
%ADD19OC8,0.0630*%
%ADD20C,0.2100*%
%ADD21C,0.0400*%
%ADD22C,0.0160*%
%ADD23R,0.0436X0.0436*%
%ADD24C,0.0120*%
%ADD25C,0.0500*%
D10*
X000292Y000716D02*
X000292Y020716D01*
X040292Y020716D01*
X040292Y000716D01*
X000292Y000716D01*
D11*
X002292Y002716D03*
X005292Y004716D03*
X005292Y016716D03*
X002292Y018716D03*
X035292Y018716D03*
X038292Y018716D03*
X038292Y002716D03*
X035292Y002716D03*
D12*
X026292Y004216D03*
X019042Y004216D03*
X016292Y018716D03*
X026292Y018716D03*
D13*
X028292Y018716D03*
X014292Y018716D03*
X017042Y004216D03*
X028292Y004216D03*
D14*
X014292Y004716D03*
X010292Y004716D03*
X011292Y017716D03*
X007292Y017716D03*
D15*
X017292Y012216D03*
X023292Y012216D03*
X025542Y012466D03*
X029542Y011466D03*
X031542Y012466D03*
X035542Y011466D03*
D16*
X014292Y011716D03*
X014292Y012716D03*
X014292Y013716D03*
X014292Y014716D03*
X014292Y015716D03*
X011292Y015716D03*
X009792Y015216D03*
X011292Y014716D03*
X009792Y014216D03*
X011292Y013716D03*
X009792Y013216D03*
X011292Y012716D03*
X009792Y012216D03*
X011292Y011716D03*
X009792Y011216D03*
X011292Y010716D03*
X009792Y010216D03*
X011292Y009716D03*
X009792Y009216D03*
X011292Y008716D03*
X009792Y008216D03*
X011292Y007716D03*
X011292Y006716D03*
X014292Y006716D03*
X014292Y007716D03*
X014292Y008716D03*
X014292Y009716D03*
X014292Y010716D03*
D17*
X018292Y008716D03*
X019292Y008716D03*
X020292Y008716D03*
X023292Y008716D03*
X024292Y008716D03*
X025292Y008716D03*
X028292Y008716D03*
X029292Y008716D03*
X030292Y008716D03*
X033292Y008716D03*
X034292Y008716D03*
X035292Y008716D03*
X035292Y015716D03*
X034292Y015716D03*
X033292Y015716D03*
X030292Y015716D03*
X029292Y015716D03*
X028292Y015716D03*
X025292Y015716D03*
X024292Y015716D03*
X023292Y015716D03*
X020292Y015716D03*
X019292Y015716D03*
X018292Y015716D03*
X010292Y019716D03*
X009292Y019716D03*
X008292Y019716D03*
X013792Y001716D03*
X014792Y001716D03*
X015792Y001716D03*
D18*
X003292Y007716D03*
X002292Y007716D03*
X002292Y008716D03*
X003292Y008716D03*
X003292Y009716D03*
X002292Y009716D03*
X002292Y010716D03*
X003292Y010716D03*
X003292Y011716D03*
X002292Y011716D03*
X002292Y012716D03*
X003292Y012716D03*
X006292Y012716D03*
X007292Y012716D03*
X007292Y011716D03*
X006292Y011716D03*
X006292Y010716D03*
X007292Y010716D03*
X007292Y009716D03*
X006292Y009716D03*
X006292Y008716D03*
X007292Y008716D03*
D19*
X020542Y018716D03*
X021292Y018716D03*
X022042Y018716D03*
D20*
X023792Y017966D03*
X031542Y018716D03*
X031792Y005966D03*
X022292Y004966D03*
X022292Y002216D03*
D21*
X007292Y017716D02*
X008292Y019716D01*
D22*
X007752Y019741D02*
X000772Y019741D01*
X000772Y019899D02*
X007752Y019899D01*
X007752Y020058D02*
X000772Y020058D01*
X000772Y020216D02*
X007752Y020216D01*
X007752Y020236D02*
X007752Y019619D01*
X007061Y018237D01*
X006969Y018199D01*
X006809Y018038D01*
X006722Y017829D01*
X006722Y017602D01*
X006809Y017393D01*
X006969Y017232D01*
X007179Y017146D01*
X007406Y017146D01*
X007615Y017232D01*
X007775Y017393D01*
X007862Y017602D01*
X007862Y017829D01*
X007853Y017852D01*
X008364Y018876D01*
X008516Y018876D01*
X008832Y019192D01*
X008832Y020236D01*
X009752Y020236D01*
X009752Y019192D01*
X010069Y018876D01*
X010516Y018876D01*
X010832Y019192D01*
X010832Y020236D01*
X039812Y020236D01*
X039812Y001196D01*
X016332Y001196D01*
X016332Y002239D01*
X016016Y002556D01*
X015569Y002556D01*
X015252Y002239D01*
X015252Y001196D01*
X014332Y001196D01*
X014332Y002239D01*
X014016Y002556D01*
X013569Y002556D01*
X013252Y002239D01*
X013252Y001196D01*
X000772Y001196D01*
X000772Y020236D01*
X007752Y020236D01*
X008832Y020216D02*
X009752Y020216D01*
X009752Y020058D02*
X008832Y020058D01*
X008832Y019899D02*
X009752Y019899D01*
X009752Y019741D02*
X008832Y019741D01*
X008832Y019582D02*
X009752Y019582D01*
X009752Y019424D02*
X008832Y019424D01*
X008832Y019265D02*
X009752Y019265D01*
X009838Y019107D02*
X008747Y019107D01*
X008588Y018948D02*
X009996Y018948D01*
X010588Y018948D02*
X015472Y018948D01*
X015472Y018790D02*
X008321Y018790D01*
X008242Y018631D02*
X015472Y018631D01*
X015472Y018472D02*
X008163Y018472D01*
X008083Y018314D02*
X015472Y018314D01*
X015472Y018155D02*
X011659Y018155D01*
X011615Y018199D02*
X011406Y018286D01*
X011179Y018286D01*
X010969Y018199D01*
X010809Y018038D01*
X010722Y017829D01*
X010722Y017602D01*
X010802Y017409D01*
X010802Y016193D01*
X010532Y015923D01*
X010532Y015508D01*
X010825Y015216D01*
X011759Y015216D01*
X012052Y015508D01*
X012052Y015923D01*
X011782Y016193D01*
X011782Y017409D01*
X011862Y017602D01*
X011862Y017829D01*
X011775Y018038D01*
X011615Y018199D01*
X011793Y017997D02*
X015472Y017997D01*
X015472Y017838D02*
X011858Y017838D01*
X011862Y017680D02*
X015472Y017680D01*
X015472Y017521D02*
X011829Y017521D01*
X011782Y017363D02*
X015472Y017363D01*
X015472Y017204D02*
X011782Y017204D01*
X011782Y017046D02*
X015472Y017046D01*
X015472Y016887D02*
X011782Y016887D01*
X011782Y016728D02*
X015472Y016728D01*
X015472Y016570D02*
X011782Y016570D01*
X011782Y016411D02*
X015472Y016411D01*
X015472Y016253D02*
X011782Y016253D01*
X011881Y016094D02*
X013704Y016094D01*
X013825Y016216D02*
X013532Y015923D01*
X013532Y015508D01*
X013825Y015216D01*
X014759Y015216D01*
X015052Y015508D01*
X015052Y015923D01*
X014759Y016216D01*
X013825Y016216D01*
X013545Y015936D02*
X012039Y015936D01*
X012052Y015777D02*
X013532Y015777D01*
X013532Y015619D02*
X012052Y015619D01*
X012004Y015460D02*
X013581Y015460D01*
X013739Y015302D02*
X011845Y015302D01*
X011759Y015216D02*
X012052Y014923D01*
X012052Y014508D01*
X011759Y014216D01*
X010825Y014216D01*
X010532Y014508D01*
X010532Y014923D01*
X010825Y015216D01*
X011759Y015216D01*
X011832Y015143D02*
X013753Y015143D01*
X013825Y015216D02*
X013532Y014923D01*
X013532Y014508D01*
X013825Y014216D01*
X014759Y014216D01*
X015052Y014508D01*
X015052Y014923D01*
X014759Y015216D01*
X013825Y015216D01*
X013594Y014984D02*
X011990Y014984D01*
X012052Y014826D02*
X013532Y014826D01*
X013532Y014667D02*
X012052Y014667D01*
X012052Y014509D02*
X013532Y014509D01*
X013690Y014350D02*
X011894Y014350D01*
X011759Y014216D02*
X010825Y014216D01*
X010532Y013923D01*
X010532Y013508D01*
X010825Y013216D01*
X011759Y013216D01*
X012052Y013508D01*
X012052Y013923D01*
X011759Y014216D01*
X011783Y014192D02*
X013801Y014192D01*
X013825Y014216D02*
X013532Y013923D01*
X013532Y013508D01*
X013825Y013216D01*
X014759Y013216D01*
X015052Y013508D01*
X015052Y013923D01*
X014759Y014216D01*
X013825Y014216D01*
X013643Y014033D02*
X011942Y014033D01*
X012052Y013875D02*
X013532Y013875D01*
X013532Y013716D02*
X012052Y013716D01*
X012052Y013558D02*
X013532Y013558D01*
X013642Y013399D02*
X011943Y013399D01*
X011784Y013241D02*
X013800Y013241D01*
X014784Y013241D02*
X017251Y013241D01*
X017073Y013399D02*
X014943Y013399D01*
X015052Y013558D02*
X016895Y013558D01*
X016716Y013716D02*
X015052Y013716D01*
X015052Y013875D02*
X016538Y013875D01*
X016360Y014033D02*
X014942Y014033D01*
X014783Y014192D02*
X016181Y014192D01*
X016003Y014350D02*
X014894Y014350D01*
X015052Y014509D02*
X015824Y014509D01*
X015671Y014646D02*
X017722Y012822D01*
X017722Y003833D01*
X017910Y003646D01*
X018175Y003646D01*
X018814Y003646D01*
X018920Y003602D01*
X019164Y003602D01*
X019271Y003646D01*
X023035Y003646D01*
X026064Y003646D01*
X026170Y003602D01*
X026414Y003602D01*
X026521Y003646D01*
X026910Y003646D01*
X027175Y003646D01*
X027362Y003833D01*
X027362Y018333D01*
X027362Y018547D01*
X027362Y018598D01*
X027301Y018659D01*
X026842Y019507D01*
X026842Y019558D01*
X026781Y019619D01*
X026721Y019680D01*
X026655Y019746D01*
X022655Y019746D01*
X022390Y019746D01*
X022249Y019605D01*
X022202Y019558D01*
X022202Y019487D01*
X022117Y019271D01*
X021812Y019271D01*
X021487Y018945D01*
X021487Y018536D01*
X021097Y018536D01*
X021097Y018945D01*
X020772Y019271D01*
X020612Y019271D01*
X020612Y019348D01*
X020581Y019379D01*
X020542Y019419D01*
X020425Y019536D01*
X015925Y019536D01*
X015660Y019536D01*
X015472Y019348D01*
X015472Y015098D01*
X015472Y014833D01*
X015573Y014733D01*
X015660Y014646D01*
X015671Y014646D01*
X015638Y014667D02*
X015052Y014667D01*
X015052Y014826D02*
X015479Y014826D01*
X015573Y014733D02*
X015573Y014733D01*
X015472Y014984D02*
X014990Y014984D01*
X014832Y015143D02*
X015472Y015143D01*
X015472Y015302D02*
X014845Y015302D01*
X015004Y015460D02*
X015472Y015460D01*
X015472Y015619D02*
X015052Y015619D01*
X015052Y015777D02*
X015472Y015777D01*
X015472Y015936D02*
X015039Y015936D01*
X014881Y016094D02*
X015472Y016094D01*
X015792Y016094D02*
X017752Y016094D01*
X017752Y016239D02*
X017752Y015192D01*
X018069Y014876D01*
X018516Y014876D01*
X018832Y015192D01*
X018832Y016239D01*
X018782Y016289D01*
X018782Y017169D01*
X018750Y017201D01*
X018750Y017283D01*
X018609Y017423D01*
X018527Y017423D01*
X018495Y017456D01*
X018089Y017456D01*
X018057Y017423D01*
X017975Y017423D01*
X017834Y017283D01*
X017834Y017201D01*
X017802Y017169D01*
X017802Y016289D01*
X017752Y016239D01*
X017766Y016253D02*
X015792Y016253D01*
X015792Y016411D02*
X017802Y016411D01*
X017802Y016570D02*
X015792Y016570D01*
X015792Y016728D02*
X017802Y016728D01*
X017802Y016887D02*
X015792Y016887D01*
X015792Y017046D02*
X017802Y017046D01*
X017834Y017204D02*
X015792Y017204D01*
X015792Y017363D02*
X017914Y017363D01*
X018670Y017363D02*
X022646Y017363D01*
X022699Y017235D02*
X022802Y017131D01*
X022802Y016289D01*
X022752Y016239D01*
X022752Y015192D01*
X022802Y015142D01*
X022802Y012868D01*
X022609Y012868D01*
X022227Y012486D01*
X022227Y011945D01*
X022609Y011563D01*
X023975Y011563D01*
X024357Y011945D01*
X024357Y012486D01*
X023975Y012868D01*
X023782Y012868D01*
X023782Y015142D01*
X023832Y015192D01*
X023832Y016239D01*
X023782Y016289D01*
X023782Y016676D01*
X024049Y016676D01*
X024523Y016872D01*
X024886Y017235D01*
X025082Y017709D01*
X025082Y018222D01*
X024886Y018696D01*
X024523Y019059D01*
X024049Y019256D01*
X023536Y019256D01*
X023062Y019059D01*
X022699Y018696D01*
X022502Y018222D01*
X022502Y017709D01*
X022699Y017235D01*
X022729Y017204D02*
X018750Y017204D01*
X018782Y017046D02*
X022802Y017046D01*
X022802Y016887D02*
X018782Y016887D01*
X018782Y016728D02*
X022802Y016728D01*
X022802Y016570D02*
X018782Y016570D01*
X018782Y016411D02*
X019924Y016411D01*
X020069Y016556D02*
X019752Y016239D01*
X019752Y015192D01*
X020069Y014876D01*
X020516Y014876D01*
X020832Y015192D01*
X020832Y016239D01*
X020516Y016556D01*
X020069Y016556D01*
X019766Y016253D02*
X018819Y016253D01*
X018832Y016094D02*
X019752Y016094D01*
X019752Y015936D02*
X018832Y015936D01*
X018832Y015777D02*
X019752Y015777D01*
X019752Y015619D02*
X018832Y015619D01*
X018832Y015460D02*
X019752Y015460D01*
X019752Y015302D02*
X018832Y015302D01*
X018783Y015143D02*
X019801Y015143D01*
X019960Y014984D02*
X018625Y014984D01*
X017960Y014984D02*
X015792Y014984D01*
X015792Y014966D02*
X015792Y019216D01*
X020257Y019216D01*
X019987Y018945D01*
X019987Y018486D01*
X020312Y018161D01*
X020772Y018161D01*
X020827Y018216D01*
X021007Y018216D01*
X021062Y018161D01*
X021522Y018161D01*
X021577Y018216D01*
X021757Y018216D01*
X021812Y018161D01*
X022272Y018161D01*
X022597Y018486D01*
X022597Y018945D01*
X022407Y019135D01*
X022522Y019426D01*
X026522Y019426D01*
X027042Y018466D01*
X027042Y003966D01*
X018042Y003966D01*
X018042Y007902D01*
X018069Y007876D01*
X018516Y007876D01*
X018832Y008192D01*
X018832Y009239D01*
X018516Y009556D01*
X018069Y009556D01*
X018042Y009529D01*
X018042Y011630D01*
X018357Y011945D01*
X018357Y012486D01*
X018042Y012801D01*
X018042Y012966D01*
X015792Y014966D01*
X015792Y015143D02*
X017801Y015143D01*
X017752Y015302D02*
X015792Y015302D01*
X015792Y015460D02*
X017752Y015460D01*
X017752Y015619D02*
X015792Y015619D01*
X015792Y015777D02*
X017752Y015777D01*
X017752Y015936D02*
X015792Y015936D01*
X015949Y014826D02*
X022802Y014826D01*
X022802Y014984D02*
X020625Y014984D01*
X020783Y015143D02*
X022801Y015143D01*
X022752Y015302D02*
X020832Y015302D01*
X020832Y015460D02*
X022752Y015460D01*
X022752Y015619D02*
X020832Y015619D01*
X020832Y015777D02*
X022752Y015777D01*
X022752Y015936D02*
X020832Y015936D01*
X020832Y016094D02*
X022752Y016094D01*
X022766Y016253D02*
X020819Y016253D01*
X020660Y016411D02*
X022802Y016411D01*
X023782Y016411D02*
X024924Y016411D01*
X025069Y016556D02*
X024752Y016239D01*
X024752Y015192D01*
X025069Y014876D01*
X025516Y014876D01*
X025832Y015192D01*
X025832Y016239D01*
X025516Y016556D01*
X025069Y016556D01*
X024766Y016253D02*
X023819Y016253D01*
X023832Y016094D02*
X024752Y016094D01*
X024752Y015936D02*
X023832Y015936D01*
X023832Y015777D02*
X024752Y015777D01*
X024752Y015619D02*
X023832Y015619D01*
X023832Y015460D02*
X024752Y015460D01*
X024752Y015302D02*
X023832Y015302D01*
X023783Y015143D02*
X024801Y015143D01*
X024960Y014984D02*
X023782Y014984D01*
X023782Y014826D02*
X027042Y014826D01*
X027042Y014984D02*
X025625Y014984D01*
X025783Y015143D02*
X027042Y015143D01*
X027042Y015302D02*
X025832Y015302D01*
X025832Y015460D02*
X027042Y015460D01*
X027042Y015619D02*
X025832Y015619D01*
X025832Y015777D02*
X027042Y015777D01*
X027042Y015936D02*
X025832Y015936D01*
X025832Y016094D02*
X027042Y016094D01*
X027042Y016253D02*
X025819Y016253D01*
X025660Y016411D02*
X027042Y016411D01*
X027042Y016570D02*
X023782Y016570D01*
X024176Y016728D02*
X027042Y016728D01*
X027042Y016887D02*
X024538Y016887D01*
X024697Y017046D02*
X027042Y017046D01*
X027042Y017204D02*
X024855Y017204D01*
X024939Y017363D02*
X027042Y017363D01*
X027042Y017521D02*
X025004Y017521D01*
X025070Y017680D02*
X027042Y017680D01*
X027042Y017838D02*
X025082Y017838D01*
X025082Y017997D02*
X027042Y017997D01*
X027042Y018155D02*
X025082Y018155D01*
X025044Y018314D02*
X027042Y018314D01*
X027039Y018472D02*
X024979Y018472D01*
X024913Y018631D02*
X026953Y018631D01*
X026867Y018790D02*
X024793Y018790D01*
X024634Y018948D02*
X026781Y018948D01*
X026695Y019107D02*
X024408Y019107D01*
X023176Y019107D02*
X022436Y019107D01*
X022459Y019265D02*
X026609Y019265D01*
X026523Y019424D02*
X022521Y019424D01*
X022226Y019582D02*
X010832Y019582D01*
X010832Y019424D02*
X015548Y019424D01*
X015472Y019265D02*
X010832Y019265D01*
X010747Y019107D02*
X015472Y019107D01*
X015792Y019107D02*
X020148Y019107D01*
X019990Y018948D02*
X015792Y018948D01*
X015792Y018790D02*
X019987Y018790D01*
X019987Y018631D02*
X015792Y018631D01*
X015792Y018472D02*
X020001Y018472D01*
X020159Y018314D02*
X015792Y018314D01*
X015792Y018155D02*
X022502Y018155D01*
X022502Y017997D02*
X015792Y017997D01*
X015792Y017838D02*
X022502Y017838D01*
X022514Y017680D02*
X015792Y017680D01*
X015792Y017521D02*
X022580Y017521D01*
X022540Y018314D02*
X022425Y018314D01*
X022584Y018472D02*
X022606Y018472D01*
X022597Y018631D02*
X022672Y018631D01*
X022597Y018790D02*
X022792Y018790D01*
X022950Y018948D02*
X022595Y018948D01*
X022177Y019424D02*
X020537Y019424D01*
X020778Y019265D02*
X021807Y019265D01*
X021648Y019107D02*
X020936Y019107D01*
X021095Y018948D02*
X021490Y018948D01*
X021487Y018790D02*
X021097Y018790D01*
X021097Y018631D02*
X021487Y018631D01*
X022385Y019741D02*
X010832Y019741D01*
X010832Y019899D02*
X031029Y019899D01*
X030812Y019809D02*
X031286Y020006D01*
X031799Y020006D01*
X032273Y019809D01*
X032636Y019446D01*
X032832Y018972D01*
X032832Y018459D01*
X032636Y017985D01*
X032273Y017622D01*
X031799Y017426D01*
X031286Y017426D01*
X030812Y017622D01*
X030449Y017985D01*
X030252Y018459D01*
X030252Y018972D01*
X030449Y019446D01*
X030812Y019809D01*
X030743Y019741D02*
X026660Y019741D01*
X026818Y019582D02*
X030585Y019582D01*
X030439Y019424D02*
X026887Y019424D01*
X026973Y019265D02*
X030374Y019265D01*
X030308Y019107D02*
X027059Y019107D01*
X027145Y018948D02*
X030252Y018948D01*
X030252Y018790D02*
X027231Y018790D01*
X027329Y018631D02*
X030252Y018631D01*
X030252Y018472D02*
X027362Y018472D01*
X027362Y018314D02*
X030312Y018314D01*
X030378Y018155D02*
X027362Y018155D01*
X027362Y017997D02*
X030444Y017997D01*
X030595Y017838D02*
X027362Y017838D01*
X027362Y017680D02*
X030754Y017680D01*
X031055Y017521D02*
X027362Y017521D01*
X027362Y017363D02*
X028914Y017363D01*
X028975Y017423D02*
X028834Y017283D01*
X028834Y017201D01*
X028802Y017169D01*
X028802Y016289D01*
X028752Y016239D01*
X028752Y015192D01*
X029069Y014876D01*
X029516Y014876D01*
X029792Y015152D01*
X030069Y014876D01*
X030516Y014876D01*
X030832Y015192D01*
X030832Y016239D01*
X030516Y016556D01*
X030069Y016556D01*
X029792Y016279D01*
X029782Y016289D01*
X029782Y017169D01*
X029750Y017201D01*
X029750Y017283D01*
X029609Y017423D01*
X029527Y017423D01*
X029495Y017456D01*
X029089Y017456D01*
X029057Y017423D01*
X028975Y017423D01*
X028834Y017204D02*
X027362Y017204D01*
X027362Y017046D02*
X028802Y017046D01*
X028802Y016887D02*
X027362Y016887D01*
X027362Y016728D02*
X028802Y016728D01*
X028802Y016570D02*
X027362Y016570D01*
X027362Y016411D02*
X028802Y016411D01*
X028766Y016253D02*
X027362Y016253D01*
X027362Y016094D02*
X028752Y016094D01*
X028752Y015936D02*
X027362Y015936D01*
X027362Y015777D02*
X028752Y015777D01*
X028752Y015619D02*
X027362Y015619D01*
X027362Y015460D02*
X028752Y015460D01*
X028752Y015302D02*
X027362Y015302D01*
X027362Y015143D02*
X028801Y015143D01*
X028960Y014984D02*
X027362Y014984D01*
X027362Y014826D02*
X039812Y014826D01*
X039812Y014984D02*
X035625Y014984D01*
X035516Y014876D02*
X035069Y014876D01*
X034792Y015152D01*
X034516Y014876D01*
X034069Y014876D01*
X033752Y015192D01*
X033752Y016239D01*
X033802Y016289D01*
X033802Y016919D01*
X033834Y016951D01*
X033834Y017033D01*
X033975Y017173D01*
X034057Y017173D01*
X034089Y017206D01*
X034495Y017206D01*
X034527Y017173D01*
X034609Y017173D01*
X034750Y017033D01*
X034750Y016951D01*
X034782Y016919D01*
X034782Y016289D01*
X034792Y016279D01*
X035069Y016556D01*
X035516Y016556D01*
X035832Y016239D01*
X035832Y015192D01*
X035516Y014876D01*
X034960Y014984D02*
X034625Y014984D01*
X034783Y015143D02*
X034801Y015143D01*
X033960Y014984D02*
X030625Y014984D01*
X030783Y015143D02*
X033801Y015143D01*
X033752Y015302D02*
X030832Y015302D01*
X030832Y015460D02*
X033752Y015460D01*
X033752Y015619D02*
X030832Y015619D01*
X030832Y015777D02*
X033752Y015777D01*
X033752Y015936D02*
X030832Y015936D01*
X030832Y016094D02*
X033752Y016094D01*
X033766Y016253D02*
X030819Y016253D01*
X030660Y016411D02*
X033802Y016411D01*
X033802Y016570D02*
X029782Y016570D01*
X029782Y016728D02*
X033802Y016728D01*
X033802Y016887D02*
X029782Y016887D01*
X029782Y017046D02*
X033847Y017046D01*
X034088Y017204D02*
X029750Y017204D01*
X029670Y017363D02*
X039812Y017363D01*
X039812Y017521D02*
X032030Y017521D01*
X032331Y017680D02*
X039812Y017680D01*
X039812Y017838D02*
X032489Y017838D01*
X032641Y017997D02*
X039812Y017997D01*
X039812Y018155D02*
X032706Y018155D01*
X032772Y018314D02*
X039812Y018314D01*
X039812Y018472D02*
X032832Y018472D01*
X032832Y018631D02*
X039812Y018631D01*
X039812Y018790D02*
X032832Y018790D01*
X032832Y018948D02*
X039812Y018948D01*
X039812Y019107D02*
X032777Y019107D01*
X032711Y019265D02*
X039812Y019265D01*
X039812Y019424D02*
X032645Y019424D01*
X032500Y019582D02*
X039812Y019582D01*
X039812Y019741D02*
X032341Y019741D01*
X032055Y019899D02*
X039812Y019899D01*
X039812Y020058D02*
X010832Y020058D01*
X010832Y020216D02*
X039812Y020216D01*
X039812Y017204D02*
X034497Y017204D01*
X034737Y017046D02*
X039812Y017046D01*
X039812Y016887D02*
X034782Y016887D01*
X034782Y016728D02*
X039812Y016728D01*
X039812Y016570D02*
X034782Y016570D01*
X034782Y016411D02*
X034924Y016411D01*
X035660Y016411D02*
X039812Y016411D01*
X039812Y016253D02*
X035819Y016253D01*
X035832Y016094D02*
X039812Y016094D01*
X039812Y015936D02*
X035832Y015936D01*
X035832Y015777D02*
X039812Y015777D01*
X039812Y015619D02*
X035832Y015619D01*
X035832Y015460D02*
X039812Y015460D01*
X039812Y015302D02*
X035832Y015302D01*
X035783Y015143D02*
X039812Y015143D01*
X039812Y014667D02*
X027362Y014667D01*
X027362Y014509D02*
X039812Y014509D01*
X039812Y014350D02*
X027362Y014350D01*
X027362Y014192D02*
X039812Y014192D01*
X039812Y014033D02*
X027362Y014033D01*
X027362Y013875D02*
X039812Y013875D01*
X039812Y013716D02*
X027362Y013716D01*
X027362Y013558D02*
X039812Y013558D01*
X039812Y013399D02*
X027362Y013399D01*
X027362Y013241D02*
X039812Y013241D01*
X039812Y013082D02*
X027362Y013082D01*
X027362Y012923D02*
X039812Y012923D01*
X039812Y012765D02*
X027362Y012765D01*
X027362Y012606D02*
X039812Y012606D01*
X039812Y012448D02*
X027362Y012448D01*
X027362Y012289D02*
X039812Y012289D01*
X039812Y012131D02*
X027362Y012131D01*
X027362Y011972D02*
X034714Y011972D01*
X034859Y012118D02*
X034477Y011736D01*
X034477Y011398D01*
X034157Y011206D01*
X034089Y011206D01*
X033988Y011105D01*
X033802Y010919D01*
X033802Y010513D01*
X033802Y009289D01*
X033792Y009279D01*
X033516Y009556D01*
X033069Y009556D01*
X032752Y009239D01*
X032752Y008192D01*
X033069Y007876D01*
X033516Y007876D01*
X033792Y008152D01*
X033802Y008142D01*
X033802Y007263D01*
X033834Y007230D01*
X033834Y007148D01*
X033975Y007008D01*
X034057Y007008D01*
X034089Y006976D01*
X034495Y006976D01*
X034527Y007008D01*
X034609Y007008D01*
X034750Y007148D01*
X034750Y007230D01*
X034782Y007263D01*
X034782Y008142D01*
X034832Y008192D01*
X034832Y009239D01*
X034782Y009289D01*
X034782Y010438D01*
X035407Y010813D01*
X036225Y010813D01*
X036607Y011195D01*
X036607Y011736D01*
X036225Y012118D01*
X034859Y012118D01*
X034555Y011814D02*
X027362Y011814D01*
X027362Y011655D02*
X034477Y011655D01*
X034477Y011497D02*
X027362Y011497D01*
X027362Y011338D02*
X034377Y011338D01*
X034063Y011179D02*
X027362Y011179D01*
X027362Y011021D02*
X033905Y011021D01*
X033802Y010862D02*
X027362Y010862D01*
X027362Y010704D02*
X033802Y010704D01*
X033802Y010545D02*
X027362Y010545D01*
X027362Y010387D02*
X033802Y010387D01*
X033802Y010228D02*
X027362Y010228D01*
X027362Y010070D02*
X033802Y010070D01*
X033802Y009911D02*
X027362Y009911D01*
X027362Y009753D02*
X033802Y009753D01*
X033802Y009594D02*
X027362Y009594D01*
X027362Y009435D02*
X027949Y009435D01*
X028069Y009556D02*
X027752Y009239D01*
X027752Y008192D01*
X028069Y007876D01*
X028516Y007876D01*
X028792Y008152D01*
X028802Y008142D01*
X028802Y007263D01*
X028834Y007230D01*
X028834Y007148D01*
X028975Y007008D01*
X029057Y007008D01*
X029089Y006976D01*
X029495Y006976D01*
X029527Y007008D01*
X029609Y007008D01*
X029750Y007148D01*
X029750Y007230D01*
X029782Y007263D01*
X029782Y008142D01*
X029832Y008192D01*
X029832Y009239D01*
X029516Y009556D01*
X029069Y009556D01*
X028792Y009279D01*
X028516Y009556D01*
X028069Y009556D01*
X027790Y009277D02*
X027362Y009277D01*
X027362Y009118D02*
X027752Y009118D01*
X027752Y008960D02*
X027362Y008960D01*
X027362Y008801D02*
X027752Y008801D01*
X027752Y008643D02*
X027362Y008643D01*
X027362Y008484D02*
X027752Y008484D01*
X027752Y008326D02*
X027362Y008326D01*
X027362Y008167D02*
X027777Y008167D01*
X027936Y008009D02*
X027362Y008009D01*
X027362Y007850D02*
X028802Y007850D01*
X028802Y007691D02*
X027362Y007691D01*
X027362Y007533D02*
X028802Y007533D01*
X028802Y007374D02*
X027362Y007374D01*
X027362Y007216D02*
X028834Y007216D01*
X028926Y007057D02*
X027362Y007057D01*
X027362Y006899D02*
X030901Y006899D01*
X031060Y007057D02*
X029659Y007057D01*
X029750Y007216D02*
X031440Y007216D01*
X031536Y007256D02*
X031062Y007059D01*
X030699Y006696D01*
X030502Y006222D01*
X030502Y005709D01*
X030699Y005235D01*
X031062Y004872D01*
X031536Y004676D01*
X032049Y004676D01*
X032523Y004872D01*
X032886Y005235D01*
X033082Y005709D01*
X033082Y006222D01*
X032886Y006696D01*
X032523Y007059D01*
X032049Y007256D01*
X031536Y007256D01*
X032145Y007216D02*
X033834Y007216D01*
X033802Y007374D02*
X029782Y007374D01*
X029782Y007533D02*
X033802Y007533D01*
X033802Y007691D02*
X029782Y007691D01*
X029782Y007850D02*
X033802Y007850D01*
X033802Y008009D02*
X033649Y008009D01*
X032936Y008009D02*
X029782Y008009D01*
X029807Y008167D02*
X032777Y008167D01*
X032752Y008326D02*
X029832Y008326D01*
X029832Y008484D02*
X032752Y008484D01*
X032752Y008643D02*
X029832Y008643D01*
X029832Y008801D02*
X032752Y008801D01*
X032752Y008960D02*
X029832Y008960D01*
X029832Y009118D02*
X032752Y009118D01*
X032790Y009277D02*
X029795Y009277D01*
X029636Y009435D02*
X032949Y009435D01*
X033636Y009435D02*
X033802Y009435D01*
X034782Y009435D02*
X039812Y009435D01*
X039812Y009277D02*
X034795Y009277D01*
X034832Y009118D02*
X039812Y009118D01*
X039812Y008960D02*
X034832Y008960D01*
X034832Y008801D02*
X039812Y008801D01*
X039812Y008643D02*
X034832Y008643D01*
X034832Y008484D02*
X039812Y008484D01*
X039812Y008326D02*
X034832Y008326D01*
X034807Y008167D02*
X039812Y008167D01*
X039812Y008009D02*
X034782Y008009D01*
X034782Y007850D02*
X039812Y007850D01*
X039812Y007691D02*
X034782Y007691D01*
X034782Y007533D02*
X039812Y007533D01*
X039812Y007374D02*
X034782Y007374D01*
X034750Y007216D02*
X039812Y007216D01*
X039812Y007057D02*
X034659Y007057D01*
X033926Y007057D02*
X032525Y007057D01*
X032683Y006899D02*
X039812Y006899D01*
X039812Y006740D02*
X032842Y006740D01*
X032933Y006582D02*
X039812Y006582D01*
X039812Y006423D02*
X032999Y006423D01*
X033065Y006265D02*
X039812Y006265D01*
X039812Y006106D02*
X033082Y006106D01*
X033082Y005948D02*
X039812Y005948D01*
X039812Y005789D02*
X033082Y005789D01*
X033050Y005630D02*
X039812Y005630D01*
X039812Y005472D02*
X032984Y005472D01*
X032918Y005313D02*
X039812Y005313D01*
X039812Y005155D02*
X032806Y005155D01*
X032647Y004996D02*
X039812Y004996D01*
X039812Y004838D02*
X032440Y004838D01*
X032057Y004679D02*
X039812Y004679D01*
X039812Y004521D02*
X027362Y004521D01*
X027362Y004679D02*
X031527Y004679D01*
X031144Y004838D02*
X027362Y004838D01*
X027362Y004996D02*
X030937Y004996D01*
X030779Y005155D02*
X027362Y005155D01*
X027362Y005313D02*
X030666Y005313D01*
X030600Y005472D02*
X027362Y005472D01*
X027362Y005630D02*
X030535Y005630D01*
X030502Y005789D02*
X027362Y005789D01*
X027362Y005948D02*
X030502Y005948D01*
X030502Y006106D02*
X027362Y006106D01*
X027362Y006265D02*
X030520Y006265D01*
X030586Y006423D02*
X027362Y006423D01*
X027362Y006582D02*
X030651Y006582D01*
X030743Y006740D02*
X027362Y006740D01*
X027042Y006740D02*
X018042Y006740D01*
X018042Y006582D02*
X027042Y006582D01*
X027042Y006423D02*
X018042Y006423D01*
X018042Y006265D02*
X027042Y006265D01*
X027042Y006106D02*
X018042Y006106D01*
X018042Y005948D02*
X027042Y005948D01*
X027042Y005789D02*
X018042Y005789D01*
X018042Y005630D02*
X027042Y005630D01*
X027042Y005472D02*
X018042Y005472D01*
X018042Y005313D02*
X027042Y005313D01*
X027042Y005155D02*
X018042Y005155D01*
X018042Y004996D02*
X027042Y004996D01*
X027042Y004838D02*
X018042Y004838D01*
X018042Y004679D02*
X027042Y004679D01*
X027042Y004521D02*
X018042Y004521D01*
X018042Y004362D02*
X027042Y004362D01*
X027042Y004204D02*
X018042Y004204D01*
X018042Y004045D02*
X027042Y004045D01*
X027362Y004045D02*
X039812Y004045D01*
X039812Y004204D02*
X027362Y004204D01*
X027362Y004362D02*
X039812Y004362D01*
X039812Y003886D02*
X027362Y003886D01*
X027257Y003728D02*
X039812Y003728D01*
X039812Y003569D02*
X012750Y003569D01*
X012750Y003411D02*
X039812Y003411D01*
X039812Y003252D02*
X000772Y003252D01*
X000772Y003094D02*
X039812Y003094D01*
X039812Y002935D02*
X000772Y002935D01*
X000772Y002777D02*
X039812Y002777D01*
X039812Y002618D02*
X000772Y002618D01*
X000772Y002460D02*
X013473Y002460D01*
X013314Y002301D02*
X000772Y002301D01*
X000772Y002142D02*
X013252Y002142D01*
X013252Y001984D02*
X000772Y001984D01*
X000772Y001825D02*
X013252Y001825D01*
X013252Y001667D02*
X000772Y001667D01*
X000772Y001508D02*
X013252Y001508D01*
X013252Y001350D02*
X000772Y001350D01*
X000772Y003411D02*
X011834Y003411D01*
X011834Y003398D02*
X011975Y003258D01*
X012609Y003258D01*
X012750Y003398D01*
X012750Y004033D01*
X012612Y004171D01*
X012612Y007083D01*
X012925Y007396D01*
X013645Y007396D01*
X013825Y007216D01*
X012745Y007216D01*
X012612Y007057D02*
X013667Y007057D01*
X013532Y006923D02*
X013532Y006508D01*
X013825Y006216D01*
X014759Y006216D01*
X015052Y006508D01*
X015052Y006923D01*
X014759Y007216D01*
X015052Y007508D01*
X015052Y007923D01*
X014759Y008216D01*
X015052Y008508D01*
X015052Y008923D01*
X014759Y009216D01*
X013825Y009216D01*
X013532Y008923D01*
X013532Y008508D01*
X013825Y008216D01*
X014759Y008216D01*
X013825Y008216D01*
X013645Y008036D01*
X012925Y008036D01*
X012660Y008036D01*
X012160Y007536D01*
X011972Y007348D01*
X011972Y007003D01*
X011759Y007216D01*
X012052Y007508D01*
X012052Y007923D01*
X011759Y008216D01*
X012052Y008508D01*
X012052Y008923D01*
X011759Y009216D01*
X012052Y009508D01*
X012052Y009923D01*
X011759Y010216D01*
X012052Y010508D01*
X012052Y010923D01*
X011759Y011216D01*
X012052Y011508D01*
X012052Y011923D01*
X011759Y012216D01*
X010825Y012216D01*
X010532Y011923D01*
X010532Y011508D01*
X010825Y011216D01*
X011759Y011216D01*
X010825Y011216D01*
X010532Y010923D01*
X010532Y010516D01*
X010459Y010516D01*
X010259Y010716D01*
X010552Y011008D01*
X010552Y011423D01*
X010259Y011716D01*
X010552Y012008D01*
X010552Y012423D01*
X010259Y012716D01*
X010552Y013008D01*
X010552Y013423D01*
X010259Y013716D01*
X010552Y014008D01*
X010552Y014423D01*
X010259Y014716D01*
X009325Y014716D01*
X009032Y014423D01*
X009032Y014008D01*
X009325Y013716D01*
X008084Y013716D01*
X007886Y013875D02*
X009166Y013875D01*
X009032Y014033D02*
X007688Y014033D01*
X007493Y014189D02*
X007416Y014266D01*
X006500Y014266D01*
X006500Y014283D01*
X006359Y014423D01*
X005725Y014423D01*
X005584Y014283D01*
X005584Y013648D01*
X005725Y013508D01*
X006359Y013508D01*
X006500Y013648D01*
X006500Y013666D01*
X007187Y013666D01*
X008242Y012821D01*
X008242Y011591D01*
X008418Y011416D01*
X008656Y011177D01*
X007882Y010016D01*
X007756Y010016D01*
X007556Y010216D01*
X007832Y010492D01*
X007832Y010939D01*
X007556Y011216D01*
X007832Y011492D01*
X007832Y011939D01*
X007556Y012216D01*
X007832Y012492D01*
X007832Y012939D01*
X007516Y013256D01*
X007069Y013256D01*
X006792Y012979D01*
X006516Y013256D01*
X006069Y013256D01*
X005752Y012939D01*
X005752Y012516D01*
X005418Y012516D01*
X005326Y012423D01*
X004725Y012423D01*
X004584Y012283D01*
X004584Y011648D01*
X004725Y011508D01*
X005359Y011508D01*
X005500Y011648D01*
X005500Y011749D01*
X005666Y011916D01*
X005752Y011916D01*
X005752Y011492D01*
X006029Y011216D01*
X005752Y010939D01*
X005752Y010492D01*
X006029Y010216D01*
X005752Y009939D01*
X005752Y009492D01*
X006069Y009176D01*
X006492Y009176D01*
X006492Y008340D01*
X006218Y008065D01*
X006109Y008173D01*
X005475Y008173D01*
X005334Y008033D01*
X005334Y007398D01*
X005475Y007258D01*
X006109Y007258D01*
X006250Y007398D01*
X006250Y007416D01*
X006416Y007416D01*
X006592Y007591D01*
X007092Y008091D01*
X007092Y008340D01*
X007092Y009176D01*
X007516Y009176D01*
X007756Y009416D01*
X008166Y009416D01*
X008264Y009513D01*
X008275Y009524D01*
X008342Y009591D01*
X008342Y009625D01*
X009172Y010869D01*
X009325Y010716D01*
X010259Y010716D01*
X009325Y010716D01*
X009032Y010423D01*
X009032Y010008D01*
X009325Y009716D01*
X010259Y009716D01*
X010456Y009912D01*
X010532Y009862D01*
X010532Y009508D01*
X010825Y009216D01*
X011759Y009216D01*
X010825Y009216D01*
X010532Y008923D01*
X010532Y008508D01*
X010825Y008216D01*
X011759Y008216D01*
X010825Y008216D01*
X010532Y007923D01*
X010532Y007508D01*
X010825Y007216D01*
X000772Y007216D01*
X000772Y007374D02*
X005358Y007374D01*
X005334Y007533D02*
X000772Y007533D01*
X000772Y007691D02*
X005334Y007691D01*
X005334Y007850D02*
X000772Y007850D01*
X000772Y008009D02*
X005334Y008009D01*
X005469Y008167D02*
X000772Y008167D01*
X000772Y008326D02*
X001919Y008326D01*
X002069Y008176D02*
X001752Y008492D01*
X001752Y008939D01*
X002029Y009216D01*
X001752Y009492D01*
X001752Y009939D01*
X002029Y010216D01*
X001752Y010492D01*
X001752Y010939D01*
X002029Y011216D01*
X001752Y011492D01*
X001752Y011939D01*
X002029Y012216D01*
X001752Y012492D01*
X001752Y012939D01*
X002069Y013256D01*
X002516Y013256D01*
X002792Y012979D01*
X003069Y013256D01*
X003516Y013256D01*
X003832Y012939D01*
X003832Y012492D01*
X003556Y012216D01*
X003832Y011939D01*
X003832Y011492D01*
X003556Y011216D01*
X003832Y010939D01*
X003832Y010492D01*
X003556Y010216D01*
X003832Y009939D01*
X003832Y009492D01*
X003556Y009216D01*
X003832Y008939D01*
X003832Y008492D01*
X003516Y008176D01*
X003069Y008176D01*
X002792Y008452D01*
X002516Y008176D01*
X002069Y008176D01*
X001760Y008484D02*
X000772Y008484D01*
X000772Y008643D02*
X001752Y008643D01*
X001752Y008801D02*
X000772Y008801D01*
X000772Y008960D02*
X001773Y008960D01*
X001931Y009118D02*
X000772Y009118D01*
X000772Y009277D02*
X001967Y009277D01*
X001809Y009435D02*
X000772Y009435D01*
X000772Y009594D02*
X001752Y009594D01*
X001752Y009753D02*
X000772Y009753D01*
X000772Y009911D02*
X001752Y009911D01*
X001883Y010070D02*
X000772Y010070D01*
X000772Y010228D02*
X002016Y010228D01*
X001857Y010387D02*
X000772Y010387D01*
X000772Y010545D02*
X001752Y010545D01*
X001752Y010704D02*
X000772Y010704D01*
X000772Y010862D02*
X001752Y010862D01*
X001834Y011021D02*
X000772Y011021D01*
X000772Y011179D02*
X001993Y011179D01*
X001906Y011338D02*
X000772Y011338D01*
X000772Y011497D02*
X001752Y011497D01*
X001752Y011655D02*
X000772Y011655D01*
X000772Y011814D02*
X001752Y011814D01*
X001785Y011972D02*
X000772Y011972D01*
X000772Y012131D02*
X001944Y012131D01*
X001955Y012289D02*
X000772Y012289D01*
X000772Y012448D02*
X001796Y012448D01*
X001752Y012606D02*
X000772Y012606D01*
X000772Y012765D02*
X001752Y012765D01*
X001752Y012923D02*
X000772Y012923D01*
X000772Y013082D02*
X001895Y013082D01*
X002054Y013241D02*
X000772Y013241D01*
X000772Y013399D02*
X007520Y013399D01*
X007531Y013241D02*
X007718Y013241D01*
X007689Y013082D02*
X007917Y013082D01*
X007832Y012923D02*
X008115Y012923D01*
X008242Y012765D02*
X007832Y012765D01*
X007832Y012606D02*
X008242Y012606D01*
X008242Y012448D02*
X007788Y012448D01*
X007630Y012289D02*
X008242Y012289D01*
X008242Y012131D02*
X007641Y012131D01*
X007799Y011972D02*
X008242Y011972D01*
X008242Y011814D02*
X007832Y011814D01*
X007832Y011655D02*
X008242Y011655D01*
X008337Y011497D02*
X007832Y011497D01*
X007678Y011338D02*
X008496Y011338D01*
X008654Y011179D02*
X007592Y011179D01*
X007751Y011021D02*
X008552Y011021D01*
X008446Y010862D02*
X007832Y010862D01*
X007832Y010704D02*
X008341Y010704D01*
X008235Y010545D02*
X007832Y010545D01*
X007727Y010387D02*
X008129Y010387D01*
X008024Y010228D02*
X007568Y010228D01*
X007702Y010070D02*
X007918Y010070D01*
X008427Y009753D02*
X009288Y009753D01*
X009325Y009716D02*
X009032Y009423D01*
X009032Y009008D01*
X009325Y008716D01*
X010259Y008716D01*
X010552Y009008D01*
X010552Y009423D01*
X010259Y009716D01*
X009325Y009716D01*
X009204Y009594D02*
X008342Y009594D01*
X008186Y009435D02*
X009045Y009435D01*
X009032Y009277D02*
X007617Y009277D01*
X007092Y009118D02*
X009032Y009118D01*
X009081Y008960D02*
X007092Y008960D01*
X007092Y008801D02*
X009239Y008801D01*
X009325Y008716D02*
X009032Y008423D01*
X009032Y008008D01*
X009325Y007716D01*
X010259Y007716D01*
X010552Y008008D01*
X010552Y008423D01*
X010259Y008716D01*
X009325Y008716D01*
X009252Y008643D02*
X007092Y008643D01*
X007092Y008484D02*
X009094Y008484D01*
X009032Y008326D02*
X007092Y008326D01*
X007092Y008167D02*
X009032Y008167D01*
X009032Y008009D02*
X007009Y008009D01*
X006851Y007850D02*
X009191Y007850D01*
X010394Y007850D02*
X010532Y007850D01*
X010532Y007691D02*
X006692Y007691D01*
X006534Y007533D02*
X010532Y007533D01*
X010666Y007374D02*
X006226Y007374D01*
X006320Y008167D02*
X006116Y008167D01*
X006478Y008326D02*
X003666Y008326D01*
X003825Y008484D02*
X006492Y008484D01*
X006492Y008643D02*
X003832Y008643D01*
X003832Y008801D02*
X006492Y008801D01*
X006492Y008960D02*
X003812Y008960D01*
X003653Y009118D02*
X006492Y009118D01*
X005967Y009277D02*
X003617Y009277D01*
X003776Y009435D02*
X005809Y009435D01*
X005752Y009594D02*
X003832Y009594D01*
X003832Y009753D02*
X005752Y009753D01*
X005752Y009911D02*
X003832Y009911D01*
X003702Y010070D02*
X005883Y010070D01*
X006016Y010228D02*
X003569Y010228D01*
X003727Y010387D02*
X005857Y010387D01*
X005752Y010545D02*
X003832Y010545D01*
X003832Y010704D02*
X005752Y010704D01*
X005752Y010862D02*
X003832Y010862D01*
X003751Y011021D02*
X005834Y011021D01*
X005993Y011179D02*
X003592Y011179D01*
X003678Y011338D02*
X005906Y011338D01*
X005752Y011497D02*
X003832Y011497D01*
X003832Y011655D02*
X004584Y011655D01*
X004584Y011814D02*
X003832Y011814D01*
X003799Y011972D02*
X004584Y011972D01*
X004584Y012131D02*
X003641Y012131D01*
X003630Y012289D02*
X004591Y012289D01*
X005350Y012448D02*
X003788Y012448D01*
X003832Y012606D02*
X005752Y012606D01*
X005752Y012765D02*
X003832Y012765D01*
X003832Y012923D02*
X005752Y012923D01*
X005895Y013082D02*
X003689Y013082D01*
X003531Y013241D02*
X006054Y013241D01*
X006409Y013558D02*
X007322Y013558D01*
X007054Y013241D02*
X006531Y013241D01*
X006689Y013082D02*
X006895Y013082D01*
X005675Y013558D02*
X000772Y013558D01*
X000772Y013716D02*
X005584Y013716D01*
X005584Y013875D02*
X000772Y013875D01*
X000772Y014033D02*
X005584Y014033D01*
X005584Y014192D02*
X000772Y014192D01*
X000772Y014350D02*
X005652Y014350D01*
X006433Y014350D02*
X009032Y014350D01*
X009032Y014192D02*
X007490Y014192D01*
X007493Y014189D02*
X008647Y013266D01*
X008666Y013266D01*
X008743Y013189D01*
X008743Y013189D01*
X008842Y013090D01*
X008842Y012841D01*
X008842Y011840D01*
X009146Y011536D01*
X009325Y011716D01*
X010259Y011716D01*
X009325Y011716D01*
X009032Y012008D01*
X009032Y012423D01*
X009325Y012716D01*
X010259Y012716D01*
X009325Y012716D01*
X009032Y013008D01*
X009032Y013423D01*
X009325Y013716D01*
X010259Y013716D01*
X009325Y013716D01*
X009167Y013558D02*
X008282Y013558D01*
X008481Y013399D02*
X009032Y013399D01*
X009032Y013241D02*
X008692Y013241D01*
X008842Y013082D02*
X009032Y013082D01*
X009117Y012923D02*
X008842Y012923D01*
X008842Y012765D02*
X009276Y012765D01*
X009216Y012606D02*
X008842Y012606D01*
X008842Y012448D02*
X009057Y012448D01*
X009032Y012289D02*
X008842Y012289D01*
X008842Y012131D02*
X009032Y012131D01*
X009069Y011972D02*
X008842Y011972D01*
X008868Y011814D02*
X009227Y011814D01*
X009265Y011655D02*
X009027Y011655D01*
X009167Y010862D02*
X009178Y010862D01*
X009062Y010704D02*
X009313Y010704D01*
X009155Y010545D02*
X008956Y010545D01*
X009032Y010387D02*
X008850Y010387D01*
X008744Y010228D02*
X009032Y010228D01*
X009032Y010070D02*
X008639Y010070D01*
X008533Y009911D02*
X009130Y009911D01*
X010296Y009753D02*
X010532Y009753D01*
X010532Y009594D02*
X010381Y009594D01*
X010539Y009435D02*
X010605Y009435D01*
X010552Y009277D02*
X010764Y009277D01*
X010728Y009118D02*
X010552Y009118D01*
X010569Y008960D02*
X010504Y008960D01*
X010532Y008801D02*
X010345Y008801D01*
X010332Y008643D02*
X010532Y008643D01*
X010557Y008484D02*
X010491Y008484D01*
X010552Y008326D02*
X010715Y008326D01*
X010777Y008167D02*
X010552Y008167D01*
X010552Y008009D02*
X010618Y008009D01*
X011808Y008167D02*
X013777Y008167D01*
X013715Y008326D02*
X011869Y008326D01*
X012028Y008484D02*
X013557Y008484D01*
X013532Y008643D02*
X012052Y008643D01*
X012052Y008801D02*
X013532Y008801D01*
X013569Y008960D02*
X012015Y008960D01*
X011857Y009118D02*
X013728Y009118D01*
X014857Y009118D02*
X017722Y009118D01*
X017722Y008960D02*
X015015Y008960D01*
X015052Y008801D02*
X017722Y008801D01*
X017722Y008643D02*
X015052Y008643D01*
X015028Y008484D02*
X017722Y008484D01*
X017722Y008326D02*
X014869Y008326D01*
X014808Y008167D02*
X017722Y008167D01*
X017722Y008009D02*
X014966Y008009D01*
X015052Y007850D02*
X017722Y007850D01*
X017722Y007691D02*
X015052Y007691D01*
X015052Y007533D02*
X017722Y007533D01*
X017722Y007374D02*
X014918Y007374D01*
X014760Y007216D02*
X017722Y007216D01*
X017722Y007057D02*
X014918Y007057D01*
X015052Y006899D02*
X017722Y006899D01*
X017722Y006740D02*
X015052Y006740D01*
X015052Y006582D02*
X017722Y006582D01*
X017722Y006423D02*
X014967Y006423D01*
X014808Y006265D02*
X017722Y006265D01*
X017722Y006106D02*
X012612Y006106D01*
X012612Y005948D02*
X017722Y005948D01*
X017722Y005789D02*
X012612Y005789D01*
X012612Y005630D02*
X017722Y005630D01*
X017722Y005472D02*
X012612Y005472D01*
X012612Y005313D02*
X017722Y005313D01*
X017722Y005155D02*
X014659Y005155D01*
X014615Y005199D02*
X014406Y005286D01*
X014179Y005286D01*
X013969Y005199D01*
X013809Y005038D01*
X013722Y004829D01*
X013722Y004602D01*
X013809Y004393D01*
X013969Y004232D01*
X014179Y004146D01*
X014406Y004146D01*
X014615Y004232D01*
X014775Y004393D01*
X014862Y004602D01*
X014862Y004829D01*
X014775Y005038D01*
X014615Y005199D01*
X014793Y004996D02*
X017722Y004996D01*
X017722Y004838D02*
X014859Y004838D01*
X014862Y004679D02*
X017722Y004679D01*
X017722Y004521D02*
X014828Y004521D01*
X014745Y004362D02*
X017722Y004362D01*
X017722Y004204D02*
X014546Y004204D01*
X014039Y004204D02*
X012612Y004204D01*
X012612Y004362D02*
X013840Y004362D01*
X013756Y004521D02*
X012612Y004521D01*
X012612Y004679D02*
X013722Y004679D01*
X013726Y004838D02*
X012612Y004838D01*
X012612Y004996D02*
X013792Y004996D01*
X013925Y005155D02*
X012612Y005155D01*
X011972Y005155D02*
X010659Y005155D01*
X010615Y005199D02*
X010406Y005286D01*
X010179Y005286D01*
X009969Y005199D01*
X009809Y005038D01*
X009722Y004829D01*
X009722Y004602D01*
X009809Y004393D01*
X009969Y004232D01*
X010179Y004146D01*
X010406Y004146D01*
X010615Y004232D01*
X010775Y004393D01*
X010862Y004602D01*
X010862Y004829D01*
X010775Y005038D01*
X010615Y005199D01*
X010793Y004996D02*
X011972Y004996D01*
X011972Y004838D02*
X010859Y004838D01*
X010862Y004679D02*
X011972Y004679D01*
X011972Y004521D02*
X010828Y004521D01*
X010745Y004362D02*
X011972Y004362D01*
X011972Y004204D02*
X010546Y004204D01*
X010039Y004204D02*
X000772Y004204D01*
X000772Y004362D02*
X009840Y004362D01*
X009756Y004521D02*
X000772Y004521D01*
X000772Y004679D02*
X009722Y004679D01*
X009726Y004838D02*
X000772Y004838D01*
X000772Y004996D02*
X009792Y004996D01*
X009925Y005155D02*
X000772Y005155D01*
X000772Y005313D02*
X011972Y005313D01*
X011972Y005472D02*
X000772Y005472D01*
X000772Y005630D02*
X011972Y005630D01*
X011972Y005789D02*
X000772Y005789D01*
X000772Y005948D02*
X011972Y005948D01*
X011972Y006106D02*
X000772Y006106D01*
X000772Y006265D02*
X010776Y006265D01*
X010825Y006216D02*
X011759Y006216D01*
X011972Y006429D01*
X011972Y004171D01*
X011834Y004033D01*
X011834Y003398D01*
X011834Y003569D02*
X000772Y003569D01*
X000772Y003728D02*
X011834Y003728D01*
X011834Y003886D02*
X000772Y003886D01*
X000772Y004045D02*
X011847Y004045D01*
X012292Y003716D02*
X012292Y007216D01*
X012792Y007716D01*
X014292Y007716D01*
X013666Y007374D02*
X012904Y007374D01*
X012612Y006899D02*
X013532Y006899D01*
X013532Y006923D02*
X013825Y007216D01*
X014759Y007216D01*
X013825Y007216D01*
X013532Y006740D02*
X012612Y006740D01*
X012612Y006582D02*
X013532Y006582D01*
X013618Y006423D02*
X012612Y006423D01*
X012612Y006265D02*
X013776Y006265D01*
X011972Y006265D02*
X011808Y006265D01*
X011967Y006423D02*
X011972Y006423D01*
X011972Y007057D02*
X011918Y007057D01*
X011972Y007216D02*
X011760Y007216D01*
X011759Y007216D02*
X010825Y007216D01*
X010532Y006923D01*
X010532Y006508D01*
X010825Y006216D01*
X010618Y006423D02*
X000772Y006423D01*
X000772Y006582D02*
X010532Y006582D01*
X010532Y006740D02*
X000772Y006740D01*
X000772Y006899D02*
X010532Y006899D01*
X010667Y007057D02*
X000772Y007057D01*
X002666Y008326D02*
X002919Y008326D01*
X007042Y010716D02*
X007292Y010716D01*
X005752Y011655D02*
X005500Y011655D01*
X005565Y011814D02*
X005752Y011814D01*
X003054Y013241D02*
X002531Y013241D01*
X002689Y013082D02*
X002895Y013082D01*
X000772Y014509D02*
X009118Y014509D01*
X009277Y014667D02*
X000772Y014667D01*
X000772Y014826D02*
X010532Y014826D01*
X010532Y014667D02*
X010308Y014667D01*
X010466Y014509D02*
X010532Y014509D01*
X010552Y014350D02*
X010690Y014350D01*
X010801Y014192D02*
X010552Y014192D01*
X010552Y014033D02*
X010643Y014033D01*
X010532Y013875D02*
X010418Y013875D01*
X010532Y013716D02*
X010260Y013716D01*
X010417Y013558D02*
X010532Y013558D01*
X010552Y013399D02*
X010642Y013399D01*
X010552Y013241D02*
X010800Y013241D01*
X010552Y013082D02*
X017430Y013082D01*
X017608Y012923D02*
X010467Y012923D01*
X010309Y012765D02*
X017722Y012765D01*
X017722Y012606D02*
X010369Y012606D01*
X010527Y012448D02*
X017722Y012448D01*
X017722Y012289D02*
X010552Y012289D01*
X010552Y012131D02*
X010740Y012131D01*
X010582Y011972D02*
X010516Y011972D01*
X010532Y011814D02*
X010357Y011814D01*
X010320Y011655D02*
X010532Y011655D01*
X010544Y011497D02*
X010478Y011497D01*
X010552Y011338D02*
X010703Y011338D01*
X010789Y011179D02*
X010552Y011179D01*
X010552Y011021D02*
X010631Y011021D01*
X010532Y010862D02*
X010406Y010862D01*
X010532Y010704D02*
X010271Y010704D01*
X010430Y010545D02*
X010532Y010545D01*
X011083Y010216D02*
X011759Y010216D01*
X011083Y010216D01*
X011083Y010216D01*
X011772Y010228D02*
X013813Y010228D01*
X013825Y010216D02*
X014759Y010216D01*
X015052Y010508D01*
X015052Y010923D01*
X014759Y011216D01*
X015052Y011508D01*
X015052Y011923D01*
X014759Y012216D01*
X013825Y012216D01*
X013532Y011923D01*
X013532Y011508D01*
X013825Y011216D01*
X014759Y011216D01*
X013825Y011216D01*
X013532Y010923D01*
X013532Y010508D01*
X013825Y010216D01*
X013654Y010387D02*
X011931Y010387D01*
X012052Y010545D02*
X013532Y010545D01*
X013532Y010704D02*
X012052Y010704D01*
X012052Y010862D02*
X013532Y010862D01*
X013631Y011021D02*
X011954Y011021D01*
X011795Y011179D02*
X013789Y011179D01*
X013703Y011338D02*
X011882Y011338D01*
X012040Y011497D02*
X013544Y011497D01*
X013532Y011655D02*
X012052Y011655D01*
X012052Y011814D02*
X013532Y011814D01*
X013582Y011972D02*
X012003Y011972D01*
X011844Y012131D02*
X013740Y012131D01*
X014844Y012131D02*
X017722Y012131D01*
X017722Y011972D02*
X015003Y011972D01*
X015052Y011814D02*
X017722Y011814D01*
X017722Y011655D02*
X015052Y011655D01*
X015040Y011497D02*
X017722Y011497D01*
X017722Y011338D02*
X014882Y011338D01*
X014795Y011179D02*
X017722Y011179D01*
X017722Y011021D02*
X014954Y011021D01*
X015052Y010862D02*
X017722Y010862D01*
X017722Y010704D02*
X015052Y010704D01*
X015052Y010545D02*
X017722Y010545D01*
X017722Y010387D02*
X014931Y010387D01*
X014772Y010228D02*
X017722Y010228D01*
X017722Y010070D02*
X011905Y010070D01*
X012052Y009911D02*
X017722Y009911D01*
X017722Y009753D02*
X012052Y009753D01*
X012052Y009594D02*
X017722Y009594D01*
X017722Y009435D02*
X011979Y009435D01*
X011821Y009277D02*
X017722Y009277D01*
X018042Y009594D02*
X027042Y009594D01*
X027042Y009753D02*
X018042Y009753D01*
X018042Y009911D02*
X027042Y009911D01*
X027042Y010070D02*
X018042Y010070D01*
X018042Y010228D02*
X027042Y010228D01*
X027042Y010387D02*
X018042Y010387D01*
X018042Y010545D02*
X027042Y010545D01*
X027042Y010704D02*
X018042Y010704D01*
X018042Y010862D02*
X027042Y010862D01*
X027042Y011021D02*
X018042Y011021D01*
X018042Y011179D02*
X027042Y011179D01*
X027042Y011338D02*
X018042Y011338D01*
X018042Y011497D02*
X027042Y011497D01*
X027042Y011655D02*
X024067Y011655D01*
X024226Y011814D02*
X027042Y011814D01*
X027042Y011972D02*
X024357Y011972D01*
X024357Y012131D02*
X027042Y012131D01*
X027042Y012289D02*
X024357Y012289D01*
X024357Y012448D02*
X027042Y012448D01*
X027042Y012606D02*
X024237Y012606D01*
X024078Y012765D02*
X027042Y012765D01*
X027042Y012923D02*
X023782Y012923D01*
X023782Y013082D02*
X027042Y013082D01*
X027042Y013241D02*
X023782Y013241D01*
X023782Y013399D02*
X027042Y013399D01*
X027042Y013558D02*
X023782Y013558D01*
X023782Y013716D02*
X027042Y013716D01*
X027042Y013875D02*
X023782Y013875D01*
X023782Y014033D02*
X027042Y014033D01*
X027042Y014192D02*
X023782Y014192D01*
X023782Y014350D02*
X027042Y014350D01*
X027042Y014509D02*
X023782Y014509D01*
X023782Y014667D02*
X027042Y014667D01*
X029625Y014984D02*
X029960Y014984D01*
X029801Y015143D02*
X029783Y015143D01*
X029782Y016411D02*
X029924Y016411D01*
X022802Y014667D02*
X016128Y014667D01*
X016306Y014509D02*
X022802Y014509D01*
X022802Y014350D02*
X016484Y014350D01*
X016663Y014192D02*
X022802Y014192D01*
X022802Y014033D02*
X016841Y014033D01*
X017020Y013875D02*
X022802Y013875D01*
X022802Y013716D02*
X017198Y013716D01*
X017376Y013558D02*
X022802Y013558D01*
X022802Y013399D02*
X017555Y013399D01*
X017733Y013241D02*
X022802Y013241D01*
X022802Y013082D02*
X017911Y013082D01*
X018042Y012923D02*
X022802Y012923D01*
X022506Y012765D02*
X018078Y012765D01*
X018237Y012606D02*
X022348Y012606D01*
X022227Y012448D02*
X018357Y012448D01*
X018357Y012289D02*
X022227Y012289D01*
X022227Y012131D02*
X018357Y012131D01*
X018357Y011972D02*
X022227Y011972D01*
X022359Y011814D02*
X018226Y011814D01*
X018067Y011655D02*
X022517Y011655D01*
X023069Y009556D02*
X022752Y009239D01*
X022752Y008192D01*
X023069Y007876D01*
X023516Y007876D01*
X023832Y008192D01*
X023832Y009239D01*
X023516Y009556D01*
X023069Y009556D01*
X022949Y009435D02*
X020636Y009435D01*
X020516Y009556D02*
X020832Y009239D01*
X020832Y008192D01*
X020782Y008142D01*
X020782Y007263D01*
X020750Y007230D01*
X020750Y007148D01*
X020609Y007008D01*
X020527Y007008D01*
X020495Y006976D01*
X020089Y006976D01*
X020057Y007008D01*
X019975Y007008D01*
X019834Y007148D01*
X019834Y007230D01*
X019802Y007263D01*
X019802Y008142D01*
X019752Y008192D01*
X019752Y009239D01*
X020069Y009556D01*
X020516Y009556D01*
X020795Y009277D02*
X022790Y009277D01*
X022752Y009118D02*
X020832Y009118D01*
X020832Y008960D02*
X022752Y008960D01*
X022752Y008801D02*
X020832Y008801D01*
X020832Y008643D02*
X022752Y008643D01*
X022752Y008484D02*
X020832Y008484D01*
X020832Y008326D02*
X022752Y008326D01*
X022777Y008167D02*
X020807Y008167D01*
X020782Y008009D02*
X022936Y008009D01*
X023649Y008009D02*
X024802Y008009D01*
X024802Y008142D02*
X024752Y008192D01*
X024752Y009239D01*
X025069Y009556D01*
X025516Y009556D01*
X025832Y009239D01*
X025832Y008192D01*
X025782Y008142D01*
X025782Y007263D01*
X025750Y007230D01*
X025750Y007148D01*
X025609Y007008D01*
X025527Y007008D01*
X025495Y006976D01*
X025089Y006976D01*
X025057Y007008D01*
X024975Y007008D01*
X024834Y007148D01*
X024834Y007230D01*
X024802Y007263D01*
X024802Y008142D01*
X024777Y008167D02*
X023807Y008167D01*
X023832Y008326D02*
X024752Y008326D01*
X024752Y008484D02*
X023832Y008484D01*
X023832Y008643D02*
X024752Y008643D01*
X024752Y008801D02*
X023832Y008801D01*
X023832Y008960D02*
X024752Y008960D01*
X024752Y009118D02*
X023832Y009118D01*
X023795Y009277D02*
X024790Y009277D01*
X024949Y009435D02*
X023636Y009435D01*
X025636Y009435D02*
X027042Y009435D01*
X027042Y009277D02*
X025795Y009277D01*
X025832Y009118D02*
X027042Y009118D01*
X027042Y008960D02*
X025832Y008960D01*
X025832Y008801D02*
X027042Y008801D01*
X027042Y008643D02*
X025832Y008643D01*
X025832Y008484D02*
X027042Y008484D01*
X027042Y008326D02*
X025832Y008326D01*
X025807Y008167D02*
X027042Y008167D01*
X027042Y008009D02*
X025782Y008009D01*
X025782Y007850D02*
X027042Y007850D01*
X027042Y007691D02*
X025782Y007691D01*
X025782Y007533D02*
X027042Y007533D01*
X027042Y007374D02*
X025782Y007374D01*
X025750Y007216D02*
X027042Y007216D01*
X027042Y007057D02*
X025659Y007057D01*
X024926Y007057D02*
X020659Y007057D01*
X020750Y007216D02*
X024834Y007216D01*
X024802Y007374D02*
X020782Y007374D01*
X020782Y007533D02*
X024802Y007533D01*
X024802Y007691D02*
X020782Y007691D01*
X020782Y007850D02*
X024802Y007850D01*
X027042Y006899D02*
X018042Y006899D01*
X018042Y007057D02*
X019926Y007057D01*
X019834Y007216D02*
X018042Y007216D01*
X018042Y007374D02*
X019802Y007374D01*
X019802Y007533D02*
X018042Y007533D01*
X018042Y007691D02*
X019802Y007691D01*
X019802Y007850D02*
X018042Y007850D01*
X018649Y008009D02*
X019802Y008009D01*
X019777Y008167D02*
X018807Y008167D01*
X018832Y008326D02*
X019752Y008326D01*
X019752Y008484D02*
X018832Y008484D01*
X018832Y008643D02*
X019752Y008643D01*
X019752Y008801D02*
X018832Y008801D01*
X018832Y008960D02*
X019752Y008960D01*
X019752Y009118D02*
X018832Y009118D01*
X018795Y009277D02*
X019790Y009277D01*
X019949Y009435D02*
X018636Y009435D01*
X012633Y008009D02*
X011966Y008009D01*
X012052Y007850D02*
X012474Y007850D01*
X012316Y007691D02*
X012052Y007691D01*
X012052Y007533D02*
X012157Y007533D01*
X011999Y007374D02*
X011918Y007374D01*
X011759Y007216D02*
X010825Y007216D01*
X010458Y009911D02*
X010455Y009911D01*
X010594Y014984D02*
X000772Y014984D01*
X000772Y015143D02*
X010753Y015143D01*
X010739Y015302D02*
X000772Y015302D01*
X000772Y015460D02*
X010581Y015460D01*
X010532Y015619D02*
X000772Y015619D01*
X000772Y015777D02*
X010532Y015777D01*
X010545Y015936D02*
X000772Y015936D01*
X000772Y016094D02*
X010704Y016094D01*
X010802Y016253D02*
X000772Y016253D01*
X000772Y016411D02*
X010802Y016411D01*
X010802Y016570D02*
X000772Y016570D01*
X000772Y016728D02*
X010802Y016728D01*
X010802Y016887D02*
X000772Y016887D01*
X000772Y017046D02*
X010802Y017046D01*
X010802Y017204D02*
X007547Y017204D01*
X007745Y017363D02*
X010802Y017363D01*
X010756Y017521D02*
X007829Y017521D01*
X007862Y017680D02*
X010722Y017680D01*
X010726Y017838D02*
X007858Y017838D01*
X007925Y017997D02*
X010792Y017997D01*
X010926Y018155D02*
X008004Y018155D01*
X007179Y018472D02*
X000772Y018472D01*
X000772Y018314D02*
X007100Y018314D01*
X006926Y018155D02*
X000772Y018155D01*
X000772Y017997D02*
X006792Y017997D01*
X006726Y017838D02*
X000772Y017838D01*
X000772Y017680D02*
X006722Y017680D01*
X006756Y017521D02*
X000772Y017521D01*
X000772Y017363D02*
X006839Y017363D01*
X007038Y017204D02*
X000772Y017204D01*
X000772Y018631D02*
X007258Y018631D01*
X007337Y018790D02*
X000772Y018790D01*
X000772Y018948D02*
X007417Y018948D01*
X007496Y019107D02*
X000772Y019107D01*
X000772Y019265D02*
X007575Y019265D01*
X007654Y019424D02*
X000772Y019424D01*
X000772Y019582D02*
X007734Y019582D01*
X028636Y009435D02*
X028949Y009435D01*
X028802Y008009D02*
X028649Y008009D01*
X034782Y009594D02*
X039812Y009594D01*
X039812Y009753D02*
X034782Y009753D01*
X034782Y009911D02*
X039812Y009911D01*
X039812Y010070D02*
X034782Y010070D01*
X034782Y010228D02*
X039812Y010228D01*
X039812Y010387D02*
X034782Y010387D01*
X034961Y010545D02*
X039812Y010545D01*
X039812Y010704D02*
X035225Y010704D01*
X036274Y010862D02*
X039812Y010862D01*
X039812Y011021D02*
X036433Y011021D01*
X036591Y011179D02*
X039812Y011179D01*
X039812Y011338D02*
X036607Y011338D01*
X036607Y011497D02*
X039812Y011497D01*
X039812Y011655D02*
X036607Y011655D01*
X036529Y011814D02*
X039812Y011814D01*
X039812Y011972D02*
X036371Y011972D01*
X039812Y002460D02*
X016112Y002460D01*
X016270Y002301D02*
X039812Y002301D01*
X039812Y002142D02*
X016332Y002142D01*
X016332Y001984D02*
X039812Y001984D01*
X039812Y001825D02*
X016332Y001825D01*
X016332Y001667D02*
X039812Y001667D01*
X039812Y001508D02*
X016332Y001508D01*
X016332Y001350D02*
X039812Y001350D01*
X017827Y003728D02*
X012750Y003728D01*
X012750Y003886D02*
X017722Y003886D01*
X017722Y004045D02*
X012738Y004045D01*
X014112Y002460D02*
X015473Y002460D01*
X015314Y002301D02*
X014270Y002301D01*
X014332Y002142D02*
X015252Y002142D01*
X015252Y001984D02*
X014332Y001984D01*
X014332Y001825D02*
X015252Y001825D01*
X015252Y001667D02*
X014332Y001667D01*
X014332Y001508D02*
X015252Y001508D01*
X015252Y001350D02*
X014332Y001350D01*
D23*
X012292Y003716D03*
X007292Y004466D03*
X005792Y007716D03*
X005042Y011966D03*
X006042Y013966D03*
X018292Y016966D03*
X029292Y016966D03*
X034292Y016716D03*
X034292Y007466D03*
X029292Y007466D03*
X025292Y007466D03*
X024292Y004716D03*
X023792Y004716D03*
X020792Y004716D03*
X020292Y004716D03*
X020292Y007466D03*
D24*
X011292Y009716D02*
X010542Y010216D01*
X009792Y010216D01*
X009792Y011216D02*
X009042Y011216D01*
X008542Y011716D01*
X008542Y012966D01*
X007292Y013966D01*
X006042Y013966D01*
X005542Y012216D02*
X006792Y012216D01*
X007292Y011716D01*
X005542Y012216D02*
X005292Y011966D01*
X005042Y011966D01*
X006792Y010466D02*
X007042Y010716D01*
X006792Y010466D02*
X006792Y008216D01*
X006292Y007716D01*
X005792Y007716D01*
X007292Y009716D02*
X008042Y009716D01*
X009042Y011216D01*
D25*
X011292Y015716D02*
X011292Y017716D01*
X018292Y016966D02*
X018292Y015716D01*
X023292Y015716D02*
X023292Y012216D01*
X023292Y015716D02*
X023292Y017466D01*
X029292Y016966D02*
X029292Y015716D01*
X034292Y015716D02*
X034292Y016716D01*
X035542Y011466D02*
X034292Y010716D01*
X034292Y007466D01*
X029292Y007466D02*
X029292Y008716D01*
X025292Y008716D02*
X025292Y007466D01*
X020292Y007466D02*
X020292Y008716D01*
M02*
