G75*
G70*
%OFA0B0*%
%FSLAX24Y24*%
%IPPOS*%
%LPD*%
%AMOC8*
5,1,8,0,0,1.08239X$1,22.5*
%
%ADD10C,0.0000*%
%ADD11C,0.0500*%
%ADD12R,0.0790X0.0710*%
%ADD13C,0.2380*%
%ADD14C,0.0828*%
%ADD15OC8,0.0828*%
%ADD16C,0.0740*%
%ADD17O,0.1730X0.0905*%
%ADD18R,0.0710X0.0790*%
%ADD19R,0.0671X0.0671*%
%ADD20R,0.0631X0.0631*%
%ADD21O,0.1120X0.0600*%
%ADD22O,0.0680X0.1280*%
%ADD23R,0.0789X0.0631*%
%ADD24R,0.0710X0.0789*%
%ADD25R,0.0789X0.0710*%
%ADD26R,0.1104X0.1025*%
%ADD27OC8,0.0680*%
%ADD28R,0.0710X0.0540*%
%ADD29R,0.0720X0.0060*%
%ADD30R,0.0540X0.0710*%
%ADD31R,0.0060X0.0720*%
%ADD32OC8,0.0710*%
%ADD33C,0.2180*%
%ADD34R,0.0516X0.0516*%
D10*
X000292Y000716D02*
X000292Y020716D01*
X040292Y020716D01*
X040292Y000716D01*
X000292Y000716D01*
D11*
X020292Y006966D02*
X034292Y006966D01*
X034292Y007216D02*
X020292Y007216D01*
X020292Y007466D02*
X020292Y008716D01*
X020292Y007466D02*
X025292Y007466D01*
X025292Y008716D01*
X025292Y007466D02*
X029292Y007466D01*
X029292Y008716D01*
X029292Y007466D02*
X030792Y007466D01*
X030792Y005966D01*
X031042Y006966D02*
X032542Y006966D01*
X032792Y007466D02*
X032792Y005966D01*
X032792Y007466D02*
X030792Y007466D01*
X032792Y007466D02*
X034292Y007466D01*
X034292Y008716D01*
X029292Y015466D02*
X029292Y016966D01*
X023292Y016966D01*
X023292Y015716D01*
X023292Y016966D02*
X021042Y016966D01*
X030792Y016966D01*
X030792Y018466D01*
X030792Y017466D02*
X032292Y017466D01*
X032292Y018466D01*
X032292Y017466D02*
X032292Y016966D01*
X034042Y016966D01*
X034292Y016966D02*
X034042Y017216D01*
X033792Y017216D02*
X018292Y017216D01*
X018292Y016966D02*
X021042Y016966D01*
X018292Y016966D02*
X018292Y015716D01*
X018292Y017466D02*
X033792Y017466D01*
X034292Y016966D02*
X034292Y015716D01*
X032292Y016966D02*
X030792Y016966D01*
D12*
X037542Y016775D03*
X037542Y015656D03*
X010042Y006775D03*
X009042Y006775D03*
X009042Y005656D03*
X010042Y005656D03*
X005042Y007656D03*
X005042Y008775D03*
X005042Y010156D03*
X005042Y011275D03*
X005042Y012906D03*
X005042Y014025D03*
X008117Y014656D03*
X008117Y015775D03*
D13*
X005292Y016716D03*
X002292Y018716D03*
X005292Y004716D03*
X002292Y002716D03*
X035292Y002716D03*
X038292Y002716D03*
X038292Y018716D03*
X035292Y018716D03*
D14*
X026292Y018716D03*
X016292Y018716D03*
X019042Y004216D03*
X026292Y004216D03*
D15*
X028292Y004216D03*
X017042Y004216D03*
X014292Y018716D03*
X028292Y018716D03*
D16*
X011292Y017716D03*
X007292Y017716D03*
X010292Y004716D03*
X014292Y004716D03*
D17*
X017292Y012216D03*
X023292Y012216D03*
X025542Y012466D03*
X029542Y011466D03*
X031542Y012466D03*
X035542Y011466D03*
D18*
X035232Y009966D03*
X036352Y009966D03*
X031352Y009966D03*
X030232Y009966D03*
X026102Y010216D03*
X024982Y010216D03*
X021602Y010216D03*
X020482Y010216D03*
X020482Y014466D03*
X021602Y014466D03*
X025232Y014466D03*
X026352Y014466D03*
X030232Y014466D03*
X031352Y014466D03*
X035232Y014466D03*
X036352Y014466D03*
D19*
X036981Y006966D03*
X036981Y005966D03*
X035603Y005966D03*
X035603Y006966D03*
D20*
X034040Y009966D03*
X032544Y009966D03*
X028790Y009966D03*
X027294Y009966D03*
X024040Y010216D03*
X022544Y010216D03*
X019540Y010216D03*
X018044Y010216D03*
X018044Y014466D03*
X019540Y014466D03*
X022794Y014466D03*
X024290Y014466D03*
X027544Y014466D03*
X029040Y014466D03*
X032544Y014466D03*
X034040Y014466D03*
D21*
X014292Y014716D03*
X014292Y015716D03*
X011292Y015716D03*
X009792Y015216D03*
X011292Y014716D03*
X009792Y014216D03*
X011292Y013716D03*
X009792Y013216D03*
X011292Y012716D03*
X009792Y012216D03*
X011292Y011716D03*
X009792Y011216D03*
X011292Y010716D03*
X009792Y010216D03*
X011292Y009716D03*
X009792Y009216D03*
X011292Y008716D03*
X009792Y008216D03*
X011292Y007716D03*
X011292Y006716D03*
X014292Y006716D03*
X014292Y007716D03*
X014292Y008716D03*
X014292Y009716D03*
X014292Y010716D03*
X014292Y011716D03*
X014292Y012716D03*
X014292Y013716D03*
D22*
X018292Y015716D03*
X019292Y015716D03*
X020292Y015716D03*
X023292Y015716D03*
X024292Y015716D03*
X025292Y015716D03*
X028292Y015716D03*
X029292Y015716D03*
X030292Y015716D03*
X033292Y015716D03*
X034292Y015716D03*
X035292Y015716D03*
X035292Y008716D03*
X034292Y008716D03*
X033292Y008716D03*
X030292Y008716D03*
X029292Y008716D03*
X028292Y008716D03*
X025292Y008716D03*
X024292Y008716D03*
X023292Y008716D03*
X020292Y008716D03*
X019292Y008716D03*
X018292Y008716D03*
X015792Y001716D03*
X014792Y001716D03*
X013792Y001716D03*
X010292Y019716D03*
X009292Y019716D03*
X008292Y019716D03*
D23*
X015542Y015885D03*
X016792Y015546D03*
X015542Y014546D03*
X016792Y014385D03*
X016792Y013046D03*
X015542Y013135D03*
X015542Y011796D03*
X016542Y011385D03*
X016542Y010046D03*
X015542Y010135D03*
X015542Y008796D03*
X016792Y008385D03*
X016792Y007046D03*
X015792Y007135D03*
X015792Y005796D03*
X016792Y016885D03*
D24*
X013593Y016966D03*
X012491Y016966D03*
X006343Y019466D03*
X005241Y019466D03*
X010241Y003716D03*
X011343Y003716D03*
X013741Y003216D03*
X014843Y003216D03*
D25*
X012542Y018164D03*
X012542Y019267D03*
D26*
X009552Y002466D03*
X007032Y002466D03*
D27*
X003292Y007716D03*
X002292Y007716D03*
X002292Y008716D03*
X003292Y008716D03*
X003292Y009716D03*
X002292Y009716D03*
X002292Y010716D03*
X003292Y010716D03*
X003292Y011716D03*
X002292Y011716D03*
X002292Y012716D03*
X003292Y012716D03*
X006292Y012716D03*
X007292Y012716D03*
X007292Y011716D03*
X006292Y011716D03*
X006292Y010716D03*
X007292Y010716D03*
X007292Y009716D03*
X006292Y009716D03*
X006292Y008716D03*
X007292Y008716D03*
D28*
X008542Y009416D03*
X008542Y010016D03*
D29*
X008542Y009716D03*
D30*
X009242Y016466D03*
X009842Y016466D03*
D31*
X009542Y016466D03*
D32*
X020542Y018716D03*
X021292Y018716D03*
X022042Y018716D03*
D33*
X023792Y017966D03*
X031542Y018716D03*
X031792Y005966D03*
X022292Y004966D03*
X022292Y002216D03*
D34*
X020792Y004716D03*
X020292Y004716D03*
X023792Y004716D03*
X024292Y004716D03*
X025292Y007466D03*
X029292Y007466D03*
X034292Y007466D03*
X020292Y007466D03*
X012292Y003716D03*
X007292Y004466D03*
X005792Y007716D03*
X005042Y011966D03*
X006042Y013966D03*
X018292Y016966D03*
X029292Y016966D03*
X034292Y016716D03*
M02*
