G75*
G70*
%OFA0B0*%
%FSLAX24Y24*%
%IPPOS*%
%LPD*%
%AMOC8*
5,1,8,0,0,1.08239X$1,22.5*
%
%ADD10C,0.0000*%
%ADD11R,0.0710X0.0630*%
%ADD12C,0.2300*%
%ADD13C,0.0748*%
%ADD14OC8,0.0748*%
%ADD15C,0.0660*%
%ADD16O,0.1650X0.0825*%
%ADD17R,0.0630X0.0710*%
%ADD18R,0.0591X0.0591*%
%ADD19R,0.0551X0.0551*%
%ADD20O,0.1040X0.0520*%
%ADD21O,0.0600X0.1200*%
%ADD22R,0.0709X0.0551*%
%ADD23R,0.0630X0.0709*%
%ADD24R,0.0709X0.0630*%
%ADD25R,0.1024X0.0945*%
%ADD26OC8,0.0600*%
%ADD27R,0.0630X0.0460*%
%ADD28R,0.0460X0.0630*%
%ADD29OC8,0.0630*%
%ADD30C,0.2100*%
%ADD31C,0.0500*%
%ADD32C,0.0400*%
%ADD33C,0.0240*%
%ADD34C,0.0120*%
%ADD35C,0.0160*%
%ADD36R,0.0436X0.0436*%
D10*
X000292Y000716D02*
X000292Y020716D01*
X040292Y020716D01*
X040292Y000716D01*
X000292Y000716D01*
D11*
X009042Y005656D03*
X010042Y005656D03*
X010042Y006775D03*
X009042Y006775D03*
X005042Y007656D03*
X005042Y008775D03*
X005042Y010156D03*
X005042Y011275D03*
X005042Y012906D03*
X005042Y014025D03*
X008117Y014656D03*
X008117Y015775D03*
X037542Y015656D03*
X037542Y016775D03*
D12*
X038292Y018716D03*
X035292Y018716D03*
X005292Y016716D03*
X002292Y018716D03*
X005292Y004716D03*
X002292Y002716D03*
X035292Y002716D03*
X038292Y002716D03*
D13*
X026292Y004216D03*
X019042Y004216D03*
X016292Y018716D03*
X026292Y018716D03*
D14*
X028292Y018716D03*
X014292Y018716D03*
X017042Y004216D03*
X028292Y004216D03*
D15*
X014292Y004716D03*
X010292Y004716D03*
X011292Y017716D03*
X007292Y017716D03*
D16*
X017292Y012216D03*
X023292Y012216D03*
X025542Y012466D03*
X029542Y011466D03*
X031542Y012466D03*
X035542Y011466D03*
D17*
X035232Y009966D03*
X036352Y009966D03*
X031352Y009966D03*
X030232Y009966D03*
X026102Y010216D03*
X024982Y010216D03*
X021602Y010216D03*
X020482Y010216D03*
X020482Y014466D03*
X021602Y014466D03*
X025232Y014466D03*
X026352Y014466D03*
X030232Y014466D03*
X031352Y014466D03*
X035232Y014466D03*
X036352Y014466D03*
D18*
X036981Y006966D03*
X036981Y005966D03*
X035603Y005966D03*
X035603Y006966D03*
D19*
X034040Y009966D03*
X032544Y009966D03*
X028790Y009966D03*
X027294Y009966D03*
X024040Y010216D03*
X022544Y010216D03*
X019540Y010216D03*
X018044Y010216D03*
X018044Y014466D03*
X019540Y014466D03*
X022794Y014466D03*
X024290Y014466D03*
X027544Y014466D03*
X029040Y014466D03*
X032544Y014466D03*
X034040Y014466D03*
D20*
X014292Y014716D03*
X014292Y015716D03*
X011292Y015716D03*
X009792Y015216D03*
X011292Y014716D03*
X009792Y014216D03*
X011292Y013716D03*
X009792Y013216D03*
X011292Y012716D03*
X009792Y012216D03*
X011292Y011716D03*
X009792Y011216D03*
X011292Y010716D03*
X009792Y010216D03*
X011292Y009716D03*
X009792Y009216D03*
X011292Y008716D03*
X009792Y008216D03*
X011292Y007716D03*
X011292Y006716D03*
X014292Y006716D03*
X014292Y007716D03*
X014292Y008716D03*
X014292Y009716D03*
X014292Y010716D03*
X014292Y011716D03*
X014292Y012716D03*
X014292Y013716D03*
D21*
X018292Y015716D03*
X019292Y015716D03*
X020292Y015716D03*
X023292Y015716D03*
X024292Y015716D03*
X025292Y015716D03*
X028292Y015716D03*
X029292Y015716D03*
X030292Y015716D03*
X033292Y015716D03*
X034292Y015716D03*
X035292Y015716D03*
X035292Y008716D03*
X034292Y008716D03*
X033292Y008716D03*
X030292Y008716D03*
X029292Y008716D03*
X028292Y008716D03*
X025292Y008716D03*
X024292Y008716D03*
X023292Y008716D03*
X020292Y008716D03*
X019292Y008716D03*
X018292Y008716D03*
X015792Y001716D03*
X014792Y001716D03*
X013792Y001716D03*
X010292Y019716D03*
X009292Y019716D03*
X008292Y019716D03*
D22*
X015542Y015885D03*
X016792Y015546D03*
X015542Y014546D03*
X016792Y014385D03*
X016792Y013046D03*
X015542Y013135D03*
X015542Y011796D03*
X016542Y011385D03*
X016542Y010046D03*
X015542Y010135D03*
X015542Y008796D03*
X016792Y008385D03*
X016792Y007046D03*
X015792Y007135D03*
X015792Y005796D03*
X016792Y016885D03*
D23*
X013593Y016966D03*
X012491Y016966D03*
X006343Y019466D03*
X005241Y019466D03*
X010241Y003716D03*
X011343Y003716D03*
X013741Y003216D03*
X014843Y003216D03*
D24*
X012542Y018164D03*
X012542Y019267D03*
D25*
X009552Y002466D03*
X007032Y002466D03*
D26*
X003292Y007716D03*
X002292Y007716D03*
X002292Y008716D03*
X003292Y008716D03*
X003292Y009716D03*
X002292Y009716D03*
X002292Y010716D03*
X003292Y010716D03*
X003292Y011716D03*
X002292Y011716D03*
X002292Y012716D03*
X003292Y012716D03*
X006292Y012716D03*
X007292Y012716D03*
X007292Y011716D03*
X006292Y011716D03*
X006292Y010716D03*
X007292Y010716D03*
X007292Y009716D03*
X006292Y009716D03*
X006292Y008716D03*
X007292Y008716D03*
D27*
X008542Y009416D03*
X008542Y010016D03*
D28*
X009242Y016466D03*
X009842Y016466D03*
D29*
X020542Y018716D03*
X021292Y018716D03*
X022042Y018716D03*
D30*
X023792Y017966D03*
X031542Y018716D03*
X031792Y005966D03*
X022292Y004966D03*
X022292Y002216D03*
D31*
X020292Y004716D02*
X019042Y004216D01*
X015792Y001716D01*
X013741Y001767D02*
X013741Y003216D01*
X013792Y003216D02*
X013792Y004716D01*
X012792Y005466D01*
X012792Y009216D01*
X012792Y010716D01*
X014292Y010716D01*
X012792Y010716D02*
X012792Y011716D01*
X012792Y015466D01*
X013542Y016966D02*
X013593Y016966D01*
X010042Y017716D02*
X009292Y017716D01*
X007292Y017716D01*
X007292Y015716D01*
X007292Y014966D01*
X004292Y014966D01*
X003292Y013716D01*
X003292Y012716D01*
X002292Y012716D01*
X007292Y012716D02*
X007292Y014966D01*
X012792Y011716D02*
X014292Y011716D01*
X020292Y008716D02*
X020292Y007966D01*
X020292Y007216D01*
X034292Y007216D01*
X034792Y007216D01*
X034852Y007156D02*
X034792Y006716D01*
X031792Y006716D01*
X020292Y006716D01*
X020292Y007216D01*
X020292Y007466D02*
X025292Y007466D01*
X029292Y007466D01*
X029292Y008716D01*
X029292Y007466D02*
X034292Y007466D01*
X034292Y008716D01*
X034542Y007466D02*
X034852Y007156D01*
X026292Y004216D02*
X025292Y004716D01*
X024292Y004716D01*
X023792Y004716D01*
X022292Y004716D01*
X022292Y004966D01*
X022292Y004716D02*
X020792Y004716D01*
X020292Y004716D01*
X020292Y007466D02*
X020292Y007966D01*
X020292Y007466D02*
X025292Y007466D01*
X025292Y008716D01*
X025232Y014466D02*
X025292Y014466D01*
X023292Y015716D02*
X023292Y016966D01*
X029292Y016966D01*
X034292Y016966D01*
X033542Y017716D01*
X033792Y017466D01*
X033542Y017466D01*
X034292Y016966D01*
X034292Y016716D01*
X034192Y016916D01*
X034042Y017216D01*
X033792Y017216D01*
X033542Y017466D02*
X018292Y017466D01*
X018292Y017716D02*
X031542Y017716D01*
X031542Y018716D01*
X031542Y017716D02*
X033542Y017716D01*
X034292Y016716D02*
X034292Y015716D01*
X029292Y015716D02*
X029292Y016966D01*
X023792Y017216D02*
X023792Y017966D01*
X023292Y016966D02*
X018292Y016966D01*
X018292Y016716D01*
X018292Y015716D01*
X018292Y016966D02*
X018292Y017216D01*
X007282Y008716D02*
X007292Y004466D01*
X007292Y002716D01*
X007032Y002466D01*
X009042Y005656D02*
X009042Y005716D01*
X010042Y005716D02*
X010042Y005656D01*
D32*
X010241Y003716D02*
X010292Y003716D01*
X009552Y002466D02*
X013792Y002466D01*
X013792Y001716D01*
X013741Y001767D01*
X013741Y003216D02*
X013792Y003216D01*
X013792Y004716D02*
X014292Y004716D01*
X012792Y015466D02*
X011542Y016716D01*
X010792Y016716D01*
X010042Y017716D01*
D33*
X012542Y019267D02*
X012542Y019966D01*
X020792Y019966D01*
X022042Y018716D01*
X012542Y019966D02*
X012042Y019966D01*
X011542Y019716D01*
X010292Y019716D01*
X008117Y015775D02*
X008042Y015716D01*
X007292Y015716D01*
D34*
X008292Y014716D02*
X008232Y014656D01*
X008117Y014656D01*
X008292Y014716D02*
X010292Y014716D01*
X010542Y014466D01*
X010542Y013716D01*
X009792Y013216D01*
X008042Y011716D01*
X007292Y011716D01*
X006792Y012216D02*
X006292Y011716D01*
X006792Y012216D02*
X007792Y012216D01*
X008542Y012966D01*
X008542Y013716D01*
X009042Y014216D01*
X009792Y014216D01*
X010542Y013716D02*
X011292Y013716D01*
X010792Y013216D02*
X009792Y012216D01*
X008042Y011216D01*
X006042Y011216D01*
X005792Y010966D01*
X005792Y010216D01*
X006292Y009716D01*
X006792Y010216D02*
X006292Y010716D01*
X006792Y010216D02*
X008542Y010216D01*
X008542Y010016D01*
X008542Y010216D02*
X009792Y010216D01*
X010542Y010716D02*
X007292Y010716D01*
X005042Y011216D02*
X005042Y011275D01*
X005042Y011966D01*
X005042Y011275D01*
X005042Y010216D02*
X003542Y010716D01*
X003292Y010716D02*
X002292Y010716D01*
X002292Y011716D02*
X003292Y011716D01*
X003542Y011716D02*
X004792Y012966D01*
X005042Y012966D01*
X005042Y012906D01*
X006292Y012716D02*
X007292Y012716D01*
X006042Y013966D02*
X005042Y013966D01*
X005042Y014025D01*
X009242Y016466D02*
X009242Y017916D01*
X009292Y017716D01*
X011292Y017716D02*
X012491Y016966D01*
X013542Y016966D02*
X013542Y014966D01*
X013792Y014716D01*
X014292Y014716D01*
X014292Y015716D02*
X015542Y014966D01*
X015542Y014546D01*
X015542Y014966D02*
X017542Y014966D01*
X018042Y014466D01*
X018044Y014466D01*
X018044Y014468D02*
X018792Y013716D01*
X021602Y013716D01*
X024042Y013716D01*
X022794Y013718D01*
X022794Y014466D01*
X021602Y014466D02*
X021602Y013716D01*
X020482Y014466D02*
X019540Y014466D01*
X020292Y014216D02*
X020292Y015716D01*
X020482Y014466D02*
X020292Y014216D01*
X018044Y014468D02*
X018042Y014466D01*
X016792Y014385D02*
X016792Y013716D01*
X014292Y013716D01*
X015542Y013216D02*
X015542Y013135D01*
X015542Y013216D02*
X016462Y013216D01*
X016792Y013046D01*
X017042Y013716D02*
X017542Y013216D01*
X026542Y013216D01*
X027542Y013716D01*
X027542Y013718D01*
X027544Y013718D01*
X027544Y014466D01*
X026352Y014466D02*
X025542Y013716D01*
X024042Y013716D01*
X024290Y014466D02*
X025232Y014466D01*
X025292Y014466D02*
X025292Y015716D01*
X023292Y016966D02*
X023292Y017216D01*
X023792Y017216D01*
X020542Y018716D02*
X019792Y019466D01*
X019542Y019466D01*
X016792Y016966D02*
X013593Y016966D01*
X015542Y015885D02*
X015542Y015716D01*
X016623Y015716D01*
X016792Y015546D01*
X016792Y016716D02*
X016792Y016885D01*
X016792Y016966D02*
X016792Y016716D01*
X018292Y016716D01*
X017042Y013716D02*
X016792Y013716D01*
X017292Y012216D02*
X016542Y011466D01*
X016542Y011385D01*
X016542Y011466D02*
X015792Y011466D01*
X015542Y011796D01*
X017292Y010716D02*
X017292Y009716D01*
X016542Y008966D01*
X015292Y008966D01*
X015542Y008796D01*
X015292Y008716D02*
X015292Y008966D01*
X015292Y008716D02*
X014292Y008716D01*
X015542Y007966D02*
X016042Y007966D01*
X016542Y008216D01*
X016962Y008385D01*
X016792Y008466D01*
X016792Y008385D01*
X016962Y008385D01*
X017042Y008466D02*
X017792Y009466D01*
X018042Y010216D01*
X018044Y010216D01*
X018044Y010339D01*
X018542Y010966D01*
X021542Y010966D01*
X022542Y010966D01*
X022544Y010216D01*
X021602Y010216D02*
X021602Y010906D01*
X021542Y010966D01*
X022542Y010966D02*
X025292Y010966D01*
X026102Y010216D01*
X025042Y010216D02*
X024982Y010216D01*
X024040Y010216D01*
X024042Y010216D01*
X023292Y009216D01*
X023292Y008716D01*
X020482Y010216D02*
X019042Y010216D01*
X019540Y010216D01*
X020292Y010216D02*
X020482Y010216D01*
X019042Y010216D02*
X018292Y009216D01*
X018292Y008716D01*
X017042Y008466D02*
X016792Y008466D01*
X015542Y007966D02*
X014292Y006716D01*
X014292Y007716D02*
X013292Y007216D01*
X013292Y006216D01*
X014042Y005716D01*
X015462Y005716D01*
X015792Y005796D01*
X015542Y005716D01*
X016792Y005716D01*
X018542Y007466D01*
X020292Y007466D01*
X016792Y007216D02*
X016792Y007046D01*
X016792Y007216D02*
X015792Y007216D01*
X015792Y007135D01*
X015792Y006966D01*
X012792Y009216D02*
X010792Y009216D01*
X010292Y008716D01*
X008792Y008716D01*
X008542Y008966D01*
X008542Y009416D01*
X009792Y009216D02*
X010042Y009216D01*
X010542Y009716D01*
X010542Y010716D01*
X011292Y010716D01*
X010292Y011716D02*
X009792Y011216D01*
X010292Y011716D02*
X011292Y011716D01*
X010792Y013216D02*
X011792Y013216D01*
X012042Y013466D01*
X012042Y013966D01*
X011292Y014716D01*
X009842Y016166D01*
X009842Y016466D01*
X017292Y010716D02*
X018042Y011466D01*
X026042Y011466D01*
X027294Y010714D01*
X027294Y009966D01*
X028292Y009716D02*
X028542Y009966D01*
X028790Y009966D01*
X030232Y009966D01*
X031352Y009966D02*
X031352Y010716D01*
X028042Y010716D01*
X027294Y010714D01*
X028292Y009716D02*
X028292Y008716D01*
X031352Y010716D02*
X032542Y010716D01*
X036042Y010716D01*
X036316Y009902D01*
X036292Y009966D01*
X036352Y009966D01*
X035232Y009966D02*
X034040Y009966D01*
X034042Y009966D01*
X033292Y009466D01*
X033292Y008716D01*
X032544Y009966D02*
X032544Y010716D01*
X032542Y010716D01*
X035042Y009966D02*
X035232Y009966D01*
X034292Y007466D02*
X033792Y006966D01*
X034292Y007216D02*
X034542Y006966D01*
X034792Y006716D01*
X032352Y006656D01*
X032544Y013718D02*
X033292Y013716D01*
X031292Y013716D01*
X027542Y013716D01*
X029040Y014466D02*
X030232Y014466D01*
X030042Y014216D01*
X030042Y014716D01*
X030292Y014716D01*
X030292Y015716D01*
X031352Y014466D02*
X031292Y013716D01*
X032544Y013718D02*
X032544Y014466D01*
X034040Y014466D02*
X035232Y014466D01*
X035292Y014216D01*
X035292Y015716D01*
X036352Y014466D02*
X036102Y013716D01*
X033292Y013716D01*
X016542Y010046D02*
X016292Y009966D01*
X015542Y009966D01*
X015542Y010135D01*
X015292Y010216D01*
X011292Y008716D02*
X010792Y008466D01*
X010292Y007466D01*
X009542Y007466D01*
X009042Y006775D01*
X010042Y006775D02*
X010292Y006966D01*
X011292Y007716D01*
X011292Y006716D02*
X011292Y005716D01*
X010292Y004716D01*
X010292Y003716D01*
X010042Y005716D02*
X009042Y005716D01*
X007292Y005716D01*
X007292Y008716D01*
X007282Y008716D01*
X007032Y008706D01*
X007042Y008716D01*
X006292Y008716D01*
X007042Y008716D02*
X007282Y008716D01*
X005792Y007716D02*
X005042Y007716D01*
X005042Y007656D01*
X005042Y007466D01*
X005042Y008716D02*
X004792Y008716D01*
X003542Y009716D01*
X003292Y009716D02*
X002292Y009716D01*
X002292Y008716D02*
X003292Y008716D01*
X005042Y008716D02*
X005042Y008775D01*
X005042Y010156D02*
X005042Y010216D01*
X010042Y006775D02*
X010292Y006716D01*
D35*
X011292Y003716D02*
X011343Y003716D01*
X011542Y003716D01*
X011343Y003716D02*
X012292Y003716D01*
X014843Y003216D02*
X014843Y001767D01*
X014792Y001716D01*
X002292Y008716D02*
X001542Y009466D01*
X001542Y015466D01*
X004792Y018716D01*
X013042Y018716D01*
X013792Y019466D01*
X019542Y019466D01*
X014292Y018716D02*
X013542Y018216D01*
X012792Y018216D01*
X012542Y018164D01*
X008292Y019716D02*
X006542Y019716D01*
X006542Y019466D01*
X006343Y019466D01*
X005292Y019466D02*
X005241Y019466D01*
X003542Y019466D01*
X002792Y018716D01*
X002292Y018716D01*
X003292Y011716D02*
X003542Y011716D01*
X003542Y010716D02*
X003292Y010716D01*
X003292Y009716D02*
X003542Y009716D01*
X031792Y006716D02*
X031792Y005966D01*
X032042Y007466D02*
X034292Y007466D01*
X034292Y008716D01*
X034542Y006966D02*
X035542Y006966D01*
X035603Y006966D01*
X035542Y006966D02*
X035542Y005966D01*
X035603Y005966D01*
X036981Y005966D02*
X037042Y005966D01*
X037042Y006966D01*
X036981Y006966D01*
X037292Y006966D01*
X037292Y015466D01*
X037542Y015466D01*
X037542Y015656D01*
X037542Y016775D02*
X037542Y016966D01*
X034292Y016966D01*
X034192Y016916D01*
X034352Y016775D02*
X034292Y016716D01*
D36*
X034292Y016716D03*
X029292Y016966D03*
X018292Y016966D03*
X006042Y013966D03*
X005042Y011966D03*
X005792Y007716D03*
X007292Y004466D03*
X012292Y003716D03*
X020292Y004716D03*
X020792Y004716D03*
X023792Y004716D03*
X024292Y004716D03*
X025292Y007466D03*
X029292Y007466D03*
X034292Y007466D03*
X020292Y007466D03*
M02*
