%
M48
M72
T01C0.0276
T02C0.0320
T03C0.0400
T04C0.0440
T05C0.0550
T06C0.1102
T07C0.1181
%
T01
X7292Y4466
X12292Y3716
X17042Y4216
X19042Y4216
X20292Y4716
X20792Y4716
X23792Y4716
X24292Y4716
X26292Y4216
X28292Y4216
X29292Y7466
X25292Y7466
X20292Y7466
X34292Y7466
X34292Y16716
X29292Y16966
X28292Y18716
X26292Y18716
X18292Y16966
X16292Y18716
X14292Y18716
X6042Y13966
X5042Y11966
X5792Y7716
T02
X9792Y8216
X11292Y8716
X9792Y9216
X11292Y9716
X9792Y10216
X11292Y10716
X9792Y11216
X11292Y11716
X9792Y12216
X11292Y12716
X9792Y13216
X11292Y13716
X9792Y14216
X11292Y14716
X9792Y15216
X11292Y15716
X14292Y15716
X14292Y14716
X14292Y13716
X14292Y12716
X14292Y11716
X14292Y10716
X14292Y9716
X14292Y8716
X14292Y7716
X14292Y6716
X11292Y6716
X11292Y7716
X20542Y18716
X21292Y18716
X22042Y18716
T03
X23292Y15716
X24292Y15716
X25292Y15716
X28292Y15716
X29292Y15716
X30292Y15716
X33292Y15716
X34292Y15716
X35292Y15716
X35292Y8716
X34292Y8716
X33292Y8716
X30292Y8716
X29292Y8716
X28292Y8716
X25292Y8716
X24292Y8716
X23292Y8716
X20292Y8716
X19292Y8716
X18292Y8716
X7292Y8716
X6292Y8716
X6292Y9716
X7292Y9716
X7292Y10716
X6292Y10716
X6292Y11716
X7292Y11716
X7292Y12716
X6292Y12716
X3292Y12716
X2292Y12716
X2292Y11716
X3292Y11716
X3292Y10716
X2292Y10716
X2292Y9716
X3292Y9716
X3292Y8716
X2292Y8716
X2292Y7716
X3292Y7716
X13792Y1716
X14792Y1716
X15792Y1716
X18292Y15716
X19292Y15716
X20292Y15716
X10292Y19716
X9292Y19716
X8292Y19716
T04
X7292Y17716
X11292Y17716
X10292Y4716
X14292Y4716
T05
X17292Y12216
X23292Y12216
X25542Y12466
X29542Y11466
X31542Y12466
X35542Y11466
T06
X31792Y5966
X22292Y4966
X22292Y2216
X23792Y17966
X31542Y18716
T07
X2292Y2716
X5292Y4716
X5292Y16716
X2292Y18716
X35292Y18716
X38292Y18716
X38292Y2716
X35292Y2716
M30
