G75*
G70*
%OFA0B0*%
%FSLAX24Y24*%
%IPPOS*%
%LPD*%
%AMOC8*
5,1,8,0,0,1.08239X$1,22.5*
%
%ADD10C,0.0000*%
%ADD11C,0.0660*%
%ADD12C,0.0400*%
%ADD13C,0.0760*%
%ADD14C,0.0500*%
%ADD15C,0.2380*%
%ADD16C,0.0828*%
%ADD17OC8,0.0828*%
%ADD18C,0.0740*%
%ADD19O,0.1730X0.0905*%
%ADD20O,0.1120X0.0600*%
%ADD21O,0.0680X0.1280*%
%ADD22OC8,0.0680*%
%ADD23OC8,0.0710*%
%ADD24C,0.2180*%
%ADD25R,0.0516X0.0516*%
D10*
X000292Y000716D02*
X000292Y020716D01*
X040292Y020716D01*
X040292Y000716D01*
X000292Y000716D01*
D11*
X007292Y006716D02*
X007292Y008716D01*
X019292Y010466D02*
X019292Y004716D01*
X021792Y004716D02*
X021792Y010466D01*
X021792Y016966D01*
X019292Y017716D01*
X019292Y010466D01*
X021792Y010466D01*
X024292Y010466D01*
X024292Y004716D01*
X029792Y003966D02*
X029792Y006216D01*
X030292Y006966D01*
X030292Y008716D01*
X030542Y010466D01*
X030542Y012716D01*
X028292Y014216D01*
X028292Y018716D01*
X027042Y019966D01*
X024292Y015966D02*
X024292Y014466D01*
X024792Y013466D01*
X024792Y011466D01*
X024292Y010466D01*
X033292Y013966D02*
X035792Y013966D01*
X037542Y012716D01*
X037542Y009966D01*
X035292Y008716D01*
X019292Y017716D02*
X016292Y018716D01*
D12*
X035292Y008966D02*
X035292Y008716D01*
D13*
X035292Y006716D01*
X033292Y003966D01*
X029792Y003966D01*
X028292Y003966D01*
X027542Y002716D01*
X028292Y004216D01*
X026042Y004716D02*
X024292Y004716D01*
X021792Y004716D01*
X019292Y004716D01*
X027542Y002716D02*
X010042Y002966D01*
X007292Y004216D01*
X007292Y006716D01*
X004292Y006716D01*
X003292Y007716D01*
X014292Y018716D02*
X015542Y019966D01*
X027042Y019966D01*
X033292Y015716D02*
X033292Y013966D01*
X031542Y012466D01*
D14*
X026542Y014216D02*
X026042Y012466D01*
X026542Y014216D02*
X026542Y017966D01*
X026292Y018716D01*
X023292Y017466D02*
X023292Y015966D01*
X018292Y015966D02*
X018292Y016716D01*
X029292Y016966D02*
X029292Y016216D01*
X034292Y016466D02*
X034292Y015716D01*
X034292Y008466D02*
X034292Y007716D01*
X029292Y007466D02*
X029292Y008216D01*
X025292Y008466D02*
X025292Y007716D01*
X020292Y007716D02*
X020292Y008466D01*
D15*
X005292Y004716D03*
X002292Y002716D03*
X005292Y016716D03*
X002292Y018716D03*
X035292Y018716D03*
X038292Y018716D03*
X038292Y002716D03*
X035292Y002716D03*
D16*
X026292Y004216D03*
X019042Y004216D03*
X016292Y018716D03*
X026292Y018716D03*
D17*
X028292Y018716D03*
X014292Y018716D03*
X017042Y004216D03*
X028292Y004216D03*
D18*
X014292Y004716D03*
X010292Y004716D03*
X011292Y017716D03*
X007292Y017716D03*
D19*
X017292Y012216D03*
X023292Y012216D03*
X025542Y012466D03*
X029542Y011466D03*
X031542Y012466D03*
X035542Y011466D03*
D20*
X014292Y011716D03*
X014292Y012716D03*
X014292Y013716D03*
X014292Y014716D03*
X014292Y015716D03*
X011292Y015716D03*
X009792Y015216D03*
X011292Y014716D03*
X009792Y014216D03*
X011292Y013716D03*
X009792Y013216D03*
X011292Y012716D03*
X009792Y012216D03*
X011292Y011716D03*
X009792Y011216D03*
X011292Y010716D03*
X009792Y010216D03*
X011292Y009716D03*
X009792Y009216D03*
X011292Y008716D03*
X009792Y008216D03*
X011292Y007716D03*
X011292Y006716D03*
X014292Y006716D03*
X014292Y007716D03*
X014292Y008716D03*
X014292Y009716D03*
X014292Y010716D03*
D21*
X018292Y008716D03*
X019292Y008716D03*
X020292Y008716D03*
X023292Y008716D03*
X024292Y008716D03*
X025292Y008716D03*
X028292Y008716D03*
X029292Y008716D03*
X030292Y008716D03*
X033292Y008716D03*
X034292Y008716D03*
X035292Y008716D03*
X035292Y015716D03*
X034292Y015716D03*
X033292Y015716D03*
X030292Y015716D03*
X029292Y015716D03*
X028292Y015716D03*
X025292Y015716D03*
X024292Y015716D03*
X023292Y015716D03*
X020292Y015716D03*
X019292Y015716D03*
X018292Y015716D03*
X010292Y019716D03*
X009292Y019716D03*
X008292Y019716D03*
X013792Y001716D03*
X014792Y001716D03*
X015792Y001716D03*
D22*
X003292Y007716D03*
X002292Y007716D03*
X002292Y008716D03*
X003292Y008716D03*
X003292Y009716D03*
X002292Y009716D03*
X002292Y010716D03*
X003292Y010716D03*
X003292Y011716D03*
X002292Y011716D03*
X002292Y012716D03*
X003292Y012716D03*
X006292Y012716D03*
X007292Y012716D03*
X007292Y011716D03*
X006292Y011716D03*
X006292Y010716D03*
X007292Y010716D03*
X007292Y009716D03*
X006292Y009716D03*
X006292Y008716D03*
X007292Y008716D03*
D23*
X020542Y018716D03*
X021292Y018716D03*
X022042Y018716D03*
D24*
X023792Y017966D03*
X031542Y018716D03*
X031792Y005966D03*
X022292Y004966D03*
X022292Y002216D03*
D25*
X020792Y004716D03*
X020292Y004716D03*
X023792Y004716D03*
X024292Y004716D03*
X025292Y007466D03*
X029292Y007466D03*
X034292Y007466D03*
X020292Y007466D03*
X012292Y003716D03*
X007292Y004466D03*
X005792Y007716D03*
X005042Y011966D03*
X006042Y013966D03*
X018292Y016966D03*
X029292Y016966D03*
X034292Y016716D03*
M02*
