M48
R,T
VER,1
FMAT,2
INCH,TZ
TCST,OFF
ICI,OFF
ATC,ON
T1C0.0170
T2C0.0250
T3C0.0300
T4C0.0320
T5C0.0350
T6C0.0400
T7C0.1450
%
M47,OrCAD PCB Drill V2.01
M47,Holes between Component Layer and Solder Layer
G05
T1
X102750Y112670
X102900Y108020
X105650Y111770
X107550Y108620
X108600Y109170
X109050Y109470
X110850Y112470
X112650Y108970
X112600Y99670
X113200Y99670
X112600Y106170
X120650Y105470
X120650Y104470
X116850Y106170
X112450Y108620
X112200Y111570
X121550Y112270
X125650Y110070
X125950Y110370
X126300Y106620
X124624Y104941
X125350Y109770
X112600Y113020
X110850Y113170
X110681Y113863
X110432Y114221
X111800Y115120
X112150Y115570
X112450Y116020
X110246Y114592
X109950Y116670
X111500Y116820
X110900Y118120
X112900Y118570
T2
X106450Y112019
X106450Y113019
X106450Y114019
X106451Y115020
X106451Y116019
X106450Y117020
T3
X121600Y101870
T4
X104610Y107150
X105610Y107150
X107110Y107150
X108110Y107150
X109610Y107150
X110610Y107150
X112110Y107150
X113110Y107150
X114610Y107150
X115610Y107150
X117110Y107150
X118110Y107150
X116830Y104970
X114330Y104970
X111830Y104970
X109330Y104970
X106830Y104970
X105830Y104970
X108330Y104970
X110830Y104970
X113330Y104970
X115830Y104970
X118370Y104970
X119370Y104970
X118150Y102790
X115650Y102790
X113150Y102790
X110650Y102790
X108110Y102790
X107110Y102790
X109650Y102790
X112150Y102790
X114650Y102790
X117150Y102790
X119650Y102790
X120650Y102790
T5
X100700Y107870
X100700Y108870
X100700Y109870
X103808Y113149
X104808Y113149
X104808Y114149
X104808Y115149
X103808Y115149
X103808Y114149
T6
X103979Y97591
X104686Y96884
X105393Y96177
X106100Y95470
X119100Y95470
X119807Y96177
X120514Y96884
X121221Y97591
T7
X99200Y104970
X100600Y98970
X112600Y91570
X124600Y98970
X126000Y104970
X117344Y117599
T0
M30
