G75*
G70*
%OFA0B0*%
%FSLAX24Y24*%
%IPPOS*%
%LPD*%
%AMOC8*
5,1,8,0,0,1.08239X$1,22.5*
%
%ADD10C,0.0595*%
%ADD11C,0.0680*%
%ADD12OC8,0.0680*%
%ADD13O,0.1200X0.0640*%
%ADD14O,0.0640X0.1200*%
%ADD15O,0.0680X0.1280*%
%ADD16C,0.0640*%
%ADD17R,0.0516X0.0516*%
D10*
X006710Y002810D03*
X007498Y002810D03*
X008285Y002810D03*
X009073Y002810D03*
X009860Y002810D03*
X010647Y002810D03*
X011435Y002810D03*
X012222Y002810D03*
X013010Y002810D03*
X013797Y002810D03*
X013797Y011472D03*
X013010Y011472D03*
X012222Y011472D03*
X011435Y011472D03*
X010647Y011472D03*
X009860Y011472D03*
X009073Y011472D03*
X008285Y011472D03*
X007498Y011472D03*
X006710Y011472D03*
D11*
X018004Y009141D03*
X018004Y007891D03*
X027254Y011641D03*
D12*
X026254Y011641D03*
X025254Y011641D03*
X025254Y010641D03*
X026254Y010641D03*
X027254Y010641D03*
X020004Y010141D03*
X019004Y010141D03*
X018004Y010141D03*
X019004Y009141D03*
X020004Y009141D03*
X019004Y007891D03*
X019004Y006891D03*
X018004Y006891D03*
X018004Y005891D03*
X019004Y005891D03*
X003504Y007391D03*
X002504Y007391D03*
X002504Y008391D03*
X003504Y008391D03*
X003504Y009391D03*
X002504Y009391D03*
X002504Y010391D03*
X003504Y010391D03*
X003504Y011391D03*
X002504Y011391D03*
D13*
X030754Y004641D03*
X030754Y003641D03*
D14*
X030504Y002391D03*
X029504Y002391D03*
X005004Y002641D03*
X004004Y002641D03*
D15*
X016004Y011641D03*
X017004Y011641D03*
X018004Y011641D03*
X019004Y011641D03*
X020754Y011641D03*
X021754Y011641D03*
X022754Y011641D03*
X023754Y011641D03*
X021504Y004391D03*
X020504Y004391D03*
X019504Y004391D03*
X018504Y004391D03*
D16*
X002754Y002391D03*
X015504Y003391D03*
X015504Y004391D03*
X005504Y011641D03*
D17*
X006004Y010141D03*
X007504Y008891D03*
X003504Y004891D03*
X003004Y004891D03*
X016004Y009641D03*
X016754Y007391D03*
X020504Y006891D03*
X021924Y005771D03*
X022754Y003951D03*
X024254Y003891D03*
X024934Y004001D03*
X025254Y003391D03*
X026004Y004891D03*
X027344Y004861D03*
X026144Y005941D03*
X027254Y006141D03*
X029254Y005891D03*
X031004Y009641D03*
X018004Y003391D03*
M02*
