G75*
G70*
%OFA0B0*%
%FSLAX24Y24*%
%IPPOS*%
%LPD*%
%AMOC8*
5,1,8,0,0,1.08239X$1,22.5*
%
%ADD10C,0.0110*%
%ADD11C,0.0515*%
%ADD12C,0.0600*%
%ADD13OC8,0.0600*%
%ADD14O,0.1120X0.0560*%
%ADD15O,0.0560X0.1120*%
%ADD16O,0.0600X0.1200*%
%ADD17C,0.0560*%
%ADD18C,0.0160*%
%ADD19R,0.0436X0.0436*%
%ADD20C,0.0660*%
%ADD21C,0.0240*%
%ADD22C,0.0320*%
D10*
X004665Y005446D02*
X004862Y005446D01*
X004961Y005544D01*
X004961Y005643D01*
X004862Y005741D01*
X004665Y005741D01*
X004567Y005643D01*
X004567Y005544D01*
X004665Y005446D01*
X004665Y005741D02*
X004567Y005840D01*
X004567Y005938D01*
X004665Y006036D01*
X004862Y006036D01*
X004961Y005938D01*
X004961Y005840D01*
X004862Y005741D01*
X005211Y005544D02*
X005310Y005446D01*
X005507Y005446D01*
X005605Y005544D01*
X005211Y005938D01*
X005211Y005544D01*
X005605Y005544D02*
X005605Y005938D01*
X005507Y006036D01*
X005310Y006036D01*
X005211Y005938D01*
X005856Y005938D02*
X005856Y005544D01*
X005954Y005446D01*
X006151Y005446D01*
X006250Y005544D01*
X005856Y005938D01*
X005954Y006036D01*
X006151Y006036D01*
X006250Y005938D01*
X006250Y005544D01*
X006500Y005446D02*
X006894Y005446D01*
X006500Y005840D01*
X006500Y005938D01*
X006599Y006036D01*
X006796Y006036D01*
X006894Y005938D01*
X007789Y005938D02*
X007789Y005544D01*
X007888Y005446D01*
X008085Y005446D01*
X008183Y005544D01*
X007789Y005938D01*
X007888Y006036D01*
X008085Y006036D01*
X008183Y005938D01*
X008183Y005544D01*
X008434Y005840D02*
X008631Y005446D01*
X008828Y005840D01*
X009079Y005741D02*
X009079Y005643D01*
X009472Y005643D01*
X009472Y005741D02*
X009472Y005544D01*
X009374Y005446D01*
X009177Y005446D01*
X009079Y005741D02*
X009177Y005840D01*
X009374Y005840D01*
X009472Y005741D01*
X009714Y005840D02*
X009812Y005840D01*
X010009Y005643D01*
X010009Y005446D02*
X010009Y005840D01*
X010905Y005741D02*
X010905Y005643D01*
X011298Y005643D01*
X011298Y005741D02*
X011298Y005544D01*
X011200Y005446D01*
X011003Y005446D01*
X010905Y005741D02*
X011003Y005840D01*
X011200Y005840D01*
X011298Y005741D01*
X011531Y005840D02*
X011728Y005840D01*
X011630Y005938D02*
X011630Y005544D01*
X011531Y005446D01*
X011979Y005544D02*
X011979Y005741D01*
X012077Y005840D01*
X012274Y005840D01*
X012373Y005741D01*
X012373Y005544D01*
X012274Y005446D01*
X012077Y005446D01*
X011979Y005544D01*
X012623Y005446D02*
X012623Y005741D01*
X012722Y005840D01*
X012820Y005741D01*
X012820Y005446D01*
X013017Y005446D02*
X013017Y005840D01*
X012919Y005840D01*
X012820Y005741D01*
X013268Y005741D02*
X013268Y005643D01*
X013662Y005643D01*
X013662Y005741D02*
X013662Y005544D01*
X013563Y005446D01*
X013366Y005446D01*
X013268Y005741D02*
X013366Y005840D01*
X013563Y005840D01*
X013662Y005741D01*
X013903Y005840D02*
X014002Y005840D01*
X014199Y005643D01*
X014199Y005446D02*
X014199Y005840D01*
X011699Y007044D02*
X011699Y007241D01*
X011600Y007340D01*
X011403Y007340D01*
X011305Y007241D01*
X011305Y007044D01*
X011403Y006946D01*
X011600Y006946D01*
X011699Y007044D01*
X011054Y006946D02*
X011054Y007340D01*
X011054Y007143D02*
X010857Y007340D01*
X010759Y007340D01*
X010517Y007340D02*
X010222Y007340D01*
X010123Y007241D01*
X010123Y007044D01*
X010222Y006946D01*
X010517Y006946D01*
X010517Y007536D01*
X009873Y007241D02*
X009774Y007143D01*
X009577Y007143D01*
X009479Y007044D01*
X009577Y006946D01*
X009873Y006946D01*
X009873Y007241D02*
X009774Y007340D01*
X009479Y007340D01*
X009228Y007340D02*
X009228Y007044D01*
X009130Y006946D01*
X009031Y007044D01*
X008933Y006946D01*
X008834Y007044D01*
X008834Y007340D01*
X008485Y007340D02*
X008288Y007340D01*
X008190Y007241D01*
X008190Y006946D01*
X008485Y006946D01*
X008584Y007044D01*
X008485Y007143D01*
X008190Y007143D01*
X007939Y007143D02*
X007742Y007340D01*
X007644Y007340D01*
X007402Y007340D02*
X007304Y007340D01*
X007205Y007241D01*
X007107Y007340D01*
X007008Y007241D01*
X007008Y006946D01*
X007205Y006946D02*
X007205Y007241D01*
X007402Y007340D02*
X007402Y006946D01*
X007939Y006946D02*
X007939Y007340D01*
X006757Y007044D02*
X006757Y006946D01*
X006659Y006946D01*
X006659Y007044D01*
X006757Y007044D01*
X006435Y007044D02*
X006337Y006946D01*
X006041Y006946D01*
X005791Y007044D02*
X005692Y006946D01*
X005495Y006946D01*
X005397Y007044D01*
X005397Y007241D01*
X005495Y007340D01*
X005692Y007340D01*
X005791Y007241D01*
X005791Y007044D01*
X006041Y007340D02*
X006337Y007340D01*
X006435Y007241D01*
X006435Y007044D01*
X005146Y006946D02*
X005146Y007340D01*
X005048Y007340D01*
X004949Y007241D01*
X004851Y007340D01*
X004752Y007241D01*
X004752Y006946D01*
X004949Y006946D02*
X004949Y007241D01*
D11*
X006710Y011472D03*
X007498Y011472D03*
X008285Y011472D03*
X009073Y011472D03*
X009860Y011472D03*
X010647Y011472D03*
X011435Y011472D03*
X012222Y011472D03*
X013010Y011472D03*
X013797Y011472D03*
X013797Y002810D03*
X013010Y002810D03*
X012222Y002810D03*
X011435Y002810D03*
X010647Y002810D03*
X009860Y002810D03*
X009073Y002810D03*
X008285Y002810D03*
X007498Y002810D03*
X006710Y002810D03*
D12*
X018004Y007891D03*
X018004Y009141D03*
X027254Y011641D03*
D13*
X026254Y011641D03*
X025254Y011641D03*
X025254Y010641D03*
X026254Y010641D03*
X027254Y010641D03*
X020004Y010141D03*
X019004Y010141D03*
X018004Y010141D03*
X019004Y009141D03*
X020004Y009141D03*
X019004Y007891D03*
X019004Y006891D03*
X018004Y006891D03*
X018004Y005891D03*
X019004Y005891D03*
X003504Y007391D03*
X002504Y007391D03*
X002504Y008391D03*
X003504Y008391D03*
X003504Y009391D03*
X002504Y009391D03*
X002504Y010391D03*
X003504Y010391D03*
X003504Y011391D03*
X002504Y011391D03*
D14*
X030754Y004641D03*
X030754Y003641D03*
D15*
X030504Y002391D03*
X029504Y002391D03*
X005004Y002641D03*
X004004Y002641D03*
D16*
X016004Y011641D03*
X017004Y011641D03*
X018004Y011641D03*
X019004Y011641D03*
X020754Y011641D03*
X021754Y011641D03*
X022754Y011641D03*
X023754Y011641D03*
X021504Y004391D03*
X020504Y004391D03*
X019504Y004391D03*
X018504Y004391D03*
D17*
X015504Y004391D03*
X015504Y003391D03*
X005504Y011641D03*
X002754Y002391D03*
D18*
X002234Y001871D02*
X002234Y006982D01*
X002305Y006911D01*
X002702Y006911D01*
X002984Y007192D01*
X002984Y007590D01*
X002702Y007871D01*
X002305Y007871D01*
X002234Y007800D01*
X002234Y007982D01*
X002305Y007911D01*
X002702Y007911D01*
X002984Y008192D01*
X002984Y008590D01*
X002702Y008871D01*
X002305Y008871D01*
X002234Y008800D01*
X002234Y008982D01*
X002305Y008911D01*
X002702Y008911D01*
X002984Y009192D01*
X002984Y009590D01*
X002702Y009871D01*
X002305Y009871D01*
X002234Y009800D01*
X002234Y009982D01*
X002305Y009911D01*
X002702Y009911D01*
X002984Y010192D01*
X002984Y010590D01*
X002702Y010871D01*
X002305Y010871D01*
X002234Y010800D01*
X002234Y010982D01*
X002305Y010911D01*
X002702Y010911D01*
X002984Y011192D01*
X002984Y011590D01*
X002702Y011871D01*
X002305Y011871D01*
X002234Y011800D01*
X002234Y012411D01*
X015795Y012411D01*
X015524Y012140D01*
X015524Y011661D01*
X015983Y011661D01*
X015983Y011621D01*
X015524Y011621D01*
X015524Y011142D01*
X015805Y010861D01*
X015984Y010861D01*
X015984Y011621D01*
X016024Y011621D01*
X016024Y011661D01*
X016484Y011661D01*
X016484Y012140D01*
X016212Y012411D01*
X016795Y012411D01*
X016524Y012140D01*
X016524Y011142D01*
X016805Y010861D01*
X017202Y010861D01*
X017484Y011142D01*
X017484Y012140D01*
X017212Y012411D01*
X017795Y012411D01*
X017524Y012140D01*
X017524Y011661D01*
X017983Y011661D01*
X017983Y011621D01*
X017524Y011621D01*
X017524Y011142D01*
X017805Y010861D01*
X017984Y010861D01*
X017984Y011621D01*
X018024Y011621D01*
X018024Y011661D01*
X018484Y011661D01*
X018484Y012140D01*
X018212Y012411D01*
X018795Y012411D01*
X018524Y012140D01*
X018524Y011142D01*
X018805Y010861D01*
X019202Y010861D01*
X019484Y011142D01*
X019484Y012140D01*
X019212Y012411D01*
X020545Y012411D01*
X020274Y012140D01*
X020274Y011661D01*
X020733Y011661D01*
X020733Y011621D01*
X020274Y011621D01*
X020274Y011142D01*
X020555Y010861D01*
X020734Y010861D01*
X020734Y011621D01*
X020774Y011621D01*
X020774Y011661D01*
X021234Y011661D01*
X021234Y012140D01*
X020962Y012411D01*
X021545Y012411D01*
X021274Y012140D01*
X021274Y011142D01*
X021555Y010861D01*
X021952Y010861D01*
X022234Y011142D01*
X022234Y012140D01*
X021962Y012411D01*
X022545Y012411D01*
X022274Y012140D01*
X022274Y011661D01*
X022733Y011661D01*
X022733Y011621D01*
X022274Y011621D01*
X022274Y011142D01*
X022555Y010861D01*
X022734Y010861D01*
X022734Y011621D01*
X022774Y011621D01*
X022774Y011661D01*
X023234Y011661D01*
X023234Y012140D01*
X022962Y012411D01*
X023545Y012411D01*
X023274Y012140D01*
X023274Y011142D01*
X023555Y010861D01*
X023952Y010861D01*
X024234Y011142D01*
X024234Y012140D01*
X023962Y012411D01*
X031524Y012411D01*
X031524Y005932D01*
X031514Y005952D01*
X031514Y005999D01*
X031467Y006045D01*
X031361Y006151D01*
X031146Y006151D01*
X029651Y006151D01*
X029651Y006183D01*
X029546Y006289D01*
X028961Y006289D01*
X028856Y006183D01*
X028856Y005599D01*
X028961Y005493D01*
X029546Y005493D01*
X029651Y005599D01*
X029651Y005631D01*
X031093Y005631D01*
X031244Y005329D01*
X031244Y005081D01*
X031224Y005101D01*
X030764Y005101D01*
X030764Y004651D01*
X030744Y004651D01*
X030744Y005101D01*
X030283Y005101D01*
X030014Y004831D01*
X030014Y004651D01*
X030743Y004651D01*
X030743Y004631D01*
X030014Y004631D01*
X030014Y004450D01*
X030283Y004181D01*
X030744Y004181D01*
X030744Y004631D01*
X030764Y004631D01*
X030764Y004181D01*
X031224Y004181D01*
X031244Y004200D01*
X031244Y004081D01*
X031224Y004101D01*
X031015Y004101D01*
X030965Y004151D01*
X030739Y004151D01*
X030492Y004136D01*
X028967Y004149D01*
X028965Y004151D01*
X028756Y004151D01*
X028542Y004151D01*
X028244Y003852D01*
X028244Y003761D01*
X027689Y002651D01*
X023514Y002651D01*
X023514Y004569D01*
X024153Y005634D01*
X025746Y005672D01*
X025746Y005649D01*
X025851Y005543D01*
X026436Y005543D01*
X026541Y005649D01*
X026541Y006233D01*
X026436Y006339D01*
X025851Y006339D01*
X025746Y006233D01*
X025746Y006192D01*
X024001Y006151D01*
X023896Y006151D01*
X023797Y006052D01*
X023744Y005999D01*
X023744Y005963D01*
X023047Y004802D01*
X022994Y004749D01*
X022994Y004713D01*
X022994Y004533D01*
X022994Y002651D01*
X014204Y002651D01*
X014234Y002723D01*
X014234Y002810D01*
X013797Y002810D01*
X013797Y002810D01*
X014234Y002810D01*
X014234Y002897D01*
X014168Y003058D01*
X014045Y003181D01*
X013884Y003248D01*
X013797Y003248D01*
X013797Y002811D01*
X013797Y002811D01*
X013797Y003248D01*
X013710Y003248D01*
X013549Y003181D01*
X013426Y003058D01*
X013403Y003003D01*
X013380Y003058D01*
X013257Y003181D01*
X013097Y003248D01*
X012923Y003248D01*
X012762Y003181D01*
X012639Y003058D01*
X012616Y003003D01*
X012593Y003058D01*
X012470Y003181D01*
X012309Y003248D01*
X012135Y003248D01*
X011974Y003181D01*
X011851Y003058D01*
X011828Y003003D01*
X011806Y003058D01*
X011683Y003181D01*
X011522Y003248D01*
X011348Y003248D01*
X011187Y003181D01*
X011064Y003058D01*
X011041Y003003D01*
X011018Y003058D01*
X010895Y003181D01*
X010734Y003248D01*
X010560Y003248D01*
X010400Y003181D01*
X010277Y003058D01*
X010254Y003003D01*
X010231Y003058D01*
X010108Y003181D01*
X009947Y003248D01*
X009773Y003248D01*
X009612Y003181D01*
X009489Y003058D01*
X009466Y003003D01*
X009443Y003058D01*
X009320Y003181D01*
X009160Y003248D01*
X008986Y003248D01*
X008825Y003181D01*
X008702Y003058D01*
X008679Y003003D01*
X008656Y003058D01*
X008533Y003181D01*
X008372Y003248D01*
X008198Y003248D01*
X008037Y003181D01*
X007914Y003058D01*
X007891Y003003D01*
X007869Y003058D01*
X007746Y003181D01*
X007585Y003248D01*
X007411Y003248D01*
X007250Y003181D01*
X007127Y003058D01*
X007104Y003003D01*
X007081Y003058D01*
X006958Y003181D01*
X006797Y003248D01*
X006623Y003248D01*
X006463Y003181D01*
X006340Y003058D01*
X006273Y002897D01*
X006273Y002723D01*
X006303Y002651D01*
X005908Y002651D01*
X005464Y002947D01*
X005464Y003111D01*
X005194Y003381D01*
X004813Y003381D01*
X004544Y003111D01*
X004544Y002902D01*
X004494Y002852D01*
X004494Y002430D01*
X004544Y002380D01*
X004544Y002170D01*
X004813Y001901D01*
X005194Y001901D01*
X005194Y001901D01*
X005239Y001871D01*
X002234Y001871D01*
X002234Y002025D02*
X002469Y002025D01*
X002493Y002001D02*
X002662Y001931D01*
X002753Y001931D01*
X002753Y002390D01*
X002754Y002390D01*
X002754Y001931D01*
X002845Y001931D01*
X003014Y002001D01*
X003144Y002130D01*
X003214Y002299D01*
X003214Y002391D01*
X003214Y002482D01*
X003144Y002651D01*
X003014Y002781D01*
X002845Y002851D01*
X002754Y002851D01*
X002754Y002391D01*
X003214Y002391D01*
X002754Y002391D01*
X002754Y002391D01*
X002753Y002391D01*
X002753Y002391D01*
X002294Y002391D01*
X002294Y002482D01*
X002364Y002651D01*
X002493Y002781D01*
X002662Y002851D01*
X002753Y002851D01*
X002753Y002391D01*
X002294Y002391D01*
X002294Y002299D01*
X002364Y002130D01*
X002493Y002001D01*
X002342Y002184D02*
X002234Y002184D01*
X002234Y002342D02*
X002294Y002342D01*
X002301Y002501D02*
X002234Y002501D01*
X002234Y002659D02*
X002372Y002659D01*
X002234Y002818D02*
X002582Y002818D01*
X002753Y002818D02*
X002754Y002818D01*
X002753Y002659D02*
X002754Y002659D01*
X002753Y002501D02*
X002754Y002501D01*
X002753Y002342D02*
X002754Y002342D01*
X002753Y002184D02*
X002754Y002184D01*
X002753Y002025D02*
X002754Y002025D01*
X003038Y002025D02*
X003689Y002025D01*
X003813Y001901D02*
X003994Y001901D01*
X003994Y002631D01*
X004014Y002631D01*
X004014Y002651D01*
X004464Y002651D01*
X004464Y003111D01*
X004194Y003381D01*
X004014Y003381D01*
X004014Y002651D01*
X003994Y002651D01*
X003994Y003381D01*
X003813Y003381D01*
X003544Y003111D01*
X003544Y002651D01*
X003993Y002651D01*
X003993Y002631D01*
X003544Y002631D01*
X003544Y002170D01*
X003813Y001901D01*
X004014Y001901D02*
X004194Y001901D01*
X004464Y002170D01*
X004464Y002631D01*
X004014Y002631D01*
X004014Y001901D01*
X004014Y002025D02*
X003994Y002025D01*
X003994Y002184D02*
X004014Y002184D01*
X004014Y002342D02*
X003994Y002342D01*
X003994Y002501D02*
X004014Y002501D01*
X004014Y002659D02*
X003994Y002659D01*
X003994Y002818D02*
X004014Y002818D01*
X004014Y002976D02*
X003994Y002976D01*
X003994Y003135D02*
X004014Y003135D01*
X004014Y003293D02*
X003994Y003293D01*
X003726Y003293D02*
X002234Y003293D01*
X002234Y003135D02*
X003567Y003135D01*
X003544Y002976D02*
X002234Y002976D01*
X002234Y003452D02*
X015044Y003452D01*
X015044Y003482D02*
X015114Y003651D01*
X015243Y003781D01*
X015412Y003851D01*
X015595Y003851D01*
X015764Y003781D01*
X015894Y003651D01*
X015964Y003482D01*
X015964Y003299D01*
X015894Y003130D01*
X015764Y003001D01*
X015595Y002931D01*
X015412Y002931D01*
X015243Y003001D01*
X015114Y003130D01*
X015044Y003299D01*
X015044Y003482D01*
X015097Y003610D02*
X002234Y003610D01*
X002234Y003769D02*
X015231Y003769D01*
X015243Y004001D02*
X015412Y003931D01*
X015595Y003931D01*
X015764Y004001D01*
X015894Y004130D01*
X015964Y004299D01*
X015964Y004482D01*
X015894Y004651D01*
X015764Y004781D01*
X015764Y004781D01*
X015764Y008016D01*
X016845Y008881D01*
X017592Y008881D01*
X017597Y008869D01*
X017665Y008801D01*
X016896Y008801D01*
X016744Y008649D01*
X016494Y008399D01*
X016494Y008183D01*
X016494Y007789D01*
X016461Y007789D01*
X016356Y007683D01*
X016356Y007099D01*
X016461Y006993D01*
X017046Y006993D01*
X017151Y007099D01*
X017151Y007683D01*
X017046Y007789D01*
X017014Y007789D01*
X017014Y008183D01*
X017111Y008281D01*
X017715Y008281D01*
X017597Y008163D01*
X017524Y007986D01*
X017524Y007795D01*
X017597Y007619D01*
X017732Y007484D01*
X017908Y007411D01*
X018099Y007411D01*
X018276Y007484D01*
X018411Y007619D01*
X018484Y007795D01*
X018484Y007986D01*
X018411Y008163D01*
X018292Y008281D01*
X018715Y008281D01*
X018524Y008090D01*
X018524Y007692D01*
X018805Y007411D01*
X019202Y007411D01*
X019484Y007692D01*
X019484Y008090D01*
X019292Y008281D01*
X019861Y008281D01*
X020014Y008433D01*
X020014Y008489D01*
X020085Y008661D01*
X020202Y008661D01*
X020484Y008942D01*
X020484Y009340D01*
X020202Y009621D01*
X019805Y009621D01*
X019524Y009340D01*
X019524Y008942D01*
X019605Y008861D01*
X019580Y008801D01*
X019342Y008801D01*
X019484Y008942D01*
X019484Y009340D01*
X019202Y009621D01*
X018805Y009621D01*
X018524Y009340D01*
X018524Y008942D01*
X018665Y008801D01*
X018342Y008801D01*
X018411Y008869D01*
X018484Y009045D01*
X018484Y009236D01*
X018411Y009413D01*
X018276Y009548D01*
X018099Y009621D01*
X017908Y009621D01*
X017732Y009548D01*
X017597Y009413D01*
X017592Y009401D01*
X016861Y009401D01*
X016662Y009401D01*
X016646Y009401D01*
X016580Y009335D01*
X015413Y008401D01*
X015396Y008401D01*
X015244Y008249D01*
X015244Y004781D01*
X015243Y004781D01*
X015114Y004651D01*
X015044Y004482D01*
X015044Y004299D01*
X015114Y004130D01*
X015243Y004001D01*
X015158Y004086D02*
X002234Y004086D01*
X002234Y003928D02*
X018024Y003928D01*
X018024Y003892D02*
X018305Y003611D01*
X018702Y003611D01*
X018984Y003892D01*
X018984Y004890D01*
X018702Y005171D01*
X018305Y005171D01*
X018024Y004890D01*
X018024Y003892D01*
X018147Y003769D02*
X015776Y003769D01*
X015911Y003610D02*
X022994Y003610D01*
X022994Y003452D02*
X015964Y003452D01*
X015961Y003293D02*
X022994Y003293D01*
X022994Y003135D02*
X015896Y003135D01*
X015705Y002976D02*
X022994Y002976D01*
X022994Y002818D02*
X014234Y002818D01*
X014208Y002659D02*
X022994Y002659D01*
X023514Y002659D02*
X027693Y002659D01*
X027772Y002818D02*
X023514Y002818D01*
X023514Y002976D02*
X027851Y002976D01*
X027931Y003135D02*
X025651Y003135D01*
X025651Y003099D02*
X025651Y003683D01*
X025546Y003789D01*
X025331Y003789D01*
X025331Y004293D01*
X025226Y004399D01*
X024641Y004399D01*
X024536Y004293D01*
X024536Y004289D01*
X023961Y004289D01*
X023856Y004183D01*
X023856Y003599D01*
X023961Y003493D01*
X024546Y003493D01*
X024651Y003599D01*
X024651Y003603D01*
X024856Y003603D01*
X024856Y003099D01*
X024961Y002993D01*
X025546Y002993D01*
X025651Y003099D01*
X025651Y003293D02*
X028010Y003293D01*
X028089Y003452D02*
X025651Y003452D01*
X025651Y003610D02*
X028168Y003610D01*
X028244Y003769D02*
X025566Y003769D01*
X025331Y003928D02*
X028319Y003928D01*
X028478Y004086D02*
X025331Y004086D01*
X025331Y004245D02*
X030219Y004245D01*
X030061Y004403D02*
X023514Y004403D01*
X023514Y004245D02*
X023917Y004245D01*
X023856Y004086D02*
X023514Y004086D01*
X023514Y003928D02*
X023856Y003928D01*
X023856Y003769D02*
X023514Y003769D01*
X023514Y003610D02*
X023856Y003610D01*
X023514Y003452D02*
X024856Y003452D01*
X024856Y003293D02*
X023514Y003293D01*
X023514Y003135D02*
X024856Y003135D01*
X023254Y002141D02*
X023254Y004641D01*
X024004Y005891D01*
X026144Y005941D01*
X026541Y005989D02*
X027744Y005989D01*
X027744Y006147D02*
X026541Y006147D01*
X026469Y006306D02*
X027744Y006306D01*
X027744Y006464D02*
X019256Y006464D01*
X019202Y006411D02*
X019484Y006692D01*
X019484Y007090D01*
X019202Y007371D01*
X018805Y007371D01*
X018524Y007090D01*
X018524Y006692D01*
X018805Y006411D01*
X019202Y006411D01*
X019202Y006371D02*
X018805Y006371D01*
X018524Y006090D01*
X018524Y005692D01*
X018805Y005411D01*
X019202Y005411D01*
X019484Y005692D01*
X019484Y006090D01*
X019202Y006371D01*
X019268Y006306D02*
X025818Y006306D01*
X026541Y005830D02*
X027744Y005830D01*
X027744Y005672D02*
X026541Y005672D01*
X027051Y005259D02*
X026946Y005153D01*
X026946Y004569D01*
X027051Y004463D01*
X027636Y004463D01*
X027741Y004569D01*
X027741Y004847D01*
X028095Y005131D01*
X028111Y005131D01*
X028264Y005283D01*
X028264Y011499D01*
X028200Y011562D01*
X028144Y011618D01*
X028111Y011651D01*
X028046Y011651D01*
X027725Y011758D01*
X027661Y011913D01*
X027526Y012048D01*
X027349Y012121D01*
X027158Y012121D01*
X026982Y012048D01*
X026847Y011913D01*
X026774Y011736D01*
X026774Y011545D01*
X026847Y011369D01*
X026982Y011234D01*
X027158Y011161D01*
X027349Y011161D01*
X027526Y011234D01*
X027557Y011266D01*
X027744Y011203D01*
X027744Y005516D01*
X027424Y005259D01*
X027051Y005259D01*
X026989Y005196D02*
X023890Y005196D01*
X023985Y005354D02*
X027543Y005354D01*
X027741Y005513D02*
X024080Y005513D01*
X023664Y005830D02*
X019484Y005830D01*
X019484Y005989D02*
X023744Y005989D01*
X023797Y006052D02*
X023797Y006052D01*
X023892Y006147D02*
X019426Y006147D01*
X019414Y006623D02*
X027744Y006623D01*
X027744Y006781D02*
X019484Y006781D01*
X019484Y006940D02*
X027744Y006940D01*
X027744Y007098D02*
X019475Y007098D01*
X019316Y007257D02*
X027744Y007257D01*
X027744Y007416D02*
X019207Y007416D01*
X019366Y007574D02*
X027744Y007574D01*
X027744Y007733D02*
X019484Y007733D01*
X019484Y007891D02*
X027744Y007891D01*
X027744Y008050D02*
X019484Y008050D01*
X019365Y008208D02*
X027744Y008208D01*
X027744Y008367D02*
X019947Y008367D01*
X020029Y008525D02*
X027744Y008525D01*
X027744Y008684D02*
X020225Y008684D01*
X020384Y008842D02*
X027744Y008842D01*
X027744Y009001D02*
X020484Y009001D01*
X020484Y009159D02*
X027744Y009159D01*
X027744Y009318D02*
X020484Y009318D01*
X020347Y009477D02*
X027744Y009477D01*
X027744Y009635D02*
X003938Y009635D01*
X003984Y009590D02*
X003702Y009871D01*
X003305Y009871D01*
X003024Y009590D01*
X003024Y009192D01*
X003305Y008911D01*
X003702Y008911D01*
X003984Y009192D01*
X003984Y009590D01*
X003984Y009477D02*
X017661Y009477D01*
X017805Y009661D02*
X018202Y009661D01*
X018484Y009942D01*
X018484Y010340D01*
X018202Y010621D01*
X017805Y010621D01*
X017524Y010340D01*
X017524Y009942D01*
X017805Y009661D01*
X017672Y009794D02*
X006347Y009794D01*
X006354Y009801D02*
X009509Y009801D01*
X009613Y009801D01*
X009819Y009801D01*
X009894Y009801D01*
X009945Y009851D01*
X011069Y010301D01*
X011144Y010301D01*
X011282Y010438D01*
X011344Y010500D01*
X011344Y010559D01*
X011604Y011068D01*
X011683Y011101D01*
X011806Y011224D01*
X011829Y011279D01*
X011851Y011224D01*
X011974Y011101D01*
X012135Y011034D01*
X012309Y011034D01*
X012470Y011101D01*
X012593Y011224D01*
X012616Y011279D01*
X012639Y011224D01*
X012762Y011101D01*
X012923Y011034D01*
X013097Y011034D01*
X013257Y011101D01*
X013380Y011224D01*
X013403Y011279D01*
X013426Y011224D01*
X013549Y011101D01*
X013710Y011034D01*
X013884Y011034D01*
X014045Y011101D01*
X014168Y011224D01*
X014234Y011385D01*
X014234Y011559D01*
X014168Y011719D01*
X014045Y011842D01*
X013884Y011909D01*
X013710Y011909D01*
X013549Y011842D01*
X013426Y011719D01*
X013403Y011664D01*
X013380Y011719D01*
X013257Y011842D01*
X013097Y011909D01*
X012923Y011909D01*
X012762Y011842D01*
X012639Y011719D01*
X012616Y011664D01*
X012593Y011719D01*
X012470Y011842D01*
X012309Y011909D01*
X012135Y011909D01*
X011974Y011842D01*
X011851Y011719D01*
X011829Y011664D01*
X011806Y011719D01*
X011683Y011842D01*
X011615Y011870D01*
X011604Y011881D01*
X011590Y011881D01*
X011522Y011909D01*
X011348Y011909D01*
X011187Y011842D01*
X011064Y011719D01*
X011041Y011664D01*
X011018Y011719D01*
X010895Y011842D01*
X010734Y011909D01*
X010560Y011909D01*
X010400Y011842D01*
X010277Y011719D01*
X010254Y011664D01*
X010231Y011719D01*
X010108Y011842D01*
X009947Y011909D01*
X009773Y011909D01*
X009612Y011842D01*
X009489Y011719D01*
X009466Y011664D01*
X009443Y011719D01*
X009320Y011842D01*
X009160Y011909D01*
X008986Y011909D01*
X008825Y011842D01*
X008702Y011719D01*
X008679Y011664D01*
X008656Y011719D01*
X008533Y011842D01*
X008372Y011909D01*
X008198Y011909D01*
X008037Y011842D01*
X007914Y011719D01*
X007891Y011664D01*
X007869Y011719D01*
X007746Y011842D01*
X007585Y011909D01*
X007411Y011909D01*
X007250Y011842D01*
X007127Y011719D01*
X007104Y011664D01*
X007081Y011719D01*
X006958Y011842D01*
X006797Y011909D01*
X006623Y011909D01*
X006463Y011842D01*
X006340Y011719D01*
X006273Y011559D01*
X006273Y011385D01*
X006340Y011224D01*
X006463Y011101D01*
X006623Y011034D01*
X006797Y011034D01*
X006958Y011101D01*
X007081Y011224D01*
X007104Y011279D01*
X007127Y011224D01*
X007250Y011101D01*
X007411Y011034D01*
X007585Y011034D01*
X007746Y011101D01*
X007869Y011224D01*
X007891Y011279D01*
X007914Y011224D01*
X008037Y011101D01*
X008198Y011034D01*
X008372Y011034D01*
X008533Y011101D01*
X008656Y011224D01*
X008679Y011279D01*
X008702Y011224D01*
X008825Y011101D01*
X008986Y011034D01*
X009160Y011034D01*
X009320Y011101D01*
X009443Y011224D01*
X009466Y011279D01*
X009489Y011224D01*
X009612Y011101D01*
X009773Y011034D01*
X009947Y011034D01*
X010108Y011101D01*
X010231Y011224D01*
X010254Y011279D01*
X010277Y011224D01*
X010400Y011101D01*
X010560Y011034D01*
X010734Y011034D01*
X010847Y011081D01*
X010759Y010909D01*
X009824Y010535D01*
X009774Y010535D01*
X009713Y010535D01*
X009640Y010535D01*
X009588Y010483D01*
X009583Y010481D01*
X006354Y010481D01*
X006296Y010539D01*
X006229Y010539D01*
X005924Y011454D01*
X005964Y011549D01*
X005964Y011732D01*
X005894Y011901D01*
X005764Y012031D01*
X005595Y012101D01*
X005412Y012101D01*
X005243Y012031D01*
X005114Y011901D01*
X005044Y011732D01*
X005044Y011549D01*
X005114Y011380D01*
X005243Y011251D01*
X005280Y011235D01*
X005606Y010259D01*
X005606Y009849D01*
X005711Y009743D01*
X006296Y009743D01*
X006354Y009801D01*
X005661Y009794D02*
X003780Y009794D01*
X003702Y009911D02*
X003305Y009911D01*
X003024Y010192D01*
X003024Y010590D01*
X003305Y010871D01*
X003702Y010871D01*
X003984Y010590D01*
X003984Y010192D01*
X003702Y009911D01*
X003744Y009952D02*
X005606Y009952D01*
X005606Y010111D02*
X003902Y010111D01*
X003984Y010269D02*
X005602Y010269D01*
X005550Y010428D02*
X003984Y010428D01*
X003984Y010586D02*
X005497Y010586D01*
X005444Y010745D02*
X003828Y010745D01*
X003702Y010911D02*
X003524Y010911D01*
X003524Y011371D01*
X003524Y011411D01*
X003984Y011411D01*
X003984Y011590D01*
X003702Y011871D01*
X003524Y011871D01*
X003524Y011411D01*
X003484Y011411D01*
X003484Y011871D01*
X003305Y011871D01*
X003024Y011590D01*
X003024Y011411D01*
X003483Y011411D01*
X003483Y011371D01*
X003024Y011371D01*
X003024Y011192D01*
X003305Y010911D01*
X003484Y010911D01*
X003484Y011371D01*
X003524Y011371D01*
X003984Y011371D01*
X003984Y011192D01*
X003702Y010911D01*
X003854Y011062D02*
X005338Y011062D01*
X005285Y011221D02*
X003984Y011221D01*
X003984Y011538D02*
X005049Y011538D01*
X005044Y011696D02*
X003877Y011696D01*
X003719Y011855D02*
X005094Y011855D01*
X005226Y012013D02*
X002234Y012013D01*
X002234Y011855D02*
X002289Y011855D01*
X002234Y012172D02*
X015556Y012172D01*
X015524Y012013D02*
X005782Y012013D01*
X005913Y011855D02*
X006492Y011855D01*
X006330Y011696D02*
X005964Y011696D01*
X005959Y011538D02*
X006273Y011538D01*
X006275Y011379D02*
X005949Y011379D01*
X006002Y011221D02*
X006343Y011221D01*
X006556Y011062D02*
X006055Y011062D01*
X006108Y010903D02*
X010745Y010903D01*
X010802Y011062D02*
X010837Y011062D01*
X010493Y011062D02*
X010014Y011062D01*
X010228Y011221D02*
X010280Y011221D01*
X010267Y011696D02*
X010240Y011696D01*
X010078Y011855D02*
X010429Y011855D01*
X010865Y011855D02*
X011217Y011855D01*
X011054Y011696D02*
X011028Y011696D01*
X011653Y011855D02*
X012004Y011855D01*
X011842Y011696D02*
X011815Y011696D01*
X011802Y011221D02*
X011855Y011221D01*
X012068Y011062D02*
X011601Y011062D01*
X011520Y010903D02*
X015762Y010903D01*
X015984Y010903D02*
X016024Y010903D01*
X016024Y010861D02*
X016202Y010861D01*
X016484Y011142D01*
X016484Y011621D01*
X016024Y011621D01*
X016024Y010861D01*
X016024Y011062D02*
X015984Y011062D01*
X015984Y011221D02*
X016024Y011221D01*
X016024Y011379D02*
X015984Y011379D01*
X015984Y011538D02*
X016024Y011538D01*
X016484Y011538D02*
X016524Y011538D01*
X016524Y011696D02*
X016484Y011696D01*
X016484Y011855D02*
X016524Y011855D01*
X016524Y012013D02*
X016484Y012013D01*
X016451Y012172D02*
X016556Y012172D01*
X016714Y012330D02*
X016293Y012330D01*
X015714Y012330D02*
X002234Y012330D01*
X002719Y011855D02*
X003289Y011855D01*
X003484Y011855D02*
X003524Y011855D01*
X003524Y011696D02*
X003484Y011696D01*
X003484Y011538D02*
X003524Y011538D01*
X003524Y011379D02*
X005115Y011379D01*
X005391Y010903D02*
X002234Y010903D01*
X002828Y010745D02*
X003179Y010745D01*
X003024Y010586D02*
X002984Y010586D01*
X002984Y010428D02*
X003024Y010428D01*
X003024Y010269D02*
X002984Y010269D01*
X002902Y010111D02*
X003105Y010111D01*
X003264Y009952D02*
X002744Y009952D01*
X002780Y009794D02*
X003228Y009794D01*
X003069Y009635D02*
X002938Y009635D01*
X002984Y009477D02*
X003024Y009477D01*
X003024Y009318D02*
X002984Y009318D01*
X002951Y009159D02*
X003056Y009159D01*
X003215Y009001D02*
X002793Y009001D01*
X002731Y008842D02*
X003276Y008842D01*
X003305Y008871D02*
X003024Y008590D01*
X003024Y008192D01*
X003305Y007911D01*
X003702Y007911D01*
X003984Y008192D01*
X003984Y008590D01*
X003702Y008871D01*
X003305Y008871D01*
X003118Y008684D02*
X002889Y008684D01*
X002984Y008525D02*
X003024Y008525D01*
X003024Y008367D02*
X002984Y008367D01*
X002984Y008208D02*
X003024Y008208D01*
X003166Y008050D02*
X002841Y008050D01*
X002841Y007733D02*
X003167Y007733D01*
X003305Y007871D02*
X003024Y007590D01*
X003024Y007192D01*
X003305Y006911D01*
X003702Y006911D01*
X003984Y007192D01*
X003984Y007590D01*
X003702Y007871D01*
X003305Y007871D01*
X003841Y007733D02*
X010381Y007733D01*
X010420Y007771D02*
X010282Y007634D01*
X010282Y007574D01*
X010124Y007574D01*
X009872Y007574D01*
X009871Y007574D02*
X009382Y007574D01*
X009353Y007546D01*
X009325Y007574D01*
X009131Y007574D01*
X009031Y007475D01*
X008932Y007574D01*
X009130Y007574D01*
X009326Y007574D02*
X009381Y007574D01*
X008932Y007574D02*
X008737Y007574D01*
X008583Y007574D01*
X008582Y007574D02*
X008386Y007574D01*
X008191Y007574D01*
X008114Y007497D01*
X008036Y007574D01*
X007842Y007574D01*
X007841Y007573D01*
X007839Y007574D01*
X007546Y007574D01*
X007500Y007574D01*
X007499Y007574D02*
X007401Y007574D01*
X007206Y007574D01*
X007204Y007574D01*
X007009Y007574D01*
X006434Y007574D01*
X006239Y007574D01*
X005944Y007574D01*
X005790Y007574D01*
X005595Y007574D01*
X005398Y007574D01*
X005244Y007574D01*
X005243Y007574D02*
X005145Y007574D01*
X004950Y007574D01*
X004949Y007574D01*
X004949Y007573D02*
X004948Y007574D01*
X004753Y007574D01*
X003984Y007574D01*
X003984Y007416D02*
X004595Y007416D01*
X004616Y007437D02*
X004517Y007338D01*
X004517Y006849D01*
X004655Y006711D01*
X004850Y006711D01*
X004851Y006712D01*
X004852Y006711D01*
X005047Y006711D01*
X005048Y006712D01*
X005049Y006711D01*
X005243Y006711D01*
X005321Y006788D01*
X005398Y006711D01*
X005593Y006711D01*
X005595Y006711D01*
X005790Y006711D01*
X005867Y006788D01*
X005944Y006711D01*
X006434Y006711D01*
X006498Y006775D01*
X006562Y006711D01*
X006855Y006711D01*
X006883Y006739D01*
X006911Y006711D01*
X007106Y006711D01*
X007107Y006712D01*
X007108Y006711D01*
X007302Y006711D01*
X007303Y006712D01*
X007305Y006711D01*
X007499Y006711D01*
X007637Y006849D01*
X007637Y007105D01*
X007645Y007105D01*
X007704Y007045D01*
X007704Y006849D01*
X007842Y006711D01*
X008036Y006711D01*
X008064Y006739D01*
X008092Y006711D01*
X008287Y006711D01*
X008388Y006711D01*
X008582Y006711D01*
X008681Y006809D01*
X008709Y006837D01*
X008737Y006809D01*
X008755Y006792D01*
X008835Y006711D01*
X008835Y006711D01*
X009030Y006711D01*
X009031Y006712D01*
X009032Y006711D01*
X009032Y006711D01*
X009227Y006711D01*
X009353Y006837D01*
X009382Y006809D01*
X009399Y006792D01*
X009480Y006711D01*
X009675Y006711D01*
X009970Y006711D01*
X010047Y006788D01*
X010124Y006711D01*
X010125Y006711D01*
X010319Y006711D01*
X010614Y006711D01*
X010752Y006849D01*
X010752Y007043D01*
X010752Y007105D01*
X010760Y007105D01*
X010819Y007045D01*
X010819Y006849D01*
X010957Y006711D01*
X011151Y006711D01*
X011229Y006788D01*
X011306Y006711D01*
X011306Y006711D01*
X011501Y006711D01*
X011503Y006711D01*
X011698Y006711D01*
X011934Y006947D01*
X011934Y007142D01*
X011934Y007338D01*
X011849Y007423D01*
X011835Y007437D01*
X011769Y007504D01*
X011766Y007506D01*
X011698Y007574D01*
X015244Y007574D01*
X015244Y007416D02*
X011857Y007416D01*
X011835Y007437D02*
X011835Y007437D01*
X011698Y007574D02*
X011503Y007574D01*
X011306Y007574D01*
X011152Y007574D01*
X011151Y007574D02*
X010957Y007574D01*
X010956Y007573D01*
X010955Y007574D01*
X010956Y007574D01*
X010955Y007574D02*
X010752Y007574D01*
X010752Y007634D01*
X010614Y007771D01*
X010420Y007771D01*
X010653Y007733D02*
X015244Y007733D01*
X015244Y007891D02*
X002234Y007891D01*
X002984Y007574D02*
X003024Y007574D01*
X003024Y007416D02*
X002984Y007416D01*
X002984Y007257D02*
X003024Y007257D01*
X003117Y007098D02*
X002890Y007098D01*
X002731Y006940D02*
X003276Y006940D01*
X003731Y006940D02*
X004517Y006940D01*
X004517Y007098D02*
X003890Y007098D01*
X003984Y007257D02*
X004517Y007257D01*
X004616Y007437D02*
X004616Y007437D01*
X004753Y007574D01*
X004949Y007573D02*
X004950Y007574D01*
X005243Y007574D02*
X005321Y007497D01*
X005398Y007574D01*
X005790Y007574D02*
X005858Y007506D01*
X005862Y007502D01*
X005867Y007497D01*
X005944Y007574D01*
X006434Y007574D02*
X006503Y007506D01*
X006506Y007502D01*
X006572Y007437D01*
X006572Y007437D01*
X006586Y007422D01*
X006670Y007338D01*
X006670Y007279D01*
X006756Y007279D01*
X006773Y007279D01*
X006773Y007338D01*
X006911Y007476D01*
X007009Y007574D01*
X007204Y007574D02*
X007205Y007573D01*
X007206Y007574D01*
X007499Y007574D02*
X007523Y007551D01*
X007546Y007574D01*
X007840Y007574D02*
X007841Y007574D01*
X008037Y007574D02*
X008190Y007574D01*
X008582Y007574D02*
X008660Y007497D01*
X008737Y007574D01*
X008737Y006809D02*
X008737Y006809D01*
X008765Y006781D02*
X008653Y006781D01*
X008681Y006809D02*
X008681Y006809D01*
X009297Y006781D02*
X009409Y006781D01*
X009382Y006809D02*
X009382Y006809D01*
X009480Y006711D02*
X009480Y006711D01*
X010040Y006781D02*
X010054Y006781D01*
X010685Y006781D02*
X010886Y006781D01*
X010819Y006940D02*
X010752Y006940D01*
X010752Y007098D02*
X010766Y007098D01*
X011222Y006781D02*
X011236Y006781D01*
X011768Y006781D02*
X015244Y006781D01*
X015244Y006623D02*
X002234Y006623D01*
X002234Y006781D02*
X004585Y006781D01*
X005314Y006781D02*
X005328Y006781D01*
X005398Y006711D02*
X005398Y006711D01*
X005407Y006271D02*
X005212Y006271D01*
X005130Y006189D01*
X005114Y006173D01*
X005086Y006145D01*
X005058Y006173D01*
X005058Y006173D01*
X004959Y006271D01*
X004763Y006271D01*
X004568Y006271D01*
X004486Y006190D01*
X004470Y006173D01*
X004469Y006173D01*
X004401Y006104D01*
X004384Y006088D01*
X004332Y006035D01*
X004332Y005937D01*
X004332Y005742D01*
X004333Y005741D01*
X004332Y005740D01*
X004332Y005642D01*
X004332Y005447D01*
X004401Y005378D01*
X004404Y005375D01*
X004469Y005309D01*
X004470Y005309D01*
X004484Y005295D01*
X004568Y005211D01*
X004765Y005211D01*
X004959Y005211D01*
X005058Y005309D01*
X005086Y005337D01*
X005114Y005309D01*
X005128Y005295D01*
X005212Y005211D01*
X005409Y005211D01*
X005604Y005211D01*
X005702Y005309D01*
X005730Y005337D01*
X005759Y005309D01*
X005772Y005296D01*
X005857Y005211D01*
X006054Y005211D01*
X006249Y005211D01*
X006326Y005288D01*
X006403Y005211D01*
X006797Y005211D01*
X006991Y005211D01*
X007129Y005349D01*
X007129Y005543D01*
X006969Y005703D01*
X006991Y005703D01*
X007129Y005841D01*
X007129Y006035D01*
X006893Y006271D01*
X006698Y006271D01*
X006501Y006271D01*
X006418Y006188D01*
X006403Y006173D01*
X006375Y006145D01*
X006249Y006271D01*
X006052Y006271D01*
X005857Y006271D01*
X005776Y006191D01*
X005759Y006173D01*
X005759Y006173D01*
X005730Y006145D01*
X005604Y006271D01*
X005407Y006271D01*
X005212Y006271D02*
X005212Y006271D01*
X005114Y006173D02*
X005114Y006173D01*
X005088Y006147D02*
X005084Y006147D01*
X004568Y006271D02*
X004568Y006271D01*
X004444Y006147D02*
X002234Y006147D01*
X002234Y005989D02*
X004332Y005989D01*
X004401Y006104D02*
X004401Y006104D01*
X004332Y005830D02*
X002234Y005830D01*
X002234Y005672D02*
X004332Y005672D01*
X004332Y005513D02*
X002234Y005513D01*
X002234Y005354D02*
X004424Y005354D01*
X005114Y005309D02*
X005114Y005309D01*
X005759Y005309D02*
X005759Y005309D01*
X005728Y006147D02*
X005733Y006147D01*
X005857Y006271D02*
X005857Y006271D01*
X006373Y006147D02*
X006377Y006147D01*
X006403Y006173D02*
X006403Y006173D01*
X007017Y006147D02*
X007666Y006147D01*
X007692Y006173D02*
X007554Y006035D01*
X007554Y005841D01*
X007554Y005642D01*
X007554Y005447D01*
X007623Y005378D01*
X007627Y005375D01*
X007692Y005309D01*
X007692Y005309D01*
X007707Y005295D01*
X007791Y005211D01*
X007987Y005211D01*
X008182Y005211D01*
X008280Y005309D01*
X008384Y005413D01*
X008396Y005390D01*
X008396Y005349D01*
X008438Y005307D01*
X008534Y005211D01*
X008728Y005211D01*
X008822Y005304D01*
X008824Y005307D01*
X008866Y005349D01*
X008866Y005390D01*
X008910Y005479D01*
X008942Y005447D01*
X008942Y005349D01*
X009080Y005211D01*
X009276Y005211D01*
X009471Y005211D01*
X009570Y005309D01*
X009707Y005447D01*
X009707Y005545D01*
X009707Y005605D01*
X009715Y005605D01*
X009774Y005545D01*
X009774Y005349D01*
X009912Y005211D01*
X010107Y005211D01*
X010244Y005349D01*
X010244Y005545D01*
X010244Y005740D01*
X010244Y005937D01*
X010107Y006074D01*
X009912Y006074D01*
X009911Y006073D01*
X009910Y006074D01*
X009617Y006074D01*
X009544Y006002D01*
X009471Y006074D01*
X009274Y006074D01*
X009080Y006074D01*
X009002Y005997D01*
X008925Y006074D01*
X008730Y006074D01*
X008635Y005979D01*
X008631Y005971D01*
X008627Y005979D01*
X008531Y006074D01*
X008379Y006074D01*
X008320Y006134D01*
X008182Y006271D01*
X007985Y006271D01*
X007791Y006271D01*
X007791Y006271D01*
X007709Y006190D01*
X007692Y006173D01*
X007692Y006173D01*
X007554Y005989D02*
X007129Y005989D01*
X007119Y005830D02*
X007554Y005830D01*
X007554Y005672D02*
X007001Y005672D01*
X007129Y005513D02*
X007554Y005513D01*
X007647Y005354D02*
X007129Y005354D01*
X008326Y005354D02*
X008396Y005354D01*
X008866Y005354D02*
X008942Y005354D01*
X009615Y005354D02*
X009774Y005354D01*
X009774Y005513D02*
X009707Y005513D01*
X010244Y005513D02*
X010702Y005513D01*
X010670Y005545D02*
X010768Y005447D01*
X010768Y005349D01*
X010906Y005211D01*
X011103Y005211D01*
X011297Y005211D01*
X011366Y005279D01*
X011434Y005211D01*
X011629Y005211D01*
X011727Y005309D01*
X011792Y005374D01*
X011796Y005378D01*
X011804Y005387D01*
X011813Y005378D01*
X011814Y005377D01*
X011882Y005309D01*
X011899Y005292D01*
X011980Y005211D01*
X012175Y005211D01*
X012177Y005211D01*
X012371Y005211D01*
X012449Y005288D01*
X012526Y005211D01*
X012721Y005211D01*
X012722Y005212D01*
X012723Y005211D01*
X012918Y005211D01*
X012919Y005212D01*
X012920Y005211D01*
X013114Y005211D01*
X013192Y005288D01*
X013269Y005211D01*
X013466Y005211D01*
X013661Y005211D01*
X013759Y005309D01*
X013897Y005447D01*
X013897Y005545D01*
X013897Y005605D01*
X013905Y005605D01*
X013964Y005545D01*
X013964Y005349D01*
X014101Y005211D01*
X014296Y005211D01*
X014434Y005349D01*
X014434Y005545D01*
X014434Y005740D01*
X014434Y005937D01*
X014296Y006074D01*
X014101Y006074D01*
X014100Y006073D01*
X014099Y006074D01*
X013806Y006074D01*
X013733Y006002D01*
X013661Y006074D01*
X013464Y006074D01*
X013269Y006074D01*
X013192Y005997D01*
X013114Y006074D01*
X013016Y006074D01*
X012821Y006074D01*
X012820Y006073D01*
X012819Y006074D01*
X012624Y006074D01*
X012526Y005976D01*
X012498Y005948D01*
X012444Y006002D01*
X012440Y006006D01*
X012371Y006074D01*
X012177Y006074D01*
X011980Y006074D01*
X011903Y005997D01*
X011865Y006035D01*
X011865Y006035D01*
X011727Y006173D01*
X011532Y006173D01*
X011434Y006074D01*
X011366Y006006D01*
X011321Y006051D01*
X011297Y006074D01*
X010906Y006074D01*
X010768Y005937D01*
X010670Y005838D01*
X010670Y005740D01*
X010670Y005545D01*
X010670Y005672D02*
X010244Y005672D01*
X010244Y005830D02*
X010670Y005830D01*
X010768Y005937D02*
X010768Y005937D01*
X010820Y005989D02*
X010192Y005989D01*
X010244Y005354D02*
X010768Y005354D01*
X011727Y005309D02*
X011727Y005309D01*
X011772Y005354D02*
X011836Y005354D01*
X011882Y005309D02*
X011882Y005309D01*
X011980Y005211D02*
X011980Y005211D01*
X012457Y005989D02*
X012539Y005989D01*
X011753Y006147D02*
X015244Y006147D01*
X015244Y005989D02*
X014382Y005989D01*
X014434Y005830D02*
X015244Y005830D01*
X015244Y005672D02*
X014434Y005672D01*
X014434Y005513D02*
X015244Y005513D01*
X015244Y005354D02*
X014434Y005354D01*
X013964Y005354D02*
X013804Y005354D01*
X013897Y005513D02*
X013964Y005513D01*
X015244Y005196D02*
X002234Y005196D01*
X002234Y005037D02*
X015244Y005037D01*
X015244Y004879D02*
X002234Y004879D01*
X002234Y004720D02*
X015183Y004720D01*
X015077Y004562D02*
X002234Y004562D01*
X002234Y004403D02*
X015044Y004403D01*
X015066Y004245D02*
X002234Y004245D01*
X002925Y002818D02*
X003544Y002818D01*
X003544Y002659D02*
X003136Y002659D01*
X003206Y002501D02*
X003544Y002501D01*
X003544Y002342D02*
X003214Y002342D01*
X003166Y002184D02*
X003544Y002184D01*
X004318Y002025D02*
X004689Y002025D01*
X004544Y002184D02*
X004464Y002184D01*
X004464Y002342D02*
X004544Y002342D01*
X004494Y002501D02*
X004464Y002501D01*
X004464Y002659D02*
X004494Y002659D01*
X004494Y002818D02*
X004464Y002818D01*
X004464Y002976D02*
X004544Y002976D01*
X004567Y003135D02*
X004440Y003135D01*
X004282Y003293D02*
X004726Y003293D01*
X005282Y003293D02*
X015046Y003293D01*
X015112Y003135D02*
X014091Y003135D01*
X014202Y002976D02*
X015302Y002976D01*
X015849Y004086D02*
X018024Y004086D01*
X018024Y004245D02*
X015941Y004245D01*
X015964Y004403D02*
X018024Y004403D01*
X018024Y004562D02*
X015931Y004562D01*
X015825Y004720D02*
X018024Y004720D01*
X018024Y004879D02*
X015764Y004879D01*
X015764Y005037D02*
X018171Y005037D01*
X018202Y005411D02*
X017805Y005411D01*
X017524Y005692D01*
X017524Y006090D01*
X017805Y006371D01*
X018202Y006371D01*
X018484Y006090D01*
X018484Y005692D01*
X018202Y005411D01*
X018305Y005513D02*
X018703Y005513D01*
X018544Y005672D02*
X018463Y005672D01*
X018484Y005830D02*
X018524Y005830D01*
X018524Y005989D02*
X018484Y005989D01*
X018426Y006147D02*
X018581Y006147D01*
X018740Y006306D02*
X018268Y006306D01*
X018202Y006411D02*
X018484Y006692D01*
X018484Y007090D01*
X018202Y007371D01*
X017805Y007371D01*
X017524Y007090D01*
X017524Y006692D01*
X017805Y006411D01*
X018202Y006411D01*
X018256Y006464D02*
X018751Y006464D01*
X018593Y006623D02*
X018414Y006623D01*
X018484Y006781D02*
X018524Y006781D01*
X018524Y006940D02*
X018484Y006940D01*
X018475Y007098D02*
X018532Y007098D01*
X018691Y007257D02*
X018316Y007257D01*
X018110Y007416D02*
X018800Y007416D01*
X018642Y007574D02*
X018366Y007574D01*
X018458Y007733D02*
X018524Y007733D01*
X018524Y007891D02*
X018484Y007891D01*
X018457Y008050D02*
X018524Y008050D01*
X018642Y008208D02*
X018365Y008208D01*
X017642Y008208D02*
X017039Y008208D01*
X017014Y008050D02*
X017550Y008050D01*
X017524Y007891D02*
X017014Y007891D01*
X017102Y007733D02*
X017550Y007733D01*
X017642Y007574D02*
X017151Y007574D01*
X017151Y007416D02*
X017897Y007416D01*
X017691Y007257D02*
X017151Y007257D01*
X017151Y007098D02*
X017532Y007098D01*
X017524Y006940D02*
X015764Y006940D01*
X015764Y007098D02*
X016356Y007098D01*
X016356Y007257D02*
X015764Y007257D01*
X015764Y007416D02*
X016356Y007416D01*
X016356Y007574D02*
X015764Y007574D01*
X015764Y007733D02*
X016405Y007733D01*
X016494Y007891D02*
X015764Y007891D01*
X015806Y008050D02*
X016494Y008050D01*
X016494Y008208D02*
X016004Y008208D01*
X016202Y008367D02*
X016494Y008367D01*
X016400Y008525D02*
X016620Y008525D01*
X016599Y008684D02*
X016779Y008684D01*
X016797Y008842D02*
X017623Y008842D01*
X018004Y009141D02*
X016754Y009141D01*
X015504Y008141D01*
X015504Y004391D01*
X015764Y005196D02*
X023284Y005196D01*
X023379Y005354D02*
X015764Y005354D01*
X015764Y005513D02*
X017703Y005513D01*
X017544Y005672D02*
X015764Y005672D01*
X015764Y005830D02*
X017524Y005830D01*
X017524Y005989D02*
X015764Y005989D01*
X015764Y006147D02*
X017581Y006147D01*
X017740Y006306D02*
X015764Y006306D01*
X015764Y006464D02*
X017751Y006464D01*
X017593Y006623D02*
X015764Y006623D01*
X015764Y006781D02*
X017524Y006781D01*
X016754Y007391D02*
X016754Y008291D01*
X017004Y008541D01*
X019754Y008541D01*
X020004Y009141D01*
X019524Y009159D02*
X019484Y009159D01*
X019484Y009001D02*
X019524Y009001D01*
X019598Y008842D02*
X019384Y008842D01*
X019484Y009318D02*
X019524Y009318D01*
X019661Y009477D02*
X019347Y009477D01*
X019202Y009661D02*
X019484Y009942D01*
X019484Y010340D01*
X019202Y010621D01*
X018805Y010621D01*
X018524Y010340D01*
X018524Y009942D01*
X018805Y009661D01*
X019202Y009661D01*
X019335Y009794D02*
X019672Y009794D01*
X019805Y009661D02*
X019984Y009661D01*
X019984Y010121D01*
X020024Y010121D01*
X020024Y010161D01*
X020484Y010161D01*
X020484Y010340D01*
X020202Y010621D01*
X020024Y010621D01*
X020024Y010161D01*
X019984Y010161D01*
X019984Y010621D01*
X019805Y010621D01*
X019524Y010340D01*
X019524Y010161D01*
X019983Y010161D01*
X019983Y010121D01*
X019524Y010121D01*
X019524Y009942D01*
X019805Y009661D01*
X020024Y009661D02*
X020202Y009661D01*
X020484Y009942D01*
X020484Y010121D01*
X020024Y010121D01*
X020024Y009661D01*
X020024Y009794D02*
X019984Y009794D01*
X019984Y009952D02*
X020024Y009952D01*
X020024Y010111D02*
X019984Y010111D01*
X019984Y010269D02*
X020024Y010269D01*
X020024Y010428D02*
X019984Y010428D01*
X019984Y010586D02*
X020024Y010586D01*
X020237Y010586D02*
X024774Y010586D01*
X024774Y010442D02*
X025055Y010161D01*
X025452Y010161D01*
X025734Y010442D01*
X025734Y010840D01*
X025452Y011121D01*
X025055Y011121D01*
X024774Y010840D01*
X024774Y010442D01*
X024788Y010428D02*
X020395Y010428D01*
X020484Y010269D02*
X024946Y010269D01*
X024774Y010745D02*
X011439Y010745D01*
X011358Y010586D02*
X017770Y010586D01*
X017612Y010428D02*
X011271Y010428D01*
X010990Y010269D02*
X017524Y010269D01*
X017524Y010111D02*
X010594Y010111D01*
X010197Y009952D02*
X017524Y009952D01*
X018335Y009794D02*
X018672Y009794D01*
X018524Y009952D02*
X018484Y009952D01*
X018484Y010111D02*
X018524Y010111D01*
X018524Y010269D02*
X018484Y010269D01*
X018395Y010428D02*
X018612Y010428D01*
X018770Y010586D02*
X018237Y010586D01*
X018202Y010861D02*
X018024Y010861D01*
X018024Y011621D01*
X018484Y011621D01*
X018484Y011142D01*
X018202Y010861D01*
X018245Y010903D02*
X018762Y010903D01*
X018604Y011062D02*
X018404Y011062D01*
X018484Y011221D02*
X018524Y011221D01*
X018524Y011379D02*
X018484Y011379D01*
X018484Y011538D02*
X018524Y011538D01*
X018524Y011696D02*
X018484Y011696D01*
X018484Y011855D02*
X018524Y011855D01*
X018524Y012013D02*
X018484Y012013D01*
X018451Y012172D02*
X018556Y012172D01*
X018714Y012330D02*
X018293Y012330D01*
X017714Y012330D02*
X017293Y012330D01*
X017451Y012172D02*
X017556Y012172D01*
X017524Y012013D02*
X017484Y012013D01*
X017484Y011855D02*
X017524Y011855D01*
X017524Y011696D02*
X017484Y011696D01*
X017484Y011538D02*
X017524Y011538D01*
X017524Y011379D02*
X017484Y011379D01*
X017484Y011221D02*
X017524Y011221D01*
X017604Y011062D02*
X017404Y011062D01*
X017245Y010903D02*
X017762Y010903D01*
X017984Y010903D02*
X018024Y010903D01*
X018024Y011062D02*
X017984Y011062D01*
X017984Y011221D02*
X018024Y011221D01*
X018024Y011379D02*
X017984Y011379D01*
X017984Y011538D02*
X018024Y011538D01*
X019245Y010903D02*
X020512Y010903D01*
X020734Y010903D02*
X020774Y010903D01*
X020774Y010861D02*
X020952Y010861D01*
X021234Y011142D01*
X021234Y011621D01*
X020774Y011621D01*
X020774Y010861D01*
X020774Y011062D02*
X020734Y011062D01*
X020734Y011221D02*
X020774Y011221D01*
X020774Y011379D02*
X020734Y011379D01*
X020734Y011538D02*
X020774Y011538D01*
X020274Y011538D02*
X019484Y011538D01*
X019484Y011696D02*
X020274Y011696D01*
X020274Y011855D02*
X019484Y011855D01*
X019484Y012013D02*
X020274Y012013D01*
X020306Y012172D02*
X019451Y012172D01*
X019293Y012330D02*
X020464Y012330D01*
X021043Y012330D02*
X021464Y012330D01*
X021306Y012172D02*
X021201Y012172D01*
X021234Y012013D02*
X021274Y012013D01*
X021274Y011855D02*
X021234Y011855D01*
X021234Y011696D02*
X021274Y011696D01*
X021274Y011538D02*
X021234Y011538D01*
X021234Y011379D02*
X021274Y011379D01*
X021274Y011221D02*
X021234Y011221D01*
X021154Y011062D02*
X021354Y011062D01*
X021512Y010903D02*
X020995Y010903D01*
X020354Y011062D02*
X019404Y011062D01*
X019484Y011221D02*
X020274Y011221D01*
X020274Y011379D02*
X019484Y011379D01*
X019237Y010586D02*
X019770Y010586D01*
X019612Y010428D02*
X019395Y010428D01*
X019484Y010269D02*
X019524Y010269D01*
X019524Y010111D02*
X019484Y010111D01*
X019484Y009952D02*
X019524Y009952D01*
X020335Y009794D02*
X027744Y009794D01*
X027744Y009952D02*
X020484Y009952D01*
X020484Y010111D02*
X027744Y010111D01*
X027744Y010269D02*
X027561Y010269D01*
X027452Y010161D02*
X027055Y010161D01*
X026774Y010442D01*
X026774Y010840D01*
X027055Y011121D01*
X027452Y011121D01*
X027734Y010840D01*
X027734Y010442D01*
X027452Y010161D01*
X027719Y010428D02*
X027744Y010428D01*
X027734Y010586D02*
X027744Y010586D01*
X027734Y010745D02*
X027744Y010745D01*
X027744Y010903D02*
X027670Y010903D01*
X027744Y011062D02*
X027511Y011062D01*
X027493Y011221D02*
X027692Y011221D01*
X028004Y011391D02*
X028004Y005391D01*
X027344Y004861D01*
X027741Y004720D02*
X030014Y004720D01*
X030014Y004562D02*
X027735Y004562D01*
X027781Y004879D02*
X030061Y004879D01*
X030220Y005037D02*
X027979Y005037D01*
X028176Y005196D02*
X031244Y005196D01*
X031231Y005354D02*
X028264Y005354D01*
X028264Y005513D02*
X028941Y005513D01*
X028856Y005672D02*
X028264Y005672D01*
X028264Y005830D02*
X028856Y005830D01*
X028856Y005989D02*
X028264Y005989D01*
X028264Y006147D02*
X028856Y006147D01*
X028264Y006306D02*
X031524Y006306D01*
X031524Y006464D02*
X028264Y006464D01*
X028264Y006623D02*
X031524Y006623D01*
X031524Y006781D02*
X028264Y006781D01*
X028264Y006940D02*
X031524Y006940D01*
X031524Y007098D02*
X028264Y007098D01*
X028264Y007257D02*
X031524Y007257D01*
X031524Y007416D02*
X028264Y007416D01*
X028264Y007574D02*
X031524Y007574D01*
X031524Y007733D02*
X028264Y007733D01*
X028264Y007891D02*
X031524Y007891D01*
X031524Y008050D02*
X028264Y008050D01*
X028264Y008208D02*
X031524Y008208D01*
X031524Y008367D02*
X028264Y008367D01*
X028264Y008525D02*
X031524Y008525D01*
X031524Y008684D02*
X028264Y008684D01*
X028264Y008842D02*
X031524Y008842D01*
X031524Y009001D02*
X028264Y009001D01*
X028264Y009159D02*
X031524Y009159D01*
X031524Y009318D02*
X028264Y009318D01*
X028264Y009477D02*
X031524Y009477D01*
X031524Y009635D02*
X028264Y009635D01*
X028264Y009794D02*
X031524Y009794D01*
X031524Y009952D02*
X028264Y009952D01*
X028264Y010111D02*
X031524Y010111D01*
X031524Y010269D02*
X028264Y010269D01*
X028264Y010428D02*
X031524Y010428D01*
X031524Y010586D02*
X028264Y010586D01*
X028264Y010745D02*
X031524Y010745D01*
X031524Y010903D02*
X028264Y010903D01*
X028264Y011062D02*
X031524Y011062D01*
X031524Y011221D02*
X028264Y011221D01*
X028264Y011379D02*
X031524Y011379D01*
X031524Y011538D02*
X028225Y011538D01*
X028004Y011391D02*
X027254Y011641D01*
X026823Y011855D02*
X026719Y011855D01*
X026734Y011840D02*
X026452Y012121D01*
X026274Y012121D01*
X026274Y011661D01*
X026734Y011661D01*
X026734Y011840D01*
X026734Y011696D02*
X026774Y011696D01*
X026734Y011621D02*
X026274Y011621D01*
X026274Y011661D01*
X026234Y011661D01*
X026234Y012121D01*
X026055Y012121D01*
X025774Y011840D01*
X025774Y011661D01*
X026233Y011661D01*
X026233Y011621D01*
X025774Y011621D01*
X025774Y011442D01*
X026055Y011161D01*
X026234Y011161D01*
X026234Y011621D01*
X026274Y011621D01*
X026274Y011161D01*
X026452Y011161D01*
X026734Y011442D01*
X026734Y011621D01*
X026734Y011538D02*
X026777Y011538D01*
X026843Y011379D02*
X026671Y011379D01*
X026512Y011221D02*
X027014Y011221D01*
X026996Y011062D02*
X026511Y011062D01*
X026452Y011121D02*
X026055Y011121D01*
X025774Y010840D01*
X025774Y010442D01*
X026055Y010161D01*
X026452Y010161D01*
X026734Y010442D01*
X026734Y010840D01*
X026452Y011121D01*
X026274Y011221D02*
X026234Y011221D01*
X026234Y011379D02*
X026274Y011379D01*
X026274Y011538D02*
X026234Y011538D01*
X026234Y011696D02*
X026274Y011696D01*
X026274Y011855D02*
X026234Y011855D01*
X026234Y012013D02*
X026274Y012013D01*
X026560Y012013D02*
X026947Y012013D01*
X027560Y012013D02*
X031524Y012013D01*
X031524Y011855D02*
X027685Y011855D01*
X027910Y011696D02*
X031524Y011696D01*
X031524Y012172D02*
X024201Y012172D01*
X024234Y012013D02*
X024947Y012013D01*
X025055Y012121D02*
X024774Y011840D01*
X024774Y011442D01*
X025055Y011161D01*
X025452Y011161D01*
X025734Y011442D01*
X025734Y011840D01*
X025452Y012121D01*
X025055Y012121D01*
X024789Y011855D02*
X024234Y011855D01*
X024234Y011696D02*
X024774Y011696D01*
X024774Y011538D02*
X024234Y011538D01*
X024234Y011379D02*
X024837Y011379D01*
X024995Y011221D02*
X024234Y011221D01*
X024154Y011062D02*
X024996Y011062D01*
X024838Y010903D02*
X023995Y010903D01*
X023512Y010903D02*
X022995Y010903D01*
X022952Y010861D02*
X023234Y011142D01*
X023234Y011621D01*
X022774Y011621D01*
X022774Y010861D01*
X022952Y010861D01*
X022774Y010903D02*
X022734Y010903D01*
X022734Y011062D02*
X022774Y011062D01*
X022774Y011221D02*
X022734Y011221D01*
X022734Y011379D02*
X022774Y011379D01*
X022774Y011538D02*
X022734Y011538D01*
X023234Y011538D02*
X023274Y011538D01*
X023274Y011696D02*
X023234Y011696D01*
X023234Y011855D02*
X023274Y011855D01*
X023274Y012013D02*
X023234Y012013D01*
X023201Y012172D02*
X023306Y012172D01*
X023464Y012330D02*
X023043Y012330D01*
X022464Y012330D02*
X022043Y012330D01*
X022201Y012172D02*
X022306Y012172D01*
X022274Y012013D02*
X022234Y012013D01*
X022234Y011855D02*
X022274Y011855D01*
X022274Y011696D02*
X022234Y011696D01*
X022234Y011538D02*
X022274Y011538D01*
X022274Y011379D02*
X022234Y011379D01*
X022234Y011221D02*
X022274Y011221D01*
X022354Y011062D02*
X022154Y011062D01*
X021995Y010903D02*
X022512Y010903D01*
X023154Y011062D02*
X023354Y011062D01*
X023274Y011221D02*
X023234Y011221D01*
X023234Y011379D02*
X023274Y011379D01*
X024043Y012330D02*
X031524Y012330D01*
X026838Y010903D02*
X026670Y010903D01*
X026734Y010745D02*
X026774Y010745D01*
X026774Y010586D02*
X026734Y010586D01*
X026719Y010428D02*
X026788Y010428D01*
X026946Y010269D02*
X026561Y010269D01*
X025946Y010269D02*
X025561Y010269D01*
X025719Y010428D02*
X025788Y010428D01*
X025774Y010586D02*
X025734Y010586D01*
X025734Y010745D02*
X025774Y010745D01*
X025838Y010903D02*
X025670Y010903D01*
X025511Y011062D02*
X025996Y011062D01*
X025995Y011221D02*
X025512Y011221D01*
X025671Y011379D02*
X025837Y011379D01*
X025774Y011538D02*
X025734Y011538D01*
X025734Y011696D02*
X025774Y011696D01*
X025789Y011855D02*
X025719Y011855D01*
X025560Y012013D02*
X025947Y012013D01*
X018661Y009477D02*
X018347Y009477D01*
X018450Y009318D02*
X018524Y009318D01*
X018524Y009159D02*
X018484Y009159D01*
X018465Y009001D02*
X018524Y009001D01*
X018623Y008842D02*
X018384Y008842D01*
X016559Y009318D02*
X003984Y009318D01*
X003951Y009159D02*
X016361Y009159D01*
X016163Y009001D02*
X003793Y009001D01*
X003731Y008842D02*
X015964Y008842D01*
X015766Y008684D02*
X003889Y008684D01*
X003984Y008525D02*
X015568Y008525D01*
X015362Y008367D02*
X003984Y008367D01*
X003984Y008208D02*
X015244Y008208D01*
X015244Y008050D02*
X003841Y008050D01*
X002276Y008842D02*
X002234Y008842D01*
X002234Y009952D02*
X002264Y009952D01*
X002854Y011062D02*
X003154Y011062D01*
X003024Y011221D02*
X002984Y011221D01*
X002984Y011379D02*
X003483Y011379D01*
X003484Y011221D02*
X003524Y011221D01*
X003524Y011062D02*
X003484Y011062D01*
X003024Y011538D02*
X002984Y011538D01*
X002877Y011696D02*
X003130Y011696D01*
X006161Y010745D02*
X010349Y010745D01*
X009952Y010586D02*
X006214Y010586D01*
X006865Y011062D02*
X007343Y011062D01*
X007130Y011221D02*
X007078Y011221D01*
X007091Y011696D02*
X007117Y011696D01*
X007280Y011855D02*
X006928Y011855D01*
X007716Y011855D02*
X008067Y011855D01*
X007905Y011696D02*
X007878Y011696D01*
X007865Y011221D02*
X007918Y011221D01*
X008131Y011062D02*
X007652Y011062D01*
X008440Y011062D02*
X008918Y011062D01*
X008705Y011221D02*
X008653Y011221D01*
X008666Y011696D02*
X008692Y011696D01*
X008855Y011855D02*
X008503Y011855D01*
X009291Y011855D02*
X009642Y011855D01*
X009480Y011696D02*
X009453Y011696D01*
X009440Y011221D02*
X009492Y011221D01*
X009706Y011062D02*
X009227Y011062D01*
X012377Y011062D02*
X012855Y011062D01*
X012642Y011221D02*
X012590Y011221D01*
X012603Y011696D02*
X012629Y011696D01*
X012792Y011855D02*
X012440Y011855D01*
X013228Y011855D02*
X013579Y011855D01*
X013417Y011696D02*
X013390Y011696D01*
X013377Y011221D02*
X013429Y011221D01*
X013643Y011062D02*
X013164Y011062D01*
X013951Y011062D02*
X015604Y011062D01*
X015524Y011221D02*
X014165Y011221D01*
X014232Y011379D02*
X015524Y011379D01*
X015524Y011538D02*
X014234Y011538D01*
X014177Y011696D02*
X015524Y011696D01*
X015524Y011855D02*
X014015Y011855D01*
X016245Y010903D02*
X016762Y010903D01*
X016604Y011062D02*
X016404Y011062D01*
X016484Y011221D02*
X016524Y011221D01*
X016524Y011379D02*
X016484Y011379D01*
X011306Y007574D02*
X011229Y007497D01*
X011151Y007574D01*
X011934Y007257D02*
X015244Y007257D01*
X015244Y007098D02*
X011934Y007098D01*
X011927Y006940D02*
X015244Y006940D01*
X015244Y006464D02*
X002234Y006464D01*
X002234Y006306D02*
X015244Y006306D01*
X011507Y006147D02*
X008306Y006147D01*
X008617Y005989D02*
X008644Y005989D01*
X007771Y006781D02*
X007570Y006781D01*
X007637Y006940D02*
X007704Y006940D01*
X007651Y007098D02*
X007637Y007098D01*
X006850Y007416D02*
X006593Y007416D01*
X005874Y006781D02*
X005860Y006781D01*
X002276Y006940D02*
X002234Y006940D01*
X005440Y003135D02*
X006416Y003135D01*
X006306Y002976D02*
X005464Y002976D01*
X005658Y002818D02*
X006273Y002818D01*
X006299Y002659D02*
X005896Y002659D01*
X007004Y003135D02*
X007204Y003135D01*
X007792Y003135D02*
X007991Y003135D01*
X008579Y003135D02*
X008779Y003135D01*
X009367Y003135D02*
X009566Y003135D01*
X010154Y003135D02*
X010353Y003135D01*
X010941Y003135D02*
X011141Y003135D01*
X011729Y003135D02*
X011928Y003135D01*
X012516Y003135D02*
X012716Y003135D01*
X013304Y003135D02*
X013503Y003135D01*
X013797Y003135D02*
X013797Y003135D01*
X013797Y002976D02*
X013797Y002976D01*
X013797Y002818D02*
X013797Y002818D01*
X018861Y003769D02*
X019147Y003769D01*
X019024Y003892D02*
X019305Y003611D01*
X019702Y003611D01*
X019984Y003892D01*
X019984Y004890D01*
X019702Y005171D01*
X019305Y005171D01*
X019024Y004890D01*
X019024Y003892D01*
X019024Y003928D02*
X018984Y003928D01*
X018984Y004086D02*
X019024Y004086D01*
X019024Y004245D02*
X018984Y004245D01*
X018984Y004403D02*
X019024Y004403D01*
X019024Y004562D02*
X018984Y004562D01*
X018984Y004720D02*
X019024Y004720D01*
X019024Y004879D02*
X018984Y004879D01*
X018836Y005037D02*
X019171Y005037D01*
X019305Y005513D02*
X023474Y005513D01*
X023569Y005672D02*
X019463Y005672D01*
X019836Y005037D02*
X020171Y005037D01*
X020305Y005171D02*
X020024Y004890D01*
X020024Y003892D01*
X020305Y003611D01*
X020702Y003611D01*
X020984Y003892D01*
X020984Y004890D01*
X020702Y005171D01*
X020305Y005171D01*
X020024Y004879D02*
X019984Y004879D01*
X019984Y004720D02*
X020024Y004720D01*
X020024Y004562D02*
X019984Y004562D01*
X019984Y004403D02*
X020024Y004403D01*
X020024Y004245D02*
X019984Y004245D01*
X019984Y004086D02*
X020024Y004086D01*
X020024Y003928D02*
X019984Y003928D01*
X019861Y003769D02*
X020147Y003769D01*
X020861Y003769D02*
X021147Y003769D01*
X021024Y003892D02*
X021305Y003611D01*
X021702Y003611D01*
X021984Y003892D01*
X021984Y004890D01*
X021702Y005171D01*
X021305Y005171D01*
X021024Y004890D01*
X021024Y003892D01*
X021024Y003928D02*
X020984Y003928D01*
X020984Y004086D02*
X021024Y004086D01*
X021024Y004245D02*
X020984Y004245D01*
X020984Y004403D02*
X021024Y004403D01*
X021024Y004562D02*
X020984Y004562D01*
X020984Y004720D02*
X021024Y004720D01*
X021024Y004879D02*
X020984Y004879D01*
X020836Y005037D02*
X021171Y005037D01*
X021836Y005037D02*
X023188Y005037D01*
X023093Y004879D02*
X021984Y004879D01*
X021984Y004720D02*
X022994Y004720D01*
X022994Y004562D02*
X021984Y004562D01*
X021984Y004403D02*
X022994Y004403D01*
X022994Y004245D02*
X021984Y004245D01*
X021984Y004086D02*
X022994Y004086D01*
X022994Y003928D02*
X021984Y003928D01*
X021861Y003769D02*
X022994Y003769D01*
X023514Y004562D02*
X026953Y004562D01*
X026946Y004720D02*
X023604Y004720D01*
X023700Y004879D02*
X026946Y004879D01*
X026946Y005037D02*
X023795Y005037D01*
X028756Y004151D02*
X028756Y004151D01*
X030504Y003641D02*
X031504Y003641D01*
X031504Y005391D01*
X031254Y005891D01*
X029254Y005891D01*
X029566Y005513D02*
X031152Y005513D01*
X031514Y005989D02*
X031524Y005989D01*
X031524Y006147D02*
X031365Y006147D01*
X030764Y005037D02*
X030744Y005037D01*
X030744Y004879D02*
X030764Y004879D01*
X030764Y004720D02*
X030744Y004720D01*
X030744Y004562D02*
X030764Y004562D01*
X030764Y004403D02*
X030744Y004403D01*
X030744Y004245D02*
X030764Y004245D01*
X031239Y004086D02*
X031244Y004086D01*
X030504Y003641D02*
X030505Y003626D01*
X010124Y007574D02*
X009998Y007448D01*
X009942Y007504D01*
X009940Y007506D01*
X009904Y007542D01*
X009871Y007574D01*
D19*
X007504Y008891D03*
X006004Y010141D03*
X003504Y004891D03*
X003004Y004891D03*
X016004Y009641D03*
X016754Y007391D03*
X020504Y006891D03*
X021924Y005771D03*
X022754Y003951D03*
X024254Y003891D03*
X024934Y004001D03*
X025254Y003391D03*
X026004Y004891D03*
X027344Y004861D03*
X026144Y005941D03*
X027254Y006141D03*
X029254Y005891D03*
X031004Y009641D03*
X018004Y003391D03*
D20*
X023254Y002141D02*
X028004Y002141D01*
X028754Y003641D01*
X030505Y003626D01*
X030754Y003641D01*
X023254Y002141D02*
X009874Y002141D01*
X005754Y002141D01*
X005004Y002641D01*
D21*
X005754Y002141D02*
X006724Y002151D01*
X006710Y002810D01*
X009860Y002810D02*
X009874Y002461D01*
X009874Y002141D01*
D22*
X009754Y010141D02*
X011004Y010641D01*
X011464Y011541D01*
X011435Y011472D01*
X009781Y010195D02*
X009650Y010141D01*
X006004Y010141D01*
X005504Y011641D01*
X009754Y010141D02*
X009781Y010195D01*
M02*
