G75*
G70*
%OFA0B0*%
%FSLAX24Y24*%
%IPPOS*%
%LPD*%
%AMOC8*
5,1,8,0,0,1.08239X$1,22.5*
%
%ADD10R,0.0500X0.0220*%
%ADD11R,0.0220X0.0500*%
%ADD12R,0.0800X0.0260*%
%ADD13R,0.0787X0.0630*%
%ADD14R,0.0709X0.0630*%
%ADD15R,0.0760X0.2100*%
%ADD16R,0.0630X0.0709*%
%ADD17R,0.0630X0.0787*%
%ADD18C,0.0515*%
%ADD19C,0.0600*%
%ADD20OC8,0.0600*%
%ADD21R,0.0551X0.0551*%
%ADD22R,0.0945X0.1024*%
%ADD23O,0.1120X0.0560*%
%ADD24O,0.0560X0.1120*%
%ADD25O,0.0600X0.1200*%
%ADD26C,0.0560*%
%ADD27C,0.0160*%
%ADD28R,0.0436X0.0436*%
%ADD29C,0.0320*%
D10*
X025064Y004539D03*
X025064Y004853D03*
X025064Y005168D03*
X025064Y005483D03*
X025064Y005798D03*
X025064Y006113D03*
X025064Y006428D03*
X025064Y006743D03*
X028444Y006743D03*
X028444Y006428D03*
X028444Y006113D03*
X028444Y005798D03*
X028444Y005483D03*
X028444Y005168D03*
X028444Y004853D03*
X028444Y004539D03*
D11*
X027856Y003951D03*
X027541Y003951D03*
X027226Y003951D03*
X026911Y003951D03*
X026596Y003951D03*
X026281Y003951D03*
X025966Y003951D03*
X025651Y003951D03*
X025651Y007331D03*
X025966Y007331D03*
X026281Y007331D03*
X026596Y007331D03*
X026911Y007331D03*
X027226Y007331D03*
X027541Y007331D03*
X027856Y007331D03*
D12*
X013714Y007141D03*
X013714Y006641D03*
X013714Y007641D03*
X013714Y008141D03*
X013714Y008641D03*
X013714Y009141D03*
X013714Y009641D03*
X013714Y010141D03*
X011294Y010141D03*
X011294Y009641D03*
X011294Y009141D03*
X011294Y008641D03*
X011294Y008141D03*
X011294Y007641D03*
X011294Y007141D03*
X011294Y006641D03*
D13*
X015474Y006642D03*
X015474Y005540D03*
X023884Y005802D03*
X023884Y004700D03*
X028504Y003442D03*
X029504Y003840D03*
X029504Y004942D03*
X028504Y002340D03*
X006504Y006840D03*
X006504Y007942D03*
D14*
X007754Y007942D03*
X007754Y006840D03*
X009754Y009090D03*
X009754Y010192D03*
X015004Y010192D03*
X015004Y009090D03*
X013504Y005692D03*
X013504Y004590D03*
X022704Y004700D03*
X022704Y005802D03*
X030754Y005590D03*
X030754Y006692D03*
X031004Y007590D03*
X031004Y008692D03*
X031004Y010340D03*
X031004Y011442D03*
X004504Y011442D03*
X004504Y010340D03*
D15*
X029504Y011291D03*
X029504Y007491D03*
D16*
X022555Y006891D03*
X021453Y006891D03*
X021185Y005771D03*
X020083Y005771D03*
X020953Y003221D03*
X022055Y003221D03*
X019805Y002891D03*
X018703Y002891D03*
X009805Y007641D03*
X008703Y007641D03*
X008555Y009641D03*
X007453Y009641D03*
D17*
X009703Y005141D03*
X010805Y005141D03*
D18*
X010647Y002810D03*
X009860Y002810D03*
X009073Y002810D03*
X008285Y002810D03*
X007498Y002810D03*
X006710Y002810D03*
X011435Y002810D03*
X012222Y002810D03*
X013010Y002810D03*
X013797Y002810D03*
X013797Y011472D03*
X013010Y011472D03*
X012222Y011472D03*
X011435Y011472D03*
X010647Y011472D03*
X009860Y011472D03*
X009073Y011472D03*
X008285Y011472D03*
X007498Y011472D03*
X006710Y011472D03*
D19*
X018004Y009141D03*
X018004Y007891D03*
X027254Y011641D03*
D20*
X026254Y011641D03*
X025254Y011641D03*
X025254Y010641D03*
X026254Y010641D03*
X027254Y010641D03*
X020004Y010141D03*
X019004Y010141D03*
X018004Y010141D03*
X019004Y009141D03*
X020004Y009141D03*
X019004Y007891D03*
X019004Y006891D03*
X018004Y006891D03*
X018004Y005891D03*
X019004Y005891D03*
X003504Y007391D03*
X002504Y007391D03*
X002504Y008391D03*
X003504Y008391D03*
X003504Y009391D03*
X002504Y009391D03*
X002504Y010391D03*
X003504Y010391D03*
X003504Y011391D03*
X002504Y011391D03*
D21*
X023006Y003141D03*
X024502Y003141D03*
D22*
X003004Y003631D03*
X003004Y006151D03*
D23*
X030754Y004641D03*
X030754Y003641D03*
D24*
X030504Y002391D03*
X029504Y002391D03*
X005004Y002641D03*
X004004Y002641D03*
D25*
X016004Y011641D03*
X017004Y011641D03*
X018004Y011641D03*
X019004Y011641D03*
X020754Y011641D03*
X021754Y011641D03*
X022754Y011641D03*
X023754Y011641D03*
X021504Y004391D03*
X020504Y004391D03*
X019504Y004391D03*
X018504Y004391D03*
D26*
X002754Y002391D03*
X015504Y003391D03*
X015504Y004391D03*
X005504Y011641D03*
D27*
X004754Y011641D01*
X004504Y011442D01*
X003504Y011391D02*
X004504Y010391D01*
X004504Y010340D01*
X005254Y010641D02*
X005254Y009641D01*
X005004Y009391D01*
X003504Y009391D01*
X003504Y008391D02*
X005254Y008391D01*
X005504Y008641D01*
X005504Y010391D01*
X005764Y010721D01*
X012014Y010721D01*
X012254Y010391D01*
X012254Y008891D01*
X012504Y008641D01*
X013714Y008641D01*
X014004Y008641D01*
X013714Y009141D02*
X012754Y009141D01*
X012504Y009391D01*
X012504Y010641D01*
X012294Y011011D01*
X005544Y011011D01*
X005254Y010641D01*
X007453Y009641D02*
X007504Y009590D01*
X007504Y008891D01*
X007754Y007942D01*
X007504Y007891D01*
X006504Y007891D02*
X006504Y007942D01*
X006504Y007891D02*
X006004Y007891D01*
X006504Y006840D02*
X006694Y006307D01*
X006930Y006141D01*
X010004Y006141D01*
X010504Y006391D01*
X011294Y006641D01*
X011004Y005891D02*
X012174Y006343D01*
X012283Y006479D01*
X012447Y006970D01*
X012684Y007141D01*
X013714Y007141D01*
X013714Y007641D02*
X015004Y007641D01*
X015504Y007891D01*
X018004Y007891D01*
X018504Y008391D02*
X019004Y007891D01*
X018504Y008391D02*
X015004Y008391D01*
X014504Y008141D01*
X013714Y008141D01*
X015004Y009090D02*
X015004Y009641D01*
X016004Y009641D01*
X015254Y010141D02*
X018004Y010141D01*
X018004Y010641D02*
X019254Y010641D01*
X020254Y010641D01*
X021254Y009391D01*
X025800Y007867D01*
X025966Y007632D01*
X025966Y007331D01*
X025651Y007331D02*
X025151Y007743D01*
X021004Y008891D01*
X020811Y009470D01*
X020574Y009641D01*
X018504Y009641D01*
X018004Y009141D01*
X019004Y009141D02*
X020254Y008141D01*
X019754Y007391D01*
X017754Y007391D01*
X016504Y006641D01*
X016254Y006141D01*
X016254Y003891D01*
X015504Y003391D01*
X016504Y002391D02*
X016254Y002141D01*
X008504Y002141D01*
X008254Y002391D01*
X008254Y002891D01*
X008285Y002810D01*
X007504Y002891D02*
X007498Y002810D01*
X007504Y002891D02*
X007504Y002141D01*
X007754Y001891D01*
X016504Y001891D01*
X016754Y002141D01*
X016754Y005722D01*
X016911Y005954D01*
X017754Y006391D01*
X018504Y006391D01*
X019004Y006891D01*
X018004Y006891D02*
X016655Y006206D01*
X016504Y005976D01*
X016504Y002391D01*
X017004Y002141D02*
X017254Y001891D01*
X026842Y001891D01*
X027070Y002039D01*
X027504Y003011D01*
X027564Y003201D01*
X027554Y003201D01*
X027554Y003931D01*
X027541Y003951D01*
X027244Y003941D02*
X027184Y003341D01*
X027004Y002891D01*
X026578Y002252D01*
X026370Y002141D01*
X017754Y002141D01*
X017504Y002391D01*
X017504Y004891D01*
X017754Y005291D01*
X018504Y005291D01*
X019004Y005891D01*
X019504Y005391D02*
X019504Y004391D01*
X019995Y004967D02*
X020244Y005222D01*
X024494Y005241D01*
X024604Y005181D01*
X025156Y005191D01*
X025064Y005168D01*
X025064Y004853D02*
X025061Y004851D01*
X024524Y004851D01*
X024514Y004851D02*
X024414Y003841D01*
X024254Y003891D01*
X023819Y003375D02*
X023754Y004391D01*
X023884Y004700D01*
X025064Y004539D02*
X024954Y004021D01*
X024996Y004051D01*
X025651Y003951D02*
X025654Y003821D01*
X025254Y003401D01*
X025584Y002971D02*
X024514Y002971D01*
X024502Y003141D01*
X024068Y003141D01*
X023819Y003375D01*
X023006Y003141D02*
X022754Y003141D01*
X022754Y003951D01*
X022764Y003171D01*
X022055Y003221D01*
X021504Y002641D02*
X026004Y002641D01*
X026264Y002871D01*
X026254Y002871D01*
X026254Y002891D01*
X026274Y003401D01*
X026281Y003951D01*
X025966Y003951D02*
X025964Y003491D01*
X025964Y003151D01*
X025919Y003053D01*
X025847Y002977D01*
X025584Y002971D01*
X025964Y003201D02*
X025964Y003491D01*
X026594Y003311D02*
X026594Y003221D01*
X026604Y002921D01*
X026594Y002911D01*
X026504Y002641D01*
X026327Y002464D01*
X026150Y002391D01*
X020754Y002391D01*
X020504Y002641D01*
X020504Y003141D01*
X020953Y003221D01*
X020504Y003141D02*
X020504Y004391D01*
X019995Y004967D02*
X020004Y003141D01*
X019805Y002891D01*
X019754Y002891D02*
X020004Y003141D01*
X019754Y002891D02*
X019504Y003391D01*
X019254Y003391D01*
X018504Y004391D01*
X019504Y005391D02*
X019974Y005861D01*
X020334Y005761D01*
X020083Y005771D01*
X019974Y005861D02*
X020754Y006361D01*
X024444Y006361D01*
X024594Y006131D01*
X025151Y006101D01*
X025064Y006113D01*
X025104Y006421D02*
X024754Y006441D01*
X024524Y006741D01*
X024284Y006891D01*
X022555Y006891D01*
X021453Y006891D02*
X020504Y006891D01*
X021185Y005771D02*
X021924Y005771D01*
X022754Y005891D01*
X022704Y005802D01*
X023734Y005791D02*
X025064Y005798D01*
X025614Y005811D01*
X025594Y006401D01*
X025094Y006451D01*
X025064Y006428D01*
X025104Y006421D01*
X025064Y006428D02*
X025061Y006431D01*
X025064Y006743D02*
X024526Y007141D01*
X024534Y007141D01*
X020254Y008141D01*
X020504Y008641D02*
X020004Y009141D01*
X020504Y008641D02*
X025004Y007391D01*
X025754Y006641D01*
X026504Y006641D01*
X026904Y005491D01*
X026904Y004211D01*
X026911Y004208D01*
X026911Y003951D01*
X026914Y003948D01*
X027226Y003951D02*
X027244Y003941D01*
X027856Y003951D02*
X028114Y003761D01*
X028504Y003391D01*
X028504Y003442D01*
X029504Y003840D02*
X030004Y003391D01*
X030254Y002641D01*
X030504Y002391D01*
X029504Y002391D02*
X029254Y002141D01*
X028254Y002141D01*
X028504Y002340D01*
X026604Y002921D02*
X026594Y002981D01*
X026594Y003221D01*
X026594Y003311D02*
X026596Y003951D01*
X026004Y004891D02*
X026004Y005041D01*
X025574Y005471D01*
X025076Y005471D01*
X025064Y005483D01*
X025064Y005798D02*
X025061Y005801D01*
X026044Y005801D01*
X026134Y005891D01*
X026144Y005941D01*
X027254Y006141D02*
X027714Y005831D01*
X028444Y005801D01*
X028444Y005798D01*
X028444Y005483D02*
X029161Y005483D01*
X029254Y005891D01*
X028976Y006113D01*
X028444Y006113D01*
X028444Y006428D02*
X029041Y006428D01*
X029254Y006641D01*
X029254Y007141D01*
X029504Y007391D01*
X029504Y007491D01*
X030904Y007491D01*
X031004Y007391D01*
X031004Y007590D01*
X030754Y006692D02*
X030004Y006141D01*
X029254Y005891D01*
X028446Y006741D02*
X028624Y007241D01*
X028754Y007641D01*
X028754Y010641D01*
X029504Y011391D01*
X029504Y011291D01*
X029754Y011391D01*
X031004Y011391D01*
X031004Y011442D01*
X031004Y010340D02*
X031004Y009641D01*
X031004Y008692D01*
X031004Y008641D01*
X028004Y007641D02*
X028004Y010641D01*
X027504Y011141D01*
X025754Y011141D01*
X025254Y011641D01*
X023754Y011641D02*
X023754Y010141D01*
X025754Y009141D01*
X026768Y008621D01*
X026904Y008398D01*
X026904Y007338D01*
X026911Y007331D01*
X026914Y007328D01*
X027226Y007331D02*
X027254Y008071D01*
X027254Y008141D01*
X027004Y009141D01*
X025254Y009891D01*
X025254Y010641D01*
X027254Y010641D02*
X027254Y009641D01*
X027544Y009101D01*
X027544Y007801D01*
X027554Y007801D01*
X027554Y007811D01*
X027554Y007801D02*
X027554Y007343D01*
X027541Y007331D01*
X027856Y007331D02*
X028004Y007641D01*
X027254Y008071D02*
X027234Y008088D01*
X026594Y008091D02*
X026436Y008323D01*
X025004Y008891D01*
X022754Y009891D01*
X021754Y011641D01*
X020504Y010891D02*
X022004Y009641D01*
X025504Y008331D01*
X026130Y008101D01*
X026294Y007866D01*
X026294Y007343D01*
X026281Y007331D01*
X026594Y007333D02*
X026594Y008091D01*
X026594Y007333D02*
X026596Y007331D01*
X027254Y006141D02*
X027784Y005801D01*
X027784Y005281D01*
X027904Y005161D01*
X028441Y005171D01*
X028444Y005168D01*
X028444Y004853D02*
X028046Y004861D01*
X028086Y004861D01*
X028046Y004861D02*
X027344Y004861D01*
X028494Y004551D02*
X028504Y004541D01*
X029254Y004641D01*
X029504Y004891D01*
X029504Y004942D01*
X030754Y004641D02*
X030754Y005590D01*
X028446Y006741D02*
X028444Y006743D01*
X023884Y005802D02*
X023734Y005791D01*
X022704Y004700D02*
X022254Y004391D01*
X021504Y004391D01*
X021504Y002641D01*
X018703Y002891D02*
X018004Y003391D01*
X017004Y002141D02*
X017004Y005222D01*
X017161Y005454D01*
X018004Y005891D01*
X016754Y007391D02*
X015504Y006641D01*
X015254Y005641D02*
X015504Y005391D01*
X015474Y005540D01*
X015254Y005641D02*
X013254Y005641D01*
X013504Y005692D01*
X013504Y005641D01*
X012504Y005641D01*
X011561Y004562D01*
X011324Y004391D01*
X009864Y004391D01*
X009754Y004891D01*
X009703Y005141D01*
X009864Y004391D02*
X009860Y002810D01*
X010805Y005141D02*
X010904Y005481D01*
X010900Y005482D01*
X011004Y005891D01*
X010900Y005482D02*
X010864Y005341D01*
X010077Y006887D02*
X010309Y007058D01*
X010504Y007641D01*
X011294Y007641D01*
X011294Y008141D02*
X010305Y008141D01*
X009805Y007641D01*
X010004Y008391D02*
X009254Y008391D01*
X008703Y007641D01*
X007754Y006840D02*
X010077Y006887D01*
X011294Y008141D02*
X011504Y008141D01*
X011294Y008641D02*
X010504Y008641D01*
X010004Y008391D01*
X009754Y009090D02*
X009754Y009141D01*
X011294Y009141D01*
X011294Y009641D02*
X008555Y009641D01*
X008504Y009641D01*
X009754Y010141D02*
X011294Y010141D01*
X009754Y010192D02*
X009754Y010141D01*
X011435Y011472D02*
X012004Y011891D01*
X014315Y011891D01*
X014556Y011710D01*
X015004Y010141D01*
X013714Y010141D01*
X013714Y009641D02*
X015004Y009641D01*
X015004Y010141D02*
X015004Y010192D01*
X015065Y010175D01*
X015128Y010160D01*
X015191Y010149D01*
X015254Y010141D01*
X017004Y011641D02*
X018004Y010641D01*
X019004Y010641D02*
X019004Y010141D01*
X019004Y010641D02*
X019254Y010641D01*
X019504Y010891D02*
X020504Y010891D01*
X019504Y010891D02*
X019004Y011641D01*
X013754Y004641D02*
X013504Y004590D01*
X013504Y004641D01*
X013754Y004641D02*
X013754Y003391D01*
X013797Y002810D01*
D28*
X018004Y003391D03*
X021924Y005771D03*
X020504Y006891D03*
X016754Y007391D03*
X016004Y009641D03*
X007504Y008891D03*
X006004Y010141D03*
X003504Y004891D03*
X003004Y004891D03*
X022754Y003951D03*
X024254Y003891D03*
X024934Y004001D03*
X025254Y003391D03*
X026004Y004891D03*
X027344Y004861D03*
X026144Y005941D03*
X027254Y006141D03*
X029254Y005891D03*
X031004Y009641D03*
D29*
X006004Y010141D02*
X006004Y007891D01*
X005254Y007391D01*
X005254Y003891D01*
X005004Y003641D01*
X003004Y003641D01*
X003004Y003631D01*
X003004Y004891D02*
X003504Y004891D01*
X003004Y004891D02*
X003004Y006151D01*
X005004Y003641D02*
X005004Y002641D01*
M02*
