%
M48
M72
T01C0.0276
T02C0.0280
T03C0.0315
T04C0.0360
T05C0.0400
%
T01
X3004Y4891
X3504Y4891
X7504Y8891
X6004Y10141
X16004Y9641
X16754Y7391
X20504Y6891
X21924Y5771
X22754Y3951
X24254Y3891
X24934Y4001
X25254Y3391
X26004Y4891
X27344Y4861
X26144Y5941
X27254Y6141
X29254Y5891
X31004Y9641
X18004Y3391
T02
X2754Y2391
X15504Y3391
X15504Y4391
X5504Y11641
T03
X6710Y11472
X7498Y11472
X8285Y11472
X9073Y11472
X9860Y11472
X10647Y11472
X11435Y11472
X12222Y11472
X13010Y11472
X13797Y11472
X13797Y2810
X13010Y2810
X12222Y2810
X11435Y2810
X10647Y2810
X9860Y2810
X9073Y2810
X8285Y2810
X7498Y2810
X6710Y2810
T04
X5004Y2641
X4004Y2641
X29504Y2391
X30504Y2391
X30754Y3641
X30754Y4641
T05
X27254Y10641
X26254Y10641
X25254Y10641
X25254Y11641
X26254Y11641
X27254Y11641
X23754Y11641
X22754Y11641
X21754Y11641
X20754Y11641
X19004Y11641
X18004Y11641
X17004Y11641
X16004Y11641
X18004Y10141
X19004Y10141
X20004Y10141
X20004Y9141
X19004Y9141
X18004Y9141
X18004Y7891
X19004Y7891
X19004Y6891
X18004Y6891
X18004Y5891
X19004Y5891
X19504Y4391
X20504Y4391
X21504Y4391
X18504Y4391
X3504Y7391
X2504Y7391
X2504Y8391
X3504Y8391
X3504Y9391
X2504Y9391
X2504Y10391
X3504Y10391
X3504Y11391
X2504Y11391
M30
