  0
SECTION
  2
HEADER
  9
$ACADVER
  1
AC1015
  9
$ACADMAINTVER
 70
     6
  9
$DWGCODEPAGE
  3
ANSI_932
  9
$INSBASE
 10
0.0
 20
0.0
 30
0.0
  9
$EXTMIN
 10
-116.063889
 20
-116.063889
 30
1.000000E+20
  9
$EXTMAX
 10
116.063889
 20
116.063889
 30
-1.000000E+20
  9
$LIMMIN
 10
-116.063889
 20
-116.063889
  9
$LIMMAX
 10
116.063889
 20
116.063889
  9
$ORTHOMODE
 70
     0
  9
$REGENMODE
 70
     1
  9
$FILLMODE
 70
     1
  9
$QTEXTMODE
 70
     0
  9
$MIRRTEXT
 70
     1
  9
$LTSCALE
 40
1.0
  9
$ATTMODE
 70
     1
  9
$TEXTSIZE
 40
0.2
  9
$TRACEWID
 40
0.05
  9
$TEXTSTYLE
  7
Standard
  9
$CLAYER
  8
0
  9
$CELTYPE
  6
Continuous
  9
$CECOLOR
 62
   256
  9
$CELTSCALE
 40
1.0
  9
$DISPSILH
 70
     0
  9
$DIMSCALE
 40
1.0
  9
$DIMASZ
 40
0.18
  9
$DIMEXO
 40
0.0625
  9
$DIMDLI
 40
0.38
  9
$DIMRND
 40
0.0
  9
$DIMDLE
 40
0.0
  9
$DIMEXE
 40
0.18
  9
$DIMTP
 40
0.0
  9
$DIMTM
 40
0.0
  9
$DIMTXT
 40
0.18
  9
$DIMCEN
 40
0.09
  9
$DIMTSZ
 40
0.0
  9
$DIMTOL
 70
     0
  9
$DIMLIM
 70
     0
  9
$DIMTIH
 70
     1
  9
$DIMTOH
 70
     1
  9
$DIMSE1
 70
     0
  9
$DIMSE2
 70
     0
  9
$DIMTAD
 70
     0
  9
$DIMZIN
 70
     0
  9
$DIMBLK
  1

  9
$DIMASO
 70
     1
  9
$DIMSHO
 70
     1
  9
$DIMPOST
  1

  9
$DIMAPOST
  1

  9
$DIMALT
 70
     0
  9
$DIMALTD
 70
     2
  9
$DIMALTF
 40
25.4
  9
$DIMLFAC
 40
1.0
  9
$DIMTOFL
 70
     0
  9
$DIMTVP
 40
0.0
  9
$DIMTIX
 70
     0
  9
$DIMSOXD
 70
     0
  9
$DIMSAH
 70
     0
  9
$DIMBLK1
  1

  9
$DIMBLK2
  1

  9
$DIMSTYLE
  2
Standard
  9
$DIMCLRD
 70
     0
  9
$DIMCLRE
 70
     0
  9
$DIMCLRT
 70
     0
  9
$DIMTFAC
 40
1.0
  9
$DIMGAP
 40
0.09
  9
$DIMJUST
 70
     0
  9
$DIMSD1
 70
     0
  9
$DIMSD2
 70
     0
  9
$DIMTOLJ
 70
     1
  9
$DIMTZIN
 70
     0
  9
$DIMALTZ
 70
     0
  9
$DIMALTTZ
 70
     0
  9
$DIMUPT
 70
     0
  9
$DIMDEC
 70
     4
  9
$DIMTDEC
 70
     4
  9
$DIMALTU
 70
     2
  9
$DIMALTTD
 70
     2
  9
$DIMTXSTY
  7
Standard
  9
$DIMAUNIT
 70
     0
  9
$DIMADEC
 70
     0
  9
$DIMALTRND
 40
0.0
  9
$DIMAZIN
 70
     0
  9
$DIMDSEP
 70
     0
  9
$DIMATFIT
 70
     3
  9
$DIMFRAC
 70
     0
  9
$DIMLDRBLK
  1

  9
$DIMLUNIT
 70
     2
  9
$DIMLWD
 70
     0
  9
$DIMLWE
 70
     0
  9
$DIMTMOVE
 70
     0
  9
$LUNITS
 70
     2
  9
$LUPREC
 70
     4
  9
$SKETCHINC
 40
0.1
  9
$FILLETRAD
 40
0.0
  9
$AUNITS
 70
     0
  9
$AUPREC
 70
     0
  9
$MENU
  1
acad
  9
$ELEVATION
 40
0.0
  9
$PELEVATION
 40
0.0
  9
$THICKNESS
 40
0.0
  9
$LIMCHECK
 70
     0
  9
$CHAMFERA
 40
0.0
  9
$CHAMFERB
 40
0.0
  9
$CHAMFERC
 40
0.0
  9
$CHAMFERD
 40
0.0
  9
$SKPOLY
 70
     0
  9
$TDCREATE
 40
0.000000000
  9
$TDUCREATE
 40
0.000000000
  9
$TDUPDATE
 40
0.000000000
  9
$TDUUPDATE
 40
0.000000000
  9
$TDINDWG
 40
0.0000000000
  9
$TDUSRTIMER
 40
0.0000000000
  9
$USRTIMER
 70
     1
  9
$ANGBASE
 50
0.0
  9
$ANGDIR
 70
     0
  9
$PDMODE
 70
     0
  9
$PDSIZE
 40
0.0
  9
$PLINEWID
 40
0.0
  9
$SPLFRAME
 70
     0
  9
$SPLINETYPE
 70
     6
  9
$SPLINESEGS
 70
     8
  9
$HANDSEED
  5
6D
  9
$SURFTAB1
 70
     6
  9
$SURFTAB2
 70
     6
  9
$SURFTYPE
 70
     6
  9
$SURFU
 70
     6
  9
$SURFV
 70
     6
  9
$UCSBASE
  2

  9
$UCSNAME
  2

  9
$UCSORG
 10
0.0
 20
0.0
 30
0.0
  9
$UCSXDIR
 10
1.0
 20
0.0
 30
0.0
  9
$UCSYDIR
 10
0.0
 20
1.0
 30
0.0
  9
$UCSORTHOREF
  2

  9
$UCSORTHOVIEW
 70
     0
  9
$UCSORGTOP
 10
0.0
 20
0.0
 30
0.0
  9
$UCSORGBOTTOM
 10
0.0
 20
0.0
 30
0.0
  9
$UCSORGLEFT
 10
0.0
 20
0.0
 30
0.0
  9
$UCSORGRIGHT
 10
0.0
 20
0.0
 30
0.0
  9
$UCSORGFRONT
 10
0.0
 20
0.0
 30
0.0
  9
$UCSORGBACK
 10
0.0
 20
0.0
 30
0.0
  9
$PUCSBASE
  2

  9
$PUCSNAME
  2

  9
$PUCSORG
 10
0.0
 20
0.0
 30
0.0
  9
$PUCSXDIR
 10
1.0
 20
0.0
 30
0.0
  9
$PUCSYDIR
 10
0.0
 20
1.0
 30
0.0
  9
$PUCSORTHOREF
  2

  9
$PUCSORTHOVIEW
 70
     0
  9
$PUCSORGTOP
 10
0.0
 20
0.0
 30
0.0
  9
$PUCSORGBOTTOM
 10
0.0
 20
0.0
 30
0.0
  9
$PUCSORGLEFT
 10
0.0
 20
0.0
 30
0.0
  9
$PUCSORGRIGHT
 10
0.0
 20
0.0
 30
0.0
  9
$PUCSORGFRONT
 10
0.0
 20
0.0
 30
0.0
  9
$PUCSORGBACK
 10
0.0
 20
0.0
 30
0.0
  9
$USERI1
 70
     0
  9
$USERI2
 70
     0
  9
$USERI3
 70
     0
  9
$USERI4
 70
     0
  9
$USERI5
 70
     0
  9
$USERR1
 40
0.0
  9
$USERR2
 40
0.0
  9
$USERR3
 40
0.0
  9
$USERR4
 40
0.0
  9
$USERR5
 40
0.0
  9
$WORLDVIEW
 70
     1
  9
$SHADEDGE
 70
     3
  9
$SHADEDIF
 70
    70
  9
$TILEMODE
 70
     1
  9
$MAXACTVP
 70
    16
  9
$PINSBASE
 10
0.0
 20
0.0
 30
0.0
  9
$PLIMCHECK
 70
     0
  9
$PEXTMIN
 10
1.000000E+20
 20
1.000000E+20
 30
1.000000E+20
  9
$PEXTMAX
 10
-1.000000E+20
 20
-1.000000E+20
 30
-1.000000E+20
  9
$PLIMMIN
 10
0.0
 20
0.0
  9
$PLIMMAX
 10
12.0
 20
9.0
  9
$UNITMODE
 70
     0
  9
$VISRETAIN
 70
     0
  9
$PLINEGEN
 70
     1
  9
$PSLTSCALE
 70
     0
  9
$TREEDEPTH
 70
  3020
  9
$CMLSTYLE
  2
Standard
  9
$CMLJUST
 70
     0
  9
$CMLSCALE
 40
1.0
  9
$PROXYGRAPHICS
 70
     0
  9
$MEASUREMENT
 70
     0
  9
$CELWEIGHT
370
     0
  9
$ENDCAPS
280
     0
  9
$JOINSTYLE
280
     0
  9
$LWDISPLAY
290
     0
  9
$INSUNITS
 70
     0
  9
$HYPERLINKBASE
  1

  9
$XEDIT
290
     1
  9
$CEPSNTYPE
380
     0
  9
$PSTYLEMODE
290
     1
  9
$FINGERPRINTGUID
  2

  9
$VERSIONGUID
  2

  9
$EXTNAMES
290
     1
  9
$PSVPSCALE
 40
0.0
  0
ENDSEC
  0
SECTION
  2
CLASSES
  0
CLASS
  1
LWPOLYLINE
  2
AcDbPolyline
  3
"AutoCAD"
 90
        0
280
     0
281
     1
  0
CLASS
  1
IMAGE
  2
AcDbRasterImage
  3
ISM
 90
      127
280
     0
281
     1
  0
CLASS
  1
OLE2FRAME
  2
AcDbOle2Frame
  3
""
 90
        0
280
     0
281
     1
  0
CLASS
  1
HATCH
  2
AcDbHatch
  3
"ACAD_SEDONA"
 90
        0
280
     0
281
     1
  0
CLASS
  1
DICTIONARYVAR
  2
AcDbDictionaryVar
  3
"AutoCAD"
 90
        0
280
     0
281
     0
  0
CLASS
  1
RASTERVARIABLES
  2
AcDbRasterVariables
  3
ISM
 90
        0
280
     0
281
     0
  0
CLASS
  1
IMAGEDEF
  2
AcDbRasterImageDef
  3
ISM
 90
        0
280
     0
281
     0
  0
CLASS
  1
IMAGEDEF_REACTOR
  2
AcDbRasterImageDefReactor
  3
ISM
 90
        1
280
     0
281
     0
  0
CLASS
  1
IDBUFFER
  2
AcDbIdBuffer
  3
"Acad"
 90
        0
280
     0
281
     0
  0
CLASS
  1
SPATIAL_FILTER
  2
AcDbSpatialFilter
  3
"Acad"
 90
        0
280
     0
281
     0
  0
CLASS
  1
XRECORD
  2
AcDbXrecord
  3
"<Built In>"
 90
        0
280
     0
281
     0
  0
CLASS
  1
SORTENTSTABLE
  2
AcDbSortentsTable
  3
"AutoCAD"
 90
        0
280
     0
281
     0
  0
CLASS
  1
LAYER_INDEX
  2
AcDbLayerIndex
  3
"Acad"
 90
        0
280
     0
281
     0
  0
CLASS
  1
SPATIAL_INDEX
  2
AcDbSpatialIndex
  3
"Acad"
 90
        0
280
     0
281
     0
  0
CLASS
  1
OBJECT_PTR
  2
CAseDLPNTableRecord
  3
"ASE-LPNTableRecord"
 90
        1
280
     0
281
     0
  0
CLASS
  1
LAYOUT
  2
AcDbLayout
  3
"AutoCAD 2000"
 90
        1
280
     0
281
     0
  0
CLASS
  1
PLOTSETTINGS
  2
AcDbPlotSettings
  3
"AutoCAD 2000"
 90
        1
280
     0
281
     0
  0
CLASS
  1
ACDBDICTIONARYWDFLT
  2
AcDbDictionaryWithDefault
  3
"AutoCAD 2000"
 90
        1
280
     0
281
     0
  0
CLASS
  1
ACDBPLACEHOLDER
  2
AcDbPlaceHolder
  3
"AutoCAD 2000"
 90
        1
280
     0
281
     0
  0
CLASS
  1
VBA_PROJECT
  2
AcDbVbaProject
  3
"acadvba"
 90
        1
280
     0
281
     0
  0
CLASS
  1
WIPEOUT
  2
AcDbWipeout
  3
WipeOut|AutoCAD Express Tool|expresstools@autodesk.com
 90
      127
280
     0
281
     1
  0
CLASS
  1
WIPEOUTVARIABLES
  2
AcDbWipeoutVariables
  3
WipeOut|AutoCAD Express Tool|expresstools@autodesk.com
 90
        0
280
     0
281
     0
  0
CLASS
  1
RTEXT
  2
RText
  3
RText|AutoCAD Express Tool|expresstools@autodesk.com
 90
        0
280
     0
281
     1
  0
CLASS
  1
ARCALIGNEDTEXT
  2
AcDbArcAlignedText
  3
ATEXT|AutoCAD Express Tool|expresstools@autodesk.com
 90
        0
280
     0
281
     1
  0
ENDSEC
  0
SECTION
  2
TABLES
  0
TABLE
  2
VPORT
  5
7
100
AcDbSymbolTable
 70
     1
  0
VPORT
  5
15
100
AcDbSymbolTableRecord
100
AcDbViewportTableRecord
  2
*ACTIVE
 70
     0
 10
0.0
 20
0.0
 11
1.0
 21
1.0
 12
6.591288
 22
4.579184
 13
0.0
 23
0.0
 14
1.0
 24
1.0
 15
0.0
 25
0.0
 16
0.0
 26
0.0
 36
1.0
 17
0.0
 27
0.0
 37
0.0
 40
9.158369
 41
0.688564
 42
50.0
 43
0.0
 44
0.0
 50
0.0
 51
0.0
 71
     0
 72
   100
 73
     1
 74
     1
 75
     0
 76
     0
 77
     0
 78
     0
281
     0
 65
     0
110
0.0
120
0.0
130
0.0
111
1.0
121
0.0
131
0.0
112
0.0
122
1.0
132
0.0
345
0
346
0
 79
     0
146
0.0
  0
ENDTAB
  0
TABLE
  2
LTYPE
  5
4
100
AcDbSymbolTable
 70
     3
  0
LTYPE
  5
11
100
AcDbSymbolTableRecord
100
AcDbLinetypeTableRecord
  2
ByBlock
 70
    64
  3

 72
    65
 73
     0
 40
0.0
  0
LTYPE
  5
12
100
AcDbSymbolTableRecord
100
AcDbLinetypeTableRecord
  2
ByLayer
 70
    64
  3

 72
    65
 73
     0
 40
0.0
  0
LTYPE
  5
13
100
AcDbSymbolTableRecord
100
AcDbLinetypeTableRecord
  2
Continuous
 70
    64
  3
Solid line
 72
    65
 73
     0
 40
0.0
  0
ENDTAB
  0
TABLE
  2
LAYER
  5
2
100
AcDbSymbolTable
 70
     2
  0
LAYER
  5
14
100
AcDbSymbolTableRecord
100
AcDbLayerTableRecord
  2
0
 70
     0
 62
     7
  6
Continuous
290
     1
370
    -3
390
1D
  0
LAYER
  5
28
100
AcDbSymbolTableRecord
100
AcDbLayerTableRecord
  2
DXF_OUTPUT
 70
     0
 62
     7
  6
Continuous
290
     1
370
    -3
390
1F
  0
ENDTAB
  0
TABLE
  2
STYLE
  5
3
100
AcDbSymbolTable
 70
     5
  0
STYLE
  5
17
100
AcDbSymbolTableRecord
100
AcDbTextStyleTableRecord
  2
Standard
 70
     0
 40
0.0
 41
1.0
 50
0.0
 71
     0
 42
0.0
  3
txt
  4

  0
STYLE
  5
24
100
AcDbSymbolTableRecord
100
AcDbTextStyleTableRecord
  2
STD
 70
     0
 40
0.0
 41
1.0
 50
0.0
 71
     0
 42
0.0
  3
txt
  4

  0
STYLE
  5
25
100
AcDbSymbolTableRecord
100
AcDbTextStyleTableRecord
  2
TATESTD
 70
     4
 40
0.0
 41
1.0
 50
0.0
 71
     0
 42
0.0
  3
txt
  4

  0
STYLE
  5
26
100
AcDbSymbolTableRecord
100
AcDbTextStyleTableRecord
  2
KANJISTD
 70
     0
 40
0.0
 41
1.0
 50
0.0
 71
     0
 42
0.0
  3
txt
  4
extfont
  0
STYLE
  5
27
100
AcDbSymbolTableRecord
100
AcDbTextStyleTableRecord
  2
KANJITATE
 70
     4
 40
0.0
 41
1.0
 50
0.0
 71
     0
 42
0.0
  3
txt
  4
extfont
  0
ENDTAB
  0
TABLE
  2
VIEW
  5
5
100
AcDbSymbolTable
 70
     0
  0
ENDTAB
  0
TABLE
  2
UCS
  5
6
100
AcDbSymbolTable
 70
     0
  0
ENDTAB
  0
TABLE
  2
APPID
  5
8
100
AcDbSymbolTable
 70
     1
  0
APPID
  5
16
100
AcDbSymbolTableRecord
100
AcDbRegAppTableRecord
  2
ACAD
 70
     0
  0
ENDTAB
  0
TABLE
  2
DIMSTYLE
  5
9
100
AcDbSymbolTable
 70
     1
100
AcDbDimStyleTable
 71
     0
  0
DIMSTYLE
105
18
100
AcDbSymbolTableRecord
100
AcDbDimStyleTableRecord
  2
Standard
 70
     0
  3

  4

 40
1.0
 41
0.18
 42
0.0625
 43
0.38
 44
0.18
 45
0.0
 46
0.0
 47
0.0
 48
0.0
 71
     0
 72
     0
 73
     1
 74
     1
 75
     0
 76
     0
 77
     0
 78
     0
 79
     0
140
0.18
141
0.09
142
0.0
143
25.4
144
1.0
145
0.0
146
1.0
147
0.09
148
0.0
170
     0
171
     2
172
     0
173
     0
174
     0
175
     0
176
     0
177
     0
178
     0
179
     0
271
     4
272
     4
273
     2
274
     2
275
     0
276
     0
277
     2
278
    46
279
     0
280
     0
281
     0
282
     0
283
     1
284
     0
285
     0
286
     0
288
     0
340
17
341
0
342
0
343
0
344
0
371
    -2
372
    -2
  0
ENDTAB
  0
TABLE
  2
BLOCK_RECORD
  5
1
100
AcDbSymbolTable
 70
     6
  0
BLOCK_RECORD
  5
A
100
AcDbSymbolTableRecord
100
AcDbBlockTableRecord
  2
*MODEL_SPACE
340
20
  0
BLOCK_RECORD
  5
B
100
AcDbSymbolTableRecord
100
AcDbBlockTableRecord
  2
*PAPER_SPACE
340
21
  0
BLOCK_RECORD
  5
2A
100
AcDbSymbolTableRecord
100
AcDbBlockTableRecord
  2
AI9-BLK1
340
0
  0
BLOCK_RECORD
  5
3D
100
AcDbSymbolTableRecord
100
AcDbBlockTableRecord
  2
AI9-BLK2
340
0
  0
BLOCK_RECORD
  5
45
100
AcDbSymbolTableRecord
100
AcDbBlockTableRecord
  2
AI9-BLK3
340
0
  0
BLOCK_RECORD
  5
5A
100
AcDbSymbolTableRecord
100
AcDbBlockTableRecord
  2
AI9-BLK4
340
0
  0
BLOCK_RECORD
  5
60
100
AcDbSymbolTableRecord
100
AcDbBlockTableRecord
  2
AI9-BLK5
340
0
  0
BLOCK_RECORD
  5
66
100
AcDbSymbolTableRecord
100
AcDbBlockTableRecord
  2
AI9-BLK6
340
0
  0
ENDTAB
  0
ENDSEC
  0
SECTION
  2
BLOCKS
  0
BLOCK
  5
D
100
AcDbEntity
  8
0
100
AcDbBlockBegin
  2
*MODEL_SPACE
 70
     0
 10
0.0
 20
0.0
 30
0.0
  3
*MODEL_SPACE
  1

  0
ENDBLK
  5
E
100
AcDbEntity
  8
0
100
AcDbBlockEnd
  0
BLOCK
  5
F
100
AcDbEntity
 67
     1
  8
0
100
AcDbBlockBegin
  2
*PAPER_SPACE
 70
     0
 10
0.0
 20
0.0
 30
0.0
  3
*PAPER_SPACE
  1

  0
ENDBLK
  5
10
100
AcDbEntity
 67
     1
  8
0
100
AcDbBlockEnd
  0
BLOCK
  5
2C
100
AcDbEntity
  8
DXF_OUTPUT
 62
     7
100
AcDbBlockBegin
  2
AI9-BLK1
 70
     0
 10
0.0
 20
0.0
 30
0.0
  3
AI9-BLK1
  1

  0
LINE
  5
36
100
AcDbEntity
  8
DXF_OUTPUT
 62
     7
100
AcDbLine
 10
-5.079793
 20
7.150296
 30
0.0
 11
-5.079793
 21
-7.15064
 31
0.0
  0
SPLINE
  5
35
100
AcDbEntity
  8
DXF_OUTPUT
 62
     7
100
AcDbSpline
210
0.0
220
0.0
230
1.0
 70
     8
 71
     3
 72
    11
 73
     7
 74
     0
 42
0.00000001
 43
0.00000001
 40
0.0
 40
0.0
 40
0.0
 40
0.0
 40
1.0
 40
1.0
 40
1.0
 40
2.0
 40
2.0
 40
2.0
 40
2.0
 10
-2.0990966796874999
 20
9.6517795138888882
 30
0.0
 10
-3.4805799696180553
 20
9.8953477647569432
 30
0.0
 10
-4.7979844835069443
 20
8.9730957031249989
 30
0.0
 10
-5.0412082248263888
 20
7.5916124131944436
 30
0.0
 10
-5.0670464409722218
 20
7.4458848741319441
 30
0.0
 10
-5.079793294270833
 20
7.2984347873263884
 30
0.0
 10
-5.079793294270833
 20
7.1502956814236107
 30
0.0
  0
LINE
  5
34
100
AcDbEntity
  8
DXF_OUTPUT
 62
     7
100
AcDbLine
 10
2.981041
 20
8.756055
 30
0.0
 11
-2.099097
 21
9.65178
 31
0.0
  0
SPLINE
  5
33
100
AcDbEntity
  8
DXF_OUTPUT
 62
     7
100
AcDbSpline
210
0.0
220
0.0
230
1.0
 70
     8
 71
     3
 72
     8
 73
     4
 74
     0
 42
0.00000001
 43
0.00000001
 40
0.0
 40
0.0
 40
0.0
 40
0.0
 40
1.0
 40
1.0
 40
1.0
 40
1.0
 10
5.079793294270833
 20
6.2545708550347214
 30
0.0
 10
5.079793294270833
 20
7.4872260199652771
 30
0.0
 10
4.1950927734374996
 20
8.5421142578125
 30
0.0
 10
2.9810411241319441
 20
8.7560546874999989
 30
0.0
  0
LINE
  5
32
100
AcDbEntity
  8
DXF_OUTPUT
 62
     7
100
AcDbLine
 10
5.079793
 20
-6.254915
 30
0.0
 11
5.079793
 21
6.254571
 31
0.0
  0
LINE
  5
31
100
AcDbEntity
  8
DXF_OUTPUT
 62
     7
100
AcDbLine
 10
-2.099097
 20
-9.652124
 30
0.0
 11
2.981041
 21
-8.756399
 31
0.0
  0
SPLINE
  5
30
100
AcDbEntity
  8
DXF_OUTPUT
 62
     7
100
AcDbSpline
210
0.0
220
0.0
230
1.0
 70
     8
 71
     3
 72
    11
 73
     7
 74
     0
 42
0.00000001
 43
0.00000001
 40
0.0
 40
0.0
 40
0.0
 40
0.0
 40
1.0
 40
1.0
 40
1.0
 40
2.0
 40
2.0
 40
2.0
 40
2.0
 10
-5.079793294270833
 20
-7.1506401909722213
 30
0.0
 10
-5.079793294270833
 20
-8.5534830729166664
 30
0.0
 10
-3.9429117838541665
 20
-9.6907090928819439
 30
0.0
 10
-2.5400689019097218
 20
-9.6907090928819439
 30
0.0
 10
-2.3919297960069441
 20
-9.6907090928819439
 30
0.0
 10
-2.2444797092013888
 20
-9.6776177300347221
 30
0.0
 10
-2.0990966796874999
 20
-9.6521240234374996
 30
0.0
  0
SPLINE
  5
2F
100
AcDbEntity
  8
DXF_OUTPUT
 62
     7
100
AcDbSpline
210
0.0
220
0.0
230
1.0
 70
     8
 71
     3
 72
     8
 73
     4
 74
     0
 42
0.00000001
 43
0.00000001
 40
0.0
 40
0.0
 40
0.0
 40
0.0
 40
1.0
 40
1.0
 40
1.0
 40
1.0
 10
2.9810411241319441
 20
-8.7563991970486104
 30
0.0
 10
4.1950927734374996
 20
-8.5424587673611097
 30
0.0
 10
5.079793294270833
 20
-7.4875705295138886
 30
0.0
 10
5.079793294270833
 20
-6.2549153645833329
 30
0.0
  0
CIRCLE
  5
2E
100
AcDbEntity
  8
DXF_OUTPUT
 62
     7
100
AcDbCircle
 10
0.0
 20
12.496739
 30
0.0
 40
1.143083
  0
CIRCLE
  5
2D
100
AcDbEntity
  8
DXF_OUTPUT
 62
     7
100
AcDbCircle
 10
0.0
 20
-12.496912
 30
0.0
 40
1.14291
  0
ENDBLK
  5
37
100
AcDbEntity
  8
DXF_OUTPUT
100
AcDbBlockEnd
  0
BLOCK
  5
3F
100
AcDbEntity
  8
DXF_OUTPUT
 62
     7
100
AcDbBlockBegin
  2
AI9-BLK2
 70
     0
 10
0.0
 20
0.0
 30
0.0
  3
AI9-BLK2
  1

  0
CIRCLE
  5
43
100
AcDbEntity
  8
DXF_OUTPUT
 62
     7
100
AcDbCircle
 10
-40.639983
 20
-42.8625
 30
0.0
 40
1.5875
  0
CIRCLE
  5
42
100
AcDbEntity
  8
DXF_OUTPUT
 62
     7
100
AcDbCircle
 10
40.639983
 20
42.8625
 30
0.0
 40
1.5875
  0
CIRCLE
  5
41
100
AcDbEntity
  8
DXF_OUTPUT
 62
     7
100
AcDbCircle
 10
36.830052
 20
-42.227569
 30
0.0
 40
1.5875
  0
CIRCLE
  5
40
100
AcDbEntity
  8
DXF_OUTPUT
 62
     7
100
AcDbCircle
 10
-39.369948
 20
42.8625
 30
0.0
 40
1.5875
  0
ENDBLK
  5
44
100
AcDbEntity
  8
DXF_OUTPUT
100
AcDbBlockEnd
  0
BLOCK
  5
47
100
AcDbEntity
  8
DXF_OUTPUT
 62
     7
100
AcDbBlockBegin
  2
AI9-BLK3
 70
     0
 10
0.0
 20
0.0
 30
0.0
  3
AI9-BLK3
  1

  0
LINE
  5
51
100
AcDbEntity
  8
DXF_OUTPUT
 62
     7
100
AcDbLine
 10
5.079793
 20
-7.150296
 30
0.0
 11
5.079793
 21
7.15064
 31
0.0
  0
SPLINE
  5
50
100
AcDbEntity
  8
DXF_OUTPUT
 62
     7
100
AcDbSpline
210
0.0
220
0.0
230
1.0
 70
     8
 71
     3
 72
    11
 73
     7
 74
     0
 42
0.00000001
 43
0.00000001
 40
0.0
 40
0.0
 40
0.0
 40
0.0
 40
1.0
 40
1.0
 40
1.0
 40
2.0
 40
2.0
 40
2.0
 40
2.0
 10
2.0990966796874999
 20
-9.6517795138888882
 30
0.0
 10
3.4805799696180553
 20
-9.8953477647569432
 30
0.0
 10
4.7979844835069443
 20
-8.9730957031249989
 30
0.0
 10
5.0412082248263888
 20
-7.5916124131944436
 30
0.0
 10
5.0670464409722218
 20
-7.4458848741319441
 30
0.0
 10
5.079793294270833
 20
-7.2984347873263884
 30
0.0
 10
5.079793294270833
 20
-7.1502956814236107
 30
0.0
  0
LINE
  5
4F
100
AcDbEntity
  8
DXF_OUTPUT
 62
     7
100
AcDbLine
 10
-2.981041
 20
-8.756055
 30
0.0
 11
2.099097
 21
-9.65178
 31
0.0
  0
SPLINE
  5
4E
100
AcDbEntity
  8
DXF_OUTPUT
 62
     7
100
AcDbSpline
210
0.0
220
0.0
230
1.0
 70
     8
 71
     3
 72
     8
 73
     4
 74
     0
 42
0.00000001
 43
0.00000001
 40
0.0
 40
0.0
 40
0.0
 40
0.0
 40
1.0
 40
1.0
 40
1.0
 40
1.0
 10
-5.079793294270833
 20
-6.2545708550347214
 30
0.0
 10
-5.079793294270833
 20
-7.4872260199652771
 30
0.0
 10
-4.1950927734374996
 20
-8.5421142578125
 30
0.0
 10
-2.9810411241319441
 20
-8.7560546874999989
 30
0.0
  0
LINE
  5
4D
100
AcDbEntity
  8
DXF_OUTPUT
 62
     7
100
AcDbLine
 10
-5.079793
 20
6.254915
 30
0.0
 11
-5.079793
 21
-6.254571
 31
0.0
  0
LINE
  5
4C
100
AcDbEntity
  8
DXF_OUTPUT
 62
     7
100
AcDbLine
 10
2.099097
 20
9.652124
 30
0.0
 11
-2.981041
 21
8.756399
 31
0.0
  0
SPLINE
  5
4B
100
AcDbEntity
  8
DXF_OUTPUT
 62
     7
100
AcDbSpline
210
0.0
220
0.0
230
1.0
 70
     8
 71
     3
 72
    11
 73
     7
 74
     0
 42
0.00000001
 43
0.00000001
 40
0.0
 40
0.0
 40
0.0
 40
0.0
 40
1.0
 40
1.0
 40
1.0
 40
2.0
 40
2.0
 40
2.0
 40
2.0
 10
5.079793294270833
 20
7.1506401909722213
 30
0.0
 10
5.079793294270833
 20
8.5534830729166664
 30
0.0
 10
3.9429117838541665
 20
9.6907090928819439
 30
0.0
 10
2.5400689019097218
 20
9.6907090928819439
 30
0.0
 10
2.3919297960069441
 20
9.6907090928819439
 30
0.0
 10
2.2444797092013888
 20
9.6776177300347221
 30
0.0
 10
2.0990966796874999
 20
9.6521240234374996
 30
0.0
  0
SPLINE
  5
4A
100
AcDbEntity
  8
DXF_OUTPUT
 62
     7
100
AcDbSpline
210
0.0
220
0.0
230
1.0
 70
     8
 71
     3
 72
     8
 73
     4
 74
     0
 42
0.00000001
 43
0.00000001
 40
0.0
 40
0.0
 40
0.0
 40
0.0
 40
1.0
 40
1.0
 40
1.0
 40
1.0
 10
-2.9810411241319441
 20
8.7563991970486104
 30
0.0
 10
-4.1950927734374996
 20
8.5424587673611097
 30
0.0
 10
-5.079793294270833
 20
7.4875705295138886
 30
0.0
 10
-5.079793294270833
 20
6.2549153645833329
 30
0.0
  0
CIRCLE
  5
49
100
AcDbEntity
  8
DXF_OUTPUT
 62
     7
100
AcDbCircle
 10
0.0
 20
-12.496739
 30
0.0
 40
1.143083
  0
CIRCLE
  5
48
100
AcDbEntity
  8
DXF_OUTPUT
 62
     7
100
AcDbCircle
 10
0.0
 20
12.496912
 30
0.0
 40
1.14291
  0
ENDBLK
  5
52
100
AcDbEntity
  8
DXF_OUTPUT
100
AcDbBlockEnd
  0
BLOCK
  5
5C
100
AcDbEntity
  8
DXF_OUTPUT
 62
     7
100
AcDbBlockBegin
  2
AI9-BLK4
 70
     0
 10
0.0
 20
0.0
 30
0.0
  3
AI9-BLK4
  1

  0
CIRCLE
  5
5E
100
AcDbEntity
  8
DXF_OUTPUT
 62
     7
100
AcDbCircle
 10
-54.609931
 20
94.587336
 30
0.0
 40
1.587649
  0
CIRCLE
  5
5D
100
AcDbEntity
  8
DXF_OUTPUT
 62
     7
100
AcDbCircle
 10
54.610103
 20
-94.587336
 30
0.0
 40
1.587649
  0
ENDBLK
  5
5F
100
AcDbEntity
  8
DXF_OUTPUT
100
AcDbBlockEnd
  0
BLOCK
  5
62
100
AcDbEntity
  8
DXF_OUTPUT
 62
     7
100
AcDbBlockBegin
  2
AI9-BLK5
 70
     0
 10
0.0
 20
0.0
 30
0.0
  3
AI9-BLK5
  1

  0
CIRCLE
  5
64
100
AcDbEntity
  8
DXF_OUTPUT
 62
     7
100
AcDbCircle
 10
54.610103
 20
94.587336
 30
0.0
 40
1.587606
  0
CIRCLE
  5
63
100
AcDbEntity
  8
DXF_OUTPUT
 62
     7
100
AcDbCircle
 10
-54.609931
 20
-94.587336
 30
0.0
 40
1.587606
  0
ENDBLK
  5
65
100
AcDbEntity
  8
DXF_OUTPUT
100
AcDbBlockEnd
  0
BLOCK
  5
68
100
AcDbEntity
  8
DXF_OUTPUT
 62
     7
100
AcDbBlockBegin
  2
AI9-BLK6
 70
     0
 10
0.0
 20
0.0
 30
0.0
  3
AI9-BLK6
  1

  0
CIRCLE
  5
6A
100
AcDbEntity
  8
DXF_OUTPUT
 62
     7
100
AcDbCircle
 10
109.219948
 20
-0.000345
 30
0.0
 40
1.5875
  0
CIRCLE
  5
69
100
AcDbEntity
  8
DXF_OUTPUT
 62
     7
100
AcDbCircle
 10
-109.219948
 20
-0.000345
 30
0.0
 40
1.5875
  0
ENDBLK
  5
6B
100
AcDbEntity
  8
DXF_OUTPUT
100
AcDbBlockEnd
  0
ENDSEC
  0
SECTION
  2
ENTITIES
  0
CIRCLE
  5
6C
100
AcDbEntity
  8
DXF_OUTPUT
 62
     7
100
AcDbCircle
 10
0.0
 20
0.0
 30
0.0
 40
115.8875
  0
INSERT
  5
67
100
AcDbEntity
  8
DXF_OUTPUT
 62
     7
100
AcDbBlockReference
  2
AI9-BLK6
 10
-0.000086
 20
0.0
 30
0.0
  0
INSERT
  5
61
100
AcDbEntity
  8
DXF_OUTPUT
 62
     7
100
AcDbBlockReference
  2
AI9-BLK5
 10
0.000172
 20
-0.000172
 30
0.0
  0
INSERT
  5
5B
100
AcDbEntity
  8
DXF_OUTPUT
 62
     7
100
AcDbBlockReference
  2
AI9-BLK4
 10
0.000086
 20
-0.000172
 30
0.0
  0
CIRCLE
  5
59
100
AcDbEntity
  8
DXF_OUTPUT
 62
     7
100
AcDbCircle
 10
76.205857
 20
5.056367
 30
0.0
 40
2.540069
  0
SPLINE
  5
58
100
AcDbEntity
  8
DXF_OUTPUT
 62
     7
100
AcDbSpline
210
0.0
220
0.0
230
1.0
 70
     8
 71
     3
 72
    29
 73
    25
 74
     0
 42
0.00000001
 43
0.00000001
 40
0.0
 40
0.0
 40
0.0
 40
0.0
 40
1.0
 40
1.0
 40
1.0
 40
2.0
 40
2.0
 40
2.0
 40
3.0
 40
3.0
 40
3.0
 40
4.0
 40
4.0
 40
4.0
 40
5.0
 40
5.0
 40
5.0
 40
6.0
 40
6.0
 40
6.0
 40
7.0
 40
7.0
 40
7.0
 40
8.0
 40
8.0
 40
8.0
 40
8.0
 10
-82.338298882378467
 20
22.048611111111111
 30
0.0
 10
-82.338298882378467
 20
21.697900390624998
 30
0.0
 10
-82.622691514756937
 20
21.41368001302083
 30
0.0
 10
-82.973402235243043
 20
21.41368001302083
 30
0.0
 10
-82.973402235243043
 20
21.41368001302083
 30
0.0
 10
-82.973402235243043
 20
21.41368001302083
 30
0.0
 10
-82.973402235243043
 20
21.41368001302083
 30
0.0
 10
-83.324112955729163
 20
21.41368001302083
 30
0.0
 10
-83.60833333333332
 20
21.697900390624998
 30
0.0
 10
-83.60833333333332
 20
22.048611111111111
 30
0.0
 10
-83.60833333333332
 20
22.048611111111111
 30
0.0
 10
-83.60833333333332
 20
43.638680013020831
 30
0.0
 10
-83.60833333333332
 20
43.638680013020831
 30
0.0
 10
-83.60833333333332
 20
43.989390733506937
 30
0.0
 10
-83.324112955729163
 20
44.273611111111109
 30
0.0
 10
-82.973402235243043
 20
44.273611111111109
 30
0.0
 10
-82.973402235243043
 20
44.273611111111109
 30
0.0
 10
-82.973402235243043
 20
44.273611111111109
 30
0.0
 10
-82.973402235243043
 20
44.273611111111109
 30
0.0
 10
-82.622691514756937
 20
44.273611111111109
 30
0.0
 10
-82.338298882378467
 20
43.989390733506937
 30
0.0
 10
-82.338298882378467
 20
43.638680013020831
 30
0.0
 10
-82.338298882378467
 20
43.638680013020831
 30
0.0
 10
-82.338298882378467
 20
22.048611111111111
 30
0.0
 10
-82.338298882378467
 20
22.048611111111111
 30
0.0
  0
CIRCLE
  5
57
100
AcDbEntity
  8
DXF_OUTPUT
 62
     7
100
AcDbCircle
 10
76.205857
 20
25.517478
 30
0.0
 40
2.540069
  0
CIRCLE
  5
56
100
AcDbEntity
  8
DXF_OUTPUT
 62
     7
100
AcDbCircle
 10
73.965683
 20
-63.382522
 30
0.0
 40
2.540069
  0
SPLINE
  5
55
100
AcDbEntity
  8
DXF_OUTPUT
 62
     7
100
AcDbSpline
210
0.0
220
0.0
230
1.0
 70
     8
 71
     3
 72
    29
 73
    25
 74
     0
 42
0.00000001
 43
0.00000001
 40
0.0
 40
0.0
 40
0.0
 40
0.0
 40
1.0
 40
1.0
 40
1.0
 40
2.0
 40
2.0
 40
2.0
 40
3.0
 40
3.0
 40
3.0
 40
4.0
 40
4.0
 40
4.0
 40
5.0
 40
5.0
 40
5.0
 40
6.0
 40
6.0
 40
6.0
 40
7.0
 40
7.0
 40
7.0
 40
8.0
 40
8.0
 40
8.0
 40
8.0
 10
-81.773819986979163
 20
1.0583333333333331
 30
0.0
 10
-81.773819986979163
 20
0.3569118923611111
 30
0.0
 10
-82.342432996961804
 20
-0.2115288628472222
 30
0.0
 10
-83.043854437934016
 20
-0.2115288628472222
 30
0.0
 10
-83.043854437934016
 20
-0.2115288628472222
 30
0.0
 10
-83.043854437934016
 20
-0.2115288628472222
 30
0.0
 10
-83.043854437934016
 20
-0.2115288628472222
 30
0.0
 10
-83.745275878906241
 20
-0.2115288628472222
 30
0.0
 10
-84.313888888888883
 20
0.3569118923611111
 30
0.0
 10
-84.313888888888883
 20
1.0583333333333331
 30
0.0
 10
-84.313888888888883
 20
1.0583333333333331
 30
0.0
 10
-84.313888888888883
 20
6.1384711371527771
 30
0.0
 10
-84.313888888888883
 20
6.1384711371527771
 30
0.0
 10
-84.313888888888883
 20
6.8398925781249993
 30
0.0
 10
-83.745275878906241
 20
7.4083333333333323
 30
0.0
 10
-83.043854437934016
 20
7.4083333333333323
 30
0.0
 10
-83.043854437934016
 20
7.4083333333333323
 30
0.0
 10
-83.043854437934016
 20
7.4083333333333323
 30
0.0
 10
-83.043854437934016
 20
7.4083333333333323
 30
0.0
 10
-82.342432996961804
 20
7.4083333333333323
 30
0.0
 10
-81.773819986979163
 20
6.8398925781249993
 30
0.0
 10
-81.773819986979163
 20
6.1384711371527771
 30
0.0
 10
-81.773819986979163
 20
6.1384711371527771
 30
0.0
 10
-81.773819986979163
 20
1.0583333333333331
 30
0.0
 10
-81.773819986979163
 20
1.0583333333333331
 30
0.0
  0
CIRCLE
  5
54
100
AcDbEntity
  8
DXF_OUTPUT
 62
     7
100
AcDbCircle
 10
64.558333
 20
-48.330556
 30
0.0
 40
1.904966
  0
CIRCLE
  5
53
100
AcDbEntity
  8
DXF_OUTPUT
 62
     7
100
AcDbCircle
 10
68.791667
 20
51.152778
 30
0.0
 40
3.175
  0
INSERT
  5
46
100
AcDbEntity
  8
DXF_OUTPUT
 62
     7
100
AcDbBlockReference
  2
AI9-BLK3
 10
81.325613
 20
-21.514277
 30
0.0
  0
INSERT
  5
3E
100
AcDbEntity
  8
DXF_OUTPUT
 62
     7
100
AcDbBlockReference
  2
AI9-BLK2
 10
-21.801684
 20
-6.455764
 30
0.0
  0
CIRCLE
  5
3C
100
AcDbEntity
  8
DXF_OUTPUT
 62
     7
100
AcDbCircle
 10
-50.8
 20
63.5
 30
0.0
 40
1.5875
  0
CIRCLE
  5
3B
100
AcDbEntity
  8
DXF_OUTPUT
 62
     7
100
AcDbCircle
 10
50.8
 20
63.5
 30
0.0
 40
1.5875
  0
CIRCLE
  5
3A
100
AcDbEntity
  8
DXF_OUTPUT
 62
     7
100
AcDbCircle
 10
-50.8
 20
-63.5
 30
0.0
 40
1.5875
  0
CIRCLE
  5
39
100
AcDbEntity
  8
DXF_OUTPUT
 62
     7
100
AcDbCircle
 10
50.8
 20
-63.5
 30
0.0
 40
1.5875
  0
CIRCLE
  5
38
100
AcDbEntity
  8
DXF_OUTPUT
 62
     7
100
AcDbCircle
 10
-65.616667
 20
-65.969444
 30
0.0
 40
1.904966
  0
INSERT
  5
2B
100
AcDbEntity
  8
DXF_OUTPUT
 62
     7
100
AcDbBlockReference
  2
AI9-BLK1
 10
-86.987972
 20
-22.206052
 30
0.0
  0
CIRCLE
  5
29
100
AcDbEntity
  8
DXF_OUTPUT
 62
     7
100
AcDbCircle
 10
0.0
 20
95.25
 30
0.0
 40
1.5875
  0
ENDSEC
  0
SECTION
  2
OBJECTS
  0
DICTIONARY
  5
19
100
AcDbDictionary
280
     0
281
     1
  3
ACAD_GROUP
350
1A
  3
ACAD_MLINESTYLE
350
1B
  3
ACAD_LAYOUT
350
1E
  3
ACAD_PLOTSETTINGS
350
22
  3
ACAD_PLOTSTYLENAME
350
1F
  3
ACAD_WIPEOUT_VARS
350
23
  0
DICTIONARY
  5
1A
102
{ACAD_REACTORS
330
19
102
}
100
AcDbDictionary
280
     0
281
     1
  0
DICTIONARY
  5
1B
102
{ACAD_REACTORS
330
19
102
}
100
AcDbDictionary
280
     0
281
     1
  3
Standard
350
1C
  0
MLINESTYLE
  5
1C
102
{ACAD_REACTORS
330
1B
102
}
100
AcDbMlineStyle
  2
Standard
 70
     0
  3

 62
     0
 51
90.0
 52
90.0
 71
     2
 49
0.5
 62
   256
  6
BYLAYER
 49
-0.5
 62
   256
  6
BYLAYER
  0
ACDBDICTIONARYWDFLT
  5
1F
102
{ACAD_REACTORS
330
19
102
}
100
AcDbDictionary
281
     1
  3
Normal
350
1D
100
AcDbDictionaryWithDefault
340
1D
  0
ACDBPLACEHOLDER
  5
1D
102
{ACAD_REACTORS
330
1F
102
}
  0
LAYOUT
  5
20
102
{ACAD_REACTORS
330
1E
102
}
100
AcDbPlotSettings
  1

  2

  4

  6

 40
0.0
 41
0.0
 42
0.0
 43
0.0
 44
0.0
 45
0.0
 46
0.0
 47
0.0
 48
0.0
 49
0.0
140
0.0
141
0.0
142
1.0
143
1.0
 70
  1024
 72
     0
 73
     0
 74
     0
  7

 75
     0
147
1.0
148
0.0
149
0.0
100
AcDbLayout
  1
Model
 70
     0
 71
     0
 10
0.0
 20
0.0
 11
0.0
 21
0.0
 12
0.0
 22
0.0
 32
0.0
 14
0.0
 24
0.0
 34
0.0
 15
0.0
 25
0.0
 35
0.0
146
0.0
 13
0.0
 23
0.0
 33
0.0
 16
0.0
 26
0.0
 36
0.0
 17
0.0
 27
0.0
 37
0.0
 76
     0
330
A
331
0
345
0
346
0
  0
LAYOUT
  5
21
102
{ACAD_REACTORS
330
1E
102
}
100
AcDbPlotSettings
  1

  2

  4

  6

 40
0.0
 41
0.0
 42
0.0
 43
0.0
 44
0.0
 45
0.0
 46
0.0
 47
0.0
 48
0.0
 49
0.0
140
0.0
141
0.0
142
1.0
143
1.0
 70
     0
 72
     0
 73
     0
 74
     0
  7

 75
     0
147
1.0
148
0.0
149
0.0
100
AcDbLayout
  1
Layout1
 70
     0
 71
     0
 10
0.0
 20
0.0
 11
0.0
 21
0.0
 12
0.0
 22
0.0
 32
0.0
 14
0.0
 24
0.0
 34
0.0
 15
0.0
 25
0.0
 35
0.0
146
0.0
 13
0.0
 23
0.0
 33
0.0
 16
0.0
 26
0.0
 36
0.0
 17
0.0
 27
0.0
 37
0.0
 76
     0
330
B
331
0
345
0
346
0
  0
DICTIONARY
  5
1E
102
{ACAD_REACTORS
330
19
102
}
100
AcDbDictionary
280
     0
281
     1
  3
Layout1
350
21
  3
Model
350
20
  0
DICTIONARY
  5
22
102
{ACAD_REACTORS
330
19
102
}
100
AcDbDictionary
280
     0
281
     1
  0
WIPEOUTVARIABLES
  5
23
100
AcDbWipeoutVariables
 70
     1
  0
ENDSEC
  0
EOF
