  0
SECTION
  2
HEADER
  9
$ACADVER
  1
AC1015
  9
$ACADMAINTVER
 70
     6
  9
$DWGCODEPAGE
  3
ANSI_932
  9
$INSBASE
 10
0.0
 20
0.0
 30
0.0
  9
$EXTMIN
 10
-76.787044
 20
-78.801736
 30
1.000000E+20
  9
$EXTMAX
 10
507.49805
 20
355.620843
 30
-1.000000E+20
  9
$LIMMIN
 10
-76.787044
 20
-78.801736
  9
$LIMMAX
 10
507.49805
 20
355.620843
  9
$ORTHOMODE
 70
     0
  9
$REGENMODE
 70
     1
  9
$FILLMODE
 70
     1
  9
$QTEXTMODE
 70
     0
  9
$MIRRTEXT
 70
     1
  9
$LTSCALE
 40
1.0
  9
$ATTMODE
 70
     1
  9
$TEXTSIZE
 40
0.2
  9
$TRACEWID
 40
0.05
  9
$TEXTSTYLE
  7
Standard
  9
$CLAYER
  8
0
  9
$CELTYPE
  6
Continuous
  9
$CECOLOR
 62
   256
  9
$CELTSCALE
 40
1.0
  9
$DISPSILH
 70
     0
  9
$DIMSCALE
 40
1.0
  9
$DIMASZ
 40
0.18
  9
$DIMEXO
 40
0.0625
  9
$DIMDLI
 40
0.38
  9
$DIMRND
 40
0.0
  9
$DIMDLE
 40
0.0
  9
$DIMEXE
 40
0.18
  9
$DIMTP
 40
0.0
  9
$DIMTM
 40
0.0
  9
$DIMTXT
 40
0.18
  9
$DIMCEN
 40
0.09
  9
$DIMTSZ
 40
0.0
  9
$DIMTOL
 70
     0
  9
$DIMLIM
 70
     0
  9
$DIMTIH
 70
     1
  9
$DIMTOH
 70
     1
  9
$DIMSE1
 70
     0
  9
$DIMSE2
 70
     0
  9
$DIMTAD
 70
     0
  9
$DIMZIN
 70
     0
  9
$DIMBLK
  1

  9
$DIMASO
 70
     1
  9
$DIMSHO
 70
     1
  9
$DIMPOST
  1

  9
$DIMAPOST
  1

  9
$DIMALT
 70
     0
  9
$DIMALTD
 70
     2
  9
$DIMALTF
 40
25.4
  9
$DIMLFAC
 40
1.0
  9
$DIMTOFL
 70
     0
  9
$DIMTVP
 40
0.0
  9
$DIMTIX
 70
     0
  9
$DIMSOXD
 70
     0
  9
$DIMSAH
 70
     0
  9
$DIMBLK1
  1

  9
$DIMBLK2
  1

  9
$DIMSTYLE
  2
Standard
  9
$DIMCLRD
 70
     0
  9
$DIMCLRE
 70
     0
  9
$DIMCLRT
 70
     0
  9
$DIMTFAC
 40
1.0
  9
$DIMGAP
 40
0.09
  9
$DIMJUST
 70
     0
  9
$DIMSD1
 70
     0
  9
$DIMSD2
 70
     0
  9
$DIMTOLJ
 70
     1
  9
$DIMTZIN
 70
     0
  9
$DIMALTZ
 70
     0
  9
$DIMALTTZ
 70
     0
  9
$DIMUPT
 70
     0
  9
$DIMDEC
 70
     4
  9
$DIMTDEC
 70
     4
  9
$DIMALTU
 70
     2
  9
$DIMALTTD
 70
     2
  9
$DIMTXSTY
  7
Standard
  9
$DIMAUNIT
 70
     0
  9
$DIMADEC
 70
     0
  9
$DIMALTRND
 40
0.0
  9
$DIMAZIN
 70
     0
  9
$DIMDSEP
 70
     0
  9
$DIMATFIT
 70
     3
  9
$DIMFRAC
 70
     0
  9
$DIMLDRBLK
  1

  9
$DIMLUNIT
 70
     2
  9
$DIMLWD
 70
     0
  9
$DIMLWE
 70
     0
  9
$DIMTMOVE
 70
     0
  9
$LUNITS
 70
     2
  9
$LUPREC
 70
     4
  9
$SKETCHINC
 40
0.1
  9
$FILLETRAD
 40
0.0
  9
$AUNITS
 70
     0
  9
$AUPREC
 70
     0
  9
$MENU
  1
acad
  9
$ELEVATION
 40
0.0
  9
$PELEVATION
 40
0.0
  9
$THICKNESS
 40
0.0
  9
$LIMCHECK
 70
     0
  9
$CHAMFERA
 40
0.0
  9
$CHAMFERB
 40
0.0
  9
$CHAMFERC
 40
0.0
  9
$CHAMFERD
 40
0.0
  9
$SKPOLY
 70
     0
  9
$TDCREATE
 40
0.000000000
  9
$TDUCREATE
 40
0.000000000
  9
$TDUPDATE
 40
0.000000000
  9
$TDUUPDATE
 40
0.000000000
  9
$TDINDWG
 40
0.0000000000
  9
$TDUSRTIMER
 40
0.0000000000
  9
$USRTIMER
 70
     1
  9
$ANGBASE
 50
0.0
  9
$ANGDIR
 70
     0
  9
$PDMODE
 70
     0
  9
$PDSIZE
 40
0.0
  9
$PLINEWID
 40
0.0
  9
$SPLFRAME
 70
     0
  9
$SPLINETYPE
 70
     6
  9
$SPLINESEGS
 70
     8
  9
$HANDSEED
  5
F0
  9
$SURFTAB1
 70
     6
  9
$SURFTAB2
 70
     6
  9
$SURFTYPE
 70
     6
  9
$SURFU
 70
     6
  9
$SURFV
 70
     6
  9
$UCSBASE
  2

  9
$UCSNAME
  2

  9
$UCSORG
 10
0.0
 20
0.0
 30
0.0
  9
$UCSXDIR
 10
1.0
 20
0.0
 30
0.0
  9
$UCSYDIR
 10
0.0
 20
1.0
 30
0.0
  9
$UCSORTHOREF
  2

  9
$UCSORTHOVIEW
 70
     0
  9
$UCSORGTOP
 10
0.0
 20
0.0
 30
0.0
  9
$UCSORGBOTTOM
 10
0.0
 20
0.0
 30
0.0
  9
$UCSORGLEFT
 10
0.0
 20
0.0
 30
0.0
  9
$UCSORGRIGHT
 10
0.0
 20
0.0
 30
0.0
  9
$UCSORGFRONT
 10
0.0
 20
0.0
 30
0.0
  9
$UCSORGBACK
 10
0.0
 20
0.0
 30
0.0
  9
$PUCSBASE
  2

  9
$PUCSNAME
  2

  9
$PUCSORG
 10
0.0
 20
0.0
 30
0.0
  9
$PUCSXDIR
 10
1.0
 20
0.0
 30
0.0
  9
$PUCSYDIR
 10
0.0
 20
1.0
 30
0.0
  9
$PUCSORTHOREF
  2

  9
$PUCSORTHOVIEW
 70
     0
  9
$PUCSORGTOP
 10
0.0
 20
0.0
 30
0.0
  9
$PUCSORGBOTTOM
 10
0.0
 20
0.0
 30
0.0
  9
$PUCSORGLEFT
 10
0.0
 20
0.0
 30
0.0
  9
$PUCSORGRIGHT
 10
0.0
 20
0.0
 30
0.0
  9
$PUCSORGFRONT
 10
0.0
 20
0.0
 30
0.0
  9
$PUCSORGBACK
 10
0.0
 20
0.0
 30
0.0
  9
$USERI1
 70
     0
  9
$USERI2
 70
     0
  9
$USERI3
 70
     0
  9
$USERI4
 70
     0
  9
$USERI5
 70
     0
  9
$USERR1
 40
0.0
  9
$USERR2
 40
0.0
  9
$USERR3
 40
0.0
  9
$USERR4
 40
0.0
  9
$USERR5
 40
0.0
  9
$WORLDVIEW
 70
     1
  9
$SHADEDGE
 70
     3
  9
$SHADEDIF
 70
    70
  9
$TILEMODE
 70
     1
  9
$MAXACTVP
 70
    16
  9
$PINSBASE
 10
0.0
 20
0.0
 30
0.0
  9
$PLIMCHECK
 70
     0
  9
$PEXTMIN
 10
1.000000E+20
 20
1.000000E+20
 30
1.000000E+20
  9
$PEXTMAX
 10
-1.000000E+20
 20
-1.000000E+20
 30
-1.000000E+20
  9
$PLIMMIN
 10
0.0
 20
0.0
  9
$PLIMMAX
 10
12.0
 20
9.0
  9
$UNITMODE
 70
     0
  9
$VISRETAIN
 70
     0
  9
$PLINEGEN
 70
     1
  9
$PSLTSCALE
 70
     0
  9
$TREEDEPTH
 70
  3020
  9
$CMLSTYLE
  2
Standard
  9
$CMLJUST
 70
     0
  9
$CMLSCALE
 40
1.0
  9
$PROXYGRAPHICS
 70
     0
  9
$MEASUREMENT
 70
     0
  9
$CELWEIGHT
370
     0
  9
$ENDCAPS
280
     0
  9
$JOINSTYLE
280
     0
  9
$LWDISPLAY
290
     0
  9
$INSUNITS
 70
     0
  9
$HYPERLINKBASE
  1

  9
$XEDIT
290
     1
  9
$CEPSNTYPE
380
     0
  9
$PSTYLEMODE
290
     1
  9
$FINGERPRINTGUID
  2

  9
$VERSIONGUID
  2

  9
$EXTNAMES
290
     1
  9
$PSVPSCALE
 40
0.0
  0
ENDSEC
  0
SECTION
  2
CLASSES
  0
CLASS
  1
LWPOLYLINE
  2
AcDbPolyline
  3
"AutoCAD"
 90
        0
280
     0
281
     1
  0
CLASS
  1
IMAGE
  2
AcDbRasterImage
  3
ISM
 90
      127
280
     0
281
     1
  0
CLASS
  1
OLE2FRAME
  2
AcDbOle2Frame
  3
""
 90
        0
280
     0
281
     1
  0
CLASS
  1
HATCH
  2
AcDbHatch
  3
"ACAD_SEDONA"
 90
        0
280
     0
281
     1
  0
CLASS
  1
DICTIONARYVAR
  2
AcDbDictionaryVar
  3
"AutoCAD"
 90
        0
280
     0
281
     0
  0
CLASS
  1
RASTERVARIABLES
  2
AcDbRasterVariables
  3
ISM
 90
        0
280
     0
281
     0
  0
CLASS
  1
IMAGEDEF
  2
AcDbRasterImageDef
  3
ISM
 90
        0
280
     0
281
     0
  0
CLASS
  1
IMAGEDEF_REACTOR
  2
AcDbRasterImageDefReactor
  3
ISM
 90
        1
280
     0
281
     0
  0
CLASS
  1
IDBUFFER
  2
AcDbIdBuffer
  3
"Acad"
 90
        0
280
     0
281
     0
  0
CLASS
  1
SPATIAL_FILTER
  2
AcDbSpatialFilter
  3
"Acad"
 90
        0
280
     0
281
     0
  0
CLASS
  1
XRECORD
  2
AcDbXrecord
  3
"<Built In>"
 90
        0
280
     0
281
     0
  0
CLASS
  1
SORTENTSTABLE
  2
AcDbSortentsTable
  3
"AutoCAD"
 90
        0
280
     0
281
     0
  0
CLASS
  1
LAYER_INDEX
  2
AcDbLayerIndex
  3
"Acad"
 90
        0
280
     0
281
     0
  0
CLASS
  1
SPATIAL_INDEX
  2
AcDbSpatialIndex
  3
"Acad"
 90
        0
280
     0
281
     0
  0
CLASS
  1
OBJECT_PTR
  2
CAseDLPNTableRecord
  3
"ASE-LPNTableRecord"
 90
        1
280
     0
281
     0
  0
CLASS
  1
LAYOUT
  2
AcDbLayout
  3
"AutoCAD 2000"
 90
        1
280
     0
281
     0
  0
CLASS
  1
PLOTSETTINGS
  2
AcDbPlotSettings
  3
"AutoCAD 2000"
 90
        1
280
     0
281
     0
  0
CLASS
  1
ACDBDICTIONARYWDFLT
  2
AcDbDictionaryWithDefault
  3
"AutoCAD 2000"
 90
        1
280
     0
281
     0
  0
CLASS
  1
ACDBPLACEHOLDER
  2
AcDbPlaceHolder
  3
"AutoCAD 2000"
 90
        1
280
     0
281
     0
  0
CLASS
  1
VBA_PROJECT
  2
AcDbVbaProject
  3
"acadvba"
 90
        1
280
     0
281
     0
  0
CLASS
  1
WIPEOUT
  2
AcDbWipeout
  3
WipeOut|AutoCAD Express Tool|expresstools@autodesk.com
 90
      127
280
     0
281
     1
  0
CLASS
  1
WIPEOUTVARIABLES
  2
AcDbWipeoutVariables
  3
WipeOut|AutoCAD Express Tool|expresstools@autodesk.com
 90
        0
280
     0
281
     0
  0
CLASS
  1
RTEXT
  2
RText
  3
RText|AutoCAD Express Tool|expresstools@autodesk.com
 90
        0
280
     0
281
     1
  0
CLASS
  1
ARCALIGNEDTEXT
  2
AcDbArcAlignedText
  3
ATEXT|AutoCAD Express Tool|expresstools@autodesk.com
 90
        0
280
     0
281
     1
  0
ENDSEC
  0
SECTION
  2
TABLES
  0
TABLE
  2
VPORT
  5
7
100
AcDbSymbolTable
 70
     1
  0
VPORT
  5
15
100
AcDbSymbolTableRecord
100
AcDbViewportTableRecord
  2
*ACTIVE
 70
     0
 10
0.0
 20
0.0
 11
1.0
 21
1.0
 12
6.591288
 22
4.579184
 13
0.0
 23
0.0
 14
1.0
 24
1.0
 15
0.0
 25
0.0
 16
0.0
 26
0.0
 36
1.0
 17
0.0
 27
0.0
 37
0.0
 40
9.158369
 41
0.688564
 42
50.0
 43
0.0
 44
0.0
 50
0.0
 51
0.0
 71
     0
 72
   100
 73
     1
 74
     1
 75
     0
 76
     0
 77
     0
 78
     0
281
     0
 65
     0
110
0.0
120
0.0
130
0.0
111
1.0
121
0.0
131
0.0
112
0.0
122
1.0
132
0.0
345
0
346
0
 79
     0
146
0.0
  0
ENDTAB
  0
TABLE
  2
LTYPE
  5
4
100
AcDbSymbolTable
 70
     3
  0
LTYPE
  5
11
100
AcDbSymbolTableRecord
100
AcDbLinetypeTableRecord
  2
ByBlock
 70
    64
  3

 72
    65
 73
     0
 40
0.0
  0
LTYPE
  5
12
100
AcDbSymbolTableRecord
100
AcDbLinetypeTableRecord
  2
ByLayer
 70
    64
  3

 72
    65
 73
     0
 40
0.0
  0
LTYPE
  5
13
100
AcDbSymbolTableRecord
100
AcDbLinetypeTableRecord
  2
Continuous
 70
    64
  3
Solid line
 72
    65
 73
     0
 40
0.0
  0
ENDTAB
  0
TABLE
  2
LAYER
  5
2
100
AcDbSymbolTable
 70
     3
  0
LAYER
  5
14
100
AcDbSymbolTableRecord
100
AcDbLayerTableRecord
  2
0
 70
     0
 62
     7
  6
Continuous
290
     1
370
    -3
390
1D
  0
LAYER
  5
28
100
AcDbSymbolTableRecord
100
AcDbLayerTableRecord
  2
ANNOTATIONS
 70
     0
 62
     5
  6
Continuous
290
     1
370
    -3
390
1F
  0
LAYER
  5
ED
100
AcDbSymbolTableRecord
100
AcDbLayerTableRecord
  2
DXF_OUTPUT
 70
     0
 62
     7
  6
Continuous
290
     1
370
    -3
390
1F
  0
ENDTAB
  0
TABLE
  2
STYLE
  5
3
100
AcDbSymbolTable
 70
     5
  0
STYLE
  5
17
100
AcDbSymbolTableRecord
100
AcDbTextStyleTableRecord
  2
Standard
 70
     0
 40
0.0
 41
1.0
 50
0.0
 71
     0
 42
0.0
  3
txt
  4

  0
STYLE
  5
24
100
AcDbSymbolTableRecord
100
AcDbTextStyleTableRecord
  2
STD
 70
     0
 40
0.0
 41
1.0
 50
0.0
 71
     0
 42
0.0
  3
txt
  4

  0
STYLE
  5
25
100
AcDbSymbolTableRecord
100
AcDbTextStyleTableRecord
  2
TATESTD
 70
     4
 40
0.0
 41
1.0
 50
0.0
 71
     0
 42
0.0
  3
txt
  4

  0
STYLE
  5
26
100
AcDbSymbolTableRecord
100
AcDbTextStyleTableRecord
  2
KANJISTD
 70
     0
 40
0.0
 41
1.0
 50
0.0
 71
     0
 42
0.0
  3
txt
  4
extfont
  0
STYLE
  5
27
100
AcDbSymbolTableRecord
100
AcDbTextStyleTableRecord
  2
KANJITATE
 70
     4
 40
0.0
 41
1.0
 50
0.0
 71
     0
 42
0.0
  3
txt
  4
extfont
  0
ENDTAB
  0
TABLE
  2
VIEW
  5
5
100
AcDbSymbolTable
 70
     0
  0
ENDTAB
  0
TABLE
  2
UCS
  5
6
100
AcDbSymbolTable
 70
     0
  0
ENDTAB
  0
TABLE
  2
APPID
  5
8
100
AcDbSymbolTable
 70
     1
  0
APPID
  5
16
100
AcDbSymbolTableRecord
100
AcDbRegAppTableRecord
  2
ACAD
 70
     0
  0
ENDTAB
  0
TABLE
  2
DIMSTYLE
  5
9
100
AcDbSymbolTable
 70
     1
100
AcDbDimStyleTable
 71
     0
  0
DIMSTYLE
105
18
100
AcDbSymbolTableRecord
100
AcDbDimStyleTableRecord
  2
Standard
 70
     0
  3

  4

 40
1.0
 41
0.18
 42
0.0625
 43
0.38
 44
0.18
 45
0.0
 46
0.0
 47
0.0
 48
0.0
 71
     0
 72
     0
 73
     1
 74
     1
 75
     0
 76
     0
 77
     0
 78
     0
 79
     0
140
0.18
141
0.09
142
0.0
143
25.4
144
1.0
145
0.0
146
1.0
147
0.09
148
0.0
170
     0
171
     2
172
     0
173
     0
174
     0
175
     0
176
     0
177
     0
178
     0
179
     0
271
     4
272
     4
273
     2
274
     2
275
     0
276
     0
277
     2
278
    46
279
     0
280
     0
281
     0
282
     0
283
     1
284
     0
285
     0
286
     0
288
     0
340
17
341
0
342
0
343
0
344
0
371
    -2
372
    -2
  0
ENDTAB
  0
TABLE
  2
BLOCK_RECORD
  5
1
100
AcDbSymbolTable
 70
     8
  0
BLOCK_RECORD
  5
A
100
AcDbSymbolTableRecord
100
AcDbBlockTableRecord
  2
*MODEL_SPACE
340
20
  0
BLOCK_RECORD
  5
B
100
AcDbSymbolTableRecord
100
AcDbBlockTableRecord
  2
*PAPER_SPACE
340
21
  0
BLOCK_RECORD
  5
29
100
AcDbSymbolTableRecord
100
AcDbBlockTableRecord
  2
AI9-BLK1
340
0
  0
BLOCK_RECORD
  5
2F
100
AcDbSymbolTableRecord
100
AcDbBlockTableRecord
  2
AI9-BLK2
340
0
  0
BLOCK_RECORD
  5
5A
100
AcDbSymbolTableRecord
100
AcDbBlockTableRecord
  2
AI9-BLK3
340
0
  0
BLOCK_RECORD
  5
60
100
AcDbSymbolTableRecord
100
AcDbBlockTableRecord
  2
AI9-BLK4
340
0
  0
BLOCK_RECORD
  5
8B
100
AcDbSymbolTableRecord
100
AcDbBlockTableRecord
  2
AI9-BLK5
340
0
  0
BLOCK_RECORD
  5
91
100
AcDbSymbolTableRecord
100
AcDbBlockTableRecord
  2
AI9-BLK6
340
0
  0
BLOCK_RECORD
  5
BC
100
AcDbSymbolTableRecord
100
AcDbBlockTableRecord
  2
AI9-BLK7
340
0
  0
BLOCK_RECORD
  5
C2
100
AcDbSymbolTableRecord
100
AcDbBlockTableRecord
  2
AI9-BLK8
340
0
  0
ENDTAB
  0
ENDSEC
  0
SECTION
  2
BLOCKS
  0
BLOCK
  5
D
100
AcDbEntity
  8
0
100
AcDbBlockBegin
  2
*MODEL_SPACE
 70
     0
 10
0.0
 20
0.0
 30
0.0
  3
*MODEL_SPACE
  1

  0
ENDBLK
  5
E
100
AcDbEntity
  8
0
100
AcDbBlockEnd
  0
BLOCK
  5
F
100
AcDbEntity
 67
     1
  8
0
100
AcDbBlockBegin
  2
*PAPER_SPACE
 70
     0
 10
0.0
 20
0.0
 30
0.0
  3
*PAPER_SPACE
  1

  0
ENDBLK
  5
10
100
AcDbEntity
 67
     1
  8
0
100
AcDbBlockEnd
  0
BLOCK
  5
2B
100
AcDbEntity
  8
ANNOTATIONS
 62
     7
100
AcDbBlockBegin
  2
AI9-BLK1
 70
     0
 10
0.0
 20
0.0
 30
0.0
  3
AI9-BLK1
  1

  0
CIRCLE
  5
2D
100
AcDbEntity
  8
ANNOTATIONS
 62
     7
100
AcDbCircle
 10
54.609242
 20
-94.587508
 30
0.0
 40
1.270282
  0
CIRCLE
  5
2C
100
AcDbEntity
  8
ANNOTATIONS
 62
     7
100
AcDbCircle
 10
-54.610276
 20
94.587164
 30
0.0
 40
1.27011
  0
ENDBLK
  5
2E
100
AcDbEntity
  8
ANNOTATIONS
100
AcDbBlockEnd
  0
BLOCK
  5
31
100
AcDbEntity
  8
ANNOTATIONS
 62
     7
100
AcDbBlockBegin
  2
AI9-BLK2
 70
     0
 10
0.0
 20
0.0
 30
0.0
  3
AI9-BLK2
  1

  0
CIRCLE
  5
33
100
AcDbEntity
  8
ANNOTATIONS
 62
     7
100
AcDbCircle
 10
54.610276
 20
94.587336
 30
0.0
 40
1.27011
  0
CIRCLE
  5
32
100
AcDbEntity
  8
ANNOTATIONS
 62
     7
100
AcDbCircle
 10
-54.610276
 20
-94.58768
 30
0.0
 40
1.27011
  0
ENDBLK
  5
34
100
AcDbEntity
  8
ANNOTATIONS
100
AcDbBlockEnd
  0
BLOCK
  5
5C
100
AcDbEntity
  8
ANNOTATIONS
 62
     7
100
AcDbBlockBegin
  2
AI9-BLK3
 70
     0
 10
0.0
 20
0.0
 30
0.0
  3
AI9-BLK3
  1

  0
CIRCLE
  5
5E
100
AcDbEntity
  8
ANNOTATIONS
 62
     7
100
AcDbCircle
 10
54.609242
 20
-94.587508
 30
0.0
 40
1.270282
  0
CIRCLE
  5
5D
100
AcDbEntity
  8
ANNOTATIONS
 62
     7
100
AcDbCircle
 10
-54.610103
 20
94.587164
 30
0.0
 40
1.270196
  0
ENDBLK
  5
5F
100
AcDbEntity
  8
ANNOTATIONS
100
AcDbBlockEnd
  0
BLOCK
  5
62
100
AcDbEntity
  8
ANNOTATIONS
 62
     7
100
AcDbBlockBegin
  2
AI9-BLK4
 70
     0
 10
0.0
 20
0.0
 30
0.0
  3
AI9-BLK4
  1

  0
CIRCLE
  5
64
100
AcDbEntity
  8
ANNOTATIONS
 62
     7
100
AcDbCircle
 10
54.610276
 20
94.587336
 30
0.0
 40
1.27011
  0
CIRCLE
  5
63
100
AcDbEntity
  8
ANNOTATIONS
 62
     7
100
AcDbCircle
 10
-54.609931
 20
-94.58768
 30
0.0
 40
1.27011
  0
ENDBLK
  5
65
100
AcDbEntity
  8
ANNOTATIONS
100
AcDbBlockEnd
  0
BLOCK
  5
8D
100
AcDbEntity
  8
ANNOTATIONS
 62
     7
100
AcDbBlockBegin
  2
AI9-BLK5
 70
     0
 10
0.0
 20
0.0
 30
0.0
  3
AI9-BLK5
  1

  0
CIRCLE
  5
8F
100
AcDbEntity
  8
ANNOTATIONS
 62
     7
100
AcDbCircle
 10
54.609242
 20
-94.587336
 30
0.0
 40
1.270357
  0
CIRCLE
  5
8E
100
AcDbEntity
  8
ANNOTATIONS
 62
     7
100
AcDbCircle
 10
-54.610103
 20
94.58725
 30
0.0
 40
1.270196
  0
ENDBLK
  5
90
100
AcDbEntity
  8
ANNOTATIONS
100
AcDbBlockEnd
  0
BLOCK
  5
93
100
AcDbEntity
  8
ANNOTATIONS
 62
     7
100
AcDbBlockBegin
  2
AI9-BLK6
 70
     0
 10
0.0
 20
0.0
 30
0.0
  3
AI9-BLK6
  1

  0
CIRCLE
  5
95
100
AcDbEntity
  8
ANNOTATIONS
 62
     7
100
AcDbCircle
 10
54.610276
 20
94.587336
 30
0.0
 40
1.27011
  0
CIRCLE
  5
94
100
AcDbEntity
  8
ANNOTATIONS
 62
     7
100
AcDbCircle
 10
-54.609931
 20
-94.587594
 30
0.0
 40
1.270185
  0
ENDBLK
  5
96
100
AcDbEntity
  8
ANNOTATIONS
100
AcDbBlockEnd
  0
BLOCK
  5
BE
100
AcDbEntity
  8
ANNOTATIONS
 62
     7
100
AcDbBlockBegin
  2
AI9-BLK7
 70
     0
 10
0.0
 20
0.0
 30
0.0
  3
AI9-BLK7
  1

  0
CIRCLE
  5
C0
100
AcDbEntity
  8
ANNOTATIONS
 62
     7
100
AcDbCircle
 10
54.609242
 20
-94.587422
 30
0.0
 40
1.270282
  0
CIRCLE
  5
BF
100
AcDbEntity
  8
ANNOTATIONS
 62
     7
100
AcDbCircle
 10
-54.610189
 20
94.587078
 30
0.0
 40
1.270153
  0
ENDBLK
  5
C1
100
AcDbEntity
  8
ANNOTATIONS
100
AcDbBlockEnd
  0
BLOCK
  5
C4
100
AcDbEntity
  8
ANNOTATIONS
 62
     7
100
AcDbBlockBegin
  2
AI9-BLK8
 70
     0
 10
0.0
 20
0.0
 30
0.0
  3
AI9-BLK8
  1

  0
CIRCLE
  5
C6
100
AcDbEntity
  8
ANNOTATIONS
 62
     7
100
AcDbCircle
 10
54.610276
 20
94.587336
 30
0.0
 40
1.27011
  0
CIRCLE
  5
C5
100
AcDbEntity
  8
ANNOTATIONS
 62
     7
100
AcDbCircle
 10
-54.609845
 20
-94.587508
 30
0.0
 40
1.270153
  0
ENDBLK
  5
C7
100
AcDbEntity
  8
ANNOTATIONS
100
AcDbBlockEnd
  0
ENDSEC
  0
SECTION
  2
ENTITIES
  0
LINE
  5
EF
100
AcDbEntity
  8
DXF_OUTPUT
 62
     7
100
AcDbLine
 10
-76.733473
 20
336.55
 30
0.0
 11
-76.733473
 21
323.85
 31
0.0
  0
LINE
  5
EE
100
AcDbEntity
  8
DXF_OUTPUT
 62
     7
100
AcDbLine
 10
178.333301
 20
336.55
 30
0.0
 11
178.333301
 21
323.85
 31
0.0
  0
CIRCLE
  5
EC
100
AcDbEntity
  8
ANNOTATIONS
 62
     7
100
AcDbCircle
 10
39.144467
 20
239.689073
 30
0.0
 40
115.887414
  0
CIRCLE
  5
EB
100
AcDbEntity
  8
ANNOTATIONS
 62
     7
100
AcDbCircle
 10
148.364243
 20
239.688729
 30
0.0
 40
1.269862
  0
CIRCLE
  5
EA
100
AcDbEntity
  8
ANNOTATIONS
 62
     7
100
AcDbCircle
 10
-70.075481
 20
239.688729
 30
0.0
 40
1.270034
  0
CIRCLE
  5
E9
100
AcDbEntity
  8
ANNOTATIONS
 62
     7
100
AcDbCircle
 10
64.544725
 20
168.115664
 30
0.0
 40
2.540069
  0
CIRCLE
  5
E8
100
AcDbEntity
  8
ANNOTATIONS
 62
     7
100
AcDbCircle
 10
125.106059
 20
212.526562
 30
0.0
 40
2.540069
  0
CIRCLE
  5
E7
100
AcDbEntity
  8
ANNOTATIONS
 62
     7
100
AcDbCircle
 10
89.944725
 20
168.115664
 30
0.0
 40
2.540069
  0
SPLINE
  5
E6
100
AcDbEntity
  8
ANNOTATIONS
 62
     7
100
AcDbSpline
210
0.0
220
0.0
230
1.0
 70
     8
 71
     3
 72
    29
 73
    25
 74
     0
 42
0.00000001
 43
0.00000001
 40
0.0
 40
0.0
 40
0.0
 40
0.0
 40
1.0
 40
1.0
 40
1.0
 40
2.0
 40
2.0
 40
2.0
 40
3.0
 40
3.0
 40
3.0
 40
4.0
 40
4.0
 40
4.0
 40
5.0
 40
5.0
 40
5.0
 40
6.0
 40
6.0
 40
6.0
 40
7.0
 40
7.0
 40
7.0
 40
8.0
 40
8.0
 40
8.0
 40
8.0
 10
-42.629267035590274
 20
240.74740668402777
 30
0.0
 10
-42.629267035590274
 20
240.04598524305553
 30
0.0
 10
-43.197880045572916
 20
239.47754448784721
 30
0.0
 10
-43.899301486545134
 20
239.47754448784721
 30
0.0
 10
-43.899301486545134
 20
239.47754448784721
 30
0.0
 10
-43.899301486545134
 20
239.47754448784721
 30
0.0
 10
-43.899301486545134
 20
239.47754448784721
 30
0.0
 10
-44.60072292751736
 20
239.47754448784721
 30
0.0
 10
-45.169335937499994
 20
240.04598524305553
 30
0.0
 10
-45.169335937499994
 20
240.74740668402777
 30
0.0
 10
-45.169335937499994
 20
240.74740668402777
 30
0.0
 10
-45.169335937499994
 20
245.82754448784721
 30
0.0
 10
-45.169335937499994
 20
245.82754448784721
 30
0.0
 10
-45.169335937499994
 20
246.52896592881942
 30
0.0
 10
-44.60072292751736
 20
247.09740668402776
 30
0.0
 10
-43.899301486545134
 20
247.09740668402776
 30
0.0
 10
-43.899301486545134
 20
247.09740668402776
 30
0.0
 10
-43.899301486545134
 20
247.09740668402776
 30
0.0
 10
-43.899301486545134
 20
247.09740668402776
 30
0.0
 10
-43.197880045572916
 20
247.09740668402776
 30
0.0
 10
-42.629267035590274
 20
246.52896592881942
 30
0.0
 10
-42.629267035590274
 20
245.82754448784721
 30
0.0
 10
-42.629267035590274
 20
245.82754448784721
 30
0.0
 10
-42.629267035590274
 20
240.74740668402777
 30
0.0
 10
-42.629267035590274
 20
240.74740668402777
 30
0.0
  0
CIRCLE
  5
E5
100
AcDbEntity
  8
ANNOTATIONS
 62
     7
100
AcDbCircle
 10
115.698192
 20
198.415279
 30
0.0
 40
1.829001
  0
CIRCLE
  5
E4
100
AcDbEntity
  8
ANNOTATIONS
 62
     7
100
AcDbCircle
 10
93.59067
 20
303.543229
 30
0.0
 40
2.920752
  0
LINE
  5
E3
100
AcDbEntity
  8
ANNOTATIONS
 62
     7
100
AcDbLine
 10
130.136243
 20
231.485612
 30
0.0
 11
130.136243
 21
245.786548
 31
0.0
  0
SPLINE
  5
E2
100
AcDbEntity
  8
ANNOTATIONS
 62
     7
100
AcDbSpline
210
0.0
220
0.0
230
1.0
 70
     8
 71
     3
 72
    11
 73
     7
 74
     0
 42
0.00000001
 43
0.00000001
 40
0.0
 40
0.0
 40
0.0
 40
0.0
 40
1.0
 40
1.0
 40
1.0
 40
2.0
 40
2.0
 40
2.0
 40
2.0
 10
127.15554606119791
 20
228.98412814670138
 30
0.0
 10
128.53702935112847
 20
228.74055989583331
 30
0.0
 10
129.85443386501734
 20
229.66281195746527
 30
0.0
 10
130.09765760633678
 20
231.04429524739581
 30
0.0
 10
130.12315131293403
 20
231.19002278645831
 30
0.0
 10
130.13624267578123
 20
231.33747287326386
 30
0.0
 10
130.13624267578123
 20
231.48561197916663
 30
0.0
  0
LINE
  5
E1
100
AcDbEntity
  8
ANNOTATIONS
 62
     7
100
AcDbLine
 10
122.075408
 20
229.879853
 30
0.0
 11
127.155546
 21
228.984128
 31
0.0
  0
SPLINE
  5
E0
100
AcDbEntity
  8
ANNOTATIONS
 62
     7
100
AcDbSpline
210
0.0
220
0.0
230
1.0
 70
     8
 71
     3
 72
     8
 73
     4
 74
     0
 42
0.00000001
 43
0.00000001
 40
0.0
 40
0.0
 40
0.0
 40
0.0
 40
1.0
 40
1.0
 40
1.0
 40
1.0
 10
119.97665608723958
 20
232.38133680555555
 30
0.0
 10
119.97665608723958
 20
231.14868164062497
 30
0.0
 10
120.86135660807291
 20
230.09379340277775
 30
0.0
 10
122.07540825737846
 20
229.87985297309027
 30
0.0
  0
LINE
  5
DF
100
AcDbEntity
  8
ANNOTATIONS
 62
     7
100
AcDbLine
 10
119.976656
 20
244.890823
 30
0.0
 11
119.976656
 21
232.381337
 31
0.0
  0
LINE
  5
DE
100
AcDbEntity
  8
ANNOTATIONS
 62
     7
100
AcDbLine
 10
127.155546
 20
248.288032
 30
0.0
 11
122.075408
 21
247.392307
 31
0.0
  0
SPLINE
  5
DD
100
AcDbEntity
  8
ANNOTATIONS
 62
     7
100
AcDbSpline
210
0.0
220
0.0
230
1.0
 70
     8
 71
     3
 72
    11
 73
     7
 74
     0
 42
0.00000001
 43
0.00000001
 40
0.0
 40
0.0
 40
0.0
 40
0.0
 40
1.0
 40
1.0
 40
1.0
 40
2.0
 40
2.0
 40
2.0
 40
2.0
 10
130.13624267578123
 20
245.78654785156249
 30
0.0
 10
130.13624267578123
 20
247.18939073350691
 30
0.0
 10
128.99936116536458
 20
248.32661675347219
 30
0.0
 10
127.59651828342012
 20
248.32661675347219
 30
0.0
 10
127.44837917751735
 20
248.32661675347219
 30
0.0
 10
127.30092909071179
 20
248.31352539062499
 30
0.0
 10
127.15554606119791
 20
248.28803168402774
 30
0.0
  0
SPLINE
  5
DC
100
AcDbEntity
  8
ANNOTATIONS
 62
     7
100
AcDbSpline
210
0.0
220
0.0
230
1.0
 70
     8
 71
     3
 72
     8
 73
     4
 74
     0
 42
0.00000001
 43
0.00000001
 40
0.0
 40
0.0
 40
0.0
 40
0.0
 40
1.0
 40
1.0
 40
1.0
 40
1.0
 10
122.07540825737846
 20
247.39230685763886
 30
0.0
 10
120.86135660807291
 20
247.17836642795137
 30
0.0
 10
119.97665608723958
 20
246.12347819010415
 30
0.0
 10
119.97665608723958
 20
244.8908230251736
 30
0.0
  0
CIRCLE
  5
DB
100
AcDbEntity
  8
ANNOTATIONS
 62
     7
100
AcDbCircle
 10
125.056105
 20
226.139168
 30
0.0
 40
1.143083
  0
CIRCLE
  5
DA
100
AcDbEntity
  8
ANNOTATIONS
 62
     7
100
AcDbCircle
 10
125.056105
 20
251.132819
 30
0.0
 40
1.14291
  0
CIRCLE
  5
D9
100
AcDbEntity
  8
ANNOTATIONS
 62
     7
100
AcDbCircle
 10
39.144553
 20
150.788901
 30
0.0
 40
1.5875
  0
CIRCLE
  5
D8
100
AcDbEntity
  8
ANNOTATIONS
 62
     7
100
AcDbCircle
 10
89.944381
 20
239.689073
 30
0.0
 40
1.5875
  0
CIRCLE
  5
D7
100
AcDbEntity
  8
ANNOTATIONS
 62
     7
100
AcDbCircle
 10
-11.655447
 20
239.689073
 30
0.0
 40
1.5875
  0
CIRCLE
  5
D6
100
AcDbEntity
  8
ANNOTATIONS
 62
     7
100
AcDbCircle
 10
-38.347875
 20
194.418279
 30
0.0
 40
1.828829
  0
LINE
  5
D5
100
AcDbEntity
  8
ANNOTATIONS
 62
     7
100
AcDbLine
 10
-48.689879
 20
226.397206
 30
0.0
 11
-48.689879
 21
212.09627
 31
0.0
  0
SPLINE
  5
D4
100
AcDbEntity
  8
ANNOTATIONS
 62
     7
100
AcDbSpline
210
0.0
220
0.0
230
1.0
 70
     8
 71
     3
 72
    11
 73
     7
 74
     0
 42
0.00000001
 43
0.00000001
 40
0.0
 40
0.0
 40
0.0
 40
0.0
 40
1.0
 40
1.0
 40
1.0
 40
2.0
 40
2.0
 40
2.0
 40
2.0
 10
-45.70918240017361
 20
228.8986897786458
 30
0.0
 10
-47.09066569010416
 20
229.14225802951387
 30
0.0
 10
-48.408070203993049
 20
228.22000596788192
 30
0.0
 10
-48.651293945312496
 20
226.83852267795137
 30
0.0
 10
-48.677132161458331
 20
226.69279513888887
 30
0.0
 10
-48.68987901475694
 20
226.54534505208332
 30
0.0
 10
-48.68987901475694
 20
226.39720594618055
 30
0.0
  0
LINE
  5
D3
100
AcDbEntity
  8
ANNOTATIONS
 62
     7
100
AcDbLine
 10
-40.629045
 20
228.002965
 30
0.0
 11
-45.709182
 21
228.89869
 31
0.0
  0
SPLINE
  5
D2
100
AcDbEntity
  8
ANNOTATIONS
 62
     7
100
AcDbSpline
210
0.0
220
0.0
230
1.0
 70
     8
 71
     3
 72
     8
 73
     4
 74
     0
 42
0.00000001
 43
0.00000001
 40
0.0
 40
0.0
 40
0.0
 40
0.0
 40
1.0
 40
1.0
 40
1.0
 40
1.0
 10
-38.530292426215276
 20
225.50148111979163
 30
0.0
 10
-38.530292426215276
 20
226.73413628472221
 30
0.0
 10
-39.41499294704861
 20
227.78902452256943
 30
0.0
 10
-40.629044596354163
 20
228.00296495225692
 30
0.0
  0
LINE
  5
D1
100
AcDbEntity
  8
ANNOTATIONS
 62
     7
100
AcDbLine
 10
-38.530292
 20
212.991995
 30
0.0
 11
-38.530292
 21
225.501481
 31
0.0
  0
LINE
  5
D0
100
AcDbEntity
  8
ANNOTATIONS
 62
     7
100
AcDbLine
 10
-45.709182
 20
209.594786
 30
0.0
 11
-40.629045
 21
210.490511
 31
0.0
  0
SPLINE
  5
CF
100
AcDbEntity
  8
ANNOTATIONS
 62
     7
100
AcDbSpline
210
0.0
220
0.0
230
1.0
 70
     8
 71
     3
 72
    11
 73
     7
 74
     0
 42
0.00000001
 43
0.00000001
 40
0.0
 40
0.0
 40
0.0
 40
0.0
 40
1.0
 40
1.0
 40
1.0
 40
2.0
 40
2.0
 40
2.0
 40
2.0
 10
-48.68987901475694
 20
212.09627007378469
 30
0.0
 10
-48.68987901475694
 20
210.69342719184027
 30
0.0
 10
-47.552997504340276
 20
209.55620117187499
 30
0.0
 10
-46.150154622395831
 20
209.55620117187499
 30
0.0
 10
-46.002015516493053
 20
209.55620117187499
 30
0.0
 10
-45.854565429687497
 20
209.56929253472219
 30
0.0
 10
-45.70918240017361
 20
209.59478624131941
 30
0.0
  0
SPLINE
  5
CE
100
AcDbEntity
  8
ANNOTATIONS
 62
     7
100
AcDbSpline
210
0.0
220
0.0
230
1.0
 70
     8
 71
     3
 72
     8
 73
     4
 74
     0
 42
0.00000001
 43
0.00000001
 40
0.0
 40
0.0
 40
0.0
 40
0.0
 40
1.0
 40
1.0
 40
1.0
 40
1.0
 10
-40.629044596354163
 20
210.49051106770833
 30
0.0
 10
-39.41499294704861
 20
210.70445149739581
 30
0.0
 10
-38.530292426215276
 20
211.75933973524303
 30
0.0
 10
-38.530292426215276
 20
212.99199490017358
 30
0.0
  0
CIRCLE
  5
CD
100
AcDbEntity
  8
ANNOTATIONS
 62
     7
100
AcDbCircle
 10
-43.610086
 20
231.74365
 30
0.0
 40
1.143083
  0
CIRCLE
  5
CC
100
AcDbEntity
  8
ANNOTATIONS
 62
     7
100
AcDbCircle
 10
-43.610086
 20
206.749999
 30
0.0
 40
1.14291
  0
CIRCLE
  5
CB
100
AcDbEntity
  8
ANNOTATIONS
 62
     7
100
AcDbCircle
 10
-13.137183
 20
196.015426
 30
0.0
 40
1.130336
  0
CIRCLE
  5
CA
100
AcDbEntity
  8
ANNOTATIONS
 62
     7
100
AcDbCircle
 10
64.332507
 20
281.740253
 30
0.0
 40
1.130336
  0
CIRCLE
  5
C9
100
AcDbEntity
  8
ANNOTATIONS
 62
     7
100
AcDbCircle
 10
60.522921
 20
196.015426
 30
0.0
 40
1.130336
  0
CIRCLE
  5
C8
100
AcDbEntity
  8
ANNOTATIONS
 62
     7
100
AcDbCircle
 10
-15.677079
 20
281.740253
 30
0.0
 40
1.130336
  0
INSERT
  5
C3
100
AcDbEntity
  8
ANNOTATIONS
 62
     7
100
AcDbBlockReference
  2
AI9-BLK8
 10
39.144725
 20
239.688901
 30
0.0
  0
INSERT
  5
BD
100
AcDbEntity
  8
ANNOTATIONS
 62
     7
100
AcDbBlockReference
  2
AI9-BLK7
 10
39.144725
 20
239.688815
 30
0.0
  0
CIRCLE
  5
BB
100
AcDbEntity
  8
ANNOTATIONS
 62
     7
100
AcDbCircle
 10
271.916305
 20
239.689246
 30
0.0
 40
115.887414
  0
CIRCLE
  5
BA
100
AcDbEntity
  8
ANNOTATIONS
 62
     7
100
AcDbCircle
 10
381.136081
 20
239.688901
 30
0.0
 40
1.269862
  0
CIRCLE
  5
B9
100
AcDbEntity
  8
ANNOTATIONS
 62
     7
100
AcDbCircle
 10
162.696357
 20
239.688901
 30
0.0
 40
1.270034
  0
CIRCLE
  5
B8
100
AcDbEntity
  8
ANNOTATIONS
 62
     7
100
AcDbCircle
 10
297.316564
 20
168.115837
 30
0.0
 40
2.540069
  0
CIRCLE
  5
B7
100
AcDbEntity
  8
ANNOTATIONS
 62
     7
100
AcDbCircle
 10
357.877897
 20
212.526735
 30
0.0
 40
2.540069
  0
CIRCLE
  5
B6
100
AcDbEntity
  8
ANNOTATIONS
 62
     7
100
AcDbCircle
 10
322.716564
 20
168.115837
 30
0.0
 40
2.540069
  0
SPLINE
  5
B5
100
AcDbEntity
  8
ANNOTATIONS
 62
     7
100
AcDbSpline
210
0.0
220
0.0
230
1.0
 70
     8
 71
     3
 72
    29
 73
    25
 74
     0
 42
0.00000001
 43
0.00000001
 40
0.0
 40
0.0
 40
0.0
 40
0.0
 40
1.0
 40
1.0
 40
1.0
 40
2.0
 40
2.0
 40
2.0
 40
3.0
 40
3.0
 40
3.0
 40
4.0
 40
4.0
 40
4.0
 40
5.0
 40
5.0
 40
5.0
 40
6.0
 40
6.0
 40
6.0
 40
7.0
 40
7.0
 40
7.0
 40
8.0
 40
8.0
 40
8.0
 40
8.0
 10
190.14257134331595
 20
240.74757893880206
 30
0.0
 10
190.14257134331595
 20
240.04615749782985
 30
0.0
 10
189.57395833333331
 20
239.47771674262151
 30
0.0
 10
188.8725368923611
 20
239.47771674262151
 30
0.0
 10
188.8725368923611
 20
239.47771674262151
 30
0.0
 10
188.8725368923611
 20
239.47771674262151
 30
0.0
 10
188.8725368923611
 20
239.47771674262151
 30
0.0
 10
188.17111545138889
 20
239.47771674262151
 30
0.0
 10
187.60250244140624
 20
240.04615749782985
 30
0.0
 10
187.60250244140624
 20
240.74757893880206
 30
0.0
 10
187.60250244140624
 20
240.74757893880206
 30
0.0
 10
187.60250244140624
 20
245.8277167426215
 30
0.0
 10
187.60250244140624
 20
245.8277167426215
 30
0.0
 10
187.60250244140624
 20
246.52913818359372
 30
0.0
 10
188.17111545138889
 20
247.09757893880206
 30
0.0
 10
188.8725368923611
 20
247.09757893880206
 30
0.0
 10
188.8725368923611
 20
247.09757893880206
 30
0.0
 10
188.8725368923611
 20
247.09757893880206
 30
0.0
 10
188.8725368923611
 20
247.09757893880206
 30
0.0
 10
189.57395833333331
 20
247.09757893880206
 30
0.0
 10
190.14257134331595
 20
246.52913818359372
 30
0.0
 10
190.14257134331595
 20
245.8277167426215
 30
0.0
 10
190.14257134331595
 20
245.8277167426215
 30
0.0
 10
190.14257134331595
 20
240.74757893880206
 30
0.0
 10
190.14257134331595
 20
240.74757893880206
 30
0.0
  0
CIRCLE
  5
B4
100
AcDbEntity
  8
ANNOTATIONS
 62
     7
100
AcDbCircle
 10
348.47003
 20
198.415451
 30
0.0
 40
1.829001
  0
CIRCLE
  5
B3
100
AcDbEntity
  8
ANNOTATIONS
 62
     7
100
AcDbCircle
 10
326.362508
 20
303.543401
 30
0.0
 40
2.920752
  0
LINE
  5
B2
100
AcDbEntity
  8
ANNOTATIONS
 62
     7
100
AcDbLine
 10
362.908081
 20
231.485784
 30
0.0
 11
362.908081
 21
245.78672
 31
0.0
  0
SPLINE
  5
B1
100
AcDbEntity
  8
ANNOTATIONS
 62
     7
100
AcDbSpline
210
0.0
220
0.0
230
1.0
 70
     8
 71
     3
 72
    11
 73
     7
 74
     0
 42
0.00000001
 43
0.00000001
 40
0.0
 40
0.0
 40
0.0
 40
0.0
 40
1.0
 40
1.0
 40
1.0
 40
2.0
 40
2.0
 40
2.0
 40
2.0
 10
359.92738444010411
 20
228.98430040147568
 30
0.0
 10
361.30886773003471
 20
228.74073215060761
 30
0.0
 10
362.62627224392355
 20
229.66298421223956
 30
0.0
 10
362.86949598524302
 20
231.04446750217011
 30
0.0
 10
362.89498969184024
 20
231.19019504123261
 30
0.0
 10
362.90808105468744
 20
231.33764512803816
 30
0.0
 10
362.90808105468744
 20
231.48578423394096
 30
0.0
  0
LINE
  5
B0
100
AcDbEntity
  8
ANNOTATIONS
 62
     7
100
AcDbLine
 10
354.847247
 20
229.880025
 30
0.0
 11
359.927384
 21
228.9843
 31
0.0
  0
SPLINE
  5
AF
100
AcDbEntity
  8
ANNOTATIONS
 62
     7
100
AcDbSpline
210
0.0
220
0.0
230
1.0
 70
     8
 71
     3
 72
     8
 73
     4
 74
     0
 42
0.00000001
 43
0.00000001
 40
0.0
 40
0.0
 40
0.0
 40
0.0
 40
1.0
 40
1.0
 40
1.0
 40
1.0
 10
352.74849446614581
 20
232.38150906032985
 30
0.0
 10
352.74849446614581
 20
231.1488538953993
 30
0.0
 10
353.63319498697916
 20
230.09396565755208
 30
0.0
 10
354.84724663628469
 20
229.88002522786456
 30
0.0
  0
LINE
  5
AE
100
AcDbEntity
  8
ANNOTATIONS
 62
     7
100
AcDbLine
 10
352.748494
 20
244.890995
 30
0.0
 11
352.748494
 21
232.381509
 31
0.0
  0
LINE
  5
AD
100
AcDbEntity
  8
ANNOTATIONS
 62
     7
100
AcDbLine
 10
359.927384
 20
248.288204
 30
0.0
 11
354.847247
 21
247.392479
 31
0.0
  0
SPLINE
  5
AC
100
AcDbEntity
  8
ANNOTATIONS
 62
     7
100
AcDbSpline
210
0.0
220
0.0
230
1.0
 70
     8
 71
     3
 72
    11
 73
     7
 74
     0
 42
0.00000001
 43
0.00000001
 40
0.0
 40
0.0
 40
0.0
 40
0.0
 40
1.0
 40
1.0
 40
1.0
 40
2.0
 40
2.0
 40
2.0
 40
2.0
 10
362.90808105468744
 20
245.78672010633679
 30
0.0
 10
362.90808105468744
 20
247.18956298828124
 30
0.0
 10
361.77119954427081
 20
248.32678900824649
 30
0.0
 10
360.36835666232633
 20
248.32678900824649
 30
0.0
 10
360.22021755642356
 20
248.32678900824649
 30
0.0
 10
360.07276746961804
 20
248.31369764539929
 30
0.0
 10
359.92738444010411
 20
248.28820393880207
 30
0.0
  0
SPLINE
  5
AB
100
AcDbEntity
  8
ANNOTATIONS
 62
     7
100
AcDbSpline
210
0.0
220
0.0
230
1.0
 70
     8
 71
     3
 72
     8
 73
     4
 74
     0
 42
0.00000001
 43
0.00000001
 40
0.0
 40
0.0
 40
0.0
 40
0.0
 40
1.0
 40
1.0
 40
1.0
 40
1.0
 10
354.84724663628469
 20
247.39247911241318
 30
0.0
 10
353.63319498697916
 20
247.17853868272567
 30
0.0
 10
352.74849446614581
 20
246.12365044487845
 30
0.0
 10
352.74849446614581
 20
244.8909952799479
 30
0.0
  0
CIRCLE
  5
AA
100
AcDbEntity
  8
ANNOTATIONS
 62
     7
100
AcDbCircle
 10
357.827943
 20
226.139341
 30
0.0
 40
1.143083
  0
CIRCLE
  5
A9
100
AcDbEntity
  8
ANNOTATIONS
 62
     7
100
AcDbCircle
 10
357.827943
 20
251.132992
 30
0.0
 40
1.14291
  0
CIRCLE
  5
A8
100
AcDbEntity
  8
ANNOTATIONS
 62
     7
100
AcDbCircle
 10
271.916564
 20
150.789073
 30
0.0
 40
1.5875
  0
CIRCLE
  5
A7
100
AcDbEntity
  8
ANNOTATIONS
 62
     7
100
AcDbCircle
 10
322.716219
 20
239.689246
 30
0.0
 40
1.5875
  0
CIRCLE
  5
A6
100
AcDbEntity
  8
ANNOTATIONS
 62
     7
100
AcDbCircle
 10
221.116564
 20
239.689246
 30
0.0
 40
1.5875
  0
CIRCLE
  5
A5
100
AcDbEntity
  8
ANNOTATIONS
 62
     7
100
AcDbCircle
 10
194.423964
 20
194.418452
 30
0.0
 40
1.828829
  0
LINE
  5
A4
100
AcDbEntity
  8
ANNOTATIONS
 62
     7
100
AcDbLine
 10
184.081959
 20
226.397378
 30
0.0
 11
184.081959
 21
212.096442
 31
0.0
  0
SPLINE
  5
A3
100
AcDbEntity
  8
ANNOTATIONS
 62
     7
100
AcDbSpline
210
0.0
220
0.0
230
1.0
 70
     8
 71
     3
 72
    11
 73
     7
 74
     0
 42
0.00000001
 43
0.00000001
 40
0.0
 40
0.0
 40
0.0
 40
0.0
 40
1.0
 40
1.0
 40
1.0
 40
2.0
 40
2.0
 40
2.0
 40
2.0
 10
187.06265597873264
 20
228.89886203342013
 30
0.0
 10
185.68117268880206
 20
229.14243028428817
 30
0.0
 10
184.36376817491319
 20
228.22017822265622
 30
0.0
 10
184.12054443359372
 20
226.83869493272567
 30
0.0
 10
184.09470621744791
 20
226.69296739366317
 30
0.0
 10
184.0819593641493
 20
226.54551730685762
 30
0.0
 10
184.0819593641493
 20
226.39737820095485
 30
0.0
  0
LINE
  5
A2
100
AcDbEntity
  8
ANNOTATIONS
 62
     7
100
AcDbLine
 10
192.142794
 20
228.003137
 30
0.0
 11
187.062656
 21
228.898862
 31
0.0
  0
SPLINE
  5
A1
100
AcDbEntity
  8
ANNOTATIONS
 62
     7
100
AcDbSpline
210
0.0
220
0.0
230
1.0
 70
     8
 71
     3
 72
     8
 73
     4
 74
     0
 42
0.00000001
 43
0.00000001
 40
0.0
 40
0.0
 40
0.0
 40
0.0
 40
1.0
 40
1.0
 40
1.0
 40
1.0
 10
194.24154595269096
 20
225.50165337456596
 30
0.0
 10
194.24154595269096
 20
226.73430853949651
 30
0.0
 10
193.35684543185761
 20
227.78919677734373
 30
0.0
 10
192.14279378255208
 20
228.00313720703122
 30
0.0
  0
LINE
  5
A0
100
AcDbEntity
  8
ANNOTATIONS
 62
     7
100
AcDbLine
 10
194.241546
 20
212.992167
 30
0.0
 11
194.241546
 21
225.501653
 31
0.0
  0
LINE
  5
9F
100
AcDbEntity
  8
ANNOTATIONS
 62
     7
100
AcDbLine
 10
187.062656
 20
209.594958
 30
0.0
 11
192.142794
 21
210.490683
 31
0.0
  0
SPLINE
  5
9E
100
AcDbEntity
  8
ANNOTATIONS
 62
     7
100
AcDbSpline
210
0.0
220
0.0
230
1.0
 70
     8
 71
     3
 72
    11
 73
     7
 74
     0
 42
0.00000001
 43
0.00000001
 40
0.0
 40
0.0
 40
0.0
 40
0.0
 40
1.0
 40
1.0
 40
1.0
 40
2.0
 40
2.0
 40
2.0
 40
2.0
 10
184.0819593641493
 20
212.09644232855902
 30
0.0
 10
184.0819593641493
 20
210.69359944661457
 30
0.0
 10
185.21884087456596
 20
209.55637342664929
 30
0.0
 10
186.62168375651041
 20
209.55637342664929
 30
0.0
 10
186.76982286241318
 20
209.55637342664929
 30
0.0
 10
186.91727294921873
 20
209.56946478949652
 30
0.0
 10
187.06265597873264
 20
209.59495849609374
 30
0.0
  0
SPLINE
  5
9D
100
AcDbEntity
  8
ANNOTATIONS
 62
     7
100
AcDbSpline
210
0.0
220
0.0
230
1.0
 70
     8
 71
     3
 72
     8
 73
     4
 74
     0
 42
0.00000001
 43
0.00000001
 40
0.0
 40
0.0
 40
0.0
 40
0.0
 40
1.0
 40
1.0
 40
1.0
 40
1.0
 10
192.14279378255208
 20
210.49068332248262
 30
0.0
 10
193.35684543185761
 20
210.70462375217011
 30
0.0
 10
194.24154595269096
 20
211.75951199001733
 30
0.0
 10
194.24154595269096
 20
212.99216715494791
 30
0.0
  0
CIRCLE
  5
9C
100
AcDbEntity
  8
ANNOTATIONS
 62
     7
100
AcDbCircle
 10
189.161753
 20
231.743822
 30
0.0
 40
1.143083
  0
CIRCLE
  5
9B
100
AcDbEntity
  8
ANNOTATIONS
 62
     7
100
AcDbCircle
 10
189.161753
 20
206.750171
 30
0.0
 40
1.14291
  0
CIRCLE
  5
9A
100
AcDbEntity
  8
ANNOTATIONS
 62
     7
100
AcDbCircle
 10
219.634828
 20
196.015598
 30
0.0
 40
1.130336
  0
CIRCLE
  5
99
100
AcDbEntity
  8
ANNOTATIONS
 62
     7
100
AcDbCircle
 10
297.104346
 20
281.740426
 30
0.0
 40
1.130336
  0
CIRCLE
  5
98
100
AcDbEntity
  8
ANNOTATIONS
 62
     7
100
AcDbCircle
 10
293.294759
 20
196.015598
 30
0.0
 40
1.130336
  0
CIRCLE
  5
97
100
AcDbEntity
  8
ANNOTATIONS
 62
     7
100
AcDbCircle
 10
217.094759
 20
281.740426
 30
0.0
 40
1.130336
  0
INSERT
  5
92
100
AcDbEntity
  8
ANNOTATIONS
 62
     7
100
AcDbBlockReference
  2
AI9-BLK6
 10
271.916564
 20
239.689073
 30
0.0
  0
INSERT
  5
8C
100
AcDbEntity
  8
ANNOTATIONS
 62
     7
100
AcDbBlockReference
  2
AI9-BLK5
 10
271.916564
 20
239.688815
 30
0.0
  0
CIRCLE
  5
8A
100
AcDbEntity
  8
ANNOTATIONS
 62
     7
100
AcDbCircle
 10
155.488184
 20
37.130206
 30
0.0
 40
115.8875
  0
CIRCLE
  5
89
100
AcDbEntity
  8
ANNOTATIONS
 62
     7
100
AcDbCircle
 10
264.708046
 20
37.129861
 30
0.0
 40
1.269862
  0
CIRCLE
  5
88
100
AcDbEntity
  8
ANNOTATIONS
 62
     7
100
AcDbCircle
 10
46.268149
 20
37.129861
 30
0.0
 40
1.270034
  0
CIRCLE
  5
87
100
AcDbEntity
  8
ANNOTATIONS
 62
     7
100
AcDbCircle
 10
180.888356
 20
-34.443376
 30
0.0
 40
2.540069
  0
CIRCLE
  5
86
100
AcDbEntity
  8
ANNOTATIONS
 62
     7
100
AcDbCircle
 10
241.449862
 20
9.967695
 30
0.0
 40
2.540069
  0
CIRCLE
  5
85
100
AcDbEntity
  8
ANNOTATIONS
 62
     7
100
AcDbCircle
 10
206.288356
 20
-34.443376
 30
0.0
 40
2.540069
  0
SPLINE
  5
84
100
AcDbEntity
  8
ANNOTATIONS
 62
     7
100
AcDbSpline
210
0.0
220
0.0
230
1.0
 70
     8
 71
     3
 72
    29
 73
    25
 74
     0
 42
0.00000001
 43
0.00000001
 40
0.0
 40
0.0
 40
0.0
 40
0.0
 40
1.0
 40
1.0
 40
1.0
 40
2.0
 40
2.0
 40
2.0
 40
3.0
 40
3.0
 40
3.0
 40
4.0
 40
4.0
 40
4.0
 40
5.0
 40
5.0
 40
5.0
 40
6.0
 40
6.0
 40
6.0
 40
7.0
 40
7.0
 40
7.0
 40
8.0
 40
8.0
 40
8.0
 40
8.0
 10
73.714363606770831
 20
38.188538953993053
 30
0.0
 10
73.714363606770831
 20
37.487117513020827
 30
0.0
 10
73.14575059678819
 20
36.918676757812499
 30
0.0
 10
72.444329155815964
 20
36.918676757812499
 30
0.0
 10
72.444329155815964
 20
36.918676757812499
 30
0.0
 10
72.444329155815964
 20
36.918676757812499
 30
0.0
 10
72.444329155815964
 20
36.918676757812499
 30
0.0
 10
71.742907714843739
 20
36.918676757812499
 30
0.0
 10
71.174294704861111
 20
37.487117513020827
 30
0.0
 10
71.174294704861111
 20
38.188538953993053
 30
0.0
 10
71.174294704861111
 20
38.188538953993053
 30
0.0
 10
71.174294704861111
 20
43.268676757812493
 30
0.0
 10
71.174294704861111
 20
43.268676757812493
 30
0.0
 10
71.174294704861111
 20
43.970098198784719
 30
0.0
 10
71.742907714843739
 20
44.538538953993054
 30
0.0
 10
72.444329155815964
 20
44.538538953993054
 30
0.0
 10
72.444329155815964
 20
44.538538953993054
 30
0.0
 10
72.444329155815964
 20
44.538538953993054
 30
0.0
 10
72.444329155815964
 20
44.538538953993054
 30
0.0
 10
73.14575059678819
 20
44.538538953993054
 30
0.0
 10
73.714363606770831
 20
43.970098198784719
 30
0.0
 10
73.714363606770831
 20
43.268676757812493
 30
0.0
 10
73.714363606770831
 20
43.268676757812493
 30
0.0
 10
73.714363606770831
 20
38.188538953993053
 30
0.0
 10
73.714363606770831
 20
38.188538953993053
 30
0.0
  0
CIRCLE
  5
83
100
AcDbEntity
  8
ANNOTATIONS
 62
     7
100
AcDbCircle
 10
232.041995
 20
-4.143761
 30
0.0
 40
1.829001
  0
CIRCLE
  5
82
100
AcDbEntity
  8
ANNOTATIONS
 62
     7
100
AcDbCircle
 10
209.9343
 20
100.984361
 30
0.0
 40
2.920752
  0
LINE
  5
81
100
AcDbEntity
  8
ANNOTATIONS
 62
     7
100
AcDbLine
 10
246.480046
 20
28.926744
 30
0.0
 11
246.480046
 21
43.22768
 31
0.0
  0
SPLINE
  5
80
100
AcDbEntity
  8
ANNOTATIONS
 62
     7
100
AcDbSpline
210
0.0
220
0.0
230
1.0
 70
     8
 71
     3
 72
    11
 73
     7
 74
     0
 42
0.00000001
 43
0.00000001
 40
0.0
 40
0.0
 40
0.0
 40
0.0
 40
1.0
 40
1.0
 40
1.0
 40
2.0
 40
2.0
 40
2.0
 40
2.0
 10
243.49934895833331
 20
26.425260416666664
 30
0.0
 10
244.88083224826386
 20
26.181692165798609
 30
0.0
 10
246.19823676215276
 20
27.103944227430553
 30
0.0
 10
246.4414605034722
 20
28.48542751736111
 30
0.0
 10
246.46695421006942
 20
28.631155056423609
 30
0.0
 10
246.48004557291665
 20
28.778605143229164
 30
0.0
 10
246.48004557291665
 20
28.926744249131943
 30
0.0
  0
LINE
  5
7F
100
AcDbEntity
  8
ANNOTATIONS
 62
     7
100
AcDbLine
 10
238.419211
 20
27.320985
 30
0.0
 11
243.499349
 21
26.42526
 31
0.0
  0
SPLINE
  5
7E
100
AcDbEntity
  8
ANNOTATIONS
 62
     7
100
AcDbSpline
210
0.0
220
0.0
230
1.0
 70
     8
 71
     3
 72
     8
 73
     4
 74
     0
 42
0.00000001
 43
0.00000001
 40
0.0
 40
0.0
 40
0.0
 40
0.0
 40
1.0
 40
1.0
 40
1.0
 40
1.0
 10
236.32045898437497
 20
29.822469075520832
 30
0.0
 10
236.32045898437497
 20
28.589813910590276
 30
0.0
 10
237.20515950520831
 20
27.534925672743054
 30
0.0
 10
238.41921115451387
 20
27.320985243055553
 30
0.0
  0
LINE
  5
7D
100
AcDbEntity
  8
ANNOTATIONS
 62
     7
100
AcDbLine
 10
236.320459
 20
42.331955
 30
0.0
 11
236.320459
 21
29.822469
 31
0.0
  0
LINE
  5
7C
100
AcDbEntity
  8
ANNOTATIONS
 62
     7
100
AcDbLine
 10
243.499349
 20
45.729164
 30
0.0
 11
238.419211
 21
44.833439
 31
0.0
  0
SPLINE
  5
7B
100
AcDbEntity
  8
ANNOTATIONS
 62
     7
100
AcDbSpline
210
0.0
220
0.0
230
1.0
 70
     8
 71
     3
 72
    11
 73
     7
 74
     0
 42
0.00000001
 43
0.00000001
 40
0.0
 40
0.0
 40
0.0
 40
0.0
 40
1.0
 40
1.0
 40
1.0
 40
2.0
 40
2.0
 40
2.0
 40
2.0
 10
246.48004557291665
 20
43.227680121527776
 30
0.0
 10
246.48004557291665
 20
44.63052300347222
 30
0.0
 10
245.34316406249997
 20
45.767749023437496
 30
0.0
 10
243.94032118055554
 20
45.767749023437496
 30
0.0
 10
243.79218207465274
 20
45.767749023437496
 30
0.0
 10
243.64473198784719
 20
45.754657660590276
 30
0.0
 10
243.49934895833331
 20
45.729163953993051
 30
0.0
  0
SPLINE
  5
7A
100
AcDbEntity
  8
ANNOTATIONS
 62
     7
100
AcDbSpline
210
0.0
220
0.0
230
1.0
 70
     8
 71
     3
 72
     8
 73
     4
 74
     0
 42
0.00000001
 43
0.00000001
 40
0.0
 40
0.0
 40
0.0
 40
0.0
 40
1.0
 40
1.0
 40
1.0
 40
1.0
 10
238.41921115451387
 20
44.833439127604166
 30
0.0
 10
237.20515950520831
 20
44.619498697916661
 30
0.0
 10
236.32045898437497
 20
43.564610460069439
 30
0.0
 10
236.32045898437497
 20
42.331955295138883
 30
0.0
  0
CIRCLE
  5
79
100
AcDbEntity
  8
ANNOTATIONS
 62
     7
100
AcDbCircle
 10
241.399908
 20
23.580301
 30
0.0
 40
1.143083
  0
CIRCLE
  5
78
100
AcDbEntity
  8
ANNOTATIONS
 62
     7
100
AcDbCircle
 10
241.399908
 20
48.573952
 30
0.0
 40
1.14291
  0
CIRCLE
  5
77
100
AcDbEntity
  8
ANNOTATIONS
 62
     7
100
AcDbCircle
 10
155.488356
 20
-51.770139
 30
0.0
 40
1.5875
  0
CIRCLE
  5
76
100
AcDbEntity
  8
ANNOTATIONS
 62
     7
100
AcDbCircle
 10
206.288011
 20
37.130206
 30
0.0
 40
1.5875
  0
CIRCLE
  5
75
100
AcDbEntity
  8
ANNOTATIONS
 62
     7
100
AcDbCircle
 10
104.688356
 20
37.130206
 30
0.0
 40
1.5875
  0
CIRCLE
  5
74
100
AcDbEntity
  8
ANNOTATIONS
 62
     7
100
AcDbCircle
 10
77.995756
 20
-8.140761
 30
0.0
 40
1.828829
  0
LINE
  5
73
100
AcDbEntity
  8
ANNOTATIONS
 62
     7
100
AcDbLine
 10
67.653752
 20
23.838338
 30
0.0
 11
67.653752
 21
9.537402
 31
0.0
  0
SPLINE
  5
72
100
AcDbEntity
  8
ANNOTATIONS
 62
     7
100
AcDbSpline
210
0.0
220
0.0
230
1.0
 70
     8
 71
     3
 72
    11
 73
     7
 74
     0
 42
0.00000001
 43
0.00000001
 40
0.0
 40
0.0
 40
0.0
 40
0.0
 40
1.0
 40
1.0
 40
1.0
 40
2.0
 40
2.0
 40
2.0
 40
2.0
 10
70.634448242187489
 20
26.339822048611108
 30
0.0
 10
69.252964952256931
 20
26.583390299479163
 30
0.0
 10
67.935560438368043
 20
25.661138237847219
 30
0.0
 10
67.692336697048603
 20
24.279654947916665
 30
0.0
 10
67.666498480902774
 20
24.133927408854163
 30
0.0
 10
67.653751627604166
 20
23.986477322048607
 30
0.0
 10
67.653751627604166
 20
23.838338216145832
 30
0.0
  0
LINE
  5
71
100
AcDbEntity
  8
ANNOTATIONS
 62
     7
100
AcDbLine
 10
75.714586
 20
25.444097
 30
0.0
 11
70.634448
 21
26.339822
 31
0.0
  0
SPLINE
  5
70
100
AcDbEntity
  8
ANNOTATIONS
 62
     7
100
AcDbSpline
210
0.0
220
0.0
230
1.0
 70
     8
 71
     3
 72
     8
 73
     4
 74
     0
 42
0.00000001
 43
0.00000001
 40
0.0
 40
0.0
 40
0.0
 40
0.0
 40
1.0
 40
1.0
 40
1.0
 40
1.0
 10
77.813338216145823
 20
22.942613389756943
 30
0.0
 10
77.813338216145823
 20
24.175268554687499
 30
0.0
 10
76.928637695312489
 20
25.230156792534721
 30
0.0
 10
75.714586046006943
 20
25.444097222222219
 30
0.0
  0
LINE
  5
6F
100
AcDbEntity
  8
ANNOTATIONS
 62
     7
100
AcDbLine
 10
77.813338
 20
10.433127
 30
0.0
 11
77.813338
 21
22.942613
 31
0.0
  0
LINE
  5
6E
100
AcDbEntity
  8
ANNOTATIONS
 62
     7
100
AcDbLine
 10
70.634448
 20
7.035919
 30
0.0
 11
75.714586
 21
7.931643
 31
0.0
  0
SPLINE
  5
6D
100
AcDbEntity
  8
ANNOTATIONS
 62
     7
100
AcDbSpline
210
0.0
220
0.0
230
1.0
 70
     8
 71
     3
 72
    11
 73
     7
 74
     0
 42
0.00000001
 43
0.00000001
 40
0.0
 40
0.0
 40
0.0
 40
0.0
 40
1.0
 40
1.0
 40
1.0
 40
2.0
 40
2.0
 40
2.0
 40
2.0
 10
67.653751627604166
 20
9.5374023437499993
 30
0.0
 10
67.653751627604166
 20
8.134559461805555
 30
0.0
 10
68.790633138020823
 20
6.9973334418402775
 30
0.0
 10
70.193476019965274
 20
6.9973334418402775
 30
0.0
 10
70.341615125868046
 20
6.9973334418402775
 30
0.0
 10
70.489065212673609
 20
7.0104248046874993
 30
0.0
 10
70.634448242187489
 20
7.0359185112847218
 30
0.0
  0
SPLINE
  5
6C
100
AcDbEntity
  8
ANNOTATIONS
 62
     7
100
AcDbSpline
210
0.0
220
0.0
230
1.0
 70
     8
 71
     3
 72
     8
 73
     4
 74
     0
 42
0.00000001
 43
0.00000001
 40
0.0
 40
0.0
 40
0.0
 40
0.0
 40
1.0
 40
1.0
 40
1.0
 40
1.0
 10
75.714586046006943
 20
7.9316433376736102
 30
0.0
 10
76.928637695312489
 20
8.14558376736111
 30
0.0
 10
77.813338216145823
 20
9.2004720052083329
 30
0.0
 10
77.813338216145823
 20
10.433127170138889
 30
0.0
  0
CIRCLE
  5
6B
100
AcDbEntity
  8
ANNOTATIONS
 62
     7
100
AcDbCircle
 10
72.733545
 20
29.184782
 30
0.0
 40
1.143083
  0
CIRCLE
  5
6A
100
AcDbEntity
  8
ANNOTATIONS
 62
     7
100
AcDbCircle
 10
72.733545
 20
4.191131
 30
0.0
 40
1.14291
  0
CIRCLE
  5
69
100
AcDbEntity
  8
ANNOTATIONS
 62
     7
100
AcDbCircle
 10
103.20662
 20
-6.543614
 30
0.0
 40
1.130336
  0
CIRCLE
  5
68
100
AcDbEntity
  8
ANNOTATIONS
 62
     7
100
AcDbCircle
 10
180.676138
 20
79.181386
 30
0.0
 40
1.130336
  0
CIRCLE
  5
67
100
AcDbEntity
  8
ANNOTATIONS
 62
     7
100
AcDbCircle
 10
176.866551
 20
-6.543614
 30
0.0
 40
1.130336
  0
CIRCLE
  5
66
100
AcDbEntity
  8
ANNOTATIONS
 62
     7
100
AcDbCircle
 10
100.666551
 20
79.181386
 30
0.0
 40
1.130336
  0
INSERT
  5
61
100
AcDbEntity
  8
ANNOTATIONS
 62
     7
100
AcDbBlockReference
  2
AI9-BLK4
 10
155.488356
 20
37.130033
 30
0.0
  0
INSERT
  5
5B
100
AcDbEntity
  8
ANNOTATIONS
 62
     7
100
AcDbBlockReference
  2
AI9-BLK3
 10
155.488356
 20
37.129861
 30
0.0
  0
CIRCLE
  5
59
100
AcDbEntity
  8
ANNOTATIONS
 62
     7
100
AcDbCircle
 10
391.566452
 20
37.130206
 30
0.0
 40
115.8875
  0
CIRCLE
  5
58
100
AcDbEntity
  8
ANNOTATIONS
 62
     7
100
AcDbCircle
 10
500.786315
 20
37.129861
 30
0.0
 40
1.269862
  0
CIRCLE
  5
57
100
AcDbEntity
  8
ANNOTATIONS
 62
     7
100
AcDbCircle
 10
282.34659
 20
37.129861
 30
0.0
 40
1.269862
  0
CIRCLE
  5
56
100
AcDbEntity
  8
ANNOTATIONS
 62
     7
100
AcDbCircle
 10
416.966797
 20
-34.443376
 30
0.0
 40
2.540069
  0
CIRCLE
  5
55
100
AcDbEntity
  8
ANNOTATIONS
 62
     7
100
AcDbCircle
 10
477.52813
 20
9.967695
 30
0.0
 40
2.540069
  0
CIRCLE
  5
54
100
AcDbEntity
  8
ANNOTATIONS
 62
     7
100
AcDbCircle
 10
442.366797
 20
-34.443376
 30
0.0
 40
2.540069
  0
SPLINE
  5
53
100
AcDbEntity
  8
ANNOTATIONS
 62
     7
100
AcDbSpline
210
0.0
220
0.0
230
1.0
 70
     8
 71
     3
 72
    29
 73
    25
 74
     0
 42
0.00000001
 43
0.00000001
 40
0.0
 40
0.0
 40
0.0
 40
0.0
 40
1.0
 40
1.0
 40
1.0
 40
2.0
 40
2.0
 40
2.0
 40
3.0
 40
3.0
 40
3.0
 40
4.0
 40
4.0
 40
4.0
 40
5.0
 40
5.0
 40
5.0
 40
6.0
 40
6.0
 40
6.0
 40
7.0
 40
7.0
 40
7.0
 40
8.0
 40
8.0
 40
8.0
 40
8.0
 10
309.7929768880208
 20
38.188538953993053
 30
0.0
 10
309.7929768880208
 20
37.487117513020827
 30
0.0
 10
309.22384711371524
 20
36.918676757812499
 30
0.0
 10
308.52242567274305
 20
36.918676757812499
 30
0.0
 10
308.52242567274305
 20
36.918676757812499
 30
0.0
 10
308.52242567274305
 20
36.918676757812499
 30
0.0
 10
308.52242567274305
 20
36.918676757812499
 30
0.0
 10
307.82100423177081
 20
36.918676757812499
 30
0.0
 10
307.2525634765625
 20
37.487117513020827
 30
0.0
 10
307.2525634765625
 20
38.188538953993053
 30
0.0
 10
307.2525634765625
 20
38.188538953993053
 30
0.0
 10
307.2525634765625
 20
43.268676757812493
 30
0.0
 10
307.2525634765625
 20
43.268676757812493
 30
0.0
 10
307.2525634765625
 20
43.970098198784719
 30
0.0
 10
307.82100423177081
 20
44.538538953993054
 30
0.0
 10
308.52242567274305
 20
44.538538953993054
 30
0.0
 10
308.52242567274305
 20
44.538538953993054
 30
0.0
 10
308.52242567274305
 20
44.538538953993054
 30
0.0
 10
308.52242567274305
 20
44.538538953993054
 30
0.0
 10
309.22384711371524
 20
44.538538953993054
 30
0.0
 10
309.7929768880208
 20
43.970098198784719
 30
0.0
 10
309.7929768880208
 20
43.268676757812493
 30
0.0
 10
309.7929768880208
 20
43.268676757812493
 30
0.0
 10
309.7929768880208
 20
38.188538953993053
 30
0.0
 10
309.7929768880208
 20
38.188538953993053
 30
0.0
  0
CIRCLE
  5
52
100
AcDbEntity
  8
ANNOTATIONS
 62
     7
100
AcDbCircle
 10
468.120264
 20
-4.143761
 30
0.0
 40
1.829001
  0
CIRCLE
  5
51
100
AcDbEntity
  8
ANNOTATIONS
 62
     7
100
AcDbCircle
 10
446.012741
 20
100.984361
 30
0.0
 40
2.920752
  0
LINE
  5
50
100
AcDbEntity
  8
ANNOTATIONS
 62
     7
100
AcDbLine
 10
482.558314
 20
28.926744
 30
0.0
 11
482.558314
 21
43.22768
 31
0.0
  0
SPLINE
  5
4F
100
AcDbEntity
  8
ANNOTATIONS
 62
     7
100
AcDbSpline
210
0.0
220
0.0
230
1.0
 70
     8
 71
     3
 72
    11
 73
     7
 74
     0
 42
0.00000001
 43
0.00000001
 40
0.0
 40
0.0
 40
0.0
 40
0.0
 40
1.0
 40
1.0
 40
1.0
 40
2.0
 40
2.0
 40
2.0
 40
2.0
 10
479.57761773003466
 20
26.425260416666664
 30
0.0
 10
480.95910101996526
 20
26.181692165798609
 30
0.0
 10
482.27650553385411
 20
27.103944227430553
 30
0.0
 10
482.51972927517357
 20
28.48542751736111
 30
0.0
 10
482.54522298177079
 20
28.631155056423609
 30
0.0
 10
482.558314344618
 20
28.778605143229164
 30
0.0
 10
482.558314344618
 20
28.926744249131943
 30
0.0
  0
LINE
  5
4E
100
AcDbEntity
  8
ANNOTATIONS
 62
     7
100
AcDbLine
 10
474.49748
 20
27.320985
 30
0.0
 11
479.577618
 21
26.42526
 31
0.0
  0
SPLINE
  5
4D
100
AcDbEntity
  8
ANNOTATIONS
 62
     7
100
AcDbSpline
210
0.0
220
0.0
230
1.0
 70
     8
 71
     3
 72
     8
 73
     4
 74
     0
 42
0.00000001
 43
0.00000001
 40
0.0
 40
0.0
 40
0.0
 40
0.0
 40
1.0
 40
1.0
 40
1.0
 40
1.0
 10
472.39872775607637
 20
29.822469075520832
 30
0.0
 10
472.39872775607637
 20
28.589813910590276
 30
0.0
 10
473.28342827690966
 20
27.534925672743054
 30
0.0
 10
474.49747992621525
 20
27.320985243055553
 30
0.0
  0
LINE
  5
4C
100
AcDbEntity
  8
ANNOTATIONS
 62
     7
100
AcDbLine
 10
472.398728
 20
42.331955
 30
0.0
 11
472.398728
 21
29.822469
 31
0.0
  0
LINE
  5
4B
100
AcDbEntity
  8
ANNOTATIONS
 62
     7
100
AcDbLine
 10
479.577618
 20
45.729164
 30
0.0
 11
474.49748
 21
44.833439
 31
0.0
  0
SPLINE
  5
4A
100
AcDbEntity
  8
ANNOTATIONS
 62
     7
100
AcDbSpline
210
0.0
220
0.0
230
1.0
 70
     8
 71
     3
 72
    11
 73
     7
 74
     0
 42
0.00000001
 43
0.00000001
 40
0.0
 40
0.0
 40
0.0
 40
0.0
 40
1.0
 40
1.0
 40
1.0
 40
2.0
 40
2.0
 40
2.0
 40
2.0
 10
482.558314344618
 20
43.227680121527776
 30
0.0
 10
482.558314344618
 20
44.63052300347222
 30
0.0
 10
481.42143283420137
 20
45.767749023437496
 30
0.0
 10
480.01858995225689
 20
45.767749023437496
 30
0.0
 10
479.87045084635412
 20
45.767749023437496
 30
0.0
 10
479.72300075954854
 20
45.754657660590276
 30
0.0
 10
479.57761773003466
 20
45.729163953993051
 30
0.0
  0
SPLINE
  5
49
100
AcDbEntity
  8
ANNOTATIONS
 62
     7
100
AcDbSpline
210
0.0
220
0.0
230
1.0
 70
     8
 71
     3
 72
     8
 73
     4
 74
     0
 42
0.00000001
 43
0.00000001
 40
0.0
 40
0.0
 40
0.0
 40
0.0
 40
1.0
 40
1.0
 40
1.0
 40
1.0
 10
474.49747992621525
 20
44.833439127604166
 30
0.0
 10
473.28342827690966
 20
44.619498697916661
 30
0.0
 10
472.39872775607637
 20
43.564610460069439
 30
0.0
 10
472.39872775607637
 20
42.331955295138883
 30
0.0
  0
CIRCLE
  5
48
100
AcDbEntity
  8
ANNOTATIONS
 62
     7
100
AcDbCircle
 10
477.478177
 20
23.580301
 30
0.0
 40
1.143083
  0
CIRCLE
  5
47
100
AcDbEntity
  8
ANNOTATIONS
 62
     7
100
AcDbCircle
 10
477.478177
 20
48.573952
 30
0.0
 40
1.14291
  0
CIRCLE
  5
46
100
AcDbEntity
  8
ANNOTATIONS
 62
     7
100
AcDbCircle
 10
391.566452
 20
-51.770139
 30
0.0
 40
1.5875
  0
CIRCLE
  5
45
100
AcDbEntity
  8
ANNOTATIONS
 62
     7
100
AcDbCircle
 10
442.366452
 20
37.130206
 30
0.0
 40
1.5875
  0
CIRCLE
  5
44
100
AcDbEntity
  8
ANNOTATIONS
 62
     7
100
AcDbCircle
 10
340.766452
 20
37.130206
 30
0.0
 40
1.5875
  0
CIRCLE
  5
43
100
AcDbEntity
  8
ANNOTATIONS
 62
     7
100
AcDbCircle
 10
314.074197
 20
-8.140761
 30
0.0
 40
1.829001
  0
LINE
  5
42
100
AcDbEntity
  8
ANNOTATIONS
 62
     7
100
AcDbLine
 10
303.732365
 20
23.838338
 30
0.0
 11
303.732365
 21
9.537402
 31
0.0
  0
SPLINE
  5
41
100
AcDbEntity
  8
ANNOTATIONS
 62
     7
100
AcDbSpline
210
0.0
220
0.0
230
1.0
 70
     8
 71
     3
 72
    11
 73
     7
 74
     0
 42
0.00000001
 43
0.00000001
 40
0.0
 40
0.0
 40
0.0
 40
0.0
 40
1.0
 40
1.0
 40
1.0
 40
2.0
 40
2.0
 40
2.0
 40
2.0
 10
306.71306152343749
 20
26.339822048611108
 30
0.0
 10
305.33157823350689
 20
26.583390299479163
 30
0.0
 10
304.01417371961804
 20
25.661138237847219
 30
0.0
 10
303.77094997829857
 20
24.279654947916665
 30
0.0
 10
303.74476725260416
 20
24.133927408854163
 30
0.0
 10
303.73236490885415
 20
23.986477322048607
 30
0.0
 10
303.73236490885415
 20
23.838338216145832
 30
0.0
  0
LINE
  5
40
100
AcDbEntity
  8
ANNOTATIONS
 62
     7
100
AcDbLine
 10
311.793199
 20
25.444097
 30
0.0
 11
306.713062
 21
26.339822
 31
0.0
  0
SPLINE
  5
3F
100
AcDbEntity
  8
ANNOTATIONS
 62
     7
100
AcDbSpline
210
0.0
220
0.0
230
1.0
 70
     8
 71
     3
 72
     8
 73
     4
 74
     0
 42
0.00000001
 43
0.00000001
 40
0.0
 40
0.0
 40
0.0
 40
0.0
 40
1.0
 40
1.0
 40
1.0
 40
1.0
 10
313.89195149739578
 20
22.942613389756943
 30
0.0
 10
313.89195149739578
 20
24.175268554687499
 30
0.0
 10
313.00725097656249
 20
25.230156792534721
 30
0.0
 10
311.7931993272569
 20
25.444097222222219
 30
0.0
  0
LINE
  5
3E
100
AcDbEntity
  8
ANNOTATIONS
 62
     7
100
AcDbLine
 10
313.891951
 20
10.433127
 30
0.0
 11
313.891951
 21
22.942613
 31
0.0
  0
LINE
  5
3D
100
AcDbEntity
  8
ANNOTATIONS
 62
     7
100
AcDbLine
 10
306.713062
 20
7.035919
 30
0.0
 11
311.793199
 21
7.931643
 31
0.0
  0
SPLINE
  5
3C
100
AcDbEntity
  8
ANNOTATIONS
 62
     7
100
AcDbSpline
210
0.0
220
0.0
230
1.0
 70
     8
 71
     3
 72
    11
 73
     7
 74
     0
 42
0.00000001
 43
0.00000001
 40
0.0
 40
0.0
 40
0.0
 40
0.0
 40
1.0
 40
1.0
 40
1.0
 40
2.0
 40
2.0
 40
2.0
 40
2.0
 10
303.73236490885415
 20
9.5374023437499993
 30
0.0
 10
303.73236490885415
 20
8.134559461805555
 30
0.0
 10
304.86924641927078
 20
6.9973334418402775
 30
0.0
 10
306.27208930121526
 20
6.9973334418402775
 30
0.0
 10
306.42022840711803
 20
6.9973334418402775
 30
0.0
 10
306.56767849392361
 20
7.0104248046874993
 30
0.0
 10
306.71306152343749
 20
7.0359185112847218
 30
0.0
  0
SPLINE
  5
3B
100
AcDbEntity
  8
ANNOTATIONS
 62
     7
100
AcDbSpline
210
0.0
220
0.0
230
1.0
 70
     8
 71
     3
 72
     8
 73
     4
 74
     0
 42
0.00000001
 43
0.00000001
 40
0.0
 40
0.0
 40
0.0
 40
0.0
 40
1.0
 40
1.0
 40
1.0
 40
1.0
 10
311.7931993272569
 20
7.9316433376736102
 30
0.0
 10
313.00725097656249
 20
8.14558376736111
 30
0.0
 10
313.89195149739578
 20
9.2004720052083329
 30
0.0
 10
313.89195149739578
 20
10.433127170138889
 30
0.0
  0
CIRCLE
  5
3A
100
AcDbEntity
  8
ANNOTATIONS
 62
     7
100
AcDbCircle
 10
308.811814
 20
29.184782
 30
0.0
 40
1.143083
  0
CIRCLE
  5
39
100
AcDbEntity
  8
ANNOTATIONS
 62
     7
100
AcDbCircle
 10
308.811814
 20
4.191131
 30
0.0
 40
1.14291
  0
CIRCLE
  5
38
100
AcDbEntity
  8
ANNOTATIONS
 62
     7
100
AcDbCircle
 10
339.284717
 20
-6.543614
 30
0.0
 40
1.130336
  0
CIRCLE
  5
37
100
AcDbEntity
  8
ANNOTATIONS
 62
     7
100
AcDbCircle
 10
416.754579
 20
79.181386
 30
0.0
 40
1.130336
  0
CIRCLE
  5
36
100
AcDbEntity
  8
ANNOTATIONS
 62
     7
100
AcDbCircle
 10
412.944992
 20
-6.543614
 30
0.0
 40
1.130336
  0
CIRCLE
  5
35
100
AcDbEntity
  8
ANNOTATIONS
 62
     7
100
AcDbCircle
 10
336.744992
 20
79.181386
 30
0.0
 40
1.130336
  0
INSERT
  5
30
100
AcDbEntity
  8
ANNOTATIONS
 62
     7
100
AcDbBlockReference
  2
AI9-BLK2
 10
391.566797
 20
37.130033
 30
0.0
  0
INSERT
  5
2A
100
AcDbEntity
  8
ANNOTATIONS
 62
     7
100
AcDbBlockReference
  2
AI9-BLK1
 10
391.566797
 20
37.129861
 30
0.0
  0
ENDSEC
  0
SECTION
  2
OBJECTS
  0
DICTIONARY
  5
19
100
AcDbDictionary
280
     0
281
     1
  3
ACAD_GROUP
350
1A
  3
ACAD_MLINESTYLE
350
1B
  3
ACAD_LAYOUT
350
1E
  3
ACAD_PLOTSETTINGS
350
22
  3
ACAD_PLOTSTYLENAME
350
1F
  3
ACAD_WIPEOUT_VARS
350
23
  0
DICTIONARY
  5
1A
102
{ACAD_REACTORS
330
19
102
}
100
AcDbDictionary
280
     0
281
     1
  0
DICTIONARY
  5
1B
102
{ACAD_REACTORS
330
19
102
}
100
AcDbDictionary
280
     0
281
     1
  3
Standard
350
1C
  0
MLINESTYLE
  5
1C
102
{ACAD_REACTORS
330
1B
102
}
100
AcDbMlineStyle
  2
Standard
 70
     0
  3

 62
     0
 51
90.0
 52
90.0
 71
     2
 49
0.5
 62
   256
  6
BYLAYER
 49
-0.5
 62
   256
  6
BYLAYER
  0
ACDBDICTIONARYWDFLT
  5
1F
102
{ACAD_REACTORS
330
19
102
}
100
AcDbDictionary
281
     1
  3
Normal
350
1D
100
AcDbDictionaryWithDefault
340
1D
  0
ACDBPLACEHOLDER
  5
1D
102
{ACAD_REACTORS
330
1F
102
}
  0
LAYOUT
  5
20
102
{ACAD_REACTORS
330
1E
102
}
100
AcDbPlotSettings
  1

  2

  4

  6

 40
0.0
 41
0.0
 42
0.0
 43
0.0
 44
0.0
 45
0.0
 46
0.0
 47
0.0
 48
0.0
 49
0.0
140
0.0
141
0.0
142
1.0
143
1.0
 70
  1024
 72
     0
 73
     0
 74
     0
  7

 75
     0
147
1.0
148
0.0
149
0.0
100
AcDbLayout
  1
Model
 70
     0
 71
     0
 10
0.0
 20
0.0
 11
0.0
 21
0.0
 12
0.0
 22
0.0
 32
0.0
 14
0.0
 24
0.0
 34
0.0
 15
0.0
 25
0.0
 35
0.0
146
0.0
 13
0.0
 23
0.0
 33
0.0
 16
0.0
 26
0.0
 36
0.0
 17
0.0
 27
0.0
 37
0.0
 76
     0
330
A
331
0
345
0
346
0
  0
LAYOUT
  5
21
102
{ACAD_REACTORS
330
1E
102
}
100
AcDbPlotSettings
  1

  2

  4

  6

 40
0.0
 41
0.0
 42
0.0
 43
0.0
 44
0.0
 45
0.0
 46
0.0
 47
0.0
 48
0.0
 49
0.0
140
0.0
141
0.0
142
1.0
143
1.0
 70
     0
 72
     0
 73
     0
 74
     0
  7

 75
     0
147
1.0
148
0.0
149
0.0
100
AcDbLayout
  1
Layout1
 70
     0
 71
     0
 10
0.0
 20
0.0
 11
0.0
 21
0.0
 12
0.0
 22
0.0
 32
0.0
 14
0.0
 24
0.0
 34
0.0
 15
0.0
 25
0.0
 35
0.0
146
0.0
 13
0.0
 23
0.0
 33
0.0
 16
0.0
 26
0.0
 36
0.0
 17
0.0
 27
0.0
 37
0.0
 76
     0
330
B
331
0
345
0
346
0
  0
DICTIONARY
  5
1E
102
{ACAD_REACTORS
330
19
102
}
100
AcDbDictionary
280
     0
281
     1
  3
Layout1
350
21
  3
Model
350
20
  0
DICTIONARY
  5
22
102
{ACAD_REACTORS
330
19
102
}
100
AcDbDictionary
280
     0
281
     1
  0
WIPEOUTVARIABLES
  5
23
100
AcDbWipeoutVariables
 70
     1
  0
ENDSEC
  0
EOF
